<svg width="74" height="74" viewBox="0 0 74 74" fill="none" xmlns="http://www.w3.org/2000/svg">
<g filter="url(#filter0_d_1_130116)">
<rect x="1" width="72" height="72" rx="36" fill="white" shape-rendering="crispEdges"/>
<g clip-path="url(#clip0_1_130116)">
<path d="M42.0621 20.5C43.3409 20.5 44.6196 20.5 45.9371 20.5C46.0815 20.9331 46.2259 21.3663 46.3746 21.8125C46.8735 22.1257 46.8735 22.1257 47.4325 22.179C47.7334 22.0944 47.9939 21.9409 48.2655 21.7887C48.3947 21.72 48.3947 21.72 48.6246 21.625C48.8394 21.697 48.975 21.8351 49.1325 21.9937C49.1826 22.0437 49.2326 22.0938 49.2841 22.1453C49.3375 22.1994 49.3909 22.2534 49.4459 22.3091C49.5286 22.3921 49.5286 22.3921 49.613 22.4767C49.7591 22.6234 49.905 22.7704 50.0507 22.9175C50.1996 23.0677 50.3489 23.2175 50.4982 23.3674C50.7907 23.6613 51.0828 23.9555 51.3746 24.25C51.2692 24.58 51.1258 24.8737 50.9561 25.1743C50.8163 25.4381 50.798 25.5887 50.8746 25.875C50.884 25.9362 50.8933 25.9973 50.903 26.0603C50.9551 26.2906 50.9551 26.2906 51.1871 26.625C51.8368 26.8416 51.8368 26.8416 52.4996 27.0625C52.4996 28.3412 52.4996 29.62 52.4996 30.9375C51.85 31.1541 51.85 31.1541 51.1871 31.375C50.874 31.8739 50.874 31.8739 50.8207 32.4329C50.9052 32.7338 51.0587 32.9943 51.211 33.2659C51.2797 33.395 51.2797 33.395 51.3746 33.625C51.3026 33.8397 51.1645 33.9753 51.006 34.1329C50.9309 34.2079 50.9309 34.2079 50.8543 34.2845C50.8003 34.3379 50.7462 34.3913 50.6906 34.4463C50.6076 34.529 50.6076 34.529 50.523 34.6134C50.3762 34.7595 50.2293 34.9053 50.0822 35.0511C49.932 35.2 49.7821 35.3493 49.6322 35.4985C49.3384 35.791 49.0441 36.0831 48.7496 36.375C48.4196 36.2696 48.126 36.1261 47.8253 35.9564C47.5615 35.8167 47.4109 35.7984 47.1246 35.875C47.0329 35.889 47.0329 35.889 46.9393 35.9033C46.7011 35.9672 46.565 36.0267 46.3746 36.1875C46.1544 36.5984 46.058 37.0522 45.9371 37.5C45.4628 37.5 44.9884 37.5 44.4996 37.5C44.5002 37.661 44.5008 37.8219 44.5013 37.9878C44.5064 39.5034 44.5102 41.019 44.5126 42.5346C44.5139 43.3138 44.5156 44.0931 44.5185 44.8723C44.521 45.5515 44.5226 46.2307 44.5232 46.9098C44.5235 47.2695 44.5243 47.6291 44.5261 47.9887C44.5278 48.3272 44.5283 48.6658 44.5279 49.0044C44.528 49.1285 44.5285 49.2527 44.5294 49.3769C44.5307 49.5467 44.5304 49.7164 44.5297 49.8862C44.5304 49.9351 44.5312 49.984 44.5319 50.0343C44.5275 50.4455 44.3985 50.7676 44.1268 51.0776C44.0862 51.1113 44.0455 51.145 44.0036 51.1797C43.963 51.2143 43.9225 51.249 43.8808 51.2847C43.6185 51.4654 43.39 51.5156 43.0741 51.5161C43.0011 51.5165 42.928 51.5169 42.8528 51.5173C42.7728 51.5171 42.6928 51.5169 42.6104 51.5167C42.5244 51.5169 42.4384 51.5172 42.3524 51.5176C42.116 51.5183 41.8797 51.5183 41.6434 51.5182C41.3885 51.5181 41.1336 51.5188 40.8787 51.5194C40.3793 51.5205 39.8799 51.5208 39.3805 51.5209C38.9745 51.5209 38.5686 51.5212 38.1627 51.5216C37.0119 51.5227 35.8611 51.5233 34.7103 51.5232C34.6482 51.5232 34.5862 51.5232 34.5223 51.5232C34.4602 51.5232 34.398 51.5232 34.334 51.5231C33.3272 51.5231 32.3204 51.5243 31.3136 51.5261C30.2799 51.5278 29.2462 51.5287 28.2125 51.5286C27.6322 51.5286 27.0518 51.5289 26.4714 51.5303C25.9773 51.5314 25.4832 51.5317 24.989 51.5308C24.7369 51.5304 24.4848 51.5304 24.2328 51.5315C24.0019 51.5325 23.771 51.5323 23.5401 51.5312C23.4173 51.5309 23.2944 51.5319 23.1716 51.5329C22.663 51.5289 22.3153 51.4719 21.922 51.1272C21.8883 51.0865 21.8547 51.0458 21.82 51.0039C21.7853 50.9634 21.7507 50.9229 21.715 50.8811C21.4818 50.5426 21.4816 50.2364 21.4829 49.8386C21.4827 49.7779 21.4824 49.7173 21.4821 49.6548C21.4813 49.4513 21.4814 49.2479 21.4815 49.0445C21.4811 48.8987 21.4807 48.7529 21.4802 48.6071C21.4791 48.2109 21.4788 47.8148 21.4787 47.4186C21.4786 47.0879 21.4782 46.7572 21.4777 46.4266C21.4767 45.691 21.4764 44.9554 21.4765 44.2198C21.4765 44.1757 21.4765 44.1316 21.4765 44.0861C21.4765 44.0419 21.4765 43.9978 21.4765 43.9522C21.4766 43.2364 21.4754 42.5206 21.4736 41.8048C21.4718 41.0694 21.4709 40.3341 21.471 39.5987C21.4711 39.186 21.4707 38.7733 21.4694 38.3606C21.4682 37.9724 21.4682 37.5842 21.4691 37.1961C21.4692 37.0537 21.4689 36.9113 21.4682 36.7689C21.4672 36.5743 21.4678 36.3798 21.4687 36.1852C21.4681 36.129 21.4675 36.0728 21.4668 36.0149C21.4715 35.5799 21.5837 35.2518 21.8725 34.9224C21.9131 34.8887 21.9538 34.855 21.9957 34.8203C22.0363 34.7857 22.0768 34.751 22.1185 34.7153C22.4565 34.4825 22.7625 34.4817 23.1597 34.4826C23.2202 34.4822 23.2807 34.4819 23.343 34.4815C23.5459 34.4804 23.7488 34.4803 23.9516 34.4801C24.097 34.4795 24.2424 34.4789 24.3877 34.4782C24.7826 34.4765 25.1774 34.4755 25.5723 34.4747C25.9431 34.4738 26.3138 34.4724 26.6846 34.4709C27.4189 34.4681 28.1533 34.4658 28.8876 34.4639C29.6009 34.462 30.3142 34.4598 31.0274 34.4573C31.0934 34.4571 31.0934 34.4571 31.1607 34.4569C31.3813 34.4561 31.6019 34.4553 31.8225 34.4545C33.6524 34.4481 35.4823 34.4425 37.3121 34.4375C37.0853 34.2106 36.8584 33.9838 36.6246 33.75C36.7359 33.4164 36.872 33.129 37.0432 32.8257C37.183 32.5619 37.2013 32.4113 37.1246 32.125C37.1106 32.0333 37.1106 32.0333 37.0963 31.9397C37.0442 31.7094 37.0442 31.7094 36.8121 31.375C36.379 31.2306 35.9459 31.0863 35.4996 30.9375C35.4996 29.6588 35.4996 28.38 35.4996 27.0625C35.9328 26.9181 36.3659 26.7737 36.8121 26.625C37.1253 26.1261 37.1253 26.1261 37.1786 25.5671C37.0941 25.2662 36.9406 25.0057 36.7883 24.7341C36.7196 24.605 36.7196 24.605 36.6246 24.375C36.6967 24.1603 36.8348 24.0247 36.9933 23.8671C37.0434 23.8171 37.0934 23.7671 37.145 23.7155C37.199 23.6621 37.2531 23.6087 37.3087 23.5537C37.364 23.4986 37.4194 23.4434 37.4763 23.3866C37.6231 23.2405 37.77 23.0947 37.9171 22.9489C38.0673 22.8 38.2172 22.6507 38.3671 22.5015C38.6609 22.209 38.9552 21.9169 39.2496 21.625C39.5797 21.7304 39.8733 21.8739 40.174 22.0436C40.4378 22.1833 40.5884 22.2016 40.8746 22.125C40.9358 22.1157 40.9969 22.1063 41.06 22.0967C41.2902 22.0445 41.2902 22.0445 41.6246 21.8125C41.769 21.3794 41.9134 20.9462 42.0621 20.5ZM42.8746 21.5C42.8128 21.683 42.7509 21.8661 42.6871 22.0547C42.6676 22.1123 42.648 22.1699 42.6278 22.2292C42.6126 22.2746 42.5974 22.32 42.5817 22.3667C42.566 22.4132 42.5503 22.4597 42.5341 22.5075C42.4938 22.6246 42.4938 22.6246 42.4996 22.75C42.4165 22.7558 42.4165 22.7558 42.3317 22.7617C41.7911 22.8396 41.2662 23.0869 40.8183 23.3923C40.4626 23.5149 39.7161 23.0374 39.4996 22.9375C38.984 23.4531 38.4684 23.9688 37.9371 24.5C38.1061 24.8362 38.1061 24.8362 38.2775 25.1712C38.4466 25.5187 38.4466 25.5187 38.4013 25.7288C38.3719 25.777 38.3424 25.8253 38.3121 25.875C38.2832 25.9372 38.2543 25.9994 38.2245 26.0635C38.1928 26.1302 38.1612 26.1969 38.1286 26.2656C37.8455 26.8597 37.8455 26.8597 37.7496 27.5C37.7065 27.5114 37.6634 27.5227 37.619 27.5344C37.5603 27.5501 37.5016 27.5658 37.4411 27.582C37.3838 27.5973 37.3265 27.6125 37.2675 27.6282C37.0092 27.7028 36.7547 27.79 36.4996 27.875C36.4996 28.6175 36.4996 29.36 36.4996 30.125C36.6827 30.1869 36.8657 30.2487 37.0543 30.3125C37.1119 30.3321 37.1695 30.3517 37.2289 30.3718C37.2742 30.3871 37.3196 30.4023 37.3663 30.418C37.4128 30.4337 37.4593 30.4494 37.5072 30.4656C37.6242 30.5059 37.6242 30.5059 37.7496 30.5C37.7535 30.5554 37.7574 30.6109 37.7614 30.668C37.8392 31.2086 38.0865 31.7335 38.392 32.1814C38.5145 32.5371 38.037 33.2836 37.9371 33.5C38.4528 34.0156 38.9684 34.5312 39.4996 35.0625C39.8359 34.8935 39.8359 34.8935 40.1708 34.7221C40.5183 34.553 40.5183 34.553 40.7284 34.5984C40.7767 34.6278 40.8249 34.6572 40.8746 34.6875C40.9368 34.7164 40.999 34.7453 41.0631 34.7751C41.1298 34.8068 41.1965 34.8385 41.2653 34.8711C41.8594 35.1542 41.8594 35.1542 42.4996 35.25C42.511 35.2931 42.5224 35.3362 42.5341 35.3806C42.5498 35.4393 42.5655 35.4981 42.5817 35.5586C42.5969 35.6159 42.6121 35.6732 42.6278 35.7322C42.7024 35.9905 42.7896 36.245 42.8746 36.5C43.6171 36.5 44.3596 36.5 45.1246 36.5C45.1865 36.317 45.2484 36.1339 45.3121 35.9453C45.3317 35.8877 45.3513 35.8301 45.3715 35.7708C45.3867 35.7254 45.4019 35.68 45.4176 35.6333C45.4333 35.5868 45.449 35.5403 45.4652 35.4925C45.5055 35.3754 45.5055 35.3754 45.4996 35.25C45.5551 35.2461 45.6105 35.2423 45.6676 35.2383C46.2082 35.1604 46.7331 34.9131 47.181 34.6077C47.5367 34.4851 48.2832 34.9626 48.4996 35.0625C49.0153 34.5469 49.5309 34.0312 50.0621 33.5C49.8932 33.1638 49.8932 33.1638 49.7218 32.8288C49.5527 32.4813 49.5527 32.4813 49.598 32.2712C49.6274 32.223 49.6569 32.1747 49.6871 32.125C49.7305 32.0317 49.7305 32.0317 49.7748 31.9365C49.8065 31.8698 49.8381 31.8031 49.8707 31.7344C50.1538 31.1403 50.1538 31.1403 50.2496 30.5C50.2928 30.4886 50.3359 30.4773 50.3803 30.4656C50.4684 30.442 50.4684 30.442 50.5582 30.418C50.6155 30.4027 50.6728 30.3875 50.7318 30.3718C50.9901 30.2972 51.2446 30.21 51.4996 30.125C51.4996 29.3825 51.4996 28.64 51.4996 27.875C51.3166 27.8131 51.1336 27.7512 50.945 27.6875C50.8874 27.6679 50.8298 27.6483 50.7704 27.6282C50.7251 27.6129 50.6797 27.5977 50.6329 27.582C50.5865 27.5663 50.54 27.5506 50.4921 27.5344C50.3751 27.4941 50.3751 27.4941 50.2496 27.5C50.2458 27.4446 50.2419 27.3891 50.2379 27.332C50.1601 26.7914 49.9128 26.2665 49.6073 25.8186C49.4848 25.4629 49.9623 24.7164 50.0621 24.5C49.5465 23.9844 49.0309 23.4688 48.4996 22.9375C48.1634 23.1065 48.1634 23.1065 47.8285 23.2779C47.481 23.447 47.481 23.447 47.2709 23.4016C47.1985 23.3575 47.1985 23.3575 47.1246 23.3125C47.0625 23.2836 47.0003 23.2547 46.9362 23.2249C46.8695 23.1932 46.8028 23.1615 46.734 23.1289C46.1399 22.8458 46.1399 22.8458 45.4996 22.75C45.4826 22.6853 45.4826 22.6853 45.4652 22.6194C45.4417 22.5313 45.4417 22.5313 45.4176 22.4414C45.4024 22.3841 45.3872 22.3268 45.3715 22.2678C45.2968 22.0095 45.2097 21.755 45.1246 21.5C44.3821 21.5 43.6396 21.5 42.8746 21.5ZM22.6246 35.6875C22.4509 35.964 22.4996 36.1476 22.4996 36.5C28.8521 36.5 35.2046 36.5 41.7496 36.5C41.6684 36.1246 41.6684 36.1246 41.4342 36.0042C41.3197 35.9576 41.3197 35.9576 41.2028 35.9102C41.0892 35.8619 41.0892 35.8619 40.9733 35.8127C40.4887 35.6768 40.1456 35.918 39.7338 36.1488C39.4082 36.322 39.4082 36.322 39.2519 36.2776C39.1246 36.1875 39.1246 36.1875 39.0022 36.0278C38.7539 35.7055 38.5433 35.4964 38.1292 35.4365C37.7357 35.4049 37.3423 35.4127 36.9479 35.419C36.7964 35.4189 36.6448 35.4184 36.4932 35.4178C36.1254 35.4169 35.7578 35.4191 35.3901 35.4229C34.9615 35.4271 34.5329 35.4275 34.1043 35.4278C33.3396 35.4284 32.575 35.4321 31.8103 35.4378C31.0688 35.4433 30.3273 35.4469 29.5858 35.4481C29.5401 35.4482 29.4943 35.4482 29.4472 35.4483C29.2635 35.4486 29.0797 35.4489 28.8959 35.4492C28.1882 35.4504 27.4806 35.453 26.773 35.456C26.5594 35.4569 26.3459 35.4577 26.1323 35.4583C25.6456 35.4599 25.1588 35.4623 24.6721 35.4662C24.5246 35.4673 24.3771 35.468 24.2296 35.4684C24.0284 35.469 23.8273 35.4708 23.6262 35.4728C23.5677 35.4727 23.5092 35.4727 23.4489 35.4726C23.1285 35.4773 22.901 35.5066 22.6246 35.6875ZM22.4996 37.5C22.4996 41.13 22.4996 44.76 22.4996 48.5C29.4296 48.5 36.3596 48.5 43.4996 48.5C43.4996 47.51 43.4996 46.52 43.4996 45.5C43.1752 45.4991 42.8508 45.4982 42.5165 45.4973C42.3094 45.4961 42.1024 45.4947 41.8953 45.493C41.5675 45.4904 41.2397 45.4881 40.912 45.4878C40.6473 45.4875 40.3827 45.4857 40.1181 45.4829C40.0177 45.4821 39.9174 45.4818 39.8171 45.4821C38.8817 45.4842 38.0703 45.2792 37.3651 44.6252C37.0436 44.2893 36.8503 43.9333 36.6871 43.5C36.6529 43.4154 36.6529 43.4154 36.6181 43.3291C36.3895 42.4948 36.5577 41.6506 36.9591 40.9058C37.3281 40.2976 37.8419 39.9352 38.4996 39.6875C38.5553 39.666 38.611 39.6445 38.6684 39.6223C38.9012 39.5548 39.0995 39.5451 39.3418 39.5426C39.3869 39.5419 39.4321 39.5413 39.4786 39.5407C39.6268 39.5388 39.7749 39.5377 39.923 39.5366C40.0261 39.5354 40.1293 39.5342 40.2325 39.533C40.5031 39.5298 40.7737 39.5273 41.0444 39.5249C41.3696 39.522 41.6947 39.5181 42.0199 39.5145C42.5132 39.5089 43.0064 39.5046 43.4996 39.5C43.4996 38.84 43.4996 38.18 43.4996 37.5C36.5696 37.5 29.6396 37.5 22.4996 37.5ZM37.9996 41.1875C37.5897 41.736 37.5023 42.2594 37.5621 42.9375C37.6898 43.4735 37.9789 43.875 38.4371 44.1758C38.9048 44.4464 39.3814 44.5082 39.9165 44.5071C40.0382 44.5071 40.0382 44.5071 40.1624 44.5071C40.2474 44.5068 40.3324 44.5064 40.4174 44.5061C40.4956 44.506 40.5738 44.506 40.6543 44.5059C40.9452 44.5056 41.2361 44.5047 41.527 44.5039C42.178 44.5026 42.8289 44.5013 43.4996 44.5C43.4996 43.18 43.4996 41.86 43.4996 40.5C42.8525 40.4974 42.2054 40.4948 41.5387 40.4922C41.3356 40.491 41.1324 40.4899 40.9231 40.4887C40.7607 40.4884 40.5982 40.4881 40.4357 40.4878C40.3943 40.4875 40.3529 40.4871 40.3103 40.4868C39.4263 40.4802 38.6582 40.5435 37.9996 41.1875ZM22.4996 49.5C22.4838 49.9879 22.4838 49.9879 22.6871 50.375C22.9129 50.4895 23.0982 50.5157 23.3494 50.5159C23.4545 50.5165 23.4545 50.5165 23.5617 50.517C23.6384 50.5168 23.715 50.5165 23.794 50.5163C23.9165 50.5167 23.9165 50.5167 24.0415 50.517C24.2681 50.5177 24.4947 50.5175 24.7213 50.5173C24.9657 50.5171 25.2101 50.5177 25.4545 50.5181C25.9334 50.5189 26.4122 50.519 26.891 50.5189C27.2801 50.5188 27.6692 50.5189 28.0583 50.5192C28.1137 50.5192 28.169 50.5192 28.2261 50.5193C28.3385 50.5194 28.451 50.5194 28.5634 50.5195C29.6183 50.5202 30.6731 50.52 31.728 50.5197C32.6932 50.5193 33.6585 50.52 34.6237 50.5212C35.6146 50.5224 36.6055 50.523 37.5964 50.5227C38.1528 50.5226 38.7092 50.5228 39.2656 50.5236C39.7393 50.5244 40.2129 50.5245 40.6866 50.5237C40.9283 50.5234 41.17 50.5233 41.4116 50.524C41.6736 50.5248 41.9355 50.5242 42.1974 50.5234C42.3122 50.5241 42.3121 50.5241 42.4292 50.5248C42.9291 50.5245 42.9291 50.5245 43.3746 50.3125C43.5484 50.036 43.4996 49.8524 43.4996 49.5C36.5696 49.5 29.6396 49.5 22.4996 49.5Z" fill="#7B55D3"/>
<path d="M45.8128 23.7483C45.9132 23.7834 45.9132 23.7834 46.0157 23.8191C47.3796 24.3439 48.4268 25.3856 49.0628 26.6858C49.6079 27.9814 49.7204 29.4728 49.2503 30.8108C49.2269 30.8778 49.2036 30.9447 49.1795 31.0137C48.6548 32.3777 47.6131 33.4249 46.3128 34.0608C45.0172 34.606 43.5258 34.7184 42.1878 34.2483C42.1208 34.225 42.0539 34.2016 41.9849 34.1775C40.621 33.6528 39.5738 32.6111 38.9378 31.3108C38.3926 30.0152 38.2802 28.5238 38.7503 27.1858C38.7853 27.0854 38.7853 27.0854 38.8211 26.983C39.3458 25.619 40.3875 24.5718 41.6878 23.9358C42.9834 23.3907 44.4748 23.2783 45.8128 23.7483ZM40.4183 26.2952C39.6376 27.3198 39.423 28.5653 39.5801 29.8246C39.7823 31.0036 40.5158 31.9851 41.451 32.6976C42.5043 33.3821 43.713 33.6095 44.9519 33.397C46.1308 33.1178 47.1516 32.3908 47.8128 31.3733C48.4346 30.275 48.6371 29.0523 48.344 27.8147C47.9821 26.6697 47.2314 25.6358 46.1541 25.0647C44.0775 24.0212 41.9043 24.5814 40.4183 26.2952Z" fill="#7B55D3"/>
<path d="M43.5005 25.5C43.8305 25.5 44.1605 25.5 44.5005 25.5C44.5005 25.8506 44.5005 26.2012 44.5005 26.5625C44.6552 26.6244 44.6552 26.6244 44.813 26.6875C45.1416 26.902 45.3922 27.18 45.5005 27.5625C45.5005 27.7069 45.5005 27.8512 45.5005 28C45.1499 28 44.7992 28 44.438 28C44.3967 27.8969 44.3555 27.7938 44.313 27.6875C44.1381 27.6 44.0064 27.6092 43.813 27.625C43.688 27.6875 43.688 27.6875 43.6255 27.8125C43.5927 28.0646 43.5927 28.0646 43.696 28.2874C43.8584 28.409 44.0089 28.428 44.2075 28.4648C44.7357 28.579 45.0692 28.8063 45.3755 29.25C45.5769 29.6529 45.5709 30.1585 45.4619 30.5903C45.3144 30.9231 45.0497 31.1734 44.7505 31.375C44.6267 31.4059 44.6267 31.4059 44.5005 31.4375C44.5005 31.7881 44.5005 32.1388 44.5005 32.5C44.1705 32.5 43.8405 32.5 43.5005 32.5C43.5005 32.1494 43.5005 31.7987 43.5005 31.4375C43.3974 31.3962 43.2942 31.355 43.188 31.3125C42.8594 31.098 42.6087 30.82 42.5005 30.4375C42.5005 30.2931 42.5005 30.1487 42.5005 30C42.8511 30 43.2017 30 43.563 30C43.6042 30.1031 43.6455 30.2063 43.688 30.3125C43.8629 30.4 43.9945 30.3908 44.188 30.375C44.313 30.3125 44.313 30.3125 44.3755 30.1875C44.4083 29.9354 44.4083 29.9354 44.3049 29.7126C44.1426 29.591 43.9921 29.572 43.7934 29.5352C43.2653 29.421 42.9317 29.1937 42.6255 28.75C42.424 28.3471 42.4301 27.8415 42.539 27.4097C42.6865 27.0769 42.9513 26.8266 43.2505 26.625C43.333 26.6044 43.4155 26.5838 43.5005 26.5625C43.5005 26.2119 43.5005 25.8613 43.5005 25.5Z" fill="#7B55D3"/>
<path d="M40.2154 41.0923C40.5794 41.3123 40.8744 41.6541 41.0006 42.061C41.0509 42.5508 41.0708 43.0372 40.7506 43.436C40.4503 43.7514 40.1779 43.9739 39.7337 44.0195C39.2014 44.0254 38.8333 44.0059 38.4402 43.6316C38.0414 43.2001 37.9705 42.8609 37.9815 42.2764C38.025 41.785 38.2535 41.5267 38.6194 41.2139C39.061 40.9096 39.7251 40.875 40.2154 41.0923ZM39.1646 42.1626C39.0326 42.3555 39.0248 42.4565 39.0631 42.686C39.1568 42.8423 39.1568 42.8423 39.3131 42.936C39.5425 42.9743 39.6436 42.9665 39.8365 42.8345C39.9685 42.6415 39.9763 42.5405 39.9381 42.311C39.8443 42.1548 39.8443 42.1548 39.6881 42.061C39.4586 42.0228 39.3575 42.0306 39.1646 42.1626Z" fill="#7B55D3"/>
<path d="M49.875 46.6875C50.0652 46.7724 50.1952 46.8678 50.3408 47.0161C50.3795 47.0552 50.4182 47.0943 50.458 47.1345C50.4976 47.1752 50.5373 47.2159 50.5781 47.2578C50.6187 47.299 50.6593 47.3402 50.7012 47.3826C50.8011 47.4839 50.9007 47.5856 51 47.6875C50.894 47.9146 50.7664 48.0591 50.5859 48.2344C50.5349 48.2843 50.4838 48.3343 50.4312 48.3857C50.392 48.4234 50.3528 48.4612 50.3125 48.5C50.1223 48.4151 49.9923 48.3197 49.8467 48.1714C49.808 48.1323 49.7693 48.0932 49.7295 48.053C49.6899 48.0123 49.6502 47.9716 49.6094 47.9297C49.5688 47.8885 49.5282 47.8473 49.4863 47.8049C49.3864 47.7036 49.2868 47.6019 49.1875 47.5C49.2935 47.2729 49.4211 47.1284 49.6016 46.9531C49.6526 46.9032 49.7037 46.8532 49.7563 46.8018C49.8151 46.7452 49.8151 46.7452 49.875 46.6875Z" fill="#65C7C3"/>
<path d="M47 46.6875C47.2271 46.7935 47.3716 46.9211 47.5469 47.1016C47.5968 47.1526 47.6468 47.2037 47.6982 47.2563C47.7359 47.2955 47.7737 47.3347 47.8125 47.375C47.7276 47.5652 47.6322 47.6952 47.4839 47.8408C47.4448 47.8795 47.4057 47.9182 47.3655 47.958C47.3248 47.9976 47.2841 48.0373 47.2422 48.0781C47.201 48.1187 47.1598 48.1593 47.1174 48.2012C47.0161 48.3011 46.9144 48.4007 46.8125 48.5C46.5854 48.394 46.4409 48.2664 46.2656 48.0859C46.2157 48.0349 46.1657 47.9838 46.1143 47.9312C46.0766 47.892 46.0388 47.8528 46 47.8125C46.0849 47.6223 46.1803 47.4923 46.3286 47.3467C46.3677 47.308 46.4068 47.2693 46.447 47.2295C46.4877 47.1899 46.5284 47.1502 46.5703 47.1094C46.6115 47.0688 46.6527 47.0282 46.6951 46.9863C46.7964 46.8864 46.8981 46.7868 47 46.6875Z" fill="#65C7C3"/>
<path d="M50.1875 43.5C50.4146 43.606 50.5591 43.7336 50.7344 43.9141C50.7843 43.9651 50.8343 44.0162 50.8857 44.0688C50.9234 44.108 50.9612 44.1472 51 44.1875C50.9151 44.3777 50.8197 44.5077 50.6714 44.6533C50.6323 44.692 50.5932 44.7307 50.553 44.7705C50.5123 44.8101 50.4716 44.8498 50.4297 44.8906C50.3885 44.9312 50.3473 44.9718 50.3049 45.0137C50.2036 45.1136 50.1019 45.2132 50 45.3125C49.7729 45.2065 49.6284 45.0789 49.4531 44.8984C49.4032 44.8474 49.3532 44.7963 49.3018 44.7437C49.2641 44.7045 49.2263 44.6653 49.1875 44.625C49.2724 44.4348 49.3678 44.3048 49.5161 44.1592C49.5552 44.1205 49.5943 44.0818 49.6345 44.042C49.6752 44.0024 49.7159 43.9627 49.7578 43.9219C49.799 43.8813 49.8402 43.8407 49.8826 43.7988C49.9839 43.6989 50.0856 43.5993 50.1875 43.5Z" fill="#65C7C3"/>
<path d="M46.6875 43.5C46.8777 43.5849 47.0077 43.6803 47.1533 43.8286C47.192 43.8677 47.2307 43.9068 47.2705 43.947C47.3101 43.9877 47.3498 44.0284 47.3906 44.0703C47.4312 44.1115 47.4718 44.1527 47.5137 44.1951C47.6136 44.2964 47.7132 44.3981 47.8125 44.5C47.7065 44.7271 47.5789 44.8716 47.3984 45.0469C47.3474 45.0968 47.2963 45.1468 47.2437 45.1982C47.2045 45.2359 47.1653 45.2737 47.125 45.3125C46.9348 45.2276 46.8048 45.1322 46.6592 44.9839C46.6205 44.9448 46.5818 44.9057 46.542 44.8655C46.5024 44.8248 46.4627 44.7841 46.4219 44.7422C46.3813 44.701 46.3407 44.6598 46.2988 44.6174C46.1989 44.5161 46.0993 44.4144 46 44.3125C46.106 44.0854 46.2336 43.9409 46.4141 43.7656C46.4651 43.7157 46.5162 43.6657 46.5688 43.6143C46.6276 43.5577 46.6276 43.5577 46.6875 43.5Z" fill="#65C7C3"/>
<path d="M48 47.5C48.33 47.5 48.66 47.5 49 47.5C49 47.995 49 48.49 49 49C48.67 49 48.34 49 48 49C48 48.505 48 48.01 48 47.5Z" fill="#65C7C3"/>
<path d="M50 45.5C50.495 45.5 50.99 45.5 51.5 45.5C51.5 45.83 51.5 46.16 51.5 46.5C51.005 46.5 50.51 46.5 50 46.5C50 46.17 50 45.84 50 45.5Z" fill="#65C7C3"/>
<path d="M45.5 45.5C45.995 45.5 46.49 45.5 47 45.5C47 45.83 47 46.16 47 46.5C46.505 46.5 46.01 46.5 45.5 46.5C45.5 46.17 45.5 45.84 45.5 45.5Z" fill="#65C7C3"/>
<path d="M48 43C48.33 43 48.66 43 49 43C49 43.495 49 43.99 49 44.5C48.67 44.5 48.34 44.5 48 44.5C48 44.005 48 43.51 48 43Z" fill="#65C7C3"/>
<path d="M27.875 29.1875C28.0652 29.2724 28.1952 29.3678 28.3408 29.5161C28.3795 29.5552 28.4182 29.5943 28.458 29.6345C28.4976 29.6752 28.5373 29.7159 28.5781 29.7578C28.6187 29.799 28.6593 29.8402 28.7012 29.8826C28.8011 29.9839 28.9007 30.0856 29 30.1875C28.894 30.4146 28.7664 30.5591 28.5859 30.7344C28.5349 30.7843 28.4838 30.8343 28.4312 30.8857C28.392 30.9234 28.3528 30.9612 28.3125 31C28.1223 30.9151 27.9923 30.8197 27.8467 30.6714C27.808 30.6323 27.7693 30.5932 27.7295 30.553C27.6899 30.5123 27.6502 30.4716 27.6094 30.4297C27.5688 30.3885 27.5282 30.3473 27.4863 30.3049C27.3864 30.2036 27.2868 30.1019 27.1875 30C27.2935 29.7729 27.4211 29.6284 27.6016 29.4531C27.6526 29.4032 27.7037 29.3532 27.7563 29.3018C27.8151 29.2452 27.8151 29.2452 27.875 29.1875Z" fill="#65C7C3"/>
<path d="M25 29.1875C25.2271 29.2935 25.3716 29.4211 25.5469 29.6016C25.5968 29.6526 25.6468 29.7037 25.6982 29.7563C25.7359 29.7955 25.7737 29.8347 25.8125 29.875C25.7276 30.0652 25.6322 30.1952 25.4839 30.3408C25.4448 30.3795 25.4057 30.4182 25.3655 30.458C25.3248 30.4976 25.2841 30.5373 25.2422 30.5781C25.201 30.6187 25.1598 30.6593 25.1174 30.7012C25.0161 30.8011 24.9144 30.9007 24.8125 31C24.5854 30.894 24.4409 30.7664 24.2656 30.5859C24.2157 30.5349 24.1657 30.4838 24.1143 30.4312C24.0766 30.392 24.0388 30.3528 24 30.3125C24.0849 30.1223 24.1803 29.9923 24.3286 29.8467C24.3677 29.808 24.4068 29.7693 24.447 29.7295C24.4877 29.6899 24.5284 29.6502 24.5703 29.6094C24.6115 29.5688 24.6527 29.5282 24.6951 29.4863C24.7964 29.3864 24.8981 29.2868 25 29.1875Z" fill="#65C7C3"/>
<path d="M28.1875 26C28.4146 26.106 28.5591 26.2336 28.7344 26.4141C28.7843 26.4651 28.8343 26.5162 28.8857 26.5688C28.9234 26.608 28.9612 26.6472 29 26.6875C28.9151 26.8777 28.8197 27.0077 28.6714 27.1533C28.6323 27.192 28.5932 27.2307 28.553 27.2705C28.5123 27.3101 28.4716 27.3498 28.4297 27.3906C28.3885 27.4312 28.3473 27.4718 28.3049 27.5137C28.2036 27.6136 28.1019 27.7132 28 27.8125C27.7729 27.7065 27.6284 27.5789 27.4531 27.3984C27.4032 27.3474 27.3532 27.2963 27.3018 27.2437C27.2641 27.2045 27.2263 27.1653 27.1875 27.125C27.2724 26.9348 27.3678 26.8048 27.5161 26.6592C27.5552 26.6205 27.5943 26.5818 27.6345 26.542C27.6752 26.5024 27.7159 26.4627 27.7578 26.4219C27.799 26.3813 27.8402 26.3407 27.8826 26.2988C27.9839 26.1989 28.0856 26.0993 28.1875 26Z" fill="#65C7C3"/>
<path d="M24.6875 26C24.8777 26.0849 25.0077 26.1803 25.1533 26.3286C25.192 26.3677 25.2307 26.4068 25.2705 26.447C25.3101 26.4877 25.3498 26.5284 25.3906 26.5703C25.4312 26.6115 25.4718 26.6527 25.5137 26.6951C25.6136 26.7964 25.7132 26.8981 25.8125 27C25.7065 27.2271 25.5789 27.3716 25.3984 27.5469C25.3474 27.5968 25.2963 27.6468 25.2437 27.6982C25.2045 27.7359 25.1653 27.7737 25.125 27.8125C24.9348 27.7276 24.8048 27.6322 24.6592 27.4839C24.6205 27.4448 24.5818 27.4057 24.542 27.3655C24.5024 27.3248 24.4627 27.2841 24.4219 27.2422C24.3813 27.201 24.3407 27.1598 24.2988 27.1174C24.1989 27.0161 24.0993 26.9144 24 26.8125C24.106 26.5854 24.2336 26.4409 24.4141 26.2656C24.4651 26.2157 24.5162 26.1657 24.5688 26.1143C24.6276 26.0577 24.6276 26.0577 24.6875 26Z" fill="#65C7C3"/>
<path d="M26 30C26.33 30 26.66 30 27 30C27 30.495 27 30.99 27 31.5C26.67 31.5 26.34 31.5 26 31.5C26 31.005 26 30.51 26 30Z" fill="#65C7C3"/>
<path d="M28 28C28.495 28 28.99 28 29.5 28C29.5 28.33 29.5 28.66 29.5 29C29.005 29 28.51 29 28 29C28 28.67 28 28.34 28 28Z" fill="#65C7C3"/>
<path d="M23.5 28C23.995 28 24.49 28 25 28C25 28.33 25 28.66 25 29C24.505 29 24.01 29 23.5 29C23.5 28.67 23.5 28.34 23.5 28Z" fill="#65C7C3"/>
<path d="M26 25.5C26.33 25.5 26.66 25.5 27 25.5C27 25.995 27 26.49 27 27C26.67 27 26.34 27 26 27C26 26.505 26 26.01 26 25.5Z" fill="#65C7C3"/>
<path d="M23.5 46.5C23.83 46.5 24.16 46.5 24.5 46.5C24.5 46.83 24.5 47.16 24.5 47.5C24.17 47.5 23.84 47.5 23.5 47.5C23.5 47.17 23.5 46.84 23.5 46.5Z" fill="#7B55D3"/>
<path d="M23.5 44.5C23.83 44.5 24.16 44.5 24.5 44.5C24.5 44.83 24.5 45.16 24.5 45.5C24.17 45.5 23.84 45.5 23.5 45.5C23.5 45.17 23.5 44.84 23.5 44.5Z" fill="#7B55D3"/>
<path d="M23.5 42.5C23.83 42.5 24.16 42.5 24.5 42.5C24.5 42.83 24.5 43.16 24.5 43.5C24.17 43.5 23.84 43.5 23.5 43.5C23.5 43.17 23.5 42.84 23.5 42.5Z" fill="#7B55D3"/>
<path d="M23.5 40.5C23.83 40.5 24.16 40.5 24.5 40.5C24.5 40.83 24.5 41.16 24.5 41.5C24.17 41.5 23.84 41.5 23.5 41.5C23.5 41.17 23.5 40.84 23.5 40.5Z" fill="#7B55D3"/>
<path d="M23.5 38.5C23.83 38.5 24.16 38.5 24.5 38.5C24.5 38.83 24.5 39.16 24.5 39.5C24.17 39.5 23.84 39.5 23.5 39.5C23.5 39.17 23.5 38.84 23.5 38.5Z" fill="#7B55D3"/>
<path d="M48.5 40C48.83 40 49.16 40 49.5 40C49.5 40.33 49.5 40.66 49.5 41C49.17 41 48.84 41 48.5 41C48.5 40.67 48.5 40.34 48.5 40Z" fill="#65C7C3"/>
<path d="M49.5 39C49.83 39 50.16 39 50.5 39C50.5 39.33 50.5 39.66 50.5 40C50.17 40 49.84 40 49.5 40C49.5 39.67 49.5 39.34 49.5 39Z" fill="#65C7C3"/>
<path d="M47.5 39C47.83 39 48.16 39 48.5 39C48.5 39.33 48.5 39.66 48.5 40C48.17 40 47.84 40 47.5 40C47.5 39.67 47.5 39.34 47.5 39Z" fill="#65C7C3"/>
<path d="M48.5 38C48.83 38 49.16 38 49.5 38C49.5 38.33 49.5 38.66 49.5 39C49.17 39 48.84 39 48.5 39C48.5 38.67 48.5 38.34 48.5 38Z" fill="#65C7C3"/>
<path d="M32.5 26C32.83 26 33.16 26 33.5 26C33.5 26.33 33.5 26.66 33.5 27C33.17 27 32.84 27 32.5 27C32.5 26.67 32.5 26.34 32.5 26Z" fill="#65C7C3"/>
<path d="M33.5 25C33.83 25 34.16 25 34.5 25C34.5 25.33 34.5 25.66 34.5 26C34.17 26 33.84 26 33.5 26C33.5 25.67 33.5 25.34 33.5 25Z" fill="#65C7C3"/>
<path d="M31.5 25C31.83 25 32.16 25 32.5 25C32.5 25.33 32.5 25.66 32.5 26C32.17 26 31.84 26 31.5 26C31.5 25.67 31.5 25.34 31.5 25Z" fill="#65C7C3"/>
<path d="M32.5 24C32.83 24 33.16 24 33.5 24C33.5 24.33 33.5 24.66 33.5 25C33.17 25 32.84 25 32.5 25C32.5 24.67 32.5 24.34 32.5 24Z" fill="#65C7C3"/>
</g>
</g>
<defs>
<filter id="filter0_d_1_130116" x="0" y="0" width="74" height="74" filterUnits="userSpaceOnUse" color-interpolation-filters="sRGB">
<feFlood flood-opacity="0" result="BackgroundImageFix"/>
<feColorMatrix in="SourceAlpha" type="matrix" values="0 0 0 0 0 0 0 0 0 0 0 0 0 0 0 0 0 0 127 0" result="hardAlpha"/>
<feOffset dy="1"/>
<feGaussianBlur stdDeviation="0.5"/>
<feComposite in2="hardAlpha" operator="out"/>
<feColorMatrix type="matrix" values="0 0 0 0 0 0 0 0 0 0 0 0 0 0 0 0 0 0 0.04 0"/>
<feBlend mode="normal" in2="BackgroundImageFix" result="effect1_dropShadow_1_130116"/>
<feBlend mode="normal" in="SourceGraphic" in2="effect1_dropShadow_1_130116" result="shape"/>
</filter>
<clipPath id="clip0_1_130116">
<rect width="32" height="32" fill="white" transform="translate(21 20)"/>
</clipPath>
</defs>
</svg>
