<svg width="74" height="74" viewBox="0 0 74 74" fill="none" xmlns="http://www.w3.org/2000/svg">
<g filter="url(#filter0_d_1_130159)">
<rect x="1" width="72" height="72" rx="36" fill="white" shape-rendering="crispEdges"/>
<g clip-path="url(#clip0_1_130159)">
<path d="M47.7233 30.6079C48.0995 30.8382 48.3636 31.1424 48.5006 31.565C48.5342 31.8684 48.5299 32.1704 48.5251 32.4751C48.5246 32.5627 48.5242 32.6503 48.524 32.7378C48.523 32.9668 48.5206 33.1957 48.5178 33.4246C48.5152 33.6588 48.5141 33.893 48.5128 34.1272C48.5102 34.5857 48.5059 35.0441 48.5006 35.5025C48.573 35.5013 48.6453 35.5002 48.7199 35.499C48.8161 35.4981 48.9123 35.4972 49.0084 35.4964C49.056 35.4956 49.1035 35.4947 49.1525 35.4939C49.8222 35.4894 50.3304 35.7292 50.8131 36.19C51.4218 36.8276 51.5428 37.515 51.5332 38.3681C51.5319 38.5088 51.5332 38.6493 51.5348 38.7901C51.5368 39.7754 51.3518 41.0074 50.735 41.8106C50.3451 42.496 50.7878 44.013 50.872 44.7578C50.8901 44.9201 50.9083 45.0823 50.9264 45.2445C50.9689 45.6253 51.0116 46.006 51.0545 46.3868C51.1361 47.1113 51.2171 47.8359 51.2982 48.5605C51.3248 48.7983 51.3516 49.0362 51.3784 49.2741C51.3946 49.4187 51.4108 49.5633 51.427 49.7079C51.4383 49.8074 51.4383 49.8074 51.4498 49.909C51.4565 49.9692 51.4633 50.0295 51.4702 50.0916C51.4761 50.1441 51.482 50.1966 51.4881 50.2507C51.5006 50.3775 51.5006 50.3775 51.5006 50.5025C51.8306 50.5025 52.1606 50.5025 52.5006 50.5025C52.5006 50.8325 52.5006 51.1625 52.5006 51.5025C42.2706 51.5025 32.0406 51.5025 21.5006 51.5025C21.5006 51.1725 21.5006 50.8425 21.5006 50.5025C22.1813 50.5025 22.8619 50.5025 23.5631 50.5025C23.6044 50.2343 23.6456 49.9662 23.6881 49.69C23.7362 49.4396 23.7854 49.1899 23.8371 48.9402C23.8651 48.8022 23.8932 48.6641 23.9213 48.526C23.965 48.3119 24.0089 48.0978 24.053 47.8838C24.0959 47.6748 24.1384 47.4657 24.1808 47.2566C24.1941 47.1928 24.2074 47.1289 24.2211 47.0631C24.3107 46.6302 24.3107 46.6302 24.3131 46.19C24.222 46.0693 24.222 46.0693 24.0905 45.979C23.1716 45.2332 22.8477 44.2612 22.6453 43.1279C22.4877 42.2544 22.2619 41.478 21.7916 40.7219C21.5081 40.265 21.4119 39.9126 21.5006 39.3775C21.6222 39.0191 21.8463 38.7818 22.1706 38.5889C22.638 38.3919 23.2095 38.4456 23.6842 38.604C24.5091 38.9535 24.9516 39.583 25.3131 40.3775C25.3544 40.3775 25.3956 40.3775 25.4381 40.3775C25.4377 40.3225 25.4373 40.2675 25.4369 40.2108C25.4331 39.6905 25.4303 39.1701 25.4284 38.6497C25.4274 38.3822 25.4261 38.1147 25.424 37.8472C25.4219 37.5887 25.4208 37.3301 25.4203 37.0716C25.42 36.9734 25.4193 36.8752 25.4183 36.7769C25.4112 36.0603 25.4149 35.3992 25.9425 34.8584C26.3411 34.5082 26.7011 34.4619 27.2289 34.4783C27.668 34.529 27.971 34.7232 28.2506 35.065C28.5473 35.5222 28.5334 35.9429 28.5251 36.4751C28.5246 36.5627 28.5242 36.6503 28.524 36.7378C28.523 36.9668 28.5206 37.1957 28.5178 37.4246C28.5152 37.6588 28.5141 37.893 28.5128 38.1272C28.5102 38.5857 28.5059 39.0441 28.5006 39.5025C28.6092 39.5008 28.6092 39.5008 28.7199 39.499C28.8161 39.4981 28.9123 39.4972 29.0084 39.4964C29.0798 39.4951 29.0798 39.4951 29.1525 39.4939C29.8222 39.4894 30.3304 39.7292 30.8131 40.19C31.4218 40.8276 31.5428 41.515 31.5332 42.3681C31.5319 42.5088 31.5332 42.6493 31.5348 42.7901C31.5368 43.7912 31.342 44.9989 30.7311 45.8223C30.6039 46.0396 30.6288 46.1905 30.6714 46.4348C30.6838 46.5072 30.6962 46.5795 30.709 46.654C30.7742 47.004 30.8419 47.3533 30.9132 47.7022C30.9283 47.7769 30.9434 47.8516 30.9589 47.9286C31.0065 48.1642 31.0543 48.3997 31.1022 48.6353C31.1657 48.9479 31.229 49.2606 31.2921 49.5733C31.3068 49.6449 31.3214 49.7166 31.3365 49.7905C31.3499 49.8567 31.3632 49.9228 31.377 49.991C31.3888 50.0492 31.4007 50.1074 31.4129 50.1674C31.4381 50.315 31.4381 50.315 31.4381 50.5025C32.1394 50.5025 32.8406 50.5025 33.5631 50.5025C33.5838 50.2137 33.6044 49.925 33.6256 49.6275C33.6489 49.4338 33.6735 49.2419 33.7026 49.0492C33.71 48.9981 33.7174 48.9471 33.7251 48.8945C33.7409 48.7858 33.7569 48.6771 33.7731 48.5684C33.7986 48.3964 33.8236 48.2243 33.8486 48.0522C33.9196 47.5635 33.9914 47.0751 34.0633 46.5866C34.1076 46.2862 34.1513 45.9857 34.1949 45.6851C34.2196 45.5156 34.2448 45.3462 34.27 45.1767C34.285 45.0734 34.2999 44.9701 34.3149 44.8668C34.322 44.8198 34.3292 44.7727 34.3365 44.7243C34.3657 44.5189 34.3797 44.3897 34.3131 44.19C34.2115 44.0893 34.2115 44.0893 34.0866 43.9908C33.1839 43.2152 32.85 42.2742 32.6453 41.1279C32.4877 40.2544 32.2619 39.478 31.7916 38.7219C31.5081 38.265 31.4119 37.9126 31.5006 37.3775C31.6222 37.0191 31.8463 36.7818 32.1706 36.5889C32.638 36.3919 33.2095 36.4456 33.6842 36.604C34.5091 36.9535 34.9516 37.583 35.3131 38.3775C35.3544 38.3775 35.3956 38.3775 35.4381 38.3775C35.4375 38.295 35.4375 38.295 35.4369 38.2108C35.4331 37.6905 35.4303 37.1701 35.4284 36.6497C35.4274 36.3822 35.4261 36.1147 35.424 35.8472C35.4219 35.5887 35.4208 35.3301 35.4203 35.0716C35.42 34.9734 35.4193 34.8752 35.4183 34.7769C35.4112 34.0603 35.4149 33.3992 35.9425 32.8584C36.3411 32.5082 36.7011 32.4619 37.2289 32.4783C37.668 32.529 37.971 32.7232 38.2506 33.065C38.5473 33.5222 38.5334 33.9429 38.5251 34.4751C38.5246 34.5627 38.5242 34.6503 38.524 34.7378C38.523 34.9668 38.5206 35.1957 38.5178 35.4246C38.5152 35.6588 38.5141 35.893 38.5128 36.1272C38.5102 36.5857 38.5059 37.0441 38.5006 37.5025C38.573 37.5013 38.6453 37.5002 38.7199 37.499C38.8161 37.4981 38.9123 37.4972 39.0084 37.4964C39.056 37.4956 39.1035 37.4947 39.1525 37.4939C39.8222 37.4894 40.3304 37.7292 40.8131 38.19C41.4609 38.8685 41.5799 39.6485 41.5685 40.5513C41.5667 40.6177 41.565 40.6841 41.5631 40.7525C41.5614 40.8201 41.5596 40.8878 41.5578 40.9576C41.512 41.9085 41.2948 43.0352 40.735 43.8262C40.4374 44.3449 40.7494 45.2793 40.8336 45.8532C40.8588 46.0248 40.8837 46.1964 40.9085 46.368C40.979 46.8555 41.05 47.3428 41.1211 47.8301C41.1648 48.1296 41.2082 48.4292 41.2514 48.7287C41.2758 48.8972 41.3006 49.0657 41.3254 49.2342C41.3404 49.3379 41.3553 49.4416 41.3703 49.5453C41.3772 49.5916 41.3841 49.638 41.3912 49.6857C41.4311 49.9654 41.4381 50.2158 41.4381 50.5025C42.1188 50.5025 42.7994 50.5025 43.5006 50.5025C43.5237 50.2888 43.5237 50.2888 43.5473 50.0709C43.5995 49.5886 43.6517 49.1064 43.7039 48.6241C43.7364 48.3246 43.7688 48.0252 43.8011 47.7257C44.0554 45.3722 44.0554 45.3722 44.1723 44.3553C44.1799 44.2882 44.1876 44.2211 44.1955 44.1519C44.2293 43.8569 44.2634 43.5619 44.2985 43.267C44.3101 43.1666 44.3216 43.0662 44.3332 42.9659C44.3385 42.9224 44.3439 42.879 44.3494 42.8342C44.3751 42.6057 44.3794 42.4114 44.3131 42.19C44.2144 42.0768 44.2144 42.0768 44.0866 41.9829C43.1764 41.2237 42.8485 40.266 42.6453 39.1279C42.4877 38.2544 42.262 37.478 41.7916 36.7219C41.5081 36.265 41.4119 35.9126 41.5006 35.3775C41.6222 35.0191 41.8463 34.7818 42.1706 34.5889C42.6381 34.3919 43.2095 34.4456 43.6842 34.604C44.5091 34.9535 44.9516 35.583 45.3131 36.3775C45.3544 36.3775 45.3956 36.3775 45.4381 36.3775C45.4375 36.295 45.4375 36.295 45.4369 36.2108C45.4331 35.6905 45.4303 35.1701 45.4284 34.6497C45.4274 34.3822 45.4261 34.1147 45.424 33.8472C45.4219 33.5887 45.4208 33.3301 45.4203 33.0716C45.42 32.9734 45.4193 32.8752 45.4183 32.7769C45.4112 32.0603 45.4149 31.3992 45.9425 30.8584C46.4268 30.433 47.1267 30.3306 47.7233 30.6079ZM46.6647 31.6783C46.4813 31.9252 46.4915 32.1584 46.4918 32.4529C46.4916 32.4985 46.4913 32.5442 46.4911 32.5912C46.4907 32.6903 46.4903 32.7895 46.4901 32.8886C46.4896 33.0457 46.4887 33.2029 46.4875 33.36C46.4842 33.8068 46.4812 34.2536 46.4803 34.7003C46.4796 34.9737 46.4778 35.247 46.4752 35.5204C46.4744 35.6244 46.4741 35.7283 46.4742 35.8323C46.4744 35.9781 46.473 36.1239 46.4713 36.2697C46.4719 36.3336 46.4719 36.3336 46.4725 36.3987C46.4661 36.7327 46.3715 36.9201 46.1881 37.19C45.8673 37.4507 45.5992 37.4688 45.192 37.4732C44.8886 37.4205 44.6573 37.3225 44.478 37.07C44.3713 36.879 44.2774 36.6829 44.1829 36.4856C43.9547 36.0368 43.6471 35.7715 43.1881 35.565C43.0427 35.5477 43.0427 35.5477 42.8952 35.5533C42.8459 35.5537 42.7967 35.5541 42.746 35.5545C42.6252 35.552 42.6252 35.552 42.5631 35.6275C42.5388 35.8782 42.5833 36.0037 42.7233 36.2095C43.2497 37.047 43.5527 37.9749 43.7094 38.9469C43.8691 39.9241 44.1713 40.7514 44.9803 41.383C45.2239 41.523 45.3647 41.5328 45.6438 41.5309C45.7097 41.5309 45.7097 41.5309 45.777 41.531C45.9211 41.5308 46.0651 41.5289 46.2091 41.5269C46.3095 41.5264 46.4098 41.5261 46.5102 41.5258C46.7735 41.5249 47.0367 41.5224 47.2999 41.5196C47.5689 41.5171 47.8379 41.5159 48.1068 41.5147C48.634 41.512 49.161 41.5077 49.6881 41.5025C49.7688 41.3467 49.8489 41.1907 49.9286 41.0345C49.9512 40.991 49.9738 40.9476 49.997 40.9029C50.3498 40.208 50.4776 39.4653 50.5006 38.69C50.5031 38.6295 50.5056 38.569 50.5082 38.5066C50.5209 37.9677 50.4786 37.4942 50.1256 37.065C49.7352 36.6773 49.3763 36.5173 48.8204 36.4954C48.7291 36.4959 48.7291 36.4959 48.6359 36.4964C48.5362 36.4967 48.5362 36.4967 48.4345 36.497C48.3319 36.4978 48.3319 36.4978 48.2272 36.4986C48.1573 36.4988 48.0875 36.4991 48.0155 36.4994C47.8439 36.5002 47.6723 36.5012 47.5006 36.5025C47.5003 36.4434 47.4999 36.3843 47.4995 36.3234C47.496 35.767 47.4914 35.2106 47.4859 34.6542C47.4831 34.3682 47.4807 34.0821 47.479 33.796C47.4774 33.5201 47.4748 33.2441 47.4717 32.9681C47.4706 32.8627 47.4699 32.7574 47.4695 32.652C47.4689 32.5046 47.4672 32.3572 47.4652 32.2098C47.4653 32.1661 47.4653 32.1223 47.4654 32.0772C47.462 31.9009 47.4568 31.7799 47.3561 31.6318C47.1201 31.4822 46.8788 31.5148 46.6647 31.6783ZM36.6647 33.6783C36.4813 33.9252 36.4915 34.1584 36.4918 34.4529C36.4916 34.4985 36.4913 34.5442 36.4911 34.5912C36.4907 34.6903 36.4903 34.7895 36.4901 34.8886C36.4896 35.0457 36.4887 35.2029 36.4875 35.36C36.4842 35.8068 36.4812 36.2536 36.4803 36.7003C36.4796 36.9737 36.4778 37.247 36.4752 37.5204C36.4744 37.6244 36.4741 37.7283 36.4742 37.8323C36.4744 37.9781 36.473 38.1239 36.4713 38.2697C36.4719 38.3336 36.4719 38.3336 36.4725 38.3987C36.4661 38.7327 36.3715 38.9201 36.1881 39.19C35.8673 39.4507 35.5992 39.4688 35.192 39.4732C34.8886 39.4205 34.6573 39.3225 34.478 39.07C34.3713 38.879 34.2774 38.6829 34.1829 38.4856C33.9547 38.0368 33.6471 37.7715 33.1881 37.565C33.0427 37.5477 33.0427 37.5477 32.8952 37.5533C32.8459 37.5537 32.7967 37.5541 32.746 37.5545C32.6252 37.552 32.6252 37.552 32.5631 37.6275C32.5388 37.8782 32.5833 38.0037 32.7233 38.2095C33.2497 39.047 33.5527 39.9749 33.7094 40.9469C33.8691 41.9241 34.1713 42.7514 34.9803 43.383C35.2239 43.523 35.3646 43.5328 35.6438 43.5309C35.7097 43.5309 35.7097 43.5309 35.777 43.531C35.9211 43.5308 36.0651 43.5289 36.2091 43.5269C36.3095 43.5264 36.4098 43.5261 36.5102 43.5258C36.7735 43.5249 37.0367 43.5224 37.2999 43.5196C37.5689 43.5171 37.8379 43.5159 38.1068 43.5147C38.634 43.512 39.161 43.5077 39.6881 43.5025C39.7688 43.3467 39.8489 43.1907 39.9286 43.0345C39.9512 42.991 39.9738 42.9476 39.997 42.9029C40.3498 42.208 40.4776 41.4653 40.5006 40.69C40.5031 40.6295 40.5056 40.569 40.5082 40.5066C40.5209 39.9677 40.4786 39.4942 40.1256 39.065C39.7352 38.6773 39.3763 38.5173 38.8204 38.4954C38.7291 38.4959 38.7291 38.4959 38.6359 38.4964C38.5362 38.4967 38.5362 38.4967 38.4345 38.497C38.3319 38.4978 38.3319 38.4978 38.2272 38.4986C38.1573 38.4988 38.0875 38.4991 38.0155 38.4994C37.8439 38.5002 37.6723 38.5012 37.5006 38.5025C37.5003 38.4434 37.4999 38.3843 37.4995 38.3234C37.496 37.767 37.4914 37.2106 37.4859 36.6542C37.4831 36.3682 37.4807 36.0821 37.479 35.796C37.4774 35.5201 37.4748 35.2441 37.4717 34.9681C37.4706 34.8627 37.4699 34.7574 37.4695 34.652C37.4689 34.5046 37.4672 34.3572 37.4652 34.2098C37.4652 34.1661 37.4653 34.1223 37.4654 34.0772C37.462 33.9009 37.4568 33.7799 37.3561 33.6318C37.1201 33.4822 36.8788 33.5148 36.6647 33.6783ZM26.6647 35.6783C26.4813 35.9252 26.4915 36.1584 26.4918 36.4529C26.4916 36.4985 26.4913 36.5442 26.4911 36.5912C26.4907 36.6903 26.4903 36.7895 26.4901 36.8886C26.4896 37.0457 26.4887 37.2029 26.4875 37.36C26.4842 37.8068 26.4812 38.2536 26.4803 38.7003C26.4796 38.9737 26.4778 39.247 26.4752 39.5204C26.4744 39.6244 26.4741 39.7283 26.4742 39.8323C26.4744 39.9781 26.473 40.1239 26.4713 40.2697C26.4719 40.3336 26.4719 40.3336 26.4725 40.3987C26.4661 40.7327 26.3715 40.9201 26.1881 41.19C25.8673 41.4507 25.5992 41.4688 25.192 41.4732C24.8886 41.4205 24.6572 41.3225 24.478 41.07C24.3713 40.879 24.2774 40.6829 24.1829 40.4856C23.9547 40.0368 23.6471 39.7715 23.1881 39.565C23.0427 39.5477 23.0427 39.5477 22.8952 39.5533C22.8459 39.5537 22.7967 39.5541 22.746 39.5545C22.6252 39.552 22.6252 39.552 22.5631 39.6275C22.5388 39.8782 22.5833 40.0037 22.7233 40.2095C23.2497 41.047 23.5527 41.9749 23.7094 42.9469C23.8691 43.9241 24.1713 44.7514 24.9803 45.383C25.2239 45.523 25.3646 45.5328 25.6438 45.5309C25.7097 45.5309 25.7097 45.5309 25.777 45.531C25.9211 45.5308 26.0651 45.5289 26.2091 45.5269C26.3095 45.5264 26.4098 45.5261 26.5102 45.5258C26.7735 45.5249 27.0367 45.5224 27.2999 45.5196C27.5689 45.5171 27.8379 45.5159 28.1068 45.5147C28.634 45.512 29.161 45.5077 29.6881 45.5025C29.7688 45.3467 29.8489 45.1907 29.9286 45.0345C29.9512 44.991 29.9738 44.9476 29.997 44.9029C30.3498 44.208 30.4776 43.4653 30.5006 42.69C30.5031 42.6295 30.5056 42.569 30.5082 42.5066C30.5209 41.9677 30.4786 41.4942 30.1256 41.065C29.7352 40.6773 29.3763 40.5173 28.8204 40.4954C28.7291 40.4959 28.7291 40.4959 28.6359 40.4964C28.5362 40.4967 28.5362 40.4967 28.4345 40.497C28.3319 40.4978 28.3319 40.4978 28.2272 40.4986C28.1573 40.4988 28.0875 40.4991 28.0155 40.4994C27.8439 40.5002 27.6723 40.5012 27.5006 40.5025C27.5003 40.4434 27.4999 40.3843 27.4995 40.3234C27.496 39.767 27.4914 39.2106 27.4859 38.6542C27.4831 38.3682 27.4807 38.0821 27.479 37.796C27.4774 37.5201 27.4748 37.2441 27.4717 36.9681C27.4706 36.8627 27.4699 36.7574 27.4695 36.652C27.4689 36.5046 27.4672 36.3572 27.4652 36.2098C27.4652 36.1661 27.4653 36.1223 27.4654 36.0772C27.462 35.9009 27.4568 35.7799 27.3561 35.6318C27.1201 35.4822 26.8788 35.5148 26.6647 35.6783ZM45.5006 42.5025C45.4286 42.6465 45.4177 42.7562 45.3998 42.9163C45.3929 42.9772 45.3859 43.0381 45.3788 43.1008C45.3714 43.1679 45.3641 43.2349 45.3565 43.304C45.3485 43.3744 45.3406 43.4449 45.3324 43.5174C45.3061 43.7514 45.2802 43.9855 45.2543 44.2195C45.2362 44.3819 45.2181 44.5444 45.1999 44.7068C45.1619 45.0479 45.124 45.3891 45.0863 45.7302C45.0428 46.1236 44.9989 46.517 44.9547 46.9103C44.9123 47.2893 44.8701 47.6683 44.8281 48.0474C44.8102 48.2083 44.7923 48.3692 44.7742 48.5301C44.7489 48.7556 44.724 48.9812 44.6992 49.2068C44.6917 49.273 44.6842 49.3392 44.6765 49.4073C44.6698 49.4694 44.663 49.5316 44.6561 49.5956C44.6502 49.6488 44.6442 49.702 44.6382 49.7569C44.6212 50.0049 44.6256 50.2539 44.6256 50.5025C46.5231 50.5025 48.4206 50.5025 50.3756 50.5025C50.3775 50.0447 50.3775 50.0447 50.3452 49.5956C50.3351 49.5024 50.3351 49.5024 50.3248 49.4073C50.3173 49.3412 50.3098 49.275 50.302 49.2068C50.2903 49.1 50.2903 49.1 50.2783 48.9911C50.2526 48.7573 50.2263 48.5236 50.2001 48.2898C50.182 48.127 50.1639 47.9641 50.1459 47.8013C50.1081 47.4609 50.0701 47.1205 50.0319 46.7802C49.9878 46.3866 49.944 45.9929 49.9005 45.5993C49.8585 45.22 49.8163 44.8408 49.774 44.4615C49.756 44.3003 49.7381 44.139 49.7202 43.9777C49.6953 43.7531 49.6701 43.5286 49.6448 43.304C49.6374 43.237 49.6301 43.1699 49.6225 43.1008C49.6156 43.0399 49.6086 42.9791 49.6015 42.9163C49.5956 42.8633 49.5896 42.8102 49.5835 42.7555C49.5691 42.6238 49.5691 42.6238 49.5006 42.5025C48.1806 42.5025 46.8606 42.5025 45.5006 42.5025ZM35.4381 44.5025C35.2935 45.5057 35.2935 45.5057 35.1493 46.5089C35.0906 46.9181 35.0318 47.3273 34.9728 47.7364C34.9252 48.0663 34.8778 48.3961 34.8305 48.726C34.8125 48.8519 34.7943 48.9778 34.7761 49.1036C34.7506 49.2799 34.7254 49.4561 34.7002 49.6324C34.6926 49.6845 34.685 49.7365 34.6772 49.7902C34.6704 49.8384 34.6635 49.8867 34.6565 49.9365C34.6475 49.999 34.6475 49.999 34.6383 50.0627C34.6238 50.2086 34.6256 50.3558 34.6256 50.5025C36.5231 50.5025 38.4206 50.5025 40.3756 50.5025C40.3387 50.0588 40.3014 49.6244 40.2372 49.1854C40.2299 49.1341 40.2225 49.0828 40.215 49.0299C40.1912 48.8635 40.1671 48.6971 40.143 48.5308C40.1262 48.4142 40.1095 48.2975 40.0928 48.1809C40.0491 47.8763 40.0052 47.5718 39.9612 47.2673C39.9083 46.9006 39.8557 46.5339 39.803 46.1672C39.7233 45.6122 39.6432 45.0574 39.5631 44.5025C38.2019 44.5025 36.8406 44.5025 35.4381 44.5025ZM25.4381 46.5025C25.1531 47.8328 24.8853 49.1669 24.6256 50.5025C26.5231 50.5025 28.4206 50.5025 30.3756 50.5025C30.2532 49.8773 30.1307 49.2521 30.0045 48.6079C29.966 48.4106 29.9274 48.2133 29.8876 48.01C29.857 47.8541 29.8264 47.6982 29.7958 47.5423C29.7879 47.5018 29.78 47.4612 29.7719 47.4195C29.7485 47.3 29.7251 47.1806 29.7016 47.0612C29.6884 46.9939 29.6752 46.9266 29.6616 46.8573C29.6277 46.6848 29.6277 46.6848 29.5631 46.5025C28.2019 46.5025 26.8406 46.5025 25.4381 46.5025Z" fill="#65C7C3"/>
<path d="M23.5 24.5C25.81 24.5 28.12 24.5 30.5 24.5C30.5 29.12 30.5 33.74 30.5 38.5C30.17 38.5 29.84 38.5 29.5 38.5C29.5 34.21 29.5 29.92 29.5 25.5C27.85 25.5 26.2 25.5 24.5 25.5C24.5 29.46 24.5 33.42 24.5 37.5C24.17 37.5 23.84 37.5 23.5 37.5C23.5 33.21 23.5 28.92 23.5 24.5Z" fill="#7B55D3"/>
<path d="M33.5 22.5C35.81 22.5 38.12 22.5 40.5 22.5C40.5 27.12 40.5 31.74 40.5 36.5C40.17 36.5 39.84 36.5 39.5 36.5C39.5 32.21 39.5 27.92 39.5 23.5C37.85 23.5 36.2 23.5 34.5 23.5C34.5 27.46 34.5 31.42 34.5 35.5C34.17 35.5 33.84 35.5 33.5 35.5C33.5 31.21 33.5 26.92 33.5 22.5Z" fill="#7B55D3"/>
<path d="M43.5 20.5C45.81 20.5 48.12 20.5 50.5 20.5C50.5 25.12 50.5 29.74 50.5 34.5C50.17 34.5 49.84 34.5 49.5 34.5C49.5 30.21 49.5 25.92 49.5 21.5C47.85 21.5 46.2 21.5 44.5 21.5C44.5 25.46 44.5 29.42 44.5 33.5C44.17 33.5 43.84 33.5 43.5 33.5C43.5 29.21 43.5 24.92 43.5 20.5Z" fill="#7B55D3"/>
</g>
</g>
<defs>
<filter id="filter0_d_1_130159" x="0" y="0" width="74" height="74" filterUnits="userSpaceOnUse" color-interpolation-filters="sRGB">
<feFlood flood-opacity="0" result="BackgroundImageFix"/>
<feColorMatrix in="SourceAlpha" type="matrix" values="0 0 0 0 0 0 0 0 0 0 0 0 0 0 0 0 0 0 127 0" result="hardAlpha"/>
<feOffset dy="1"/>
<feGaussianBlur stdDeviation="0.5"/>
<feComposite in2="hardAlpha" operator="out"/>
<feColorMatrix type="matrix" values="0 0 0 0 0 0 0 0 0 0 0 0 0 0 0 0 0 0 0.04 0"/>
<feBlend mode="normal" in2="BackgroundImageFix" result="effect1_dropShadow_1_130159"/>
<feBlend mode="normal" in="SourceGraphic" in2="effect1_dropShadow_1_130159" result="shape"/>
</filter>
<clipPath id="clip0_1_130159">
<rect width="32" height="32" fill="white" transform="translate(21 20)"/>
</clipPath>
</defs>
</svg>
