<svg width="74" height="74" viewBox="0 0 74 74" fill="none" xmlns="http://www.w3.org/2000/svg">
<g filter="url(#filter0_d_1_129974)">
<rect x="1" width="72" height="72" rx="36" fill="white" shape-rendering="crispEdges"/>
<g clip-path="url(#clip0_1_129974)">
<path d="M34.6487 19.9714C34.7064 19.971 34.7642 19.9706 34.8237 19.9702C35.0165 19.9692 35.2093 19.97 35.4021 19.9708C35.5406 19.9705 35.6792 19.97 35.8177 19.9695C36.1934 19.9683 36.5692 19.9688 36.945 19.9696C37.3383 19.9702 37.7316 19.9696 38.125 19.9692C38.8278 19.9687 39.5307 19.9695 40.2335 19.9708C40.8703 19.9719 41.5071 19.9717 42.1439 19.9706C42.8841 19.9692 43.6242 19.9687 44.3643 19.9695C44.7559 19.9699 45.1474 19.9699 45.539 19.9691C45.9071 19.9684 46.2752 19.9689 46.6434 19.9703C46.7784 19.9706 46.9135 19.9705 47.0486 19.97C47.233 19.9693 47.4174 19.9702 47.6019 19.9714C47.6552 19.9708 47.7086 19.9703 47.7636 19.9697C48.1217 19.9744 48.3295 20.0492 48.6253 20.2532C48.8259 20.4779 48.888 20.7053 48.8753 21.0032C48.9099 21.0026 48.9445 21.002 48.9802 21.0015C49.3432 20.9959 49.7062 20.9922 50.0693 20.9894C50.2044 20.9882 50.3396 20.9865 50.4748 20.9843C50.67 20.9812 50.8651 20.9798 51.0603 20.9787C51.1498 20.9768 51.1498 20.9768 51.2411 20.9748C51.7271 20.9747 52.1598 21.076 52.5413 21.3896C52.5793 21.4361 52.6173 21.4826 52.6565 21.5305C52.6958 21.5768 52.7351 21.6231 52.7757 21.6709C52.9507 21.9253 53.0159 22.1456 53.0163 22.4532C53.0168 22.5177 53.0172 22.5822 53.0176 22.6487C53.0174 22.7192 53.0172 22.7897 53.017 22.8623C53.0173 22.9375 53.0175 23.0127 53.0178 23.0902C53.0185 23.2988 53.0186 23.5073 53.0184 23.7159C53.0184 23.9409 53.0191 24.1658 53.0197 24.3908C53.0207 24.8316 53.0211 25.2723 53.0211 25.7131C53.0212 26.0714 53.0215 26.4297 53.0219 26.7879C53.023 27.8038 53.0235 28.8197 53.0234 29.8357C53.0234 29.9178 53.0234 29.9178 53.0234 30.0016C53.0234 30.0564 53.0234 30.1113 53.0234 30.1678C53.0234 31.0564 53.0246 31.9449 53.0263 32.8335C53.0281 33.746 53.029 34.6585 53.0289 35.571C53.0288 36.0833 53.0292 36.5955 53.0305 37.1078C53.0317 37.5439 53.0319 37.9801 53.0311 38.4163C53.0307 38.6387 53.0307 38.8612 53.0317 39.0836C53.0329 39.325 53.0321 39.5663 53.0312 39.8077C53.0318 39.8777 53.0325 39.9478 53.0331 40.02C53.0287 40.5228 52.9316 40.8556 52.6018 41.2375C52.2983 41.4977 52.0332 41.6986 51.6248 41.6983C51.5737 41.6985 51.5226 41.6986 51.4699 41.6987C51.4138 41.6985 51.3577 41.6984 51.2999 41.6982C51.2402 41.6982 51.1806 41.6983 51.1192 41.6983C50.9185 41.6984 50.7179 41.6981 50.5172 41.6977C50.3737 41.6977 50.2302 41.6977 50.0867 41.6978C49.6964 41.6978 49.306 41.6974 48.9157 41.697C48.508 41.6966 48.1004 41.6966 47.6927 41.6965C47.0083 41.6963 46.3238 41.6959 45.6394 41.6954C44.9343 41.6948 44.2293 41.6943 43.5242 41.6941C43.4808 41.6941 43.4373 41.6941 43.3926 41.694C43.1746 41.694 42.9566 41.6939 42.7387 41.6938C40.93 41.6931 39.1214 41.692 37.3128 41.6907C37.3258 41.7546 37.3388 41.8186 37.3523 41.8845C37.3695 41.9694 37.3867 42.0544 37.4038 42.1394C37.4124 42.1814 37.421 42.2234 37.4298 42.2667C37.8277 44.2398 37.3991 46.4099 36.3518 48.1242C36.2783 48.2311 36.2026 48.3365 36.1253 48.4407C36.1006 48.4742 36.076 48.5077 36.0506 48.5422C34.8292 50.1924 33.2282 51.2723 31.2503 51.8157C31.1433 51.846 31.1433 51.846 31.0342 51.8769C29.7672 52.1745 28.245 52.1174 27.0003 51.7532C26.9322 51.7336 26.9322 51.7336 26.8627 51.7136C24.7478 51.0839 22.9984 49.6137 21.9378 47.6907C21.6086 47.0694 21.3691 46.4317 21.1878 45.7532C21.1677 45.6822 21.1476 45.6112 21.127 45.5381C20.8279 44.2709 20.887 42.7483 21.2503 41.5032C21.263 41.4584 21.2757 41.4137 21.2888 41.3676C21.841 39.4906 23.1017 37.808 24.7503 36.7532C24.8122 36.7134 24.8742 36.6736 24.938 36.6325C25.7524 36.1383 26.6453 35.7929 27.5784 35.6008C27.6468 35.5866 27.6468 35.5866 27.7166 35.5721C28.0563 35.5098 28.3955 35.488 28.7397 35.4692C28.7889 35.4664 28.8381 35.4636 28.8887 35.4608C29.0092 35.4539 29.1298 35.4473 29.2503 35.4407C29.2498 35.3391 29.2498 35.3391 29.2494 35.2355C29.2425 33.5871 29.2373 31.9387 29.2341 30.2903C29.2325 29.4931 29.2303 28.696 29.2267 27.8988C29.2236 27.2039 29.2216 26.509 29.2209 25.8141C29.2205 25.4463 29.2195 25.0784 29.2172 24.7106C29.2151 24.3641 29.2145 24.0176 29.2149 23.6712C29.2148 23.5442 29.2142 23.4173 29.213 23.2904C29.201 21.9601 29.201 21.9601 29.6707 21.448C30.0454 21.0806 30.4863 20.9818 30.9953 20.9819C31.0556 20.9829 31.1159 20.9838 31.178 20.9848C31.2727 20.9852 31.2727 20.9852 31.3692 20.9856C31.5692 20.9867 31.7691 20.989 31.969 20.9914C32.1052 20.9924 32.2415 20.9932 32.3777 20.994C32.7102 20.9961 33.0428 20.9992 33.3753 21.0032C33.3841 20.9344 33.393 20.8657 33.4021 20.7949C33.4393 20.5557 33.4739 20.4399 33.6253 20.2532C33.9745 20.0098 34.2286 19.967 34.6487 19.9714ZM34.4378 21.0657C34.4378 21.3957 34.4378 21.7257 34.4378 22.0657C38.8515 22.0657 43.2653 22.0657 47.8128 22.0657C47.8128 21.7357 47.8128 21.4057 47.8128 21.0657C43.399 21.0657 38.9853 21.0657 34.4378 21.0657ZM30.3753 22.3157C30.0787 23.2053 30.3128 24.1904 30.3128 25.1282C37.449 25.1282 44.5853 25.1282 51.9378 25.1282C52.1262 23.5182 52.1262 23.5182 51.6878 22.1282C51.5505 22.0836 51.5505 22.0836 51.4012 22.0927C51.3168 22.0927 51.3168 22.0927 51.2306 22.0927C51.1704 22.0944 51.1102 22.096 51.0481 22.0976C50.986 22.0981 50.924 22.0985 50.86 22.099C50.6619 22.1007 50.4639 22.1046 50.2659 22.1086C50.1315 22.1102 49.9972 22.1116 49.8628 22.1129C49.5336 22.1163 49.2044 22.1216 48.8753 22.1282C48.8639 22.1666 48.8525 22.205 48.8408 22.2446C48.8251 22.2951 48.8094 22.3456 48.7932 22.3977C48.778 22.4477 48.7628 22.4977 48.7471 22.5493C48.6513 22.7776 48.517 22.867 48.3128 23.0032C48.0663 23.0853 47.8311 23.0749 47.5742 23.0748C47.5171 23.0751 47.4601 23.0753 47.4014 23.0755C47.2095 23.0762 47.0176 23.0765 46.8258 23.0767C46.6885 23.0771 46.5513 23.0775 46.414 23.078C46.0406 23.079 45.6671 23.0797 45.2937 23.0802C45.0604 23.0805 44.8272 23.0809 44.594 23.0813C43.9064 23.0824 43.2188 23.0833 42.5312 23.0838C42.4053 23.0839 42.2795 23.084 42.1537 23.0841C42.1121 23.0841 42.0704 23.0842 42.0275 23.0842C41.3529 23.0847 40.6782 23.0863 40.0036 23.0883C39.3108 23.0904 38.618 23.0915 37.9253 23.0917C37.5364 23.0919 37.1474 23.0924 36.7585 23.094C36.3927 23.0954 36.0268 23.0957 35.6609 23.0951C35.5267 23.095 35.3924 23.0954 35.2582 23.0963C35.0748 23.0974 34.8915 23.097 34.7081 23.0961C34.6285 23.0972 34.6285 23.0972 34.5473 23.0982C34.1444 23.0939 33.8669 22.9948 33.5745 22.7024C33.4751 22.5193 33.4304 22.3285 33.3753 22.1282C32.9882 22.1235 32.6012 22.1201 32.2141 22.1179C32.0824 22.1169 31.9507 22.1156 31.8191 22.114C31.6298 22.1117 31.4405 22.1107 31.2512 22.1098C31.1924 22.1089 31.1335 22.1079 31.0729 22.1069C30.9903 22.1069 30.9903 22.1069 30.9061 22.1069C30.8336 22.1062 30.8336 22.1062 30.7597 22.1056C30.5871 22.1346 30.5023 22.1968 30.3753 22.3157ZM30.3128 26.2532C30.3128 29.3057 30.3128 32.3582 30.3128 35.5032C30.6572 35.6016 31.0017 35.6967 31.3479 35.7883C31.4252 35.809 31.4252 35.809 31.5041 35.8302C31.5544 35.8435 31.6048 35.8568 31.6568 35.8706C31.7018 35.8826 31.7468 35.8945 31.7931 35.9069C31.9647 35.9469 32.139 35.9742 32.3128 36.0032C32.3128 33.4457 32.3128 30.8882 32.3128 28.2532C38.129 28.2532 43.9453 28.2532 49.9378 28.2532C49.9378 31.6769 49.9378 35.1007 49.9378 38.6282C45.2765 38.6282 40.6153 38.6282 35.8128 38.6282C36.0027 38.9621 36.0027 38.9621 36.1992 39.2915C36.2224 39.3295 36.2456 39.3676 36.2694 39.4068C36.3162 39.4834 36.363 39.5599 36.4101 39.6363C36.5477 39.8632 36.6726 40.0935 36.7906 40.3313C36.8183 40.3871 36.846 40.4428 36.8745 40.5002C36.8954 40.5425 36.9163 40.5847 36.9378 40.6282C38.7966 40.631 40.6555 40.6332 42.5144 40.6345C42.7338 40.6347 42.9531 40.6349 43.1725 40.635C43.238 40.6351 43.238 40.6351 43.3048 40.6351C44.0124 40.6357 44.7199 40.6366 45.4274 40.6378C46.1531 40.639 46.8789 40.6396 47.6046 40.6399C48.0124 40.6401 48.4201 40.6405 48.8278 40.6414C49.2114 40.6422 49.5949 40.6425 49.9784 40.6423C50.1194 40.6423 50.2604 40.6426 50.4014 40.6431C50.5934 40.6437 50.7854 40.6435 50.9775 40.6432C51.0337 40.6435 51.0898 40.6439 51.1477 40.6443C51.1992 40.644 51.2506 40.6438 51.3036 40.6435C51.3701 40.6436 51.3701 40.6436 51.4379 40.6437C51.5902 40.6247 51.6847 40.5879 51.8128 40.5032C51.9792 40.2503 51.9548 39.9842 51.9528 39.6916C51.9529 39.6343 51.953 39.5771 51.9531 39.5181C51.9533 39.3253 51.9526 39.1325 51.952 38.9396C51.9519 38.7994 51.9519 38.6592 51.952 38.519C51.952 38.143 51.9513 37.7669 51.9504 37.3909C51.9497 37.0383 51.9497 36.6856 51.9496 36.333C51.9489 35.3012 51.9472 34.2694 51.9456 33.2375C51.943 30.9327 51.9404 28.6278 51.9378 26.2532C44.8015 26.2532 37.6653 26.2532 30.3128 26.2532ZM33.4378 29.3157C33.4378 29.9757 33.4378 30.6357 33.4378 31.3157C34.4278 31.3157 35.4178 31.3157 36.4378 31.3157C36.4378 30.6557 36.4378 29.9957 36.4378 29.3157C35.4478 29.3157 34.4578 29.3157 33.4378 29.3157ZM37.5628 29.3157C37.5628 29.9757 37.5628 30.6357 37.5628 31.3157C38.5528 31.3157 39.5428 31.3157 40.5628 31.3157C40.5628 30.6557 40.5628 29.9957 40.5628 29.3157C39.5728 29.3157 38.5828 29.3157 37.5628 29.3157ZM41.6878 29.3157C41.6878 29.9757 41.6878 30.6357 41.6878 31.3157C42.6778 31.3157 43.6678 31.3157 44.6878 31.3157C44.6878 30.6557 44.6878 29.9957 44.6878 29.3157C43.6978 29.3157 42.7078 29.3157 41.6878 29.3157ZM45.8128 29.3157C45.8128 29.9757 45.8128 30.6357 45.8128 31.3157C46.8028 31.3157 47.7928 31.3157 48.8128 31.3157C48.8128 30.6557 48.8128 29.9957 48.8128 29.3157C47.8228 29.3157 46.8328 29.3157 45.8128 29.3157ZM33.4378 32.4407C33.4378 33.1007 33.4378 33.7607 33.4378 34.4407C34.4278 34.4407 35.4178 34.4407 36.4378 34.4407C36.4378 33.7807 36.4378 33.1207 36.4378 32.4407C35.4478 32.4407 34.4578 32.4407 33.4378 32.4407ZM37.5628 32.4407C37.5628 33.1007 37.5628 33.7607 37.5628 34.4407C38.5528 34.4407 39.5428 34.4407 40.5628 34.4407C40.5628 33.7807 40.5628 33.1207 40.5628 32.4407C39.5728 32.4407 38.5828 32.4407 37.5628 32.4407ZM41.6878 32.4407C41.6878 33.1007 41.6878 33.7607 41.6878 34.4407C42.6778 34.4407 43.6678 34.4407 44.6878 34.4407C44.6878 33.7807 44.6878 33.1207 44.6878 32.4407C43.6978 32.4407 42.7078 32.4407 41.6878 32.4407ZM45.8128 32.4407C45.8128 33.1007 45.8128 33.7607 45.8128 34.4407C46.8028 34.4407 47.7928 34.4407 48.8128 34.4407C48.8128 33.7807 48.8128 33.1207 48.8128 32.4407C47.8228 32.4407 46.8328 32.4407 45.8128 32.4407ZM33.4378 35.5032C33.4378 35.8744 33.4378 36.2457 33.4378 36.6282C33.7411 36.9147 33.7411 36.9147 33.9749 37.0217C34.1614 37.115 34.257 37.1904 34.4065 37.3269C34.7613 37.6007 35.1664 37.5434 35.594 37.5266C35.8725 37.5189 36.1509 37.5111 36.4378 37.5032C36.4378 36.8432 36.4378 36.1832 36.4378 35.5032C35.4478 35.5032 34.4578 35.5032 33.4378 35.5032ZM37.5628 35.5032C37.5628 36.1632 37.5628 36.8232 37.5628 37.5032C38.5528 37.5032 39.5428 37.5032 40.5628 37.5032C40.5628 36.8432 40.5628 36.1832 40.5628 35.5032C39.5728 35.5032 38.5828 35.5032 37.5628 35.5032ZM41.6878 35.5032C41.6878 36.1632 41.6878 36.8232 41.6878 37.5032C42.6778 37.5032 43.6678 37.5032 44.6878 37.5032C44.6878 36.8432 44.6878 36.1832 44.6878 35.5032C43.6978 35.5032 42.7078 35.5032 41.6878 35.5032ZM45.8128 35.5032C45.8128 36.1632 45.8128 36.8232 45.8128 37.5032C46.8028 37.5032 47.7928 37.5032 48.8128 37.5032C48.8128 36.8432 48.8128 36.1832 48.8128 35.5032C47.8228 35.5032 46.8328 35.5032 45.8128 35.5032ZM23.8753 38.9407C22.5844 40.466 21.9501 42.3134 22.0628 44.3157C22.2366 46.1682 23.0841 47.9746 24.5225 49.1831C24.7391 49.3594 24.9618 49.5265 25.1878 49.6907C25.2429 49.7312 25.298 49.7717 25.3548 49.8135C26.8411 50.8313 28.7604 51.1322 30.5186 50.8625C32.4503 50.4717 34.151 49.3714 35.262 47.7375C36.0494 46.5374 36.465 45.1712 36.4573 43.7336C36.457 43.6653 36.4567 43.597 36.4564 43.5266C36.4487 42.996 36.3932 42.5161 36.2503 42.0032C36.2304 41.9249 36.2106 41.8467 36.1902 41.7661C35.6958 39.9305 34.436 38.4263 32.8106 37.4797C32.2274 37.1506 31.6478 36.9201 31.0003 36.7532C30.929 36.7333 30.8577 36.7134 30.7842 36.6928C28.3268 36.0944 25.5311 37.0454 23.8753 38.9407Z" fill="#7B55D3"/>
<path d="M33.25 38.9406C33.2971 38.9775 33.3442 39.0144 33.3928 39.0524C34.6118 40.0629 35.3004 41.5804 35.4765 43.132C35.6138 44.7488 35.1719 46.3548 34.1579 47.6323C33.3215 48.6031 32.4072 49.2777 31.1875 49.6906C31.1264 49.7117 31.1264 49.7117 31.0642 49.7331C29.5659 50.2261 27.8397 50.0157 26.4464 49.3202C24.8668 48.499 23.7989 47.1722 23.2505 45.4924C22.9398 44.3123 22.9094 42.9774 23.3125 41.8156C23.3279 41.771 23.3433 41.7265 23.3592 41.6805C23.6798 40.7836 24.1536 40.0675 24.8125 39.3781C24.85 39.3359 24.8876 39.2937 24.9262 39.2502C27.077 36.9225 30.8986 37.037 33.25 38.9406ZM25.4011 40.3264C24.4565 41.4311 24.0343 42.8082 24.125 44.2531C24.2906 45.6361 24.9466 46.8112 25.9926 47.7226C27.0902 48.5845 28.3624 48.9677 29.75 48.8781C31.0447 48.7142 32.0878 48.1639 33 47.2531C33.0418 47.212 33.0836 47.1709 33.1267 47.1286C34.0699 46.1319 34.429 44.7683 34.3925 43.4301C34.3404 42.3191 33.9154 41.3717 33.25 40.5031C33.2207 40.4624 33.1915 40.4216 33.1613 40.3796C32.449 39.4547 31.2312 38.853 30.1067 38.6542C28.2892 38.4493 26.6812 38.9995 25.4011 40.3264Z" fill="#65C7C3"/>
<path d="M28.6875 40.625C29.0588 40.625 29.43 40.625 29.8125 40.625C29.8125 41.4706 29.8125 42.3163 29.8125 43.1875C30.3281 43.1875 30.8438 43.1875 31.375 43.1875C31.375 43.5587 31.375 43.93 31.375 44.3125C30.4881 44.3125 29.6012 44.3125 28.6875 44.3125C28.6875 43.0956 28.6875 41.8787 28.6875 40.625Z" fill="#65C7C3"/>
</g>
</g>
<defs>
<filter id="filter0_d_1_129974" x="0" y="0" width="74" height="74" filterUnits="userSpaceOnUse" color-interpolation-filters="sRGB">
<feFlood flood-opacity="0" result="BackgroundImageFix"/>
<feColorMatrix in="SourceAlpha" type="matrix" values="0 0 0 0 0 0 0 0 0 0 0 0 0 0 0 0 0 0 127 0" result="hardAlpha"/>
<feOffset dy="1"/>
<feGaussianBlur stdDeviation="0.5"/>
<feComposite in2="hardAlpha" operator="out"/>
<feColorMatrix type="matrix" values="0 0 0 0 0 0 0 0 0 0 0 0 0 0 0 0 0 0 0.04 0"/>
<feBlend mode="normal" in2="BackgroundImageFix" result="effect1_dropShadow_1_129974"/>
<feBlend mode="normal" in="SourceGraphic" in2="effect1_dropShadow_1_129974" result="shape"/>
</filter>
<clipPath id="clip0_1_129974">
<rect width="32" height="32" fill="white" transform="translate(21 20)"/>
</clipPath>
</defs>
</svg>
