<svg width="104" height="104" viewBox="0 0 104 104" fill="none" xmlns="http://www.w3.org/2000/svg">
<path d="M23.6466 77.2427L19.7562 77.3011C18.4509 77.3205 17.134 77.3303 15.8209 77.3322H15.7314V77.2427V75.066V74.9688H15.8307L19.7425 74.9824L21.6994 74.9999L23.6564 75.0232H23.6992V75.0641L23.6466 77.2427ZM23.6466 77.2427L23.6038 75.066L23.6466 75.1088L21.6897 75.1321L19.7328 75.1497L15.8209 75.1633L15.9162 75.066V77.2427L15.8268 77.1533C17.1223 77.1533 18.4139 77.1649 19.7172 77.1844L23.6466 77.2427Z" fill="#EBEBEB"/>
<path d="M19.2798 77.8125H11.4541V79.9892H19.2798V77.8125Z" fill="#EBEBEB"/>
<path d="M61.5357 85.6562H53.71V87.833H61.5357V85.6562Z" fill="#EBEBEB"/>
<path d="M92.5239 59.4844H84.6982V61.6611H92.5239V59.4844Z" fill="#EBEBEB"/>
<path d="M71.171 15.274L67.2806 15.3323C65.9753 15.3518 64.6584 15.3615 63.3434 15.3635H63.2539V15.274V13.0973V13H63.3512L67.265 13.0136L69.22 13.0311L71.1769 13.0545H71.2197V13.0953L71.171 15.274ZM71.171 15.274L71.1302 13.0953L71.171 13.1381L69.2141 13.1615L67.2592 13.179L63.3453 13.1926L63.4426 13.0953V15.272L63.3531 15.1826C64.6467 15.1826 65.9403 15.1942 67.2436 15.2137L71.171 15.274Z" fill="#EBEBEB"/>
<path d="M75.5357 15.8438H67.71V18.0205H75.5357V15.8438Z" fill="#EBEBEB"/>
<path d="M19.2794 15.274L15.389 15.3323C14.0837 15.3518 12.7668 15.3615 11.4518 15.3635H11.3623V15.274V13.0973V13H11.4596L15.3734 13.0136L17.3303 13.0311L19.2755 13.0545H19.3183V13.0953L19.2794 15.274ZM19.2794 15.274L19.2386 13.0953L19.2794 13.1381L17.3342 13.1615L15.3773 13.179L11.4635 13.1926L11.5607 13.0953V15.272L11.4712 15.1826C12.7648 15.1826 14.0584 15.1942 15.3617 15.2137L19.2794 15.274Z" fill="#EBEBEB"/>
<path d="M54.6226 44.8125H46.7969V46.9892H54.6226V44.8125Z" fill="#EBEBEB"/>
<path d="M90.1332 14.4531H76.9854V30.4022H90.1332V14.4531Z" fill="#EBEBEB"/>
<path d="M88.6308 15.9062H78.4863V28.9433H88.6308V15.9062Z" fill="white"/>
<path d="M78.8809 15.9062H78.4863V28.9433H78.8809V15.9062Z" fill="#C7C7C7"/>
<path d="M90.5274 14.4531H90.1328V30.4022H90.5274V14.4531Z" fill="#C7C7C7"/>
<path d="M83.7831 26.0469H86.1758V18.9215H83.7831V26.0469Z" fill="#EBEBEB"/>
<path d="M87.3181 21.2897H80.7451V17.5938H87.3181V21.2897ZM80.9396 21.0952H87.1236V17.7883H80.9396V21.0952Z" fill="#EBEBEB"/>
<path d="M90.1332 53.75H76.9854V69.699H90.1332V53.75Z" fill="#EBEBEB"/>
<path d="M88.6308 55.2109H78.4863V68.2479H88.6308V55.2109Z" fill="white"/>
<path d="M78.8809 55.2109H78.4863V68.2479H78.8809V55.2109Z" fill="#C7C7C7"/>
<path d="M90.5274 53.75H90.1328V69.699H90.5274V53.75Z" fill="#C7C7C7"/>
<path d="M84.2794 58.2266H81.8867V65.352H84.2794V58.2266Z" fill="#EBEBEB"/>
<path d="M87.3181 60.6003H80.7451V56.9141H87.3181V60.6003ZM80.9396 60.4058H87.1236V57.1086H80.9396V60.4058Z" fill="#EBEBEB"/>
<path d="M90.1332 34.1719H76.9854V50.1209H90.1332V34.1719Z" fill="#EBEBEB"/>
<path d="M88.6308 35.625H78.4863V48.662H88.6308V35.625Z" fill="white"/>
<path d="M78.8809 35.625H78.4863V48.662H78.8809V35.625Z" fill="#C7C7C7"/>
<path d="M90.5274 34.1719H90.1328V50.1209H90.5274V34.1719Z" fill="#C7C7C7"/>
<path d="M84.6235 39H82.5752V44.1802H84.6235V39Z" fill="#EBEBEB"/>
<path d="M86.8802 45.8129H81.1807V42.0469H86.8802V45.8129ZM81.3752 45.6183H86.6857V42.2414H81.3752V45.6183Z" fill="#DBDBDB"/>
<path d="M18.4908 71.4027C21.7102 74.5637 22.251 79.4269 21.5721 83.7064C21.5546 83.8036 21.4048 83.7764 21.4048 83.6869C21.4048 82.7143 21.434 81.7417 21.4301 80.7905C21.4126 80.7457 21.399 80.7049 21.3814 80.6601C20.5411 80.0493 19.7669 79.3588 19.2884 78.4134C18.7515 77.3552 18.5394 76.1627 18.1212 75.0578C18.0823 74.9528 18.1951 74.9839 18.2691 75.0384C20.2279 76.4818 20.8523 78.036 21.4145 80.1135C21.4023 79.0276 21.2883 77.9452 21.0741 76.8805C20.65 74.9081 19.8136 72.955 18.3974 71.4922C18.3916 71.4861 18.387 71.4789 18.3839 71.4709C18.3808 71.463 18.3793 71.4546 18.3795 71.4461C18.3797 71.4376 18.3815 71.4292 18.3849 71.4215C18.3883 71.4137 18.3933 71.4067 18.3994 71.4008C18.4055 71.3949 18.4128 71.3903 18.4207 71.3872C18.4286 71.3841 18.437 71.3826 18.4455 71.3828C18.454 71.383 18.4624 71.3849 18.4701 71.3883C18.4779 71.3917 18.4849 71.3966 18.4908 71.4027Z" fill="#263238"/>
<path d="M17.8863 71.7742C17.3319 71.7937 16.9837 72.6787 16.5519 72.9414C16.5065 72.978 16.454 73.0047 16.3976 73.0197C16.3413 73.0348 16.2824 73.0378 16.2248 73.0286C16.1672 73.0195 16.1122 72.9983 16.0633 72.9665C16.0145 72.9347 15.9728 72.893 15.9411 72.8441C15.5131 72.2469 16.1006 71.5116 16.653 71.0934C16.264 71.2548 15.9313 71.5408 15.5053 71.6205C15.4509 71.6387 15.3932 71.645 15.3361 71.6389C15.2791 71.6327 15.224 71.6144 15.1747 71.585C15.1254 71.5556 15.083 71.516 15.0504 71.4687C15.0179 71.4215 14.9959 71.3678 14.986 71.3112C14.7914 70.4981 15.8205 70.1441 16.5207 70.1188C16.1803 69.8815 15.2077 69.2396 15.7251 68.9244C16.2426 68.6093 17.3903 69.5255 17.7638 69.827C18.3104 70.2725 18.964 70.9358 18.9893 71.6303C19.0204 72.4434 18.3123 71.9454 17.8863 71.7742Z" fill="#7B55D3"/>
<path opacity="0.1" d="M17.8863 71.7742C17.3319 71.7937 16.9837 72.6787 16.5519 72.9414C16.5065 72.978 16.454 73.0047 16.3976 73.0197C16.3413 73.0348 16.2824 73.0378 16.2248 73.0286C16.1672 73.0195 16.1122 72.9983 16.0633 72.9665C16.0145 72.9347 15.9728 72.893 15.9411 72.8441C15.5131 72.2469 16.1006 71.5116 16.653 71.0934C16.264 71.2548 15.9313 71.5408 15.5053 71.6205C15.4509 71.6387 15.3932 71.645 15.3361 71.6389C15.2791 71.6327 15.224 71.6144 15.1747 71.585C15.1254 71.5556 15.083 71.516 15.0504 71.4687C15.0179 71.4215 14.9959 71.3678 14.986 71.3112C14.7914 70.4981 15.8205 70.1441 16.5207 70.1188C16.1803 69.8815 15.2077 69.2396 15.7251 68.9244C16.2426 68.6093 17.3903 69.5255 17.7638 69.827C18.3104 70.2725 18.964 70.9358 18.9893 71.6303C19.0204 72.4434 18.3123 71.9454 17.8863 71.7742Z" fill="black"/>
<path d="M18.0461 71.905C17.338 71.5841 15.9783 72.0471 15.8616 71.7786C15.6282 71.2339 16.7136 70.8585 17.3011 70.7865C16.7603 70.6406 15.7254 70.4072 15.7565 69.8859C15.7955 69.2498 17.3458 69.7964 18.1297 70.3975C19.1179 71.1561 19.1024 71.8875 18.9467 72.0334C18.725 72.228 18.1628 71.9595 18.0461 71.905Z" fill="#7B55D3"/>
<path d="M25.8232 71.0873C22.4851 74.1141 21.7595 78.9655 22.275 83.2606C22.2906 83.3579 22.4404 83.3365 22.4443 83.247C22.4812 82.2744 22.489 81.3017 22.5279 80.3505C22.5474 80.3077 22.5629 80.2669 22.5824 80.2241C23.4461 79.6405 24.2436 78.985 24.7591 78.0571C25.3427 77.0203 25.5917 75.8376 26.0449 74.7502C26.0877 74.6451 25.9729 74.6724 25.8971 74.7229C23.8857 76.0846 23.2029 77.6214 22.5629 79.6755C22.6155 78.5902 22.7705 77.5123 23.0259 76.4562C23.5239 74.5109 24.4343 72.5832 25.9049 71.1748C25.9593 71.1223 25.8815 71.0328 25.8232 71.0873Z" fill="#263238"/>
<path d="M26.4146 71.4782C26.967 71.519 27.2802 72.4158 27.7004 72.692C27.7442 72.7308 27.7957 72.7598 27.8515 72.7772C27.9074 72.7946 27.9663 72.8 28.0243 72.793C28.0824 72.786 28.1383 72.7668 28.1884 72.7367C28.2385 72.7065 28.2817 72.6661 28.3151 72.6181C28.7664 72.0345 28.2081 71.2798 27.6712 70.8479C28.0602 71.0249 28.3754 71.3226 28.7975 71.4179C28.8512 71.4382 28.9087 71.4467 28.9661 71.4427C29.0234 71.4387 29.0792 71.4224 29.1296 71.3949C29.18 71.3674 29.2239 71.3293 29.2582 71.2832C29.2926 71.2372 29.3166 71.1842 29.3285 71.128C29.5464 70.3227 28.5504 69.922 27.8404 69.8772C28.1886 69.6555 29.1865 69.0505 28.6808 68.7101C28.175 68.3697 26.9943 69.247 26.6091 69.5349C26.045 69.957 25.368 70.595 25.3175 71.2856C25.2533 72.1045 25.9808 71.6319 26.4146 71.4782Z" fill="#7B55D3"/>
<path opacity="0.1" d="M26.4146 71.4782C26.967 71.519 27.2802 72.4158 27.7004 72.692C27.7442 72.7308 27.7957 72.7598 27.8515 72.7772C27.9074 72.7946 27.9663 72.8 28.0243 72.793C28.0824 72.786 28.1383 72.7668 28.1884 72.7367C28.2385 72.7065 28.2817 72.6661 28.3151 72.6181C28.7664 72.0345 28.2081 71.2798 27.6712 70.8479C28.0602 71.0249 28.3754 71.3226 28.7975 71.4179C28.8512 71.4382 28.9087 71.4467 28.9661 71.4427C29.0234 71.4387 29.0792 71.4224 29.1296 71.3949C29.18 71.3674 29.2239 71.3293 29.2582 71.2832C29.2926 71.2372 29.3166 71.1842 29.3285 71.128C29.5464 70.3227 28.5504 69.922 27.8404 69.8772C28.1886 69.6555 29.1865 69.0505 28.6808 68.7101C28.175 68.3697 26.9943 69.247 26.6091 69.5349C26.045 69.957 25.368 70.595 25.3175 71.2856C25.2533 72.1045 25.9808 71.6319 26.4146 71.4782Z" fill="black"/>
<path d="M26.2485 71.606C26.9682 71.3123 28.3085 71.8258 28.4349 71.5632C28.6897 71.0263 27.6179 70.612 27.0343 70.5167C27.581 70.3922 28.6236 70.1976 28.6119 69.6763C28.5964 69.0383 27.0285 69.5265 26.2212 70.0965C25.2058 70.8162 25.1844 71.5476 25.342 71.6994C25.5579 71.9094 26.1279 71.6546 26.2485 71.606Z" fill="#7B55D3"/>
<path d="M22.4202 79.0812C22.1939 80.7005 21.8473 82.3007 21.3834 83.8685C21.3769 83.8994 21.3585 83.9265 21.332 83.9439C21.3056 83.9612 21.2733 83.9673 21.2424 83.9609C21.2114 83.9544 21.1843 83.9359 21.167 83.9095C21.1496 83.883 21.1435 83.8508 21.15 83.8198C21.3698 82.3453 21.7685 80.902 21.9884 79.4216C22.2274 77.9293 22.3134 76.4165 22.2451 74.9067C22.1031 72.4227 21.4281 69.7771 19.8077 67.8338C19.7708 67.7871 19.8466 67.721 19.8836 67.7638C23.1302 71.5512 22.6069 76.1925 22.6069 76.6088C23.068 75.041 23.5407 73.2455 25.2797 71.6485C25.3556 71.5804 25.4139 71.6134 25.4003 71.7302C25.0891 74.6363 24.2818 76.1556 22.5953 77.7098C22.5428 78.1689 22.4825 78.628 22.4202 79.0812Z" fill="#263238"/>
<path d="M19.767 68.271C19.1834 68.0123 18.3781 68.7553 17.8003 68.8079C17.4949 68.8351 17.2673 68.7145 17.2168 68.3994C17.0728 67.5649 18.0532 67.096 18.8333 66.9463C18.3411 66.9151 17.8606 67.0474 17.3763 66.9171C17.3101 66.9092 17.2464 66.8871 17.1895 66.8522C17.1327 66.8173 17.0841 66.7705 17.0472 66.715C17.0102 66.6595 16.9857 66.5967 16.9753 66.5308C16.965 66.465 16.969 66.3977 16.9872 66.3335C17.2012 65.3959 18.4442 65.534 19.1795 65.8686C18.9461 65.4523 18.2594 64.2968 18.9539 64.2288C19.6483 64.1607 20.3797 65.6916 20.6151 66.1935C20.9594 66.9288 21.3018 67.9442 20.9789 68.6795C20.6093 69.5373 20.1249 68.662 19.767 68.271Z" fill="#7B55D3"/>
<path opacity="0.1" d="M19.767 68.271C19.1834 68.0123 18.3781 68.7553 17.8003 68.8079C17.4949 68.8351 17.2673 68.7145 17.2168 68.3994C17.0728 67.5649 18.0532 67.096 18.8333 66.9463C18.3411 66.9151 17.8606 67.0474 17.3763 66.9171C17.3101 66.9092 17.2464 66.8871 17.1895 66.8522C17.1327 66.8173 17.0841 66.7705 17.0472 66.715C17.0102 66.6595 16.9857 66.5967 16.9753 66.5308C16.965 66.465 16.969 66.3977 16.9872 66.3335C17.2012 65.3959 18.4442 65.534 19.1795 65.8686C18.9461 65.4523 18.2594 64.2968 18.9539 64.2288C19.6483 64.1607 20.3797 65.6916 20.6151 66.1935C20.9594 66.9288 21.3018 67.9442 20.9789 68.6795C20.6093 69.5373 20.1249 68.662 19.767 68.271Z" fill="black"/>
<path d="M19.8662 68.4926C19.2826 67.802 17.6486 67.5978 17.6622 67.2612C17.6933 66.5765 19.0102 66.736 19.6561 66.9558C19.1698 66.5318 18.2127 65.7692 18.5064 65.244C18.8682 64.604 20.2007 65.9521 20.7104 66.9694C21.3543 68.2533 20.9808 69.0081 20.7376 69.0781C20.403 69.1734 19.9595 68.6054 19.8662 68.4926Z" fill="#7B55D3"/>
<path d="M24.5467 79.9589L25.9784 90.9009H17.2637C17.4426 89.9283 19.065 79.9453 19.065 79.9453L24.5467 79.9589Z" fill="#7B55D3"/>
<path d="M39.1497 45.9532C38.9619 45.301 38.6709 44.683 38.2879 44.1227C37.8902 43.5686 37.4271 43.0644 36.9087 42.621C34.841 40.8217 31.9912 40.1253 29.297 40.3101C28.0662 40.3845 26.8596 40.6845 25.7372 41.1952C25.1903 41.4502 24.6832 41.783 24.2316 42.1833C23.8134 42.5549 23.3426 43.012 23.1481 43.545C23.1419 43.5642 23.142 43.5849 23.1486 43.6039C23.1551 43.623 23.1676 43.6395 23.1842 43.6509C23.2008 43.6622 23.2207 43.6679 23.2409 43.6671C23.261 43.6662 23.2803 43.6589 23.2959 43.6462C23.543 43.4516 23.7511 43.2065 23.9865 42.9926C24.2239 42.7804 24.4762 42.5854 24.7413 42.409C25.262 42.0663 25.816 41.7769 26.3947 41.5453C28.7076 40.6116 31.4523 40.6349 33.7866 41.4792C34.9186 41.8924 35.9636 42.5132 36.8679 43.3096C37.294 43.6862 37.6846 44.1009 38.035 44.5487C38.4107 45.0035 38.757 45.4817 39.0719 45.9804C39.1069 46.0077 39.1672 45.996 39.1497 45.9532Z" fill="#263238"/>
<path d="M37.4437 42.2763C37.2099 41.9032 36.9161 41.5713 36.5742 41.294C36.216 41.0308 35.8374 40.7967 35.442 40.5937C33.9941 39.8125 32.4088 39.3185 30.7734 39.1386C29.9844 39.0518 29.1866 39.0912 28.41 39.2554C28.0419 39.3377 27.6789 39.441 27.3226 39.5647C26.9597 39.6718 26.6149 39.8324 26.2994 40.0412C26.292 40.0483 26.287 40.0574 26.285 40.0674C26.2831 40.0775 26.2844 40.0878 26.2887 40.0971C26.293 40.1063 26.3001 40.114 26.309 40.119C26.3179 40.124 26.3282 40.126 26.3383 40.1249C26.7546 40.0393 27.1533 39.8856 27.5716 39.8059C27.9898 39.7261 28.3808 39.7105 28.7893 39.6716C33.5688 39.2281 37.0255 42.183 37.3639 42.36C37.3754 42.3682 37.3894 42.3719 37.4034 42.3706C37.4174 42.3693 37.4304 42.363 37.4401 42.3528C37.4499 42.3426 37.4556 42.3293 37.4562 42.3152C37.4569 42.3012 37.4524 42.2874 37.4437 42.2763Z" fill="#263238"/>
<path d="M20.9072 57.4052C21.8798 58.0336 23.0314 57.5745 23.794 56.8372C24.5876 56.0708 25.1284 55.0671 25.5447 54.0575C25.9337 53.1354 26.208 52.1725 26.5173 51.2213C26.8266 50.2701 27.1009 49.2761 27.5911 48.4066C28.0498 47.5749 28.8191 46.9588 29.7308 46.6928C30.7187 46.427 31.7689 46.5214 32.6934 46.9593C33.1831 47.1753 33.6273 47.4822 34.0026 47.8638C34.3462 48.2372 34.6138 48.6739 34.7904 49.1496C35.2009 50.1767 35.4071 51.27 35.656 52.3418C35.8603 53.2288 36.2844 54.0283 37.115 54.466C37.823 54.8395 38.6945 54.9523 39.4143 54.5496C39.425 54.5445 39.4335 54.5356 39.4381 54.5246C39.4427 54.5137 39.4431 54.5014 39.4393 54.4901C39.4354 54.4788 39.4276 54.4694 39.4173 54.4635C39.4069 54.4576 39.3948 54.4557 39.3831 54.4582C38.9298 54.5464 38.4622 54.5288 38.0169 54.4066C37.5715 54.2845 37.1603 54.0612 36.8154 53.754C36.4599 53.3942 36.2137 52.9409 36.1054 52.4468C35.9498 51.8633 35.8331 51.2622 35.6736 50.6747C35.409 49.7021 35.1464 48.638 34.5064 47.8288C33.8546 47.0449 32.9759 46.4823 31.9912 46.2182C31.0433 45.9423 30.0309 45.9861 29.1103 46.3427C28.195 46.7212 27.4484 47.4194 27.0094 48.3074C26.0913 50.0581 25.7956 52.0539 25.0875 53.8863C24.7617 54.796 24.2755 55.64 23.652 56.3782C23.0042 57.1018 21.9635 57.6387 20.9948 57.236C20.9724 57.2254 20.9468 57.2238 20.9234 57.2317C20.8999 57.2396 20.8804 57.2563 20.8691 57.2783C20.8577 57.3002 20.8553 57.3258 20.8624 57.3495C20.8696 57.3732 20.8856 57.3932 20.9072 57.4052Z" fill="#263238"/>
<path d="M20.6953 54.3273C21.1427 54.3876 21.5531 54.0511 21.7613 53.6815C22.0442 53.1497 22.2611 52.5853 22.4071 52.0008C22.7153 50.7918 23.1052 49.605 23.5742 48.4488C24.3523 46.6378 25.5642 44.891 27.3091 43.8872C28.1737 43.3837 29.1379 43.0753 30.1342 42.9836C31.1304 42.8919 32.1347 43.019 33.0767 43.3562C33.9737 43.6833 34.7935 44.1918 35.4849 44.8501C36.1965 45.5502 36.7694 46.3785 37.1734 47.2914C37.5772 48.2376 37.9088 49.213 38.1655 50.2093C38.2803 50.608 38.4417 51.0924 38.8269 51.3083C38.9705 51.3983 39.1415 51.4344 39.3092 51.4102C39.477 51.386 39.6308 51.303 39.7431 51.176C39.7645 51.1507 39.7295 51.1235 39.7061 51.1391C39.597 51.2115 39.4667 51.2452 39.3361 51.2346C39.2056 51.224 39.0824 51.1698 38.9864 51.0807C38.7785 50.9043 38.6406 50.6594 38.5973 50.3902C38.467 49.8533 38.362 49.3125 38.2083 48.7776C37.9209 47.6907 37.4675 46.6546 36.8641 45.706C36.3206 44.8922 35.6215 44.1938 34.8071 43.6513C33.9926 43.1087 33.0789 42.7325 32.1185 42.5445C31.1581 42.3565 30.17 42.3603 29.211 42.5557C28.2521 42.751 27.3413 43.1342 26.531 43.683C24.8503 44.8229 23.7123 46.5794 22.9595 48.4332C22.5705 49.4493 22.2456 50.4888 21.9869 51.5456C21.8585 52.08 21.7001 52.6067 21.5123 53.1232C21.4244 53.3495 21.3204 53.5693 21.201 53.7807C21.1581 53.8779 21.09 53.9619 21.0039 54.0241C20.9177 54.0863 20.8166 54.1245 20.7108 54.1347C20.6853 54.1327 20.66 54.1409 20.6405 54.1574C20.6209 54.174 20.6088 54.1977 20.6068 54.2233C20.6047 54.2488 20.6129 54.2741 20.6295 54.2936C20.6461 54.3131 20.6697 54.3253 20.6953 54.3273Z" fill="#263238"/>
<path d="M21.2381 58.2394C21.2352 58.261 21.2406 58.2828 21.2532 58.3005C21.2659 58.3182 21.2848 58.3304 21.3061 58.3347C21.4641 58.3722 21.6247 58.3969 21.7866 58.4086C21.8592 58.4125 21.9319 58.4125 22.0045 58.4086C22.8623 58.3658 23.7552 57.8795 24.6539 56.9633C25.4136 56.188 26.0394 55.2921 26.5058 54.3119C26.8735 53.4721 27.1564 52.5976 27.35 51.7014C27.4123 51.4505 27.4765 51.1976 27.5445 50.9486C27.7566 50.1511 28.1417 49.0034 29.0113 48.2797C29.3047 48.0352 29.6493 47.8597 30.0197 47.7661C30.39 47.6725 30.7766 47.6632 31.151 47.739C31.7323 47.8569 32.2831 48.0929 32.7693 48.4326C33.2555 48.7722 33.6668 49.2082 33.9775 49.7134C34.4648 50.5256 34.6404 51.4872 34.4715 52.4192C34.2648 53.4266 33.7757 54.3543 33.0612 55.0939C32.3173 55.8595 31.4356 56.4779 30.4624 56.9166C30.05 57.1111 29.5034 57.3699 28.9432 57.5761L28.6222 57.6947C28.2137 57.8445 27.7935 57.9962 27.3909 58.1733C27.3648 58.1859 27.3441 58.2075 27.3326 58.2341C27.3212 58.2607 27.3197 58.2905 27.3284 58.3182C27.3371 58.3458 27.3555 58.3694 27.3802 58.3846C27.4049 58.3997 27.4342 58.4055 27.4628 58.4008C27.7449 58.3405 28.0231 58.2627 28.2818 58.1869C30.1589 57.648 32.4971 56.7766 33.923 54.8099C34.5674 53.9577 34.9414 52.9318 34.9968 51.8648C35.0222 50.8859 34.718 49.9268 34.1331 49.1415C33.397 48.1298 32.2948 47.4457 31.0615 47.2352C30.6557 47.1684 30.2404 47.1857 29.8416 47.2861C29.4427 47.3865 29.0687 47.5678 28.7428 47.8187C28.0231 48.377 27.494 49.266 27.1263 50.5421C27.0252 50.8883 26.9318 51.2424 26.8481 51.5847C26.6626 52.4132 26.4021 53.2232 26.07 54.0046C25.6002 55.0236 24.9512 55.9499 24.154 56.7396C23.5023 57.3815 22.4869 58.146 21.3451 58.148C21.3188 58.1463 21.293 58.155 21.2731 58.172C21.2531 58.1891 21.2405 58.2132 21.2381 58.2394Z" fill="#263238"/>
<path d="M20.8642 55.459C21.1069 55.5138 21.3592 55.5106 21.6004 55.4498C21.8417 55.3889 22.0653 55.2722 22.2531 55.1089C22.6791 54.7685 22.8989 54.2024 23.074 53.7006C23.4805 52.5334 23.7957 51.3274 24.2003 50.1544C24.8286 48.3258 25.7565 46.4584 27.4041 45.3574C28.145 44.8704 28.9815 44.5473 29.8574 44.4098C30.7334 44.2722 31.6286 44.3234 32.4831 44.5599C33.429 44.8276 34.2865 45.3426 34.9672 46.0519C35.5914 46.7439 36.0862 47.5425 36.4281 48.4095C36.609 48.8452 36.7646 49.2887 36.9027 49.74C37.029 50.2175 37.1796 50.6882 37.354 51.1503C37.673 51.9168 38.4764 52.8369 39.4023 52.4575C39.4174 52.4503 39.4296 52.4383 39.4371 52.4234C39.4446 52.4085 39.447 52.3915 39.4439 52.3751C39.4408 52.3587 39.4324 52.3438 39.4199 52.3327C39.4075 52.3216 39.3918 52.3149 39.3751 52.3136C39.1172 52.2896 38.8676 52.2098 38.6436 52.0799C38.4196 51.9499 38.2265 51.7728 38.0776 51.5608C37.7489 51.0978 37.6225 50.5259 37.4727 49.9871C37.2106 48.9806 36.8237 48.0109 36.3211 47.1003C35.873 46.2948 35.263 45.5908 34.5295 45.0326C33.7355 44.4586 32.8194 44.0764 31.8529 43.916C30.9684 43.7716 30.064 43.8054 29.1927 44.0156C28.3215 44.2257 27.5011 44.6078 26.7797 45.1395C25.1787 46.3359 24.2664 48.2111 23.642 50.061C23.2899 51.0998 23.0176 52.1599 22.6947 53.2065C22.4496 54.004 22.0158 55.3462 20.9264 55.1692C20.8905 55.1668 20.8549 55.1774 20.8262 55.1991C20.7975 55.2207 20.7775 55.252 20.7699 55.2872C20.7624 55.3224 20.7677 55.3591 20.7851 55.3907C20.8024 55.4222 20.8305 55.4465 20.8642 55.459Z" fill="#263238"/>
<path d="M20.7842 56.2223C20.9122 56.3665 21.0667 56.4847 21.2394 56.5705C21.5973 56.7494 22.1206 56.6911 22.4785 56.5471C22.9184 56.3459 23.2877 56.0172 23.5387 55.6037C23.813 55.1617 24.0449 54.6947 24.2312 54.2089C24.4549 53.6701 24.6494 53.1157 24.84 52.5633C25.2291 51.4525 25.5773 50.3321 26.0072 49.235C26.3807 48.2623 26.8456 47.3345 27.6276 46.6264C28.3238 45.9876 29.1882 45.5612 30.1187 45.3975C31.0493 45.2338 32.0073 45.3396 32.8797 45.7024C33.7747 46.0783 34.5358 46.7148 35.0642 47.529C35.6478 48.418 35.9124 49.4548 36.1691 50.4682C36.3987 51.3708 36.5835 52.3454 37.1612 53.1021C37.6417 53.7343 38.6649 54.2342 39.3399 53.5767C39.347 53.5705 39.3516 53.5619 39.3528 53.5526C39.3541 53.5432 39.3519 53.5337 39.3467 53.5259C39.3414 53.518 39.3335 53.5123 39.3244 53.5099C39.3153 53.5074 39.3056 53.5084 39.2971 53.5125C38.8147 53.7518 38.2486 53.5884 37.8459 53.2616C37.4751 52.9367 37.1972 52.5192 37.0406 52.0517C36.6418 51.0187 36.4843 49.9119 36.1186 48.8595C35.8193 47.9266 35.2971 47.0807 34.5974 46.3949C33.9255 45.7531 33.1067 45.2856 32.2125 45.0332C31.3051 44.798 30.3522 44.8015 29.4465 45.0435C28.5408 45.2856 27.7132 45.7578 27.044 46.4144C26.3029 47.1594 25.838 48.0989 25.4625 49.0696C25.054 50.1337 24.7233 51.2269 24.3537 52.3065C24.1592 52.8589 23.9647 53.4075 23.7488 53.9541C23.5846 54.425 23.3795 54.8806 23.136 55.3158C22.9116 55.7211 22.5603 56.0416 22.1362 56.2281C21.9386 56.3155 21.7213 56.3488 21.5066 56.3245C21.292 56.3003 21.0876 56.2193 20.9146 56.09C20.8251 56.0219 20.7181 56.1483 20.7842 56.2223Z" fill="#263238"/>
<path d="M39.5698 50.6044C39.5844 50.3517 39.5844 50.0984 39.5698 49.8457C39.3676 47.7603 38.478 45.8012 37.041 44.2765C35.71 42.8342 33.9367 41.8761 32.0009 41.5531C30.0987 41.263 28.1534 41.5617 26.4258 42.409C24.7068 43.2578 23.2918 44.6164 22.3739 46.2995C21.4298 47.9587 21.0037 49.8624 21.1503 51.7657C21.1503 51.8065 21.2165 51.7987 21.2184 51.7657C21.3416 49.7117 22.0082 47.7273 23.1501 46.0155C24.1657 44.5217 25.5947 43.3563 27.2623 42.6619C28.9263 41.9793 30.7601 41.8258 32.5144 42.2223C34.3215 42.671 35.931 43.701 37.0955 45.1538C37.7103 45.9242 38.206 46.7825 38.5661 47.7001C38.9219 48.6495 39.2035 49.625 39.4084 50.618C39.4376 50.6919 39.564 50.6919 39.5698 50.6044Z" fill="#263238"/>
<path d="M36.5994 57.6213C36.8133 57.3062 37.2724 57.5844 37.5097 57.7166C37.8657 57.9112 38.2489 58.1777 38.6769 58.1057C38.6838 58.1034 38.6914 58.1039 38.698 58.1072C38.7046 58.1105 38.7096 58.1162 38.7119 58.1232C38.7142 58.1301 38.7137 58.1378 38.7104 58.1443C38.7071 58.1509 38.7013 58.1559 38.6944 58.1582C38.5556 58.2268 38.4031 58.2635 38.2483 58.2655C38.0935 58.2676 37.9401 58.2349 37.7996 58.1699C37.6481 58.1077 37.5001 58.0376 37.356 57.9598C37.2197 57.8809 37.0739 57.8195 36.9223 57.7769C36.8945 57.7731 36.8664 57.7731 36.8386 57.7769C36.8094 57.7769 36.8172 57.7769 36.8133 57.7867C36.7861 57.8372 36.8289 57.9442 36.8444 57.9948C36.8805 58.1263 36.9307 58.2535 36.9942 58.3741C37.1293 58.6223 37.3004 58.8491 37.5019 59.0472C37.6153 59.1631 37.7355 59.2723 37.8618 59.374C37.9902 59.4771 38.1419 59.5549 38.2645 59.6638C38.2745 59.6692 38.282 59.6784 38.2853 59.6894C38.2886 59.7003 38.2874 59.7121 38.282 59.7222C38.2766 59.7322 38.2674 59.7397 38.2564 59.743C38.2455 59.7463 38.2337 59.7451 38.2236 59.7397C38.0756 59.6937 37.9343 59.6283 37.8035 59.5452C37.6666 59.465 37.5365 59.3739 37.4144 59.2728C37.1676 59.0696 36.9599 58.8231 36.8017 58.5453C36.7222 58.407 36.657 58.261 36.6071 58.1096C36.5676 58.0345 36.5463 57.9512 36.545 57.8664C36.5436 57.7815 36.5623 57.6976 36.5994 57.6213Z" fill="#263238"/>
<path d="M37.2509 58.2266C37.4829 58.3329 37.6994 58.4704 37.8944 58.6351C37.9812 58.7077 38.0706 58.7758 38.1626 58.8393C38.2074 58.8704 38.256 58.8996 38.3026 58.9269C38.3504 58.9514 38.3998 58.9728 38.4504 58.991C38.46 58.9939 38.4684 58.9998 38.4744 59.0079C38.4804 59.0159 38.4837 59.0257 38.4837 59.0358C38.4837 59.0458 38.4804 59.0556 38.4744 59.0637C38.4684 59.0717 38.46 59.0777 38.4504 59.0805C38.219 59.1369 37.976 58.9852 37.8011 58.8529C37.5804 58.6927 37.384 58.5014 37.2179 58.2849C37.1907 58.2655 37.214 58.2266 37.2509 58.2266Z" fill="#263238"/>
<path d="M22.0456 58.9396C22.0447 58.9441 22.0447 58.9487 22.0456 58.9532C22.047 58.9691 22.0534 58.9841 22.0639 58.996C22.0744 59.0079 22.0884 59.0161 22.104 59.0194C22.1613 59.0341 22.22 59.0432 22.2791 59.0466C22.4847 59.0499 22.6897 59.0237 22.8879 58.9688C23.1654 58.903 23.4353 58.8085 23.6933 58.6867C24.1974 58.4429 24.6639 58.1278 25.0783 57.7511C26.4886 56.5178 27.4806 54.7612 28.0273 52.5262C28.0623 52.3783 28.0992 52.2285 28.1342 52.0807C28.3288 51.2734 28.5233 50.4409 28.9707 49.7464C29.2059 49.3793 29.5262 49.0744 29.9044 48.8574C30.2984 48.6598 30.7363 48.566 31.1766 48.5851C31.1993 48.5841 31.221 48.5756 31.2383 48.561C31.2557 48.5464 31.2678 48.5264 31.2726 48.5043C31.2775 48.4821 31.2749 48.4589 31.2653 48.4384C31.2557 48.4178 31.2395 48.401 31.2194 48.3906C30.7156 48.1435 30.0892 48.377 29.8441 48.4878C29.4095 48.6942 29.0286 48.9985 28.7314 49.3768C28.1479 50.0985 27.93 51.0244 27.7199 51.9192L27.6654 52.1429C27.441 53.1539 27.0941 54.1338 26.6325 55.0608C26.1579 55.9707 25.5219 56.7867 24.7554 57.469C24.3843 57.8095 23.9711 58.1011 23.526 58.3366C23.2973 58.4514 23.0607 58.5496 22.8179 58.6303C22.7362 58.6576 22.6525 58.679 22.5689 58.7023C22.4045 58.7408 22.2447 58.7969 22.0923 58.8696C22.0789 58.8759 22.0675 58.8858 22.0593 58.8981C22.051 58.9105 22.0463 58.9248 22.0456 58.9396Z" fill="#263238"/>
<path d="M26.9261 57.8365C26.925 57.8515 26.928 57.8665 26.9349 57.8799C26.9417 57.8933 26.9522 57.9045 26.965 57.9123C26.9764 57.9206 26.9899 57.9253 27.0039 57.9259C27.0181 57.9266 27.0322 57.9235 27.0448 57.917C27.0574 57.9105 27.0681 57.9009 27.0759 57.889C27.2464 57.6785 27.471 57.5185 27.7256 57.426C27.9551 57.319 28.1944 57.2315 28.4259 57.1362L28.5309 57.0934C29.167 56.8444 29.6845 56.6226 30.1591 56.395C32.2638 55.3855 33.5185 54.0782 33.894 52.5045C34.1071 51.6653 34.0018 50.7769 33.5983 50.0107C33.4151 49.6461 33.1579 49.3237 32.843 49.0641C32.5282 48.8045 32.1626 48.6135 31.7698 48.5032C31.7465 48.4972 31.7219 48.4997 31.7004 48.5105C31.679 48.5212 31.6621 48.5393 31.653 48.5615C31.6438 48.5818 31.6424 48.6049 31.6493 48.6261C31.6561 48.6473 31.6706 48.6652 31.69 48.6763C32.4439 49.113 33.0331 49.7856 33.3668 50.5904C33.7928 51.7187 33.5866 53.5628 31.5986 55.0548C30.8552 55.5798 30.0544 56.0183 29.2118 56.362C28.7916 56.5468 28.3169 56.751 27.8618 56.9981C27.6733 57.0927 27.4936 57.2041 27.3249 57.3307C27.1698 57.4617 27.0382 57.6183 26.9358 57.7937C26.9281 57.8065 26.9247 57.8215 26.9261 57.8365Z" fill="#263238"/>
<path d="M21.4226 59.3319C21.7085 59.5037 22.0328 59.6013 22.3661 59.6159C22.9761 59.6251 23.5786 59.4792 24.1168 59.1918C24.9174 58.7685 25.6435 58.2172 26.2663 57.5597C26.3266 57.4975 26.383 57.4333 26.4413 57.3652L26.4939 57.3088C26.5078 57.3022 26.5204 57.2929 26.5308 57.2816C27.023 56.7914 27.698 56.519 28.3457 56.2545C28.5714 56.1631 28.8068 56.06 29.0266 55.9666C30.114 55.4608 30.8551 54.9589 31.427 54.3365C32.0069 53.7355 32.3727 52.9603 32.4677 52.1306C32.5358 51.4108 32.3666 50.4071 31.6721 49.9402C30.9777 49.4734 30.0984 49.806 29.5829 50.3682C28.9838 51.0237 28.6784 51.9497 28.4313 52.7025L28.3457 52.9651C28.121 53.7174 27.8334 54.4494 27.4859 55.1535C27.1018 55.8809 26.6208 56.5529 26.0562 57.1512C25.4946 57.7462 24.8546 58.2619 24.1537 58.6841C23.2317 59.2346 22.333 59.4019 21.4868 59.1879H21.4713C21.4536 59.1872 21.4362 59.1919 21.4213 59.2012C21.4064 59.2106 21.3946 59.2243 21.3876 59.2404C21.3821 59.2574 21.3826 59.2757 21.3889 59.2923C21.3953 59.309 21.4072 59.3229 21.4226 59.3319ZM27.3167 56.2778C27.4568 56.0833 27.5793 55.8888 27.6882 55.6943C28.0944 54.9726 28.4205 54.2088 28.6609 53.4164C28.7017 53.2899 28.7406 53.1635 28.7834 53.0273C29.0071 52.3193 29.2386 51.5859 29.6491 50.9673C29.8455 50.6369 30.1399 50.3759 30.4913 50.2203C30.6515 50.1573 30.8232 50.1288 30.9952 50.1367C31.2005 50.1444 31.3964 50.2251 31.5476 50.3643C32.1312 50.909 32.1681 51.9069 31.9367 52.6538C31.6731 53.404 31.1915 54.0583 30.5536 54.5329C29.8319 55.1068 28.9779 55.49 28.2193 55.8285L28.1473 55.8596C27.8769 56.0016 27.5871 56.1319 27.3167 56.2778Z" fill="#263238"/>
<path d="M28.5827 54.979C28.5781 54.9962 28.5785 55.0144 28.5841 55.0313C28.5896 55.0482 28.5999 55.0632 28.6139 55.0743C28.6282 55.0861 28.6459 55.0929 28.6644 55.0938C28.6768 55.0945 28.6892 55.0925 28.7006 55.0878C28.7121 55.083 28.7223 55.0758 28.7306 55.0665C28.7734 55.0237 29.0885 54.7981 29.2402 54.695C29.2889 54.6619 29.3394 54.6308 29.3881 54.5958C29.4912 54.5277 29.5981 54.4577 29.6993 54.3799C30.0026 54.1502 30.2875 53.8972 30.5513 53.6232C31.061 53.0882 31.3002 52.5533 31.2574 52.03C31.2567 51.9009 31.2199 51.7745 31.1512 51.6652C31.0824 51.5559 30.9845 51.468 30.8684 51.4114C30.7272 51.3641 30.5745 51.3629 30.4325 51.408C30.2906 51.4531 30.1666 51.5422 30.0786 51.6623C29.9017 51.8982 29.7637 52.1609 29.6701 52.4404C29.5806 52.6661 29.5009 52.9015 29.4211 53.1271L29.3569 53.31C29.1381 53.8544 28.8827 54.3834 28.5925 54.8934C28.5832 54.9054 28.5774 54.9198 28.5757 54.9348C28.574 54.9499 28.5764 54.9652 28.5827 54.979ZM29.5768 53.6329C29.7603 53.1533 29.9761 52.6867 30.2226 52.2362L30.2342 52.2167C30.3004 52.1 30.4579 51.8277 30.6097 51.7966H30.6427C30.6748 51.7993 30.7052 51.8115 30.7303 51.8316C30.8626 51.9347 30.8431 52.2206 30.7809 52.4366C30.6369 52.954 30.1973 53.3722 29.8549 53.7087L29.5826 53.9694C29.4892 54.0569 29.3978 54.1464 29.3064 54.2359C29.4231 54.02 29.5067 53.808 29.5768 53.6329Z" fill="#263238"/>
<path d="M29.813 63.7633C29.4769 64.4307 29.1757 65.115 28.9104 65.8136C28.9097 65.8181 28.9105 65.8227 28.9127 65.8267C28.9149 65.8308 28.9183 65.834 28.9224 65.8359C28.9265 65.8379 28.9312 65.8385 28.9357 65.8376C28.9402 65.8367 28.9442 65.8344 28.9473 65.8311C29.3267 65.2669 29.6418 64.6639 29.9978 64.0803C30.2312 63.7049 30.6533 62.8276 31.2233 62.9696C31.4625 63.028 31.6337 63.2925 31.766 63.4812C31.9394 63.7422 32.1278 63.9929 32.3301 64.2321C32.6414 64.5861 33.2249 65.0491 33.7346 64.9246C33.7579 64.9246 33.7715 64.8818 33.7482 64.8701C33.612 64.7981 33.4681 64.7534 33.3339 64.6756C33.1859 64.5921 33.0487 64.4909 32.9254 64.3741C32.6873 64.1312 32.4772 63.8623 32.299 63.5726C32.0072 63.1213 31.6668 62.5261 31.0326 62.6C30.4452 62.6681 30.0445 63.2847 29.813 63.7633Z" fill="#263238"/>
<path d="M21.3958 59.8359C22.0124 60.6471 23.1154 60.5032 23.9129 60.0713C24.3725 59.8042 24.8063 59.4949 25.2085 59.1473C25.634 58.7885 26.0895 58.467 26.5702 58.1864C26.5761 58.1846 26.5811 58.1805 26.584 58.175C26.5869 58.1695 26.5875 58.1631 26.5857 58.1572C26.5839 58.1513 26.5798 58.1463 26.5743 58.1434C26.5689 58.1405 26.5625 58.1398 26.5565 58.1416C25.5703 58.2992 24.8583 59.1143 24.055 59.6278C23.3002 60.1141 22.205 60.4059 21.4269 59.7912C21.4075 59.7679 21.3764 59.8107 21.3958 59.8359Z" fill="#263238"/>
<path d="M37.4556 61.3735C37.5178 61.3735 37.5431 61.2802 37.4789 61.2646C36.4829 61.0175 35.6971 60.2706 35.2147 59.3816C34.7783 58.5713 34.5266 57.6745 34.4774 56.7555C34.4324 56.0644 34.5345 55.3715 34.777 54.7227C34.841 54.5063 34.9527 54.3069 35.1038 54.1392C35.138 54.0958 35.1811 54.0601 35.2302 54.0347C35.2793 54.0092 35.3333 53.9946 35.3885 53.9916C35.4437 53.9887 35.499 53.9975 35.5505 54.0176C35.602 54.0377 35.6487 54.0685 35.6873 54.108C35.7938 54.2559 35.8893 54.4113 35.9733 54.573C36.2023 54.9163 36.5071 55.2025 36.8642 55.4094C37.2196 55.6161 37.6205 55.7317 38.0314 55.7459C38.4676 55.7572 38.8982 55.646 39.2744 55.425C39.2997 55.4094 39.288 55.3608 39.2569 55.3705C38.7384 55.5288 38.1847 55.5302 37.6655 55.3744C37.1462 55.2186 36.6847 54.9127 36.339 54.4951C36.1017 54.1897 35.9733 53.7171 35.5201 53.682C35.0668 53.647 34.7517 54.0088 34.5727 54.3843C34.1743 55.284 34.0433 56.2794 34.1953 57.2516C34.4346 58.9653 35.4656 61.2821 37.4556 61.3735Z" fill="#263238"/>
<path d="M30.2576 65.1682C30.1952 65.3455 30.1668 65.5329 30.1739 65.7207C30.1754 65.7263 30.1783 65.7314 30.1825 65.7354C30.1867 65.7394 30.1919 65.7422 30.1976 65.7434C30.2032 65.7446 30.2091 65.7442 30.2145 65.7423C30.22 65.7403 30.2248 65.7369 30.2284 65.7324C30.3187 65.5909 30.3875 65.4369 30.4327 65.2752C30.493 65.1079 30.5552 64.9406 30.6272 64.7772C30.6981 64.613 30.7813 64.4543 30.8762 64.3026C30.9074 64.2358 30.9494 64.1747 31.0007 64.1217L31.0143 64.112L31.0454 64.1431C31.0746 64.171 31.1019 64.2009 31.1271 64.2326C31.3246 64.504 31.5377 64.7638 31.7651 65.0107C31.9597 65.1916 32.269 65.3881 32.5432 65.3258C32.547 65.3241 32.5501 65.3214 32.5523 65.3179C32.5545 65.3145 32.5557 65.3105 32.5557 65.3064C32.5557 65.3023 32.5545 65.2982 32.5523 65.2948C32.5501 65.2913 32.547 65.2886 32.5432 65.2869C32.3871 65.2069 32.2425 65.1061 32.1133 64.9873C31.993 64.8626 31.8842 64.7272 31.7885 64.5827C31.6776 64.431 31.5784 64.2695 31.4578 64.1236C31.3372 63.9778 31.203 63.7891 31.0104 63.7891C30.8178 63.7891 30.7264 63.9622 30.6505 64.1003C30.5582 64.2652 30.4801 64.4376 30.4171 64.6158C30.3646 64.7986 30.3062 64.9815 30.2576 65.1682Z" fill="#263238"/>
<path d="M37.9199 60.3217C37.9274 60.324 37.9354 60.3236 37.9426 60.3205C37.9498 60.3174 37.9557 60.3119 37.9592 60.3049C37.9627 60.2979 37.9636 60.2899 37.9618 60.2823C37.9599 60.2746 37.9554 60.2679 37.9491 60.2633C37.71 60.0616 37.4888 59.8396 37.2877 59.6C37.0962 59.3504 36.9183 59.0906 36.7547 58.8219C36.429 58.3592 36.1501 57.8653 35.9221 57.3474C35.8044 57.096 35.7433 56.8217 35.7432 56.544C35.7801 56.155 36.1711 56.439 36.3404 56.5849C36.5286 56.7693 36.7302 56.9396 36.9434 57.0945C37.367 57.3671 37.8697 57.4897 38.3712 57.4427C38.6124 57.3998 38.8446 57.3162 39.0579 57.1957C39.1065 57.1743 39.0715 57.1082 39.0229 57.1237C38.8321 57.1705 38.6354 57.1888 38.4393 57.1782C38.278 57.1812 38.1166 57.1714 37.9569 57.149C37.6246 57.0971 37.3085 56.9701 37.0329 56.7775C36.7022 56.5421 36.0953 55.7523 35.6323 56.1336C35.2316 56.4623 35.5409 57.2268 35.7023 57.6003C35.9695 58.1672 36.2955 58.7044 36.6749 59.2032C36.9862 59.6311 37.3986 60.1427 37.9199 60.3217Z" fill="#263238"/>
<path d="M22.637 61.8132C23.0609 61.8975 23.5011 61.8235 23.8742 61.605C23.9539 61.5622 24.0278 61.5136 24.1056 61.465C24.0648 61.5117 24.0259 61.5564 23.9889 61.6031C23.7217 61.9294 23.5542 62.3259 23.5065 62.7449C23.5064 62.7507 23.508 62.7563 23.5113 62.761C23.5145 62.7657 23.5191 62.7693 23.5245 62.7712C23.5299 62.7732 23.5357 62.7734 23.5412 62.7718C23.5467 62.7702 23.5516 62.7669 23.5551 62.7624C23.773 62.4298 23.9967 62.0952 24.2457 61.7898C24.4947 61.4844 24.7845 61.1829 25.0238 60.862C25.0331 60.8477 25.038 60.8311 25.038 60.8141C25.038 60.7971 25.0331 60.7805 25.0238 60.7663C25.0145 60.7521 25.0013 60.7408 24.9858 60.734C24.9702 60.7271 24.953 60.725 24.9363 60.7277C24.5239 60.8211 24.2146 61.1168 23.8489 61.3113C23.4619 61.5139 23.0535 61.6725 22.6311 61.784C22.6156 61.784 22.6156 61.8093 22.637 61.8132Z" fill="#263238"/>
<path d="M27.151 63.6336C26.9298 64.0455 26.7349 64.4711 26.5674 64.9077C26.562 64.9183 26.561 64.9306 26.5647 64.9419C26.5683 64.9532 26.5763 64.9626 26.5869 64.968C26.5975 64.9734 26.6098 64.9744 26.6211 64.9708C26.6324 64.9671 26.6418 64.9591 26.6472 64.9485C26.9779 64.5031 27.2444 64.009 27.5517 63.546C27.8591 63.083 28.1645 62.6629 28.4991 62.2408C29.031 61.5536 29.6755 60.9617 30.4054 60.49C30.5925 60.3706 30.7874 60.264 30.989 60.171C31.1967 60.0535 31.4294 59.9868 31.6679 59.9765C32.0997 59.9998 32.3798 60.4142 32.5724 60.7351C33.0373 61.5132 33.4341 62.3341 34.1539 62.9274C34.4691 63.2019 34.8496 63.3908 35.2588 63.476C35.4331 63.5265 35.6188 63.521 35.7898 63.4604C35.8423 63.4274 35.8754 63.3787 35.8229 63.332C35.8054 63.3184 35.7781 63.332 35.7898 63.3593C35.8015 63.3865 35.5389 63.334 35.5272 63.3301L35.3599 63.2834C35.2424 63.2472 35.1285 63.2003 35.0195 63.1434C34.8116 63.0349 34.616 62.9045 34.4359 62.7543C34.0518 62.411 33.7294 62.0044 33.4828 61.5521C33.2591 61.1728 33.0606 60.774 32.8117 60.4103C32.6178 60.0819 32.3221 59.8258 31.9694 59.6808C31.5258 59.5369 31.0765 59.6964 30.6758 59.8753C30.2892 60.0503 29.9232 60.2676 29.5845 60.5231C28.8936 61.0471 28.3009 61.6892 27.8338 62.4197C27.5852 62.8121 27.3572 63.2173 27.151 63.6336Z" fill="#263238"/>
<path d="M28.2655 64.5013C28.1288 64.8262 28.0321 65.1665 27.9776 65.5148C27.9771 65.5204 27.9786 65.5261 27.9817 65.5309C27.9848 65.5356 27.9894 65.5392 27.9948 65.541C28.0002 65.5428 28.0061 65.5427 28.0114 65.5408C28.0168 65.5388 28.0213 65.5352 28.0243 65.5303C28.2188 65.1918 28.355 64.8164 28.5573 64.4779C28.7596 64.1395 28.9464 63.8049 29.1409 63.48C29.5048 62.8965 29.9265 62.3511 30.3995 61.8519C30.6232 61.6243 30.8858 61.4297 31.2126 61.4628C31.5191 61.5249 31.7943 61.6921 31.9907 61.9355C32.4303 62.4277 32.6326 63.1027 33.0858 63.5851C33.2867 63.8053 33.5374 63.9743 33.8169 64.0779C34.0965 64.1814 34.3967 64.2165 34.6926 64.1803C34.7121 64.1803 34.7179 64.1395 34.6926 64.1336C34.3117 64.0425 33.9549 63.8707 33.6461 63.6298C33.3451 63.3715 33.0973 63.057 32.9166 62.7039C32.582 62.1203 32.2572 61.4862 31.625 61.1944C31.3477 61.0612 31.0294 61.0416 30.7379 61.1399C30.4342 61.2723 30.1671 61.4766 29.9598 61.7351C29.4657 62.2709 29.0403 62.8662 28.6935 63.5073C28.5274 63.828 28.3844 64.1602 28.2655 64.5013Z" fill="#263238"/>
<path d="M25.4511 64.1685C25.4464 64.184 25.4476 64.2007 25.4544 64.2154C25.4612 64.2301 25.4732 64.2418 25.488 64.2482H25.5133C25.5244 64.2483 25.5353 64.2457 25.5451 64.2406C25.555 64.2355 25.5634 64.2281 25.5697 64.219C25.864 63.7587 26.1828 63.3146 26.5248 62.8885C26.8842 62.4515 27.268 62.0352 27.6745 61.6416C28.348 60.9536 29.0674 60.3122 29.8279 59.7216C30.2031 59.4358 30.6105 59.1949 31.0417 59.0038C31.4521 58.8249 32.0143 58.5817 32.4034 58.928C32.6292 59.1623 32.8081 59.4376 32.9305 59.7391C32.985 59.852 33.0394 59.9609 33.0959 60.064C33.3323 60.5034 33.6105 60.919 33.9265 61.3051C34.2333 61.6817 34.6008 62.0045 35.0139 62.2602C35.4088 62.509 35.8593 62.656 36.325 62.6881C36.3409 62.6898 36.3568 62.6853 36.3695 62.6755C36.3822 62.6657 36.3906 62.6514 36.393 62.6356C36.3973 62.6204 36.3954 62.6041 36.3877 62.5903C36.3801 62.5765 36.3673 62.5662 36.3522 62.5617C35.0586 62.1085 34.228 61.1183 33.7611 60.3675C33.6308 60.1574 33.5121 59.9298 33.4013 59.7119C33.2904 59.4941 33.1756 59.2742 33.0433 59.0641C32.7613 58.607 32.3995 58.3736 31.9754 58.36C31.4657 58.3464 30.9366 58.5681 30.534 58.7587C30.0915 58.9724 29.6735 59.2333 29.2871 59.5368C28.5055 60.1724 27.7763 60.8698 27.1065 61.6221C26.412 62.3711 25.7273 63.1997 25.4511 64.1685Z" fill="#263238"/>
<path d="M37.5938 60.9664C37.658 60.9976 37.6969 60.9022 37.6483 60.8633C36.9968 60.3679 36.435 59.7646 35.987 59.0796C35.6202 58.4828 35.3669 57.8233 35.2401 57.1343C35.1729 56.7816 35.1384 56.4235 35.137 56.0644C35.137 55.8018 35.0689 55.1385 35.4541 55.1365C35.8392 55.1346 36.0512 55.5976 36.2749 55.8193C36.5305 56.0787 36.8319 56.2884 37.1639 56.4379C37.4932 56.5922 37.8597 56.649 38.2202 56.6018C38.5807 56.5546 38.9202 56.4053 39.1986 56.1714C39.2031 56.1678 39.206 56.1626 39.2069 56.1569C39.2078 56.1513 39.2065 56.1455 39.2034 56.1406C39.2003 56.1358 39.1955 56.1323 39.1899 56.1308C39.1844 56.1293 39.1785 56.1299 39.1734 56.1325C38.3174 56.6091 37.195 56.2376 36.5337 55.5995C36.2652 55.3427 36.0473 54.9712 35.6661 54.8681C35.589 54.838 35.5063 54.8246 35.4237 54.8289C35.341 54.8332 35.2602 54.855 35.1866 54.8929C35.113 54.9308 35.0483 54.9839 34.9968 55.0487C34.9454 55.1135 34.9082 55.1886 34.888 55.2688C34.8105 55.6271 34.7882 55.9951 34.8218 56.3601C34.8395 56.73 34.8956 57.097 34.9891 57.4553C35.3723 58.8792 36.2555 60.2895 37.5938 60.9664Z" fill="#263238"/>
<path d="M24.9025 62.7928C24.7469 63.0614 24.6309 63.351 24.5582 63.6526C24.5506 63.6884 24.5555 63.7257 24.5722 63.7583C24.5888 63.7909 24.6161 63.8168 24.6496 63.8316C24.6641 63.8365 24.6791 63.8398 24.6943 63.8413C24.7183 63.8424 24.7422 63.837 24.7634 63.8257C24.7846 63.8144 24.8024 63.7977 24.8149 63.7771C24.9297 63.6001 25.0386 63.4192 25.1476 63.2402C25.3795 62.8379 25.6395 62.4525 25.9257 62.0867C26.3519 61.5715 26.8147 61.0879 27.3107 60.6395C28.3126 59.8023 29.3615 59.0229 30.4522 58.3052C32.0084 57.2703 33.0764 56.7237 33.3215 56.8365C33.4888 56.9143 33.4966 57.1925 33.5043 57.4201C33.5044 57.485 33.5076 57.55 33.5141 57.6146C33.554 57.9332 33.6111 58.2495 33.6852 58.5619C33.8157 59.1606 34.041 59.7345 34.3525 60.2621C34.6388 60.7421 35.0273 61.1532 35.4904 61.4662C35.7433 61.6315 36.3989 62.0031 37.0019 61.8883C37.0176 61.8822 37.0312 61.8716 37.041 61.8579C37.0509 61.8442 37.0566 61.8279 37.0574 61.8111C37.0582 61.7942 37.0541 61.7775 37.0457 61.7629C37.0372 61.7483 37.0247 61.7365 37.0097 61.7288C36.9105 61.6899 36.8151 61.6549 36.7159 61.6199C36.5074 61.549 36.3039 61.4639 36.1071 61.365C35.8228 61.2116 35.561 61.0198 35.329 60.7951C34.8573 60.3201 34.5024 59.7421 34.2922 59.1066C34.0962 58.4872 33.9658 57.8489 33.9031 57.2022C33.9014 57.0644 33.8685 56.9287 33.8069 56.8054C33.7452 56.6821 33.6564 56.5743 33.5471 56.4903C33.3176 56.3405 32.9227 56.4436 32.7282 56.5272C31.6116 57.0057 28.0246 59.2972 26.5948 60.6239C26.1501 61.0466 25.7493 61.5132 25.3985 62.0167C25.2189 62.266 25.0533 62.5252 24.9025 62.7928Z" fill="#263238"/>
<path d="M22.0624 60.9605C22.8113 61.2854 23.6984 60.9605 24.3811 60.6221C25.0639 60.2836 25.6261 59.8265 26.2661 59.4549C26.4314 59.3615 26.5968 59.274 26.7679 59.1943C26.8535 59.1554 26.9411 59.1184 27.0286 59.0853C27.0733 59.0678 27.1259 59.0347 27.1726 59.0503C27.2192 59.0659 27.229 59.0503 27.192 59.0873C27.155 59.1242 27.1687 59.1203 27.155 59.1359C26.9333 59.4121 26.5851 59.6105 26.3186 59.8401C25.7735 60.3008 25.278 60.8171 24.8402 61.3807C24.4278 61.9156 23.9979 62.5303 23.8676 63.2053C23.8676 63.2384 23.9065 63.2501 23.924 63.2267C24.1866 62.8688 24.4064 62.4798 24.6671 62.1199C24.9231 61.769 25.206 61.4386 25.5133 61.1317C25.7875 60.8555 26.0735 60.589 26.3633 60.3303C26.6532 60.0716 26.9586 59.8498 27.2192 59.5755C27.4001 59.381 27.7231 58.9919 27.369 58.7974C27.0831 58.6418 26.659 58.9083 26.4061 59.0347C25.6903 59.3927 25.0445 59.877 24.3481 60.2622C23.9897 60.4643 23.6092 60.6243 23.214 60.7388C22.8371 60.8352 22.4511 60.8913 22.0624 60.9061C22.0313 60.908 22.0313 60.9489 22.0624 60.9605Z" fill="#263238"/>
<path d="M30.9951 64.7558C30.9947 64.7486 30.9947 64.7415 30.9951 64.7344C30.9974 64.7276 31.0013 64.7215 31.0064 64.7165C31.0114 64.7115 31.0176 64.7078 31.0243 64.7055C31.0311 64.7033 31.0383 64.7026 31.0453 64.7035C31.0524 64.7045 31.0591 64.707 31.065 64.711L31.0806 64.7207C31.1486 64.746 31.1933 64.8452 31.2186 64.9036C31.2439 64.962 31.2828 65.0495 31.3158 65.1195C31.38 65.2596 31.4363 65.4035 31.5102 65.5416C31.5142 65.5476 31.5158 65.5549 31.5147 65.562C31.5137 65.5692 31.51 65.5756 31.5045 65.5802C31.4989 65.5848 31.4919 65.5872 31.4847 65.5869C31.4775 65.5866 31.4706 65.5836 31.4655 65.5786C31.3277 65.4848 31.2101 65.3645 31.1195 65.2246C31.0788 65.1565 31.0431 65.0857 31.0126 65.0125C30.9935 64.9665 30.981 64.9181 30.9756 64.8686C30.9699 64.8299 30.9767 64.7903 30.9951 64.7558Z" fill="#263238"/>
<path d="M15.7584 43.7653H15.1748V36.9453H21.9948V37.5289H15.7584V43.7653Z" fill="#7B55D3"/>
<path d="M45.1589 66.9294H38.3389V66.3458H44.5753V60.1094H45.1589V66.9294Z" fill="#7B55D3"/>
<path d="M21.9948 66.9294H15.1748V60.1094H15.7584V66.3458H21.9948V66.9294Z" fill="#7B55D3"/>
<path d="M45.1589 43.7653H44.5753V37.5289H38.3389V36.9453H45.1589V43.7653Z" fill="#7B55D3"/>
<path d="M46.6599 68.4294H46.1992V68.2836H46.5141V67.9688H46.6599V68.4294Z" fill="#7B55D3"/>
<path d="M45.4171 68.435H44.639V68.2891H45.4171V68.435ZM43.8609 68.435H43.0828V68.2891H43.8609V68.435ZM42.3047 68.435H41.5266V68.2891H42.3047V68.435ZM40.7485 68.435H39.9704V68.2891H40.7485V68.435ZM39.1923 68.435H38.4142V68.2891H39.1923V68.435ZM37.6361 68.435H36.858V68.2891H37.6361V68.435ZM36.0799 68.435H35.3018V68.2891H36.0799V68.435ZM34.5237 68.435H33.7456V68.2891H34.5237V68.435ZM32.9675 68.435H32.1894V68.2891H32.9675V68.435ZM31.4113 68.435H30.6332V68.2891H31.4113V68.435ZM29.8551 68.435H29.077V68.2891H29.8551V68.435ZM28.2989 68.435H27.5208V68.2891H28.2989V68.435ZM26.7427 68.435H25.9646V68.2891H26.7427V68.435ZM25.1866 68.435H24.4085V68.2891H25.1866V68.435ZM23.6304 68.435H22.8523V68.2891H23.6304V68.435ZM22.0742 68.435H21.2961V68.2891H22.0742V68.435ZM20.518 68.435H19.7399V68.2891H20.518V68.435ZM18.9618 68.435H18.1837V68.2891H18.9618V68.435ZM17.4056 68.435H16.6275V68.2891H17.4056V68.435ZM15.8494 68.435H15.0713V68.2891H15.8494V68.435Z" fill="#7B55D3"/>
<path d="M14.1335 68.4294H13.6729V67.9688H13.8186V68.2836H14.1335V68.4294Z" fill="#7B55D3"/>
<path d="M13.8186 67.1914H13.667V66.4133H13.8128L13.8186 67.1914ZM13.8186 65.6352H13.667V64.8571H13.8128L13.8186 65.6352ZM13.8186 64.079H13.667V63.3009H13.8128L13.8186 64.079ZM13.8186 62.5229H13.667V61.7448H13.8128L13.8186 62.5229ZM13.8186 60.9667H13.667V60.1886H13.8128L13.8186 60.9667ZM13.8186 59.4105H13.667V58.6324H13.8128L13.8186 59.4105ZM13.8186 57.8543H13.667V57.0762H13.8128L13.8186 57.8543ZM13.8186 56.2981H13.667V55.52H13.8128L13.8186 56.2981ZM13.8186 54.7419H13.667V53.9638H13.8128L13.8186 54.7419ZM13.8186 53.1857H13.667V52.4076H13.8128L13.8186 53.1857ZM13.8186 51.6295H13.667V50.8514H13.8128L13.8186 51.6295ZM13.8186 50.0733H13.667V49.2952H13.8128L13.8186 50.0733ZM13.8186 48.5171H13.667V47.739H13.8128L13.8186 48.5171ZM13.8186 46.9609H13.667V46.1828H13.8128L13.8186 46.9609ZM13.8186 45.4047H13.667V44.6266H13.8128L13.8186 45.4047ZM13.8186 43.8388H13.667V43.0607H13.8128L13.8186 43.8388ZM13.8186 42.2826H13.667V41.5045H13.8128L13.8186 42.2826ZM13.8186 40.7264H13.667V39.9483H13.8128L13.8186 40.7264ZM13.8186 39.1702H13.667V38.3921H13.8128L13.8186 39.1702ZM13.8186 37.614H13.667V36.8359H13.8128L13.8186 37.614Z" fill="#7B55D3"/>
<path d="M13.8186 35.9059H13.6729V35.4453H14.1335V35.5911H13.8186V35.9059Z" fill="#7B55D3"/>
<path d="M45.4171 35.5912H44.639V35.4453H45.4171V35.5912ZM43.8609 35.5912H43.0828V35.4453H43.8609V35.5912ZM42.3047 35.5912H41.5266V35.4453H42.3047V35.5912ZM40.7485 35.5912H39.9704V35.4453H40.7485V35.5912ZM39.1923 35.5912H38.4142V35.4453H39.1923V35.5912ZM37.6361 35.5912H36.858V35.4453H37.6361V35.5912ZM36.0799 35.5912H35.3018V35.4453H36.0799V35.5912ZM34.5237 35.5912H33.7456V35.4453H34.5237V35.5912ZM32.9675 35.5912H32.1894V35.4453H32.9675V35.5912ZM31.4113 35.5912H30.6332V35.4453H31.4113V35.5912ZM29.8551 35.5912H29.077V35.4453H29.8551V35.5912ZM28.2989 35.5912H27.5208V35.4453H28.2989V35.5912ZM26.7427 35.5912H25.9646V35.4453H26.7427V35.5912ZM25.1866 35.5912H24.4085V35.4453H25.1866V35.5912ZM23.6304 35.5912H22.8523V35.4453H23.6304V35.5912ZM22.0742 35.5912H21.2961V35.4453H22.0742V35.5912ZM20.518 35.5912H19.7399V35.4453H20.518V35.5912ZM18.9618 35.5912H18.1837V35.4453H18.9618V35.5912ZM17.4056 35.5912H16.6275V35.4453H17.4056V35.5912ZM15.8494 35.5912H15.0713V35.4453H15.8494V35.5912Z" fill="#7B55D3"/>
<path d="M46.6599 35.9059H46.5141V35.5911H46.1992V35.4453H46.6599V35.9059Z" fill="#7B55D3"/>
<path d="M46.6604 67.1914H46.5146V66.4133H46.6604V67.1914ZM46.6604 65.6352H46.5146V64.8571H46.6604V65.6352ZM46.6604 64.079H46.5146V63.3009H46.6604V64.079ZM46.6604 62.5229H46.5146V61.7448H46.6604V62.5229ZM46.6604 60.9667H46.5146V60.1886H46.6604V60.9667ZM46.6604 59.4105H46.5146V58.6324H46.6604V59.4105ZM46.6604 57.8543H46.5146V57.0762H46.6604V57.8543ZM46.6604 56.2981H46.5146V55.52H46.6604V56.2981ZM46.6604 54.7419H46.5146V53.9638H46.6604V54.7419ZM46.6604 53.1857H46.5146V52.4076H46.6604V53.1857ZM46.6604 51.6295H46.5146V50.8514H46.6604V51.6295ZM46.6604 50.0733H46.5146V49.2952H46.6604V50.0733ZM46.6604 48.5171H46.5146V47.739H46.6604V48.5171ZM46.6604 46.9609H46.5146V46.1828H46.6604V46.9609ZM46.6604 45.4047H46.5146V44.6266H46.6604V45.4047ZM46.6604 43.8388H46.5146V43.0607H46.6604V43.8388ZM46.6604 42.2826H46.5146V41.5045H46.6604V42.2826ZM46.6604 40.7264H46.5146V39.9483H46.6604V40.7264ZM46.6604 39.1702H46.5146V38.3921H46.6604V39.1702ZM46.6604 37.614H46.5146V36.8359H46.6604V37.614Z" fill="#7B55D3"/>
<path d="M56.1455 90.9155H74.1079C74.2557 90.3319 74.3977 89.7678 74.5417 89.2075C74.7051 88.5591 74.8652 87.9308 75.0221 87.3226C75.0552 87.1864 75.0922 87.0503 75.1272 86.916C75.2458 86.4472 75.3606 85.9901 75.4754 85.5544C75.5435 85.282 75.6115 85.0155 75.6699 84.7529C75.7283 84.4903 75.8061 84.2199 75.8644 83.9632C75.8819 83.8951 75.8994 83.8251 75.917 83.7686C75.9345 83.7122 75.9539 83.6189 75.9714 83.5469L76.0395 83.2804C76.0648 83.187 76.0881 83.0956 76.1095 83.0042C76.1562 82.831 76.199 82.6618 76.2399 82.4945C76.3041 82.2494 76.3644 82.0082 76.4247 81.7728C76.4499 81.6717 76.4772 81.5686 76.5025 81.4694C76.5453 81.304 76.5861 81.1445 76.625 80.9889C76.6522 80.8838 76.6775 80.7808 76.7028 80.6815C76.8098 80.2692 76.9071 79.8821 76.9985 79.5144C77.0238 79.4191 77.0452 79.3199 77.0705 79.2343C77.1094 79.0767 77.1483 78.9269 77.1852 78.781C77.2105 78.6896 77.2319 78.6021 77.2533 78.5145C77.3331 78.2053 77.4051 77.931 77.4673 77.6761C77.4848 77.61 77.5004 77.5458 77.5179 77.4816L77.6288 77.042C77.6424 76.9914 77.6541 76.9408 77.6677 76.8942C77.6813 76.8475 77.693 76.795 77.7027 76.7522C77.7124 76.7094 77.7202 76.688 77.726 76.6607C77.7319 76.6335 77.7494 76.5732 77.7591 76.5382C77.762 76.5197 77.7666 76.5014 77.7727 76.4837L77.8136 76.3203H60.3531C60.3531 76.3203 59.7695 78.3064 58.8552 81.5063C58.6607 82.158 58.4662 82.868 58.2503 83.6072C57.6297 85.7217 56.9158 88.2116 56.1455 90.9155Z" fill="#37474F"/>
<path d="M71.167 90.9111H71.6144C72.2797 88.1593 72.9242 85.4029 73.548 82.6419C73.6984 81.9702 73.8469 81.2977 73.9934 80.6247L74.0343 80.4302C74.0354 80.4235 74.034 80.4166 74.0303 80.4108C74.0266 80.4051 74.0208 80.401 74.0143 80.3993C74.0077 80.3976 74.0007 80.3984 73.9947 80.4016C73.9886 80.4048 73.984 80.4101 73.9818 80.4166L73.9643 80.4788C73.7619 81.1998 73.5609 81.9228 73.3612 82.6477C72.6084 85.3905 71.877 88.145 71.167 90.9111Z" fill="#263238"/>
<path d="M60.9121 76.3047L61.6902 80.1679L62.3166 83.3309L63.3942 88.729L63.5051 89.2833L63.6899 90.2054L63.828 90.9037H74.1106C74.2565 90.3202 74.4004 89.7541 74.5424 89.1958C74.7058 88.5474 74.866 87.9191 75.0229 87.3109C75.056 87.1747 75.0929 87.0385 75.1279 86.9043C75.2466 86.4355 75.3614 85.9784 75.4761 85.5426C75.5442 85.2703 75.6123 85.0038 75.6707 84.7412C75.729 84.4786 75.8068 84.2082 75.8652 83.9514C75.8827 83.8834 75.9002 83.8133 75.9177 83.7569C75.9352 83.7005 75.9547 83.6071 75.9722 83.5352L76.0403 83.2687C76.0656 83.1753 76.0889 83.0839 76.1103 82.9924C76.157 82.8193 76.1998 82.6501 76.2406 82.4828C76.3048 82.2377 76.3651 81.9965 76.4254 81.7611C76.4527 81.658 76.4779 81.5568 76.5032 81.4576C76.546 81.2923 76.5869 81.1328 76.6258 80.9772C76.653 80.8721 76.6783 80.769 76.7036 80.6698C76.8106 80.2574 76.9078 79.8703 76.9993 79.5027C77.0246 79.4074 77.046 79.3081 77.0712 79.2226C77.1101 79.065 77.149 78.9152 77.186 78.7693C77.2113 78.6779 77.2327 78.5903 77.2541 78.5028C77.3338 78.1935 77.4058 77.9192 77.4681 77.6644C77.4856 77.5983 77.5011 77.5341 77.5186 77.4699L77.6295 77.0303C77.6431 76.9797 77.6548 76.9291 77.6684 76.8824C77.682 76.8357 77.6937 76.7832 77.7034 76.7404C77.7132 76.6976 77.721 76.6762 77.7268 76.649C77.7326 76.6218 77.7501 76.5615 77.7599 76.5264C77.7628 76.5079 77.7673 76.4897 77.7735 76.472L77.8143 76.3086L60.9121 76.3047Z" fill="#263238"/>
<path d="M60.9102 76.2949C60.9102 76.3921 60.9841 77.4348 61.1514 79.0182C61.2 79.4831 61.2564 79.9908 61.3226 80.5394C61.4257 81.4031 61.5521 82.3543 61.7116 83.36C61.98 85.1107 62.3302 87.0287 62.7854 88.9C62.9468 89.5731 63.1258 90.2403 63.3145 90.8939H85.8793C85.6128 87.4547 85.3696 84.3443 85.1771 81.8933C84.9047 78.4424 84.7335 76.2812 84.7335 76.2812H64.2618L60.9102 76.2949Z" fill="#37474F"/>
<path d="M60.958 78.362C60.9833 79.1693 61.0164 79.9766 61.0689 80.78C61.1234 81.6514 61.2031 82.5209 61.3179 83.3905C61.32 83.4224 61.3239 83.4543 61.3295 83.4858C61.4372 84.3002 61.5591 85.1127 61.6953 85.9232C61.8256 86.6779 61.9209 87.493 62.2555 88.1933C62.3823 88.4632 62.5615 88.7052 62.7826 88.9052C62.9865 89.0905 63.2353 89.2193 63.5043 89.2787C63.5484 89.2898 63.5933 89.2969 63.6386 89.3001C63.6502 89.3001 63.6638 89.3001 63.6775 89.3001C63.669 89.3044 63.662 89.3112 63.6575 89.3195C63.653 89.3279 63.6511 89.3374 63.6522 89.3468C63.6619 89.6172 63.6522 89.8934 63.6852 90.1619C63.6852 90.1735 63.6852 90.1852 63.6852 90.1969C63.7125 90.4303 63.7553 90.6618 63.7981 90.8952H64.1871C64.1871 90.8952 64.1871 90.8952 64.1871 90.8816C64.119 90.6268 64.0626 90.37 63.9926 90.1035C63.9226 89.837 63.837 89.5861 63.7767 89.3254C63.7737 89.3148 63.7667 89.3057 63.7572 89.3001C64.0033 89.3125 64.2472 89.249 64.4559 89.1181C64.6647 88.9873 64.8282 88.7955 64.9244 88.5687C65.0222 88.2229 65.0289 87.8577 64.9438 87.5085L64.7337 86.1216C64.6014 85.2735 64.4322 84.4331 64.2805 83.5928C64.2591 83.4644 64.2357 83.336 64.2124 83.2037C63.9109 81.4861 63.5938 79.7665 63.2145 78.0644C63.2009 77.9944 63.1834 77.9243 63.1678 77.8524C63.1522 77.7804 63.0822 77.8193 63.0861 77.864C63.0978 77.9788 63.1094 78.0936 63.1231 78.2083C63.1892 78.8619 63.267 79.5117 63.3565 80.1536C63.4654 80.9161 63.5413 81.6825 63.6483 82.4451L63.7592 83.2232C63.9342 84.4779 64.1171 85.7325 64.3311 86.9814C64.4322 87.565 64.794 88.6018 63.9576 88.7827C63.7663 88.8251 63.5661 88.7997 63.3915 88.7107C63.0229 88.4915 62.7464 88.1459 62.6134 87.7381C62.3761 87.0728 62.2924 86.3414 62.1699 85.6489C62.0311 84.8851 61.9092 84.1193 61.8042 83.3516C61.668 82.3945 61.528 81.4374 61.3762 80.4823C61.3023 79.9941 61.2245 79.5097 61.1467 79.0195C61.1117 78.7958 61.0747 78.5702 61.0378 78.3445C61.0319 78.2998 60.958 78.3134 60.958 78.362Z" fill="#263238"/>
<path d="M80.9286 84.3623C79.9889 84.353 79.0539 84.2276 78.145 83.9888C77.7248 83.8798 77.3105 83.7456 76.9 83.6114C76.4923 83.4978 76.1105 83.3063 75.7757 83.0473C75.1435 82.5007 74.8478 81.6409 74.5735 80.8783C74.2733 80.0178 74.0297 79.1387 73.8441 78.2464C73.8343 78.2017 73.7701 78.2153 73.7682 78.2581C73.7504 79.2684 73.8815 80.2758 74.1572 81.2479C74.3848 82.0727 74.6902 82.9986 75.3575 83.5822C76.0578 84.1891 77.0109 84.4031 77.9077 84.514C78.9167 84.6317 79.9368 84.618 80.9423 84.4731C80.9495 84.4722 80.9566 84.4699 80.963 84.4663C80.9693 84.4627 80.975 84.4579 80.9795 84.4521C80.984 84.4463 80.9873 84.4397 80.9893 84.4326C80.9912 84.4255 80.9918 84.4182 80.9909 84.4109C80.99 84.4036 80.9877 84.3966 80.9841 84.3902C80.9804 84.3838 80.9756 84.3782 80.9698 84.3737C80.9641 84.3692 80.9574 84.3658 80.9504 84.3639C80.9433 84.3619 80.9359 84.3614 80.9286 84.3623Z" fill="#263238"/>
<path d="M82.4922 78.2664C82.5427 79.5308 82.5959 80.7952 82.6516 82.0596C82.7812 85.0047 82.9231 87.9498 83.0773 90.8949H83.5011C83.3067 87.942 83.1026 84.9924 82.8888 82.046C82.7954 80.7829 82.6995 79.5224 82.6011 78.2644C82.6008 78.25 82.5948 78.2362 82.5844 78.2262C82.574 78.2162 82.5601 78.2107 82.5457 78.2109C82.5312 78.2112 82.5175 78.2172 82.5075 78.2276C82.4974 78.238 82.4919 78.2519 82.4922 78.2664Z" fill="#263238"/>
<path d="M63.4151 50.2855C54.5253 58.2979 46.2834 67.0729 45.6375 71.5509C44.7447 77.7523 48.5554 79.4738 50.2672 79.4894C54.9202 79.5361 63.3762 60.6789 66.3174 53.4796C69.173 46.4884 65.3681 48.525 63.4151 50.2855Z" fill="#FFBF9D"/>
<path d="M49.9971 63.111L59.8828 68.4838C59.8828 68.4838 66.0278 57.1314 67.444 51.8695C68.8601 46.6076 66.7456 46.7554 62.1043 50.8521C57.4629 54.9488 49.9971 63.111 49.9971 63.111Z" fill="#C7C7C7"/>
<path d="M49.9971 63.111L59.8828 68.4838C59.8828 68.4838 66.0278 57.1314 67.444 51.8695C68.8601 46.6076 66.7456 46.7554 62.1043 50.8521C57.4629 54.9488 49.9971 63.111 49.9971 63.111Z" fill="#7B55D3"/>
<path opacity="0.1" d="M67.4436 51.8652C66.0275 57.1291 59.8805 68.4834 59.8805 68.4834L50.8799 63.5892L67.4572 48.0078C68.0097 48.4319 68.033 49.6827 67.4436 51.8652Z" fill="black"/>
<path d="M52.0318 61.5981C55.8426 64.1775 59.5366 65.8524 60.2777 66.2784C60.3127 66.2998 60.3419 66.2414 60.3049 66.222C59.556 65.8426 55.5002 63.3177 52.061 61.5359C52.0221 61.5145 51.989 61.5728 52.0318 61.5981Z" fill="#263238"/>
<path d="M57.6537 83.3062L86.6009 83.3899C86.6009 83.3899 84.0721 61.6032 73.4471 48.7432C70.9884 45.765 67.0279 47.3815 65.3569 48.9649C61.1163 52.978 57.572 83.2012 57.6537 83.3062Z" fill="#7B55D3"/>
<path d="M67.6107 47.5547C68.3051 48.0624 68.9724 48.6226 69.6396 49.142L71.5848 50.6496C72.1684 51.1067 72.752 51.6222 73.4153 51.9821C74.0125 52.3089 74.7069 52.4548 75.3469 52.163C75.5034 52.0904 75.6504 51.9989 75.7846 51.8906L75.8507 51.9937C75.5248 52.2648 75.122 52.4267 74.6992 52.4567C74.0592 52.4937 73.462 52.2019 72.9484 51.8517C72.2987 51.4121 71.6937 50.9044 71.0732 50.4239C69.8691 49.4921 68.6806 48.5195 67.4434 47.6286C67.492 47.6033 67.5504 47.578 67.6107 47.5547ZM79.1557 64.8849C80.18 64.8787 81.2025 64.9692 82.2097 65.1552C82.1864 65.0872 82.1611 65.0171 82.1339 64.949C81.2488 64.787 80.3512 64.7031 79.4514 64.6981C76.8311 64.6495 73.3258 64.8129 71.7424 62.2452C71.118 61.2336 70.9157 59.8895 71.6023 58.8527C72.2073 57.9384 73.3375 57.5435 74.3976 57.5532C74.9505 57.5566 75.4977 57.6649 76.0102 57.8722C76.6156 58.1483 77.1741 58.5171 77.6656 58.9655C78.6071 59.7669 79.4844 60.7065 80.6633 61.1519L80.5699 60.9263C80.219 60.7755 79.8862 60.5856 79.5778 60.3602C78.4826 59.5685 77.5976 58.4714 76.3798 57.8528C75.4475 57.3826 74.3795 57.2553 73.3628 57.4929C72.3901 57.7283 71.5245 58.3605 71.1646 59.3234C70.7639 60.3972 71.0771 61.6266 71.7171 62.5428C73.3628 64.8907 76.6016 64.8518 79.1557 64.8849ZM74.7128 54.8746C75.4787 54.5075 76.2706 54.1974 77.0821 53.9468C77.0471 53.8903 77.012 53.83 76.9751 53.7736C75.1077 54.2969 73.3822 55.4777 71.4564 55.8084C69.1195 56.1788 66.7277 55.6858 64.7278 54.4214C64.1799 54.0787 63.6689 53.6805 63.2028 53.2328C63.1794 53.2951 63.158 53.3573 63.1366 53.4274C63.5819 53.846 64.0651 54.2224 64.58 54.5517C66.5113 55.7889 68.8098 56.3233 71.0888 56.0651C72.3668 55.892 73.5417 55.4037 74.7128 54.8746ZM76.4635 75.5428C77.8909 76.0587 79.3495 76.4836 80.8306 76.815C82.4723 77.2041 84.5032 77.5309 85.8298 78.6416C85.8123 78.5463 85.7929 78.4471 85.7734 78.3557C84.4487 77.3461 82.5482 77.0232 80.9667 76.6536C79.4813 76.3192 78.0177 75.8943 76.5841 75.3814C75.3528 74.9281 74.135 74.3193 73.2344 73.3369C72.8461 72.9213 72.5462 72.4311 72.3529 71.8961C72.1596 71.3611 72.077 70.7924 72.11 70.2245C72.1859 69.0768 72.8395 68.0323 73.9697 67.6743C75.1816 67.2853 76.5335 67.7424 77.545 68.433C78.7005 69.2247 79.5311 70.4132 80.4201 71.4714C81.2624 72.481 82.1961 73.4167 83.4275 73.9263C83.8894 74.1222 84.3816 74.2373 84.8825 74.2667C84.8689 74.2103 84.8572 74.15 84.8416 74.0917C83.8593 74.0294 82.8964 73.547 82.1339 72.9557C81.0115 72.0881 80.2061 70.8801 79.2821 69.818C78.436 68.8454 77.4672 67.9817 76.2184 67.5771C75.1368 67.2269 73.8938 67.2619 72.9796 68.007C72.182 68.6606 71.8649 69.7188 71.9194 70.7206C71.9857 71.8161 72.4523 72.849 73.2305 73.6229C74.1214 74.5235 75.2847 75.1032 76.4615 75.5389L76.4635 75.5428ZM72.9445 80.4974C72.7383 81.4369 72.8356 82.3979 72.7792 83.3471H72.9582C73.0262 82.18 72.8414 80.9603 73.3258 79.8613C73.4414 79.5802 73.6166 79.3275 73.8392 79.1207C74.0619 78.9138 74.3267 78.7577 74.6155 78.663C75.2622 78.4964 75.9476 78.5733 76.5413 78.8789C77.7979 79.4936 78.469 80.8242 79.0798 82.0069C79.3172 82.4601 79.5603 82.9289 79.8404 83.3685H80.0505C79.358 82.3181 78.9164 81.1198 78.1695 80.1005C77.4478 79.1279 76.3623 78.3226 75.0882 78.4082C73.9074 78.4879 73.1799 79.4061 72.9426 80.4974H72.9445ZM61.596 83.3199H61.8255C62.0845 82.8637 62.2697 82.3693 62.3741 81.8551C62.6542 80.5635 62.5686 79.2271 62.4791 77.9199C62.2652 74.8912 61.7419 71.7982 62.4052 68.7889C62.6589 67.5565 63.139 66.3817 63.8214 65.3245C64.5372 64.2546 65.5721 63.2489 66.8229 62.8404C67.1519 62.7182 67.5022 62.6636 67.8529 62.68C68.2035 62.6964 68.5472 62.7834 68.8634 62.9357C69.3962 63.2355 69.8179 63.6995 70.0656 64.2585C70.6978 65.6046 70.3068 67.1277 69.7038 68.4077C68.523 70.9054 66.6069 73.0101 65.6557 75.6284C65.2351 76.7977 65.0591 78.0409 65.1388 79.281C65.2184 80.5211 65.5519 81.7316 66.1187 82.8375C66.2043 83.0028 66.2938 83.1662 66.3891 83.3277H66.6011C66.1333 82.5591 65.7844 81.7243 65.5662 80.8514C65.2474 79.6093 65.2062 78.3122 65.4456 77.0523C65.7102 75.6907 66.3152 74.4399 67.0018 73.2572C67.6885 72.0745 68.5074 70.9229 69.2058 69.7149C69.9041 68.5069 70.5811 67.1511 70.5675 65.7096C70.5538 64.597 70.0364 63.4181 69.0521 62.8365C67.885 62.144 66.4863 62.6147 65.4651 63.3423C63.4557 64.7759 62.4363 67.1822 62.0629 69.5554C61.5765 72.6522 62.1854 75.7801 62.3313 78.8809C62.3916 80.118 62.3877 81.3961 61.9539 82.5768C61.8622 82.8369 61.7422 83.0861 61.596 83.3199ZM64.4983 57.1759C63.8736 56.6466 63.0892 56.3425 62.271 56.3122C62.2574 56.3627 62.2438 56.4172 62.2282 56.4678C62.4242 56.4773 62.6193 56.5014 62.8118 56.5398C64.0062 56.7771 65.2161 57.7069 65.2297 59.0199C65.2472 60.4497 64.0334 61.5118 62.8585 62.1032C62.1698 62.4494 61.4482 62.7178 60.742 63.0155C60.7304 63.0777 60.7167 63.138 60.7051 63.21C61.1525 63.0155 61.6077 62.8482 62.0667 62.6614C63.2825 62.1635 64.508 61.4943 65.113 60.2688C65.3804 59.7599 65.4653 59.1747 65.3534 58.6108C65.2415 58.0468 64.9397 57.5383 64.4983 57.17V57.1759Z" fill="white"/>
<path d="M75.4791 49.7235C83.9098 56.1953 92.7003 67.1859 92.8384 73.5235C92.9688 79.7872 89.4498 79.1647 88.8585 78.9702C82.5948 77.025 75.0472 59.6442 72.25 52.5694C69.4722 45.5529 73.386 48.1226 75.4791 49.7235Z" fill="#FFBF9D"/>
<path d="M89.0244 62.337L79.236 67.8868C79.236 67.8868 72.8867 56.6452 71.3772 51.4086C69.8677 46.172 71.986 46.2868 76.7091 50.2959C81.4321 54.3051 89.0244 62.337 89.0244 62.337Z" fill="#7B55D3"/>
<path d="M86.9621 60.8638C83.1961 63.5093 79.5332 65.2522 78.7921 65.6899C78.757 65.7113 78.7279 65.6529 78.7629 65.6335C79.504 65.2444 83.5151 62.6436 86.9212 60.8015C86.9698 60.7801 87.0029 60.8385 86.9621 60.8638Z" fill="#263238"/>
<path d="M79.8642 67.5134C79.665 67.5902 79.4702 67.6779 79.2806 67.776C78.3411 65.9066 78.5122 66.3346 77.5532 64.4691C77.0851 63.5613 76.6156 62.649 76.1449 61.7321C75.6586 60.7828 75.2228 59.7869 74.6859 58.8726C74.6831 58.8669 74.6781 58.8626 74.6721 58.8606C74.6661 58.8586 74.6595 58.8591 74.6539 58.8619C74.6482 58.8647 74.6439 58.8697 74.6419 58.8757C74.6398 58.8818 74.6403 58.8883 74.6431 58.894C74.9544 59.7927 75.3765 60.6642 75.7753 61.5317C75.6877 61.3975 75.6041 61.2594 75.5068 61.1291C75.2909 60.8392 75.0789 60.5455 74.8883 60.2421C74.8571 60.1954 74.7793 60.2323 74.8085 60.281C75.003 60.5727 75.1548 60.8743 75.3162 61.1816C75.4777 61.489 75.6547 61.7788 75.8356 62.0745C76.0165 62.3701 76.2052 62.6269 76.3997 62.8973L76.4697 62.9985C76.7265 63.5412 76.9755 64.0858 77.2478 64.6227C78.1893 66.5038 79.1581 67.9841 79.1931 67.9744C79.4405 67.8563 79.6779 67.7184 79.9031 67.562C79.9186 67.5464 79.8914 67.5114 79.8642 67.5134Z" fill="#263238"/>
<path d="M50.6972 79.2715C53.5995 78.8474 55.2432 73.4572 58.4646 64.8767C59.0287 63.3711 51.5375 54.7478 50.5202 56.1348C49.2383 57.8855 45.8516 67.5708 45.5053 70.2047C44.8381 75.3946 47.3203 79.7675 50.6972 79.2715Z" fill="#FFBF9D"/>
<path d="M55.1611 73.5586C55.4218 72.8291 55.698 72.1055 55.9762 71.3818L56.8185 69.2168C57.1103 68.499 57.3904 67.7773 57.6724 67.0576C57.8164 66.697 57.9551 66.3359 58.0887 65.9741C58.2268 65.6122 58.3611 65.2485 58.4642 64.875C58.3028 65.6345 58.0849 66.381 57.8125 67.1081C57.5577 67.8415 57.2756 68.5651 56.9994 69.2888C56.7232 70.0124 56.4158 70.7263 56.1124 71.4383C55.8089 72.1502 55.4899 72.8602 55.1611 73.5586Z" fill="#263238"/>
<path d="M47.832 62.3573C48.2386 59.4122 49.0692 55.3038 50.1216 54.4421C51.2265 53.5395 55.2395 50.5185 56.3969 50.1178C57.5544 49.7171 62.7209 47.7504 63.6702 48.299C64.4308 48.7386 63.5301 50.7364 61.0733 51.6954C58.9121 52.5357 57.7995 53.3216 57.1828 53.5881C56.5662 53.8546 55.043 55.901 55.4515 56.8036C55.6947 57.3347 57.2431 57.9591 58.206 57.5233C59.1689 57.0876 59.4062 55.1891 60.5053 54.2845C61.6043 53.38 63.5457 53.4948 63.6585 54.018C63.7713 54.5413 63.1294 54.7864 62.1373 56.5682C61.4993 57.712 61.4565 60.4587 60.0093 62.4312C59.2817 63.4213 58.0193 66.0552 58.0193 66.0552L47.832 62.3573Z" fill="#FFBF9D"/>
<path d="M61.5326 53.4708C61.8877 53.4196 62.221 53.2685 62.4935 53.0351C62.6033 52.9297 62.6797 52.7944 62.7133 52.646C62.726 52.5648 62.726 52.4821 62.7133 52.4009C62.7106 52.314 62.6775 52.2308 62.62 52.1656C62.6005 52.1519 62.6297 52.1286 62.6394 52.1481C62.6658 52.189 62.695 52.228 62.7269 52.2648C62.7496 52.2997 62.7685 52.3368 62.7834 52.3756C62.8125 52.4527 62.8263 52.5346 62.8242 52.6169C62.8164 52.7969 62.7478 52.969 62.6297 53.1051C62.4878 53.2504 62.3143 53.3611 62.1226 53.4286C61.931 53.4961 61.7265 53.5185 61.5248 53.4942C61.5209 53.5 61.5209 53.4747 61.5326 53.4708Z" fill="#263238"/>
<path d="M50.1211 54.4357C51.0568 52.9671 53.4513 50.3138 55.8245 49.4034C57.4274 48.7868 62.948 51.4712 62.7885 52.5255C62.629 53.5798 61.6856 53.5857 60.2889 53.4203C59.7812 53.36 57.0909 52.3952 56.6318 52.9593C55.9743 53.7724 55.1379 56.5444 55.1379 56.5444L50.1211 54.4357Z" fill="#FFBF9D"/>
<path d="M62.6505 52.118C61.9677 50.9898 60.4699 50.3887 58.9779 49.9141C58.9545 49.9141 58.9409 49.9413 58.9643 49.9491C59.3436 50.0697 61.7751 51.1863 62.6349 52.1375C62.6447 52.1472 62.6583 52.1297 62.6505 52.118Z" fill="#263238"/>
<path d="M50.1211 54.434C51.0568 52.9653 53.4513 50.312 55.8245 49.4016C57.4274 48.785 61.7964 52.2203 61.635 53.2766C61.4735 54.3328 60.1216 54.4165 58.6237 53.8971C58.1394 53.7279 56.5171 52.5879 56.058 53.1521C55.4005 53.9632 53.7957 55.9785 53.7957 55.9785L50.1211 54.434Z" fill="#FFBF9D"/>
<path d="M54.7121 54.7334C54.8639 54.5019 54.9066 54.4202 55.0681 54.1907C55.2296 53.9611 55.3793 53.7355 55.5505 53.5195C55.6835 53.3183 55.8508 53.1418 56.0446 52.9982C56.245 52.884 56.477 52.8376 56.706 52.8659C57.2254 52.9146 57.6942 53.2433 58.1357 53.4962C58.6279 53.7783 59.6472 54.2354 60.4292 54.1518C60.6441 54.1392 60.8541 54.0823 61.0458 53.9845C61.191 53.918 61.3174 53.8164 61.4135 53.6888C61.752 53.1052 61.3279 52.4594 60.896 51.9945C60.0888 51.1288 59.0033 50.5025 57.9509 49.987C57.6922 49.8606 57.4316 49.7419 57.1729 49.6213C56.8799 49.4648 56.5569 49.3726 56.2255 49.3509C55.6828 49.3509 54.7938 49.8995 54.5195 50.0667C54.4981 50.0784 54.4826 50.0453 54.502 50.0317C54.8366 49.8236 55.6692 49.1466 56.5368 49.1894C56.8565 49.2378 57.1653 49.3418 57.4491 49.4968C57.7545 49.6271 58.056 49.7691 58.3536 49.917C58.9344 50.2024 59.4924 50.5321 60.0226 50.9032C60.5206 51.2592 61.0517 51.6813 61.3843 52.1929C61.5394 52.4194 61.6304 52.6836 61.6475 52.9576C61.6646 53.2316 61.6073 53.5051 61.4816 53.7491C61.2423 54.1381 60.7307 54.2432 60.4973 54.2743C60.2681 54.3045 60.0359 54.3045 59.8067 54.2743C59.2964 54.1642 58.7946 54.0179 58.305 53.8366C57.8303 53.6421 57.4024 53.327 56.9141 53.1791C56.7988 53.1396 56.6768 53.1236 56.5552 53.1319C56.4336 53.1403 56.3149 53.1729 56.2061 53.2278C56.0065 53.3612 55.8282 53.5238 55.677 53.7102C55.3505 54.0313 55.0548 54.3823 54.7938 54.7587C54.7296 54.8676 54.6577 54.8345 54.7121 54.7334Z" fill="#263238"/>
<path d="M49.4287 55.7186C49.7711 55.0184 50.3488 52.1355 50.9051 51.2446C51.4615 50.3537 53.9981 47.3016 55.1847 47.4339C56.6767 47.5992 55.1244 50.2856 54.3443 51.3924C53.5643 52.4993 53.6985 54.3803 53.6985 54.3803L49.4287 55.7186Z" fill="#FFBF9D"/>
<path d="M55.4325 49.5742C55.1543 49.9243 54.9092 50.3134 54.668 50.6888C54.4197 51.0377 54.1974 51.4044 54.0027 51.7859C53.8395 52.1764 53.7416 52.5911 53.7129 53.0134C53.6935 53.2215 53.6876 53.4277 53.6857 53.6358C53.6837 53.844 53.7051 54.093 53.7012 54.3186C53.7003 54.3215 53.7 54.3247 53.7005 54.3277C53.701 54.3307 53.7022 54.3336 53.704 54.3361C53.7058 54.3386 53.7081 54.3406 53.7109 54.342C53.7136 54.3434 53.7166 54.3442 53.7197 54.3442C53.7228 54.3442 53.7258 54.3434 53.7286 54.342C53.7313 54.3406 53.7337 54.3386 53.7355 54.3361C53.7373 54.3336 53.7385 54.3307 53.7389 54.3277C53.7394 54.3247 53.7392 54.3215 53.7382 54.3186C53.7647 53.9038 53.8186 53.4911 53.8997 53.0834C53.9721 52.6592 54.0969 52.2456 54.2712 51.8521C54.6194 51.074 55.129 50.3737 55.4831 49.5975C55.4909 49.5683 55.452 49.5489 55.4325 49.5742Z" fill="#263238"/>
<path d="M53.7162 54.7031C53.7379 55.0523 53.8107 55.3963 53.9321 55.7244C54.0426 56.0576 54.1765 56.3826 54.3328 56.697C54.4838 57.0108 54.652 57.316 54.8366 57.6113C55.0156 57.9089 55.2257 58.1773 55.4455 58.4613C55.8926 59.0158 56.2491 59.6375 56.5018 60.3035C56.7385 60.9697 56.857 61.6721 56.8519 62.3791C56.7872 61.6824 56.6234 60.9986 56.3656 60.3482C56.089 59.7091 55.7272 59.1103 55.2899 58.5683C55.0675 58.2926 54.8622 58.0035 54.6752 57.7027C54.4924 57.398 54.3299 57.0815 54.1889 56.7554C53.9204 56.1076 53.6714 55.4151 53.7162 54.7031Z" fill="#263238"/>
<path d="M64.3583 50.5913C64.4003 51.0482 64.4652 51.5026 64.5529 51.953C64.6219 52.3631 64.728 52.7661 64.8699 53.1571C65.1481 53.8593 65.6792 54.5187 66.4981 54.6997C66.879 54.7727 67.2707 54.7685 67.65 54.6873C68.0292 54.6061 68.3883 54.4496 68.7059 54.227C69.3848 53.7796 69.9139 53.1454 70.3983 52.5288C70.7005 52.1475 70.9838 51.7546 71.2484 51.3499C71.3807 51.1438 71.5168 50.9414 71.6374 50.7294C71.758 50.5174 71.8728 50.3034 72.009 50.1011C72.0206 50.0836 72.0557 50.1011 72.0459 50.1147C71.7814 50.5933 70.9877 52.1105 70.7232 52.486C70.2388 53.1707 69.7116 53.869 69.0094 54.3748C68.3366 54.8867 67.4912 55.1169 66.6518 55.0167C66.2495 54.9538 65.8699 54.789 65.5492 54.5381C65.2285 54.2872 64.9773 53.9584 64.8194 53.5831C64.6335 53.1348 64.5149 52.6616 64.4673 52.1786C64.4011 51.6495 64.3661 51.1165 64.3428 50.5855C64.3467 50.5855 64.3583 50.5855 64.3583 50.5913Z" fill="#263238"/>
<path d="M67.1615 53.3751C68.9472 53.3265 71.1492 49.9982 71.7367 47.6191C71.7756 47.4557 69.6708 41.9176 69.3674 40.7758C69.3012 40.5423 62.6621 44.4173 62.6621 44.4173C62.6621 44.4173 64.0024 46.6212 64.5179 48.6131C64.5587 48.7804 65.4341 53.4218 67.1615 53.3751Z" fill="#FFBF9D"/>
<path d="M62.6621 44.4215C62.6621 44.4215 64.0024 46.6255 64.5179 48.6193C64.5179 48.6582 64.584 48.9481 64.6871 49.3683C68.0076 48.1486 69.6202 45.4778 70.3594 43.6823C69.9062 42.4257 69.488 41.2449 69.3674 40.7839C69.3012 40.5466 62.6621 44.4215 62.6621 44.4215Z" fill="#263238"/>
<path d="M58.8498 31.5159C58.4238 31.5879 56.9941 34.9842 57.2022 36.4704C57.4104 37.9566 58.381 40.8355 58.8246 40.8219C59.2681 40.8083 59.1864 31.4595 58.8498 31.5159Z" fill="#263238"/>
<path d="M69.0666 32.8314C70.5333 35.1521 71.1966 42.8319 69.8447 44.9561C67.878 48.0354 63.6588 49.4301 60.7896 46.8449C58.0059 44.3356 57.3173 34.3117 58.926 32.2789C61.2915 29.2852 66.8996 29.4039 69.0666 32.8314Z" fill="#FFBF9D"/>
<path d="M63.5476 37.7387C63.7741 37.7704 64.0019 37.7905 64.2304 37.799C64.493 37.8184 64.7012 37.8632 64.9404 37.7289C65.0038 37.6831 65.0503 37.6177 65.0728 37.5428C65.0953 37.468 65.0926 37.3877 65.0649 37.3146C64.9288 37.0092 64.6136 36.9041 64.2985 36.8672C63.9827 36.8176 63.6597 36.8869 63.392 37.0617C63.3321 37.1052 63.2863 37.1654 63.2603 37.2347C63.2343 37.304 63.2293 37.3795 63.2459 37.4517C63.2625 37.5238 63.3 37.5895 63.3536 37.6405C63.4073 37.6916 63.4747 37.7257 63.5476 37.7387Z" fill="#263238"/>
<path d="M63.8551 39.4123C63.8551 39.3909 63.8979 39.4317 63.8998 39.4531C63.9367 39.9725 64.067 40.56 64.551 40.6845C64.5666 40.6845 64.5685 40.7136 64.551 40.7136C63.964 40.6922 63.7987 39.9083 63.8551 39.4123Z" fill="#263238"/>
<path d="M64.2536 38.822C65.0798 38.6722 65.315 40.3354 64.5511 40.4716C63.7871 40.6078 63.5636 38.9465 64.2536 38.822Z" fill="#263238"/>
<path d="M60.8744 39.7544C60.8744 39.7349 60.8375 39.7855 60.8414 39.805C60.9308 40.3185 60.9463 40.9196 60.5051 41.1569C60.4915 41.1569 60.5051 41.19 60.5051 41.1861C61.0708 41.0324 61.0397 40.2329 60.8744 39.7544Z" fill="#263238"/>
<path d="M60.3379 39.2899C59.502 39.3464 59.673 41.0154 60.4467 40.9648C61.2204 40.9142 61.0396 39.2452 60.3379 39.2899Z" fill="#263238"/>
<path d="M59.5758 38.4001C59.7922 38.3229 60.0045 38.2346 60.2119 38.1356C60.455 38.0305 60.6593 37.9722 60.8091 37.7465C60.844 37.6764 60.8549 37.5967 60.8401 37.5197C60.8253 37.4428 60.7857 37.3728 60.7274 37.3205C60.4648 37.1124 60.1341 37.1669 59.8365 37.2797C59.5327 37.3846 59.2789 37.5989 59.1245 37.8808C59.0941 37.9467 59.0834 38.0201 59.0936 38.092C59.1039 38.164 59.1347 38.2314 59.1824 38.2862C59.23 38.3411 59.2925 38.381 59.3623 38.4012C59.4321 38.4214 59.5062 38.421 59.5758 38.4001Z" fill="#263238"/>
<path d="M64.9163 43.6202C64.8113 43.7583 64.7219 43.9412 64.5275 43.9839C64.3355 44.0079 64.1407 43.9907 63.956 43.9334C63.954 43.9321 63.9519 43.9312 63.9496 43.9308C63.9474 43.9303 63.9451 43.9303 63.9428 43.9308C63.9405 43.9312 63.9384 43.9321 63.9365 43.9334C63.9346 43.9347 63.9329 43.9363 63.9317 43.9382C63.9304 43.9402 63.9295 43.9423 63.929 43.9446C63.9286 43.9468 63.9286 43.9491 63.9291 43.9514C63.9295 43.9537 63.9304 43.9558 63.9317 43.9577C63.933 43.9596 63.9346 43.9613 63.9365 43.9626C64.0237 44.0549 64.1343 44.1218 64.2566 44.1561C64.3788 44.1904 64.5081 44.1907 64.6305 44.1571C64.7313 44.1149 64.8174 44.0438 64.8779 43.9528C64.9384 43.8617 64.9707 43.7548 64.9707 43.6455C64.9726 43.6066 64.9318 43.6007 64.9163 43.6202Z" fill="#263238"/>
<path d="M64.1581 42.1604C64.0563 42.3829 63.9095 42.5819 63.7271 42.7449C63.5446 42.9079 63.3304 43.0315 63.0979 43.1077C62.8958 43.1767 62.6849 43.2166 62.4716 43.2264C62.4308 43.2303 62.3898 43.2303 62.349 43.2264C62.3108 43.2283 62.2725 43.2283 62.2343 43.2264C62.2059 43.225 62.1787 43.2143 62.157 43.1961C62.1352 43.1778 62.12 43.1529 62.1136 43.1252C62.1117 43.1078 62.1117 43.0902 62.1136 43.0727V43.028C62.0456 42.6389 61.9989 42.0242 61.9989 42.0242C61.8647 42.1176 61.1721 42.5533 61.1546 42.3452C61.0146 40.6159 60.857 38.694 61.0807 36.9452C61.083 36.9342 61.0889 36.9243 61.0976 36.9172C61.1063 36.9101 61.1172 36.9062 61.1284 36.9062C61.1396 36.9062 61.1505 36.9101 61.1592 36.9172C61.1678 36.9243 61.1738 36.9342 61.176 36.9452C61.3706 38.6026 61.2869 40.2832 61.4639 41.9484C61.7091 41.789 61.9757 41.6652 62.2556 41.5807C62.314 41.5807 62.3257 42.7479 62.3704 42.9327C62.369 42.9384 62.369 42.9444 62.3704 42.9502C63.0474 42.9502 63.522 42.6681 64.1036 42.1293C64.1367 42.0904 64.1814 42.1157 64.1581 42.1604Z" fill="#263238"/>
<path d="M69.967 39.4203C68.6287 39.7218 67.7611 38.3037 67.0141 36.2593C66.5764 35.063 66.5745 32.5633 66.5745 32.5633C66.5745 32.5633 63.3298 34.6486 61.3437 34.7381C59.3577 34.8276 57.4533 33.3628 57.3365 31.8202C57.2373 30.4877 59.2351 28.4725 62.1491 27.955C64.1819 27.5952 67.8545 28.772 69.6733 30.7659C69.6733 30.7659 72.4102 31.651 72.2877 33.6449C72.1651 35.6387 71.4862 39.0779 69.967 39.4203Z" fill="#263238"/>
<path d="M69.8501 39.2849C68.1169 39.9015 66.8136 37.3396 66.5821 35.9488C66.3409 34.4996 66.7027 32.9531 66.765 31.5H66.7533C66.3798 33.3032 66.018 35.5694 66.8467 37.291C67.368 38.3764 68.4515 40.1408 69.8851 39.3802C69.9338 39.3529 69.9046 39.2654 69.8501 39.2849Z" fill="#263238"/>
<path d="M72.608 33.0064C72.1976 31.8392 70.6744 30.8452 69.4956 30.7188C69.4839 30.7188 69.4801 30.7363 69.4956 30.7382C70.9312 31.0533 72.7286 32.4208 72.5088 34.014C72.3318 35.2862 71.9583 36.9805 71.2522 38.0659C71.2347 38.0932 71.2755 38.1185 71.295 38.0932C71.8669 37.3481 72.04 36.4514 72.2676 35.5644C72.4563 34.7804 72.8842 33.8136 72.608 33.0064Z" fill="#263238"/>
<path d="M69.9572 30.9089C68.0353 28.808 64.1973 26.6449 61.3184 27.7537C61.3184 27.7537 61.3184 27.7712 61.3184 27.7673C64.4113 26.8628 67.6209 29.1679 69.8599 31.0198C69.9299 31.0742 70.0116 30.9673 69.9572 30.9089Z" fill="#263238"/>
<path d="M69.1074 39.6231C69.1074 39.6231 70.1481 36.8161 71.3814 37.1254C72.6147 37.4347 72.2646 41.2104 71.1227 42.0021C70.9834 42.1149 70.8227 42.1984 70.6503 42.2476C70.4779 42.2967 70.2974 42.3106 70.1195 42.2882C69.9417 42.2659 69.7701 42.2078 69.6153 42.1175C69.4604 42.0272 69.3254 41.9066 69.2183 41.7628L69.1074 39.6231Z" fill="#FFBF9D"/>
<path d="M71.2601 38.2031C71.2815 38.2031 71.2912 38.2226 71.2757 38.2362C70.484 38.8198 70.2311 39.771 70.128 40.7086C70.305 40.3195 70.6182 40.0375 71.1395 40.2359C71.1667 40.2456 71.1551 40.2884 71.1278 40.2884C70.9589 40.2798 70.7914 40.3236 70.6483 40.4138C70.5052 40.5039 70.3935 40.6361 70.3283 40.7922C70.223 41.0545 70.1454 41.327 70.0969 41.6054C70.0755 41.6968 69.9218 41.6909 69.9276 41.5917C69.9267 41.5846 69.9267 41.5774 69.9276 41.5703C69.6105 40.4499 70.0793 38.6389 71.2601 38.2031Z" fill="#263238"/>
<path d="M65.5492 52.0699L69.6342 64.249C69.7937 64.6031 69.6342 64.9124 69.2762 64.9396L62.8647 65.424C62.6691 65.4251 62.4771 65.3709 62.3108 65.2676C62.1446 65.1644 62.0109 65.0163 61.9252 64.8404L57.8402 52.6612C57.6807 52.3052 57.8402 51.9959 58.1981 51.9687L64.6057 51.4766C64.803 51.4761 64.9964 51.5316 65.1634 51.6366C65.3304 51.7416 65.4641 51.8918 65.5492 52.0699Z" fill="#37474F"/>
<path d="M64.7863 52.1226L68.8713 64.3018C69.0308 64.6558 68.8713 64.967 68.5134 64.9943L62.1038 65.4864C61.9072 65.4862 61.7147 65.4303 61.5484 65.3254C61.3822 65.2204 61.249 65.0705 61.1643 64.8931L57.0793 52.714C56.9178 52.3599 57.0793 52.0506 57.4372 52.0234L63.8546 51.5312C64.0497 51.5323 64.2407 51.5884 64.4055 51.693C64.5703 51.7975 64.7023 51.9464 64.7863 52.1226Z" fill="#455A64"/>
<path d="M63.0768 52.8342C63.0873 52.9418 63.1295 53.0439 63.198 53.1275C63.2666 53.2112 63.3583 53.2726 63.4617 53.304C63.5651 53.3354 63.6755 53.3355 63.7789 53.3041C63.8823 53.2727 63.9741 53.2114 64.0427 53.1278C64.1112 53.0442 64.1535 52.9422 64.1641 52.8345C64.1747 52.7269 64.1531 52.6186 64.1022 52.5232C64.0512 52.4279 63.9731 52.3498 63.8778 52.2988C63.7825 52.2479 63.6742 52.2264 63.5667 52.237C63.4226 52.2513 63.2901 52.3222 63.1982 52.4342C63.1064 52.5462 63.0627 52.69 63.0768 52.8342Z" fill="#263238"/>
<path d="M90.1813 79.0467C87.3918 79.4532 83.8709 77.3154 74.7477 70.8105C73.4833 69.904 77.4399 59.2888 78.8327 60.1778C80.5932 61.3002 87.1817 66.0427 87.6194 66.4512C91.3212 69.904 92.0779 78.7549 90.1813 79.0467Z" fill="#FFBF9D"/>
<path d="M82.1069 63.3378C82.1069 63.3378 79.4886 59.7508 77.5298 58.2899C74.9056 56.3447 71.836 55.73 70.5269 55.553C67.8036 55.1834 60.9952 56.1696 60.9271 58.1849C60.8727 60.0095 67.7977 58.6479 67.7977 58.6479C67.7977 58.6479 60.5089 58.8696 60.8474 61.0775C61.1858 63.2853 69.138 61.2506 69.138 61.2506C69.138 61.2506 61.6527 61.6396 62.3627 63.8689C62.8996 65.5476 70.204 64.1081 70.204 64.1081C70.204 64.1081 63.773 64.4972 64.2496 66.2479C64.7787 68.1815 71.6026 67.2769 71.6026 67.2769C73.5809 71.5176 76.2459 72.7372 78.2495 73.3772C78.7339 73.5309 82.1069 63.3378 82.1069 63.3378Z" fill="#FFBF9D"/>
<path d="M70.3231 58.4155C69.4653 58.4155 68.5977 58.4 67.7437 58.47C66.8898 58.54 66.0358 58.6431 65.1916 58.7929C63.1199 59.1625 61.8846 59.7188 61.9625 59.6916C63.861 59.0789 66.915 58.7754 67.771 58.7034C68.6269 58.6315 69.473 58.5186 70.327 58.4467C70.3484 58.4447 70.3426 58.4155 70.3231 58.4155Z" fill="#263238"/>
<path d="M70.6359 61.5C69.5408 61.5409 68.4534 61.5409 67.3602 61.6303C66.2669 61.7198 65.2476 61.9007 64.168 62.0641C64.0844 62.0758 64.1194 62.1166 64.203 62.1069C65.2865 61.9863 66.3 61.9591 67.3854 61.8521C68.4709 61.7451 69.5544 61.5934 70.6398 61.5253C70.6632 61.5253 70.6632 61.5 70.6359 61.5Z" fill="#263238"/>
<path d="M71.3815 64.0951C69.7047 64.0717 68.026 64.3577 66.3862 64.6787C66.3045 64.6942 66.355 64.7429 66.4387 64.7312C68.096 64.5055 69.3935 64.3168 71.3815 64.1476C71.4107 64.1496 71.4166 64.0951 71.3815 64.0951Z" fill="#263238"/>
<path d="M85.1064 64.5781C85.8301 65.0547 86.5265 65.5702 87.2015 66.1168C87.54 66.3874 87.8647 66.675 88.1741 66.9786C88.4945 67.2803 88.7761 67.6207 89.0125 67.992C89.4617 68.7391 89.8388 69.5273 90.1388 70.3458C90.4501 71.1573 90.6707 72.0009 90.7963 72.861C90.7031 72.4391 90.5862 72.0228 90.4461 71.6141C90.3119 71.2036 90.1641 70.799 89.9987 70.4002C89.6825 69.6005 89.2972 68.8299 88.8471 68.0971C88.6251 67.7334 88.3571 67.3999 88.0496 67.105C87.7481 66.7996 87.4232 66.5214 87.1003 66.2296C86.7774 65.9378 86.4428 65.6694 86.1082 65.3951C85.7737 65.1208 85.4469 64.8446 85.1064 64.5781Z" fill="#263238"/>
<path d="M57.4879 26.4484C57.4879 26.4484 56.6884 32.8483 55.3734 34.2897C53.7958 36.0171 52.6501 35.7642 52.014 36.6551C51.3759 35.7623 50.2321 36.0171 48.6526 34.2878C47.3395 32.8483 46.542 26.4484 46.542 26.4484C50.0045 24.7678 52.0159 22.8828 52.0159 22.8828C52.0762 22.9431 54.0779 24.793 57.4879 26.4484Z" fill="#7B55D3"/>
<path opacity="0.2" d="M52.014 22.8848V36.6551C51.3759 35.7623 50.2321 36.0171 48.6526 34.2878C47.3395 32.8483 46.542 26.4484 46.542 26.4484C50.0045 24.7678 52.0159 22.8828 52.0159 22.8828L52.014 22.8848Z" fill="black"/>
<path opacity="0.1" d="M57.4876 26.4465C57.4876 26.4465 56.6881 32.8463 55.3731 34.2878C53.7955 36.0151 52.6498 35.7623 52.0137 36.6532V22.8828C52.0759 22.9412 54.0776 24.7911 57.4876 26.4465Z" fill="black"/>
<path d="M56.6373 26.9644C56.6373 26.9644 55.9623 32.3721 54.8516 33.5879C53.5191 35.0507 52.5504 34.8348 52.0135 35.5876C51.4747 34.8348 50.5079 35.0507 49.1734 33.5879C48.0627 32.3721 47.3896 26.9644 47.3896 26.9644C50.3075 25.5443 52.0135 23.9531 52.0135 23.9531C52.0135 23.9531 53.7117 25.5482 56.6373 26.9644Z" fill="#7B55D3"/>
<path opacity="0.1" d="M52.0135 23.957V35.5896C51.4766 34.8368 50.5079 35.0507 49.1754 33.5899C48.0647 32.3721 47.3916 26.9644 47.3916 26.9644C50.3095 25.5443 52.0135 23.9531 52.0135 23.9531V23.957Z" fill="black"/>
<path d="M54.0857 28.7422H49.9424V32.5004H54.0857V28.7422Z" fill="white"/>
<path d="M53.6711 29.9027H53.249V28.224C53.249 27.8964 53.1189 27.5822 52.8872 27.3505C52.6556 27.1189 52.3414 26.9887 52.0138 26.9887C51.6862 26.9887 51.372 27.1189 51.1403 27.3505C50.9087 27.5822 50.7785 27.8964 50.7785 28.224V29.9027H50.3564V28.224C50.3409 27.9973 50.3721 27.7698 50.4481 27.5557C50.5242 27.3416 50.6434 27.1455 50.7985 26.9794C50.9536 26.8133 51.1411 26.6809 51.3495 26.5904C51.5579 26.4998 51.7827 26.4531 52.0099 26.4531C52.2371 26.4531 52.4619 26.4998 52.6703 26.5904C52.8787 26.6809 53.0662 26.8133 53.2213 26.9794C53.3763 27.1455 53.4956 27.3416 53.5716 27.5557C53.6477 27.7698 53.6789 27.9973 53.6633 28.224L53.6711 29.9027Z" fill="white"/>
<path d="M52.1435 30.6816L52.2776 31.3157H51.71L51.8441 30.6816C51.7917 30.649 51.7513 30.6002 51.729 30.5426C51.7068 30.485 51.7039 30.4218 51.7208 30.3624C51.7378 30.303 51.7736 30.2508 51.8228 30.2136C51.8721 30.1764 51.9321 30.1562 51.9938 30.1562C52.0555 30.1562 52.1155 30.1764 52.1647 30.2136C52.214 30.2508 52.2498 30.303 52.2667 30.3624C52.2836 30.4218 52.2808 30.485 52.2585 30.5426C52.2363 30.6002 52.1959 30.649 52.1435 30.6816Z" fill="#37474F"/>
<path d="M52.0861 51.7651H51.2574V51.6173H52.0141V51.6679H52.0861V51.7651ZM50.4794 51.7651H49.7013V51.6173H50.4794V51.7651ZM48.9232 51.7651H48.1451V51.6173H48.9232V51.7651ZM47.367 51.7651H46.5889V51.6173H47.367V51.7651ZM52.0861 50.8917H51.9402V50.1136H52.0861V50.8917ZM52.0861 49.3355H51.9402V48.5574H52.0861V49.3355ZM52.0861 47.7793H51.9402V47.0012H52.0861V47.7793ZM52.0861 46.2231H51.9402V45.445H52.0861V46.2231ZM52.0861 44.6669H51.9402V43.8888H52.0861V44.6669ZM52.0861 43.1107H51.9402V42.3326H52.0861V43.1107ZM52.0861 41.5545H51.9402V40.7764H52.0861V41.5545ZM52.0861 39.9984H51.9402V39.2203H52.0861V39.9984ZM52.0861 38.4422H51.9402V37.6641H52.0861V38.4422Z" fill="#7B55D3"/>
<path d="M52.3416 37.5006C52.3416 37.4356 52.3224 37.372 52.2863 37.318C52.2502 37.2639 52.1988 37.2218 52.1388 37.1969C52.0788 37.172 52.0127 37.1655 51.949 37.1782C51.8853 37.1909 51.8267 37.2222 51.7808 37.2682C51.7348 37.3141 51.7036 37.3727 51.6909 37.4365C51.6782 37.5003 51.6847 37.5664 51.7096 37.6264C51.7344 37.6865 51.7766 37.7378 51.8306 37.774C51.8846 37.8101 51.9481 37.8294 52.0131 37.8294C52.1002 37.8294 52.1838 37.7947 52.2454 37.7331C52.307 37.6714 52.3416 37.5878 52.3416 37.5006Z" fill="#7B55D3"/>
<path d="M23.6949 28.8211H13.7139V16.0078H21.1252L23.6949 18.451V28.8211Z" fill="#EBEBEB"/>
<path d="M21.125 16.0078L23.6947 18.451H21.125V16.0078Z" fill="#DBDBDB"/>
<path d="M14.6885 18.4922H20.2383V18.1634H14.6885V18.4922Z" fill="#DBDBDB"/>
<path d="M14.6885 19.3125H20.2383V18.9838H14.6885V19.3125Z" fill="#DBDBDB"/>
<path d="M14.6885 20.1484H20.2383V19.8197H14.6885V20.1484Z" fill="#DBDBDB"/>
<path d="M14.6882 20.9844H22.8193V20.6556H14.6882V20.9844Z" fill="#DBDBDB"/>
<path d="M14.6882 21.8047H22.8193V21.4759H14.6882V21.8047Z" fill="#DBDBDB"/>
<path d="M14.6882 22.6406H22.8193V22.3119H14.6882V22.6406Z" fill="#DBDBDB"/>
<path d="M14.6882 23.4688H22.8193V23.14H14.6882V23.4688Z" fill="#DBDBDB"/>
<path d="M14.6882 24.2969H22.8193V23.9681H14.6882V24.2969Z" fill="#DBDBDB"/>
<path d="M14.6882 25.1328H22.8193V24.8041H14.6882V25.1328Z" fill="#DBDBDB"/>
<path d="M14.6882 25.9609H22.8193V25.6322H14.6882V25.9609Z" fill="#DBDBDB"/>
<path d="M14.6882 26.7891H22.8193V26.4603H14.6882V26.7891Z" fill="#DBDBDB"/>
<path d="M14.6882 27.625H22.8193V27.2963H14.6882V27.625Z" fill="#DBDBDB"/>
<path d="M24.3695 29.9879C25.2619 29.6159 25.6838 28.5908 25.3117 27.6983C24.9397 26.8059 23.9146 26.384 23.0222 26.756C22.1297 27.1281 21.7078 28.1532 22.0799 29.0456C22.4519 29.9381 23.477 30.3599 24.3695 29.9879Z" fill="#263238"/>
<path d="M24.5623 27.9297H22.8271V29.5053H24.5623V27.9297Z" fill="white"/>
<path d="M24.3889 28.4201H24.2119V27.7179C24.2119 27.5807 24.1574 27.449 24.0603 27.352C23.9633 27.255 23.8317 27.2005 23.6945 27.2005C23.5572 27.2005 23.4256 27.255 23.3286 27.352C23.2315 27.449 23.177 27.5807 23.177 27.7179V28.4201H23.0039V27.7179C23.0039 27.5337 23.0771 27.3571 23.2073 27.2268C23.3375 27.0966 23.5142 27.0234 23.6984 27.0234C23.8825 27.0234 24.0592 27.0966 24.1894 27.2268C24.3196 27.3571 24.3928 27.5337 24.3928 27.7179L24.3889 28.4201Z" fill="white"/>
<path d="M23.7684 28.737L23.8403 29.0832H23.5332L23.6051 28.737C23.5769 28.7192 23.5552 28.6928 23.5433 28.6617C23.5314 28.6305 23.53 28.5963 23.5392 28.5643C23.5484 28.5322 23.5678 28.5041 23.5944 28.484C23.621 28.464 23.6535 28.4531 23.6868 28.4531C23.7201 28.4531 23.7525 28.464 23.7791 28.484C23.8058 28.5041 23.8251 28.5322 23.8344 28.5643C23.8436 28.5963 23.8421 28.6305 23.8302 28.6617C23.8183 28.6928 23.7966 28.7192 23.7684 28.737Z" fill="#263238"/>
<path d="M30.5344 35.5183H30.3963V34.7402H30.5422L30.5344 35.5183ZM30.5344 33.9621H30.3963V33.184H30.5422L30.5344 33.9621ZM30.5344 32.4059H30.3963V31.6278H30.5422L30.5344 32.4059ZM30.5344 30.8497H30.3963V30.0716H30.5422L30.5344 30.8497ZM30.5344 29.2935H30.3963V28.5154H30.5422L30.5344 29.2935ZM30.5344 27.7373H30.3963V26.9592H30.5422L30.5344 27.7373ZM30.5344 26.1811H30.3963V25.403H30.5422L30.5344 26.1811ZM30.5344 24.6249H30.3963V23.8469H30.5422L30.5344 24.6249ZM29.8127 23.7943H29.0346V23.6484H29.8127V23.7943ZM28.2565 23.7943H27.4784V23.6484H28.2565V23.7943ZM26.7003 23.7943H25.9222V23.6484H26.7003V23.7943ZM25.1441 23.7943H24.8076V23.6484H25.1441V23.7943Z" fill="#7B55D3"/>
<path d="M24.8147 23.4063C24.749 23.4059 24.6846 23.4252 24.6298 23.4616C24.5751 23.4981 24.5324 23.5501 24.5074 23.6109C24.4823 23.6717 24.4759 23.7387 24.4891 23.8032C24.5023 23.8677 24.5344 23.9267 24.5813 23.9729C24.6282 24.019 24.6878 24.05 24.7525 24.0621C24.8172 24.0741 24.8839 24.0665 24.9443 24.0404C25.0046 24.0142 25.0558 23.9706 25.0913 23.9152C25.1267 23.8597 25.1448 23.795 25.1433 23.7292C25.1412 23.6432 25.1058 23.5613 25.0445 23.501C24.9831 23.4407 24.9007 23.4067 24.8147 23.4063Z" fill="#7B55D3"/>
<path d="M36.1272 78.7937H35.67V78.6556H36.1272V78.7937ZM34.8919 78.7937H34.1138V78.6556H34.8919V78.7937ZM33.3357 78.7937H32.5576V78.6556H33.3357V78.7937ZM31.7796 78.7937H31.0015V78.6556H31.7796V78.7937ZM30.5346 78.4824H30.3965V77.7044H30.5424L30.5346 78.4824ZM30.5346 76.9263H30.3965V76.1482H30.5424L30.5346 76.9263ZM30.5346 75.3701H30.3965V74.592H30.5424L30.5346 75.3701ZM30.5346 73.8139H30.3965V73.0358H30.5424L30.5346 73.8139ZM30.5346 72.2577H30.3965V71.4796H30.5424L30.5346 72.2577ZM30.5346 70.7015H30.3965V69.9234H30.5424L30.5346 70.7015ZM30.5346 69.1453H30.3965V68.3672H30.5424L30.5346 69.1453Z" fill="#7B55D3"/>
<path d="M36.1088 79.0481C36.2902 79.0481 36.4373 78.9009 36.4373 78.7194C36.4373 78.5378 36.2902 78.3906 36.1088 78.3906C35.9274 78.3906 35.7803 78.5378 35.7803 78.7194C35.7803 78.9009 35.9274 79.0481 36.1088 79.0481Z" fill="#7B55D3"/>
<path d="M49.6889 76.5859H37.2588V84.0868H49.6889V76.5859Z" fill="#455A64"/>
<path d="M41.7096 77.5312H38.2354V81.9742H41.7096V77.5312Z" fill="white"/>
<path d="M39.9723 80.1301C40.4267 80.1301 40.7951 79.7617 40.7951 79.3072C40.7951 78.8528 40.4267 78.4844 39.9723 78.4844C39.5178 78.4844 39.1494 78.8528 39.1494 79.3072C39.1494 79.7617 39.5178 80.1301 39.9723 80.1301Z" fill="#455A64"/>
<path d="M41.7096 81.9759H38.2354C38.2354 81.9759 38.3307 81.1473 38.4999 80.9002C38.6691 80.6532 39.1165 80.375 39.9725 80.375C40.8284 80.375 41.2758 80.6532 41.445 80.9002C41.6142 81.1473 41.7096 81.9759 41.7096 81.9759Z" fill="#455A64"/>
<path d="M48.3274 77.5312H42.6084V77.7472H48.3274V77.5312Z" fill="white"/>
<path d="M48.3274 79.6406H42.6084V79.8565H48.3274V79.6406Z" fill="white"/>
<path d="M48.3274 80.2656H42.6084V80.4816H48.3274V80.2656Z" fill="white"/>
<path d="M48.3274 80.8828H42.6084V81.0987H48.3274V80.8828Z" fill="white"/>
<path d="M48.3274 81.5078H42.6084V81.7237H48.3274V81.5078Z" fill="white"/>
<path d="M48.3274 82.125H42.6084V82.3409H48.3274V82.125Z" fill="white"/>
<path d="M47.24 78.1484H42.6084V78.3644H47.24V78.1484Z" fill="white"/>
<path d="M50.3626 85.6988C51.2551 85.3268 51.6769 84.3017 51.3049 83.4093C50.9329 82.5168 49.9078 82.0949 49.0153 82.467C48.1229 82.839 47.701 83.8641 48.0731 84.7566C48.4451 85.649 49.4702 86.0709 50.3626 85.6988Z" fill="#263238"/>
<path d="M50.5564 83.6406H48.8213V85.2163H50.5564V83.6406Z" fill="white"/>
<path d="M50.384 84.1311H50.207V83.4288C50.207 83.2916 50.1525 83.16 50.0554 83.0629C49.9584 82.9659 49.8268 82.9114 49.6896 82.9114C49.5523 82.9114 49.4207 82.9659 49.3237 83.0629C49.2267 83.16 49.1721 83.2916 49.1721 83.4288V84.1311H48.9951V83.4288C48.9951 83.2446 49.0683 83.068 49.1985 82.9378C49.3288 82.8075 49.5054 82.7344 49.6896 82.7344C49.8737 82.7344 50.0504 82.8075 50.1806 82.9378C50.3109 83.068 50.384 83.2446 50.384 83.4288V84.1311Z" fill="white"/>
<path d="M49.7626 84.4479L49.8345 84.7941H49.5254L49.5993 84.4479C49.5766 84.4337 49.5581 84.4138 49.5455 84.3902C49.5329 84.3667 49.5267 84.3402 49.5274 84.3135C49.5281 84.2868 49.5358 84.2607 49.5497 84.2379C49.5636 84.2151 49.5831 84.1962 49.6065 84.1833C49.6299 84.1704 49.6562 84.1637 49.6829 84.1641C49.7096 84.1644 49.7358 84.1717 49.7588 84.1853C49.7818 84.1989 49.8009 84.2182 49.8142 84.2414C49.8275 84.2646 49.8344 84.2908 49.8345 84.3176C49.8345 84.3436 49.8279 84.3692 49.8153 84.392C49.8028 84.4148 49.7846 84.434 49.7626 84.4479Z" fill="#263238"/>
<path d="M92.835 90.9019L82.6244 90.9486L72.4119 90.9661L51.9888 90.9992L31.5657 90.9661L21.3551 90.9486L11.1426 90.9019L21.3551 90.8533L31.5657 90.8378L51.9888 90.8047L72.4119 90.8378L82.6244 90.8553L92.835 90.9019Z" fill="#263238"/>
</svg>
