<svg width="74" height="74" viewBox="0 0 74 74" fill="none" xmlns="http://www.w3.org/2000/svg">
<g filter="url(#filter0_d_1_129995)">
<rect x="1" width="72" height="72" rx="36" fill="white" shape-rendering="crispEdges"/>
<g clip-path="url(#clip0_1_129995)">
<path d="M26.8919 20.4646C27.0342 20.4644 27.1766 20.4641 27.3189 20.4638C27.6166 20.4635 27.9143 20.464 28.212 20.4652C28.5911 20.4666 28.97 20.4658 29.349 20.4643C29.6429 20.4634 29.9368 20.4637 30.2307 20.4643C30.3703 20.4645 30.5099 20.4643 30.6495 20.4637C31.633 20.4605 32.5717 20.5024 33.4575 20.9821C33.4988 21.0037 33.54 21.0254 33.5825 21.0476C34.8196 21.7123 35.8153 22.7704 36.2505 24.1228C36.2738 24.2473 36.2953 24.3723 36.313 24.4978C36.3599 24.4608 36.4068 24.4238 36.4551 24.3857C37.4238 23.6378 38.2779 23.4006 39.5005 23.4978C39.7717 23.5484 40.0031 23.6269 40.2505 23.7478C40.3025 23.7728 40.3544 23.7979 40.408 23.8237C40.6554 23.9581 40.8621 24.1033 41.0569 24.3064C41.2388 24.4948 41.407 24.6636 41.6255 24.8103C41.8888 24.8136 42.077 24.7308 42.313 24.6228C42.3749 24.6228 42.4368 24.6228 42.5005 24.6228C42.5005 24.2515 42.5005 23.8803 42.5005 23.4978C42.3768 23.4978 42.253 23.4978 42.1255 23.4978C41.842 23.3503 41.6176 23.1748 41.5005 22.8728C41.4634 22.5806 41.4657 22.2918 41.4693 21.9978C41.4683 21.9191 41.4673 21.8405 41.4663 21.7595C41.4694 21.0326 41.4694 21.0326 41.7505 20.7478C42.1108 20.4168 42.4996 20.4615 42.9693 20.4646C43.0511 20.4643 43.1329 20.4641 43.2172 20.4638C43.3899 20.4635 43.5626 20.464 43.7354 20.4652C43.9561 20.4666 44.1767 20.4658 44.3973 20.4643C44.6088 20.4631 44.8203 20.4639 45.0318 20.4646C45.1501 20.4638 45.1501 20.4638 45.2709 20.463C45.7964 20.4686 46.0268 20.5211 46.397 20.8962C46.5609 21.255 46.5366 21.6083 46.5318 21.9978C46.5327 22.0764 46.5337 22.155 46.5347 22.236C46.5317 22.9502 46.5317 22.9502 46.2505 23.2478C45.9648 23.4838 45.8909 23.4978 45.5005 23.4978C45.5005 23.869 45.5005 24.2403 45.5005 24.6228C45.6475 24.6518 45.6475 24.6518 45.7974 24.6814C46.1162 24.7443 46.1162 24.7443 46.2569 24.7968C46.3834 24.8252 46.3834 24.8252 46.4873 24.7224C46.5252 24.6792 46.5631 24.636 46.6021 24.5915C47.1243 24.0395 47.8574 23.5501 48.6365 23.4867C49.7906 23.4566 50.7031 23.5996 51.5786 24.4196C52.2882 25.1772 52.5401 25.9976 52.5301 27.0181C52.5004 27.9076 52.1546 28.595 51.5357 29.2243C51.2972 29.4695 51.2972 29.4695 51.231 29.7946C51.2559 29.8839 51.2837 29.9724 51.313 30.0603C51.4708 30.7048 51.5343 31.3171 51.5279 31.9821C51.5276 32.0256 51.5274 32.0692 51.5272 32.114C51.5113 34.21 50.683 35.9999 49.2154 37.4782C49.144 37.5475 49.0724 37.6166 49.0005 37.6853C48.9593 37.7265 48.918 37.7678 48.8755 37.8103C48.9154 37.872 48.9553 37.9337 48.9964 37.9973C49.0485 38.0782 49.1007 38.159 49.1529 38.2399C49.1792 38.2806 49.2055 38.3213 49.2326 38.3632C49.5164 38.8037 49.5357 39.0988 49.5005 39.6228C49.3795 39.9794 49.1562 40.2138 48.8374 40.4113C48.5712 40.5199 48.3514 40.5277 48.0669 40.5251C48.0186 40.5264 47.9703 40.5276 47.9206 40.5289C47.5157 40.5285 47.2571 40.4223 46.9514 40.1474C46.7192 39.8598 46.5121 39.5592 46.313 39.2478C46.2766 39.2553 46.2402 39.2629 46.2027 39.2707C46.0313 39.3057 45.8597 39.3393 45.688 39.3728C45.633 39.3838 45.578 39.3949 45.5213 39.4063C45.0177 39.4998 44.5276 39.5194 44.0161 39.5173C43.9338 39.5172 43.8514 39.517 43.7665 39.5169C43.175 39.5108 42.6361 39.4528 42.063 39.3103C41.9382 39.2884 41.8132 39.2672 41.688 39.2478C41.6473 39.3073 41.6065 39.3668 41.5645 39.4282C41.5093 39.5074 41.4542 39.5866 41.399 39.6657C41.3723 39.7048 41.3456 39.744 41.3181 39.7843C41.099 40.0966 40.8736 40.3734 40.5005 40.4978C40.3172 40.5133 40.1336 40.5122 39.9497 40.5134C39.8752 40.5153 39.8752 40.5153 39.7992 40.5173C39.3974 40.5199 39.1429 40.4327 38.8325 40.1657C38.5203 39.8028 38.4564 39.5 38.4656 39.0268C38.5416 38.5556 38.8415 38.1817 39.1255 37.8103C39.0703 37.758 39.0151 37.7057 38.9583 37.6518C38.1385 36.8623 37.5258 36.039 37.063 34.9978C37.0329 34.9311 37.0028 34.8645 36.9717 34.7959C36.3725 33.3632 36.2668 31.5735 36.6958 30.0791C36.7457 29.8908 36.7775 29.7526 36.7505 29.5603C36.6633 29.4468 36.6633 29.4468 36.563 29.3728C36.5538 29.452 36.5538 29.452 36.5445 29.5329C36.462 30.1585 36.3236 30.602 35.8755 31.0603C35.435 31.3895 35.048 31.5166 34.5005 31.4978C34.4973 31.5313 34.4941 31.5648 34.4908 31.5993C34.3593 32.5073 33.8521 33.3215 33.1255 33.8728C32.8454 34.0612 32.5518 34.2212 32.2505 34.3728C32.2721 34.7797 32.2964 35.1988 32.5005 35.5603C32.7891 35.794 33.1768 35.8578 33.529 35.9501C33.7817 36.0259 34.0077 36.1415 34.2388 36.2673C34.2823 36.291 34.3259 36.3146 34.3707 36.339C35.1197 36.7578 35.7595 37.2793 36.3755 37.8728C36.4196 37.9129 36.4637 37.953 36.5091 37.9943C37.0637 38.5141 37.4939 39.161 37.8601 39.823C37.8868 39.8711 37.9134 39.9192 37.9409 39.9688C38.2544 40.5446 38.5201 41.1411 38.7857 41.7399C38.8352 41.8507 38.8848 41.9615 38.9345 42.0722C39.1085 42.4608 39.2818 42.8498 39.455 43.2387C39.5331 43.4138 39.6114 43.5889 39.6897 43.7639C39.7138 43.8179 39.7378 43.8719 39.7625 43.9275C39.7847 43.9769 39.8068 44.0263 39.8296 44.0771C39.8491 44.1208 39.8686 44.1644 39.8886 44.2094C39.9313 44.3103 39.9313 44.3103 40.0005 44.3728C40.2656 43.582 40.4915 42.8355 40.4785 41.9949C40.4765 41.5599 40.5846 41.2496 40.8733 40.9201C40.914 40.8864 40.9547 40.8528 40.9966 40.8181C41.0371 40.7834 41.0777 40.7488 41.1194 40.7131C41.403 40.5177 41.6473 40.4818 41.9884 40.4796C42.0299 40.4792 42.0714 40.4788 42.1142 40.4783C42.2507 40.4771 42.3872 40.4769 42.5237 40.4768C42.6191 40.4764 42.7144 40.4759 42.8097 40.4755C43.0093 40.4748 43.2089 40.4745 43.4085 40.4746C43.6637 40.4746 43.9189 40.4729 44.1741 40.4707C44.3709 40.4694 44.5677 40.4691 44.7646 40.4692C44.8586 40.469 44.9527 40.4685 45.0468 40.4675C45.1785 40.4663 45.3102 40.4666 45.442 40.4674C45.5169 40.4672 45.5917 40.467 45.6688 40.4669C45.9856 40.5142 46.1767 40.674 46.399 40.8962C46.6015 41.348 46.5672 41.8761 46.399 42.3376C46.1391 42.8918 45.7432 43.2085 45.1919 43.4548C44.9378 43.5118 44.697 43.5063 44.438 43.4978C44.4284 43.6044 44.4284 43.6044 44.4186 43.7131C44.366 44.1839 44.2732 44.6487 44.1868 45.1142C44.1679 45.2167 44.1489 45.3192 44.13 45.4217C44.0904 45.6359 44.0506 45.8501 44.0107 46.0642C43.96 46.3366 43.9099 46.6092 43.8601 46.8818C43.8212 47.0934 43.7819 47.3049 43.7425 47.5164C43.7238 47.6167 43.7054 47.7171 43.6871 47.8175C43.4702 49.0069 43.1532 50.1053 42.146 50.8754C41.2175 51.4905 40.2267 51.6399 39.1328 51.4572C38.6616 51.3244 38.2686 51.0986 37.8755 50.8103C37.8335 50.7812 37.7914 50.7521 37.7481 50.7221C37.317 50.3895 37.0344 49.9105 36.7317 49.4656C36.5412 49.1869 36.3467 48.9109 36.1529 48.6345C36.1156 48.5811 36.0784 48.5278 36.04 48.4728C36.005 48.4226 35.97 48.3725 35.9339 48.3208C35.903 48.2765 35.8721 48.2322 35.8402 48.1865C35.75 48.0595 35.6565 47.9349 35.563 47.8103C35.5424 49.0271 35.5218 50.244 35.5005 51.4978C30.8805 51.4978 26.2605 51.4978 21.5005 51.4978C21.4954 50.0592 21.4902 48.6206 21.4849 47.1384C21.4826 46.6864 21.4803 46.2345 21.478 45.7688C21.4769 45.2111 21.4769 45.2111 21.4767 44.9489C21.4764 44.7682 21.4755 44.5875 21.4741 44.4069C21.465 43.1601 21.4842 41.9453 21.9497 40.7673C21.9681 40.7193 21.9865 40.6714 22.0054 40.622C22.4418 39.5188 23.0617 38.61 23.8755 37.7478C23.9183 37.7009 23.9611 37.6541 24.0052 37.6059C24.5229 37.0595 25.1459 36.6445 25.7935 36.2673C25.8342 36.2436 25.8748 36.2198 25.9167 36.1954C26.1506 36.0661 26.3729 35.9754 26.6316 35.9072C27.0932 35.7931 27.0932 35.7931 27.5005 35.5603C27.7051 35.1992 27.729 34.7795 27.7505 34.3728C27.6961 34.3454 27.6416 34.318 27.5855 34.2897C26.6354 33.7926 26.0021 33.1378 25.6255 32.1228C25.5659 31.9147 25.5212 31.7132 25.5005 31.4978C25.4309 31.5029 25.3613 31.5081 25.2896 31.5134C24.8113 31.5117 24.3798 31.3024 24.0337 30.9792C23.6452 30.547 23.4767 30.0865 23.481 29.5056C23.481 29.4611 23.4811 29.4167 23.4811 29.3709C23.4852 29.1361 23.5022 28.9392 23.5982 28.7243C23.7382 28.3713 23.6609 28.0664 23.594 27.7001C23.4943 27.1298 23.4801 26.5701 23.4795 25.9934C23.4791 25.8925 23.4787 25.7916 23.4783 25.6907C23.4775 25.4807 23.4773 25.2707 23.4774 25.0607C23.4774 24.7934 23.4757 24.526 23.4735 24.2587C23.4721 24.0509 23.4719 23.843 23.4719 23.6352C23.4718 23.5367 23.4712 23.4382 23.4703 23.3396C23.4627 22.4941 23.5843 21.8176 24.188 21.1853C24.9822 20.4271 25.8563 20.4602 26.8919 20.4646ZM24.9612 21.9753C24.5137 22.4713 24.4908 22.9825 24.49 23.6264C24.4898 23.6877 24.4896 23.7489 24.4894 23.8121C24.4891 23.9421 24.4889 24.0721 24.4889 24.2021C24.4888 24.3958 24.4877 24.5894 24.4865 24.783C24.4721 26.2142 24.4721 26.2142 24.688 27.6228C25.0902 27.5609 25.0902 27.5609 25.5005 27.4978C25.5021 27.429 25.5037 27.3603 25.5054 27.2895C25.5331 26.469 25.6505 25.7933 26.2505 25.1853C26.5986 24.8846 26.9297 24.7025 27.3797 24.6042C27.4395 24.5824 27.4395 24.5824 27.5005 24.5603C27.577 24.3309 27.5555 24.164 27.5357 23.9235C27.5241 23.783 27.5125 23.6425 27.5005 23.4978C27.8305 23.4978 28.1605 23.4978 28.5005 23.4978C28.516 23.6512 28.5315 23.8046 28.5474 23.9626C28.5948 24.3658 28.6667 24.7065 28.8755 25.0603C28.9026 25.1075 28.9297 25.1548 28.9575 25.2036C29.1726 25.5524 29.4299 25.8072 29.7505 26.0603C29.7026 26.1489 29.6543 26.2374 29.606 26.3259C29.5792 26.3752 29.5523 26.4245 29.5247 26.4753C29.4418 26.6163 29.3512 26.744 29.2505 26.8728C28.6537 26.6781 28.2471 26.0803 27.938 25.5603C27.4587 25.5933 27.1862 25.7258 26.8599 26.0876C26.5393 26.481 26.4932 26.898 26.4914 27.3956C26.491 27.4732 26.4906 27.5509 26.4902 27.6309C26.4901 27.7149 26.4901 27.799 26.49 27.883C26.4898 27.9704 26.4896 28.0577 26.4894 28.1451C26.489 28.328 26.4889 28.5109 26.4889 28.6938C26.4889 28.9262 26.4881 29.1586 26.487 29.391C26.4863 29.5715 26.4862 29.752 26.4862 29.9325C26.4861 30.0592 26.4854 30.1859 26.4848 30.3125C26.4871 31.2884 26.6121 32.0765 27.2979 32.8076C28.0359 33.48 28.9034 33.5094 29.8515 33.5093C29.9837 33.5095 30.1159 33.5106 30.2481 33.5118C31.2415 33.516 32.0619 33.4024 32.8103 32.7004C33.4987 31.9449 33.5105 31.055 33.5132 30.0871C33.5134 30.0439 33.5136 30.0007 33.5137 29.9562C33.5147 29.728 33.5153 29.4998 33.5155 29.2717C33.5159 29.0368 33.5174 28.8021 33.5192 28.5673C33.5203 28.3857 33.5206 28.2042 33.5207 28.0226C33.5209 27.936 33.5214 27.8495 33.5223 27.7629C33.5233 27.6418 33.5231 27.5207 33.5228 27.3996C33.523 27.3309 33.5233 27.2621 33.5235 27.1913C33.4968 26.9664 33.4293 26.8162 33.313 26.6228C33.0531 26.4596 32.7631 26.4805 32.4654 26.4743C31.5551 26.4371 30.8633 26.1472 30.231 25.4782C29.7355 24.8907 29.5624 24.2503 29.5005 23.4978C29.8511 23.4978 30.2018 23.4978 30.563 23.4978C30.563 23.6421 30.563 23.7865 30.563 23.9353C30.7054 24.498 31.001 24.8891 31.481 25.2048C31.9616 25.4737 32.4398 25.496 32.981 25.5212C33.4906 25.5522 33.803 25.6461 34.149 26.0251C34.4091 26.3383 34.4588 26.6502 34.4771 27.0485C34.4795 27.0918 34.4819 27.1351 34.4844 27.1798C34.4903 27.2857 34.4955 27.3917 34.5005 27.4978C34.7686 27.539 35.0368 27.5803 35.313 27.6228C35.5335 26.5757 35.6239 25.3119 35.188 24.3103C35.1608 24.2455 35.1336 24.1807 35.1055 24.114C34.901 23.6691 34.6369 23.3006 34.313 22.9353C34.2805 22.8969 34.2481 22.8586 34.2146 22.819C33.3819 21.9045 32.1846 21.5505 30.9848 21.4908C30.6321 21.4795 30.2794 21.4802 29.9265 21.4812C29.8144 21.4811 29.7023 21.4809 29.5902 21.4808C29.3572 21.4806 29.1243 21.4809 28.8913 21.4815C28.5941 21.4822 28.2968 21.4818 27.9996 21.481C27.7688 21.4806 27.5381 21.4807 27.3074 21.481C27.1978 21.4811 27.0882 21.481 26.9786 21.4807C25.8822 21.4489 25.8822 21.4489 24.9612 21.9753ZM42.5005 21.4978C42.5005 21.8278 42.5005 22.1578 42.5005 22.4978C43.4905 22.4978 44.4805 22.4978 45.5005 22.4978C45.5005 22.1678 45.5005 21.8378 45.5005 21.4978C44.5105 21.4978 43.5205 21.4978 42.5005 21.4978ZM43.5005 23.4978C43.5005 23.8278 43.5005 24.1578 43.5005 24.4978C43.8305 24.4978 44.1605 24.4978 44.5005 24.4978C44.5005 24.1678 44.5005 23.8378 44.5005 23.4978C44.1705 23.4978 43.8405 23.4978 43.5005 23.4978ZM37.063 25.3103C36.7273 25.7823 36.5386 26.2127 36.5435 26.7985C36.5438 26.8427 36.5442 26.8869 36.5446 26.9324C36.5579 27.5082 36.7174 27.9567 37.1255 28.3728C37.2564 28.4488 37.2564 28.4488 37.3755 28.4978C37.3991 28.4538 37.4227 28.4098 37.4471 28.3645C38.1658 27.0751 39.1789 26.0451 40.5005 25.3728C40.3145 24.9706 39.9578 24.7899 39.563 24.6228C38.6867 24.3319 37.66 24.62 37.063 25.3103ZM47.6255 25.1228C47.5494 25.2536 47.5494 25.2536 47.5005 25.3728C47.5445 25.3964 47.5885 25.42 47.6338 25.4443C48.9232 26.163 49.9531 27.1762 50.6255 28.4978C51.0277 28.3118 51.2083 27.9551 51.3755 27.5603C51.5691 26.977 51.4841 26.2648 51.2217 25.7238C50.8729 25.1308 50.3559 24.7399 49.688 24.5603C49.5221 24.547 49.3653 24.5393 49.1997 24.5407C49.1555 24.5411 49.1114 24.5414 49.0658 24.5418C48.4901 24.5551 48.0416 24.7147 47.6255 25.1228ZM39.8755 26.9978C39.9635 27.1987 40.0695 27.3304 40.2271 27.4821C40.2666 27.5205 40.306 27.5588 40.3467 27.5983C40.3768 27.627 40.407 27.6557 40.438 27.6853C40.3457 27.901 40.2231 28.0384 40.0552 28.2009C40.0099 28.245 39.9646 28.2892 39.918 28.3347C39.8834 28.3679 39.8487 28.4011 39.813 28.4353C39.6121 28.3472 39.4804 28.2413 39.3286 28.0837C39.2903 28.0442 39.2519 28.0047 39.2124 27.9641C39.1838 27.9339 39.1551 27.9038 39.1255 27.8728C38.87 27.9579 38.7831 28.1295 38.6411 28.3454C38.6136 28.3873 38.586 28.4291 38.5576 28.4722C37.972 29.3876 37.6226 30.4108 37.563 31.4978C37.8724 31.4978 38.1818 31.4978 38.5005 31.4978C38.5005 31.8278 38.5005 32.1578 38.5005 32.4978C38.1911 32.4978 37.8818 32.4978 37.563 32.4978C37.6385 33.8762 38.1789 35.0374 39.0005 36.1228C39.2015 36.0347 39.3331 35.9288 39.4849 35.7712C39.5232 35.7317 39.5616 35.6922 39.6011 35.6516C39.6441 35.6064 39.6441 35.6064 39.688 35.5603C39.9038 35.6526 40.0411 35.7751 40.2036 35.9431C40.2478 35.9883 40.2919 36.0336 40.3374 36.0803C40.3706 36.1149 40.4038 36.1496 40.438 36.1853C40.35 36.3862 40.2441 36.5179 40.0865 36.6696C40.0272 36.7272 40.0272 36.7272 39.9668 36.7858C39.9367 36.8145 39.9066 36.8432 39.8755 36.8728C39.9607 37.1283 40.1322 37.2151 40.3482 37.3571C40.39 37.3847 40.4319 37.4123 40.475 37.4407C41.3904 38.0263 42.4135 38.3757 43.5005 38.4353C43.5005 38.1259 43.5005 37.8165 43.5005 37.4978C43.8305 37.4978 44.1605 37.4978 44.5005 37.4978C44.5005 37.8071 44.5005 38.1165 44.5005 38.4353C45.8789 38.3597 47.0402 37.8194 48.1255 36.9978C48.0375 36.7968 47.9316 36.6651 47.774 36.5134C47.7345 36.475 47.695 36.4367 47.6543 36.3972C47.6242 36.3685 47.5941 36.3398 47.563 36.3103C47.6553 36.0945 47.7779 35.9572 47.9458 35.7946C47.9911 35.7505 48.0364 35.7063 48.083 35.6608C48.135 35.6111 48.135 35.6111 48.188 35.5603C48.389 35.6483 48.5206 35.7542 48.6724 35.9118C48.7107 35.9513 48.7491 35.9908 48.7886 36.0314C48.8173 36.0616 48.846 36.0917 48.8755 36.1228C49.131 36.0376 49.2179 35.866 49.3599 35.6501C49.3875 35.6082 49.415 35.5664 49.4434 35.5233C50.0291 34.6079 50.3785 33.5848 50.438 32.4978C50.1286 32.4978 49.8193 32.4978 49.5005 32.4978C49.5005 32.1678 49.5005 31.8378 49.5005 31.4978C49.8099 31.4978 50.1193 31.4978 50.438 31.4978C50.3625 30.1194 49.8221 28.9581 49.0005 27.8728C48.7996 27.9608 48.6679 28.0667 48.5161 28.2243C48.4586 28.2835 48.4586 28.2835 48.3999 28.3439C48.3713 28.3741 48.3426 28.4042 48.313 28.4353C48.0973 28.3429 47.9599 28.2204 47.7974 28.0524C47.7532 28.0072 47.7091 27.9619 47.6636 27.9152C47.6138 27.8633 47.6138 27.8633 47.563 27.8103C47.651 27.6093 47.757 27.4776 47.9146 27.3259C47.9541 27.2875 47.9935 27.2492 48.0342 27.2097C48.0794 27.1666 48.0794 27.1666 48.1255 27.1228C48.0403 26.8672 47.8688 26.7804 47.6529 26.6384C47.5901 26.597 47.5901 26.597 47.5262 26.5549C46.6111 25.9689 45.5878 25.6133 44.5005 25.5603C44.5005 25.8696 44.5005 26.179 44.5005 26.4978C44.1705 26.4978 43.8405 26.4978 43.5005 26.4978C43.5005 26.1884 43.5005 25.879 43.5005 25.5603C42.1946 25.5603 40.8701 26.1823 39.8755 26.9978ZM24.813 28.8103C24.567 29.0822 24.5231 29.3051 24.5391 29.6604C24.5896 29.977 24.7553 30.1386 24.9966 30.3337C25.1979 30.4597 25.1979 30.4597 25.5005 30.4353C25.5005 29.8165 25.5005 29.1978 25.5005 28.5603C25.1534 28.5603 25.075 28.5984 24.813 28.8103ZM34.5005 28.5603C34.5005 29.179 34.5005 29.7978 34.5005 30.4353C34.9667 30.3687 35.0126 30.3607 35.313 30.0603C35.484 29.7818 35.4782 29.5028 35.438 29.1853C35.2921 28.8821 35.1093 28.7175 34.813 28.5603C34.7099 28.5603 34.6068 28.5603 34.5005 28.5603ZM28.813 34.4978C28.6153 35.327 28.6153 35.327 28.6255 35.7478C28.8252 35.8549 29.026 35.9597 29.2271 36.0642C29.2836 36.0945 29.34 36.1248 29.3982 36.1561C29.7173 36.3223 29.7173 36.3223 30.0669 36.3786C30.3337 36.2793 30.5842 36.1565 30.8365 36.0251C30.8884 35.9986 30.9404 35.972 30.9939 35.9447C31.1214 35.8795 31.2485 35.8138 31.3755 35.7478C31.3681 35.6566 31.3602 35.5654 31.3521 35.4743C31.3456 35.3982 31.3456 35.3982 31.3389 35.3205C31.3027 35.044 31.2427 34.7712 31.188 34.4978C30.4043 34.4978 29.6205 34.4978 28.813 34.4978ZM31.5435 36.7751C31.5032 36.7962 31.4628 36.8174 31.4213 36.8392C31.3223 36.8913 31.2238 36.9444 31.1255 36.9978C31.2899 37.1853 31.4844 37.293 31.6997 37.4157C31.7677 37.4546 31.8356 37.4936 31.9055 37.5336C31.9575 37.5631 32.0095 37.5925 32.063 37.6228C32.2114 37.4743 32.2203 37.3963 32.2583 37.1931C32.2688 37.1391 32.2793 37.0851 32.2901 37.0295C32.3191 36.8579 32.3191 36.8579 32.313 36.6228C32.0066 36.5155 31.8116 36.6285 31.5435 36.7751ZM27.688 36.6228C27.718 36.9708 27.7692 37.2897 27.8755 37.6228C28.2246 37.4544 28.5593 37.285 28.8755 37.0603C28.6945 36.9167 28.5119 36.8075 28.3052 36.7048C28.2509 36.6775 28.1966 36.6502 28.1407 36.622C27.946 36.5362 27.8936 36.5542 27.688 36.6228ZM33.313 37.0603C33.2506 37.3606 33.1882 37.6609 33.1261 37.9613C33.1049 38.0635 33.0837 38.1657 33.0624 38.2679C33.0319 38.4147 33.0016 38.5614 32.9712 38.7082C32.9616 38.754 32.9521 38.7999 32.9422 38.8471C32.8929 39.0768 32.8929 39.0768 32.8755 39.3103C32.3599 39.0009 31.8443 38.6915 31.313 38.3728C31.0168 38.8171 31.0679 39.1881 31.1614 39.6907C31.2077 39.9198 31.2559 40.1485 31.3047 40.3771C31.3232 40.4647 31.3417 40.5523 31.3602 40.64C31.3998 40.8276 31.4395 41.0153 31.4794 41.2029C31.5424 41.4996 31.6051 41.7964 31.6676 42.0933C31.823 42.8301 31.979 43.5668 32.135 44.3035C32.2564 44.877 32.3777 45.4506 32.4986 46.0243C32.5608 46.3193 32.6233 46.6142 32.686 46.9091C32.7249 47.0925 32.7636 47.2758 32.8022 47.4592C32.8201 47.5442 32.8381 47.6291 32.8563 47.714C32.8811 47.83 32.9054 47.9461 32.9298 48.0622C32.9435 48.1271 32.9572 48.1919 32.9714 48.2588C32.9995 48.429 33.0172 48.576 33.0005 48.7478C32.8815 48.8932 32.7666 49.0166 32.6314 49.1452C32.5939 49.1821 32.5565 49.2189 32.5179 49.2569C32.3982 49.3744 32.2775 49.4908 32.1568 49.6071C32.0362 49.7246 31.9159 49.8422 31.7957 49.96C31.7208 50.0332 31.6457 50.1062 31.5703 50.1789C31.4834 50.2632 31.398 50.3491 31.313 50.4353C31.313 50.4559 31.313 50.4765 31.313 50.4978C32.3649 50.4978 33.4168 50.4978 34.5005 50.4978C34.5005 47.6928 34.5005 44.8878 34.5005 41.9978C34.8305 41.9978 35.1605 41.9978 35.5005 41.9978C35.4959 42.1067 35.4914 42.2156 35.4866 42.3279C35.4724 42.6933 35.4624 43.0587 35.4552 43.4243C35.4507 43.6454 35.4446 43.8662 35.4345 44.0871C35.3839 45.2273 35.4661 46.0404 36.2591 46.9247C36.4641 47.1635 36.6362 47.4254 36.813 47.6853C36.8852 47.7885 36.9575 47.8916 37.0301 47.9946C37.1828 48.2127 37.3341 48.4317 37.4846 48.6513C37.5233 48.7074 37.5619 48.7634 37.6017 48.8211C37.675 48.9275 37.7479 49.0341 37.8205 49.1409C38.1338 49.5942 38.4449 49.9726 38.9536 50.2087C39.0171 50.2388 39.0806 50.269 39.146 50.3C39.6646 50.5259 40.3873 50.533 40.9185 50.3259C41.0096 50.2816 41.0997 50.235 41.188 50.1853C41.2525 50.1492 41.3169 50.1131 41.3833 50.0759C42.0653 49.5421 42.3761 48.9715 42.5296 48.1223C42.542 48.0577 42.5544 47.9932 42.5672 47.9267C42.6071 47.7188 42.6456 47.5106 42.6841 47.3024C42.7113 47.1592 42.7385 47.0159 42.7659 46.8727C42.8328 46.5206 42.8987 46.1684 42.9644 45.8162C43.0169 45.5349 43.0706 45.2537 43.1243 44.9726C43.1885 44.6353 43.2525 44.298 43.3155 43.9604C43.3272 43.8976 43.3389 43.8347 43.351 43.77C43.3789 43.6271 43.3789 43.6271 43.3755 43.4978C42.7155 43.4978 42.0555 43.4978 41.3755 43.4978C40.9218 45.024 40.468 46.5503 40.0005 48.1228C39.2505 47.9353 39.2505 47.9353 39.063 47.8728C39.111 47.5749 39.1731 47.2855 39.2681 46.999C39.2825 46.9556 39.2968 46.9122 39.3116 46.8675C39.3407 46.7815 39.3705 46.6957 39.4012 46.6102C39.5614 46.1352 39.4441 45.7776 39.2346 45.3408C39.2035 45.2739 39.2035 45.2739 39.1717 45.2056C39.1034 45.0593 39.0344 44.9133 38.9654 44.7673C38.8678 44.5588 38.7707 44.3502 38.6736 44.1416C38.6488 44.0883 38.624 44.0351 38.5984 43.9802C38.3631 43.4745 38.1387 42.9643 37.9149 42.4534C37.1543 40.6906 37.1543 40.6906 36.063 39.1228C36.0366 39.0913 36.0102 39.0599 35.9831 39.0275C35.2737 38.1851 34.4097 37.5716 33.438 37.0603C33.3968 37.0603 33.3555 37.0603 33.313 37.0603ZM25.1255 38.0603C25.0497 38.1225 25.0497 38.1225 24.9724 38.186C23.7787 39.1998 22.9952 40.6475 22.6646 42.1657C22.6548 42.2101 22.6451 42.2546 22.6351 42.3003C22.4443 43.2713 22.4922 44.283 22.4944 45.267C22.4945 45.4184 22.4946 45.5698 22.4947 45.7212C22.4949 46.1167 22.4955 46.5122 22.4962 46.9076C22.4969 47.3124 22.4972 47.7171 22.4975 48.1219C22.4981 48.9139 22.4992 49.7058 22.5005 50.4978C23.1605 50.4978 23.8205 50.4978 24.5005 50.4978C24.5005 47.6928 24.5005 44.8878 24.5005 41.9978C24.8305 41.9978 25.1605 41.9978 25.5005 41.9978C25.5005 44.8028 25.5005 47.6078 25.5005 50.4978C26.5524 50.4978 27.6043 50.4978 28.688 50.4978C28.4536 50.2242 28.2478 49.9902 27.9871 49.7524C27.9288 49.6974 27.8705 49.6424 27.8105 49.5858C27.7196 49.5004 27.6287 49.415 27.536 49.3316C27.4452 49.2496 27.3567 49.1651 27.2683 49.0805C27.2154 49.0316 27.1625 48.9827 27.108 48.9323C26.8413 48.4743 27.1371 47.7323 27.2432 47.245C27.2618 47.1583 27.2804 47.0716 27.299 46.9849C27.3387 46.7993 27.3787 46.6138 27.4188 46.4283C27.4822 46.1347 27.5451 45.841 27.6078 45.5472C27.7861 44.7123 27.9651 43.8775 28.1451 43.043C28.2446 42.5811 28.3436 42.1192 28.442 41.657C28.5041 41.3653 28.567 41.0737 28.6304 40.7822C28.6697 40.6006 28.7083 40.4189 28.7467 40.2372C28.7731 40.1134 28.8003 39.9898 28.8275 39.8662C28.9444 39.3084 28.9534 38.9137 28.7505 38.3728C28.2071 38.6823 27.6652 38.9942 27.1255 39.3103C27.1167 39.2621 27.1079 39.2139 27.0988 39.1643C27.0583 38.9434 27.0177 38.7225 26.9771 38.5017C26.9632 38.4259 26.9494 38.3501 26.9351 38.272C26.8603 37.8661 26.7809 37.4625 26.688 37.0603C26.2048 37.0603 25.4596 37.7705 25.1255 38.0603ZM29.688 37.8103C29.7499 38.0371 29.8118 38.264 29.8755 38.4978C29.958 38.4978 30.0405 38.4978 30.1255 38.4978C30.1874 38.2709 30.2493 38.044 30.313 37.8103C30.0005 37.5609 30.0005 37.5609 29.688 37.8103ZM40.0005 38.4353C39.8863 38.5644 39.8863 38.5644 39.774 38.7282C39.7147 38.8098 39.7147 38.8098 39.6543 38.893C39.5551 39.0748 39.5277 39.1694 39.563 39.3728C39.7641 39.5068 39.8777 39.532 40.1167 39.4992C40.4077 39.3601 40.5431 39.0227 40.688 38.7478C40.5971 38.6954 40.5059 38.6433 40.4146 38.5915C40.3638 38.5625 40.3131 38.5335 40.2608 38.5036C40.1322 38.4259 40.1322 38.4259 40.0005 38.4353ZM47.5865 38.5915C47.5354 38.6205 47.4843 38.6495 47.4317 38.6794C47.3925 38.702 47.3534 38.7245 47.313 38.7478C47.5257 39.1914 47.5257 39.1914 47.8843 39.4992C48.1233 39.532 48.2369 39.5068 48.438 39.3728C48.4734 39.1694 48.4459 39.0748 48.3467 38.893C48.2875 38.8114 48.2875 38.8114 48.2271 38.7282C48.1879 38.673 48.1488 38.6178 48.1084 38.561C48.055 38.4988 48.055 38.4988 48.0005 38.4353C47.8291 38.4353 47.7346 38.5069 47.5865 38.5915ZM29.938 39.4978C29.5879 41.0026 29.2515 42.5102 28.9261 44.0205C28.837 44.4339 28.747 44.8471 28.655 45.2599C28.565 45.6637 28.4773 46.068 28.3911 46.4727C28.3581 46.6259 28.3243 46.7789 28.2897 46.9316C28.2418 47.144 28.1967 47.3567 28.1522 47.5698C28.1374 47.6323 28.1226 47.6948 28.1074 47.7592C28.0393 48.079 28.0393 48.079 28.135 48.3802C28.2298 48.4926 28.3276 48.5884 28.438 48.6853C28.4985 48.7473 28.5587 48.8097 28.6183 48.8726C28.6796 48.9339 28.7411 48.9951 28.8028 49.0561C28.8519 49.1051 28.8519 49.1051 28.902 49.1551C29.005 49.2578 29.1082 49.3602 29.2115 49.4626C29.282 49.5329 29.3526 49.6031 29.4231 49.6734C29.5946 49.8442 29.7662 50.0148 29.938 50.1853C30.7024 49.8448 31.5945 49.0803 31.938 48.3103C32.13 47.4769 31.7722 46.5242 31.5449 45.7284C31.4573 45.4134 31.3814 45.0955 31.3045 44.7777C31.1831 44.2806 31.0562 43.7854 30.9246 43.2911C30.7228 42.5306 30.5582 41.7652 30.4045 40.9936C30.3477 40.7106 30.2873 40.4284 30.2266 40.1462C30.217 40.101 30.2074 40.0557 30.1975 40.0092C30.1602 39.8347 30.1195 39.6673 30.063 39.4978C30.0218 39.4978 29.9805 39.4978 29.938 39.4978ZM41.6255 41.6853C41.5046 41.8776 41.4958 42.0375 41.4981 42.2587C41.4989 42.3376 41.4997 42.4165 41.5005 42.4978C41.9175 42.5025 42.3344 42.5058 42.7514 42.5081C42.893 42.509 43.0347 42.5103 43.1763 42.5119C43.3807 42.5142 43.585 42.5152 43.7893 42.5161C43.8521 42.517 43.9148 42.518 43.9794 42.519C44.3917 42.5191 44.8273 42.4954 45.1645 42.2306C45.3768 42.0031 45.404 41.7968 45.438 41.4978C44.9553 41.493 44.4727 41.4897 43.99 41.4875C43.8258 41.4865 43.6616 41.4852 43.4975 41.4836C43.2613 41.4813 43.0252 41.4803 42.7891 41.4794C42.7158 41.4785 42.6426 41.4775 42.5671 41.4765C42.0694 41.4741 42.0694 41.4741 41.6255 41.6853Z" fill="#7B55D3"/>
<path d="M46.731 28.3307C47.6282 29.0626 48.3602 30.0739 48.5001 31.2507C48.5913 32.6082 48.4172 33.8729 47.5014 34.9325C46.676 35.8366 45.648 36.4623 44.403 36.5202C43.1098 36.5572 41.9495 36.3065 40.9728 35.4148C40.0514 34.531 39.512 33.4999 39.4751 32.211C39.4603 30.9362 39.7794 29.8145 40.6751 28.8805C42.2721 27.2816 44.8699 26.9242 46.731 28.3307ZM41.8751 29.2507C41.8355 29.2781 41.7959 29.3055 41.755 29.3337C41.1166 29.8199 40.7336 30.6096 40.5626 31.3757C40.474 32.4193 40.6242 33.2671 41.2501 34.1257C41.2775 34.1654 41.3049 34.205 41.3331 34.2458C41.807 34.8681 42.6128 35.3096 43.3751 35.4382C44.412 35.551 45.2743 35.371 46.1251 34.7507C46.1648 34.7233 46.2044 34.6959 46.2453 34.6677C46.8837 34.1815 47.2666 33.3918 47.4376 32.6257C47.5263 31.5821 47.3761 30.7343 46.7501 29.8757C46.7227 29.8361 46.6954 29.7964 46.6671 29.7556C46.181 29.1171 45.3913 28.7342 44.6251 28.5632C43.5815 28.4746 42.7337 28.6248 41.8751 29.2507Z" fill="#65C7C3"/>
<path d="M43.2041 30.4793C43.2663 30.4789 43.3285 30.4785 43.3926 30.478C43.5239 30.4774 43.6553 30.4771 43.7867 30.4771C43.9867 30.4768 44.1866 30.4746 44.3866 30.4722C44.5146 30.4718 44.6426 30.4716 44.7705 30.4715C44.8595 30.4701 44.8595 30.4701 44.9503 30.4688C45.4021 30.4718 45.7347 30.5728 46.0774 30.8731C46.1111 30.9138 46.1448 30.9545 46.1795 30.9964C46.2141 31.0369 46.2487 31.0774 46.2844 31.1192C46.5644 31.5255 46.5419 31.961 46.4998 32.4378C46.3947 32.854 46.0958 33.1369 45.7498 33.3753C45.4442 33.5395 45.1334 33.5205 44.7954 33.5213C44.7332 33.5217 44.6711 33.5221 44.607 33.5225C44.4756 33.5232 44.3442 33.5235 44.2128 33.5234C44.0128 33.5237 43.8129 33.526 43.6129 33.5284C43.485 33.5287 43.357 33.529 43.229 33.5291C43.1697 33.53 43.1104 33.5309 43.0492 33.5318C42.5975 33.5287 42.2649 33.4278 41.9221 33.1275C41.8885 33.0868 41.8548 33.0461 41.8201 33.0042C41.7854 32.9637 41.7508 32.9231 41.7151 32.8814C41.4351 32.4751 41.4576 32.0396 41.4998 31.5628C41.6048 31.1466 41.9038 30.8637 42.2498 30.6253C42.5553 30.461 42.8661 30.4801 43.2041 30.4793ZM42.6248 31.6878C42.536 31.8653 42.5426 31.9912 42.5623 32.1878C42.7018 32.3658 42.7841 32.4284 42.9998 32.5003C43.2823 32.5146 43.565 32.5145 43.8478 32.5153C43.9869 32.5159 44.1259 32.5178 44.265 32.5198C44.3541 32.5202 44.4432 32.5205 44.5322 32.5208C44.6532 32.5217 44.6532 32.5217 44.7766 32.5226C45.0182 32.4984 45.1692 32.4399 45.3748 32.3128C45.4636 32.1352 45.4569 32.0094 45.4373 31.8128C45.2978 31.6348 45.2154 31.5722 44.9998 31.5003C44.7173 31.486 44.4346 31.486 44.1517 31.4853C44.0126 31.4847 43.8736 31.4827 43.7345 31.4807C43.6454 31.4803 43.5564 31.48 43.4673 31.4798C43.3464 31.4789 43.3464 31.4789 43.223 31.478C42.9813 31.5021 42.8304 31.5607 42.6248 31.6878Z" fill="#65C7C3"/>
<path d="M31.4375 30.5C31.7881 30.5 32.1388 30.5 32.5 30.5C32.5 31.0951 32.3924 31.5268 31.9814 31.9668C31.5126 32.3883 31.0352 32.5198 30.4165 32.5122C30.3341 32.5119 30.3341 32.5119 30.25 32.5117C30.0755 32.511 29.901 32.5094 29.7266 32.5078C29.6078 32.5072 29.4891 32.5066 29.3704 32.5061C29.0802 32.5047 28.7901 32.5026 28.5 32.5C28.5 32.17 28.5 31.84 28.5 31.5C28.7068 31.4965 28.7068 31.4965 28.9177 31.4929C29.053 31.49 29.1883 31.4868 29.3236 31.4836C29.4167 31.4815 29.5099 31.4798 29.6031 31.4783C30.4698 31.4902 30.4698 31.4902 31.2148 31.1094C31.3409 30.9032 31.3409 30.9032 31.4375 30.5Z" fill="#7B55D3"/>
<path d="M32.2498 27.5038C32.4061 27.5975 32.4061 27.5975 32.4998 27.7538C32.5493 28.0051 32.5387 28.189 32.4061 28.41C32.1851 28.5426 32.0012 28.5532 31.7498 28.5038C31.5936 28.41 31.5936 28.41 31.4998 28.2538C31.4504 28.0024 31.461 27.8185 31.5936 27.5975C31.8146 27.4649 31.9985 27.4543 32.2498 27.5038Z" fill="#7B55D3"/>
<path d="M28.2498 27.5038C28.4061 27.5975 28.4061 27.5975 28.4998 27.7538C28.5493 28.0051 28.5387 28.189 28.4061 28.41C28.1851 28.5426 28.0012 28.5532 27.7498 28.5038C27.5936 28.41 27.5936 28.41 27.4998 28.2538C27.4504 28.0024 27.461 27.8185 27.5936 27.5975C27.8146 27.4649 27.9985 27.4543 28.2498 27.5038Z" fill="#7B55D3"/>
</g>
</g>
<defs>
<filter id="filter0_d_1_129995" x="0" y="0" width="74" height="74" filterUnits="userSpaceOnUse" color-interpolation-filters="sRGB">
<feFlood flood-opacity="0" result="BackgroundImageFix"/>
<feColorMatrix in="SourceAlpha" type="matrix" values="0 0 0 0 0 0 0 0 0 0 0 0 0 0 0 0 0 0 127 0" result="hardAlpha"/>
<feOffset dy="1"/>
<feGaussianBlur stdDeviation="0.5"/>
<feComposite in2="hardAlpha" operator="out"/>
<feColorMatrix type="matrix" values="0 0 0 0 0 0 0 0 0 0 0 0 0 0 0 0 0 0 0.04 0"/>
<feBlend mode="normal" in2="BackgroundImageFix" result="effect1_dropShadow_1_129995"/>
<feBlend mode="normal" in="SourceGraphic" in2="effect1_dropShadow_1_129995" result="shape"/>
</filter>
<clipPath id="clip0_1_129995">
<rect width="32" height="32" fill="white" transform="translate(21 20)"/>
</clipPath>
</defs>
</svg>
