<svg width="74" height="74" viewBox="0 0 74 74" fill="none" xmlns="http://www.w3.org/2000/svg">
<g filter="url(#filter0_d_1_130063)">
<rect x="1" width="72" height="72" rx="36" fill="white" shape-rendering="crispEdges"/>
<g clip-path="url(#clip0_1_130063)">
<path d="M28.6807 19.9872C28.7553 19.9868 28.8298 19.9864 28.9066 19.986C29.1531 19.9847 29.3996 19.984 29.6461 19.9834C29.7315 19.9831 29.8168 19.9829 29.9022 19.9826C30.3039 19.9814 30.7056 19.9805 31.1073 19.98C31.5682 19.9794 32.0291 19.9778 32.49 19.9752C32.8479 19.9733 33.2059 19.9724 33.5638 19.9722C33.7768 19.9721 33.9897 19.9715 34.2026 19.9699C35.3064 19.9628 36.36 19.9716 37.3675 20.4827C37.4113 20.5041 37.4551 20.5256 37.5002 20.5477C37.8852 20.7422 38.2303 20.9733 38.5628 21.2483C38.6425 21.3127 38.6425 21.3127 38.7237 21.3784C39.7641 22.2627 40.4618 23.5779 40.6253 24.9358C40.6925 26.1604 40.5705 27.1844 40.0675 28.3C39.9955 28.5127 39.9865 28.6024 40.0628 28.8108C40.1427 28.9333 40.1427 28.9333 40.2425 29.0451C40.6564 29.5814 40.6872 30.146 40.6253 30.8108C40.5055 31.3649 40.1693 31.8032 39.7003 32.1145C39.2838 32.3414 38.9111 32.4339 38.4378 32.4358C38.4301 32.4997 38.4224 32.5636 38.4144 32.6294C38.2344 33.7535 37.6023 34.7101 36.8128 35.4983C36.7765 35.539 36.7402 35.5798 36.7027 35.6218C36.1452 36.2369 35.2781 36.6765 34.5003 36.9358C34.4797 37.142 34.4591 37.3483 34.4378 37.5608C34.8025 37.6057 35.1672 37.6502 35.5319 37.6943C35.6558 37.7093 35.7797 37.7245 35.9036 37.7398C36.0823 37.7618 36.261 37.7834 36.4398 37.8049C36.4946 37.8118 36.5495 37.8186 36.606 37.8256C36.9276 37.8639 37.239 37.8798 37.5628 37.8733C37.5912 37.8178 37.5912 37.8178 37.6202 37.7612C37.9096 37.2154 38.2735 36.8144 38.8675 36.6077C39.1986 36.4764 39.362 36.3373 39.5775 36.0605C39.9462 35.6437 40.4632 35.4724 41.0018 35.4245C41.5933 35.4035 42.0925 35.5767 42.5628 35.9358C42.6357 36.0182 42.7062 36.1029 42.7738 36.1897C42.9943 36.4643 43.239 36.5475 43.5626 36.6694C44.0823 36.8877 44.4083 37.2331 44.6253 37.7483C44.7403 38.0371 44.764 38.274 44.7582 38.5842C44.757 38.662 44.7559 38.7399 44.7547 38.8201C44.7533 38.8789 44.7518 38.9377 44.7503 38.9983C44.6398 39.0403 44.5291 39.0819 44.4183 39.1233C44.3567 39.1465 44.295 39.1697 44.2315 39.1936C44.0628 39.2483 44.0628 39.2483 43.8753 39.2483C43.8753 39.2895 43.8753 39.3308 43.8753 39.3733C43.9259 39.3956 43.9259 39.3956 43.9774 39.4184C44.1653 39.5198 44.3241 39.6443 44.4925 39.7756C44.5454 39.8168 44.5454 39.8168 44.5993 39.8587C44.6741 39.917 44.7488 39.9754 44.8234 40.0339C44.9365 40.1222 45.05 40.21 45.1637 40.2976C45.3819 40.4664 45.5979 40.6378 45.8128 40.8108C45.898 40.8789 45.898 40.8789 45.985 40.9485C47.0918 41.8838 47.7088 43.2666 47.8753 44.6858C47.9809 46.3595 47.5029 47.8577 46.4053 49.1392C45.6235 50.0102 44.5787 50.6126 43.4378 50.8733C43.3898 50.8844 43.3418 50.8954 43.2923 50.9069C42.8828 50.9888 42.4854 51.0077 42.0694 51.0088C42.0142 51.009 41.9591 51.0093 41.9022 51.0096C41.6721 51.0103 41.4421 51.0106 41.212 51.0079C41.042 51.0062 40.8722 51.0073 40.7023 51.0088C40.6251 51.0068 40.6251 51.0068 40.5464 51.0049C40.244 51.0099 40.096 51.059 39.8798 51.2762C39.8158 51.3502 39.7518 51.4242 39.6878 51.4983C39.5397 51.6028 39.5397 51.6028 39.4105 51.6702C39.3468 51.7045 39.3468 51.7045 39.2818 51.7395C38.8562 51.9334 38.5294 52.026 38.0642 52.0225C38.0098 52.0228 37.9555 52.0232 37.8995 52.0235C37.7186 52.0244 37.5376 52.024 37.3567 52.0235C37.2264 52.0239 37.0962 52.0243 36.966 52.0248C36.6129 52.026 36.2599 52.0259 35.9068 52.0255C35.6114 52.0253 35.316 52.0257 35.0207 52.0261C34.3232 52.027 33.6256 52.0269 32.9281 52.0262C32.2104 52.0254 31.4927 52.0263 30.775 52.028C30.1575 52.0294 29.54 52.0298 28.9224 52.0294C28.5542 52.0292 28.186 52.0294 27.8178 52.0304C27.471 52.0314 27.1242 52.0312 26.7774 52.03C26.6509 52.0298 26.5243 52.0299 26.3977 52.0306C25.4624 52.0351 24.5689 51.9667 23.7269 51.5139C23.6857 51.4924 23.6444 51.4709 23.6019 51.4488C23.2413 51.2552 22.9271 51.0252 22.6253 50.7483C22.5781 50.7068 22.5309 50.6653 22.4823 50.6225C21.6884 49.8846 21.0834 48.7634 20.9884 47.6736C20.9834 47.5327 20.982 47.3922 20.9822 47.2512C20.9818 47.1983 20.9813 47.1455 20.9809 47.0911C20.9797 46.9181 20.9795 46.745 20.9794 46.572C20.9789 46.4503 20.9785 46.3287 20.9781 46.207C20.9773 45.9524 20.9771 45.6979 20.9772 45.4433C20.9772 45.1195 20.9755 44.7957 20.9733 44.4719C20.9719 44.2206 20.9717 43.9694 20.9718 43.7181C20.9716 43.5988 20.9711 43.4796 20.9701 43.3604C20.9633 42.4451 21.0476 41.6155 21.4847 40.7912C21.5062 40.7497 21.5278 40.7081 21.5499 40.6652C21.7434 40.3029 21.9719 39.9884 22.2503 39.6858C22.2972 39.6332 22.344 39.5807 22.3922 39.5266C23.3853 38.4678 24.6984 38.0935 26.0948 37.9331C26.1863 37.9222 26.2778 37.9112 26.3693 37.9003C26.6078 37.8718 26.8462 37.8439 27.0847 37.8161C27.3291 37.7876 27.5733 37.7584 27.8176 37.7294C28.2951 37.6726 28.7727 37.6165 29.2503 37.5608C29.2503 37.3545 29.2503 37.1483 29.2503 36.9358C29.173 36.9126 29.0957 36.8894 29.016 36.8655C28.3575 36.6436 27.7937 36.3022 27.2503 35.8733C27.1839 35.8213 27.1839 35.8213 27.1161 35.7683C26.3717 35.1534 25.8153 34.3135 25.473 33.4162C25.4498 33.3557 25.4498 33.3557 25.4262 33.294C25.323 33.0066 25.2795 32.7376 25.2503 32.4358C25.2094 32.4356 25.1685 32.4355 25.1263 32.4353C24.496 32.4086 23.9713 32.1928 23.5316 31.7326C23.0613 31.1418 22.9899 30.5442 23.0628 29.8108C23.1545 29.4146 23.3222 29.1333 23.6207 28.8586C23.703 28.7464 23.703 28.7464 23.6805 28.5842C23.596 28.2611 23.4733 27.955 23.3513 27.6445C22.8482 26.3277 22.902 24.7359 23.4613 23.4436C23.5149 23.3363 23.5696 23.2295 23.6253 23.1233C23.6645 23.0411 23.6645 23.0411 23.7044 22.9573C24.3418 21.6826 25.5742 20.684 26.9166 20.2341C27.5182 20.0583 28.0559 19.9887 28.6807 19.9872ZM25.2154 22.6782C24.4014 23.7092 24.0186 24.8794 24.1253 26.1858C24.1959 26.7471 24.3906 27.826 24.8128 28.2483C24.917 28.2508 25.0212 28.2509 25.1253 28.2483C25.13 28.1938 25.1347 28.1393 25.1395 28.0832C25.2199 27.3552 25.4305 26.7403 25.9784 26.2326C26.2547 26.027 26.5623 25.8887 26.8753 25.7483C26.9589 25.7071 27.0423 25.6656 27.1253 25.6233C27.0858 25.551 27.0858 25.551 27.0455 25.4773C27.0113 25.4146 26.977 25.3519 26.9418 25.2873C26.9077 25.225 26.8736 25.1626 26.8385 25.0984C26.7869 25.0032 26.7362 24.9076 26.6878 24.8108C26.7394 24.7953 26.791 24.7798 26.8441 24.7639C27.0596 24.6869 27.2529 24.5931 27.4544 24.4861C27.5628 24.4358 27.5628 24.4358 27.6878 24.4358C27.7542 24.5349 27.8158 24.6371 27.8753 24.7405C28.4282 25.6292 29.2496 26.2061 30.2503 26.4983C30.4153 26.5189 30.5803 26.5395 30.7503 26.5608C30.771 25.8595 30.7916 25.1583 30.8128 24.4358C30.9546 24.5801 31.0964 24.7245 31.2425 24.8733C32.2178 25.8506 33.2726 26.5726 34.6878 26.6858C34.5208 26.0065 34.2874 25.3476 34.0628 24.6858C34.6457 24.9557 35.2241 25.2338 35.798 25.5222C35.8695 25.5581 35.8695 25.5581 35.9425 25.5948C36.1848 25.7166 36.4269 25.8388 36.6688 25.9614C36.7592 26.007 36.8496 26.0526 36.94 26.0981C36.9821 26.1196 37.0242 26.141 37.0675 26.1632C37.2737 26.2741 37.2737 26.2741 37.5003 26.3108C37.442 25.927 37.3554 25.5837 37.0628 25.3108C36.9597 25.2695 36.8566 25.2283 36.7503 25.1858C36.9153 24.8558 37.0803 24.5258 37.2503 24.1858C37.8387 24.5388 38.2195 24.9345 38.4486 25.5891C38.5618 26.0741 38.5434 26.5768 38.5472 27.0725C38.549 27.1868 38.5509 27.3011 38.5528 27.4154C38.5574 27.693 38.5605 27.9706 38.5628 28.2483C38.666 28.2483 38.7691 28.2483 38.8753 28.2483C39.5443 27.0342 39.7317 25.7147 39.3753 24.3733C38.9832 23.2093 38.186 22.1969 37.1129 21.5845C36.3433 21.2056 35.5752 21.0419 34.724 21.0426C34.6212 21.042 34.6212 21.042 34.5164 21.0413C34.2916 21.0402 34.0667 21.0399 33.8419 21.0398C33.6842 21.0394 33.5265 21.039 33.3688 21.0385C33.0386 21.0378 32.7084 21.0375 32.3782 21.0376C31.9993 21.0377 31.6205 21.0364 31.2416 21.0344C30.8742 21.0325 30.5068 21.0321 30.1394 21.0322C29.9845 21.032 29.8296 21.0315 29.6747 21.0305C27.9272 21.0206 26.4208 21.3219 25.2154 22.6782ZM26.641 27.0764C26.1785 27.5635 26.1509 28.1423 26.1568 28.7842C26.1567 28.8643 26.1567 28.9444 26.1566 29.027C26.1565 29.1959 26.1573 29.3647 26.1587 29.5336C26.1605 29.7472 26.1603 29.9608 26.1595 30.1744C26.1478 31.4128 26.1478 31.4128 26.3753 32.6233C26.389 32.671 26.4027 32.7188 26.4168 32.768C26.7972 33.9675 27.6676 34.9649 28.7616 35.5664C29.2592 35.8239 29.7572 35.9814 30.3128 36.0608C30.3128 36.6177 30.3128 37.1745 30.3128 37.7483C31.0884 38.2823 31.0884 38.2823 31.9944 38.4816C32.3174 38.382 32.5986 38.2166 32.8726 38.0206C33.0314 37.9152 33.2049 37.8335 33.3753 37.7483C33.3753 37.1914 33.3753 36.6345 33.3753 36.0608C33.6847 35.9989 33.6847 35.9989 34.0003 35.9358C34.8412 35.6804 35.5026 35.2354 36.1253 34.6233C36.1645 34.5849 36.2037 34.5466 36.244 34.5071C37.2517 33.4401 37.5238 32.0252 37.5126 30.6064C37.5123 30.5179 37.5121 30.4294 37.512 30.3409C37.5115 30.1108 37.5103 29.8808 37.5089 29.6507C37.5076 29.4148 37.5071 29.1789 37.5065 28.943C37.5051 28.4822 37.5029 28.0215 37.5003 27.5608C37.0053 27.3133 36.5103 27.0658 36.0003 26.8108C35.92 27.0517 35.975 27.1485 36.0589 27.385C36.0946 27.4869 36.0946 27.4869 36.131 27.5908C36.1497 27.6428 36.1685 27.6947 36.1878 27.7483C34.8321 27.7334 33.649 27.6831 32.3998 27.0974C32.2276 27.0169 32.0519 26.9439 31.8753 26.8733C31.8753 27.2033 31.8753 27.5333 31.8753 27.8733C29.2262 27.3907 29.2262 27.3907 28.1578 26.6103C27.7927 26.3505 26.9615 26.8194 26.641 27.0764ZM24.4378 29.5608C24.1793 29.8856 24.0845 30.1457 24.1253 30.5608C24.2501 30.8328 24.414 31.1114 24.6878 31.2483C24.8322 31.2689 24.9766 31.2895 25.1253 31.3108C25.1253 30.6508 25.1253 29.9908 25.1253 29.3108C24.8556 29.3108 24.6612 29.4135 24.4378 29.5608ZM38.5628 29.3108C38.5628 29.9708 38.5628 30.6308 38.5628 31.3108C38.9961 31.2489 39.0903 31.2337 39.3753 30.9358C39.5482 30.6458 39.5994 30.4075 39.5487 30.0784C39.4373 29.7498 39.191 29.5057 38.891 29.342C38.7439 29.304 38.7439 29.304 38.5628 29.3108ZM40.2147 37.001C40.1118 37.1623 40.0234 37.3272 39.9378 37.4983C39.7945 37.529 39.7945 37.529 39.6136 37.553C39.2291 37.6163 38.9354 37.7445 38.6878 38.0608C38.6878 38.1227 38.6878 38.1845 38.6878 38.2483C39.4315 38.5753 40.1221 38.6096 40.9263 38.6015C41.1251 38.5998 41.3236 38.6015 41.5223 38.6035C42.2606 38.6046 42.8818 38.5477 43.5628 38.2483C43.5039 37.9847 43.4126 37.8768 43.2066 37.7041C43.0284 37.6039 42.8829 37.5918 42.68 37.5725C42.3425 37.5326 42.3425 37.5326 42.2062 37.375C42.1554 37.2758 42.1076 37.175 42.0633 37.0727C41.9408 36.8063 41.698 36.6735 41.4378 36.5608C40.9378 36.48 40.5291 36.5919 40.2147 37.001ZM29.5003 38.6233C29.6653 39.1389 29.8303 39.6545 30.0003 40.1858C30.2177 40.1858 30.2574 40.1504 30.4249 40.0217C30.4694 39.9879 30.5139 39.954 30.5598 39.9192C30.6059 39.8834 30.652 39.8476 30.6996 39.8108C30.7464 39.775 30.7933 39.7392 30.8415 39.7024C30.9573 39.6139 31.0727 39.525 31.1878 39.4358C30.9156 39.2215 30.6179 39.078 30.3089 38.9241C30.252 38.8951 30.1951 38.8661 30.1365 38.8363C30.0818 38.8089 30.0271 38.7816 29.9708 38.7534C29.921 38.7284 29.8712 38.7034 29.8199 38.6777C29.6828 38.6114 29.6828 38.6114 29.5003 38.6233ZM33.6188 38.7737C33.5266 38.8202 33.5266 38.8202 33.4326 38.8677C33.3366 38.9168 33.3366 38.9168 33.2386 38.967C33.1415 39.0162 33.1415 39.0162 33.0425 39.0664C32.8824 39.1475 32.7226 39.229 32.5628 39.3108C32.5628 39.3727 32.5628 39.4345 32.5628 39.4983C32.656 39.5941 32.656 39.5941 32.7816 39.6806C32.8493 39.7305 32.8493 39.7305 32.9183 39.7814C32.966 39.8156 33.0137 39.8498 33.0628 39.885C33.1105 39.9199 33.1582 39.9548 33.2074 39.9908C33.3255 40.0772 33.444 40.163 33.5628 40.2483C33.7032 40.108 33.7337 40.0171 33.7958 39.8306C33.8151 39.7726 33.8344 39.7146 33.8544 39.6549C33.8841 39.5638 33.8841 39.5638 33.9144 39.4709C33.9347 39.4105 33.955 39.35 33.9759 39.2877C34.0885 38.9622 34.0885 38.9622 34.1253 38.6233C33.9084 38.6233 33.8109 38.6759 33.6188 38.7737ZM35.2503 38.8108C35.2126 38.9223 35.2126 38.9223 35.174 39.0361C35.0796 39.3145 34.9849 39.5929 34.8902 39.8713C34.8494 39.9913 34.8087 40.1113 34.768 40.2313C34.7092 40.4048 34.6502 40.5783 34.5912 40.7517C34.5733 40.8045 34.5555 40.8573 34.5371 40.9118C34.4116 41.2792 34.2719 41.6387 34.1253 41.9983C33.8778 41.8127 33.6303 41.627 33.3753 41.4358C33.1995 41.6699 33.1995 41.6699 33.0472 41.9162C33.025 41.9539 33.0027 41.9915 32.9798 42.0303C32.8428 42.5378 33.081 43.1839 33.1842 43.6919C33.2023 43.7822 33.2205 43.8724 33.2386 43.9627C33.2859 44.1986 33.3336 44.4343 33.3813 44.6701C33.4301 44.9114 33.4786 45.1528 33.5271 45.3941C33.6221 45.8664 33.7174 46.3386 33.8128 46.8108C34.0603 46.8108 34.3078 46.8108 34.5628 46.8108C34.5493 46.7042 34.5493 46.7042 34.5355 46.5954C34.3355 44.9602 34.4562 43.3291 35.441 41.9429C35.5615 41.7911 35.6854 41.6442 35.8128 41.4983C35.8612 41.4372 35.9095 41.3761 35.9593 41.3132C36.125 41.1143 36.3177 40.9583 36.5238 40.803C36.6012 40.7434 36.6786 40.6839 36.756 40.6243C36.7959 40.5936 36.8359 40.5629 36.877 40.5314C37.1244 40.3396 37.3672 40.142 37.6104 39.945C37.7975 39.7944 37.9861 39.6513 38.1842 39.5154C38.2473 39.4685 38.3104 39.4216 38.3753 39.3733C38.3753 39.332 38.3753 39.2908 38.3753 39.2483C37.8687 39.09 37.3613 39.0042 36.8357 38.9398C36.7068 38.924 36.5781 38.9073 36.4494 38.8905C36.0467 38.8394 35.6563 38.8053 35.2503 38.8108ZM27.4437 38.8703C27.3911 38.8767 27.3384 38.883 27.2842 38.8896C27.173 38.9031 27.0619 38.9168 26.9507 38.9306C26.7839 38.9511 26.617 38.9707 26.4501 38.9902C25.0053 39.165 23.8413 39.5253 22.8597 40.6702C22.1601 41.5846 22.033 42.6091 22.0357 43.7202C22.0355 43.8245 22.0351 43.9289 22.0348 44.0332C22.0342 44.2507 22.0343 44.4682 22.035 44.6858C22.0357 44.9616 22.0344 45.2375 22.0326 45.5133C22.0314 45.7285 22.0315 45.9437 22.0318 46.1589C22.0318 46.2605 22.0315 46.3621 22.0307 46.4636C22.0222 47.7419 22.3178 48.848 23.2247 49.7954C24.1599 50.6669 25.2048 50.9677 26.464 50.9571C26.551 50.957 26.6379 50.957 26.7249 50.9571C26.9582 50.9572 27.1914 50.9561 27.4247 50.9548C27.6695 50.9536 27.9144 50.9535 28.1592 50.9533C28.6216 50.9527 29.0839 50.9512 29.5463 50.9493C30.0732 50.9472 30.6001 50.9461 31.127 50.9452C32.2098 50.9433 33.2926 50.9398 34.3753 50.9358C34.3753 49.9251 34.3753 48.9145 34.3753 47.8733C33.4197 47.8549 32.4641 47.8399 31.5083 47.8312C31.0644 47.827 30.6206 47.8213 30.1768 47.812C29.7896 47.8038 29.4025 47.7986 29.0152 47.7968C28.8104 47.7958 28.6059 47.7929 28.4011 47.7874C27.4803 47.7252 27.4803 47.7252 26.6605 48.0618C26.5122 48.2029 26.3889 48.3525 26.2675 48.5169C26.2206 48.5727 26.1737 48.6284 26.1253 48.6858C25.929 48.6882 25.877 48.6247 25.7279 48.4941C25.6786 48.4426 25.6293 48.3912 25.5785 48.3381C25.5285 48.2865 25.4786 48.2348 25.4271 48.1816C25.3894 48.1417 25.3517 48.1019 25.3128 48.0608C25.41 47.807 25.5796 47.6877 25.7848 47.5163C26.0658 47.2544 26.1893 47.0303 26.2064 46.6381C26.21 46.4533 26.2051 46.2696 26.1991 46.0849C26.1983 45.9859 26.1977 45.8869 26.1975 45.7879C26.1962 45.5817 26.1928 45.3756 26.1875 45.1694C26.1808 44.9058 26.1779 44.6423 26.1764 44.3786C26.1748 44.1258 26.1714 43.8729 26.1678 43.6201C26.1673 43.5723 26.1667 43.5245 26.1662 43.4753C26.1643 43.3395 26.1611 43.2038 26.1575 43.068C26.1559 42.991 26.1542 42.914 26.1525 42.8346C26.1227 42.6029 26.0529 42.45 25.9378 42.2483C25.8962 42.1649 25.8545 42.0816 25.8128 41.9983C25.9108 41.8919 26.01 41.7866 26.1097 41.6819C26.1648 41.6231 26.2199 41.5644 26.2767 41.5039C26.4378 41.3733 26.4378 41.3733 26.5711 41.3662C26.7352 41.464 26.7925 41.5729 26.8832 41.7405C26.9143 41.7957 26.9454 41.851 26.9774 41.9079C27.212 42.4991 27.2084 43.1252 27.2137 43.7529C27.2149 43.8416 27.2161 43.9303 27.2174 44.019C27.2206 44.2501 27.2231 44.4812 27.2254 44.7122C27.2284 44.9908 27.2322 45.2693 27.2359 45.5478C27.2414 45.9688 27.2458 46.3898 27.2503 46.8108C28.096 46.8108 28.9416 46.8108 29.8128 46.8108C29.9021 46.5431 29.9719 46.2999 30.0286 46.0262C30.0536 45.9061 30.0536 45.9061 30.0791 45.7835C30.0968 45.6969 30.1145 45.6103 30.1322 45.5237C30.1457 45.4577 30.1457 45.4577 30.1595 45.3903C30.207 45.1577 30.2543 44.9251 30.3013 44.6924C30.3498 44.4527 30.3994 44.2132 30.4493 43.9737C30.4876 43.7888 30.525 43.6038 30.5622 43.4187C30.5801 43.3304 30.5983 43.2421 30.6169 43.1538C30.6428 43.0303 30.6674 42.9066 30.6919 42.7828C30.7063 42.7126 30.7206 42.6424 30.7354 42.5701C30.7595 42.2525 30.6358 42.0019 30.4925 41.7248C30.4594 41.6603 30.4594 41.6603 30.4256 41.5945C30.409 41.5627 30.3924 41.531 30.3753 41.4983C30.1438 41.536 30.0091 41.6373 29.8285 41.7834C29.7785 41.8235 29.7286 41.8635 29.6771 41.9048C29.6394 41.9356 29.6017 41.9665 29.5628 41.9983C29.45 41.829 29.3948 41.7044 29.3319 41.5141C29.3118 41.4541 29.2918 41.394 29.2712 41.3321C29.25 41.2675 29.2288 41.2028 29.2069 41.1362C29.1849 41.0699 29.1629 41.0036 29.1402 40.9352C29.0699 40.7233 28.9999 40.5112 28.93 40.2991C28.8825 40.1554 28.8348 40.0117 28.7872 39.868C28.6705 39.5157 28.554 39.1633 28.4378 38.8108C28.1013 38.804 27.7776 38.8295 27.4437 38.8703ZM38.8481 40.3401C38.7265 40.4591 38.596 40.56 38.4581 40.6594C38.4197 40.6877 38.3814 40.7161 38.3418 40.7453C38.3052 40.772 38.2686 40.7988 38.2308 40.8264C37.0478 41.7053 36.0873 42.5506 35.6253 43.9983C35.61 44.0465 35.5946 44.0946 35.5787 44.1443C35.4371 44.7009 35.4896 45.3034 35.5003 45.8733C35.5639 45.8632 35.5639 45.8632 35.6288 45.853C36.139 45.7873 36.5978 45.82 37.0238 46.135C37.1841 46.3068 37.2076 46.3661 37.2738 46.5764C37.3251 46.7131 37.3251 46.7131 37.4378 46.8108C37.6418 46.8469 37.8307 46.8565 38.037 46.8598C38.7339 46.8715 39.3569 47.0843 39.8753 47.5608C40.5051 48.2704 40.604 49.0261 40.6253 49.9358C42.3138 49.9635 43.9321 49.9366 45.233 48.7001C45.3227 48.6126 45.4115 48.5242 45.5003 48.4358C45.5468 48.3915 45.5933 48.3472 45.6412 48.3015C46.4264 47.4994 46.7697 46.3462 46.7816 45.2483C46.7684 44.032 46.3522 42.9039 45.4859 42.0395C45.4288 41.9847 45.3717 41.9298 45.3128 41.8733C45.2397 41.8016 45.2397 41.8016 45.1651 41.7285C44.8243 41.4083 44.4547 41.1303 44.0792 40.8528C43.693 40.5671 43.3183 40.2686 42.9447 39.9668C42.8806 39.9153 42.8164 39.8638 42.7503 39.8108C42.7173 39.7776 42.6842 39.7444 42.6501 39.7102C42.4147 39.5736 42.1775 39.584 41.9095 39.5764C41.8221 39.5739 41.8221 39.5739 41.7328 39.5714C41.6091 39.5685 41.4853 39.5662 41.3615 39.5645C41.2366 39.562 41.1117 39.5578 40.987 39.5517C40.0377 39.5052 39.523 39.665 38.8481 40.3401ZM31.5277 40.5295C31.4502 40.5904 31.4502 40.5904 31.3712 40.6526C31.3313 40.6842 31.2914 40.7157 31.2503 40.7483C31.3436 41.059 31.4756 41.3369 31.6253 41.6233C31.7697 41.6233 31.9141 41.6233 32.0628 41.6233C32.1292 41.5041 32.194 41.3842 32.2582 41.2639C32.2944 41.1972 32.3307 41.1305 32.368 41.0618C32.4549 40.8832 32.4549 40.8832 32.4005 40.7346C32.3062 40.6148 32.2163 40.5367 32.0902 40.4514C32.0514 40.4247 32.0127 40.3979 31.9728 40.3703C31.7765 40.2503 31.6933 40.3989 31.5277 40.5295ZM31.7503 42.7483C31.4822 44.0889 31.2141 45.4295 30.9378 46.8108C31.5153 46.8108 32.0928 46.8108 32.6878 46.8108C32.6383 46.2994 32.6383 46.2994 32.5551 45.7993C32.5345 45.6961 32.5345 45.6961 32.5134 45.5909C32.4914 45.4829 32.4914 45.4829 32.4689 45.3728C32.4537 45.2974 32.4385 45.222 32.4229 45.1443C32.3748 44.9054 32.3262 44.6667 32.2777 44.428C32.2448 44.2652 32.212 44.1024 32.1792 43.9397C32.0991 43.5425 32.0186 43.1454 31.9378 42.7483C31.876 42.7483 31.8141 42.7483 31.7503 42.7483ZM35.5628 47.2483C35.4811 47.4117 35.4928 47.5315 35.4933 47.7145C35.4933 47.7858 35.4933 47.8571 35.4933 47.9306C35.4936 48.0079 35.4939 48.0852 35.4942 48.1648C35.4943 48.2437 35.4944 48.3226 35.4945 48.4039C35.4948 48.6137 35.4954 48.8235 35.4961 49.0333C35.4967 49.2474 35.497 49.4614 35.4973 49.6755C35.498 50.0956 35.499 50.5157 35.5003 50.9358C35.8906 50.942 36.2808 50.9465 36.6711 50.9495C36.8037 50.9508 36.9362 50.9525 37.0688 50.9546C37.2601 50.9577 37.4514 50.9591 37.6427 50.9602C37.7306 50.9621 37.7306 50.9621 37.8203 50.9641C38.3041 50.9643 38.6924 50.834 39.0824 50.5452C39.3909 50.2294 39.5387 49.8644 39.5824 49.428C39.5427 48.9358 39.3575 48.5437 38.9918 48.2109C38.6124 47.9254 38.19 47.865 37.7257 47.8672C37.613 47.8675 37.613 47.8675 37.498 47.8678C37.4202 47.8683 37.3423 47.8688 37.2621 47.8694C37.183 47.8697 37.1039 47.8699 37.0224 47.8702C36.8276 47.871 36.6327 47.872 36.4378 47.8733C36.4407 47.822 36.4436 47.7708 36.4466 47.718C36.4489 47.6506 36.4511 47.5833 36.4535 47.5139C36.4578 47.4138 36.4578 47.4138 36.4623 47.3118C36.4324 47.081 36.3694 47.0134 36.1878 46.8733C35.8544 46.7878 35.7457 46.9944 35.5628 47.2483Z" fill="#7B55D3"/>
<path d="M50.3751 22.0625C50.7464 22.0625 51.1176 22.0625 51.5001 22.0625C51.5311 22.5884 51.5311 22.5884 51.5626 23.125C51.7018 23.1869 51.7018 23.1869 51.8439 23.25C52.4448 23.5522 52.7902 23.9954 53.0001 24.625C53.0082 24.8129 53.0029 24.9993 53.0001 25.1875C52.6495 25.1875 52.2989 25.1875 51.9376 25.1875C51.9144 25.1011 51.8912 25.0148 51.8673 24.9258C51.7658 24.6172 51.6411 24.4936 51.3751 24.3125C51.2248 24.2373 51.1187 24.2373 50.9508 24.2302C50.892 24.2276 50.8332 24.225 50.7726 24.2223C50.6803 24.2186 50.6803 24.2186 50.5861 24.2148C50.524 24.2121 50.462 24.2094 50.3981 24.2067C50.2446 24.2 50.0911 24.1936 49.9376 24.1875C49.9431 24.3777 49.9498 24.5677 49.9572 24.7578C49.9586 24.8113 49.96 24.8648 49.9614 24.9199C49.9794 25.3448 50.0517 25.6085 50.3546 25.9238C50.603 26.0894 50.7877 26.1231 51.0783 26.1562C51.7417 26.2551 52.1824 26.4445 52.6383 26.9519C52.9345 27.4105 53.0374 27.845 53.0245 28.3853C53.0242 28.4426 53.0238 28.5 53.0235 28.5591C53.0221 28.74 53.019 28.9207 53.0158 29.1016C53.0145 29.2252 53.0134 29.3488 53.0123 29.4724C53.0098 29.7733 53.0049 30.0741 53.0001 30.375C52.5051 30.375 52.0101 30.375 51.5001 30.375C51.5001 30.705 51.5001 31.035 51.5001 31.375C51.1289 31.375 50.7576 31.375 50.3751 31.375C50.3751 31.0037 50.3751 30.6325 50.3751 30.25C50.272 30.2294 50.1689 30.2087 50.0626 30.1875C49.5241 29.9415 49.141 29.5006 48.9196 28.9575C48.8474 28.7221 48.8282 28.4953 48.8126 28.25C49.1839 28.25 49.5551 28.25 49.9376 28.25C49.9995 28.415 50.0614 28.58 50.1251 28.75C50.2881 28.9999 50.404 29.1021 50.6876 29.1875C50.9022 29.2111 51.1165 29.2192 51.3322 29.2266C51.3904 29.229 51.4486 29.2314 51.5086 29.2339C51.6516 29.2398 51.7946 29.2451 51.9376 29.25C51.9338 29.0624 51.9284 28.875 51.922 28.6875C51.9211 28.6351 51.9202 28.5826 51.9193 28.5286C51.9052 28.1646 51.8418 27.8624 51.6251 27.5625C51.3428 27.337 51.0522 27.298 50.6993 27.2578C50.1639 27.1918 49.7174 27.0043 49.3478 26.6016C48.7746 25.8467 48.7951 25.0235 48.8048 24.1172C48.8054 24.0146 48.806 23.9121 48.8065 23.8096C48.8078 23.5605 48.8102 23.3115 48.8126 23.0625C49.3283 23.0625 49.8439 23.0625 50.3751 23.0625C50.3751 22.7325 50.3751 22.4025 50.3751 22.0625Z" fill="#65C7C3"/>
<path d="M45.7501 30.3125C46.1007 30.3125 46.4513 30.3125 46.8126 30.3125C46.8126 30.6838 46.8126 31.055 46.8126 31.4375C46.9363 31.4787 47.0601 31.52 47.1876 31.5625C47.5054 31.7563 47.6745 32.0364 47.8126 32.375C47.8522 32.5663 47.8658 32.7414 47.8751 32.9375C47.5038 32.9375 47.1326 32.9375 46.7501 32.9375C46.7088 32.8344 46.6676 32.7313 46.6251 32.625C46.4633 32.4632 46.3734 32.4766 46.1485 32.4609C46.0859 32.4563 46.0232 32.4516 45.9586 32.4468C45.9104 32.4437 45.8622 32.4407 45.8126 32.4375C45.8164 32.5365 45.8219 32.6355 45.8282 32.7344C45.8311 32.7895 45.834 32.8446 45.837 32.9014C45.8865 33.1108 45.9537 33.1837 46.1251 33.3125C46.3095 33.3691 46.3095 33.3691 46.5118 33.3984C46.963 33.4936 47.3245 33.6319 47.6017 34.0156C47.8207 34.3941 47.8831 34.6838 47.8812 35.1221C47.8811 35.1633 47.881 35.2046 47.8809 35.2471C47.8806 35.3783 47.8798 35.5095 47.879 35.6406C47.8787 35.7298 47.8784 35.819 47.8781 35.9082C47.8775 36.1263 47.8763 36.3444 47.8751 36.5625C47.5245 36.5625 47.1738 36.5625 46.8126 36.5625C46.8126 36.8925 46.8126 37.2225 46.8126 37.5625C46.462 37.5625 46.1113 37.5625 45.7501 37.5625C45.7501 37.1912 45.7501 36.82 45.7501 36.4375C45.6263 36.3962 45.5026 36.355 45.3751 36.3125C44.9837 35.9944 44.7731 35.6186 44.6876 35.125C44.6876 35.0631 44.6876 35.0012 44.6876 34.9375C45.0588 34.9375 45.4301 34.9375 45.8126 34.9375C45.8745 35.0613 45.9363 35.185 46.0001 35.3125C46.1522 35.3886 46.2762 35.395 46.4454 35.4102C46.5307 35.418 46.5307 35.418 46.6178 35.426C46.6614 35.4298 46.7051 35.4336 46.7501 35.4375C46.7446 35.3268 46.7379 35.2161 46.7306 35.1055C46.7269 35.0438 46.7233 34.9822 46.7196 34.9187C46.6988 34.7528 46.6988 34.7528 46.6178 34.6396C46.4453 34.5266 46.2766 34.5073 46.0743 34.4727C45.5286 34.3633 45.1846 34.1495 44.8751 33.6875C44.6513 33.1907 44.6651 32.6832 44.6759 32.1484C44.6767 32.0678 44.6776 31.9871 44.6784 31.9041C44.6806 31.7069 44.684 31.5097 44.6876 31.3125C45.0382 31.3125 45.3888 31.3125 45.7501 31.3125C45.7501 30.9825 45.7501 30.6525 45.7501 30.3125Z" fill="#65C7C3"/>
<path d="M40.5628 40.625C40.9341 40.625 41.3053 40.625 41.6878 40.625C41.6918 41.1719 41.6918 41.1719 41.6896 41.343C41.6943 41.4891 41.7046 41.6108 41.7503 41.75C41.8544 41.8422 41.9528 41.8926 42.0794 41.9493C42.3531 42.0772 42.5109 42.4033 42.6488 42.6602C42.6878 42.8125 42.6878 42.8125 42.6878 43.25C42.3372 43.25 41.9866 43.25 41.6253 43.25C41.5635 43.1263 41.5016 43.0025 41.4378 42.875C41.2773 42.7947 41.14 42.7919 40.9613 42.7773C40.8986 42.7721 40.8359 42.7669 40.7713 42.7615C40.7232 42.7577 40.675 42.7539 40.6253 42.75C40.6325 42.8386 40.6405 42.9271 40.6488 43.0156C40.6531 43.0649 40.6575 43.1142 40.662 43.165C40.6912 43.3314 40.709 43.4278 40.8128 43.5625C40.9659 43.6158 41.1048 43.6542 41.2621 43.6875C41.8148 43.8215 42.1431 43.9617 42.484 44.4314C42.6693 44.7394 42.7029 44.9835 42.7001 45.343C42.6999 45.387 42.6997 45.4309 42.6995 45.4762C42.6988 45.6157 42.6973 45.7551 42.6957 45.8945C42.695 45.9895 42.6945 46.0844 42.694 46.1793C42.6927 46.4112 42.6902 46.6431 42.6878 46.875C42.3578 46.875 42.0278 46.875 41.6878 46.875C41.6878 47.205 41.6878 47.535 41.6878 47.875C41.3166 47.875 40.9453 47.875 40.5628 47.875C40.5628 47.5037 40.5628 47.1325 40.5628 46.75C40.4597 46.7087 40.3566 46.6675 40.2503 46.625C39.892 46.3978 39.669 46.0998 39.5628 45.6875C39.5628 45.5431 39.5628 45.3987 39.5628 45.25C39.9135 45.25 40.2641 45.25 40.6253 45.25C40.6872 45.3738 40.7491 45.4975 40.8128 45.625C40.9734 45.7053 41.1107 45.7081 41.2894 45.7227C41.3834 45.7305 41.3834 45.7305 41.4794 45.7385C41.5275 45.7423 41.5757 45.7461 41.6253 45.75C41.6165 45.6614 41.6073 45.5729 41.598 45.4844C41.5929 45.4351 41.5879 45.3858 41.5826 45.335C41.5643 45.1985 41.5366 45.0702 41.5003 44.9375C41.4294 44.9238 41.3585 44.9101 41.2855 44.896C40.2096 44.6751 40.2096 44.6751 39.8414 44.1838C39.6184 43.8434 39.5537 43.5752 39.5567 43.1692C39.5568 43.1251 39.5569 43.0809 39.557 43.0355C39.5574 42.8947 39.5581 42.754 39.5589 42.6133C39.5593 42.5178 39.5595 42.4223 39.5598 42.3268C39.5604 42.0929 39.5617 41.8589 39.5628 41.625C39.8928 41.625 40.2228 41.625 40.5628 41.625C40.5628 41.295 40.5628 40.965 40.5628 40.625Z" fill="#65C7C3"/>
<path d="M42.6253 22.0625C42.9966 22.0625 43.3678 22.0625 43.7503 22.0625C43.7503 22.4338 43.7503 22.805 43.7503 23.1875C43.8741 23.2287 43.9978 23.27 44.1253 23.3125C44.2669 23.4368 44.2669 23.4368 44.391 23.582C44.4325 23.6295 44.4741 23.6769 44.5169 23.7258C44.7658 24.0683 44.7503 24.235 44.7503 24.6875C44.3997 24.6875 44.0491 24.6875 43.6878 24.6875C43.626 24.5638 43.5641 24.44 43.5003 24.3125C43.3398 24.2322 43.2025 24.2294 43.0238 24.2148C42.9611 24.2096 42.8984 24.2044 42.8338 24.199C42.7857 24.1952 42.7375 24.1914 42.6878 24.1875C42.6995 24.4551 42.7224 24.6874 42.8324 24.9336C43.0627 25.1104 43.2769 25.114 43.5604 25.1516C43.9892 25.2326 44.2708 25.4941 44.5487 25.8162C44.7441 26.1255 44.7654 26.4278 44.7625 26.7866C44.7624 26.8305 44.7622 26.8743 44.762 26.9195C44.7613 27.0583 44.7597 27.1971 44.7581 27.3359C44.7575 27.4306 44.757 27.5252 44.7564 27.6199C44.7552 27.8508 44.7527 28.0816 44.7503 28.3125C44.4203 28.3125 44.0903 28.3125 43.7503 28.3125C43.7503 28.6425 43.7503 28.9725 43.7503 29.3125C43.3791 29.3125 43.0078 29.3125 42.6253 29.3125C42.6266 29.1346 42.6279 28.9567 42.6292 28.7734C42.6249 28.3803 42.6249 28.3803 42.4444 28.0469C42.2983 27.959 42.2983 27.959 42.1439 27.8872C41.9002 27.7604 41.7851 27.5641 41.6878 27.3125C41.6482 27.1038 41.6301 26.8997 41.6253 26.6875C41.7974 26.6774 41.9688 26.6699 42.141 26.6641C42.1895 26.6609 42.2381 26.6578 42.2882 26.6545C42.4305 26.6509 42.5497 26.6522 42.6878 26.6875C42.8431 26.8726 42.8431 26.8726 42.9378 27.0625C43.0466 27.1712 43.1999 27.1482 43.348 27.1602C43.4429 27.168 43.4429 27.168 43.5396 27.176C43.5885 27.1798 43.6375 27.1836 43.6878 27.1875C43.6841 27.0885 43.6785 26.9895 43.6722 26.8906C43.6693 26.8355 43.6664 26.7804 43.6634 26.7236C43.6139 26.5142 43.5468 26.4413 43.3753 26.3125C43.191 26.2559 43.191 26.2559 42.9886 26.2266C42.4783 26.1195 42.1037 25.9359 41.8128 25.4922C41.6318 25.1792 41.6178 24.9119 41.6192 24.5518C41.6193 24.5091 41.6194 24.4665 41.6195 24.4225C41.6199 24.2869 41.6206 24.1513 41.6214 24.0156C41.6217 23.9234 41.622 23.8312 41.6223 23.739C41.6229 23.5135 41.6241 23.288 41.6253 23.0625C41.9553 23.0625 42.2853 23.0625 42.6253 23.0625C42.6253 22.7325 42.6253 22.4025 42.6253 22.0625Z" fill="#65C7C3"/>
<path d="M29.0625 32.5C29.2942 32.5949 29.4201 32.7331 29.5859 32.918C30.1337 33.4787 30.8847 33.8213 31.6726 33.8363C32.7172 33.8339 33.48 33.5314 34.2305 32.7852C34.321 32.6907 34.4111 32.5959 34.5 32.5C34.724 32.5958 34.8768 32.7292 35.0508 32.8984C35.1268 32.9707 35.1268 32.9707 35.2043 33.0444C35.3125 33.1875 35.3125 33.1875 35.3198 33.3081C35.2131 33.5059 35.0589 33.6474 34.8945 33.7969C34.8583 33.8299 34.8221 33.8629 34.7848 33.8969C33.8393 34.7306 32.7023 35.0641 31.4543 35.0109C30.4169 34.931 29.5109 34.4403 28.75 33.75C28.7078 33.7136 28.6656 33.6772 28.6221 33.6396C28.5156 33.543 28.5156 33.543 28.375 33.375C28.3812 33.1096 28.573 32.9709 28.7539 32.7969C28.8114 32.7411 28.8688 32.6854 28.928 32.6279C28.9724 32.5857 29.0168 32.5435 29.0625 32.5Z" fill="#7B55D3"/>
<path d="M34.375 28.25C34.7463 28.25 35.1175 28.25 35.5 28.25C35.5 28.58 35.5 28.91 35.5 29.25C35.83 29.25 36.16 29.25 36.5 29.25C36.5 29.6213 36.5 29.9925 36.5 30.375C36.17 30.375 35.84 30.375 35.5 30.375C35.5 30.705 35.5 31.035 35.5 31.375C35.1287 31.375 34.7575 31.375 34.375 31.375C34.375 31.045 34.375 30.715 34.375 30.375C34.045 30.375 33.715 30.375 33.375 30.375C33.375 30.0037 33.375 29.6325 33.375 29.25C33.705 29.25 34.035 29.25 34.375 29.25C34.375 28.92 34.375 28.59 34.375 28.25Z" fill="#65C7C3"/>
<path d="M28.1875 28.25C28.5588 28.25 28.93 28.25 29.3125 28.25C29.3125 28.58 29.3125 28.91 29.3125 29.25C29.6425 29.25 29.9725 29.25 30.3125 29.25C30.3125 29.6213 30.3125 29.9925 30.3125 30.375C29.9825 30.375 29.6525 30.375 29.3125 30.375C29.3125 30.705 29.3125 31.035 29.3125 31.375C28.9412 31.375 28.57 31.375 28.1875 31.375C28.1875 31.045 28.1875 30.715 28.1875 30.375C27.8575 30.375 27.5275 30.375 27.1875 30.375C27.1875 30.0037 27.1875 29.6325 27.1875 29.25C27.5175 29.25 27.8475 29.25 28.1875 29.25C28.1875 28.92 28.1875 28.59 28.1875 28.25Z" fill="#65C7C3"/>
<path d="M31.3125 30.125C31.4223 30.1546 31.5321 30.1844 31.6418 30.2141C31.703 30.2307 31.7641 30.2472 31.8271 30.2642C32.012 30.3159 32.1939 30.3739 32.375 30.4375C32.2699 30.8429 32.1543 31.2355 32 31.625C32.0567 31.643 32.1134 31.6611 32.1719 31.6797C32.3326 31.7353 32.4758 31.7947 32.625 31.875C32.5221 32.2303 32.3569 32.5479 32.1875 32.875C31.9616 32.8385 31.786 32.7778 31.5847 32.6697C31.5321 32.6417 31.4796 32.6137 31.4254 32.5848C31.3444 32.5409 31.3444 32.5409 31.2617 32.4961C31.2065 32.4666 31.1513 32.437 31.0944 32.4066C30.9585 32.3339 30.8229 32.2609 30.6875 32.1875C30.7226 31.8935 30.7806 31.6308 30.8792 31.3518C30.9043 31.2799 30.9295 31.208 30.9554 31.1339C30.9817 31.0601 31.0081 30.9862 31.0352 30.9102C31.0617 30.8346 31.0882 30.7591 31.1156 30.6813C31.1809 30.4957 31.2465 30.3103 31.3125 30.125Z" fill="#7B55D3"/>
</g>
</g>
<defs>
<filter id="filter0_d_1_130063" x="0" y="0" width="74" height="74" filterUnits="userSpaceOnUse" color-interpolation-filters="sRGB">
<feFlood flood-opacity="0" result="BackgroundImageFix"/>
<feColorMatrix in="SourceAlpha" type="matrix" values="0 0 0 0 0 0 0 0 0 0 0 0 0 0 0 0 0 0 127 0" result="hardAlpha"/>
<feOffset dy="1"/>
<feGaussianBlur stdDeviation="0.5"/>
<feComposite in2="hardAlpha" operator="out"/>
<feColorMatrix type="matrix" values="0 0 0 0 0 0 0 0 0 0 0 0 0 0 0 0 0 0 0.04 0"/>
<feBlend mode="normal" in2="BackgroundImageFix" result="effect1_dropShadow_1_130063"/>
<feBlend mode="normal" in="SourceGraphic" in2="effect1_dropShadow_1_130063" result="shape"/>
</filter>
<clipPath id="clip0_1_130063">
<rect width="32" height="32" fill="white" transform="translate(21 20)"/>
</clipPath>
</defs>
</svg>
