<svg width="74" height="74" viewBox="0 0 74 74" fill="none" xmlns="http://www.w3.org/2000/svg">
<g filter="url(#filter0_d_1_130027)">
<rect x="1" width="72" height="72" rx="36" fill="white" shape-rendering="crispEdges"/>
<g clip-path="url(#clip0_1_130027)">
<path d="M30.8601 20.4737C30.9877 20.4734 31.1151 20.4712 31.2427 20.4688C31.7918 20.4672 32.1544 20.4985 32.578 20.8697C32.6117 20.9104 32.6454 20.9511 32.6801 20.993C32.7147 21.0335 32.7494 21.074 32.785 21.1158C33.1066 21.5824 33.0004 21.8683 33.0004 22.4969C33.6604 22.4969 34.3204 22.4969 35.0004 22.4969C35.0004 22.1875 35.0004 21.8781 35.0004 21.5594C35.1411 21.1373 35.3843 20.8741 35.7504 20.6219C36.1091 20.4482 36.4688 20.4736 36.8601 20.4737C36.9877 20.4734 37.1151 20.4712 37.2427 20.4688C37.7918 20.4672 38.1544 20.4985 38.578 20.8697C38.6117 20.9104 38.6454 20.9511 38.6801 20.993C38.7147 21.0335 38.7494 21.074 38.785 21.1158C39.1066 21.5824 39.0004 21.8683 39.0004 22.4969C39.6604 22.4969 40.3204 22.4969 41.0004 22.4969C41.0004 22.1875 41.0004 21.8781 41.0004 21.5594C41.1411 21.1373 41.3843 20.8741 41.7504 20.6219C42.1091 20.4482 42.4688 20.4736 42.8601 20.4737C42.9877 20.4734 43.1151 20.4712 43.2427 20.4688C43.7918 20.4672 44.1544 20.4985 44.578 20.8697C44.6117 20.9104 44.6454 20.9511 44.6801 20.993C44.7147 21.0335 44.7494 21.074 44.785 21.1158C44.9928 21.4173 45.0171 21.6888 45.0082 22.0477C45.0076 22.091 45.0071 22.1343 45.0065 22.1789C45.005 22.2849 45.0028 22.3909 45.0004 22.4969C45.0435 22.4963 45.0866 22.4958 45.131 22.4952C45.5401 22.4902 45.9491 22.4864 46.3582 22.4839C46.5685 22.4826 46.7787 22.4809 46.989 22.478C47.2315 22.475 47.4739 22.4736 47.7164 22.4725C47.7908 22.4712 47.8652 22.4699 47.9418 22.4686C48.6858 22.4684 49.2706 22.6667 49.8129 23.1844C50.4342 23.8353 50.5383 24.5158 50.5248 25.3902C50.5243 25.4803 50.524 25.5704 50.5237 25.6605C50.5228 25.8953 50.5203 26.13 50.5175 26.3648C50.515 26.6053 50.5138 26.8458 50.5126 27.0864C50.5099 27.5566 50.5057 28.0267 50.5004 28.4969C50.5648 28.4958 50.6292 28.4947 50.6956 28.4936C50.7809 28.4927 50.8662 28.4919 50.9516 28.491C51.0151 28.4898 51.0151 28.4898 51.0799 28.4886C51.5075 28.4855 51.7547 28.5721 52.0604 28.8638C52.4031 29.2337 52.5192 29.5281 52.5185 30.0344C52.519 30.0812 52.5194 30.128 52.5198 30.1762C52.521 30.3304 52.5212 30.4846 52.5214 30.6387C52.5218 30.7464 52.5222 30.854 52.5226 30.9617C52.5234 31.1872 52.5236 31.4128 52.5235 31.6383C52.5235 31.9264 52.5252 32.2145 52.5274 32.5026C52.5288 32.725 52.529 32.9474 52.529 33.1697C52.5291 33.2759 52.5297 33.3821 52.5306 33.4882C52.5399 34.604 52.5399 34.604 52.1276 35.0745C52.0869 35.1082 52.0462 35.1419 52.0043 35.1766C51.9638 35.2112 51.9232 35.2459 51.8815 35.2816C51.5799 35.4893 51.3084 35.5136 50.9496 35.5047C50.9063 35.5041 50.863 35.5036 50.8184 35.503C50.7124 35.5015 50.6064 35.4993 50.5004 35.4969C50.5006 35.543 50.5008 35.589 50.5011 35.6365C50.5066 36.7597 50.5107 37.8829 50.5133 39.0061C50.5146 39.5493 50.5164 40.0924 50.5192 40.6356C50.5217 41.1093 50.5233 41.5829 50.5239 42.0566C50.5242 42.3072 50.525 42.5578 50.5268 42.8084C50.5285 43.0447 50.529 43.281 50.5287 43.5174C50.5288 43.6445 50.5301 43.7716 50.5315 43.8987C50.5281 44.6605 50.3445 45.2525 49.8129 45.8094C49.186 46.4078 48.5257 46.5346 47.6806 46.5269C47.5931 46.5271 47.5056 46.5273 47.4182 46.5276C47.1796 46.5281 46.941 46.5272 46.7024 46.5259C46.4444 46.5248 46.1865 46.5252 45.9285 46.5254C45.4822 46.5255 45.0358 46.5247 44.5895 46.5233C43.9442 46.5213 43.2989 46.5206 42.6535 46.5203C41.6064 46.5198 40.5593 46.5181 39.5121 46.5157C38.4953 46.5134 37.4784 46.5117 36.4615 46.5106C36.3674 46.5105 36.3674 46.5105 36.2714 46.5104C35.9567 46.5101 35.6419 46.5098 35.3272 46.5095C32.7183 46.5069 30.1093 46.5025 27.5004 46.4969C27.5012 46.5484 27.502 46.5998 27.5028 46.6529C27.5034 46.7204 27.504 46.7879 27.5046 46.8575C27.5054 46.9244 27.5062 46.9914 27.507 47.0604C27.4987 47.295 27.4401 47.461 27.3352 47.6703C27.2991 47.7441 27.263 47.8179 27.2257 47.894C27.1858 47.9718 27.1457 48.0495 27.1056 48.1273C27.0645 48.2093 27.0235 48.2914 26.9826 48.3736C26.8971 48.5446 26.8106 48.715 26.7233 48.885C26.6121 49.1019 26.503 49.3198 26.3947 49.5381C26.3105 49.7074 26.2253 49.8762 26.1397 50.0448C26.0992 50.125 26.0589 50.2053 26.0189 50.2857C25.7495 50.8249 25.503 51.2473 24.9379 51.4969C24.4741 51.5511 24.0555 51.5609 23.6659 51.2833C23.5332 51.1559 23.4266 51.0168 23.3129 50.8719C23.2827 50.8342 23.2525 50.7965 23.2215 50.7576C21.507 48.5718 21.3169 46.2585 21.3146 43.556C21.3145 43.5142 21.3145 43.4725 21.3145 43.4295C21.314 42.3905 21.3301 41.3519 21.3528 40.3132C21.3674 39.6415 21.3769 38.97 21.382 38.2982C21.3825 38.2314 21.3825 38.2314 21.383 38.1632C21.3843 37.984 21.3856 37.8048 21.3869 37.6256C21.3928 36.8107 21.402 35.9958 21.4122 35.181C21.4133 35.0992 21.4143 35.0174 21.4153 34.9332C21.4215 34.4642 21.4291 33.9953 21.4389 33.5263C21.4418 33.3849 21.4442 33.2435 21.4462 33.1021C21.4629 31.9619 21.5915 31.1179 22.4027 30.2586C22.7095 29.9663 23.0459 29.7762 23.4379 29.6219C23.4381 29.5584 23.4383 29.495 23.4386 29.4296C23.4409 28.8292 23.4445 28.2288 23.4494 27.6284C23.4518 27.3198 23.4539 27.0112 23.4548 26.7026C23.4558 26.4043 23.4579 26.1061 23.4609 25.8078C23.4618 25.6945 23.4623 25.5811 23.4624 25.4678C23.4632 24.5745 23.5425 23.8605 24.1879 23.1844C24.8035 22.5967 25.4527 22.458 26.2843 22.4725C26.4015 22.473 26.4015 22.473 26.521 22.4735C26.7262 22.4747 26.9313 22.4769 27.1365 22.4797C27.3469 22.4823 27.5572 22.4834 27.7676 22.4847C28.1785 22.4874 28.5895 22.4916 29.0004 22.4969C28.9993 22.4325 28.9982 22.3681 28.9971 22.3017C28.9962 22.2164 28.9954 22.131 28.9945 22.0457C28.9937 22.0034 28.993 21.961 28.9921 21.9174C28.989 21.4898 29.0756 21.2426 29.3673 20.9368C29.8394 20.4996 30.2288 20.4736 30.8601 20.4737ZM30.1254 21.6844C29.9331 22.0466 29.9795 22.4555 29.9807 22.8544C29.9808 22.9923 29.9794 23.1303 29.9778 23.2682C29.9777 23.3567 29.9776 23.4452 29.9777 23.5337C29.9775 23.6136 29.9773 23.6934 29.9771 23.7757C30.0024 24.016 30.0617 24.167 30.1879 24.3719C30.4385 24.5269 30.7094 24.5177 30.9965 24.5164C31.0612 24.5179 31.0612 24.5179 31.1272 24.5195C31.4226 24.5197 31.6307 24.4768 31.8754 24.3094C32.0677 23.9471 32.0213 23.5382 32.0201 23.1394C32.0199 23.0014 32.0214 22.8635 32.023 22.7255C32.0231 22.637 32.0232 22.5485 32.0231 22.46C32.0233 22.3802 32.0235 22.3003 32.0237 22.2181C31.9984 21.9778 31.939 21.8267 31.8129 21.6219C31.5622 21.4669 31.2914 21.476 31.0043 21.4774C30.9611 21.4763 30.918 21.4753 30.8736 21.4743C30.5782 21.474 30.3701 21.517 30.1254 21.6844ZM36.1254 21.6844C35.9331 22.0466 35.9795 22.4555 35.9807 22.8544C35.9808 22.9923 35.9794 23.1303 35.9778 23.2682C35.9777 23.3567 35.9776 23.4452 35.9777 23.5337C35.9775 23.6136 35.9773 23.6934 35.9771 23.7757C36.0024 24.016 36.0617 24.167 36.1879 24.3719C36.4385 24.5269 36.7094 24.5177 36.9965 24.5164C37.0612 24.5179 37.0612 24.5179 37.1272 24.5195C37.4226 24.5197 37.6307 24.4768 37.8754 24.3094C38.0677 23.9471 38.0213 23.5382 38.0201 23.1394C38.0199 23.0014 38.0214 22.8635 38.023 22.7255C38.0231 22.637 38.0232 22.5485 38.0231 22.46C38.0233 22.3802 38.0235 22.3003 38.0237 22.2181C37.9984 21.9778 37.939 21.8267 37.8129 21.6219C37.5622 21.4669 37.2914 21.476 37.0043 21.4774C36.9611 21.4763 36.918 21.4753 36.8736 21.4743C36.5782 21.474 36.3701 21.517 36.1254 21.6844ZM42.1254 21.6844C41.9331 22.0466 41.9795 22.4555 41.9807 22.8544C41.9809 22.9923 41.9794 23.1303 41.9778 23.2682C41.9777 23.3567 41.9776 23.4452 41.9777 23.5337C41.9775 23.6136 41.9773 23.6934 41.9771 23.7757C42.0024 24.016 42.0617 24.167 42.1879 24.3719C42.4385 24.5269 42.7094 24.5177 42.9965 24.5164C43.0612 24.5179 43.0612 24.5179 43.1272 24.5195C43.4226 24.5197 43.6307 24.4768 43.8754 24.3094C44.0677 23.9471 44.0213 23.5382 44.0201 23.1394C44.0199 23.0014 44.0214 22.8635 44.023 22.7255C44.0231 22.637 44.0232 22.5485 44.0231 22.46C44.0233 22.3802 44.0235 22.3003 44.0237 22.2181C43.9984 21.9778 43.939 21.8267 43.8129 21.6219C43.5622 21.4669 43.2914 21.476 43.0043 21.4774C42.9611 21.4763 42.918 21.4753 42.8736 21.4743C42.5782 21.474 42.3701 21.517 42.1254 21.6844ZM24.8598 24.0867C24.5244 24.4983 24.4924 24.9337 24.4933 25.4525C24.4933 25.4965 24.4933 25.5404 24.4933 25.5857C24.4933 25.7298 24.4938 25.8738 24.4943 26.0179C24.4944 26.1182 24.4945 26.2186 24.4945 26.3189C24.4948 26.5822 24.4954 26.8454 24.4961 27.1087C24.4967 27.3776 24.497 27.6466 24.4973 27.9156C24.498 28.4427 24.4991 28.9698 24.5004 29.4969C24.8304 29.5381 25.1604 29.5794 25.5004 29.6219C25.501 29.5481 25.5016 29.4743 25.5022 29.3983C25.5047 29.1237 25.5088 28.849 25.5134 28.5744C25.5151 28.4557 25.5164 28.337 25.5173 28.2183C25.5187 28.0473 25.5216 27.8764 25.5248 27.7054C25.5249 27.6263 25.5249 27.6263 25.525 27.5455C25.5333 27.2101 25.5842 27.0087 25.8129 26.7469C26.0493 26.5758 26.2125 26.5359 26.5025 26.5356C26.6167 26.5348 26.6167 26.5348 26.7332 26.534C26.8175 26.5344 26.9018 26.5348 26.9862 26.5352C27.0759 26.5349 27.1656 26.5345 27.2553 26.5341C27.5019 26.5332 27.7484 26.5335 27.995 26.534C28.2609 26.5343 28.5268 26.5335 28.7927 26.5328C29.3136 26.5318 29.8345 26.5317 30.3554 26.532C30.7787 26.5323 31.2021 26.5322 31.6254 26.5319C31.6856 26.5318 31.7458 26.5318 31.8079 26.5317C31.9302 26.5316 32.0525 26.5315 32.1748 26.5314C33.3223 26.5306 34.4698 26.5309 35.6172 26.5316C36.6674 26.5322 37.7175 26.5314 38.7676 26.5299C39.8455 26.5284 40.9234 26.5278 42.0013 26.5282C42.6067 26.5285 43.212 26.5283 43.8173 26.5272C44.3326 26.5263 44.8478 26.5263 45.3631 26.5273C45.6261 26.5279 45.889 26.528 46.152 26.5271C46.3927 26.5262 46.6333 26.5265 46.874 26.5277C46.9611 26.5279 47.0482 26.5277 47.1353 26.5271C47.942 26.5215 47.942 26.5215 48.2504 26.8094C48.5086 27.0974 48.4726 27.4619 48.4809 27.8289C48.483 27.8931 48.4851 27.9573 48.4873 28.0234C48.4925 28.1812 48.4965 28.339 48.5004 28.4969C48.8304 28.4969 49.1604 28.4969 49.5004 28.4969C49.5035 28.0087 49.5057 27.5206 49.5072 27.0324C49.5078 26.8665 49.5087 26.7006 49.5098 26.5347C49.5113 26.2956 49.512 26.0565 49.5126 25.8174C49.5132 25.7438 49.5139 25.6701 49.5145 25.5942C49.5146 25.026 49.4991 24.5139 49.1254 24.0594C48.6373 23.5748 48.1751 23.4897 47.5005 23.4898C47.4368 23.4901 47.3731 23.4904 47.3075 23.4908C47.2415 23.4909 47.1754 23.491 47.1073 23.491C46.8972 23.4914 46.6871 23.4922 46.4769 23.493C46.3341 23.4933 46.1913 23.4936 46.0485 23.4938C45.6991 23.4945 45.3497 23.4956 45.0004 23.4969C44.997 23.5612 44.9937 23.6256 44.9903 23.6919C44.9854 23.7772 44.9804 23.8625 44.9755 23.9478C44.9733 23.9901 44.9712 24.0325 44.969 24.0761C44.9408 24.5454 44.8179 24.8305 44.473 25.1453C44.0692 25.4807 43.6443 25.4577 43.1407 25.4575C43.0131 25.4578 42.8856 25.4601 42.7581 25.4625C42.2203 25.4641 41.8545 25.436 41.4364 25.0753C41.4085 25.0404 41.3807 25.0055 41.3519 24.9695C41.3087 24.9175 41.3087 24.9175 41.2645 24.8643C40.9702 24.4134 41.0394 24.0818 41.0004 23.4969C40.3404 23.4969 39.6804 23.4969 39.0004 23.4969C38.9798 23.8063 38.9591 24.1156 38.9379 24.4344C38.783 24.8693 38.535 25.1724 38.1132 25.3754C37.7981 25.4814 37.4704 25.4576 37.1407 25.4575C37.0131 25.4578 36.8856 25.4601 36.7581 25.4625C36.2203 25.4641 35.8545 25.436 35.4364 25.0753C35.3946 25.0229 35.3946 25.0229 35.3519 24.9695C35.3087 24.9175 35.3087 24.9175 35.2645 24.8643C34.9702 24.4134 35.0394 24.0818 35.0004 23.4969C34.3404 23.4969 33.6804 23.4969 33.0004 23.4969C32.9798 23.8063 32.9591 24.1156 32.9379 24.4344C32.783 24.8693 32.535 25.1724 32.1132 25.3754C31.7981 25.4814 31.4704 25.4576 31.1407 25.4575C31.0131 25.4578 30.8856 25.4601 30.7581 25.4625C30.2203 25.4641 29.8545 25.436 29.4364 25.0753C29.3946 25.0229 29.3946 25.0229 29.3519 24.9695C29.3087 24.9175 29.3087 24.9175 29.2645 24.8643C29.0741 24.5725 29.0395 24.2879 29.0238 23.9461C29.0214 23.9028 29.019 23.8595 29.0165 23.8149C29.0106 23.7089 29.0054 23.6029 29.0004 23.4969C28.5834 23.4937 28.1665 23.4915 27.7495 23.49C27.6079 23.4894 27.4662 23.4885 27.3246 23.4875C27.1202 23.4859 26.9159 23.4852 26.7116 23.4847C26.6488 23.484 26.5861 23.4834 26.5215 23.4827C25.8465 23.4826 25.3298 23.5657 24.8598 24.0867ZM26.5004 27.4969C26.1959 30.0298 26.1959 30.0298 27.0004 30.8094C27.2875 31.3212 27.4569 31.7726 27.4553 32.3658C27.4556 32.4136 27.456 32.4613 27.4564 32.5105C27.4574 32.6699 27.4576 32.8293 27.4578 32.9887C27.4584 33.1051 27.459 33.2216 27.4597 33.338C27.4614 33.6493 27.4624 33.9606 27.4632 34.2718C27.4641 34.5641 27.4656 34.8564 27.4671 35.1487C27.4711 36.0031 27.4739 36.8574 27.4769 37.7117C27.4847 39.6208 27.4924 41.5299 27.5004 43.4969C34.1004 43.4969 40.7004 43.4969 47.5004 43.4969C47.5004 40.8569 47.5004 38.2169 47.5004 35.4969C46.7785 35.4969 46.0566 35.4969 45.3129 35.4969C45.1982 35.7186 45.0834 35.9403 44.9652 36.1688C44.9288 36.2383 44.8923 36.3078 44.8547 36.3794C44.8126 36.4622 44.8126 36.4622 44.7697 36.5467C44.726 36.6311 44.726 36.6311 44.6814 36.7173C44.6195 36.8881 44.6204 36.956 44.6879 37.1219C44.7645 37.2229 44.7645 37.2229 44.8598 37.3172C45.418 37.94 45.482 38.6219 45.4488 39.4229C45.4051 39.9685 45.1291 40.4263 44.7504 40.8094C44.0723 41.3865 43.4368 41.4993 42.5693 41.4473C41.9589 41.3872 41.4538 41.0594 41.0624 40.5994C40.5586 39.9207 40.4815 39.2615 40.5629 38.4344C40.6613 37.9403 40.9052 37.5477 41.2504 37.1844C41.2933 37.1572 41.3362 37.1301 41.3804 37.1022C41.5122 37.0073 41.5122 37.0073 41.5314 36.8591C41.5313 36.805 41.5312 36.751 41.5311 36.6953C41.5316 36.6332 41.5322 36.5711 41.5327 36.5071C41.5316 36.405 41.5316 36.405 41.5305 36.3008C41.5309 36.1931 41.5309 36.1931 41.5313 36.0833C41.5316 35.9272 41.5314 35.7711 41.5307 35.6149C41.5297 35.3677 41.5301 35.1206 41.531 34.8733C41.5328 34.3036 41.5322 33.7338 41.5315 33.164C41.5309 32.6426 41.5308 32.1212 41.5327 31.5997C41.5337 31.3149 41.5327 31.03 41.5314 30.7452C41.5318 30.5954 41.5322 30.4457 41.5327 30.2959C41.5317 30.1947 41.5317 30.1947 41.5306 30.0915C41.5343 29.6267 41.6098 29.2947 41.922 28.9329C41.9569 28.905 41.9918 28.8772 42.0277 28.8484C42.0624 28.8196 42.0972 28.7908 42.1329 28.761C42.4294 28.5675 42.7046 28.5405 43.0516 28.5395C43.0998 28.5388 43.148 28.5382 43.1977 28.5376C43.3563 28.5356 43.5149 28.5346 43.6735 28.5335C43.7837 28.5323 43.894 28.5311 44.0042 28.5298C44.2939 28.5266 44.5835 28.5242 44.8732 28.5218C45.169 28.5193 45.4647 28.5161 45.7605 28.513C46.3405 28.507 46.9204 28.5017 47.5004 28.4969C47.5004 28.1669 47.5004 27.8369 47.5004 27.4969C40.5704 27.4969 33.6404 27.4969 26.5004 27.4969ZM42.6254 29.6844C42.5108 29.9128 42.4849 30.0986 42.4853 30.3524C42.4852 30.4233 42.485 30.4942 42.4848 30.5673C42.4853 30.6444 42.4857 30.7216 42.4862 30.8012C42.4862 30.8829 42.4862 30.9646 42.4861 31.0488C42.4861 31.2725 42.4868 31.4961 42.4877 31.7197C42.4885 31.9536 42.4886 32.1875 42.4887 32.4214C42.4891 32.8641 42.4901 33.3068 42.4914 33.7495C42.4928 34.2535 42.4935 34.7576 42.4941 35.2617C42.4954 36.2984 42.4976 37.3352 42.5004 38.3719C42.5829 38.3719 42.6654 38.3719 42.7504 38.3719C42.9951 37.8853 43.2396 37.3985 43.4838 36.9115C43.5972 36.6855 43.7106 36.4594 43.8243 36.2335C43.9339 36.0156 44.0433 35.7975 44.1525 35.5794C44.1943 35.4961 44.2362 35.4128 44.2781 35.3296C44.3367 35.2133 44.395 35.0968 44.4533 34.9803C44.5032 34.8808 44.5032 34.8808 44.5542 34.7793C44.634 34.6317 44.634 34.6317 44.6254 34.4969C44.7439 34.4975 44.7439 34.4975 44.8649 34.4981C45.6098 34.5019 46.3546 34.5048 47.0995 34.5066C47.4825 34.5076 47.8654 34.5089 48.2484 34.511C48.618 34.5131 48.9876 34.5142 49.3571 34.5147C49.4981 34.515 49.6391 34.5157 49.7801 34.5167C49.9776 34.5181 50.1751 34.5183 50.3726 34.5182C50.4309 34.5188 50.4891 34.5195 50.5492 34.5202C50.8678 34.5187 51.1073 34.5017 51.3754 34.3094C51.5124 34.0782 51.5164 33.8651 51.5175 33.6002C51.5181 33.5213 51.5187 33.4425 51.5194 33.3612C51.5193 33.2757 51.5193 33.1901 51.5192 33.1045C51.5194 33.0162 51.5197 32.9279 51.52 32.8395C51.5205 32.6547 51.5204 32.4698 51.5201 32.2849C51.5197 32.0486 51.5208 31.8124 51.5223 31.5761C51.5232 31.3937 51.5232 31.2114 51.523 31.029C51.5231 30.9419 51.5234 30.8548 51.524 30.7678C51.5248 30.6457 51.5243 30.5237 51.5237 30.4017C51.5237 30.3324 51.5237 30.2631 51.5238 30.1917C51.4961 29.9615 51.4403 29.8156 51.3129 29.6219C51.091 29.5093 50.9086 29.4811 50.6616 29.4806C50.5944 29.4801 50.5272 29.4797 50.458 29.4792C50.3483 29.4795 50.3483 29.4795 50.2365 29.4797C50.159 29.4794 50.0815 29.4791 50.0017 29.4787C49.7897 29.478 49.5777 29.4779 49.3656 29.478C49.1884 29.4781 49.0112 29.4778 48.834 29.4775C48.4158 29.4768 47.9976 29.4768 47.5794 29.4772C47.1485 29.4775 46.7175 29.4768 46.2866 29.4754C45.9161 29.4743 45.5457 29.474 45.1752 29.4742C44.9542 29.4743 44.7331 29.4741 44.512 29.4732C44.2655 29.4723 44.0189 29.4729 43.7724 29.4736C43.6994 29.4731 43.6264 29.4727 43.5513 29.4722C43.0587 29.4701 43.0587 29.4701 42.6254 29.6844ZM22.9379 31.2469C22.2616 32.1571 22.5004 33.4673 22.5004 34.4969C23.8204 34.4969 25.1404 34.4969 26.5004 34.4969C26.6239 32.7435 26.6239 32.7435 26.0004 31.1844C25.5521 30.7444 25.1319 30.5536 24.5082 30.532C23.8607 30.5486 23.3707 30.76 22.9379 31.2469ZM22.5004 35.4969C22.5004 35.8269 22.5004 36.1569 22.5004 36.4969C23.8204 36.4969 25.1404 36.4969 26.5004 36.4969C26.5004 36.1669 26.5004 35.8369 26.5004 35.4969C25.1804 35.4969 23.8604 35.4969 22.5004 35.4969ZM48.5004 35.4969C48.5002 35.601 48.4999 35.7051 48.4997 35.8123C48.4974 36.7927 48.4938 37.773 48.4889 38.7533C48.4864 39.2574 48.4844 39.7614 48.4834 40.2654C48.4826 40.7048 48.4809 41.1441 48.4782 41.5834C48.4768 41.816 48.4758 42.0486 48.4759 42.2812C48.4759 42.541 48.4741 42.8007 48.472 43.0605C48.4723 43.1375 48.4726 43.2144 48.473 43.2937C48.4648 43.9581 48.4648 43.9581 48.1879 44.2469C47.9571 44.4109 47.8006 44.4579 47.5187 44.4584C47.4113 44.4593 47.4113 44.4593 47.3018 44.4602C47.1842 44.4598 47.1842 44.4598 47.0643 44.4593C46.98 44.4596 46.8957 44.4601 46.8114 44.4606C46.5797 44.4617 46.3482 44.4617 46.1165 44.4614C45.8668 44.4614 45.617 44.4624 45.3672 44.4633C44.9345 44.4648 44.5017 44.4655 44.069 44.4658C43.4433 44.4662 42.8176 44.4676 42.192 44.4693C41.1769 44.472 40.1618 44.4739 39.1467 44.4752C38.1606 44.4765 37.1745 44.4782 36.1884 44.4805C36.1276 44.4806 36.0668 44.4808 36.0042 44.4809C35.6993 44.4816 35.3944 44.4823 35.0895 44.483C32.5598 44.4888 30.0301 44.4933 27.5004 44.4969C27.5004 44.8269 27.5004 45.1569 27.5004 45.4969C30.1024 45.4997 32.7044 45.5019 35.3064 45.5033C35.6136 45.5034 35.9208 45.5036 36.228 45.5037C36.2892 45.5038 36.3503 45.5038 36.4134 45.5038C37.4036 45.5044 38.3938 45.5054 39.384 45.5065C40.4001 45.5077 41.4162 45.5084 42.4323 45.5086C43.0592 45.5088 43.6862 45.5094 44.3131 45.5104C44.7431 45.511 45.1731 45.5112 45.603 45.5111C45.8511 45.511 46.0991 45.5111 46.3471 45.5118C46.5744 45.5124 46.8017 45.5124 47.029 45.512C47.1497 45.5119 47.2705 45.5125 47.3912 45.513C47.9631 45.5111 48.4802 45.4982 48.9379 45.1219C49.3798 44.6768 49.5085 44.2556 49.5079 43.6291C49.508 43.5571 49.5081 43.485 49.5082 43.4108C49.5079 43.3327 49.5077 43.2545 49.5075 43.174C49.5075 43.0902 49.5075 43.0064 49.5075 42.9226C49.5075 42.6959 49.5072 42.4692 49.5067 42.2425C49.5063 42.0052 49.5063 41.768 49.5062 41.5308C49.506 41.0819 49.5055 40.633 49.5049 40.1841C49.5042 39.6729 49.5038 39.1618 49.5035 38.6506C49.5029 37.5993 49.5018 36.5481 49.5004 35.4969C49.1704 35.4969 48.8404 35.4969 48.5004 35.4969ZM22.5004 37.4969C22.5004 40.4669 22.5004 43.4369 22.5004 46.4969C23.8204 46.4969 25.1404 46.4969 26.5004 46.4969C26.5004 43.5269 26.5004 40.5569 26.5004 37.4969C25.1804 37.4969 23.8604 37.4969 22.5004 37.4969ZM44.0629 38.0594C44.0462 38.0922 44.0296 38.1249 44.0125 38.1587C43.9354 38.3086 43.8566 38.4574 43.7777 38.6063C43.7516 38.6578 43.7254 38.7094 43.6985 38.7625C43.5126 39.1091 43.3675 39.2835 43.0004 39.4344C42.6608 39.4933 42.3087 39.4925 42.0004 39.325C41.8387 39.2037 41.6974 39.085 41.5629 38.9344C41.5318 39.3068 41.5962 39.564 41.8129 39.8719C42.0994 40.1769 42.3761 40.4048 42.8024 40.4554C43.2959 40.4618 43.6342 40.4132 43.9987 40.0674C44.3667 39.6677 44.4664 39.3527 44.4584 38.8108C44.4281 38.5313 44.3392 38.3577 44.1879 38.1219C44.1466 38.1013 44.1054 38.0806 44.0629 38.0594ZM22.8754 47.4969C22.9839 47.8226 22.9839 47.8226 23.1206 48.1295C23.1438 48.1764 23.1669 48.2233 23.1908 48.2717C23.2155 48.3211 23.2403 48.3705 23.2658 48.4214C23.3044 48.4991 23.3044 48.4991 23.3438 48.5782C23.398 48.6871 23.4524 48.7959 23.5069 48.9046C23.5902 49.071 23.6728 49.2377 23.7554 49.4045C23.8083 49.5104 23.8612 49.6163 23.9142 49.7222C23.9388 49.772 23.9634 49.8218 23.9888 49.8732C24.0121 49.9195 24.0355 49.9658 24.0596 50.0135C24.0799 50.0542 24.1002 50.0948 24.1211 50.1367C24.1941 50.2571 24.2676 50.3438 24.3754 50.4344C24.5311 50.4587 24.5311 50.4587 24.6879 50.3719C24.9282 50.0572 25.1013 49.6886 25.277 49.3353C25.3138 49.2619 25.3138 49.2619 25.3513 49.187C25.4025 49.0846 25.4536 48.9822 25.5046 48.8797C25.5829 48.7224 25.6618 48.5653 25.7407 48.4083C25.7906 48.3084 25.8405 48.2086 25.8903 48.1087C25.9139 48.0617 25.9375 48.0147 25.9619 47.9663C26.0828 47.7424 26.0828 47.7424 26.1254 47.4969C25.0529 47.4969 23.9804 47.4969 22.8754 47.4969Z" fill="#7B55D3"/>
<path d="M38.4006 29.8442C38.9508 30.2405 39.3643 30.7646 39.4995 31.4375C39.5831 32.2136 39.5167 32.8993 39.0503 33.5469C38.6245 34.0522 38.1055 34.4414 37.4326 34.5139C36.6256 34.5699 35.9526 34.472 35.3162 33.9358C34.7838 33.4276 34.4994 32.887 34.4701 32.1478C34.4604 31.3657 34.6365 30.7642 35.187 30.1875C36.0483 29.3653 37.3811 29.2085 38.4006 29.8442ZM35.7637 31.1973C35.5179 31.5667 35.5184 31.9451 35.562 32.375C35.6729 32.7903 35.9649 33.0734 36.312 33.3125C36.687 33.4963 37.1172 33.5062 37.5191 33.3989C37.9021 33.2298 38.202 32.912 38.3853 32.5381C38.5044 32.1627 38.5035 31.7186 38.3433 31.3555C38.1257 30.9847 37.7848 30.6918 37.3745 30.5625C36.6418 30.4734 36.2303 30.6446 35.7637 31.1973Z" fill="#65C7C3"/>
<path d="M32.4006 29.8442C32.9508 30.2405 33.3643 30.7646 33.4995 31.4375C33.5831 32.2136 33.5167 32.8993 33.0503 33.5469C32.6245 34.0522 32.1055 34.4414 31.4326 34.5139C30.6256 34.5699 29.9526 34.472 29.3162 33.9358C28.7838 33.4276 28.4994 32.887 28.4701 32.1478C28.4604 31.3657 28.6365 30.7642 29.187 30.1875C30.0483 29.3653 31.3811 29.2085 32.4006 29.8442ZM29.7637 31.1973C29.5179 31.5667 29.5184 31.9451 29.562 32.375C29.6729 32.7903 29.9649 33.0734 30.312 33.3125C30.687 33.4963 31.1172 33.5062 31.5191 33.3989C31.9021 33.2298 32.202 32.912 32.3853 32.5381C32.5044 32.1627 32.5035 31.7186 32.3433 31.3555C32.1257 30.9847 31.7848 30.6918 31.3745 30.5625C30.6418 30.4734 30.2303 30.6446 29.7637 31.1973Z" fill="#65C7C3"/>
<path d="M38.4006 36.8442C38.9508 37.2405 39.3643 37.7646 39.4995 38.4375C39.5831 39.2136 39.5167 39.8993 39.0503 40.5469C38.6245 41.0522 38.1055 41.4414 37.4326 41.5139C36.6256 41.5699 35.9526 41.472 35.3162 40.9358C34.7838 40.4276 34.4994 39.887 34.4701 39.1478C34.4604 38.3657 34.6365 37.7642 35.187 37.1875C36.0483 36.3653 37.3811 36.2085 38.4006 36.8442ZM35.7637 38.1973C35.5179 38.5667 35.5184 38.9451 35.562 39.375C35.6729 39.7903 35.9649 40.0734 36.312 40.3125C36.687 40.4963 37.1172 40.5062 37.5191 40.3989C37.9021 40.2298 38.202 39.912 38.3853 39.5381C38.5044 39.1627 38.5035 38.7186 38.3433 38.3555C38.1257 37.9847 37.7848 37.6918 37.3745 37.5625C36.6418 37.4734 36.2303 37.6446 35.7637 38.1973Z" fill="#65C7C3"/>
<path d="M32.4006 36.8442C32.9508 37.2405 33.3643 37.7646 33.4995 38.4375C33.5831 39.2136 33.5167 39.8993 33.0503 40.5469C32.6245 41.0522 32.1055 41.4414 31.4326 41.5139C30.6256 41.5699 29.9526 41.472 29.3162 40.9358C28.7838 40.4276 28.4994 39.887 28.4701 39.1478C28.4604 38.3657 28.6365 37.7642 29.187 37.1875C30.0483 36.3653 31.3811 36.2085 32.4006 36.8442ZM29.7637 38.1973C29.5179 38.5667 29.5184 38.9451 29.562 39.375C29.6729 39.7903 29.9649 40.0734 30.312 40.3125C30.687 40.4963 31.1172 40.5062 31.5191 40.3989C31.9021 40.2298 32.202 39.912 32.3853 39.5381C32.5044 39.1627 32.5035 38.7186 32.3433 38.3555C32.1257 37.9847 31.7848 37.6918 31.3745 37.5625C30.6418 37.4734 30.2303 37.6446 29.7637 38.1973Z" fill="#65C7C3"/>
<path d="M48.5625 30.125C48.7896 30.231 48.9341 30.3586 49.1094 30.5391C49.1593 30.5901 49.2093 30.6412 49.2607 30.6938C49.2984 30.733 49.3362 30.7722 49.375 30.8125C49.2763 31.0515 49.1253 31.2023 48.9432 31.3835C48.9121 31.4146 48.881 31.4457 48.8489 31.4778C48.7464 31.5802 48.6435 31.6822 48.5405 31.7842C48.4692 31.8553 48.3979 31.9264 48.3267 31.9975C48.1393 32.1844 47.9516 32.3709 47.7638 32.5573C47.5721 32.7477 47.3808 32.9384 47.1895 33.1292C46.8141 33.5031 46.4384 33.8767 46.0625 34.25C45.8423 34.1463 45.7001 34.0271 45.5283 33.853C45.4755 33.7999 45.4228 33.7467 45.3684 33.6919C45.3139 33.6363 45.2593 33.5807 45.2031 33.5234C45.1199 33.4393 45.1199 33.4393 45.0349 33.3535C44.898 33.2151 44.7614 33.0764 44.625 32.9375C44.731 32.7104 44.8586 32.5659 45.0391 32.3906C45.0901 32.3407 45.1412 32.2907 45.1938 32.2393C45.233 32.2016 45.2722 32.1638 45.3125 32.125C45.5809 32.2452 45.7357 32.414 45.9375 32.625C46.142 32.5355 46.277 32.4257 46.4339 32.2678C46.4814 32.2203 46.529 32.1727 46.5779 32.1237C46.6286 32.0724 46.6793 32.0211 46.7314 31.9683C46.7838 31.9157 46.8362 31.8632 46.8901 31.8091C47.0572 31.6412 47.2239 31.473 47.3906 31.3047C47.5039 31.1908 47.6172 31.077 47.7305 30.9631C48.0081 30.6841 48.2855 30.4047 48.5625 30.125Z" fill="#65C7C3"/>
<path d="M24 43.5C24.33 43.5 24.66 43.5 25 43.5C25 43.83 25 44.16 25 44.5C24.67 44.5 24.34 44.5 24 44.5C24 44.17 24 43.84 24 43.5Z" fill="#65C7C3"/>
<path d="M24 41.5C24.33 41.5 24.66 41.5 25 41.5C25 41.83 25 42.16 25 42.5C24.67 42.5 24.34 42.5 24 42.5C24 42.17 24 41.84 24 41.5Z" fill="#65C7C3"/>
<path d="M24 39.5C24.33 39.5 24.66 39.5 25 39.5C25 39.83 25 40.16 25 40.5C24.67 40.5 24.34 40.5 24 40.5C24 40.17 24 39.84 24 39.5Z" fill="#65C7C3"/>
</g>
</g>
<defs>
<filter id="filter0_d_1_130027" x="0" y="0" width="74" height="74" filterUnits="userSpaceOnUse" color-interpolation-filters="sRGB">
<feFlood flood-opacity="0" result="BackgroundImageFix"/>
<feColorMatrix in="SourceAlpha" type="matrix" values="0 0 0 0 0 0 0 0 0 0 0 0 0 0 0 0 0 0 127 0" result="hardAlpha"/>
<feOffset dy="1"/>
<feGaussianBlur stdDeviation="0.5"/>
<feComposite in2="hardAlpha" operator="out"/>
<feColorMatrix type="matrix" values="0 0 0 0 0 0 0 0 0 0 0 0 0 0 0 0 0 0 0.04 0"/>
<feBlend mode="normal" in2="BackgroundImageFix" result="effect1_dropShadow_1_130027"/>
<feBlend mode="normal" in="SourceGraphic" in2="effect1_dropShadow_1_130027" result="shape"/>
</filter>
<clipPath id="clip0_1_130027">
<rect width="32" height="32" fill="white" transform="translate(21 20)"/>
</clipPath>
</defs>
</svg>
