<svg width="74" height="74" viewBox="0 0 74 74" fill="none" xmlns="http://www.w3.org/2000/svg">
<g filter="url(#filter0_d_1_130050)">
<rect x="1" width="72" height="72" rx="36" fill="white" shape-rendering="crispEdges"/>
<path d="M28.5555 20.4847C28.6302 20.4846 28.7048 20.4845 28.7817 20.4844C28.9881 20.4842 29.1945 20.4846 29.4008 20.4853C29.6237 20.4858 29.8466 20.4856 30.0694 20.4855C30.4553 20.4855 30.8411 20.4859 31.2269 20.4866C31.7848 20.4876 32.3427 20.4879 32.9005 20.4881C33.8057 20.4883 34.7108 20.4892 35.616 20.4903C36.4951 20.4915 37.3743 20.4924 38.2534 20.4929C38.3076 20.4929 38.3619 20.493 38.4177 20.493C38.6897 20.4932 38.9616 20.4933 39.2336 20.4935C41.4891 20.4948 43.7445 20.497 45.9999 20.4998C45.9999 21.1598 45.9999 21.8198 45.9999 22.4998C46.3299 22.4998 46.6599 22.4998 46.9999 22.4998C46.9999 23.1598 46.9999 23.8198 46.9999 24.4998C47.3299 24.4998 47.6599 24.4998 47.9999 24.4998C47.9999 25.1598 47.9999 25.8198 47.9999 26.4998C48.3299 26.4998 48.6599 26.4998 48.9999 26.4998C48.9999 34.7498 48.9999 42.9998 48.9999 51.4998C43.7792 51.5075 43.7792 51.5075 38.4531 51.5154C36.8041 51.5188 36.8041 51.5188 35.1218 51.5223C33.7803 51.5234 33.7803 51.5234 33.1524 51.5236C32.7136 51.5239 32.2747 51.5248 31.8358 51.5262C31.3295 51.5278 30.8231 51.5285 30.3167 51.5281C30.0578 51.528 29.7989 51.5282 29.54 51.5296C29.3055 51.5308 29.071 51.5308 28.8365 51.53C28.7123 51.5298 28.5881 51.5309 28.4639 51.532C27.5826 51.5262 26.7003 51.2186 26.0427 50.6131C25.4375 49.9616 24.9851 49.1436 24.9837 48.2398C24.9834 48.1967 24.9832 48.1536 24.983 48.1093C24.9823 47.9654 24.9826 47.8215 24.9828 47.6776C24.9825 47.5733 24.9822 47.4689 24.9818 47.3645C24.9809 47.078 24.9808 46.7915 24.9808 46.505C24.9807 46.1958 24.9799 45.8867 24.9792 45.5775C24.9778 44.9016 24.9773 44.2257 24.977 43.5498C24.9768 43.1276 24.9764 42.7054 24.9759 42.2831C24.9747 41.1136 24.9737 39.944 24.9735 38.7744C24.9735 38.6996 24.9735 38.6248 24.9734 38.5477C24.9734 38.396 24.9734 38.2443 24.9734 38.0926C24.9734 38.0173 24.9734 37.942 24.9733 37.8644C24.9733 37.789 24.9733 37.7136 24.9733 37.6359C24.9731 36.4148 24.9714 35.1937 24.9691 33.9726C24.9667 32.7182 24.9655 31.4638 24.9654 30.2094C24.9654 29.5054 24.9649 28.8014 24.9631 28.0974C24.9615 27.4978 24.9611 26.8982 24.962 26.2986C24.9625 25.9929 24.9624 25.6872 24.961 25.3815C24.9597 25.1012 24.9599 24.8208 24.9612 24.5404C24.9614 24.4395 24.9611 24.3386 24.9602 24.2377C24.9523 23.2914 25.1375 22.5033 25.7499 21.7498C25.7891 21.6977 25.8282 21.6457 25.8686 21.5921C26.5468 20.7928 27.5478 20.4795 28.5555 20.4847ZM26.5624 22.4373C26.0973 23.0727 25.9861 23.7248 26.0624 24.4998C26.2014 25.1746 26.6109 25.6909 27.1589 26.0933C27.8152 26.495 28.5162 26.5092 29.2624 26.5073C29.3384 26.5073 29.4143 26.5074 29.4926 26.5074C29.7024 26.5075 29.9122 26.5073 30.122 26.507C30.3487 26.5068 30.5753 26.5068 30.802 26.5069C31.1943 26.5069 31.5866 26.5067 31.9789 26.5064C32.5462 26.5059 33.1134 26.5057 33.6806 26.5056C34.601 26.5055 35.5213 26.5051 36.4417 26.5045C37.3356 26.5039 38.2295 26.5035 39.1233 26.5032C39.1785 26.5032 39.2336 26.5032 39.2904 26.5032C39.567 26.5031 39.8435 26.503 40.1201 26.5029C42.4134 26.5023 44.7067 26.5012 46.9999 26.4998C46.9999 26.1698 46.9999 25.8398 46.9999 25.4998C46.8542 25.4996 46.8542 25.4996 46.7056 25.4995C44.3997 25.4973 42.0938 25.4937 39.7879 25.4887C39.5041 25.488 39.2203 25.4874 38.9364 25.4868C38.8517 25.4866 38.8517 25.4866 38.7652 25.4864C37.8503 25.4845 36.9355 25.4834 36.0206 25.4827C35.0818 25.4819 34.1431 25.4802 33.2043 25.4776C32.625 25.476 32.0458 25.4752 31.4665 25.4753C31.0693 25.4753 30.6721 25.4744 30.2748 25.4728C30.0457 25.4718 29.8165 25.4713 29.5873 25.4719C29.3387 25.4725 29.0901 25.4712 28.8415 25.4697C28.7332 25.4704 28.7332 25.4704 28.6226 25.4712C28.1458 25.4661 27.8073 25.3986 27.436 25.0781C27.4081 25.0433 27.3802 25.0084 27.3515 24.9724C27.3227 24.9377 27.2938 24.903 27.2641 24.8672C26.9997 24.4621 27.0205 24.0305 27.0624 23.5623C27.1644 23.1744 27.4183 22.9038 27.7499 22.6873C27.9634 22.5895 28.1311 22.5466 28.3654 22.5459C28.425 22.5454 28.4847 22.545 28.5461 22.5445C28.6436 22.5447 28.6436 22.5447 28.743 22.5449C28.8472 22.5443 28.8472 22.5443 28.9534 22.5438C29.1865 22.5427 29.4196 22.5425 29.6527 22.5423C29.8196 22.5418 29.9866 22.5411 30.1535 22.5404C30.5131 22.539 30.8726 22.5381 31.2322 22.5375C31.7521 22.5366 32.272 22.535 32.7919 22.5332C33.6355 22.5304 34.479 22.5281 35.3225 22.5261C36.1419 22.5243 36.9612 22.5221 37.7806 22.5196C37.8311 22.5195 37.8816 22.5193 37.9337 22.5191C38.1871 22.5184 38.4405 22.5176 38.6939 22.5168C40.7959 22.5103 42.8979 22.5048 44.9999 22.4998C44.9999 22.1698 44.9999 21.8398 44.9999 21.4998C42.9107 21.4969 40.8215 21.4947 38.7322 21.4934C38.4853 21.4932 38.2385 21.4931 37.9916 21.4929C37.9424 21.4929 37.8933 21.4928 37.8426 21.4928C37.0478 21.4923 36.2529 21.4913 35.458 21.4901C34.6419 21.489 33.8257 21.4883 33.0095 21.488C32.5063 21.4878 32.003 21.4873 31.4998 21.4863C31.1133 21.4855 30.7269 21.4855 30.3404 21.4856C30.1823 21.4856 30.0242 21.4854 29.866 21.4849C29.6495 21.4842 29.433 21.4844 29.2165 21.4847C29.1235 21.4842 29.1235 21.4842 29.0286 21.4836C28.0494 21.4878 27.2397 21.6939 26.5624 22.4373ZM28.1249 23.6873C28.0362 23.8648 28.0428 23.9907 28.0624 24.1873C28.2019 24.3653 28.2843 24.4279 28.4999 24.4998C28.5986 24.5054 28.6975 24.5075 28.7963 24.5075C28.8576 24.5076 28.919 24.5077 28.9822 24.5078C29.0497 24.5077 29.1173 24.5075 29.1869 24.5073C29.2585 24.5073 29.3301 24.5074 29.4039 24.5074C29.603 24.5075 29.8021 24.5073 30.0012 24.507C30.2158 24.5068 30.4304 24.5068 30.645 24.5069C31.0169 24.5069 31.3888 24.5067 31.7607 24.5064C32.2984 24.5059 32.8361 24.5057 33.3738 24.5056C34.2462 24.5055 35.1185 24.5051 35.9909 24.5045C36.8384 24.5039 37.6859 24.5035 38.5334 24.5032C38.6118 24.5032 38.6118 24.5032 38.6917 24.5032C38.9537 24.5031 39.2156 24.503 39.4776 24.5029C41.6517 24.5023 43.8258 24.5012 45.9999 24.4998C45.9999 24.1698 45.9999 23.8398 45.9999 23.4998C43.7769 23.4955 41.5539 23.4922 39.3309 23.4902C39.0685 23.49 38.8061 23.4897 38.5437 23.4895C38.4915 23.4894 38.4393 23.4894 38.3854 23.4893C37.5394 23.4885 36.6933 23.487 35.8473 23.4853C34.9793 23.4836 34.1113 23.4825 33.2433 23.4821C32.7076 23.4819 32.1719 23.4811 31.6362 23.4795C31.269 23.4785 30.9018 23.4782 30.5345 23.4785C30.3226 23.4786 30.1107 23.4784 29.8987 23.4774C29.6689 23.4765 29.4392 23.4767 29.2094 23.4772C29.1424 23.4767 29.0754 23.4761 29.0064 23.4756C28.6672 23.4776 28.4151 23.4897 28.1249 23.6873ZM25.9999 26.5623C25.9971 29.2805 25.9949 31.9988 25.9936 34.717C25.9934 35.0381 25.9932 35.3591 25.9931 35.6802C25.993 35.7441 25.993 35.808 25.993 35.8738C25.9924 36.9082 25.9914 37.9425 25.9903 38.9769C25.9891 40.0385 25.9884 41.1002 25.9882 42.1618C25.988 42.8167 25.9875 43.4716 25.9864 44.1264C25.9858 44.5758 25.9856 45.0251 25.9857 45.4744C25.9858 45.7335 25.9857 45.9926 25.985 46.2516C25.9844 46.4892 25.9844 46.7268 25.9848 46.9644C25.9849 47.0902 25.9844 47.216 25.9838 47.3419C25.987 48.3069 26.1198 49.0873 26.7973 49.8096C27.5225 50.4704 28.3681 50.5096 29.3004 50.5073C29.4202 50.5074 29.4202 50.5074 29.5424 50.5074C29.7635 50.5076 29.9846 50.5073 30.2057 50.507C30.448 50.5068 30.6903 50.5068 30.9326 50.5069C31.4027 50.5069 31.8728 50.5066 32.3428 50.5062C32.8867 50.5058 33.4306 50.5057 33.9745 50.5057C35.4101 50.5054 36.8456 50.5045 38.2812 50.5037C43.092 50.5017 43.092 50.5017 47.9999 50.4998C47.9999 42.9098 47.9999 35.3198 47.9999 27.4998C41.39 27.4891 41.39 27.4891 34.78 27.4812C33.502 27.4783 33.502 27.4783 32.9038 27.4767C32.4857 27.4756 32.0677 27.4752 31.6497 27.4753C31.1673 27.4754 30.6849 27.4746 30.2026 27.4728C29.9559 27.4719 29.7093 27.4713 29.4627 27.4719C29.2392 27.4724 29.0159 27.4718 28.7925 27.4702C28.6742 27.4697 28.5559 27.4704 28.4377 27.4712C27.8021 27.4648 27.2434 27.3117 26.6874 26.9998C26.6333 26.9701 26.5792 26.9405 26.5234 26.9099C26.3696 26.8088 26.2546 26.6919 26.1249 26.5623C26.0837 26.5623 26.0424 26.5623 25.9999 26.5623Z" fill="#7B55D3"/>
<path d="M32.1178 37.4708C32.2362 37.4705 32.3547 37.47 32.4731 37.4695C32.7931 37.4683 33.1131 37.4688 33.4331 37.4696C33.7689 37.4702 34.1047 37.4696 34.4406 37.4692C35.0044 37.4688 35.5682 37.4694 36.1321 37.4706C36.7827 37.4719 37.4333 37.4715 38.084 37.4701C38.644 37.469 39.2039 37.4688 39.7638 37.4695C40.0977 37.4699 40.4316 37.4699 40.7654 37.4691C41.0794 37.4684 41.3933 37.4689 41.7073 37.4703C41.8221 37.4706 41.9369 37.4705 42.0517 37.47C42.9378 37.4661 43.6422 37.5507 44.3126 38.1907C44.8573 38.7612 45.0387 39.3857 45.0324 40.1618C45.0331 40.2646 45.0331 40.2646 45.0338 40.3694C45.0349 40.5937 45.0341 40.8179 45.0333 41.0422C45.0335 41.1993 45.0337 41.3564 45.034 41.5136C45.0344 41.842 45.0339 42.1704 45.0327 42.4989C45.0313 42.8769 45.0318 43.2549 45.0331 43.6329C45.0344 43.9987 45.0343 44.3645 45.0335 44.7304C45.0334 44.8851 45.0336 45.0398 45.0342 45.1945C45.0348 45.4111 45.0338 45.6278 45.0324 45.8445C45.0329 45.9075 45.0335 45.9706 45.034 46.0356C45.0257 46.7355 44.7966 47.3086 44.3126 47.8157C43.5914 48.5041 42.8264 48.5401 41.8824 48.5355C41.764 48.5358 41.6455 48.5363 41.5271 48.5368C41.2071 48.538 40.8871 48.5375 40.5671 48.5367C40.2313 48.5361 39.8955 48.5367 39.5596 48.5371C38.9958 48.5375 38.432 48.5369 37.8681 48.5357C37.2175 48.5344 36.5668 48.5348 35.9162 48.5362C35.3562 48.5373 34.7963 48.5375 34.2363 48.5368C33.9025 48.5365 33.5686 48.5364 33.2348 48.5372C32.9208 48.538 32.6069 48.5374 32.2929 48.536C32.1781 48.5357 32.0633 48.5358 31.9485 48.5363C31.0624 48.5402 30.358 48.4556 29.6876 47.8157C29.1429 47.2451 28.9615 46.6206 28.9677 45.8445C28.9673 45.776 28.9669 45.7075 28.9664 45.6369C28.9653 45.4126 28.966 45.1884 28.9669 44.9641C28.9667 44.807 28.9665 44.6499 28.9662 44.4927C28.9658 44.1643 28.9663 43.8359 28.9675 43.5074C28.9689 43.1294 28.9684 42.7514 28.967 42.3734C28.9658 42.0076 28.9659 41.6418 28.9666 41.2759C28.9668 41.1212 28.9666 40.9665 28.966 40.8118C28.9654 40.5952 28.9664 40.3785 28.9677 40.1618C28.9672 40.0988 28.9667 40.0357 28.9662 39.9707C28.9744 39.2708 29.2036 38.6977 29.6876 38.1907C30.4088 37.5022 31.1738 37.4662 32.1178 37.4708ZM30.4608 38.9807C30.0246 39.4642 29.9907 39.9589 29.991 40.5876C29.9908 40.6453 29.9906 40.7029 29.9904 40.7623C29.9898 40.9524 29.9897 41.1424 29.9896 41.3325C29.9894 41.4651 29.9892 41.5978 29.989 41.7304C29.9886 42.0083 29.9885 42.2861 29.9885 42.564C29.9885 42.9192 29.9877 43.2743 29.9866 43.6295C29.9859 43.9034 29.9858 44.1774 29.9858 44.4513C29.9857 44.5822 29.9855 44.7131 29.985 44.844C29.9844 45.0275 29.9845 45.211 29.9849 45.3945C29.9846 45.448 29.9842 45.5014 29.9838 45.5566C29.9868 46.1263 30.0573 46.6251 30.4776 47.0425C30.9267 47.4476 31.3626 47.5107 31.959 47.5115C32.0263 47.5117 32.0263 47.5117 32.0949 47.5119C32.2444 47.5123 32.394 47.5123 32.5435 47.5122C32.651 47.5124 32.7585 47.5126 32.8661 47.5129C33.1576 47.5134 33.4492 47.5136 33.7408 47.5136C33.9231 47.5136 34.1055 47.5138 34.2878 47.5139C34.9242 47.5145 35.5607 47.5148 36.1972 47.5147C36.7898 47.5147 37.3824 47.5154 37.975 47.5163C38.4844 47.5172 38.9937 47.5175 39.5031 47.5175C39.807 47.5174 40.111 47.5176 40.4149 47.5183C40.7009 47.5189 40.9869 47.5189 41.2729 47.5184C41.3776 47.5184 41.4823 47.5185 41.587 47.5189C42.5723 47.5443 42.5723 47.5443 43.4376 47.1282C43.9447 46.6174 44.0095 46.1166 44.0092 45.4187C44.0094 45.3611 44.0096 45.3034 44.0098 45.244C44.0104 45.0539 44.0105 44.8639 44.0106 44.6738C44.0108 44.5412 44.011 44.4085 44.0112 44.2759C44.0116 43.998 44.0117 43.7202 44.0117 43.4423C44.0117 43.0871 44.0125 42.732 44.0136 42.3768C44.0143 42.1029 44.0144 41.829 44.0144 41.555C44.0145 41.4241 44.0147 41.2932 44.0152 41.1623C44.0158 40.9788 44.0157 40.7953 44.0153 40.6118C44.0156 40.5583 44.016 40.5049 44.0163 40.4497C44.0134 39.88 43.9429 39.3812 43.5226 38.9638C43.0735 38.5587 42.6376 38.4956 42.0412 38.4948C41.9739 38.4946 41.9739 38.4946 41.9053 38.4944C41.7558 38.494 41.6062 38.494 41.4567 38.4941C41.3492 38.4939 41.2417 38.4937 41.1341 38.4934C40.8425 38.4929 40.551 38.4927 40.2594 38.4927C40.0771 38.4927 39.8947 38.4925 39.7124 38.4924C39.0759 38.4918 38.4395 38.4915 37.803 38.4916C37.2104 38.4916 36.6178 38.4909 36.0252 38.49C35.5158 38.4891 35.0065 38.4888 34.4971 38.4888C34.1932 38.4889 33.8892 38.4887 33.5853 38.488C33.2993 38.4874 33.0133 38.4874 32.7273 38.4879C32.6226 38.4879 32.5179 38.4878 32.4132 38.4874C31.3513 38.4619 31.3513 38.4619 30.4608 38.9807Z" fill="#7B55D3"/>
<path d="M36.0623 29.5C36.6811 29.5 37.2998 29.5 37.9373 29.5C38.2707 30.8333 38.604 32.1667 38.9373 33.5C38.9495 33.5455 38.9617 33.591 38.9743 33.6379C39.0137 33.811 39.0067 33.98 39.0059 34.1572C39.0056 34.2745 39.0056 34.2745 39.0053 34.394C39.0045 34.5161 39.0045 34.5161 39.0037 34.6406C39.0035 34.723 39.0032 34.8053 39.0029 34.8901C39.0021 35.0934 39.001 35.2967 38.9998 35.5C38.6698 35.5 38.3398 35.5 37.9998 35.5C37.9998 35.17 37.9998 34.84 37.9998 34.5C37.3398 34.5 36.6798 34.5 35.9998 34.5C35.9998 34.83 35.9998 35.16 35.9998 35.5C35.6698 35.5 35.3398 35.5 34.9998 35.5C34.9189 34.1177 35.1266 32.9471 35.4924 31.6219C35.5698 31.339 35.6438 31.0553 35.7184 30.7717C35.8305 30.347 35.9468 29.9238 36.0623 29.5ZM36.9373 30.5C36.7539 31.0095 36.6256 31.531 36.4954 32.0559C36.4566 32.2119 36.4174 32.3678 36.3781 32.5237C36.3533 32.623 36.3285 32.7224 36.3038 32.8218C36.2921 32.8683 36.2804 32.9147 36.2683 32.9626C36.2229 33.1467 36.1873 33.3097 36.1873 33.5C36.7236 33.5 37.2598 33.5 37.8123 33.5C37.7361 33.0805 37.6593 32.6685 37.5587 32.2554C37.5409 32.1821 37.5409 32.1821 37.5227 32.1074C37.4979 32.0058 37.4729 31.9043 37.4479 31.8028C37.4224 31.6988 37.3972 31.5948 37.3724 31.4908C37.3363 31.3392 37.2992 31.1879 37.2618 31.0366C37.2508 30.9899 37.2399 30.9431 37.2286 30.895C37.1943 30.7516 37.1943 30.7516 37.1248 30.5625C37.063 30.5419 37.0011 30.5213 36.9373 30.5Z" fill="#65C7C3"/>
<path d="M41.0004 29.5C41.3304 29.5 41.6604 29.5 42.0004 29.5C41.9927 29.6096 41.985 29.7191 41.977 29.832C42.019 30.4755 42.4997 31.0496 42.9379 31.5C42.9792 31.5 43.0204 31.5 43.0629 31.5C43.5012 31.0496 43.9819 30.4755 44.0239 29.832C44.0161 29.7225 44.0084 29.6129 44.0004 29.5C44.3304 29.5 44.6604 29.5 45.0004 29.5C45.088 30.1597 45.1047 30.6791 44.7058 31.2382C44.4821 31.5237 44.2467 31.7983 44.0085 32.0717C43.9732 32.1147 43.9378 32.1578 43.9013 32.2021C43.8692 32.24 43.8371 32.2778 43.804 32.3168C43.734 32.4406 43.734 32.4406 43.7913 32.592C43.8737 32.7467 43.961 32.8766 44.0703 33.0134C44.1082 33.0615 44.1461 33.1095 44.1852 33.1591C44.2248 33.2084 44.2644 33.2578 44.3051 33.3086C44.4208 33.4539 44.536 33.5994 44.6498 33.7462C44.732 33.8514 44.8168 33.9547 44.9023 34.0574C45.0452 34.3379 45.0275 34.5888 45.0161 34.8984C45.0149 34.9564 45.0138 35.0143 45.0126 35.074C45.0097 35.216 45.0052 35.358 45.0004 35.5C44.6704 35.5 44.3404 35.5 44.0004 35.5C44.012 35.3356 44.012 35.3356 44.0239 35.168C43.9819 34.5245 43.5012 33.9504 43.0629 33.5C43.0217 33.5 42.9804 33.5 42.9379 33.5C42.4997 33.9504 42.019 34.5245 41.977 35.168C41.9847 35.2775 41.9925 35.3871 42.0004 35.5C41.6704 35.5 41.3404 35.5 41.0004 35.5C40.9128 34.8403 40.8961 34.3209 41.2951 33.7618C41.5187 33.4763 41.7541 33.2017 41.9923 32.9283C42.0454 32.8638 42.0454 32.8638 42.0995 32.7979C42.1316 32.76 42.1637 32.7222 42.1968 32.6832C42.2669 32.5594 42.2669 32.5594 42.2095 32.408C42.1272 32.2533 42.0398 32.1234 41.9306 31.9866C41.8927 31.9385 41.8547 31.8905 41.8156 31.8409C41.7761 31.7916 41.7365 31.7422 41.6957 31.6914C41.5801 31.5461 41.4648 31.4006 41.351 31.2538C41.2688 31.1486 41.184 31.0453 41.0986 30.9426C40.9557 30.6621 40.9733 30.4112 40.9848 30.1016C40.9859 30.0436 40.9871 29.9857 40.9882 29.926C40.9912 29.784 40.9956 29.642 41.0004 29.5Z" fill="#65C7C3"/>
<path d="M29 29.5C30.65 29.5 32.3 29.5 34 29.5C34 29.83 34 30.16 34 30.5C33.34 30.5 32.68 30.5 32 30.5C32 32.15 32 33.8 32 35.5C31.67 35.5 31.34 35.5 31 35.5C31 33.85 31 32.2 31 30.5C30.34 30.5 29.68 30.5 29 30.5C29 30.17 29 29.84 29 29.5Z" fill="#65C7C3"/>
<path d="M39.5625 39.625C39.7896 39.731 39.9341 39.8586 40.1094 40.0391C40.1593 40.0901 40.2093 40.1412 40.2607 40.1938C40.2984 40.233 40.3362 40.2722 40.375 40.3125C40.2849 40.5188 40.1732 40.6547 40.0143 40.8132C39.9652 40.8625 39.9161 40.9117 39.8656 40.9625C39.8117 41.0159 39.7578 41.0694 39.7022 41.1245C39.6455 41.1812 39.5888 41.2379 39.5304 41.2964C39.3751 41.4517 39.2194 41.6067 39.0636 41.7616C38.9008 41.9236 38.7384 42.0859 38.5759 42.2483C38.2682 42.5555 37.9603 42.8625 37.6522 43.1693C37.3015 43.5187 36.9511 43.8684 36.6007 44.2181C35.88 44.9375 35.1589 45.6564 34.4375 46.375C34.2104 46.269 34.0659 46.1414 33.8906 45.9609C33.8407 45.9099 33.7907 45.8588 33.7393 45.8062C33.7016 45.767 33.6638 45.7278 33.625 45.6875C33.7151 45.4812 33.8268 45.3453 33.9857 45.1868C34.0348 45.1375 34.0839 45.0883 34.1344 45.0375C34.1883 44.9841 34.2422 44.9306 34.2978 44.8755C34.3545 44.8188 34.4112 44.7621 34.4696 44.7036C34.6249 44.5483 34.7806 44.3933 34.9364 44.2384C35.0992 44.0764 35.2616 43.9141 35.4241 43.7517C35.7318 43.4445 36.0397 43.1375 36.3478 42.8307C36.6985 42.4813 37.0489 42.1316 37.3993 41.7819C38.12 41.0625 38.8411 40.3436 39.5625 39.625Z" fill="#7B55D3"/>
<path d="M39.7154 43.5923C40.0794 43.8123 40.3744 44.1541 40.5006 44.561C40.5509 45.0508 40.5708 45.5372 40.2506 45.936C39.9503 46.2514 39.6779 46.4739 39.2337 46.5195C38.7014 46.5254 38.3333 46.5059 37.9402 46.1316C37.5414 45.7001 37.4705 45.3609 37.4815 44.7764C37.525 44.285 37.7535 44.0267 38.1194 43.7139C38.561 43.4096 39.2251 43.375 39.7154 43.5923ZM38.6646 44.6626C38.5326 44.8555 38.5248 44.9565 38.5631 45.186C38.6568 45.3423 38.6568 45.3423 38.8131 45.436C39.0425 45.4743 39.1436 45.4665 39.3365 45.3345C39.4685 45.1415 39.4763 45.0405 39.4381 44.811C39.3443 44.6548 39.3443 44.6548 39.1881 44.561C38.9586 44.5228 38.8575 44.5306 38.6646 44.6626Z" fill="#7B55D3"/>
<path d="M35.7154 39.5923C36.0794 39.8123 36.3744 40.1541 36.5006 40.561C36.5509 41.0508 36.5708 41.5372 36.2506 41.936C35.9503 42.2514 35.6779 42.4739 35.2337 42.5195C34.7014 42.5254 34.3333 42.5059 33.9402 42.1316C33.5414 41.7001 33.4705 41.3609 33.4815 40.7764C33.525 40.285 33.7535 40.0267 34.1194 39.7139C34.561 39.4096 35.2251 39.375 35.7154 39.5923ZM34.6646 40.6626C34.5326 40.8555 34.5248 40.9565 34.5631 41.186C34.6568 41.3423 34.6568 41.3423 34.8131 41.436C35.0425 41.4743 35.1436 41.4665 35.3365 41.3345C35.4685 41.1415 35.4763 41.0405 35.4381 40.811C35.3443 40.6548 35.3443 40.6548 35.1881 40.561C34.9586 40.5228 34.8575 40.5306 34.6646 40.6626Z" fill="#7B55D3"/>
</g>
<defs>
<filter id="filter0_d_1_130050" x="0" y="0" width="74" height="74" filterUnits="userSpaceOnUse" color-interpolation-filters="sRGB">
<feFlood flood-opacity="0" result="BackgroundImageFix"/>
<feColorMatrix in="SourceAlpha" type="matrix" values="0 0 0 0 0 0 0 0 0 0 0 0 0 0 0 0 0 0 127 0" result="hardAlpha"/>
<feOffset dy="1"/>
<feGaussianBlur stdDeviation="0.5"/>
<feComposite in2="hardAlpha" operator="out"/>
<feColorMatrix type="matrix" values="0 0 0 0 0 0 0 0 0 0 0 0 0 0 0 0 0 0 0.04 0"/>
<feBlend mode="normal" in2="BackgroundImageFix" result="effect1_dropShadow_1_130050"/>
<feBlend mode="normal" in="SourceGraphic" in2="effect1_dropShadow_1_130050" result="shape"/>
</filter>
</defs>
</svg>
