<svg width="74" height="74" viewBox="0 0 74 74" fill="none" xmlns="http://www.w3.org/2000/svg">
<g filter="url(#filter0_d_1_129891)">
<rect x="1" width="72" height="72" rx="36" fill="white" shape-rendering="crispEdges"/>
<g clip-path="url(#clip0_1_129891)">
<path d="M23.0502 20.4857C23.1236 20.4853 23.1236 20.4853 23.1985 20.485C23.3632 20.4844 23.5279 20.4847 23.6926 20.485C23.8116 20.4848 23.9306 20.4845 24.0496 20.4842C24.3772 20.4834 24.7047 20.4834 25.0323 20.4836C25.3853 20.4836 25.7384 20.4829 26.0915 20.4823C26.7834 20.4813 27.4753 20.4809 28.1672 20.4809C28.7295 20.4808 29.2918 20.4805 29.8541 20.4801C31.1882 20.4792 32.5223 20.4785 33.8564 20.4785C33.9204 20.4785 33.9204 20.4785 33.9857 20.4785C34.202 20.4785 34.4183 20.4786 34.6346 20.4786C34.6775 20.4786 34.7205 20.4786 34.7647 20.4786C34.8516 20.4786 34.9385 20.4786 35.0253 20.4786C36.3768 20.4787 37.7284 20.4777 39.0799 20.476C40.5981 20.4741 42.1163 20.473 43.6345 20.4731C44.4384 20.4732 45.2424 20.4728 46.0463 20.4715C46.7308 20.4704 47.4152 20.4701 48.0996 20.4709C48.4489 20.4713 48.7982 20.4713 49.1475 20.4703C49.4673 20.4693 49.787 20.4695 50.1067 20.4705C50.2224 20.4707 50.3381 20.4705 50.4538 20.4698C50.6111 20.4689 50.7683 20.4696 50.9255 20.4706C50.9705 20.47 51.0154 20.4694 51.0617 20.4688C51.462 20.4744 51.7794 20.6135 52.0773 20.8745C52.111 20.9152 52.1446 20.9559 52.1793 20.9978C52.214 21.0384 52.2486 21.0789 52.2843 21.1206C52.4725 21.3937 52.5153 21.6288 52.5157 21.9574C52.5161 22.0372 52.5165 22.1169 52.517 22.1991C52.5168 22.2875 52.5166 22.3758 52.5164 22.4642C52.5166 22.5582 52.5169 22.6522 52.5172 22.7462C52.518 23.0046 52.518 23.263 52.5178 23.5214C52.5178 23.8001 52.5185 24.0788 52.5191 24.3575C52.5201 24.9037 52.5205 25.45 52.5205 25.9963C52.5206 26.4407 52.5208 26.8852 52.5212 27.3296C52.5223 28.5908 52.5229 29.8519 52.5228 31.113C52.5228 31.181 52.5228 31.249 52.5228 31.3191C52.5228 31.3872 52.5228 31.4553 52.5228 31.5255C52.5227 32.6269 52.5239 33.7284 52.5257 34.8299C52.5275 35.9619 52.5284 37.0939 52.5283 38.2259C52.5282 38.861 52.5286 39.4961 52.5299 40.1312C52.531 40.6725 52.5313 41.2137 52.5305 41.755C52.5301 42.0307 52.53 42.3064 52.5311 42.5821C52.5406 45.1195 52.0559 47.2401 50.2497 49.1267C50.207 49.1734 50.1643 49.22 50.1203 49.2681C49.7289 49.6819 49.2844 50.0005 48.8122 50.3142C48.7538 50.3536 48.6955 50.3929 48.6354 50.4334C46.9123 51.5165 44.6375 51.8116 42.6636 51.3667C41.2138 51.0006 39.9518 50.283 38.8746 49.2517C38.828 49.209 38.7814 49.1663 38.7333 49.1223C38.3195 48.7309 38.0009 48.2865 37.6871 47.8142C37.6478 47.7559 37.6085 47.6976 37.568 47.6375C37.0879 46.8736 36.778 45.9873 36.5934 45.1072C36.5834 45.0611 36.5734 45.015 36.5631 44.9674C36.5014 44.6375 36.495 44.3159 36.4973 43.9814C36.4975 43.9352 36.4977 43.889 36.4978 43.8413C36.4983 43.7281 36.4989 43.6149 36.4997 43.5017C36.4283 43.502 36.3569 43.5022 36.2834 43.5024C34.5469 43.508 32.8104 43.5121 31.0739 43.5147C30.9067 43.515 30.7395 43.5152 30.5724 43.5155C30.5308 43.5155 30.4893 43.5156 30.4465 43.5157C29.7741 43.5168 29.1017 43.5187 28.4293 43.521C27.7392 43.5234 27.049 43.5247 26.3588 43.5253C25.9713 43.5256 25.5837 43.5264 25.1962 43.5282C24.8313 43.5299 24.4665 43.5304 24.1017 43.53C23.9678 43.5301 23.834 43.5306 23.7002 43.5315C23.5172 43.5328 23.3343 43.5325 23.1514 43.5318C23.0986 43.5325 23.0459 43.5333 22.9915 43.534C22.5674 43.5298 22.2426 43.4098 21.922 43.1289C21.8883 43.0883 21.8547 43.0476 21.82 43.0056C21.7853 42.9651 21.7507 42.9246 21.715 42.8828C21.5343 42.6206 21.484 42.3921 21.4836 42.0762C21.4832 42.0031 21.4828 41.9301 21.4823 41.8549C21.4825 41.7749 21.4827 41.6949 21.4829 41.6125C21.4827 41.5265 21.4824 41.4405 21.4821 41.3545C21.4813 41.1181 21.4813 40.8818 21.4815 40.6455C21.4815 40.3906 21.4808 40.1357 21.4802 39.8808C21.4792 39.3813 21.4788 38.882 21.4788 38.3825C21.4787 37.9766 21.4785 37.5707 21.4781 37.1648C21.477 36.014 21.4764 34.8632 21.4765 33.7124C21.4765 33.6503 21.4765 33.5883 21.4765 33.5244C21.4765 33.4622 21.4765 33.4001 21.4765 33.3361C21.4766 32.3293 21.4754 31.3225 21.4736 30.3157C21.4718 29.282 21.4709 28.2483 21.471 27.2146C21.4711 26.6343 21.4707 26.0539 21.4694 25.4735C21.4683 24.9794 21.468 24.4852 21.4688 23.9911C21.4692 23.739 21.4692 23.4869 21.4682 23.2349C21.4672 23.0039 21.4674 22.7731 21.4685 22.5422C21.4687 22.4193 21.4678 22.2965 21.4668 22.1737C21.4708 21.6651 21.5278 21.3174 21.8725 20.9241C21.9131 20.8904 21.9538 20.8568 21.9957 20.8221C22.0363 20.7874 22.0768 20.7528 22.1185 20.7171C22.4186 20.5103 22.6934 20.4836 23.0502 20.4857ZM22.6247 21.6892C22.2761 22.5605 22.4997 23.5633 22.4997 24.5017C32.0696 24.5017 41.6397 24.5017 51.4997 24.5017C51.6206 23.0135 51.6206 23.0135 51.3122 21.6267C51.0655 21.4753 50.8067 21.4841 50.525 21.4858C50.4774 21.4856 50.4299 21.4854 50.381 21.4852C50.2212 21.4847 50.0614 21.4851 49.9016 21.4854C49.7861 21.4853 49.6706 21.485 49.5551 21.4847C49.2373 21.4841 48.9195 21.4842 48.6017 21.4845C48.2591 21.4846 47.9165 21.4841 47.5739 21.4836C46.9026 21.4828 46.2313 21.4827 45.56 21.4828C45.0145 21.483 44.469 21.4828 43.9235 21.4826C43.8459 21.4825 43.7684 21.4825 43.6885 21.4825C43.5309 21.4824 43.3734 21.4823 43.2158 21.4822C42.1576 21.4818 41.0994 21.4815 40.0412 21.4818C39.9998 21.4818 39.9584 21.4818 39.9157 21.4818C39.706 21.4818 39.4962 21.4819 39.2864 21.4819C39.2239 21.482 39.2239 21.482 39.1601 21.482C39.0759 21.482 38.9916 21.482 38.9074 21.482C37.5961 21.4824 36.2849 21.4819 34.9737 21.4807C33.5008 21.4794 32.028 21.4788 30.5551 21.479C29.7752 21.4791 28.9952 21.479 28.2152 21.4781C27.5513 21.4774 26.8873 21.4773 26.2234 21.478C25.8845 21.4784 25.5456 21.4785 25.2067 21.4777C24.8966 21.477 24.5865 21.4772 24.2765 21.4781C24.1641 21.4783 24.0518 21.4781 23.9394 21.4776C23.787 21.477 23.6346 21.4775 23.4822 21.4783C23.4384 21.4779 23.3945 21.4774 23.3493 21.4769C23.0634 21.4801 22.8623 21.5283 22.6247 21.6892ZM22.4997 25.5017C22.4958 28.2165 22.4919 30.9313 22.4879 33.7283C22.4862 34.5863 22.4845 35.4443 22.4828 36.3283C22.4821 37.0957 22.4821 37.0957 22.4818 37.8631C22.4816 38.2056 22.4809 38.5481 22.4799 38.8906C22.4787 39.2854 22.4781 39.6803 22.4784 40.0752C22.4785 40.2773 22.4782 40.4793 22.4773 40.6813C22.4764 40.8976 22.4766 41.1139 22.4771 41.3302C22.4766 41.3933 22.476 41.4564 22.4754 41.5214C22.4775 41.8488 22.487 42.1025 22.6872 42.3767C22.951 42.5448 23.2493 42.5189 23.5521 42.5168C23.6078 42.5169 23.6634 42.517 23.7208 42.5171C23.9072 42.5173 24.0937 42.5166 24.2801 42.5159C24.4138 42.5159 24.5475 42.5159 24.6811 42.516C25.0441 42.516 25.407 42.5153 25.77 42.5144C26.1493 42.5136 26.5286 42.5136 26.9078 42.5134C27.6261 42.513 28.3444 42.512 29.0627 42.5107C29.8804 42.5093 30.6981 42.5087 31.5158 42.508C33.1979 42.5067 34.88 42.5045 36.5622 42.5017C36.5787 42.4215 36.5952 42.3412 36.6122 42.2585C36.6344 42.1514 36.6566 42.0443 36.6788 41.9373C36.6951 41.8582 36.6951 41.8582 36.7116 41.7776C37.0267 40.2658 37.7561 38.9966 38.8121 37.8767C38.8504 37.8344 38.8887 37.7921 38.9281 37.7486C39.3003 37.3526 39.739 37.0544 40.1872 36.7517C40.2371 36.7169 40.2871 36.6821 40.3385 36.6463C41.9875 35.5703 44.2779 35.2738 46.1872 35.6658C47.7284 36.0142 49.0556 36.787 50.1872 37.8767C50.2476 37.9312 50.2476 37.9312 50.3092 37.9869C50.6528 38.3055 50.9073 38.6957 51.1708 39.0804C51.2753 39.2247 51.3884 39.3626 51.4997 39.5017C51.4997 34.8817 51.4997 30.2617 51.4997 25.5017C41.9297 25.5017 32.3596 25.5017 22.4997 25.5017ZM39.9997 38.1892C39.9239 38.2515 39.9239 38.2515 39.8466 38.315C38.8942 39.1239 38.183 40.2489 37.8121 41.4392C37.7877 41.5167 37.7632 41.5941 37.7379 41.6739C37.2476 43.4059 37.5291 45.3074 38.3746 46.8767C38.607 47.2797 38.8783 47.6542 39.1872 48.0017C39.2267 47.967 39.2267 47.967 39.267 47.9316C39.4907 47.7372 39.7184 47.5529 39.9567 47.3768C40.6107 46.8935 41.2325 46.3747 41.8395 45.8338C41.8909 45.7881 41.9422 45.7423 41.9951 45.6952C43.3497 44.4726 44.1861 43.3374 44.2885 41.4737C44.3587 39.8374 44.2123 38.1858 43.9997 36.5642C42.5492 36.5557 41.0768 37.255 39.9997 38.1892ZM44.9997 36.5642C44.8538 37.5768 44.7575 38.5896 44.7028 39.6111C44.6987 39.6865 44.6946 39.7618 44.6905 39.8395C44.5996 41.7473 44.7504 43.2854 46.0573 44.7535C46.4734 45.2092 46.9158 45.6324 47.3747 46.0447C47.4314 46.0958 47.4882 46.1469 47.5468 46.1995C48.2563 46.8324 48.9893 47.4311 49.7497 48.0017C50.8593 46.9029 51.445 45.2891 51.4578 43.7417C51.4574 43.6677 51.457 43.5936 51.4567 43.5174C51.4563 43.4399 51.456 43.3625 51.4556 43.2827C51.4483 42.7277 51.4106 42.2233 51.2497 41.6892C51.2376 41.648 51.2255 41.6068 51.213 41.5644C50.9263 40.6077 50.4727 39.7535 49.8122 39.0017C49.7707 38.9514 49.7293 38.901 49.6867 38.8492C48.6439 37.6198 46.9936 36.7017 45.3747 36.5642C45.2497 36.5638 45.1246 36.5637 44.9997 36.5642ZM44.14 44.5959C44.0989 44.6373 44.0579 44.6788 44.0156 44.7216C43.9723 44.7649 43.929 44.8082 43.8844 44.8527C43.7407 44.9965 43.5975 45.1407 43.4542 45.2849C43.355 45.3845 43.2556 45.484 43.1563 45.5834C42.8944 45.8458 42.6329 46.1085 42.3715 46.3713C42.1049 46.6392 41.8379 46.9068 41.5709 47.1744C41.0468 47.6998 40.5231 48.2257 39.9997 48.7517C40.8086 49.5687 41.8399 50.0215 42.9372 50.3142C42.9921 50.3289 43.047 50.3436 43.1037 50.3587C44.7774 50.7449 46.643 50.3826 48.0995 49.4942C48.416 49.2867 48.7167 49.0657 48.9997 48.8142C48.7491 48.5142 48.4876 48.2304 48.2111 47.9542C48.1717 47.9145 48.1322 47.8748 48.0915 47.8339C47.9624 47.7042 47.8331 47.5748 47.7038 47.4453C47.6135 47.3549 47.5233 47.2644 47.433 47.174C47.2446 46.9852 47.0561 46.7966 46.8675 46.6081C46.6254 46.3659 46.3837 46.1233 46.142 45.8806C45.9562 45.6941 45.7701 45.5079 45.5839 45.3217C45.4946 45.2323 45.4054 45.1428 45.3163 45.0532C45.1922 44.9286 45.0678 44.8044 44.9433 44.6802C44.9064 44.6429 44.8694 44.6056 44.8313 44.5672C44.5078 44.2461 44.4592 44.2781 44.14 44.5959Z" fill="#7B55D3"/>
<path d="M24.895 34.4845C24.9609 34.484 25.0269 34.4835 25.0949 34.4829C25.1666 34.483 25.2383 34.483 25.3122 34.4831C25.3883 34.4827 25.4643 34.4822 25.5427 34.4818C25.7509 34.4808 25.959 34.4804 26.1672 34.4803C26.2974 34.4802 26.4277 34.48 26.5579 34.4796C27.0128 34.4785 27.4676 34.478 27.9225 34.4781C28.3456 34.4782 28.7688 34.4768 29.1919 34.4749C29.5559 34.4732 29.9199 34.4726 30.2838 34.4726C30.5009 34.4727 30.718 34.4723 30.9351 34.471C31.1774 34.4695 31.4197 34.4701 31.6621 34.4709C31.7334 34.4702 31.8048 34.4695 31.8783 34.4688C32.3646 34.4726 32.7011 34.5447 33.0769 34.874C33.1106 34.9147 33.1443 34.9554 33.179 34.9973C33.2136 35.0379 33.2483 35.0784 33.284 35.1201C33.4875 35.4156 33.5179 35.6872 33.5175 36.0388C33.5179 36.0856 33.5183 36.1324 33.5187 36.1806C33.5199 36.3348 33.5202 36.4889 33.5203 36.6431C33.5207 36.7507 33.5211 36.8584 33.5216 36.9661C33.5223 37.1916 33.5225 37.4171 33.5225 37.6427C33.5224 37.9308 33.5242 38.2189 33.5263 38.507C33.5277 38.7294 33.528 38.9517 33.5279 39.1741C33.528 39.2803 33.5286 39.3864 33.5296 39.4926C33.5388 40.6084 33.5388 40.6084 33.1265 41.0789C33.0858 41.1126 33.0451 41.1462 33.0032 41.1809C32.9627 41.2156 32.9222 41.2502 32.8804 41.2859C32.6294 41.4589 32.4063 41.5168 32.1036 41.518C32.0377 41.5185 31.9717 41.519 31.9037 41.5196C31.832 41.5195 31.7603 41.5195 31.6864 41.5194C31.6103 41.5198 31.5343 41.5202 31.4559 41.5207C31.2477 41.5217 31.0396 41.5221 30.8314 41.5222C30.7012 41.5222 30.5709 41.5225 30.4407 41.5228C29.9858 41.524 29.531 41.5245 29.0761 41.5244C28.653 41.5243 28.2298 41.5256 27.8067 41.5276C27.4427 41.5293 27.0787 41.5299 26.7148 41.5298C26.4977 41.5298 26.2806 41.5302 26.0635 41.5315C25.8212 41.5329 25.5789 41.5324 25.3365 41.5316C25.2652 41.5323 25.1938 41.533 25.1203 41.5337C24.634 41.5299 24.2975 41.4578 23.9217 41.1284C23.888 41.0878 23.8543 41.0471 23.8196 41.0051C23.785 40.9646 23.7503 40.9241 23.7146 40.8823C23.511 40.5869 23.4807 40.3153 23.4811 39.9637C23.4807 39.9169 23.4803 39.8701 23.4799 39.8219C23.4787 39.6677 23.4784 39.5136 23.4783 39.3594C23.4779 39.2517 23.4775 39.1441 23.477 39.0364C23.4763 38.8109 23.4761 38.5854 23.4761 38.3598C23.4761 38.0717 23.4744 37.7836 23.4723 37.4955C23.4709 37.2731 23.4706 37.0508 23.4707 36.8284C23.4706 36.7222 23.47 36.6161 23.469 36.5099C23.4598 35.3941 23.4598 35.3941 23.8721 34.9236C23.9128 34.8899 23.9535 34.8563 23.9954 34.8216C24.0359 34.7869 24.0764 34.7523 24.1182 34.7166C24.3692 34.5436 24.5923 34.4856 24.895 34.4845ZM24.6243 35.6887C24.4873 35.9199 24.4832 36.133 24.4821 36.398C24.4815 36.4768 24.4809 36.5557 24.4803 36.6369C24.4803 36.7225 24.4804 36.808 24.4805 36.8936C24.4803 36.9819 24.48 37.0702 24.4797 37.1586C24.4792 37.3435 24.4792 37.5283 24.4796 37.7132C24.4799 37.9495 24.4789 38.1857 24.4774 38.422C24.4765 38.6044 24.4764 38.7867 24.4766 38.9691C24.4766 39.0562 24.4763 39.1433 24.4757 39.2304C24.4749 39.3524 24.4754 39.4744 24.476 39.5964C24.476 39.6657 24.476 39.735 24.4759 39.8064C24.5036 40.0367 24.5593 40.1825 24.6868 40.3762C24.9696 40.5668 25.3429 40.5192 25.6714 40.5184C25.7391 40.5187 25.8068 40.519 25.8766 40.5194C26.1004 40.5202 26.3241 40.5202 26.5479 40.52C26.7035 40.5203 26.8591 40.5206 27.0147 40.5209C27.3408 40.5213 27.6669 40.5213 27.993 40.521C28.3278 40.5206 28.6626 40.5211 28.9975 40.5223C29.4018 40.5237 29.8062 40.5241 30.2106 40.5239C30.3647 40.5239 30.5188 40.5243 30.6728 40.5249C30.8883 40.5257 31.1037 40.5252 31.3191 40.5245C31.3827 40.525 31.4463 40.5255 31.5119 40.526C31.8412 40.5235 32.0986 40.5155 32.3743 40.3137C32.5113 40.0826 32.5154 39.8694 32.5165 39.6045C32.5171 39.5257 32.5177 39.4468 32.5183 39.3656C32.5183 39.28 32.5182 39.1945 32.5181 39.1089C32.5183 39.0206 32.5186 38.9322 32.5189 38.8439C32.5194 38.659 32.5194 38.4742 32.519 38.2893C32.5187 38.053 32.5197 37.8167 32.5212 37.5805C32.5221 37.3981 32.5222 37.2157 32.522 37.0334C32.522 36.9463 32.5223 36.8592 32.5229 36.7721C32.5237 36.6501 32.5232 36.5281 32.5226 36.406C32.5226 36.3368 32.5226 36.2675 32.5227 36.1961C32.495 35.9658 32.4392 35.82 32.3118 35.6262C32.029 35.4357 31.6557 35.4833 31.3272 35.4841C31.2595 35.4838 31.1918 35.4834 31.122 35.4831C30.8982 35.4822 30.6745 35.4823 30.4507 35.4824C30.2951 35.4822 30.1395 35.4819 29.9839 35.4816C29.6578 35.4812 29.3317 35.4812 29.0056 35.4815C28.6708 35.4818 28.336 35.4814 28.0011 35.4802C27.5968 35.4788 27.1924 35.4783 26.788 35.4786C26.6339 35.4786 26.4798 35.4782 26.3258 35.4776C26.1103 35.4768 25.8949 35.4772 25.6795 35.478C25.5841 35.4773 25.5841 35.4773 25.4867 35.4765C25.1574 35.479 24.9 35.487 24.6243 35.6887Z" fill="#7B55D3"/>
<path d="M24.895 26.4845C24.9609 26.484 25.0269 26.4835 25.0949 26.4829C25.1666 26.483 25.2383 26.483 25.3122 26.4831C25.3883 26.4827 25.4643 26.4822 25.5427 26.4818C25.7509 26.4808 25.959 26.4804 26.1672 26.4803C26.2974 26.4802 26.4277 26.48 26.5579 26.4796C27.0128 26.4785 27.4676 26.478 27.9225 26.4781C28.3456 26.4782 28.7688 26.4768 29.1919 26.4749C29.5559 26.4732 29.9199 26.4726 30.2838 26.4726C30.5009 26.4727 30.718 26.4723 30.9351 26.471C31.1774 26.4695 31.4197 26.4701 31.6621 26.4709C31.7334 26.4702 31.8048 26.4695 31.8783 26.4688C32.3646 26.4726 32.7011 26.5447 33.0769 26.874C33.1106 26.9147 33.1443 26.9554 33.179 26.9973C33.2136 27.0379 33.2483 27.0784 33.284 27.1201C33.4875 27.4156 33.5179 27.6872 33.5175 28.0388C33.5179 28.0856 33.5183 28.1324 33.5187 28.1806C33.5199 28.3348 33.5202 28.4889 33.5203 28.6431C33.5207 28.7507 33.5211 28.8584 33.5216 28.9661C33.5223 29.1916 33.5225 29.4171 33.5225 29.6427C33.5224 29.9308 33.5242 30.2189 33.5263 30.507C33.5277 30.7294 33.528 30.9517 33.5279 31.1741C33.528 31.2803 33.5286 31.3864 33.5296 31.4926C33.5388 32.6084 33.5388 32.6084 33.1265 33.0789C33.0858 33.1126 33.0451 33.1462 33.0032 33.1809C32.9627 33.2156 32.9222 33.2502 32.8804 33.2859C32.6294 33.4589 32.4063 33.5168 32.1036 33.518C32.0377 33.5185 31.9717 33.519 31.9037 33.5196C31.832 33.5195 31.7603 33.5195 31.6864 33.5194C31.6103 33.5198 31.5343 33.5202 31.4559 33.5207C31.2477 33.5217 31.0396 33.5221 30.8314 33.5222C30.7012 33.5222 30.5709 33.5225 30.4407 33.5228C29.9858 33.524 29.531 33.5245 29.0761 33.5244C28.653 33.5243 28.2298 33.5256 27.8067 33.5276C27.4427 33.5293 27.0787 33.5299 26.7148 33.5298C26.4977 33.5298 26.2806 33.5302 26.0635 33.5315C25.8212 33.5329 25.5789 33.5324 25.3365 33.5316C25.2652 33.5323 25.1938 33.533 25.1203 33.5337C24.634 33.5299 24.2975 33.4578 23.9217 33.1284C23.888 33.0878 23.8543 33.0471 23.8196 33.0051C23.785 32.9646 23.7503 32.9241 23.7146 32.8823C23.511 32.5869 23.4807 32.3153 23.4811 31.9637C23.4807 31.9169 23.4803 31.8701 23.4799 31.8219C23.4787 31.6677 23.4784 31.5136 23.4783 31.3594C23.4779 31.2517 23.4775 31.1441 23.477 31.0364C23.4763 30.8109 23.4761 30.5854 23.4761 30.3598C23.4761 30.0717 23.4744 29.7836 23.4723 29.4955C23.4709 29.2731 23.4706 29.0508 23.4707 28.8284C23.4706 28.7222 23.47 28.6161 23.469 28.5099C23.4598 27.3941 23.4598 27.3941 23.8721 26.9236C23.9128 26.8899 23.9535 26.8563 23.9954 26.8216C24.0359 26.7869 24.0764 26.7523 24.1182 26.7166C24.3692 26.5436 24.5923 26.4856 24.895 26.4845ZM24.6243 27.6887C24.4873 27.9199 24.4832 28.133 24.4821 28.398C24.4815 28.4768 24.4809 28.5557 24.4803 28.6369C24.4803 28.7225 24.4804 28.808 24.4805 28.8936C24.4803 28.9819 24.48 29.0702 24.4797 29.1586C24.4792 29.3435 24.4792 29.5283 24.4796 29.7132C24.4799 29.9495 24.4789 30.1857 24.4774 30.422C24.4765 30.6044 24.4764 30.7867 24.4766 30.9691C24.4766 31.0562 24.4763 31.1433 24.4757 31.2304C24.4749 31.3524 24.4754 31.4744 24.476 31.5964C24.476 31.6657 24.476 31.735 24.4759 31.8064C24.5036 32.0367 24.5593 32.1825 24.6868 32.3762C24.9696 32.5668 25.3429 32.5192 25.6714 32.5184C25.7391 32.5187 25.8068 32.519 25.8766 32.5194C26.1004 32.5202 26.3241 32.5202 26.5479 32.52C26.7035 32.5203 26.8591 32.5206 27.0147 32.5209C27.3408 32.5213 27.6669 32.5213 27.993 32.521C28.3278 32.5206 28.6626 32.5211 28.9975 32.5223C29.4018 32.5237 29.8062 32.5241 30.2106 32.5239C30.3647 32.5239 30.5188 32.5243 30.6728 32.5249C30.8883 32.5257 31.1037 32.5252 31.3191 32.5245C31.3827 32.525 31.4463 32.5255 31.5119 32.526C31.8412 32.5235 32.0986 32.5155 32.3743 32.3137C32.5113 32.0826 32.5154 31.8694 32.5165 31.6045C32.5171 31.5257 32.5177 31.4468 32.5183 31.3656C32.5183 31.28 32.5182 31.1945 32.5181 31.1089C32.5183 31.0206 32.5186 30.9322 32.5189 30.8439C32.5194 30.659 32.5194 30.4742 32.519 30.2893C32.5187 30.053 32.5197 29.8167 32.5212 29.5805C32.5221 29.3981 32.5222 29.2157 32.522 29.0334C32.522 28.9463 32.5223 28.8592 32.5229 28.7721C32.5237 28.6501 32.5232 28.5281 32.5226 28.406C32.5226 28.3368 32.5226 28.2675 32.5227 28.1961C32.495 27.9658 32.4392 27.82 32.3118 27.6262C32.029 27.4357 31.6557 27.4833 31.3272 27.4841C31.2595 27.4838 31.1918 27.4834 31.122 27.4831C30.8982 27.4822 30.6745 27.4823 30.4507 27.4824C30.2951 27.4822 30.1395 27.4819 29.9839 27.4816C29.6578 27.4812 29.3317 27.4812 29.0056 27.4815C28.6708 27.4818 28.336 27.4814 28.0011 27.4802C27.5968 27.4788 27.1924 27.4783 26.788 27.4786C26.6339 27.4786 26.4798 27.4782 26.3258 27.4776C26.1103 27.4768 25.8949 27.4772 25.6795 27.478C25.5841 27.4773 25.5841 27.4773 25.4867 27.4765C25.1574 27.479 24.9 27.487 24.6243 27.6887Z" fill="#7B55D3"/>
<path d="M25.5 36.5C25.83 36.5 26.16 36.5 26.5 36.5C26.5 37.16 26.5 37.82 26.5 38.5C26.83 38.5 27.16 38.5 27.5 38.5C27.5 38.17 27.5 37.84 27.5 37.5C27.83 37.5 28.16 37.5 28.5 37.5C28.5 37.83 28.5 38.16 28.5 38.5C28.83 38.5 29.16 38.5 29.5 38.5C29.5 37.84 29.5 37.18 29.5 36.5C29.83 36.5 30.16 36.5 30.5 36.5C30.5 37.16 30.5 37.82 30.5 38.5C30.83 38.5 31.16 38.5 31.5 38.5C31.5 38.83 31.5 39.16 31.5 39.5C29.52 39.5 27.54 39.5 25.5 39.5C25.5 38.51 25.5 37.52 25.5 36.5Z" fill="#7B55D3"/>
<path d="M31.0625 28.125C31.2896 28.231 31.4341 28.3586 31.6094 28.5391C31.6593 28.5901 31.7093 28.6412 31.7607 28.6938C31.7984 28.733 31.8362 28.7722 31.875 28.8125C31.7815 29.0306 31.6568 29.1709 31.4891 29.3376C31.4353 29.3914 31.3815 29.4452 31.3261 29.5006C31.2679 29.5581 31.2098 29.6156 31.1499 29.6748C31.0898 29.7347 31.0297 29.7946 30.9697 29.8545C30.8119 30.0118 30.6538 30.1687 30.4956 30.3255C30.3341 30.4857 30.1729 30.6463 30.0117 30.8069C29.6957 31.1216 29.3792 31.4359 29.0625 31.75C28.8362 31.6438 28.6911 31.5181 28.5146 31.3394C28.4591 31.2834 28.4035 31.2274 28.3462 31.1697C28.2887 31.1111 28.2311 31.0525 28.1719 30.9922C28.1128 30.9325 28.0537 30.8729 27.9946 30.8132C27.8503 30.6674 27.7063 30.5213 27.5625 30.375C27.321 30.474 27.1695 30.6287 26.9873 30.813C26.9571 30.8433 26.927 30.8737 26.8959 30.9049C26.8001 31.0014 26.7047 31.0984 26.6094 31.1953C26.5443 31.261 26.4792 31.3267 26.4141 31.3923C26.2549 31.5529 26.0961 31.7138 25.9375 31.875C25.7104 31.769 25.5659 31.6414 25.3906 31.4609C25.3407 31.4099 25.2907 31.3588 25.2393 31.3062C25.2016 31.267 25.1638 31.2278 25.125 31.1875C25.2119 30.9914 25.3131 30.8591 25.465 30.7083C25.5088 30.6645 25.5526 30.6208 25.5977 30.5757C25.6449 30.5291 25.6921 30.4825 25.7407 30.4346C25.7891 30.3864 25.8375 30.3382 25.8873 30.2885C26.0418 30.1348 26.1967 29.9814 26.3516 29.8281C26.4564 29.7239 26.5612 29.6197 26.666 29.5154C26.9229 29.2599 27.18 29.0048 27.4375 28.75C27.6638 28.8562 27.8089 28.9819 27.9854 29.1606C28.0409 29.2166 28.0965 29.2726 28.1538 29.3303C28.2113 29.3889 28.2689 29.4475 28.3281 29.5078C28.3872 29.5675 28.4463 29.6271 28.5054 29.6868C28.6497 29.8326 28.7937 29.9787 28.9375 30.125C29.1191 30.0429 29.2479 29.955 29.388 29.8137C29.4255 29.7762 29.463 29.7386 29.5017 29.7C29.5414 29.6596 29.5811 29.6192 29.6221 29.5776C29.6633 29.5362 29.7046 29.4948 29.7471 29.4521C29.8786 29.3199 30.0096 29.1873 30.1406 29.0547C30.2298 28.9649 30.319 28.8751 30.4082 28.7854C30.6266 28.5656 30.8447 28.3454 31.0625 28.125Z" fill="#65C7C3"/>
<path d="M42.9377 37.7519C42.9928 37.9215 43.0364 38.0825 43.0744 38.2559C43.0855 38.3033 43.0966 38.3507 43.108 38.3995C43.1353 38.5168 43.1616 38.6344 43.1877 38.7519C43.1475 38.7649 43.1073 38.7779 43.0659 38.7913C41.7907 39.226 40.7408 40.01 40.1265 41.2205C39.7794 41.9483 39.6025 42.6959 39.5627 43.5019C39.2121 43.5019 38.8615 43.5019 38.5002 43.5019C38.4353 41.9597 38.9932 40.5609 40.0315 39.4199C40.5716 38.8443 42.0483 37.4555 42.9377 37.7519Z" fill="#65C7C3"/>
<path d="M39.625 44.375C39.667 44.5064 39.7086 44.6379 39.75 44.7695C39.7732 44.8428 39.7964 44.916 39.8203 44.9915C39.875 45.1875 39.875 45.1875 39.875 45.375C39.7451 45.4292 39.6148 45.4824 39.4844 45.5352C39.4119 45.5649 39.3394 45.5946 39.2646 45.6252C39.0711 45.6849 38.9954 45.7006 38.8125 45.625C38.7705 45.4832 38.7289 45.3412 38.6875 45.1992C38.6527 45.0807 38.6527 45.0807 38.6172 44.9597C38.5625 44.75 38.5625 44.75 38.5625 44.5625C38.7044 44.531 38.8463 44.4998 38.9883 44.4688C39.1068 44.4426 39.1068 44.4426 39.2278 44.416C39.4375 44.375 39.4375 44.375 39.625 44.375Z" fill="#65C7C3"/>
<path d="M49.3125 44.75C49.6793 44.7827 49.9718 44.8601 50.3125 45C50.2789 45.3864 50.1534 45.7079 50 46.0625C49.7532 46.0232 49.5501 45.946 49.3242 45.8398C49.2632 45.8114 49.2022 45.783 49.1394 45.7537C49.0934 45.7318 49.0474 45.71 49 45.6875C49.0392 45.4586 49.1028 45.2574 49.1914 45.043C49.2254 44.9602 49.2254 44.9602 49.26 44.8757C49.2773 44.8342 49.2947 44.7927 49.3125 44.75Z" fill="#65C7C3"/>
<path d="M49.9377 40.8119C50.0266 40.9711 50.0266 40.9711 50.1096 41.1713C50.1377 41.2367 50.1657 41.3022 50.1946 41.3696C50.2502 41.5619 50.2502 41.5619 50.1877 41.8744C49.8784 41.9569 49.569 42.0394 49.2502 42.1244C48.9382 41.4242 48.9382 41.4242 48.9365 41.238C49.0377 41.0577 49.1843 41.0059 49.3674 40.9174C49.4343 40.8841 49.5012 40.8509 49.5701 40.8166C49.7502 40.7494 49.7502 40.7494 49.9377 40.8119Z" fill="#65C7C3"/>
<path d="M50.5 42.8125C50.5 43.2044 50.5 43.5962 50.5 44C50.3479 43.991 50.1958 43.982 50.0391 43.9727C49.9913 43.97 49.9435 43.9673 49.8942 43.9645C49.5764 43.9444 49.5764 43.9444 49.4375 43.875C49.4375 43.5656 49.4375 43.2562 49.4375 42.9375C50.2188 42.8125 50.2188 42.8125 50.5 42.8125Z" fill="#65C7C3"/>
<path d="M35.5 28.5C40.45 28.5 45.4 28.5 50.5 28.5C50.5 28.83 50.5 29.16 50.5 29.5C45.55 29.5 40.6 29.5 35.5 29.5C35.5 29.17 35.5 28.84 35.5 28.5Z" fill="#7B55D3"/>
<path d="M37.5 26.5C41.79 26.5 46.08 26.5 50.5 26.5C50.5 26.83 50.5 27.16 50.5 27.5C46.21 27.5 41.92 27.5 37.5 27.5C37.5 27.17 37.5 26.84 37.5 26.5Z" fill="#7B55D3"/>
<path d="M39.5 30.5C43.13 30.5 46.76 30.5 50.5 30.5C50.5 30.83 50.5 31.16 50.5 31.5C46.87 31.5 43.24 31.5 39.5 31.5C39.5 31.17 39.5 30.84 39.5 30.5Z" fill="#7B55D3"/>
<path d="M35.5 32.5C38.47 32.5 41.44 32.5 44.5 32.5C44.5 32.83 44.5 33.16 44.5 33.5C41.53 33.5 38.56 33.5 35.5 33.5C35.5 33.17 35.5 32.84 35.5 32.5Z" fill="#7B55D3"/>
<path d="M35.5 30.5C36.49 30.5 37.48 30.5 38.5 30.5C38.5 30.83 38.5 31.16 38.5 31.5C37.51 31.5 36.52 31.5 35.5 31.5C35.5 31.17 35.5 30.84 35.5 30.5Z" fill="#7B55D3"/>
<path d="M49.5 32.5C49.83 32.5 50.16 32.5 50.5 32.5C50.5 32.83 50.5 33.16 50.5 33.5C50.17 33.5 49.84 33.5 49.5 33.5C49.5 33.17 49.5 32.84 49.5 32.5Z" fill="#7B55D3"/>
<path d="M47.5 32.5C47.83 32.5 48.16 32.5 48.5 32.5C48.5 32.83 48.5 33.16 48.5 33.5C48.17 33.5 47.84 33.5 47.5 33.5C47.5 33.17 47.5 32.84 47.5 32.5Z" fill="#7B55D3"/>
<path d="M45.5 32.5C45.83 32.5 46.16 32.5 46.5 32.5C46.5 32.83 46.5 33.16 46.5 33.5C46.17 33.5 45.84 33.5 45.5 33.5C45.5 33.17 45.5 32.84 45.5 32.5Z" fill="#7B55D3"/>
<path d="M35.5 26.5C35.83 26.5 36.16 26.5 36.5 26.5C36.5 26.83 36.5 27.16 36.5 27.5C36.17 27.5 35.84 27.5 35.5 27.5C35.5 27.17 35.5 26.84 35.5 26.5Z" fill="#7B55D3"/>
<path d="M27.5 22.5C27.83 22.5 28.16 22.5 28.5 22.5C28.5 22.83 28.5 23.16 28.5 23.5C28.17 23.5 27.84 23.5 27.5 23.5C27.5 23.17 27.5 22.84 27.5 22.5Z" fill="#65C7C3"/>
<path d="M25.5 22.5C25.83 22.5 26.16 22.5 26.5 22.5C26.5 22.83 26.5 23.16 26.5 23.5C26.17 23.5 25.84 23.5 25.5 23.5C25.5 23.17 25.5 22.84 25.5 22.5Z" fill="#65C7C3"/>
<path d="M23.5 22.5C23.83 22.5 24.16 22.5 24.5 22.5C24.5 22.83 24.5 23.16 24.5 23.5C24.17 23.5 23.84 23.5 23.5 23.5C23.5 23.17 23.5 22.84 23.5 22.5Z" fill="#65C7C3"/>
</g>
</g>
<defs>
<filter id="filter0_d_1_129891" x="0" y="0" width="74" height="74" filterUnits="userSpaceOnUse" color-interpolation-filters="sRGB">
<feFlood flood-opacity="0" result="BackgroundImageFix"/>
<feColorMatrix in="SourceAlpha" type="matrix" values="0 0 0 0 0 0 0 0 0 0 0 0 0 0 0 0 0 0 127 0" result="hardAlpha"/>
<feOffset dy="1"/>
<feGaussianBlur stdDeviation="0.5"/>
<feComposite in2="hardAlpha" operator="out"/>
<feColorMatrix type="matrix" values="0 0 0 0 0 0 0 0 0 0 0 0 0 0 0 0 0 0 0.04 0"/>
<feBlend mode="normal" in2="BackgroundImageFix" result="effect1_dropShadow_1_129891"/>
<feBlend mode="normal" in="SourceGraphic" in2="effect1_dropShadow_1_129891" result="shape"/>
</filter>
<clipPath id="clip0_1_129891">
<rect width="32" height="32" fill="white" transform="translate(21 20)"/>
</clipPath>
</defs>
</svg>
