<svg width="104" height="104" viewBox="0 0 104 104" fill="none" xmlns="http://www.w3.org/2000/svg">
<path d="M51.4983 96.5718C77.889 96.5718 99.2828 95.3228 99.2828 93.782C99.2828 92.2412 77.889 90.9922 51.4983 90.9922C25.1077 90.9922 3.71387 92.2412 3.71387 93.782C3.71387 95.3228 25.1077 96.5718 51.4983 96.5718Z" fill="#F5F5F5"/>
<path d="M32.2556 21.8696C29.897 20.5486 27.7381 17.6996 25.8799 17.086C26.4673 15.8666 27.1557 14.6984 27.9377 13.5938C29.796 15.3953 31.9549 18.5622 34.3134 18.3749C33.7245 19.5943 33.0362 20.7631 32.2556 21.8696Z" fill="#7B55D3"/>
<path opacity="0.5" d="M32.2556 21.8696C29.897 20.5486 27.7381 17.6996 25.8799 17.086C26.4673 15.8666 27.1557 14.6984 27.9377 13.5938C29.796 15.3953 31.9549 18.5622 34.3134 18.3749C33.7245 19.5943 33.0362 20.7631 32.2556 21.8696Z" fill="white"/>
<path opacity="0.2" d="M33.7539 19.1125C33.5074 19.0829 33.4261 18.8118 33.5789 18.5407C31.6763 18.1316 29.9117 15.8298 28.3443 14.25C28.3059 14.2982 28.2575 14.3376 28.2024 14.3653C28.1474 14.393 28.0869 14.4084 28.0253 14.4105C27.9637 14.4127 27.9024 14.4014 27.8455 14.3775C27.7887 14.3536 27.7377 14.3177 27.6961 14.2722C27.2322 14.9538 26.8037 15.6587 26.4121 16.3843C26.5148 16.4716 26.5809 16.5943 26.5973 16.728C26.6137 16.8618 26.5793 16.9968 26.5008 17.1064C28.0707 17.9443 29.8329 20.0638 31.7379 21.3379C31.8295 21.2377 31.9517 21.1706 32.0854 21.147C32.2191 21.1234 32.3569 21.1446 32.4773 21.2073C32.9399 20.5305 33.3676 19.8305 33.7588 19.11L33.7539 19.1125ZM29.3326 18.5481C28.8643 18.1119 28.7559 17.4391 29.0713 17.0448C29.3868 16.6504 30.0103 16.7293 30.4786 17.1803C30.9468 17.6313 31.0799 18.2746 30.7644 18.659C30.449 19.0435 29.8107 18.9893 29.3326 18.5481Z" fill="black"/>
<g opacity="0.2">
<path d="M29.6896 18.2969L29.6059 18.398L29.5123 18.3117C29.5419 18.2772 29.569 18.2427 29.5985 18.2107C29.5021 18.1156 29.4296 17.999 29.3867 17.8706L29.5148 17.8262C29.5476 17.9327 29.604 18.0304 29.6798 18.1121L29.83 17.9297C29.7266 17.7868 29.6207 17.6241 29.7266 17.4984C29.8325 17.3727 29.9556 17.4072 30.1404 17.5625C30.1699 17.5304 30.197 17.4959 30.2266 17.4614L30.3177 17.5502L30.2339 17.6512C30.3114 17.7291 30.3733 17.8211 30.4162 17.9223L30.2931 17.9716C30.2586 17.8898 30.2112 17.814 30.1527 17.7473L30 17.9297C30.1034 18.0726 30.2142 18.2353 30.1083 18.361C30.0024 18.4867 29.8793 18.4596 29.6896 18.2969ZM29.9359 17.8213L30.0689 17.6611C29.9827 17.5945 29.9212 17.5945 29.8891 17.634C29.8571 17.6734 29.8719 17.7523 29.9236 17.8311L29.9359 17.8213ZM29.9704 18.2304C30.0074 18.186 29.9704 18.1195 29.9187 18.0381L29.7857 18.1983C29.8645 18.2772 29.9236 18.2797 29.9581 18.2402L29.9704 18.2304Z" fill="black"/>
</g>
<path d="M52.4841 32.3013C50.3153 33.4694 47.0326 33.6173 45.6623 34.7781C44.9747 33.6109 44.3765 32.3932 43.873 31.1356C46.1872 30.6426 49.7238 30.6747 50.6948 28.6562C51.382 29.8245 51.9801 31.043 52.4841 32.3013Z" fill="#7B55D3"/>
<path opacity="0.5" d="M52.4841 32.3013C50.3153 33.4694 47.0326 33.6173 45.6623 34.7781C44.9747 33.6109 44.3765 32.3932 43.873 31.1356C46.1872 30.6426 49.7238 30.6747 50.6948 28.6562C51.382 29.8245 51.9801 31.043 52.4841 32.3013Z" fill="white"/>
<path opacity="0.2" d="M51.0224 29.5471C50.8795 29.7344 50.6281 29.6432 50.4876 29.3672C49.2554 30.6783 46.6036 30.8213 44.5975 31.1959C44.6192 31.2501 44.6288 31.3085 44.6255 31.3669C44.6222 31.4253 44.6061 31.4823 44.5783 31.5338C44.5506 31.5853 44.5119 31.63 44.4649 31.6649C44.418 31.6998 44.3639 31.7239 44.3066 31.7356C44.6024 32.4355 44.9474 33.1699 45.3713 33.9536C45.5635 33.8575 45.842 34.0079 45.9874 34.2913C47.3971 33.4903 49.9085 33.2488 51.8308 32.4281C51.7944 32.3047 51.7988 32.1729 51.8432 32.0522C51.8875 31.9315 51.9696 31.8282 52.0773 31.7578C51.784 31.0603 51.4414 30.3283 51.0224 29.5397V29.5471ZM48.4791 32.8077C48.2199 32.8792 47.9436 32.8542 47.7015 32.7372C47.4594 32.6202 47.268 32.4193 47.163 32.1718C46.9979 31.6937 47.3577 31.2353 47.9393 31.1096C48.521 30.9839 49.0927 31.2378 49.248 31.7109C49.4033 32.1841 49.0508 32.677 48.4791 32.8077Z" fill="black"/>
<g opacity="0.2">
<path d="M48.4609 32.3979C48.4757 32.4398 48.488 32.4817 48.5003 32.5236L48.3871 32.5507C48.3871 32.5088 48.36 32.4669 48.3477 32.425C48.2247 32.4483 48.098 32.4416 47.9782 32.4053C47.9782 32.3609 47.9955 32.319 48.0053 32.2771C48.1026 32.3107 48.2068 32.3192 48.3082 32.3018C48.2861 32.2278 48.2615 32.1539 48.2368 32.0775C48.0743 32.0775 47.8945 32.0775 47.8452 31.9173C47.8083 31.8039 47.8797 31.6832 48.0915 31.6191C48.0767 31.5772 48.0644 31.5353 48.0496 31.4934L48.1654 31.4688C48.1654 31.5106 48.19 31.5525 48.2048 31.5944C48.3047 31.5735 48.4078 31.5735 48.5077 31.5944L48.4856 31.7201C48.4041 31.7063 48.3208 31.7063 48.2393 31.7201C48.2639 31.7941 48.2885 31.8705 48.3107 31.9469C48.4757 31.9469 48.6555 31.9469 48.7048 32.0997C48.7466 32.2081 48.6727 32.3313 48.4609 32.3979ZM48.195 31.9419C48.1728 31.8754 48.1531 31.8089 48.1309 31.7423C48.0373 31.7768 48.0078 31.8261 48.0226 31.8754C48.0373 31.9247 48.1088 31.9395 48.195 31.9419ZM48.5348 32.144C48.5176 32.0898 48.4486 32.0775 48.36 32.0775C48.3797 32.144 48.4018 32.2106 48.4215 32.2746C48.5201 32.2401 48.5398 32.1933 48.5398 32.144H48.5348Z" fill="black"/>
</g>
<path d="M70.2117 16.7418C67.6535 17.6044 65.1372 18.6715 63.2322 20.3351C62.5569 19.3345 61.8619 18.3166 61.2285 17.2495C63.3603 15.6205 65.847 14.5928 68.208 13.6562C68.8833 14.6568 69.5783 15.6747 70.2117 16.7418Z" fill="#7B55D3"/>
<path opacity="0.5" d="M70.2117 16.7418C67.6535 17.6044 65.1372 18.6715 63.2322 20.3351C62.5569 19.3345 61.8619 18.3166 61.2285 17.2495C63.3603 15.6205 65.847 14.5928 68.208 13.6562C68.8833 14.6568 69.5783 15.6747 70.2117 16.7418Z" fill="white"/>
<path opacity="0.2" d="M68.4047 14.3024C68.2738 14.3505 68.1309 14.3547 67.9974 14.3142C67.864 14.2738 67.7474 14.1909 67.6653 14.0781C65.7085 14.8692 63.6975 15.7441 61.9033 16.9986C61.9702 17.12 61.9913 17.2614 61.9628 17.3971C61.9343 17.5327 61.8581 17.6537 61.748 17.7379C62.1522 18.391 62.5737 19.0269 62.9951 19.6553C63.0431 19.6142 63.0994 19.5838 63.1602 19.5665C63.221 19.5491 63.2848 19.5451 63.3473 19.5547C63.4098 19.5643 63.4695 19.5873 63.5223 19.6221C63.5751 19.6569 63.6197 19.7027 63.6531 19.7564C65.3142 18.4748 67.3499 17.5728 69.4201 16.8261C69.3862 16.7729 69.3653 16.7125 69.3591 16.6497C69.3528 16.587 69.3615 16.5237 69.3843 16.4649C69.4071 16.4061 69.4434 16.3535 69.4903 16.3113C69.5372 16.2692 69.5933 16.2387 69.6542 16.2223C69.25 15.5716 68.8261 14.9358 68.4072 14.3073L68.4047 14.3024ZM65.9993 17.5432C65.7557 17.673 65.4728 17.7085 65.2046 17.6431C64.9365 17.5776 64.7018 17.4158 64.5453 17.1883C64.4773 17.0749 64.434 16.9484 64.4184 16.8171C64.4028 16.6857 64.4153 16.5526 64.4548 16.4264C64.4944 16.3002 64.5603 16.1838 64.6481 16.0849C64.7359 15.986 64.8436 15.9068 64.9642 15.8526C65.2169 15.728 65.5062 15.6996 65.7783 15.7726C66.0503 15.8456 66.2866 16.0151 66.443 16.2494C66.5091 16.3613 66.5501 16.4862 66.5633 16.6156C66.5765 16.7449 66.5615 16.8756 66.5193 16.9985C66.4771 17.1215 66.4088 17.2339 66.3191 17.3279C66.2293 17.4219 66.1202 17.4954 65.9993 17.5432Z" fill="black"/>
<g opacity="0.2">
<path d="M65.8551 17.1454L65.9314 17.2711L65.828 17.3204L65.7516 17.1972C65.6387 17.2498 65.5136 17.2711 65.3896 17.2588C65.3896 17.2119 65.3896 17.1627 65.3773 17.1158C65.4792 17.1289 65.5827 17.1153 65.6778 17.0764C65.6334 17 65.5866 16.9261 65.5398 16.8521C65.3822 16.8916 65.2098 16.9261 65.1162 16.7708C65.0448 16.6574 65.0768 16.5096 65.2615 16.3962L65.1827 16.268L65.2862 16.2188L65.3625 16.342C65.4557 16.3019 65.5567 16.2834 65.6581 16.2878C65.6581 16.3321 65.6704 16.3789 65.6778 16.4258C65.5941 16.4226 65.5106 16.4352 65.4315 16.4627L65.5694 16.6895C65.727 16.6525 65.9043 16.618 66.0004 16.7733C66.0743 16.8866 66.0373 17.0296 65.8551 17.1454ZM65.4586 16.7166L65.3354 16.517C65.2541 16.5736 65.2418 16.6328 65.2714 16.6821C65.3009 16.7314 65.3724 16.7338 65.4586 16.7166ZM65.8502 16.8595C65.8157 16.8053 65.7443 16.8078 65.6581 16.825L65.7787 17.0222C65.8625 16.9655 65.8797 16.9088 65.8502 16.8645V16.8595Z" fill="black"/>
</g>
<path d="M25.1722 43.038C23.3091 41.0959 20.2802 41.2783 18.417 39.3412C19.0035 38.2699 19.5909 37.1979 20.1791 36.125C22.0423 38.067 25.0712 37.8871 26.9344 39.8218C26.3478 40.8947 25.7604 41.9667 25.1722 43.038Z" fill="#7B55D3"/>
<path opacity="0.5" d="M25.1722 43.038C23.3091 41.0959 20.2802 41.2783 18.417 39.3412C19.0035 38.2699 19.5909 37.1979 20.1791 36.125C22.0423 38.067 25.0712 37.8871 26.9344 39.8218C26.3478 40.8947 25.7604 41.9667 25.1722 43.038Z" fill="white"/>
<path opacity="0.2" d="M26.4591 40.303C26.3555 40.207 26.2853 40.0804 26.2587 39.9416C26.2321 39.8028 26.2505 39.6592 26.3113 39.5316C24.6255 38.2255 22.299 38.0899 20.6133 36.7812C20.5869 36.8379 20.5471 36.8872 20.4973 36.925C20.4475 36.9628 20.3893 36.9879 20.3276 36.998C20.266 37.0082 20.2027 37.0033 20.1435 36.9835C20.0842 36.9638 20.0306 36.9299 19.9873 36.8848L18.8906 38.8909C18.9933 38.987 19.0627 39.1134 19.0889 39.2516C19.115 39.3898 19.0965 39.5328 19.036 39.6598C20.7218 40.9685 23.0483 41.104 24.734 42.4127C24.7602 42.3559 24.7998 42.3063 24.8495 42.2683C24.8991 42.2302 24.9573 42.2049 25.019 42.1945C25.0807 42.184 25.144 42.1888 25.2034 42.2083C25.2628 42.2279 25.3166 42.2617 25.36 42.3067L26.4567 40.303H26.4591ZM22.1709 40.4263C22.0481 40.3866 21.9357 40.3198 21.8422 40.2308C21.7487 40.1418 21.6765 40.0329 21.6308 39.9122C21.5851 39.7915 21.5672 39.662 21.5783 39.5334C21.5895 39.4048 21.6295 39.2804 21.6952 39.1694C21.8405 38.9262 22.0652 38.7404 22.3314 38.6435C22.5976 38.5465 22.889 38.5442 23.1567 38.637C23.2796 38.6758 23.3921 38.7419 23.4859 38.8303C23.5797 38.9186 23.6523 39.0271 23.6983 39.1475C23.7443 39.2679 23.7624 39.3971 23.7514 39.5255C23.7404 39.6539 23.7006 39.7782 23.6348 39.889C23.4902 40.1336 23.2654 40.3207 22.9986 40.4187C22.7319 40.5166 22.4394 40.5193 22.1709 40.4263Z" fill="black"/>
<g opacity="0.2">
<path d="M22.5037 40.0145C22.4815 40.0589 22.4569 40.1033 22.4323 40.1476L22.3264 40.1082L22.3978 39.9776C22.2902 39.937 22.1986 39.8627 22.1367 39.7656L22.2599 39.667C22.3096 39.7476 22.3826 39.8112 22.4692 39.8494C22.5111 39.7706 22.5554 39.6917 22.5997 39.603C22.4741 39.5192 22.3535 39.4206 22.4347 39.2555C22.4792 39.1865 22.5463 39.1352 22.6246 39.1104C22.7028 39.0857 22.7872 39.089 22.8633 39.1199L22.9371 38.9844L23.043 39.0238L22.9692 39.1544C23.0573 39.1884 23.134 39.2465 23.1908 39.322L23.0726 39.4206C23.0258 39.3627 22.967 39.3156 22.9002 39.2826L22.7697 39.529C22.8953 39.6128 23.016 39.7114 22.9371 39.8765C22.8919 39.946 22.824 39.9977 22.745 40.0228C22.666 40.048 22.5808 40.0451 22.5037 40.0145ZM22.6761 39.4699L22.7918 39.2579C22.6933 39.2382 22.6318 39.2579 22.6047 39.3195C22.5776 39.3812 22.6145 39.4206 22.6761 39.4699ZM22.7672 39.8297C22.7992 39.7706 22.7672 39.7237 22.6909 39.6744L22.5751 39.8839C22.6761 39.9061 22.7377 39.879 22.7672 39.8297Z" fill="black"/>
</g>
<path d="M86.1318 33.1865C84.3721 35.3109 81.3407 34.1723 79.5811 35.8703C78.9378 34.7046 78.2946 33.5833 77.6514 32.5432C79.411 30.4188 82.4424 31.5574 84.202 29.8594C84.8453 31.0251 85.4885 32.1415 86.1318 33.1865Z" fill="#7B55D3"/>
<path opacity="0.5" d="M86.1318 33.1865C84.3721 35.3109 81.3407 34.1723 79.5811 35.8703C78.9378 34.7046 78.2946 33.5833 77.6514 32.5432C79.411 30.4188 82.4424 31.5574 84.202 29.8594C84.8453 31.0251 85.4885 32.1415 86.1318 33.1865Z" fill="white"/>
<path opacity="0.2" d="M84.429 30.5902C84.2343 30.7652 83.9361 30.6593 83.7981 30.3906C82.1838 31.4306 79.8672 30.8663 78.2554 32.1774C78.3225 32.3004 78.3484 32.4417 78.3293 32.5805C78.3103 32.7194 78.2472 32.8484 78.1494 32.9488C78.5487 33.6216 78.9504 34.3215 79.3521 35.0412C79.5468 34.8662 79.845 34.9722 79.983 35.2383C81.5948 34.1983 83.9114 34.7627 85.5257 33.454C85.458 33.3316 85.4318 33.1905 85.4509 33.0519C85.47 32.9133 85.5334 32.7847 85.6317 32.6851C85.23 32.0147 84.8282 31.3124 84.429 30.5927V30.5902ZM82.3563 33.7793C81.8289 33.8508 81.1709 33.4688 80.8776 32.9143C80.5843 32.3598 80.7593 31.82 81.2843 31.7461C81.8092 31.6722 82.4722 32.0591 82.763 32.6136C83.0538 33.1681 82.8837 33.7054 82.3563 33.7793Z" fill="black"/>
<g opacity="0.2">
<path d="M82.2051 33.3039L82.2839 33.4543L82.1829 33.469L82.1017 33.3187C81.9756 33.3292 81.849 33.3063 81.7347 33.2522L81.7199 33.1068C81.8146 33.154 81.9196 33.1769 82.0253 33.1733L81.8849 32.9047C81.7987 32.9074 81.7133 32.8875 81.6373 32.8468C81.5612 32.8061 81.4971 32.7462 81.4515 32.673C81.4303 32.6445 81.4171 32.6108 81.4133 32.5755C81.4094 32.5402 81.4151 32.5045 81.4297 32.4721C81.4442 32.4397 81.4671 32.4118 81.4961 32.3912C81.525 32.3706 81.5589 32.3582 81.5943 32.3551L81.513 32.2023L81.6165 32.1875L81.6953 32.3378C81.7975 32.3306 81.9 32.3457 81.9958 32.3822C81.9958 32.4315 82.0081 32.4783 82.0155 32.5251C81.9368 32.4956 81.8532 32.4814 81.7692 32.4832L81.9145 32.7543C82.0004 32.7513 82.0857 32.7709 82.1617 32.8111C82.2378 32.8514 82.302 32.9108 82.3479 32.9835C82.3689 33.0123 82.382 33.0461 82.3858 33.0815C82.3895 33.1169 82.3839 33.1527 82.3694 33.1852C82.3549 33.2177 82.332 33.2458 82.3032 33.2667C82.2743 33.2875 82.2405 33.3004 82.2051 33.3039ZM81.811 32.742L81.683 32.4956C81.6017 32.5251 81.5894 32.5794 81.6214 32.6385C81.6421 32.67 81.6702 32.696 81.7033 32.714C81.7363 32.7321 81.7734 32.7417 81.811 32.742ZM82.21 33.018C82.1876 32.9873 82.1583 32.9622 82.1246 32.9447C82.0908 32.9271 82.0535 32.9177 82.0155 32.917L82.1411 33.1634C82.2125 33.1289 82.2273 33.0772 82.1977 33.018H82.21Z" fill="black"/>
</g>
<path d="M75.405 49.7794C68.3696 63.3476 59.0374 75.5948 47.8222 85.9781L30.5928 72.8472C41.8158 62.4662 51.1548 50.2187 58.1953 36.6484L75.405 49.7794Z" fill="#7B55D3"/>
<path opacity="0.2" d="M75.405 49.7794C74.8267 50.8983 74.2303 52.0073 73.6158 53.1065C66.814 65.3612 58.1075 76.4568 47.8222 85.9781L30.5928 72.8472C41.8158 62.4662 51.1548 50.2187 58.1953 36.6484L75.405 49.7794Z" fill="white"/>
<path opacity="0.2" d="M60.8884 40.1394C60.7243 40.4712 60.4875 40.7619 60.1956 40.9897C59.9037 41.2175 59.5643 41.3766 59.2025 41.4552C58.8407 41.5338 58.4658 41.5299 58.1058 41.4438C57.7457 41.3576 57.4097 41.1914 57.1226 40.9576C51.0139 51.8878 43.3849 61.8957 34.4639 70.6821C34.7672 70.8951 35.0183 71.1743 35.1981 71.4985C35.378 71.8226 35.4819 72.1834 35.5021 72.5536C35.5222 72.9237 35.4581 73.2936 35.3146 73.6354C35.171 73.9772 34.9518 74.282 34.6733 74.5267L45.4112 82.7114C46.0149 82.1614 46.7885 81.8346 47.6036 81.7853C48.4188 81.736 49.2262 81.9671 49.8917 82.4403C58.8135 73.6545 66.4425 63.6465 72.5505 52.7158C71.2566 51.73 70.8598 49.7732 71.6263 48.324L71.6386 48.3018L60.8982 40.1172L60.8884 40.1394ZM58.9168 66.1474C56.8885 68.8017 52.9822 69.228 50.3378 67.2121C47.6934 65.1961 47.2991 61.4944 49.3298 58.8327C51.3606 56.171 55.0401 55.5796 57.6894 57.6005C60.3388 59.6214 60.9599 63.4931 58.9266 66.1474H58.9168Z" fill="black"/>
<g opacity="0.2">
<path d="M57.074 63.9854L57.7863 64.5276L57.387 65.0501L56.6748 64.5054C56.1597 65.1018 55.4869 65.5455 54.9496 65.6539L54.5306 64.8825C55.0957 64.7296 55.6047 64.4174 55.997 63.983L54.7253 63.0144C54.0156 63.5911 53.1949 64.1678 52.3126 63.4925C51.6644 62.9996 51.4697 62.105 52.1351 61.0403L51.418 60.4932C51.5511 60.3207 51.6841 60.1457 51.8148 59.9707L52.5196 60.508C52.8851 60.066 53.3529 59.72 53.8825 59.5L54.3286 60.2541C53.905 60.4323 53.5231 60.6967 53.2072 61.0305L54.4888 62.0163C55.1985 61.4371 55.997 60.8259 56.8793 61.4987C57.525 61.9842 57.7321 62.8961 57.074 63.9854ZM53.9638 62.4303L52.8326 61.5677C52.5566 62.073 52.6354 62.4377 52.9164 62.6496C53.1973 62.8616 53.567 62.7162 53.9638 62.4303ZM56.3297 62.3588C56.0192 62.1124 55.6619 62.2923 55.2626 62.6053L56.3864 63.4629C56.6748 62.9306 56.5984 62.5683 56.3248 62.3588H56.3297Z" fill="black"/>
</g>
<path opacity="0.2" d="M73.6229 53.0859C66.8193 65.3429 58.1103 76.4403 47.8219 85.9626C47.8219 85.9626 40.5221 74.8254 37.4932 72.7552C37.4932 72.7552 61.0096 64.0284 73.6229 53.0859Z" fill="black"/>
<path d="M91.8578 67.9016C80.3965 78.015 67.2704 86.0672 53.0614 91.7015L41.7246 73.2373C55.9332 67.6038 69.0586 59.5514 80.5185 49.4375C84.3007 55.5939 88.0805 61.7486 91.8578 67.9016Z" fill="#7B55D3"/>
<path opacity="0.3" d="M91.8577 67.8992C80.3964 78.0125 67.2703 86.0647 53.0613 91.699L48.1643 83.7189C46.0284 80.2275 43.8851 76.7336 41.7344 73.2373C55.943 67.6038 69.0683 59.5514 80.5283 49.4375C84.3039 55.5922 88.0804 61.7461 91.8577 67.8992Z" fill="white"/>
<path opacity="0.2" d="M81.786 53.6725C81.5151 53.9255 81.1903 54.1137 80.836 54.2229C80.4818 54.3321 80.1074 54.3595 79.741 54.303C79.3747 54.2466 79.0259 54.1077 78.721 53.8969C78.4161 53.686 78.163 53.4088 77.9808 53.0859C68.338 61.0743 57.6107 67.6544 46.1196 72.6295C46.3258 72.9376 46.4594 73.2885 46.5102 73.6557C46.561 74.0229 46.5277 74.3969 46.4128 74.7494C46.2979 75.1019 46.1045 75.4236 45.847 75.6904C45.5896 75.9572 45.2749 76.162 44.9268 76.2893L51.9925 87.7888C52.754 87.4939 53.5935 87.4686 54.3714 87.717C55.1493 87.9654 55.8187 88.4725 56.2685 89.1541C67.7606 84.1808 78.4881 77.6006 88.1297 69.6105C87.277 68.2254 87.6146 66.2563 88.8518 65.1744L88.8715 65.1571L81.8131 53.6552L81.786 53.6725ZM70.5725 77.2185C67.721 78.9633 63.9183 77.9578 62.1931 75.1162C60.468 72.2747 61.4242 68.6863 64.2757 66.9439C67.1271 65.2015 70.7746 65.9581 72.517 68.8095C74.2594 71.661 73.4338 75.4785 70.5725 77.2185Z" fill="black"/>
<g opacity="0.2">
<path d="M69.646 74.4488L70.1143 75.2128L69.5524 75.5554C69.3996 75.309 69.2443 75.0625 69.089 74.8013C68.3941 75.1685 67.6103 75.341 67.0608 75.2473C67.0238 74.9565 66.9868 74.6657 66.9474 74.3749C67.5291 74.4358 68.116 74.328 68.638 74.0644C68.3604 73.6109 68.0827 73.1574 67.805 72.704C66.9326 72.9849 65.9616 73.224 65.38 72.2776C64.9536 71.5826 65.0941 70.6781 66.0996 69.9265L65.6289 69.1575L66.1883 68.8125L66.6516 69.5691C67.1518 69.2891 67.7126 69.1352 68.2856 69.1206C68.3349 69.4089 68.3817 69.6973 68.431 69.9831C67.9711 69.9989 67.5192 70.1079 67.1027 70.3035L67.9455 71.6787C68.818 71.3953 69.7816 71.1144 70.3607 72.0583C70.7871 72.7533 70.6491 73.6774 69.646 74.4488ZM67.2998 71.8808C67.0517 71.4766 66.8053 71.0725 66.5605 70.6683C66.1193 71.0404 66.0676 71.4076 66.2475 71.7083C66.4274 72.009 66.8316 72.0065 67.2998 71.8808ZM69.5302 72.6695C69.3256 72.3343 68.9313 72.3663 68.4507 72.5019L69.1901 73.707C69.6436 73.325 69.7101 72.9603 69.5302 72.6695Z" fill="black"/>
</g>
<path opacity="0.2" d="M91.8581 67.9141C80.3968 78.0274 67.2708 86.0796 53.0617 91.7139L48.1648 83.7338L47.3096 71.3693C47.3096 71.3693 74.4932 73.3311 91.8581 67.9141Z" fill="black"/>
<path d="M95.1459 91.8136C80.2682 95.3189 64.8959 96.2219 49.7101 94.4827C49.2895 87.2748 48.8673 80.0661 48.4434 72.8566C63.6323 74.5995 79.0085 73.6964 93.889 70.1875C94.3047 77.397 94.7237 84.6057 95.1459 91.8136Z" fill="#7B55D3"/>
<path opacity="0.4" d="M95.1459 91.8136C80.2682 95.3189 64.8959 96.2219 49.7101 94.4827C49.2895 87.2748 48.8673 80.0661 48.4434 72.8566C63.6323 74.5995 79.0085 73.6964 93.889 70.1875C94.3047 77.397 94.7237 84.6057 95.1459 91.8136Z" fill="white"/>
<path opacity="0.2" d="M92.9824 74.5428C92.6237 74.6343 92.249 74.6439 91.8862 74.5708C91.5233 74.4977 91.1815 74.3438 90.8863 74.1206C90.591 73.8973 90.3499 73.6104 90.1807 73.2812C90.0115 72.9519 89.9187 72.5888 89.9091 72.2188C77.6374 74.708 65.0745 75.4423 52.5964 74.3998C52.6325 74.7688 52.5843 75.1412 52.4556 75.4888C52.3269 75.8365 52.1209 76.1504 51.8533 76.4069C51.5856 76.6634 51.2632 76.8558 50.9104 76.9696C50.5576 77.0835 50.1835 77.1157 49.8164 77.064C50.0809 81.5576 50.3438 86.0512 50.605 90.5449C51.4157 90.6435 52.1681 91.0171 52.7368 91.6032C53.3054 92.1893 53.656 92.9527 53.7301 93.766C66.2082 94.8085 78.7711 94.0741 91.0428 91.5849C90.9467 89.9608 92.174 88.381 93.7735 88.0212H93.7981L93.007 74.5428H92.9824ZM71.9798 90.0076C68.6428 90.1974 65.7741 87.5135 65.572 84.1938C65.37 80.8741 67.9306 78.1632 71.2675 77.9734C74.6045 77.7836 77.4559 80.1915 77.6506 83.5112C77.8453 86.8309 75.3143 89.8228 71.9798 90.0076Z" fill="black"/>
<g opacity="0.2">
<path d="M72.4483 87.1785L72.5001 88.0707L71.8445 88.1101L71.7928 87.2253C71.0838 87.2452 70.3857 87.0483 69.7916 86.661C69.8975 86.3874 70.001 86.1138 70.1046 85.8403C70.589 86.1673 71.1567 86.3494 71.741 86.3652C71.7114 85.8329 71.6802 85.3014 71.6473 84.7707C70.7478 84.6056 69.7768 84.3591 69.7127 83.2501C69.6659 82.4368 70.2179 81.7073 71.4576 81.5249L71.4058 80.6254L72.0614 80.5859L72.1131 81.4707C72.6863 81.4572 73.2538 81.5868 73.7644 81.8478L73.4834 82.6758C73.0713 82.4718 72.6217 82.3543 72.1624 82.3308L72.2585 83.9426C73.1581 84.1028 74.1414 84.3098 74.208 85.4213C74.2647 86.2223 73.7077 86.974 72.4483 87.1785ZM71.5931 83.8046C71.5636 83.333 71.5356 82.8607 71.5093 82.3875C70.945 82.5058 70.7232 82.804 70.7429 83.1564C70.7626 83.5088 71.1298 83.6888 71.603 83.8046H71.5931ZM73.1877 85.5544C73.1655 85.165 72.8032 85.0048 72.3152 84.8988L72.3966 86.311C72.9856 86.1853 73.2172 85.9068 73.1877 85.5544Z" fill="black"/>
</g>
<path d="M59.7402 91.8597C59.8042 92.5974 59.8806 93.3474 59.9693 94.1098H8.14062C9.76228 80.4095 8.14062 74.4701 8.14062 74.4701C25.4612 73.1663 59.9693 74.4701 59.9693 74.4701C59.9693 74.4701 58.9269 81.07 59.6292 90.5214C59.6621 90.9601 59.6991 91.4062 59.7402 91.8597Z" fill="#7B55D3"/>
<path opacity="0.2" d="M59.9693 74.4701C57.6995 75.5298 46.5969 75.6801 40.2089 75.2833C33.8209 74.8866 25.4612 76.0966 25.4612 76.0966C20.6209 74.4257 8.14062 74.4701 8.14062 74.4701C25.4612 73.1663 59.9693 74.4701 59.9693 74.4701Z" fill="white"/>
<path opacity="0.2" d="M8.14062 94.1404C9.76227 80.4402 8.14062 74.5007 8.14062 74.5007C8.14062 74.5007 18.4152 74.2764 25.4612 76.1273C25.4612 76.1273 25.7077 78.2172 25.4612 79.2917C25.4612 79.2917 33.9367 77.9165 41.4806 78.0989C41.4806 78.0989 29.8037 79.4421 25.4612 80.4402C25.4612 80.4402 18.4768 79.3509 14.0579 79.2917C14.0579 79.2917 23.2456 80.487 25.4612 81.2017C25.4612 81.2017 28.0884 80.7236 29.4636 80.7236C29.4636 80.7236 26.1735 81.3225 25.4612 81.8573V85.6428C25.4612 85.6428 18.1268 85.7882 14.4473 85.2633C16.1947 85.5368 23.3196 86.6335 25.4612 86.6335C25.4612 86.6335 33.5547 86.3353 38.2545 86.6335C38.2545 86.6335 27.5462 87.2497 25.4612 87.7475H16.2686L25.4612 88.5189V89.2853H29.4044L25.4612 89.9655C25.4612 89.9655 14.0579 89.241 10.7777 89.9655C10.7777 89.9655 24.2364 90.5767 25.4464 91.0524L25.4612 92.1861C25.4612 92.1861 40.5539 90.1923 53.9017 91.9076C53.9017 91.9076 34.4099 91.1337 25.4612 93.3025C25.4612 93.3025 53.4606 92.6938 59.9644 94.1404H8.14062Z" fill="black"/>
<path d="M8.44398 76.1094L7.07617 76.5875C7.07617 76.5875 15.315 76.8709 20.631 77.6842C20.6261 77.6842 12.4365 76.2277 8.44398 76.1094Z" fill="#7B55D3"/>
<path opacity="0.2" d="M26.6621 77.6845L28.7471 78.0813C28.7471 78.0813 38.4548 77.0265 49.9296 76.8983C49.9296 76.8983 33.3557 76.0949 26.6621 77.6845Z" fill="white"/>
<path opacity="0.2" d="M33.2393 79.8866C33.2393 79.8866 39.0604 78.2995 44.1644 78.3784C49.2685 78.4572 58.9836 77.6562 58.9836 77.6562L59.3656 78.3784C59.3656 78.3784 51.7478 78.8244 45.4608 78.7727C41.3619 78.7805 37.272 79.1533 33.2393 79.8866Z" fill="white"/>
<path opacity="0.2" d="M27.4619 82.2426C27.4619 82.2426 34.402 80.7639 41.2065 80.8994C48.011 81.035 56.5801 81.5673 56.5801 81.5673C56.5801 81.5673 37.9829 81.5673 33.2387 82.5531L27.4619 82.2426Z" fill="white"/>
<path d="M39.4678 80.1169C39.4678 80.1169 45.4442 79.624 50.6025 79.8926C55.7607 80.1613 61.1777 80.4028 61.1777 80.4028L59.3663 80.9154C59.3663 80.9154 46.9476 79.6708 39.4678 80.1169Z" fill="#7B55D3"/>
<path opacity="0.2" d="M39.4678 80.1169C39.4678 80.1169 45.4442 79.624 50.6025 79.8926C55.7607 80.1613 61.1777 80.4028 61.1777 80.4028L59.3663 80.9154C59.3663 80.9154 46.9476 79.6708 39.4678 80.1169Z" fill="black"/>
<path opacity="0.2" d="M27.6865 83.5008C27.6865 83.5008 38.0375 83.3727 43.0232 83.1237C48.0089 82.8748 54.6951 84.2574 54.6951 84.2574C54.6951 84.2574 46.4464 84.0824 43.8932 84.4866L27.6865 83.5008Z" fill="black"/>
<path opacity="0.2" d="M26.6621 85.1129L33.2399 84.5312L47.2531 85.1129L33.06 85.6945L26.6621 85.1129Z" fill="white"/>
<path opacity="0.2" d="M31.5801 88.164C31.5801 88.164 41.1449 87.2718 44.8712 87.225C48.5975 87.1782 58.6257 86.5078 58.6257 86.5078L57.5117 87.9865C57.5117 87.9865 38.6557 87.5848 31.5801 88.164Z" fill="white"/>
<path d="M55.835 83.1361L59.3666 83.4688L60.3278 83.1361C58.8334 82.9963 57.3293 82.9963 55.835 83.1361Z" fill="#7B55D3"/>
<path d="M59.8118 75.6875L61.1771 75.9068L59.7108 76.6733L51.085 76.4909C51.085 76.4909 57.5518 76.4047 59.8118 75.6875Z" fill="#7B55D3"/>
<path opacity="0.2" d="M55.835 83.1361L59.3666 83.4688L60.3278 83.1361C58.8334 82.9963 57.3293 82.9963 55.835 83.1361Z" fill="white"/>
<path opacity="0.2" d="M59.8118 75.6875L61.1771 75.9068L59.7108 76.6733L51.085 76.4909C51.085 76.4909 57.5518 76.4047 59.8118 75.6875Z" fill="black"/>
<path opacity="0.2" d="M59.7399 91.8756C57.4232 91.7253 41.1895 89.6847 41.1895 89.6847C42.2714 89.559 56.4423 90.3969 59.6289 90.5374C59.6618 90.9761 59.6988 91.4222 59.7399 91.8756Z" fill="black"/>
<path d="M35.2969 89.3688C35.2969 89.3688 50.4758 89.3294 54.8183 89.6423C59.1608 89.9553 59.5502 89.3688 59.5502 89.3688L61.714 90.4113C61.714 90.4113 61.8249 91.4464 56.1294 90.7243C50.4339 90.0022 35.2969 89.3688 35.2969 89.3688Z" fill="#7B55D3"/>
<path d="M22.8956 81.7571C22.8956 81.7571 14.0061 80.3474 8.82324 80.7072C9.60221 80.8843 10.3279 81.2441 10.9403 81.7571H22.8956Z" fill="#7B55D3"/>
<path d="M8.81324 85.6098C9.01533 85.5876 15.4674 86.4379 17.9319 86.5266L7.90137 86.9308L8.81324 85.6098Z" fill="#7B55D3"/>
<path d="M8.44891 91.1641L18.1936 91.5091L7.07617 92.3322L8.44891 91.1641Z" fill="#7B55D3"/>
<path d="M26.2033 73.8239C26.2033 73.8239 40.044 76.1899 48.0709 66.7188L63.1931 70.6004C63.1931 70.6004 60.4107 76.3722 39.5116 75.6058C18.6126 74.8393 26.2033 73.8239 26.2033 73.8239Z" fill="#7B55D3"/>
<path opacity="0.5" d="M26.2033 73.8239C26.2033 73.8239 40.044 76.1899 48.0709 66.7188L63.1931 70.6004C63.1931 70.6004 60.4107 76.3722 39.5116 75.6058C18.6126 74.8393 26.2033 73.8239 26.2033 73.8239Z" fill="white"/>
<path opacity="0.2" d="M34.1074 74.2998C34.1074 74.2998 42.5681 73.8537 47.3517 68.4416C47.7908 68.5775 48.2605 68.5783 48.7 68.4438C49.1395 68.3093 49.5284 68.0458 49.8162 67.6875L60.8548 70.6129C60.8548 70.6129 59.6669 71.0294 60.0834 72.4046C60.0735 72.4046 45.5847 78.2751 34.1074 74.2998Z" fill="black"/>
<path d="M46.736 46.9225L46.9947 45.5498C46.9947 45.5498 46.4599 45.0421 46.5215 44.564C46.5832 44.0859 48.9639 43.3317 49.3853 43.2898C49.8067 43.2479 49.6465 44.9731 49.5184 45.2861C49.3902 45.5991 47.9608 45.9761 47.9608 45.9761L47.7809 47.4228L46.736 46.9225Z" fill="#EBB376"/>
<path d="M19.2879 53.6288L18.344 52.5987C18.344 52.5987 18.5289 51.8864 18.2282 51.5217C17.9275 51.1569 15.5 51.7558 15.1254 51.9505C14.7508 52.1452 15.7908 53.5179 16.0668 53.7151C16.3428 53.9123 17.7525 53.4686 17.7525 53.4686L18.6693 54.6048L19.2879 53.6288Z" fill="#EBB376"/>
<path d="M38.0605 51.3943C40.7148 51.2464 43.1202 51.8009 44.3549 51.3943C45.5896 50.9876 46.7874 45.8516 46.7874 45.8516L48.0862 46.2902C48.0862 46.2902 47.5933 51.6358 45.459 53.0677C43.3247 54.4995 38.3785 54.4872 38.3785 54.4872L38.0605 51.3943Z" fill="#7B55D3"/>
<path opacity="0.7" d="M48.0862 46.2902C48.0862 46.2902 47.5933 51.6358 45.459 53.0677C44.2268 53.8809 42.1147 54.2284 40.5103 54.3788C39.2953 54.4897 38.3785 54.4872 38.3785 54.4872L38.2306 53.043L38.0605 51.3943C40.7148 51.2464 43.1202 51.8009 44.3549 51.3943C45.5896 50.9876 46.7874 45.8516 46.7874 45.8516L48.0862 46.2902Z" fill="white"/>
<path opacity="0.2" d="M40.5101 54.4217C39.2951 54.5326 38.3783 54.5301 38.3783 54.5301L38.2305 53.0859C39.0566 53.407 39.8262 53.8579 40.5101 54.4217Z" fill="black"/>
<path d="M55.0283 92.9622L56.746 92.4915L56.438 88.2969L54.7227 88.7701L55.0283 92.9622Z" fill="#B97964"/>
<path d="M56.8519 92.237L54.8557 92.375C54.8221 92.3763 54.7904 92.3907 54.7674 92.4151C54.7443 92.4395 54.7318 92.472 54.7324 92.5056L54.7448 94.0903C54.7505 94.1731 54.7886 94.2504 54.8509 94.3053C54.9132 94.3602 54.9946 94.3883 55.0775 94.3836C55.7725 94.3244 56.1027 94.2603 56.9801 94.1938C57.7629 94.1671 58.5428 94.0848 59.314 93.9474C60.0533 93.7773 59.8562 93.0626 59.5309 93.07C58.6905 93.0246 57.8762 92.7623 57.1674 92.3085C57.0728 92.2509 56.9621 92.2258 56.8519 92.237Z" fill="#263238"/>
<path d="M57.5021 92.5265C57.3422 92.5339 57.1821 92.524 57.0243 92.4969C57.0164 92.4958 57.0089 92.4924 57.0028 92.4872C56.9966 92.482 56.9922 92.4751 56.9899 92.4673C56.9887 92.4595 56.9892 92.4515 56.9913 92.4439C56.9934 92.4362 56.9971 92.4291 57.0022 92.423C57.0564 92.3787 57.5365 92.002 57.7606 92.0709C57.7859 92.079 57.8087 92.0934 57.8268 92.1128C57.8449 92.1322 57.8577 92.1559 57.864 92.1817C57.8813 92.2199 57.8872 92.2623 57.8811 92.3037C57.8749 92.3452 57.8571 92.384 57.8296 92.4156C57.7374 92.4909 57.621 92.5303 57.5021 92.5265ZM57.736 92.1571C57.6178 92.1202 57.3321 92.2901 57.1352 92.4353C57.4577 92.4747 57.6892 92.4501 57.768 92.3615C57.7839 92.3402 57.794 92.3152 57.7974 92.2889C57.8009 92.2626 57.7975 92.2359 57.7877 92.2113C57.7837 92.1989 57.777 92.1876 57.768 92.1783C57.7591 92.1689 57.7481 92.1616 57.736 92.1571Z" fill="#263238"/>
<path d="M57.0322 92.4567C57.0295 92.458 57.0265 92.4587 57.0235 92.4587C57.0206 92.4587 57.0176 92.458 57.0149 92.4567C57.009 92.4537 57.0038 92.4495 56.9996 92.4445C56.9954 92.4394 56.9922 92.4335 56.9903 92.4272C56.9903 92.4099 56.9139 91.8973 57.079 91.71C57.1009 91.6866 57.1277 91.6682 57.1575 91.6563C57.1873 91.6444 57.2193 91.6392 57.2514 91.641C57.2867 91.6399 57.3215 91.6503 57.3504 91.6708C57.3793 91.6912 57.4007 91.7206 57.4114 91.7544C57.4632 91.9466 57.2243 92.336 57.0568 92.4518C57.0533 92.4544 57.0493 92.4562 57.045 92.457C57.0408 92.4579 57.0364 92.4578 57.0322 92.4567ZM57.2292 91.7322C57.2125 91.7329 57.1961 91.7372 57.1812 91.7449C57.1663 91.7525 57.1533 91.7633 57.143 91.7765C57.0564 91.953 57.0296 92.1528 57.0666 92.3458C57.2204 92.1982 57.3142 91.999 57.3302 91.7864C57.3302 91.7617 57.308 91.7346 57.2489 91.7322H57.2292Z" fill="#263238"/>
<path opacity="0.2" d="M54.7227 88.7676L56.4404 88.2969L56.6154 90.6948L54.8878 91.0793L54.7227 88.7676Z" fill="black"/>
<path d="M52.7806 92.8723L51.1565 93.6142L50.7449 91.8693L50.1904 89.5231L51.8072 88.7812L52.3641 91.125L52.7806 92.8723Z" fill="#B97964"/>
<path opacity="0.2" d="M52.3641 91.125L50.7449 91.8693L50.1904 89.5231L51.8072 88.7812L52.3641 91.125Z" fill="black"/>
<path d="M52.8468 92.6043L50.8998 93.0603C50.8672 93.0663 50.8383 93.0849 50.8193 93.1122C50.8004 93.1394 50.793 93.173 50.7988 93.2057L51.0649 94.7706C51.0729 94.8114 51.0888 94.8502 51.1119 94.8848C51.135 94.9193 51.1647 94.9489 51.1994 94.9719C51.234 94.9948 51.2729 95.0106 51.3137 95.0184C51.3545 95.0261 51.3964 95.0257 51.4371 95.0171C52.1148 94.847 52.4229 94.7312 53.2855 94.5242C54.0547 94.3783 54.8124 94.1773 55.5528 93.9228C56.2454 93.6394 55.9472 92.9641 55.6292 93.0233C54.8751 93.1588 53.7463 92.9124 53.1647 92.6438C53.0661 92.5956 52.9542 92.5817 52.8468 92.6043Z" fill="#263238"/>
<path d="M53.5326 92.7906C53.3754 92.8226 53.2152 92.8375 53.0548 92.8349C53.0467 92.8361 53.0384 92.8346 53.0313 92.8306C53.0241 92.8266 53.0185 92.8203 53.0154 92.8128C53.0117 92.8059 53.0098 92.7983 53.0098 92.7906C53.0098 92.7828 53.0117 92.7752 53.0154 92.7684C53.0621 92.7167 53.4734 92.2755 53.7074 92.2977C53.7334 92.3022 53.7578 92.3131 53.7784 92.3294C53.7991 92.3458 53.8153 92.3671 53.8256 92.3913C53.85 92.4278 53.863 92.4707 53.863 92.5146C53.863 92.5584 53.85 92.6013 53.8256 92.6378C53.7484 92.721 53.6449 92.7749 53.5326 92.7906ZM53.705 92.3889C53.5793 92.3692 53.3257 92.5836 53.1533 92.7585C53.4784 92.7462 53.705 92.6846 53.7665 92.586C53.7804 92.563 53.7878 92.5366 53.7878 92.5096C53.7878 92.4827 53.7804 92.4563 53.7665 92.4332C53.7621 92.4213 53.7544 92.4109 53.7444 92.4031C53.7344 92.3952 53.7225 92.3903 53.7099 92.3889H53.705Z" fill="#263238"/>
<path d="M53.0609 92.8487C53.0586 92.8498 53.056 92.8503 53.0535 92.8503C53.0509 92.8503 53.0484 92.8498 53.0461 92.8487C53.0395 92.8466 53.0334 92.8431 53.0283 92.8384C53.0232 92.8337 53.0192 92.828 53.0165 92.8216C53.0165 92.8068 52.854 92.3089 52.9894 92.0994C53.007 92.0728 53.0303 92.0504 53.0575 92.0338C53.0848 92.0171 53.1154 92.0067 53.1471 92.0033C53.1823 91.996 53.2189 92.0008 53.2511 92.0169C53.2833 92.033 53.3091 92.0595 53.3244 92.092C53.4057 92.272 53.2333 92.6959 53.0781 92.8314C53.0772 92.8357 53.0751 92.8396 53.0721 92.8426C53.069 92.8457 53.0651 92.8478 53.0609 92.8487ZM53.1397 92.1093C53.1072 92.1176 53.0791 92.1378 53.0609 92.166C53.0045 92.3549 53.0097 92.5569 53.0757 92.7427C53.2041 92.5725 53.2663 92.3614 53.2505 92.1487C53.2505 92.1241 53.2185 92.0994 53.1594 92.1068L53.1397 92.1093Z" fill="#263238"/>
<path d="M40.7463 69.0387L40.2214 63.2422L30.5432 63.4689C30.5432 63.4689 29.3972 71.5451 30.2302 73.0288C31.7089 75.6781 41.4733 74.1748 43.7555 74.399C44.6871 74.8919 49.6703 91.4214 49.6703 91.4214L52.4626 90.2952C52.4626 90.2952 49.4608 76.3485 48.7658 73.7213C47.8269 70.0689 43.9526 70.133 40.7463 69.0387Z" fill="#263238"/>
<path d="M56.7851 90.0342L54.3206 90.2609C54.3206 90.2609 51.3015 74.8848 51.0674 74.8183C50.6484 74.6975 49.4236 74.5595 48.7655 74.387C44.1963 73.1991 32.9434 71.0131 32.9434 71.0131L37.0936 67.0156C37.0936 67.0156 55.9077 69.2731 56.3168 73.6895C56.5263 75.8041 56.7851 90.0342 56.7851 90.0342Z" fill="#263238"/>
<path opacity="0.2" d="M50.4055 74.8339C49.984 74.7131 49.4197 74.5652 48.7666 74.3927C48.949 74.4888 48.4215 72.0958 47.8941 71.4772C46.8467 70.2449 42.6423 69.5746 41.1364 69.3331C39.8746 69.131 35.6455 68.7588 35.6455 68.7588C35.6455 68.7588 43.113 68.1131 48.7395 69.6584C51.5219 70.4224 51.0265 73.1383 50.4055 74.8339Z" fill="black"/>
<path d="M29.251 52.8313C29.251 52.8313 32.8221 50.9361 38.0591 51.4241C38.0591 51.4241 39.8755 56.0426 40.2205 63.2537L30.4832 63.929C30.4832 63.929 30.6582 57.748 29.251 52.8313Z" fill="#7B55D3"/>
<path opacity="0.7" d="M30.4832 63.9389C30.5082 62.256 30.4456 60.5729 30.2959 58.8965C30.2097 57.9107 30.0864 56.8731 29.909 55.8158C29.746 54.8094 29.5263 53.813 29.251 52.8313C29.251 52.8313 32.8221 50.9361 38.0591 51.4241C38.0591 51.4241 39.8755 56.0426 40.2205 63.2537L30.4832 63.9389Z" fill="white"/>
<path opacity="0.2" d="M30.3046 58.8877C30.2184 57.9019 30.0953 56.8643 29.918 55.807C30.0908 55.6313 30.299 55.4943 30.5288 55.4053L30.5411 55.2969C30.5337 55.4152 31.0435 57.2365 30.3046 58.8877Z" fill="black"/>
<path d="M31.9512 52.171C32.8433 52.9819 35.0269 52.6812 35.0269 52.6812C35.0269 52.6812 36.3898 52.3091 36.1039 51.8827C35.3004 51.7496 34.9135 51.375 34.7509 50.8969C34.6645 50.5986 34.6369 50.2864 34.6695 49.9776C34.6695 49.81 34.709 49.6375 34.7385 49.4675L32.03 47.4688C32.3923 48.7873 32.8261 51.2148 31.9512 52.171Z" fill="#EBB376"/>
<path opacity="0.2" d="M32.6611 48.7266C32.7696 50.3457 34.1004 50.7943 34.751 50.8855C34.6647 50.5872 34.6371 50.275 34.6697 49.9662L32.6611 48.7266Z" fill="black"/>
<path d="M34.3731 41.9276C35.3761 42.1987 36.2116 44.5128 35.4599 46.0433C34.7083 47.5738 32.4434 43.2929 32.4434 43.2929C32.4434 43.2929 33.7249 41.755 34.3731 41.9276Z" fill="#263238"/>
<path d="M36.4661 47.1941C36.471 47.2877 36.471 47.3815 36.4661 47.4751C36.4488 48.143 36.1794 48.7796 35.712 49.2569C35.2942 49.6921 34.7291 49.9557 34.1273 49.9963C33.6991 50.0175 33.2732 49.9221 32.895 49.7203C31.6973 49.1115 31.3744 48.0567 30.6769 46.3168C30.5032 45.9119 30.4371 45.469 30.4848 45.0311C30.5325 44.5931 30.6925 44.1749 30.9493 43.8169C31.2062 43.4589 31.5511 43.1734 31.9507 42.9879C32.3503 42.8023 32.791 42.7232 33.2302 42.758C35.2018 42.9034 36.3133 45.469 36.4661 47.1941Z" fill="#EBB376"/>
<path d="M33.5373 45.9367C33.5742 46.0821 33.6973 46.1831 33.7835 46.1412C33.8697 46.0994 33.9165 45.9663 33.8697 45.8233C33.823 45.6804 33.7047 45.5769 33.6235 45.6188C33.5422 45.6607 33.4905 45.7888 33.5373 45.9367Z" fill="#263238"/>
<path d="M35.1713 45.4039C35.2083 45.5492 35.3339 45.6378 35.4176 45.6083C35.5013 45.5787 35.5506 45.4335 35.5038 45.2882C35.457 45.1429 35.3413 45.0542 35.2575 45.0838C35.1738 45.1133 35.127 45.266 35.1713 45.4039Z" fill="#263238"/>
<path d="M34.6768 45.6094C34.9944 45.9946 35.3631 46.3346 35.7727 46.6198C35.6968 46.7236 35.5989 46.8095 35.4862 46.8712C35.3734 46.933 35.2484 46.9691 35.1201 46.9772L34.6768 45.6094Z" fill="#D58745"/>
<path d="M35.5486 44.4644C35.5367 44.4759 35.5222 44.4844 35.5064 44.4891C35.4905 44.4938 35.4738 44.4946 35.4575 44.4915C35.3498 44.4621 35.2366 44.4583 35.1271 44.4806C35.0176 44.5028 34.9149 44.5504 34.8271 44.6196C34.8102 44.6359 34.7874 44.6448 34.7638 44.6444C34.7403 44.6439 34.7179 44.6341 34.7016 44.6171C34.6852 44.6001 34.6763 44.5774 34.6768 44.5538C34.6772 44.5303 34.687 44.5079 34.704 44.4915C34.8134 44.4017 34.9426 44.3393 35.0809 44.3093C35.2192 44.2793 35.3626 44.2827 35.4994 44.3192C35.5109 44.3215 35.5218 44.3261 35.5316 44.3327C35.5413 44.3393 35.5496 44.3478 35.556 44.3577C35.5624 44.3675 35.5668 44.3786 35.5689 44.3901C35.5711 44.4017 35.5708 44.4136 35.5683 44.4251C35.5633 44.4389 35.5566 44.4521 35.5486 44.4644Z" fill="#263238"/>
<path d="M32.9979 45.3954C32.9812 45.4017 32.9628 45.4017 32.9462 45.3954C32.926 45.3836 32.9113 45.3642 32.9053 45.3416C32.8993 45.319 32.9025 45.2949 32.9141 45.2747C32.986 45.152 33.086 45.0482 33.2059 44.9719C33.3259 44.8956 33.4622 44.849 33.6037 44.836C33.6154 44.8356 33.627 44.8376 33.6379 44.8418C33.6487 44.8459 33.6587 44.8522 33.6672 44.8602C33.6756 44.8682 33.6824 44.8778 33.6872 44.8885C33.6919 44.8991 33.6945 44.9106 33.6949 44.9222C33.6949 44.9456 33.686 44.9681 33.6699 44.985C33.6539 45.002 33.632 45.0122 33.6087 45.0134C33.4972 45.0269 33.3904 45.0662 33.2967 45.1282C33.2031 45.1903 33.1252 45.2733 33.0693 45.3708C33.0598 45.3796 33.0485 45.3864 33.0362 45.3906C33.0239 45.3949 33.0108 45.3965 32.9979 45.3954Z" fill="#263238"/>
<path d="M31.2523 43.7031L31.6393 44.4425C31.5345 44.5559 31.4763 44.7046 31.4763 44.859C31.4763 45.0134 31.5345 45.1621 31.6393 45.2755C32.1322 45.8275 32.1519 46.9711 31.8068 47.5626C31.8068 47.5626 31.6861 47.289 31.4741 47.4443C31.2622 47.5995 31.8882 49.0363 32.6152 49.5563C32.6152 49.5563 31.6762 49.1941 30.6953 47.8115C29.7884 46.5349 29.2906 45.3691 29.3719 44.7086L31.2523 43.7031Z" fill="#263238"/>
<path d="M30.3834 48.0032C30.7114 48.3405 31.16 48.5338 31.6305 48.5404C32.2564 48.5404 32.4043 47.9465 32.0938 47.4413C31.8153 46.9952 31.1523 46.4407 30.5929 46.6847C30.0334 46.9286 29.9842 47.5842 30.3834 48.0032Z" fill="#EBB376"/>
<path d="M35.3118 47.622C35.1982 47.8703 35.1027 48.1265 35.0259 48.3885L34.8829 48.3713C34.2372 48.285 33.9637 48.0312 33.8601 47.7748C33.8121 47.6493 33.7943 47.5142 33.8084 47.3805C33.8134 47.3037 33.83 47.2281 33.8577 47.1562C34.2324 47.3878 34.6528 47.5358 35.0899 47.59C35.2329 47.6147 35.3118 47.622 35.3118 47.622Z" fill="#263238"/>
<path d="M35.0917 47.59L35.0006 47.8143C34.3923 47.7305 33.9736 47.59 33.8086 47.3805C33.8136 47.3037 33.8302 47.2281 33.8579 47.1562C34.2331 47.3882 34.654 47.5361 35.0917 47.59Z" fill="white"/>
<path d="M34.8834 48.3542C34.2381 48.268 33.9648 48.0141 33.8613 47.7578C34.107 47.7987 34.3437 47.8821 34.5608 48.0043C34.7019 48.0847 34.8146 48.207 34.8834 48.3542Z" fill="#DE5753"/>
<path d="M32.9015 43.8016C32.9015 43.8016 32.7289 42.6236 33.4732 42.8528C34.2175 43.082 34.2693 42.6335 34.0475 41.7241C33.8257 40.8147 31.6914 40.4918 30.4838 41.9828C29.2762 43.4739 28.8547 44.7234 29.4388 45.3839C30.0229 46.0444 32.2484 44.0949 32.2484 44.0949C32.309 43.7619 32.4503 43.4488 32.6599 43.1831C32.6736 43.4095 32.7581 43.6259 32.9015 43.8016Z" fill="#263238"/>
<path d="M34.0527 52.5879L35.2332 53.6304C35.2332 53.6304 35.8814 58.0172 37.4735 59.9346H38.4593L38.654 59.2544C37.173 57.6009 36.1098 55.6166 35.5536 53.4677V52.0703L34.0527 52.5879Z" fill="#263238"/>
<path d="M32.2509 51.2003L34.676 52.1097L34.883 50.875L36.1423 51.3309L36.4652 52.891L34.7499 52.4671L33.8996 53.6057L31.4277 52.0062L32.2509 51.2003Z" fill="#7B55D3"/>
<path opacity="0.5" d="M32.2509 51.2003L34.676 52.1097L34.883 50.875L36.1423 51.3309L36.4652 52.891L34.7499 52.4671L33.8996 53.6057L31.4277 52.0062L32.2509 51.2003Z" fill="white"/>
<path d="M30.3467 63.777L40.3354 62.8281L40.3575 64.0407L30.3516 64.8589L30.3467 63.777Z" fill="black"/>
<path d="M38.2208 63.0641C38.1757 63.0234 38.1225 62.9928 38.0647 62.9741C38.007 62.9554 37.9459 62.9491 37.8856 62.9556L37.0008 63.0468C36.8915 63.0579 36.7903 63.1097 36.7173 63.1918C36.6442 63.274 36.6047 63.3805 36.6065 63.4904V64.0573C36.6091 64.1738 36.6577 64.2846 36.7418 64.3655C36.8258 64.4463 36.9385 64.4905 37.055 64.4886H37.092L37.9768 64.3949C38.0859 64.3838 38.1868 64.3319 38.2595 64.2497C38.3321 64.1675 38.3711 64.061 38.3686 63.9513V63.3869C38.3683 63.3257 38.355 63.2652 38.3295 63.2096C38.304 63.1539 38.2669 63.1043 38.2208 63.0641ZM37.962 64.1682L37.0797 64.2618C37.0494 64.266 37.0187 64.2637 36.9893 64.2552C36.96 64.2466 36.9329 64.232 36.9096 64.2122C36.8863 64.1925 36.8675 64.168 36.8543 64.1404C36.8412 64.1129 36.834 64.0829 36.8332 64.0523V63.488C36.8323 63.4343 36.8516 63.3823 36.8872 63.3421C36.9228 63.302 36.9721 63.2766 37.0255 63.2711L37.9078 63.1799H37.9275C37.9835 63.1799 38.0373 63.2018 38.0774 63.2409C38.1175 63.2801 38.1406 63.3334 38.1419 63.3894V63.4658H38.1074L37.8609 63.488C37.8412 63.4897 37.822 63.4954 37.8044 63.5046C37.7869 63.5138 37.7713 63.5264 37.7586 63.5416C37.7459 63.5568 37.7363 63.5744 37.7304 63.5933C37.7245 63.6122 37.7224 63.6321 37.7242 63.6519C37.7259 63.6716 37.7316 63.6908 37.7408 63.7084C37.75 63.7259 37.7626 63.7415 37.7778 63.7542C37.793 63.7669 37.8106 63.7765 37.8295 63.7824C37.8484 63.7883 37.8683 63.7904 37.8881 63.7886L38.1345 63.764H38.1468V63.9587C38.1467 64.0101 38.1278 64.0597 38.0938 64.0982C38.0598 64.1367 38.013 64.1616 37.962 64.1682Z" fill="white"/>
<path d="M29.252 52.8438C27.586 53.8296 25.1807 57.0753 24.3353 57.0088C23.49 56.9422 18.9306 52.893 18.9306 52.893L17.8906 54.0193C17.8906 54.0193 22.1025 59.0494 24.0642 59.4289C26.026 59.8085 30.3463 56.1708 30.3463 56.1708C30.5906 55.544 30.5906 54.8483 30.3463 54.2214C30.1247 53.6647 29.7441 53.1856 29.252 52.8438Z" fill="#7B55D3"/>
<path opacity="0.7" d="M29.252 52.8438C27.586 53.8296 25.1807 57.0753 24.3353 57.0088C23.49 56.9422 18.9306 52.893 18.9306 52.893L17.8906 54.0193C17.8906 54.0193 22.1025 59.0494 24.0642 59.4289C26.026 59.8085 30.3463 56.1708 30.3463 56.1708C30.5906 55.544 30.5906 54.8483 30.3463 54.2214C30.1247 53.6647 29.7441 53.1856 29.252 52.8438Z" fill="white"/>
<path d="M44.5022 75.7282C44.5022 75.7282 11.426 75.9574 9.37305 71.3118L24.1034 70.2422C27.0268 71.4685 30.0188 72.5243 33.0644 73.4042C36.4655 74.3974 40.4974 75.3388 44.5022 75.7282Z" fill="#7B55D3"/>
<path opacity="0.2" d="M44.5023 75.7208C44.5023 75.7208 43.4648 75.7208 41.7396 75.7208C34.664 75.2279 26.4029 71.7135 26.4029 71.7135C23.4209 72.3691 21.3704 71.1935 21.3704 71.1935L13.3311 71.6544C13.3744 71.8523 13.3725 72.0575 13.3256 72.2546C13.2787 72.4517 13.1879 72.6358 13.0601 72.793C17.2275 73.9636 21.7204 74.6758 25.3826 75.1071C17.6465 74.528 10.3047 73.4239 9.36328 71.3118L24.0937 70.2422C24.0937 70.2422 34.383 74.735 44.5023 75.7208Z" fill="white"/>
<path opacity="0.2" d="M44.5022 75.7445C44.5022 75.7445 11.426 75.9737 9.37305 71.3281C9.37305 71.3281 20.5496 76.1561 33.0644 73.4205C36.4655 74.4137 40.4974 75.3551 44.5022 75.7445Z" fill="black"/>
</svg>
