<svg width="74" height="74" viewBox="0 0 74 74" fill="none" xmlns="http://www.w3.org/2000/svg">
<g filter="url(#filter0_d_1_129955)">
<rect x="1" width="72" height="72" rx="36" fill="white" shape-rendering="crispEdges"/>
<g clip-path="url(#clip0_1_129955)">
<path d="M28.7493 20.4703C28.8089 20.47 28.8686 20.4698 28.93 20.4696C29.0556 20.4694 29.1813 20.4698 29.3069 20.4709C29.4987 20.4722 29.6904 20.4709 29.8821 20.4693C30.0045 20.4695 30.1269 20.4698 30.2493 20.4703C30.3349 20.4695 30.3349 20.4695 30.4222 20.4688C30.7705 20.4738 30.9742 20.5195 31.2493 20.7535C31.4854 21.0392 31.4993 21.1131 31.4993 21.5035C32.8193 21.5035 34.1393 21.5035 35.4993 21.5035C35.4993 21.3797 35.4993 21.256 35.4993 21.1285C35.6562 20.8268 35.8256 20.6628 36.1243 20.5035C36.333 20.4679 36.538 20.4684 36.7493 20.4703C36.8089 20.47 36.8686 20.4698 36.93 20.4696C37.0556 20.4694 37.1813 20.4698 37.3069 20.4709C37.4987 20.4722 37.6904 20.4709 37.8821 20.4693C38.0045 20.4695 38.1269 20.4698 38.2493 20.4703C38.3349 20.4695 38.3349 20.4695 38.4222 20.4688C38.7705 20.4738 38.9742 20.5195 39.2493 20.7535C39.4675 21.0175 39.5115 21.1669 39.4993 21.5035C39.5487 21.5029 39.5981 21.5024 39.6489 21.5018C40.1169 21.4968 40.5848 21.493 41.0527 21.4905C41.2933 21.4892 41.5338 21.4875 41.7743 21.4846C42.0069 21.4819 42.2395 21.4804 42.4721 21.4798C42.5603 21.4793 42.6486 21.4784 42.7368 21.4771C43.5638 21.4648 44.2026 21.6094 44.8118 22.191C45.5436 22.9576 45.5464 23.8095 45.5618 24.816C45.6168 24.7987 45.6719 24.7813 45.7286 24.7635C45.8375 24.7295 45.8375 24.7295 45.9485 24.6949C46.0203 24.6724 46.0921 24.6499 46.1661 24.6268C47.4675 24.2469 48.8543 24.4936 50.025 25.1246C50.3131 25.2866 50.5679 25.4675 50.8118 25.691C50.8683 25.7425 50.9248 25.794 50.983 25.847C51.5606 26.3981 51.9639 27.0083 52.2493 27.7535C52.274 27.8177 52.2986 27.8819 52.324 27.9481C52.7324 29.209 52.5832 30.6 52.011 31.7769C51.8154 32.1569 51.6013 32.4994 51.3118 32.816C51.2618 32.8717 51.2118 32.9275 51.1602 32.9849C50.4027 33.7874 49.4055 34.3245 48.3118 34.5035C48.1896 34.5026 48.0673 34.5016 47.9451 34.499C47.2507 34.4968 46.8361 34.7434 46.3498 35.2228C46.2943 35.277 46.2942 35.277 46.2376 35.3322C45.4027 36.1827 45.3593 37.1083 45.3645 38.2516C45.3686 38.5312 45.3774 38.8106 45.3863 39.0901C45.3962 39.4565 45.396 39.8229 45.397 40.1895C45.4002 40.8816 45.4117 41.5733 45.4266 42.2653C45.448 43.2815 45.4563 44.2979 45.4651 45.3143C45.4664 45.4648 45.4677 45.6152 45.4691 45.7657C45.4697 45.8392 45.4704 45.9127 45.471 45.9884C45.4751 46.4231 45.4814 46.8577 45.4899 47.2923C45.495 47.5624 45.4993 47.8325 45.5034 48.1026C45.5055 48.2273 45.5081 48.352 45.5112 48.4767C45.5322 49.324 45.5068 50.0083 44.9351 50.6868C44.4423 51.2031 43.8869 51.5043 43.1648 51.5349C43.0165 51.5363 42.8681 51.5363 42.7197 51.5352C42.5963 51.5358 42.5963 51.5358 42.4704 51.5364C42.2438 51.5375 42.0173 51.5369 41.7907 51.5362C41.5456 51.5356 41.3006 51.5365 41.0555 51.5372C40.5761 51.5383 40.0968 51.538 39.6174 51.5373C39.2277 51.5367 38.8379 51.5367 38.4482 51.5369C38.3926 51.537 38.3371 51.537 38.2798 51.5371C38.1669 51.5371 38.054 51.5372 37.9412 51.5373C36.8837 51.538 35.8262 51.5372 34.7687 51.5359C33.8622 51.5347 32.9557 51.5349 32.0492 51.5361C30.9954 51.5374 29.9416 51.5379 28.8878 51.5372C28.7754 51.5371 28.6629 51.537 28.5504 51.5369C28.4674 51.5369 28.4674 51.5369 28.3828 51.5368C27.9937 51.5366 27.6046 51.537 27.2156 51.5376C26.7411 51.5383 26.2667 51.5381 25.7923 51.5367C25.5504 51.5361 25.3086 51.5358 25.0667 51.5367C24.8041 51.5375 24.5415 51.5365 24.2789 51.5352C24.1651 51.5361 24.1651 51.5361 24.0491 51.5369C23.3103 51.5301 22.7254 51.3302 22.1868 50.816C21.5344 50.1325 21.4623 49.3981 21.4676 48.4961C21.4673 48.3883 21.4669 48.2804 21.4664 48.1725C21.4653 47.8775 21.4659 47.5826 21.4666 47.2876C21.4672 46.9689 21.4663 46.6502 21.4656 46.3315C21.4645 45.7078 21.4648 45.0841 21.4655 44.4603C21.4661 43.9533 21.4661 43.4463 21.4659 42.9393C21.4658 42.8671 21.4658 42.7948 21.4657 42.7204C21.4657 42.5737 21.4656 42.427 21.4655 42.2803C21.4648 40.9052 21.4656 39.5301 21.467 38.1551C21.4681 36.9757 21.4679 35.7963 21.4667 34.6169C21.4654 33.2467 21.4649 31.8764 21.4656 30.5062C21.4657 30.36 21.4658 30.2139 21.4659 30.0677C21.4659 29.9958 21.4659 29.9239 21.466 29.8498C21.4662 29.3435 21.4658 28.8372 21.4652 28.3309C21.4645 27.7137 21.4647 27.0966 21.4661 26.4794C21.4667 26.1646 21.467 25.8499 21.4662 25.5351C21.4654 25.2467 21.4658 24.9584 21.4671 24.67C21.4674 24.5659 21.4673 24.4618 21.4667 24.3578C21.4621 23.5079 21.5794 22.8273 22.1868 22.191C22.8377 21.5696 23.5182 21.4656 24.3926 21.4791C24.4827 21.4795 24.5728 21.4799 24.6629 21.4801C24.8977 21.4811 25.1325 21.4835 25.3672 21.4863C25.6078 21.4889 25.8483 21.49 26.0888 21.4913C26.559 21.4939 27.0291 21.4982 27.4993 21.5035C27.4972 21.4456 27.4951 21.3878 27.493 21.3282C27.5014 21.0642 27.5823 20.9556 27.7493 20.7535C28.0763 20.4753 28.3393 20.4666 28.7493 20.4703ZM28.4993 21.5035C28.4993 22.4935 28.4993 23.4835 28.4993 24.5035C29.1593 24.5035 29.8193 24.5035 30.4993 24.5035C30.4993 23.5135 30.4993 22.5235 30.4993 21.5035C29.8393 21.5035 29.1793 21.5035 28.4993 21.5035ZM36.4993 21.5035C36.4993 22.4935 36.4993 23.4835 36.4993 24.5035C37.1593 24.5035 37.8193 24.5035 38.4993 24.5035C38.4993 23.5135 38.4993 22.5235 38.4993 21.5035C37.8393 21.5035 37.1793 21.5035 36.4993 21.5035ZM22.8587 23.0933C22.5286 23.4984 22.4916 23.9273 22.4913 24.4385C22.4912 24.481 22.4911 24.5234 22.4909 24.5672C22.4907 24.7094 22.4908 24.8517 22.491 24.9939C22.4908 25.0969 22.4907 25.2 22.4905 25.303C22.4901 25.5861 22.4902 25.8692 22.4902 26.1523C22.4902 26.4577 22.4899 26.763 22.4896 27.0684C22.4891 27.6666 22.4889 28.2648 22.4889 28.863C22.4888 29.3493 22.4887 29.8355 22.4885 30.3217C22.488 31.7001 22.4877 33.0785 22.4877 34.4568C22.4877 34.5311 22.4877 34.6055 22.4877 34.682C22.4877 34.7564 22.4877 34.8308 22.4877 34.9075C22.4878 36.1135 22.4872 37.3195 22.4863 38.5255C22.4854 39.7637 22.485 41.0018 22.485 42.24C22.485 42.9352 22.4849 43.6304 22.4842 44.3256C22.4836 44.9175 22.4835 45.5093 22.4839 46.1012C22.4841 46.4032 22.4841 46.7051 22.4836 47.0071C22.4831 47.2836 22.4832 47.5602 22.4837 47.8367C22.4838 47.9366 22.4837 48.0366 22.4834 48.1365C22.4626 49.0987 22.4626 49.0987 22.8743 49.941C23.3104 50.374 23.7254 50.5111 24.3406 50.5115C24.4072 50.5117 24.4738 50.5119 24.5424 50.5121C24.6511 50.512 24.6511 50.512 24.7619 50.5118C24.8395 50.512 24.917 50.5121 24.9968 50.5123C25.2115 50.5126 25.4262 50.5126 25.6409 50.5126C25.8726 50.5126 26.1044 50.5129 26.3361 50.5132C26.7899 50.5137 27.2438 50.5139 27.6976 50.5139C28.0666 50.514 28.4355 50.5141 28.8045 50.5143C29.8508 50.5148 30.8971 50.5151 31.9435 50.5151C32.0281 50.5151 32.0281 50.5151 32.1144 50.5151C32.1991 50.5151 32.1991 50.5151 32.2855 50.5151C33.2005 50.515 34.1155 50.5156 35.0305 50.5165C35.9704 50.5174 36.9102 50.5178 37.85 50.5178C38.3775 50.5178 38.9051 50.5179 39.4326 50.5186C39.8817 50.5192 40.3309 50.5193 40.78 50.5189C41.0091 50.5187 41.2381 50.5187 41.4672 50.5192C41.7157 50.5198 41.9643 50.5194 42.2129 50.5189C42.3209 50.5194 42.3209 50.5194 42.4312 50.5199C43.0462 50.5173 43.5841 50.4837 44.0386 50.0259C44.45 49.5699 44.5093 49.1178 44.5068 48.5147C44.5069 48.4666 44.5069 48.4186 44.507 48.3691C44.5071 48.2087 44.5068 48.0484 44.5064 47.888C44.5064 47.7728 44.5064 47.6576 44.5064 47.5424C44.5065 47.2301 44.5061 46.9178 44.5057 46.6054C44.5053 46.2789 44.5052 45.9523 44.5052 45.6257C44.505 45.0075 44.5044 44.3893 44.5038 43.7711C44.5031 43.0672 44.5028 42.3633 44.5025 41.6594C44.5018 40.2116 44.5007 38.7638 44.4993 37.316C44.4714 37.3406 44.4434 37.3652 44.4146 37.3905C44.2453 37.5379 44.0824 37.6777 43.8934 37.7995C43.7039 37.9371 43.6085 38.0444 43.4993 38.2535C43.4425 38.6641 43.5098 39.0855 43.5544 39.4948C43.5916 39.8664 43.6086 40.2392 43.6291 40.612C43.6556 41.0826 43.6869 41.5503 43.7438 42.0183C43.966 43.9145 43.6188 45.3865 42.4559 46.8927C41.2148 48.4381 39.7925 49.5101 37.7882 49.7473C35.9556 49.9311 34.1071 49.8485 32.2717 49.7522C31.6528 49.7202 31.0343 49.6996 30.4148 49.6864C30.3707 49.6855 30.3267 49.6846 30.2813 49.6836C30.104 49.6798 29.9267 49.6761 29.7495 49.6726C28.4016 49.6452 27.0539 49.6085 25.7072 49.5447C25.5677 49.5382 25.4282 49.5321 25.2886 49.5263C25.0984 49.5183 24.9084 49.5088 24.7182 49.4988C24.663 49.4967 24.6079 49.4946 24.551 49.4925C24.218 49.4727 24.0097 49.4174 23.7493 49.191C23.5649 48.9414 23.5383 48.7621 23.538 48.4546C23.5378 48.4125 23.5375 48.3705 23.5372 48.3272C23.5364 48.186 23.537 48.045 23.5376 47.9038C23.5373 47.8017 23.537 47.6996 23.5366 47.5976C23.5357 47.3168 23.5359 47.036 23.5364 46.7553C23.5367 46.4526 23.5359 46.1499 23.5353 45.8472C23.5342 45.254 23.5341 44.6609 23.5345 44.0678C23.5347 43.5859 23.5346 43.1039 23.5343 42.6219C23.5342 42.5534 23.5342 42.4849 23.5342 42.4142C23.5341 42.275 23.534 42.1358 23.5339 41.9966C23.533 40.6903 23.5333 39.384 23.5341 38.0777C23.5347 36.8821 23.5339 35.6864 23.5324 34.4908C23.5309 33.2638 23.5303 32.0367 23.5307 30.8096C23.5309 30.1205 23.5307 29.4313 23.5297 28.7422C23.5287 28.1555 23.5287 27.5689 23.5298 26.9822C23.5303 26.6828 23.5304 26.3834 23.5295 26.084C23.5286 25.81 23.5289 25.5361 23.5301 25.2621C23.5304 25.1629 23.5302 25.0636 23.5295 24.9644C23.5287 24.8297 23.5294 24.695 23.5305 24.5603C23.5305 24.4854 23.5305 24.4105 23.5306 24.3334C23.5776 24.0253 23.717 23.8264 23.9621 23.638C24.1438 23.5574 24.2714 23.5413 24.4696 23.539C24.5372 23.5377 24.6047 23.5365 24.6743 23.5352C24.7465 23.5348 24.8187 23.5344 24.8931 23.534C25.0048 23.5323 25.0048 23.5323 25.1188 23.5306C25.3563 23.5272 25.5938 23.5251 25.8313 23.523C25.9925 23.5209 26.1537 23.5188 26.3149 23.5165C26.7097 23.5112 27.1045 23.5071 27.4993 23.5035C27.4993 23.1735 27.4993 22.8435 27.4993 22.5035C27.0112 22.5004 26.523 22.4981 26.0349 22.4966C25.8689 22.4961 25.703 22.4951 25.5371 22.4941C25.298 22.4925 25.059 22.4918 24.8199 22.4913C24.7462 22.4906 24.6726 22.49 24.5967 22.4893C23.8913 22.4892 23.3523 22.5462 22.8587 23.0933ZM31.4993 22.5035C31.4993 22.8335 31.4993 23.1635 31.4993 23.5035C32.8193 23.5035 34.1393 23.5035 35.4993 23.5035C35.4993 23.1735 35.4993 22.8435 35.4993 22.5035C34.1793 22.5035 32.8593 22.5035 31.4993 22.5035ZM39.4993 22.5035C39.4993 22.8335 39.4993 23.1635 39.4993 23.5035C39.6497 23.5044 39.6497 23.5044 39.8032 23.5053C40.1757 23.5078 40.5482 23.5119 40.9207 23.5165C41.0818 23.5182 41.2429 23.5195 41.4041 23.5204C41.6359 23.5218 41.8676 23.5247 42.0994 23.5279C42.1713 23.528 42.2432 23.5281 42.3173 23.5281C42.6964 23.5351 42.9601 23.5433 43.2493 23.816C43.4659 24.0762 43.4661 24.3394 43.4688 24.6649C43.4699 24.7157 43.471 24.7666 43.4722 24.8191C43.4756 24.9808 43.4777 25.1425 43.4798 25.3043C43.4819 25.4143 43.484 25.5242 43.4863 25.6342C43.4916 25.9031 43.4957 26.172 43.4993 26.441C43.6484 26.2921 43.7974 26.1432 43.9451 25.993C43.9862 25.9513 44.0273 25.9097 44.0696 25.8668C44.111 25.8246 44.1525 25.7825 44.1951 25.7391C44.3118 25.6285 44.3118 25.6285 44.4993 25.5035C44.5274 25.3555 44.5274 25.3555 44.522 25.1829C44.522 25.1182 44.5219 25.0535 44.5219 24.9868C44.5209 24.9188 44.5199 24.8508 44.5188 24.7808C44.5191 24.6814 44.5191 24.6814 44.5195 24.58C44.5153 23.9638 44.4798 23.4189 44.0218 22.9642C43.6038 22.5871 43.1944 22.4951 42.6355 22.4964C42.5304 22.4964 42.5304 22.4964 42.4232 22.4964C42.3486 22.4967 42.274 22.4971 42.1971 22.4974C42.0813 22.4975 42.0813 22.4975 41.9633 22.4977C41.7175 22.498 41.4717 22.4988 41.2259 22.4996C41.059 22.4999 40.8921 22.5002 40.7251 22.5004C40.3165 22.5011 39.9079 22.5022 39.4993 22.5035ZM24.4993 24.5035C24.4993 32.4235 24.4993 40.3435 24.4993 48.5035C29.1193 48.5035 33.7393 48.5035 38.4993 48.5035C38.4993 47.1835 38.4993 45.8635 38.4993 44.5035C39.8193 44.5035 41.1393 44.5035 42.4993 44.5035C42.4993 42.7916 42.4993 41.0797 42.4993 39.316C42.1332 39.6282 42.1332 39.6282 41.801 39.9637C41.754 40.0147 41.7071 40.0657 41.6587 40.1183C41.6086 40.1731 41.5585 40.228 41.5069 40.2845C41.3945 40.4063 41.2821 40.528 41.1695 40.6496C41.1401 40.6814 41.1106 40.7133 41.0803 40.7461C40.4548 41.4218 39.8183 42.0871 39.179 42.7496C39.144 42.7859 39.109 42.8221 39.073 42.8595C35.6048 46.4504 35.6048 46.4504 33.2806 47.0465C33.2348 47.0582 33.1891 47.0699 33.142 47.082C32.6494 47.2053 32.1559 47.3007 31.651 47.3585C31.5128 47.3767 31.3842 47.4065 31.2493 47.441C30.776 47.4792 30.3214 47.5038 29.9368 47.191C29.5207 46.7321 29.5386 46.2899 29.5618 45.691C29.8289 42.6232 31.4393 40.5634 33.6154 38.5232C33.7104 38.434 33.8051 38.3447 33.8998 38.2553C35.0459 37.173 36.2091 36.1094 37.3874 35.0624C38.2576 34.2893 39.1183 33.5075 39.9568 32.6998C40.0189 32.6399 40.0812 32.5801 40.1435 32.5204C41.6325 31.0918 42.814 29.8162 42.8806 27.6656C42.889 26.588 42.7196 25.5569 42.4993 24.5035C41.5093 24.5035 40.5193 24.5035 39.4993 24.5035C39.4581 24.6685 39.4168 24.8335 39.3743 25.0035C39.2314 25.2226 39.1143 25.3418 38.8743 25.441C38.7424 25.4577 38.7424 25.4577 38.5994 25.4591C38.5187 25.4603 38.5187 25.4603 38.4363 25.4616C38.3786 25.4617 38.321 25.4618 38.2615 25.462C38.1718 25.4626 38.1718 25.4626 38.0803 25.4632C37.9539 25.4639 37.8275 25.4642 37.7011 25.4641C37.5083 25.4644 37.3155 25.4667 37.1226 25.4691C36.9996 25.4694 36.8767 25.4697 36.7537 25.4698C36.6676 25.4711 36.6676 25.4711 36.5797 25.4725C36.2297 25.47 36.0257 25.4269 35.7493 25.191C35.5642 24.9484 35.5528 24.8241 35.4993 24.5035C34.1793 24.5035 32.8593 24.5035 31.4993 24.5035C31.4581 24.6685 31.4168 24.8335 31.3743 25.0035C31.2314 25.2226 31.1143 25.3418 30.8743 25.441C30.7424 25.4577 30.7424 25.4577 30.5994 25.4591C30.5187 25.4603 30.5187 25.4603 30.4363 25.4616C30.3786 25.4617 30.321 25.4618 30.2615 25.462C30.1718 25.4626 30.1718 25.4626 30.0803 25.4632C29.9539 25.4639 29.8275 25.4642 29.7011 25.4641C29.5083 25.4644 29.3155 25.4667 29.1226 25.4691C28.9996 25.4694 28.8767 25.4697 28.7537 25.4698C28.6676 25.4711 28.6676 25.4711 28.5797 25.4725C28.2297 25.47 28.0257 25.4269 27.7493 25.191C27.5642 24.9484 27.5528 24.8241 27.4993 24.5035C26.5093 24.5035 25.5193 24.5035 24.4993 24.5035ZM44.6399 26.7027C43.7436 27.6661 43.5072 28.7469 43.5503 30.0253C43.5746 30.3751 43.6723 30.682 43.8118 31.0035C43.8345 31.0582 43.8571 31.1129 43.8804 31.1693C44.3201 32.1366 45.1544 32.8684 46.1282 33.2691C47.1922 33.6263 48.3189 33.5538 49.3269 33.0622C50.2979 32.5439 51.0157 31.655 51.3436 30.6119C51.5728 29.7673 51.5354 28.807 51.1868 28.0035C51.1529 27.9214 51.1529 27.9214 51.1182 27.8377C50.6785 26.8703 49.8442 26.1386 48.8704 25.7379C47.3441 25.2255 45.8138 25.6344 44.6399 26.7027ZM42.6868 31.066C39.2631 34.4897 35.8393 37.9135 32.3118 41.441C32.4222 41.6617 32.4978 41.7668 32.6678 41.9342C32.7125 41.9785 32.7572 42.0228 32.8033 42.0684C32.8499 42.114 32.8966 42.1596 32.9446 42.2066C32.9918 42.2532 33.0389 42.2997 33.0875 42.3477C33.2036 42.4624 33.3201 42.5768 33.4368 42.691C33.6098 42.6119 33.7376 42.5308 33.8718 42.3964C33.9067 42.3617 33.9416 42.3271 33.9775 42.2914C34.0152 42.2533 34.0529 42.2153 34.0918 42.1761C34.1323 42.1356 34.1729 42.0952 34.2146 42.0535C34.3506 41.9178 34.4861 41.7815 34.6217 41.6453C34.719 41.548 34.8163 41.4507 34.9137 41.3534C35.1781 41.089 35.4422 40.8241 35.7062 40.5593C35.9821 40.2826 36.2583 40.0063 36.5345 39.73C36.9981 39.266 37.4615 38.8018 37.9247 38.3375C38.4018 37.8592 38.8791 37.3811 39.3565 36.9032C39.3859 36.8737 39.4154 36.8442 39.4457 36.8139C39.5933 36.6661 39.741 36.5183 39.8886 36.3705C41.1134 35.1444 42.3378 33.9178 43.5618 32.691C43.5407 32.6532 43.5195 32.6153 43.4977 32.5764C43.4698 32.5263 43.4419 32.4763 43.4132 32.4247C43.3718 32.3506 43.3718 32.3506 43.3296 32.2749C43.2201 32.0751 43.1193 31.8721 43.0188 31.6675C42.9156 31.4575 42.8167 31.2607 42.6868 31.066ZM44.3118 33.441C41.0118 36.741 37.7118 40.041 34.3118 43.441C34.4222 43.6617 34.4978 43.7668 34.6678 43.9342C34.7125 43.9785 34.7572 44.0228 34.8033 44.0684C34.8499 44.114 34.8966 44.1596 34.9446 44.2066C34.9918 44.2532 35.0389 44.2997 35.0875 44.3477C35.2036 44.4624 35.3201 44.5768 35.4368 44.691C35.6129 44.6108 35.7412 44.5272 35.8777 44.3905C35.9139 44.3546 35.9501 44.3186 35.9874 44.2816C36.0265 44.2421 36.0657 44.2025 36.106 44.1618C36.1481 44.1199 36.1902 44.0779 36.2335 44.0347C36.3747 43.8937 36.5154 43.7523 36.6561 43.6109C36.7571 43.5098 36.8581 43.4088 36.9592 43.3079C37.2337 43.0334 37.5079 42.7585 37.7819 42.4835C38.0683 42.1964 38.3551 41.9096 38.6418 41.6227C39.123 41.1411 39.6041 40.6593 40.0849 40.1773C40.5802 39.6808 41.0757 39.1845 41.5713 38.6884C41.6018 38.6578 41.6324 38.6272 41.6639 38.5957C41.8171 38.4423 41.9704 38.2889 42.1237 38.1354C43.3951 36.8627 44.6661 35.5895 45.9368 34.316C45.6822 34.1462 45.4083 34.0191 45.1341 33.8846C45.0912 33.8634 45.0484 33.8422 45.0042 33.8204C44.9466 33.7921 44.9466 33.7921 44.8878 33.7633C44.6928 33.6615 44.5028 33.5501 44.3118 33.441ZM31.6868 42.566C31.5395 42.9993 31.3927 43.4329 31.2468 43.8667C31.179 44.0681 31.111 44.2695 31.0425 44.4707C30.9637 44.7023 30.8858 44.9342 30.8079 45.1661C30.7833 45.238 30.7587 45.3099 30.7333 45.3839C30.7108 45.4515 30.6883 45.519 30.6651 45.5886C30.6451 45.6477 30.6251 45.7068 30.6045 45.7678C30.5574 45.9591 30.5457 46.1197 30.5618 46.316C30.6031 46.3572 30.6443 46.3985 30.6868 46.441C31.1532 46.4246 31.5627 46.2905 32.0015 46.14C32.1064 46.1047 32.1064 46.1047 32.2135 46.0688C32.4353 45.9941 32.6567 45.9188 32.8782 45.8433C33.0292 45.7924 33.1802 45.7415 33.3312 45.6906C33.7 45.5663 34.0685 45.4414 34.4368 45.316C34.3458 45.1069 34.2307 44.9691 34.0701 44.8081C34.0205 44.7581 33.9708 44.708 33.9197 44.6565C33.866 44.6031 33.8124 44.5497 33.7571 44.4947C33.7021 44.4396 33.6471 44.3844 33.5904 44.3276C33.4444 44.1815 33.298 44.0357 33.1516 43.8899C33.0319 43.7706 32.9127 43.6507 32.7935 43.5309C32.6515 43.3883 32.509 43.2462 32.3665 43.1041C32.3129 43.0502 32.2592 42.9963 32.2039 42.9407C32.1543 42.8915 32.1047 42.8422 32.0535 42.7915C31.9879 42.726 31.9879 42.726 31.9209 42.6592C31.8199 42.5525 31.8199 42.5525 31.6868 42.566ZM39.4993 45.5035C39.4993 46.2254 39.4993 46.9472 39.4993 47.691C39.832 47.4095 39.832 47.4095 40.1471 47.1138C40.1821 47.079 40.2171 47.0441 40.2532 47.0083C40.2892 46.9721 40.3252 46.936 40.3624 46.8988C40.4006 46.8606 40.4388 46.8224 40.4782 46.7831C40.558 46.7033 40.6378 46.6234 40.7175 46.5434C40.8401 46.4205 40.9631 46.2978 41.0861 46.1752C41.1639 46.0974 41.2416 46.0196 41.3194 45.9417C41.3563 45.9049 41.3932 45.8682 41.4312 45.8303C41.6058 45.6897 41.6058 45.6897 41.6868 45.5035C40.9649 45.5035 40.2431 45.5035 39.4993 45.5035Z" fill="#7B55D3"/>
<path d="M29.5 28.5C33.46 28.5 37.42 28.5 41.5 28.5C41.5 28.83 41.5 29.16 41.5 29.5C37.54 29.5 33.58 29.5 29.5 29.5C29.5 29.17 29.5 28.84 29.5 28.5Z" fill="#7B55D3"/>
<path d="M29.5 26.5C33.46 26.5 37.42 26.5 41.5 26.5C41.5 26.83 41.5 27.16 41.5 27.5C37.54 27.5 33.58 27.5 29.5 27.5C29.5 27.17 29.5 26.84 29.5 26.5Z" fill="#7B55D3"/>
<path d="M25.5 42.5C26.49 42.5 27.48 42.5 28.5 42.5C28.5 43.49 28.5 44.48 28.5 45.5C27.51 45.5 26.52 45.5 25.5 45.5C25.5 44.51 25.5 43.52 25.5 42.5ZM26.5 43.5C26.5 43.83 26.5 44.16 26.5 44.5C26.83 44.5 27.16 44.5 27.5 44.5C27.5 44.17 27.5 43.84 27.5 43.5C27.17 43.5 26.84 43.5 26.5 43.5Z" fill="#65C7C3"/>
<path d="M25.5 38.5C26.49 38.5 27.48 38.5 28.5 38.5C28.5 39.49 28.5 40.48 28.5 41.5C27.51 41.5 26.52 41.5 25.5 41.5C25.5 40.51 25.5 39.52 25.5 38.5ZM26.5 39.5C26.5 39.83 26.5 40.16 26.5 40.5C26.83 40.5 27.16 40.5 27.5 40.5C27.5 40.17 27.5 39.84 27.5 39.5C27.17 39.5 26.84 39.5 26.5 39.5Z" fill="#65C7C3"/>
<path d="M25.5 34.5C26.49 34.5 27.48 34.5 28.5 34.5C28.5 35.49 28.5 36.48 28.5 37.5C27.51 37.5 26.52 37.5 25.5 37.5C25.5 36.51 25.5 35.52 25.5 34.5ZM26.5 35.5C26.5 35.83 26.5 36.16 26.5 36.5C26.83 36.5 27.16 36.5 27.5 36.5C27.5 36.17 27.5 35.84 27.5 35.5C27.17 35.5 26.84 35.5 26.5 35.5Z" fill="#65C7C3"/>
<path d="M25.5 30.5C26.49 30.5 27.48 30.5 28.5 30.5C28.5 31.49 28.5 32.48 28.5 33.5C27.51 33.5 26.52 33.5 25.5 33.5C25.5 32.51 25.5 31.52 25.5 30.5ZM26.5 31.5C26.5 31.83 26.5 32.16 26.5 32.5C26.83 32.5 27.16 32.5 27.5 32.5C27.5 32.17 27.5 31.84 27.5 31.5C27.17 31.5 26.84 31.5 26.5 31.5Z" fill="#65C7C3"/>
<path d="M25.5 26.5C26.49 26.5 27.48 26.5 28.5 26.5C28.5 27.49 28.5 28.48 28.5 29.5C27.51 29.5 26.52 29.5 25.5 29.5C25.5 28.51 25.5 27.52 25.5 26.5ZM26.5 27.5C26.5 27.83 26.5 28.16 26.5 28.5C26.83 28.5 27.16 28.5 27.5 28.5C27.5 28.17 27.5 27.84 27.5 27.5C27.17 27.5 26.84 27.5 26.5 27.5Z" fill="#65C7C3"/>
<path d="M49.5625 27.625C49.7896 27.731 49.9341 27.8586 50.1094 28.0391C50.1593 28.0901 50.2093 28.1412 50.2607 28.1938C50.2984 28.233 50.3362 28.2722 50.375 28.3125C50.2735 28.5685 50.0896 28.7397 49.8973 28.9294C49.8613 28.9654 49.8253 29.0014 49.7883 29.0385C49.6695 29.1571 49.5503 29.2753 49.4312 29.3936C49.3486 29.4758 49.2661 29.5582 49.1837 29.6405C48.9667 29.857 48.7494 30.073 48.532 30.2891C48.3102 30.5096 48.0887 30.7305 47.8672 30.9514C47.4326 31.3846 46.9977 31.8174 46.5625 32.25C46.3423 32.1463 46.2001 32.0271 46.0283 31.853C45.9755 31.7999 45.9228 31.7467 45.8684 31.6919C45.8139 31.6363 45.7593 31.5807 45.7031 31.5234C45.6199 31.4393 45.6199 31.4393 45.5349 31.3535C45.398 31.2151 45.2614 31.0764 45.125 30.9375C45.231 30.7104 45.3586 30.5659 45.5391 30.3906C45.5901 30.3407 45.6412 30.2907 45.6938 30.2393C45.733 30.2016 45.7722 30.1638 45.8125 30.125C46.0809 30.2452 46.2357 30.414 46.4375 30.625C46.6636 30.5294 46.8075 30.3951 46.9798 30.2219C47.0373 30.1643 47.0949 30.1068 47.1542 30.0475C47.2164 29.9846 47.2786 29.9218 47.3408 29.8589C47.4049 29.7946 47.469 29.7303 47.5331 29.666C47.7015 29.4972 47.8695 29.328 48.0374 29.1587C48.209 28.9858 48.3809 28.8134 48.5527 28.6409C48.8897 28.3026 49.2262 27.9639 49.5625 27.625Z" fill="#65C7C3"/>
<path d="M29.5 32.5C31.48 32.5 33.46 32.5 35.5 32.5C35.5 32.83 35.5 33.16 35.5 33.5C33.52 33.5 31.54 33.5 29.5 33.5C29.5 33.17 29.5 32.84 29.5 32.5Z" fill="#7B55D3"/>
<path d="M29.5 30.5C31.48 30.5 33.46 30.5 35.5 30.5C35.5 30.83 35.5 31.16 35.5 31.5C33.52 31.5 31.54 31.5 29.5 31.5C29.5 31.17 29.5 30.84 29.5 30.5Z" fill="#7B55D3"/>
<path d="M29.5 36.5C31.15 36.5 32.8 36.5 34.5 36.5C34.5 36.83 34.5 37.16 34.5 37.5C32.85 37.5 31.2 37.5 29.5 37.5C29.5 37.17 29.5 36.84 29.5 36.5Z" fill="#7B55D3"/>
<path d="M29.5 34.5C31.15 34.5 32.8 34.5 34.5 34.5C34.5 34.83 34.5 35.16 34.5 35.5C32.85 35.5 31.2 35.5 29.5 35.5C29.5 35.17 29.5 34.84 29.5 34.5Z" fill="#7B55D3"/>
</g>
</g>
<defs>
<filter id="filter0_d_1_129955" x="0" y="0" width="74" height="74" filterUnits="userSpaceOnUse" color-interpolation-filters="sRGB">
<feFlood flood-opacity="0" result="BackgroundImageFix"/>
<feColorMatrix in="SourceAlpha" type="matrix" values="0 0 0 0 0 0 0 0 0 0 0 0 0 0 0 0 0 0 127 0" result="hardAlpha"/>
<feOffset dy="1"/>
<feGaussianBlur stdDeviation="0.5"/>
<feComposite in2="hardAlpha" operator="out"/>
<feColorMatrix type="matrix" values="0 0 0 0 0 0 0 0 0 0 0 0 0 0 0 0 0 0 0.04 0"/>
<feBlend mode="normal" in2="BackgroundImageFix" result="effect1_dropShadow_1_129955"/>
<feBlend mode="normal" in="SourceGraphic" in2="effect1_dropShadow_1_129955" result="shape"/>
</filter>
<clipPath id="clip0_1_129955">
<rect width="32" height="32" fill="white" transform="translate(21 20)"/>
</clipPath>
</defs>
</svg>
