<svg width="104" height="104" viewBox="0 0 104 104" fill="none" xmlns="http://www.w3.org/2000/svg">
<path d="M67.4836 23.7656L69.2782 28.4145L68.1635 28.4097L67.2686 25.5521L67.4836 23.7656Z" fill="#E0E0E0"/>
<path d="M61.3563 19.4766L60.7393 28.3833L67.1088 28.5168L67.8247 19.4766H61.3563Z" fill="#EBEBEB"/>
<path d="M61.9935 20.1929L61.4785 27.6041L66.2136 27.8298L66.8762 20.1484L61.9935 20.1929Z" fill="#FAFAFA"/>
<path d="M63.0315 21.2344L62.6484 26.4443H65.2593L65.7209 21.2344H63.0315Z" fill="#E0E0E0"/>
<path d="M55.0752 28.4363V23.9766H58.3V28.4331L55.0752 28.4363Z" fill="#EBEBEB"/>
<path d="M56.9086 23.9753C56.9086 23.9753 57.6858 18.2186 57.4675 18.2266C57.2493 18.2345 56.7029 23.4714 56.7029 23.4714C56.7029 23.4714 56.6778 19.1357 56.4753 19.1579C56.2728 19.1802 56.4753 23.7527 56.4753 23.7527C56.4753 23.7527 56.1236 20.0432 55.9352 20.1322C55.7468 20.2212 56.0153 23.9753 56.0153 23.9753H56.9086Z" fill="#E0E0E0"/>
<path d="M56.3213 23.9784C56.3213 23.9784 56.5913 21.1097 56.6777 21.3051C56.764 21.5006 56.6777 23.0137 56.6777 23.0137C56.6777 23.0137 57.4234 19.3057 57.6197 19.4329C57.8159 19.56 56.8551 23.4571 56.8551 23.4571C56.8551 23.4571 57.5836 21.232 57.7437 21.4657C57.9038 21.6993 57.1487 23.7877 57.1487 23.7877C57.1487 23.7877 57.9337 22.3112 57.9839 22.5162C58.0342 22.7213 57.6103 23.9848 57.6103 23.9848L56.3213 23.9784Z" fill="#EBEBEB"/>
<path d="M55.8612 23.9945C55.8612 23.9945 54.1342 20.5678 54.3508 20.6743C54.5675 20.7808 55.6665 22.9932 55.6665 22.9932C55.6665 22.9932 54.9364 20.8539 55.0966 20.7919C55.2567 20.7299 56.0574 23.1918 56.0574 23.1918L56.2364 23.9945H55.8612Z" fill="#F5F5F5"/>
<path d="M56.568 23.9831L56.6481 28.4412H55.1158L55.0859 23.9688L56.568 23.9831Z" fill="#E0E0E0"/>
<path d="M55.0775 24.3713L56.5628 24.3967L58.2992 24.3713L58.3541 23.9453H55.0352L55.0775 24.3713Z" fill="#E0E0E0"/>
<path d="M74.3899 28.3125H51.8086V29.4902H74.3899V28.3125Z" fill="#E0E0E0"/>
<path d="M16.4162 48.0703L16.7412 85.258H2.19043V48.5773L16.4162 48.0703Z" fill="#F5F5F5"/>
<path d="M8.57719 48.3516L8.70593 85.2595H2.19043V48.5788L8.57719 48.3516Z" fill="#E0E0E0"/>
<path d="M15.9597 48.5312V53.7427H9.06738V48.7776L15.9597 48.5312Z" fill="#E0E0E0"/>
<path d="M13.5821 49.9606V50.7298H11.4736V49.8906L13.5821 49.9606Z" fill="#F5F5F5"/>
<path d="M13.5819 51.3828H11.4043V51.6975H13.5819V51.3828Z" fill="#F5F5F5"/>
<path d="M15.9597 66.7969V72.0099H9.06738V67.0432L15.9597 66.7969Z" fill="#E0E0E0"/>
<path d="M13.5821 68.234V69.0032H11.4736V68.1641L13.5821 68.234Z" fill="#F5F5F5"/>
<path d="M13.5819 69.6484H11.4043V69.9631H13.5819V69.6484Z" fill="#F5F5F5"/>
<path d="M15.9597 54.4062V59.6193H9.06738V54.6526L15.9597 54.4062Z" fill="#E0E0E0"/>
<path d="M13.5821 55.8356V56.6064H11.4736V55.7656L13.5821 55.8356Z" fill="#F5F5F5"/>
<path d="M13.5819 57.2578H11.4043V57.5725H13.5819V57.2578Z" fill="#F5F5F5"/>
<path d="M15.9597 72.6719V77.8834H9.06738V72.9182L15.9597 72.6719Z" fill="#E0E0E0"/>
<path d="M13.5821 74.1012V74.8704H11.4736V74.0312L13.5821 74.1012Z" fill="#F5F5F5"/>
<path d="M13.5819 75.5234H11.4043V75.8381H13.5819V75.5234Z" fill="#F5F5F5"/>
<path d="M16.0329 78.5469V83.7599H9.14062V78.7932L16.0329 78.5469Z" fill="#E0E0E0"/>
<path d="M13.6564 79.9762V80.747H11.5479V79.9062L13.6564 79.9762Z" fill="#F5F5F5"/>
<path d="M13.6561 81.3984H11.4785V81.7131H13.6561V81.3984Z" fill="#F5F5F5"/>
<path d="M16.0495 60.6484H9.15723V65.8615H16.0495V60.6484Z" fill="#E0E0E0"/>
<path d="M13.6265 62.9949V63.718H11.6436V62.9297L13.6265 62.9949Z" fill="#F5F5F5"/>
<path d="M13.6264 64.3281H11.5791V64.6237H13.6264V64.3281Z" fill="#F5F5F5"/>
<path d="M58.8975 80.7188V85.2627H65.4616H72.7009V80.7188H58.8975Z" fill="#F5F5F5"/>
<path d="M58.3184 79.4531V80.723H73.1831V79.4531H65.4619H58.3184Z" fill="#E0E0E0"/>
<path d="M65.7508 85.267H72.7012V80.723H73.1832V79.4531H65.4619V80.6054L65.7508 85.267Z" fill="#E0E0E0"/>
<path d="M63.6284 81.4531H60.8291V82.1365H63.6284V81.4531Z" fill="#E0E0E0"/>
<path d="M64.0615 82.9922H60.4678V84.4369H64.0615V82.9922Z" fill="white"/>
<path d="M76.7314 74.9062V79.4502H83.2941H90.5333V74.9062H76.7314Z" fill="#F5F5F5"/>
<path d="M76.1514 73.6406V74.9105H91.0146V73.6406H83.2933H76.1514Z" fill="#E0E0E0"/>
<path d="M83.5844 79.4545H90.5332V74.9105H91.0152V73.6406H83.2939V74.7929L83.5844 79.4545Z" fill="#E0E0E0"/>
<path d="M81.4604 75.6406H78.6611V76.324H81.4604V75.6406Z" fill="#E0E0E0"/>
<path d="M81.8945 77.1797H78.3008V78.6244H81.8945V77.1797Z" fill="white"/>
<path d="M76.0684 80.7188V85.2627H82.6325H89.8718V80.7188H76.0684Z" fill="#F5F5F5"/>
<path d="M75.4912 79.4531V80.723H90.3544V79.4531H82.6331H75.4912Z" fill="#E0E0E0"/>
<path d="M82.9233 85.267H89.8721V80.723H90.3541V79.4531H82.6328V80.6054L82.9233 85.267Z" fill="#E0E0E0"/>
<path d="M80.7993 81.4531H78V82.1365H80.7993V81.4531Z" fill="#E0E0E0"/>
<path d="M81.2334 82.9922H77.6396V84.4369H81.2334V82.9922Z" fill="white"/>
<path d="M89.6775 48.0547L89.3525 85.2408H103.902V48.5617L89.6775 48.0547Z" fill="#F5F5F5"/>
<path d="M97.5164 48.3281L97.3877 85.2345H103.902V48.5554L97.5164 48.3281Z" fill="#E0E0E0"/>
<path d="M90.1348 48.5156V53.7271H97.0271V48.762L90.1348 48.5156Z" fill="#E0E0E0"/>
<path d="M92.5107 49.9449V50.7142H94.6193V49.875L92.5107 49.9449Z" fill="#F5F5F5"/>
<path d="M94.6883 51.3594H92.5107V51.6741H94.6883V51.3594Z" fill="#F5F5F5"/>
<path d="M90.1348 66.7734V71.9865H97.0271V67.0198L90.1348 66.7734Z" fill="#E0E0E0"/>
<path d="M92.5107 68.2106V68.9798H94.6193V68.1406L92.5107 68.2106Z" fill="#F5F5F5"/>
<path d="M94.6883 69.625H92.5107V69.9397H94.6883V69.625Z" fill="#F5F5F5"/>
<path d="M90.1348 54.3906V59.6037H97.0271V54.637L90.1348 54.3906Z" fill="#E0E0E0"/>
<path d="M92.5107 55.8199V56.5908H94.6193V55.75L92.5107 55.8199Z" fill="#F5F5F5"/>
<path d="M94.6883 57.2344H92.5107V57.5491H94.6883V57.2344Z" fill="#F5F5F5"/>
<path d="M90.1348 72.6562V77.8677H97.0271V72.9026L90.1348 72.6562Z" fill="#E0E0E0"/>
<path d="M92.5107 74.0856V74.8548H94.6193V74.0156L92.5107 74.0856Z" fill="#F5F5F5"/>
<path d="M94.6883 75.5H92.5107V75.8147H94.6883V75.5Z" fill="#F5F5F5"/>
<path d="M90.0605 78.5234V83.7365H96.9529V78.7698L90.0605 78.5234Z" fill="#E0E0E0"/>
<path d="M92.4355 79.9606V80.7314H94.5456V79.8906L92.4355 79.9606Z" fill="#F5F5F5"/>
<path d="M94.6131 81.375H92.4355V81.6897H94.6131V81.375Z" fill="#F5F5F5"/>
<path d="M96.9372 60.6328H90.0449V65.8459H96.9372V60.6328Z" fill="#E0E0E0"/>
<path d="M92.4678 62.9808V63.704H94.4507V62.9141L92.4678 62.9808Z" fill="#F5F5F5"/>
<path d="M94.5151 64.3125H92.4678V64.6081H94.5151V64.3125Z" fill="#F5F5F5"/>
<path d="M104 85.2585C104 85.2807 80.7169 85.2998 52.0031 85.2998C23.2894 85.2998 0 85.2807 0 85.2585C0 85.2362 23.2784 85.2188 52.0031 85.2188C80.7279 85.2188 104 85.2346 104 85.2585Z" fill="#263238"/>
<path d="M37.3801 42.5247L38.4885 61.6589C38.5073 61.9872 38.6492 62.2959 38.8853 62.5219C39.1213 62.7479 39.4337 62.8741 39.7586 62.8748L73.7805 62.9797C73.9481 62.9803 74.1141 62.9475 74.2691 62.8831C74.4241 62.8187 74.5651 62.724 74.6839 62.6045C74.8028 62.4849 74.8971 62.3428 74.9617 62.1863C75.0262 62.0298 75.0597 61.8619 75.0601 61.6923L75.1056 46.7937C75.106 46.6233 75.0732 46.4546 75.0089 46.2971C74.9447 46.1397 74.8503 45.9966 74.7312 45.8763C74.6121 45.7559 74.4707 45.6605 74.3151 45.5957C74.1595 45.5308 73.9928 45.4977 73.8245 45.4984L52.9011 45.5699C52.7336 45.5705 52.5677 45.5377 52.4128 45.4734C52.2579 45.409 52.1171 45.3143 51.9983 45.1948L48.3732 41.5584C48.1349 41.3196 47.8136 41.1849 47.4783 41.1833L38.658 41.1563C38.4838 41.156 38.3114 41.1917 38.1513 41.2614C37.9913 41.331 37.8469 41.433 37.7273 41.5612C37.6076 41.6894 37.515 41.8409 37.4553 42.0066C37.3956 42.1723 37.37 42.3486 37.3801 42.5247Z" fill="#7B55D3"/>
<path opacity="0.3" d="M37.3801 42.5247L38.4885 61.6589C38.5073 61.9872 38.6492 62.2959 38.8853 62.5219C39.1213 62.7479 39.4337 62.8741 39.7586 62.8748L73.7805 62.9797C73.9481 62.9803 74.1141 62.9475 74.2691 62.8831C74.4241 62.8187 74.5651 62.724 74.6839 62.6045C74.8028 62.4849 74.8971 62.3428 74.9617 62.1863C75.0262 62.0298 75.0597 61.8619 75.0601 61.6923L75.1056 46.7937C75.106 46.6233 75.0732 46.4546 75.0089 46.2971C74.9447 46.1397 74.8503 45.9966 74.7312 45.8763C74.6121 45.7559 74.4707 45.6605 74.3151 45.5957C74.1595 45.5308 73.9928 45.4977 73.8245 45.4984L52.9011 45.5699C52.7336 45.5705 52.5677 45.5377 52.4128 45.4734C52.2579 45.409 52.1171 45.3143 51.9983 45.1948L48.3732 41.5584C48.1349 41.3196 47.8136 41.1849 47.4783 41.1833L38.658 41.1563C38.4838 41.156 38.3114 41.1917 38.1513 41.2614C37.9913 41.331 37.8469 41.433 37.7273 41.5612C37.6076 41.6894 37.515 41.8409 37.4553 42.0066C37.3956 42.1723 37.37 42.3486 37.3801 42.5247Z" fill="black"/>
<path d="M48.9551 33.9692L37.7676 48.8359L49.5084 57.8903L60.696 43.0236L48.9551 33.9692Z" fill="white"/>
<path d="M48.9543 33.9688L48.9025 34.0419L48.7455 34.2501C48.6073 34.436 48.4048 34.7062 48.1426 35.0606L45.8614 38.109L37.7963 48.8578L37.7884 48.8069L49.532 57.8567L49.4739 57.8647L60.6665 43.0026L60.6743 43.0503L52.1665 36.4672L49.7927 34.6252L49.1646 34.1388L48.9543 33.9688L49.1678 34.1277L49.7958 34.6045L52.1696 36.4275L60.7167 42.9947L60.7434 43.0153L60.723 43.044L49.5414 57.9155L49.5163 57.9489L49.4834 57.9235L37.746 48.8642L37.7178 48.8419L37.7398 48.8117L45.8488 38.0661L48.141 35.0352L48.747 34.2405L48.904 34.0371L48.9543 33.9688Z" fill="#263238"/>
<path d="M49.2933 35.0682L38.8916 48.8906L49.155 56.8056L59.5567 42.9832L49.2933 35.0682Z" fill="#263238"/>
<path d="M49.1557 56.9632L46.4082 47.2157L52.6505 47.3031L52.0429 43.6286L59.557 43.1406L49.1557 56.9632Z" fill="#455A64"/>
<path d="M48.1971 44.6361C48.9368 44.5339 49.4546 43.8441 49.3537 43.0952C49.2527 42.3464 48.5713 41.8222 47.8315 41.9244C47.0918 42.0265 46.574 42.7164 46.6749 43.4652C46.7759 44.2141 47.4574 44.7383 48.1971 44.6361Z" fill="#455A64"/>
<path d="M51.4407 33.8069L50.5947 54.5859L76.2691 55.6571L77.1151 34.8781L51.4407 33.8069Z" fill="white"/>
<path d="M77.1091 34.8702H76.9867L76.6287 34.8575L75.2361 34.8035L69.9829 34.5953L51.4333 33.8403L51.471 33.8054C51.2214 39.9895 50.9341 47.0796 50.6311 54.583L50.5918 54.54L76.2723 55.6145L76.2378 55.6478C76.5 49.3858 76.7166 44.195 76.8658 40.5696C76.9443 38.7546 77.0055 37.3305 77.0463 36.361C77.0683 35.8763 77.084 35.5044 77.095 35.2485C77.106 34.9926 77.1138 34.867 77.1138 34.867C77.1138 34.867 77.1138 34.9926 77.1029 35.2421C77.0919 35.4917 77.0793 35.862 77.062 36.3436C77.0244 37.3131 76.9694 38.7276 76.905 40.5458C76.7622 44.1775 76.5565 49.3762 76.3084 55.6446V55.678H76.2723L50.5887 54.6211H50.5479V54.5798C50.854 47.0764 51.1445 39.9863 51.3972 33.8022V33.7656H51.4333L70.0049 34.5603L75.2487 34.7892L76.6334 34.8512L76.9882 34.867L77.1091 34.8702Z" fill="#263238"/>
<path d="M52.2717 35.1489L51.5322 53.3125L75.4027 54.3084L76.1421 36.1448L52.2717 35.1489Z" fill="#455A64"/>
<path d="M51.5293 53.3099L60.3244 42.3672L65.2024 49.6464L68.859 46.0163L75.3996 54.3048L51.5293 53.3099Z" fill="#263238"/>
<path d="M67.6925 41.6317C67.9198 40.6056 67.2824 39.5872 66.2688 39.3571C65.2552 39.127 64.2492 39.7723 64.0219 40.7984C63.7946 41.8244 64.432 42.8428 65.4456 43.0729C66.4592 43.303 67.4652 42.6577 67.6925 41.6317Z" fill="#263238"/>
<path d="M78.3519 43.8047L43.5732 48.6522L47.2565 74.4379L81.7494 69.5188L78.3519 43.8047Z" fill="#EBEBEB"/>
<path d="M78.4861 40.5859L44.1094 47.7984L49.5039 73.2741L83.5902 66.0092L78.4861 40.5859Z" fill="#E0E0E0"/>
<path d="M75.449 37.7266L42.333 49.5227L51.0387 74.0417L83.8627 62.2328L75.449 37.7266Z" fill="white"/>
<path d="M75.45 37.7266C75.5411 37.9904 78.78 47.3819 83.895 62.2217L83.906 62.2534L83.8746 62.2646L51.0616 74.0798L51.0223 74.0941L51.0098 74.0544L50.9454 73.8764C47.8478 65.1461 44.9103 56.8703 42.3104 49.5354L42.2979 49.4989L42.3324 49.4878L75.4594 37.7266L42.3465 49.5577L42.3685 49.51L51.0145 73.8478L51.0789 74.0274L51.0255 74.0019L83.8526 62.201L83.8322 62.2439C78.7548 47.3898 75.5411 37.9904 75.45 37.7266Z" fill="#263238"/>
<path d="M76.3835 61.2406C76.3191 61.2644 74.7287 57.0828 72.8306 51.9015C70.9325 46.7202 69.4425 42.5005 69.5069 42.4767C69.5713 42.4528 71.1601 46.6328 73.0598 51.8157C74.9595 56.9986 76.4463 61.2135 76.3835 61.2406Z" fill="#263238"/>
<path d="M73.5543 62.5531C73.4915 62.5769 71.8995 58.3953 70.0014 53.2156C68.1033 48.0359 66.6149 43.813 66.6777 43.7892C66.7405 43.7653 68.3325 47.9469 70.2322 53.1282C72.1319 58.3095 73.6187 62.5292 73.5543 62.5531Z" fill="#263238"/>
<path d="M64.7731 66.2796C64.7103 66.3035 63.1183 62.1219 61.2201 56.9406C59.322 51.7593 57.8336 47.5396 57.8964 47.5157C57.9592 47.4919 59.5512 51.6719 61.4494 56.8548C63.3475 62.0376 64.8359 66.2558 64.7731 66.2796Z" fill="#263238"/>
<path d="M67.5729 65.139C67.5086 65.1628 65.9182 60.9813 64.02 55.8C62.1219 50.6187 60.632 46.3989 60.6963 46.3751C60.7607 46.3513 62.3496 50.5313 64.2493 55.7141C66.149 60.897 67.6373 65.1152 67.5729 65.139Z" fill="#263238"/>
<path d="M70.3707 63.9906C70.3079 64.0144 68.7175 59.8328 66.8178 54.6531C64.9181 49.4734 63.4313 45.2505 63.4941 45.2267C63.5569 45.2028 65.1489 49.3844 67.0486 54.5657C68.9483 59.747 70.4351 63.9667 70.3707 63.9906Z" fill="#263238"/>
<path d="M61.5318 67.2171C61.469 67.241 59.8771 63.0594 57.9789 57.8781C56.0808 52.6968 54.5924 48.4771 54.6552 48.4532C54.718 48.4294 56.31 52.6094 58.2097 57.7923C60.1094 62.9751 61.5962 67.1933 61.5318 67.2171Z" fill="#263238"/>
<path d="M58.4303 68.3716C58.3675 68.3954 56.7771 64.2138 54.8774 59.0341C52.9777 53.8544 51.4909 49.6331 51.5537 49.6172C51.6165 49.6013 53.2085 53.775 55.1082 58.9563C57.0079 64.1376 58.4946 68.3493 58.4303 68.3716Z" fill="#263238"/>
<path d="M55.3308 69.5218C55.2664 69.5457 53.676 65.3641 51.7763 60.1844C49.8766 55.0047 48.3898 50.7818 48.4542 50.7579C48.5185 50.7341 50.1074 54.9157 52.0071 60.097C53.9068 65.2782 55.3904 69.498 55.3308 69.5218Z" fill="#263238"/>
<path d="M36.6845 53.0001L39.4524 76.4573C39.4762 76.6587 39.5718 76.8443 39.7213 76.9792C39.8708 77.1142 40.0638 77.1891 40.2641 77.19L76.4903 77.3013C76.697 77.3024 76.8964 77.2244 77.0487 77.0829C77.2009 76.9414 77.2948 76.7469 77.3114 76.5384L79.2064 53.0954C79.2155 52.9811 79.2011 52.8662 79.1643 52.7577C79.1274 52.6493 79.0688 52.5497 78.9922 52.4652C78.9156 52.3808 78.8225 52.3133 78.7189 52.2669C78.6153 52.2206 78.5033 52.1964 78.39 52.1959L37.5025 52.0703C37.3862 52.0699 37.2712 52.0946 37.165 52.1426C37.0589 52.1905 36.964 52.2608 36.8866 52.3487C36.8093 52.4366 36.7513 52.5401 36.7165 52.6524C36.6816 52.7647 36.6707 52.8832 36.6845 53.0001Z" fill="#7B55D3"/>
<path d="M33.1925 84.5298L33.1783 83.2266L30.7637 83.2393V85.1465L30.9207 85.156C31.5864 85.1894 34.3103 85.28 34.7546 85.1417C35.246 84.986 33.1925 84.5298 33.1925 84.5298Z" fill="#455A64"/>
<path d="M30.7324 85.0939H30.7732H30.8926L31.3322 85.1114C31.7027 85.1225 32.2145 85.1321 32.7797 85.1305C33.3449 85.1289 33.8583 85.1146 34.2288 85.1003L34.6668 85.0796L34.7862 85.0717H34.827C34.8134 85.0699 34.7997 85.0699 34.7862 85.0717H34.6668L34.2272 85.0812C33.8567 85.0907 33.3449 85.1019 32.7797 85.1035C32.2145 85.105 31.7027 85.1035 31.3322 85.0939L30.8926 85.086H30.7356L30.7324 85.0939Z" fill="#263238"/>
<path d="M33.984 85.1487C34.0023 85.0747 34.0292 85.0033 34.064 84.9357C34.1098 84.8731 34.1625 84.8161 34.221 84.7656C34.1448 84.7938 34.0824 84.8508 34.0468 84.9246C33.9986 84.9885 33.9761 85.0686 33.984 85.1487Z" fill="#263238"/>
<path d="M33.2696 84.7816C33.2774 84.7816 33.3104 84.7434 33.3449 84.6878C33.3703 84.6557 33.388 84.6182 33.3967 84.5781C33.3967 84.5781 33.3559 84.6147 33.3214 84.6719C33.2868 84.7291 33.2633 84.7768 33.2696 84.7816Z" fill="#263238"/>
<path d="M33.0728 84.6783C33.0728 84.6783 33.1167 84.6576 33.1575 84.6195C33.1984 84.5814 33.2282 84.5464 33.2235 84.54C33.2188 84.5337 33.1795 84.5591 33.1387 84.5973C33.0979 84.6354 33.068 84.672 33.0728 84.6783Z" fill="#263238"/>
<path d="M32.9492 84.4455C32.9896 84.4592 33.0323 84.4645 33.0748 84.4612C33.1177 84.4658 33.1611 84.4609 33.202 84.447C33.1614 84.4321 33.1179 84.4268 33.0748 84.4313C33.0324 84.4268 32.9896 84.4316 32.9492 84.4455Z" fill="#263238"/>
<path d="M32.9062 84.2815C32.9478 84.3085 32.9965 84.3222 33.046 84.3207C33.0955 84.3284 33.1461 84.3218 33.192 84.3019C33.1449 84.2931 33.0969 84.2899 33.0491 84.2925C33.002 84.2839 32.9541 84.2802 32.9062 84.2815Z" fill="#263238"/>
<path d="M33.3506 84.5689C33.4024 84.5798 33.4558 84.5798 33.5076 84.5689C33.5641 84.5623 33.6199 84.5501 33.674 84.5324C33.7067 84.5226 33.7383 84.5093 33.7682 84.4927C33.7859 84.4811 33.7992 84.4637 33.8059 84.4434C33.8083 84.4316 33.8074 84.4194 33.8032 84.4082C33.799 84.3969 33.7918 84.3871 33.7823 84.3798C33.7229 84.3512 33.6555 84.344 33.5915 84.3597C33.5275 84.3753 33.4707 84.4127 33.4307 84.4656C33.4068 84.4972 33.3897 84.5335 33.3804 84.5721C33.3767 84.5856 33.3767 84.5999 33.3804 84.6135C33.3948 84.5649 33.4183 84.5196 33.4495 84.4799C33.4842 84.4385 33.53 84.4082 33.5814 84.3925C33.6114 84.3817 33.6433 84.3771 33.6751 84.379C33.707 84.3809 33.7381 84.3893 33.7666 84.4037C33.7918 84.4227 33.7823 84.4513 33.7541 84.4672C33.7271 84.4838 33.6981 84.4966 33.6677 84.5054C33.6169 84.5248 33.5643 84.5391 33.5107 84.5483C33.4102 84.5642 33.3506 84.5642 33.3506 84.5689Z" fill="#263238"/>
<path d="M33.3897 84.5832C33.4093 84.5509 33.4155 84.5121 33.407 84.4752C33.4029 84.4339 33.3883 84.3945 33.3646 84.3607C33.3515 84.3376 33.3328 84.3182 33.3103 84.3043C33.2878 84.2904 33.2622 84.2825 33.2359 84.2812C33.2203 84.2847 33.2066 84.294 33.1976 84.3073C33.1886 84.3206 33.1849 84.3368 33.1872 84.3528C33.191 84.3778 33.2001 84.4016 33.2139 84.4227C33.2346 84.4574 33.2594 84.4894 33.2877 84.5181C33.3119 84.5463 33.3427 84.5682 33.3772 84.5816C33.3772 84.5816 33.3458 84.553 33.3034 84.5038C33.278 84.4751 33.2559 84.4437 33.2375 84.41C33.217 84.3766 33.2013 84.3178 33.2375 84.3099C33.2736 84.3019 33.316 84.3448 33.3395 84.3766C33.3616 84.4067 33.3767 84.4415 33.3835 84.4783C33.3893 84.513 33.3914 84.5481 33.3897 84.5832Z" fill="#263238"/>
<path d="M30.7773 84.4246C30.7773 84.4246 30.8464 84.4246 30.9563 84.4246C31.0975 84.4409 31.2312 84.4971 31.3423 84.5868C31.4533 84.6764 31.5372 84.7959 31.5843 84.9316C31.622 85.0365 31.6251 85.1064 31.6314 85.1048C31.634 85.0885 31.634 85.0719 31.6314 85.0556C31.6279 85.0112 31.6189 84.9674 31.6047 84.9252C31.5609 84.7818 31.4756 84.6551 31.3598 84.5613C31.2426 84.4691 31.1012 84.4138 30.9532 84.4023C30.9094 84.3971 30.8651 84.3971 30.8213 84.4023C30.8057 84.4075 30.7908 84.415 30.7773 84.4246Z" fill="#263238"/>
<path d="M31.0236 83.4062C31.0073 83.5731 31.001 83.7408 31.0048 83.9085C30.9972 84.076 31.0009 84.2438 31.0158 84.4107C31.031 84.2438 31.0368 84.0761 31.033 83.9085C31.0397 83.741 31.0365 83.5733 31.0236 83.4062Z" fill="#263238"/>
<path d="M31.9443 84.8863C32.0598 84.9112 32.1779 84.9223 32.296 84.9193C32.4146 84.9249 32.5333 84.9149 32.6493 84.8895C32.6493 84.88 32.4923 84.8895 32.296 84.8895C32.0998 84.8895 31.9443 84.8769 31.9443 84.8863Z" fill="#263238"/>
<path d="M31.4707 84.8834C31.4707 84.8834 31.4848 84.9184 31.5005 84.955C31.5162 84.9915 31.5257 85.0233 31.5335 85.0233C31.5414 85.0233 31.5461 84.9836 31.5335 84.9423C31.5209 84.9009 31.477 84.8787 31.4707 84.8834Z" fill="#263238"/>
<path d="M31.291 84.6655C31.291 84.6655 31.302 84.6957 31.3271 84.7211C31.3522 84.7465 31.3758 84.7624 31.3821 84.7576C31.3884 84.7529 31.3727 84.7259 31.3475 84.7004C31.3224 84.675 31.2973 84.6591 31.291 84.6655Z" fill="#263238"/>
<path d="M31.0373 84.5609C31.0373 84.5689 31.0703 84.5689 31.1064 84.5816C31.1425 84.5943 31.1676 84.6118 31.1739 84.607C31.1802 84.6022 31.1598 84.5673 31.1158 84.553C31.0718 84.5387 31.0342 84.553 31.0373 84.5609Z" fill="#263238"/>
<path d="M30.8545 84.5137C30.8545 84.5216 30.8655 84.5341 30.8859 84.542C30.9063 84.5498 30.9236 84.542 30.9267 84.542C30.9299 84.542 30.9157 84.5216 30.8953 84.5137C30.8749 84.5058 30.8576 84.5058 30.8545 84.5137Z" fill="#263238"/>
<path d="M19.1408 82.6518L19.8238 81.5392L17.7828 80.2344L16.7686 81.8476L16.8894 81.9366C17.4327 82.3276 19.6778 83.8899 20.1252 84.0154C20.6276 84.1553 19.1408 82.6518 19.1408 82.6518Z" fill="#455A64"/>
<path d="M16.7686 81.7812L16.8015 81.8083L16.8989 81.8782L17.2584 82.1325C17.5724 82.3439 17.9916 82.6316 18.4689 82.9383C18.9461 83.245 19.3842 83.5136 19.7045 83.7028L20.0844 83.9253L20.1896 83.9841C20.2131 83.9968 20.2257 84.0032 20.2273 84.0016L20.1927 83.9777L20.0907 83.9158L19.7154 83.6853C19.4014 83.4914 18.9618 83.2196 18.4846 82.9129C18.0073 82.6061 17.5787 82.3232 17.271 82.1182L16.9051 81.8718L16.8047 81.8067L16.7686 81.7812Z" fill="#263238"/>
<path d="M19.4814 83.5953C19.5367 83.5439 19.5973 83.4986 19.662 83.4602C19.7315 83.4308 19.8042 83.41 19.8787 83.3982C19.8006 83.3809 19.719 83.3934 19.6494 83.4332C19.575 83.4635 19.5149 83.5215 19.4814 83.5953Z" fill="#263238"/>
<path d="M19.0734 82.9002C19.0734 82.9081 19.1283 82.8906 19.1864 82.862C19.2445 82.8334 19.2916 82.8048 19.2885 82.7969C19.2479 82.8008 19.2088 82.8138 19.1739 82.835C19.1236 82.8636 19.0702 82.8922 19.0734 82.9002Z" fill="#263238"/>
<path d="M18.9668 82.7068C18.9668 82.7146 19.0139 82.7068 19.0688 82.7068C19.1238 82.7068 19.1678 82.6832 19.1662 82.6754C19.1646 82.6675 19.1191 82.6754 19.0641 82.6754C19.0092 82.6754 18.9668 82.6989 18.9668 82.7068Z" fill="#263238"/>
<path d="M18.9805 82.4453C18.9805 82.4453 19.0197 82.4882 19.0778 82.528C19.1359 82.5677 19.1877 82.5915 19.1924 82.5836C19.1971 82.5756 19.1532 82.5407 19.0951 82.5025C19.0613 82.4755 19.0222 82.456 18.9805 82.4453Z" fill="#263238"/>
<path d="M19.0312 82.2891C19.0312 82.2891 19.0626 82.351 19.1286 82.4003C19.1654 82.4339 19.2114 82.4555 19.2605 82.4623C19.2605 82.4544 19.2087 82.4242 19.1459 82.3765C19.1099 82.3444 19.0716 82.3152 19.0312 82.2891Z" fill="#263238"/>
<path d="M19.2555 82.7668C19.2934 82.8028 19.3376 82.8314 19.3858 82.851C19.4363 82.875 19.4888 82.8942 19.5428 82.9082C19.5755 82.9184 19.6092 82.9248 19.6433 82.9273C19.6645 82.928 19.6853 82.9207 19.7014 82.9067C19.7094 82.8981 19.7148 82.8875 19.717 82.8759C19.7192 82.8644 19.7182 82.8524 19.7139 82.8415C19.6798 82.7845 19.6271 82.7413 19.565 82.7193C19.5028 82.6973 19.4351 82.6978 19.3732 82.7207C19.3365 82.7344 19.3028 82.7555 19.2743 82.7827C19.2555 82.8018 19.2476 82.8145 19.2492 82.8161C19.288 82.7836 19.3321 82.7584 19.3795 82.7414C19.4307 82.7256 19.4853 82.7256 19.5365 82.7414C19.5688 82.748 19.5995 82.7613 19.6265 82.7804C19.6535 82.7996 19.6763 82.8242 19.6935 82.8526C19.7045 82.8812 19.681 82.9003 19.648 82.9003C19.6167 82.8981 19.5856 82.8928 19.5554 82.8844C19.5019 82.8714 19.4494 82.8544 19.3984 82.8335C19.3073 82.7954 19.2571 82.7636 19.2555 82.7668Z" fill="#263238"/>
<path d="M19.2809 82.7957C19.2809 82.7957 19.3218 82.7766 19.3532 82.713C19.3715 82.6761 19.3801 82.6351 19.3783 82.5938C19.3793 82.5671 19.3736 82.5406 19.3618 82.5167C19.35 82.4928 19.3325 82.4723 19.3108 82.4571C19.2958 82.4514 19.2791 82.4518 19.2645 82.4584C19.2498 82.4649 19.2382 82.477 19.2323 82.4921C19.2219 82.515 19.2171 82.54 19.2181 82.5652C19.2165 82.6058 19.2202 82.6464 19.2291 82.686C19.235 82.7229 19.2495 82.7578 19.2715 82.7877C19.2715 82.7877 19.259 82.7464 19.2495 82.6812C19.2454 82.6432 19.2454 82.6048 19.2495 82.5668C19.2495 82.5271 19.2684 82.4683 19.3045 82.4841C19.3406 82.5 19.3516 82.5557 19.3563 82.5954C19.3576 82.6327 19.3517 82.67 19.339 82.7051C19.3223 82.7369 19.3029 82.7672 19.2809 82.7957Z" fill="#263238"/>
<path d="M17.166 81.2422C17.166 81.2422 17.2272 81.274 17.312 81.3439C17.4233 81.435 17.5075 81.5554 17.5554 81.692C17.6015 81.8286 17.6091 81.9756 17.5774 82.1163C17.5522 82.226 17.5193 82.2864 17.524 82.2896C17.5341 82.277 17.5425 82.2631 17.5491 82.2482C17.5697 82.2083 17.586 82.1662 17.5978 82.1227C17.6358 81.9777 17.6309 81.8246 17.5836 81.6824C17.5338 81.5409 17.4444 81.4172 17.3262 81.3264C17.2903 81.2998 17.2519 81.2769 17.2115 81.2581C17.1974 81.2502 17.182 81.2448 17.166 81.2422Z" fill="#263238"/>
<path d="M17.9147 80.5156C17.8117 80.6468 17.7168 80.7843 17.6305 80.9273C17.5357 81.0646 17.4497 81.2079 17.373 81.3564C17.4754 81.2245 17.5698 81.0866 17.6556 80.9432C17.7493 80.8053 17.8358 80.6626 17.9147 80.5156Z" fill="#263238"/>
<path d="M17.9023 82.2659C17.9846 82.3521 18.0781 82.4264 18.1802 82.4868C18.277 82.5565 18.3827 82.6126 18.4942 82.6537C18.4942 82.6458 18.3592 82.5695 18.1959 82.4614C18.0327 82.3533 17.9071 82.2596 17.9023 82.2659Z" fill="#263238"/>
<path d="M17.5017 82.008C17.5017 82.008 17.5017 82.043 17.4891 82.0827C17.4766 82.1224 17.4734 82.1542 17.4891 82.159C17.5048 82.1638 17.5205 82.132 17.5268 82.0875C17.5331 82.043 17.5096 82.0048 17.5017 82.008Z" fill="#263238"/>
<path d="M17.4707 81.7188C17.4707 81.7188 17.4707 81.7489 17.4707 81.7855C17.4707 81.8221 17.4895 81.8475 17.4974 81.8459C17.5052 81.8443 17.5068 81.8141 17.4974 81.7791C17.488 81.7442 17.4786 81.7188 17.4707 81.7188Z" fill="#263238"/>
<path d="M17.3086 81.495C17.3086 81.5029 17.3337 81.5204 17.3573 81.5506C17.3808 81.5808 17.3918 81.6094 17.3997 81.6094C17.4075 81.6094 17.4091 81.5681 17.3792 81.5316C17.3494 81.495 17.3117 81.487 17.3086 81.495Z" fill="#263238"/>
<path d="M17.1816 81.3612C17.1816 81.3612 17.1816 81.3834 17.1926 81.4009C17.2036 81.4184 17.2209 81.4279 17.2272 81.4232C17.2335 81.4184 17.2272 81.4009 17.2162 81.3834C17.2052 81.3659 17.1879 81.3548 17.1816 81.3612Z" fill="#263238"/>
<path d="M28.489 57.3578C28.489 57.3578 30.53 71.1295 30.2379 71.7939C29.9459 72.4582 20.3799 83.1021 20.3799 83.1021L16.8584 80.7387C16.8584 80.7387 25.2077 70.0901 25.1449 69.8406C25.0821 69.591 21.9813 56.25 21.9813 56.25L28.489 57.3578Z" fill="#7B55D3"/>
<path d="M20.8178 56.0625L20.6938 56.5727C20.331 58.079 20.5559 59.669 21.3218 61.0117L26.8702 70.7576C27.2645 71.4476 27.5515 72.1948 27.7211 72.9732L30.2331 84.2258H34.1C34.1 84.4595 33.0999 74.9551 32.5975 71.7987C32.2207 69.4146 29.0729 62.0289 27.5484 58.5387L28.4904 57.3626L26.8482 57.0892L20.8178 56.0625Z" fill="#7B55D3"/>
<path d="M27.6641 58.5078C27.6986 58.5571 27.7271 58.6105 27.7488 58.6667C27.7991 58.7685 27.8682 58.9179 27.9514 59.1038C28.1178 59.4741 28.336 59.9923 28.559 60.5708C28.7819 61.1493 28.9656 61.6833 29.0912 62.068C29.1524 62.2619 29.2011 62.4192 29.2325 62.5289C29.2526 62.5849 29.2663 62.643 29.2733 62.7021C29.2429 62.6525 29.2192 62.5991 29.2027 62.5432C29.1571 62.4192 29.1006 62.2682 29.0362 62.0902C28.8981 61.7088 28.705 61.1827 28.482 60.6042C28.2591 60.0256 28.0503 59.5059 27.898 59.1292C27.8289 58.9544 27.7693 58.8114 27.719 58.6826C27.6924 58.6274 27.6739 58.5685 27.6641 58.5078Z" fill="#263238"/>
<path d="M28.1203 74.8439C28.1086 74.8082 28.1002 74.7715 28.0952 74.7343C28.081 74.6532 28.0622 74.5483 28.0402 74.4164C28.0277 74.3465 28.0151 74.2702 28.001 74.1875C27.9868 74.1049 27.9633 74.0143 27.9413 73.9173C27.8989 73.725 27.855 73.5041 27.7843 73.2641C27.7513 73.1433 27.7184 73.0178 27.6823 72.8874L27.5551 72.4822C27.4734 72.2024 27.3588 71.9116 27.2411 71.6017C27.0024 70.9882 26.712 70.3302 26.3744 69.6468C25.7829 68.4932 25.1315 67.3722 24.4229 66.2884C24.1545 65.8784 23.9362 65.543 23.7777 65.3031C23.7054 65.1918 23.6489 65.1028 23.6034 65.0345C23.5819 65.0038 23.563 64.9714 23.5469 64.9375C23.5735 64.964 23.5972 64.9933 23.6175 65.0249L23.8044 65.284C23.9614 65.5113 24.1953 65.8418 24.4716 66.2567C25.195 67.3333 25.8545 68.4526 26.4467 69.6086C26.7858 70.2904 27.0747 70.9564 27.3117 71.573C27.4201 71.8909 27.5331 72.1786 27.6132 72.4615L27.7356 72.8684C27.7686 73.0019 27.8016 73.1274 27.833 73.2498C27.8989 73.4914 27.9382 73.7139 27.9774 73.9078C27.9963 74.0053 28.0135 74.0959 28.0292 74.1796C28.0418 74.2638 28.0512 74.3385 28.0622 74.41C28.0779 74.542 28.092 74.6484 28.103 74.7279C28.1129 74.7658 28.1187 74.8047 28.1203 74.8439Z" fill="#263238"/>
<path d="M20.898 82.5302C20.8438 82.5183 20.7912 82.5002 20.741 82.4762C20.5977 82.4193 20.4577 82.354 20.3218 82.2807C19.8752 82.034 19.448 81.7529 19.0439 81.4399C18.5729 81.0807 18.1395 80.7533 17.8161 80.5372C17.4927 80.321 17.2839 80.2002 17.2902 80.1875C17.3451 80.2043 17.3978 80.2278 17.4472 80.2574C17.5461 80.3051 17.6827 80.3846 17.8491 80.4879C18.1835 80.6929 18.62 81.014 19.0941 81.3732C19.4952 81.6838 19.9146 81.9694 20.3501 82.2282C20.6814 82.4221 20.9027 82.5159 20.898 82.5302Z" fill="#263238"/>
<path d="M34.0857 83.6283C34.0335 83.6345 33.9808 83.6345 33.9287 83.6283H33.4906L32.0509 83.6172L30.6097 83.6251H30.1716C30.1191 83.6278 30.0665 83.6246 30.0146 83.6156C30.0656 83.6002 30.1185 83.5921 30.1716 83.5918C30.2753 83.5838 30.4244 83.5727 30.6097 83.5647C30.9771 83.5457 31.4889 83.5298 32.0525 83.5314C32.6161 83.5329 33.1264 83.5473 33.4953 83.5679C33.679 83.5774 33.8282 83.587 33.9318 83.5965C33.9843 83.5998 34.0361 83.6105 34.0857 83.6283Z" fill="#263238"/>
<path d="M23.3628 42.0047C23.0228 42.0513 22.6767 41.9961 22.3674 41.8457C22.2143 41.77 22.0846 41.6532 21.9924 41.508C21.9002 41.3629 21.8491 41.1949 21.8446 41.0225C21.8446 40.8206 21.9372 40.6219 21.9043 40.4233C21.8713 40.2246 21.7253 40.0657 21.6311 39.8877C21.5192 39.6604 21.4874 39.4012 21.5411 39.1531C21.5948 38.9051 21.7307 38.6831 21.9262 38.524C22.1319 38.3651 22.3972 38.2824 22.5668 38.0869C22.7709 37.8565 22.8039 37.5227 22.9279 37.2398C23.02 37.036 23.1601 36.8582 23.3358 36.7219C23.5115 36.5855 23.7175 36.4949 23.9358 36.4578C24.1776 36.4197 24.4288 36.4467 24.6596 36.3688C24.8502 36.2854 25.03 36.1787 25.195 36.051C25.7412 35.6935 26.4042 35.5674 27.0413 35.6997C27.3205 35.7496 27.5797 35.8792 27.7886 36.0732C28.0131 36.2989 28.302 36.55 28.3837 36.852C28.4794 37.2175 28.3617 37.6753 28.2659 38.0392C28.1701 38.4032 27.8797 38.737 27.5092 38.7815" fill="#263238"/>
<path d="M23.2852 44.8145L26.2336 44.8559C26.2839 44.5126 26.3906 43.1712 26.3906 43.1712C26.3906 43.1712 27.6262 43.0965 27.7549 41.8647C27.8837 40.633 27.9371 37.7848 27.9371 37.7848C27.2732 37.4174 26.5243 37.2361 25.768 37.2599C25.0117 37.2836 24.2754 37.5115 23.6353 37.9199L23.4422 38.0439L23.2852 44.8145Z" fill="#FFBE9D"/>
<path d="M26.4824 41.0626C26.5728 41.0369 26.6666 41.0262 26.7603 41.0308C26.8043 41.0308 26.8388 41.0228 26.8451 40.999C26.8496 40.955 26.8426 40.9106 26.8247 40.8703L26.7242 40.5127C26.6267 40.2086 26.5588 39.8956 26.5217 39.5781C26.6495 39.8705 26.7484 40.1751 26.8168 40.4872C26.8498 40.6112 26.8796 40.7288 26.9095 40.8464C26.9311 40.9065 26.9311 40.9723 26.9095 41.0324C26.9015 41.0489 26.8899 41.0632 26.8754 41.0743C26.8609 41.0854 26.8441 41.0928 26.8263 41.096C26.8013 41.0998 26.7759 41.0998 26.7509 41.096C26.6602 41.1006 26.5693 41.0893 26.4824 41.0626Z" fill="#263238"/>
<path d="M26.3877 43.154C25.8245 43.1115 25.2867 42.9001 24.8428 42.5469C24.8428 42.5469 25.1364 43.4687 26.361 43.4735L26.3877 43.154Z" fill="#EB996E"/>
<path d="M23.4522 39.3403C23.427 39.3292 22.6185 39.1957 22.6672 40.1699C22.7158 41.1442 23.6688 40.7755 23.6704 40.7469C23.672 40.7182 23.4522 39.3403 23.4522 39.3403Z" fill="#FFBE9D"/>
<path d="M23.3627 40.4184C23.3627 40.4184 23.3454 40.4311 23.3187 40.4454C23.2796 40.4645 23.2347 40.4679 23.1931 40.4549C23.1293 40.4178 23.0763 40.3644 23.0394 40.2999C23.0024 40.2355 22.9829 40.1623 22.9828 40.0878C22.9765 40.004 22.9888 39.9198 23.0189 39.8415C23.0266 39.8109 23.0415 39.7827 23.0623 39.7592C23.083 39.7357 23.1091 39.7176 23.1382 39.7064C23.1573 39.7005 23.1778 39.7014 23.1964 39.7089C23.2149 39.7164 23.2304 39.7301 23.2402 39.7477C23.2544 39.7747 23.2402 39.7938 23.2544 39.7954C23.2685 39.797 23.2732 39.7779 23.2638 39.7381C23.2573 39.7143 23.2429 39.6936 23.223 39.6793C23.2098 39.6695 23.1948 39.6626 23.1788 39.659C23.1629 39.6554 23.1463 39.6553 23.1303 39.6587C23.0911 39.668 23.0549 39.6876 23.0254 39.7155C22.9959 39.7433 22.9742 39.7786 22.9624 39.8176C22.9251 39.9041 22.9094 39.9985 22.9168 40.0926C22.9157 40.1795 22.9402 40.2648 22.9871 40.3375C23.0341 40.4103 23.1015 40.4672 23.1806 40.501C23.2075 40.5083 23.2357 40.5091 23.263 40.5033C23.2903 40.4975 23.3158 40.4853 23.3376 40.4677C23.3627 40.4422 23.3627 40.42 23.3627 40.4184Z" fill="#EB996E"/>
<path d="M25.3897 39.3178C25.3756 39.3003 25.3991 39.2542 25.4619 39.205C25.5455 39.145 25.6439 39.1098 25.7461 39.1032C25.8483 39.0951 25.9507 39.1166 26.0413 39.1652C26.1103 39.205 26.1386 39.2479 26.1276 39.2654C26.1041 39.3067 25.9486 39.2526 25.7571 39.2654C25.5655 39.2781 25.418 39.3544 25.3897 39.3178Z" fill="#263238"/>
<path d="M27.0962 39.3237C27.0868 39.2808 27.2186 39.2172 27.3913 39.2188C27.564 39.2204 27.6959 39.2824 27.6881 39.3269C27.6802 39.3714 27.5483 39.3841 27.3913 39.3841C27.2343 39.3841 27.104 39.3698 27.0962 39.3237Z" fill="#263238"/>
<path d="M23.1455 38.3442C23.1926 38.643 23.2387 38.9423 23.2837 39.2422C23.2915 39.385 23.3401 39.5225 23.4234 39.6379C23.5804 39.8144 23.8661 39.7969 24.0671 39.6809C24.3607 39.5076 24.5224 39.1754 24.6464 38.8544C24.7705 38.5333 24.8804 38.1948 25.1174 37.9501C25.2879 38.1308 25.5104 38.2523 25.7531 38.2974C25.9959 38.3425 26.2465 38.3088 26.4692 38.2012C26.6654 38.1026 26.8287 37.9469 27.0171 37.8324C27.1071 37.768 27.2106 37.7253 27.3194 37.7077C27.4283 37.69 27.5397 37.6979 27.6451 37.7307C27.7566 37.7784 27.8571 37.8706 27.9764 37.8642C28.0222 37.8603 28.0661 37.8445 28.1041 37.8183C28.1421 37.7921 28.1727 37.7565 28.1931 37.7148C28.2322 37.6301 28.2458 37.5356 28.2323 37.4431C28.1931 37.0998 27.9183 36.8264 27.6043 36.6738C27.1663 36.4561 26.6623 36.4259 26.1725 36.4243C25.708 36.4104 25.2437 36.4568 24.7909 36.5626C24.3362 36.6709 23.9226 36.9112 23.6008 37.2539C23.4423 37.4267 23.3243 37.6335 23.2558 37.8589C23.1873 38.0843 23.17 38.3225 23.2052 38.5556" fill="#263238"/>
<path d="M26.985 37.3575C27.0492 37.6739 27.2148 37.9599 27.456 38.1713C27.5647 38.281 27.7093 38.3466 27.8626 38.3556C27.9857 38.3408 28.099 38.2805 28.181 38.1864C28.2629 38.0923 28.3078 37.9709 28.3069 37.8455C28.2959 37.5925 28.1884 37.3538 28.007 37.1795C27.8521 36.9939 27.632 36.8764 27.3932 36.8521C27.2747 36.8464 27.1585 36.886 27.0677 36.9632C26.9769 37.0404 26.9182 37.1494 26.9033 37.2685" fill="#263238"/>
<path d="M25.5605 39.7779C25.5605 39.82 25.5771 39.8604 25.6065 39.8902C25.636 39.9201 25.6759 39.9368 25.7175 39.9368C25.7373 39.9381 25.7571 39.9353 25.7758 39.9287C25.7945 39.9221 25.8117 39.9117 25.8264 39.8982C25.841 39.8847 25.8528 39.8684 25.8611 39.8501C25.8694 39.8319 25.874 39.8122 25.8745 39.7922C25.8745 39.75 25.858 39.7096 25.8286 39.6798C25.7991 39.65 25.7592 39.6332 25.7175 39.6332C25.6977 39.6317 25.6778 39.6343 25.659 39.6409C25.6402 39.6474 25.623 39.6578 25.6083 39.6713C25.5936 39.6848 25.5817 39.7013 25.5735 39.7196C25.5653 39.7379 25.5609 39.7578 25.5605 39.7779Z" fill="#263238"/>
<path d="M25.313 39.6076C25.3334 39.6283 25.448 39.5377 25.6144 39.5345C25.7809 39.5313 25.9033 39.614 25.9206 39.5917C25.9379 39.5695 25.9096 39.5472 25.8547 39.5091C25.7826 39.4606 25.6976 39.4356 25.6111 39.4376C25.5247 39.4396 25.4409 39.4684 25.3711 39.5202C25.3209 39.5631 25.3036 39.6076 25.313 39.6076Z" fill="#263238"/>
<path d="M27.2656 39.7696C27.2656 39.8118 27.2822 39.8522 27.3116 39.882C27.3411 39.9118 27.381 39.9286 27.4226 39.9286C27.4424 39.9301 27.4624 39.9275 27.4811 39.9209C27.4999 39.9144 27.5172 39.904 27.5319 39.8905C27.5466 39.877 27.5584 39.8605 27.5666 39.8422C27.5748 39.8239 27.5793 39.8041 27.5796 39.7839C27.5796 39.7418 27.5631 39.7014 27.5336 39.6716C27.5042 39.6417 27.4643 39.625 27.4226 39.625C27.3833 39.6248 27.3454 39.6396 27.3163 39.6664C27.2873 39.6932 27.2692 39.73 27.2656 39.7696Z" fill="#263238"/>
<path d="M27.0454 39.6312C27.0642 39.6519 27.1804 39.5613 27.3468 39.5581C27.5133 39.5549 27.6357 39.6376 27.6608 39.6169C27.686 39.5962 27.6498 39.5708 27.5949 39.5327C27.5226 39.4838 27.4372 39.4588 27.3503 39.4611C27.2635 39.4634 27.1794 39.4928 27.1098 39.5454C27.0532 39.5851 27.036 39.6233 27.0454 39.6312Z" fill="#263238"/>
<path d="M26.4431 41.5597C26.4431 41.5709 26.4023 41.5899 26.327 41.5852C26.2289 41.5778 26.137 41.5336 26.0695 41.4612C26.0012 41.3891 25.9615 41.294 25.958 41.1942C25.958 41.1195 25.9784 41.0766 25.9878 41.0782C25.9973 41.0798 25.9878 41.2609 26.1276 41.404C26.2673 41.547 26.4447 41.5375 26.4431 41.5597Z" fill="#263238"/>
<path d="M26.9989 47.9234L29.4497 47.0938C29.4497 47.0938 31.1547 51.18 31.5943 51.2261C34.0263 51.4502 36.6293 50.6348 37.5415 50.3122C37.6341 50.2057 37.7409 50.0801 37.8555 49.9244C37.9559 49.7912 38.0334 49.6418 38.0847 49.4825C38.1549 49.2865 38.1987 49.0817 38.215 48.8738C38.2099 48.8334 38.2175 48.7923 38.2368 48.7565C38.2561 48.7207 38.286 48.6919 38.3224 48.6743C38.3587 48.6567 38.3996 48.6511 38.4392 48.6584C38.4789 48.6657 38.5153 48.6855 38.5432 48.7149C38.6484 48.8532 38.675 49.3808 38.4348 49.9482C38.1946 50.5156 39.044 50.0642 39.3564 49.9053C39.6689 49.7464 40.6595 49.3014 40.7836 49.3602C40.9657 49.446 40.9092 49.659 40.5936 49.81C40.278 49.9609 39.3611 50.4838 39.4522 50.646C39.5433 50.8081 41.1227 49.9768 41.1227 49.9768C41.1227 49.9768 41.4367 49.7432 41.5434 49.9276C41.7444 50.2613 39.9986 51.0195 39.8321 51.0878C39.7144 51.1355 39.807 51.3167 39.9295 51.2579C40.0519 51.199 41.4869 50.3917 41.6942 50.7302C41.8512 50.9893 40.2655 51.3659 40.0614 51.7013C39.8573 52.0366 41.2357 51.2912 41.3786 51.5423C41.4304 51.6377 41.4571 51.7156 40.603 52.0192C39.9779 52.2179 39.3427 52.3823 38.7002 52.5119C38.7002 52.5119 29.9082 56.4948 28.3382 52.6517C26.7258 48.7546 26.9989 47.9234 26.9989 47.9234Z" fill="#EB996E"/>
<path d="M30.2704 48.4426C29.2891 46.1174 28.0048 45.2067 27.3266 44.8698C27.089 44.753 26.8305 44.686 26.5667 44.6727L26.4851 44.2722L23.2352 43.9766L23.1551 44.4852L22.6841 44.4581C22.6841 44.4581 19.8832 44.7426 19.877 48.0278C19.877 49.5647 20.6949 51.0603 20.9838 51.793C21.1644 53.3251 20.5128 56.1049 20.5332 56.782L28.4978 57.3541L28.8244 52.3175L28.7506 51.8407L31.3725 51.0269L30.2704 48.4426Z" fill="#EBEBEB"/>
<path d="M47.9051 37.3272C46.7555 35.8858 45.2095 34.8218 43.4627 34.2696C41.7159 33.7174 39.8466 33.7019 38.091 34.2249C36.3355 34.748 34.7725 35.7862 33.5997 37.2082C32.4268 38.6303 31.6967 40.3724 31.5017 42.2144C31.3443 43.7119 31.5461 45.2258 32.09 46.6275C32.6339 48.0292 33.5039 49.2774 34.626 50.2661L26.5264 59.8896L27.6882 60.8925L35.8522 51.1879C37.0244 51.9207 38.3443 52.3775 39.7144 52.5245C40.0471 52.5607 40.3814 52.5787 40.716 52.5786C42.4607 52.5727 44.1683 52.0682 45.6421 51.123C47.116 50.1779 48.2962 48.8306 49.0469 47.2363C49.7976 45.642 50.0883 43.8655 49.8854 42.1113C49.6826 40.3571 48.9945 38.6965 47.9004 37.3208L47.9051 37.3272ZM48.3855 44.0406C48.1953 45.8394 47.3949 47.5158 46.1207 48.7842C44.8465 50.0525 43.1772 50.8344 41.3974 50.9966C39.6175 51.1588 37.8372 50.6912 36.3597 49.6735C34.8822 48.6559 33.799 47.1511 33.2946 45.4156C32.7902 43.6801 32.8958 41.8212 33.5935 40.1557C34.2912 38.4902 35.5377 37.1211 37.1207 36.2816C38.7037 35.4422 40.5253 35.1844 42.275 35.5521C44.0248 35.9198 45.5944 36.8903 46.7166 38.2982C47.356 39.0962 47.8327 40.0145 48.1192 41.0002C48.4056 41.9859 48.4961 43.0193 48.3855 44.0406Z" fill="#263238"/>
<path d="M47.253 36.6655C46.1038 35.2234 44.5579 34.1587 42.8108 33.606C41.0638 33.0534 39.1941 33.0377 37.4383 33.5608C35.6824 34.084 34.1192 35.1225 32.9464 36.5451C31.7737 37.9676 31.044 39.7103 30.8496 41.5527C30.692 43.0503 30.8937 44.5642 31.4376 45.966C31.9815 47.3677 32.8516 48.6159 33.9739 49.6044L25.7754 59.2995L27.0173 60.3055L35.2048 50.5199C36.3774 51.252 37.6971 51.7087 39.067 51.8565C39.3998 51.8919 39.7341 51.9099 40.0687 51.9105C41.8133 51.9047 43.5209 51.4001 44.9948 50.455C46.4686 49.5099 47.6488 48.1626 48.3995 46.5683C49.1502 44.974 49.4409 43.1974 49.2381 41.4432C49.0352 39.689 48.3471 38.0285 47.253 36.6528V36.6655ZM47.7334 43.3789C47.5435 45.1786 46.7429 46.8559 45.4683 48.125C44.1936 49.3942 42.5237 50.1766 40.743 50.339C38.9623 50.5014 37.1811 50.0337 35.7029 49.0156C34.2247 47.9976 33.1409 46.4921 32.6363 44.7558C32.1316 43.0194 32.2374 41.1597 32.9354 39.4934C33.6335 37.8272 34.8807 36.4575 36.4645 35.6178C38.0483 34.7781 39.8708 34.5204 41.6213 34.8885C43.3718 35.2566 44.9421 36.2278 46.0645 37.6366C46.7037 38.4346 47.1803 39.353 47.4667 40.3386C47.7532 41.3243 47.8438 42.3576 47.7334 43.3789Z" fill="#455A64"/>
<path d="M35.8522 47.621C35.8289 47.601 35.8084 47.578 35.7909 47.5527C35.7533 47.505 35.6952 47.4367 35.6339 47.3429C35.443 47.081 35.2704 46.8059 35.1174 46.5196C34.6059 45.5737 34.2951 44.5301 34.2051 43.4556C34.1151 42.3811 34.2477 41.2994 34.5946 40.2798C34.6972 39.9721 34.821 39.672 34.9651 39.3818C35.0138 39.2769 35.0593 39.2006 35.0891 39.1482C35.1012 39.1198 35.1177 39.0935 35.1378 39.0703C35.1288 39.0999 35.1172 39.1286 35.1033 39.1561C35.0797 39.2118 35.0389 39.2896 34.9934 39.3945C34.8616 39.6892 34.7462 39.9911 34.648 40.2989C34.3195 41.3146 34.1964 42.3869 34.2859 43.4518C34.3755 44.5167 34.6759 45.5525 35.1692 46.4974C35.3164 46.7838 35.48 47.0614 35.6591 47.3286C35.7203 47.4255 35.7737 47.4875 35.8066 47.5463C35.8243 47.5696 35.8395 47.5946 35.8522 47.621Z" fill="#263238"/>
<path d="M36.2368 38.0032C36.251 38.0223 36.1568 38.1113 36.0626 38.2368C35.9684 38.3624 35.9056 38.4752 35.8836 38.4673C35.8616 38.4593 35.893 38.3211 35.9966 38.186C36.1002 38.0509 36.2258 37.9841 36.2368 38.0032Z" fill="#263238"/>
<path d="M28.0977 46.6875C28.1229 46.7588 28.1418 46.8322 28.1542 46.9068C28.1856 47.0483 28.2264 47.2549 28.2751 47.5124C28.3693 48.0241 28.4839 48.7362 28.5891 49.5261C28.6943 50.316 28.7461 51.0344 28.7759 51.5541C28.7916 51.8147 28.801 52.0309 28.8042 52.1708C28.8116 52.2463 28.8116 52.3225 28.8042 52.398C28.7881 52.3244 28.7787 52.2493 28.7759 52.1739C28.7618 52.015 28.7429 51.8068 28.7209 51.5589C28.6754 51.0407 28.6063 50.3239 28.5106 49.5356C28.4148 48.7473 28.308 48.0369 28.228 47.5219C28.1903 47.2771 28.1589 47.0721 28.1338 46.9116C28.1138 46.8384 28.1017 46.7633 28.0977 46.6875Z" fill="#263238"/>
<path d="M32.4291 54.498C32.4291 54.498 23.6371 58.4888 22.0671 54.6458C20.4563 50.7312 20.7294 49.9 20.7294 49.9L23.1802 49.0703C23.1802 49.0703 24.8868 53.1565 25.3248 53.2026C27.7583 53.4283 30.3614 52.6114 31.2736 52.2888C31.3662 52.1839 31.4714 52.0567 31.5876 51.9025C31.7037 51.7484 31.7948 51.5847 31.9016 51.4464C32.1339 51.1524 32.3176 51.1031 32.4197 50.9871C32.6614 50.7089 32.8907 50.9124 32.7776 51.0618C32.6646 51.2112 32.4118 51.3637 32.1716 51.9327C31.9314 52.5017 32.787 52.2204 33.1262 52.1314C33.4998 52.0313 34.2016 51.7547 34.2016 51.7547C34.2189 51.9216 34.0321 52.257 33.7165 52.408C33.5455 52.4922 33.3699 52.5665 33.1905 52.6305C33.1905 52.6305 33.8389 52.5494 33.8562 52.7004C33.8735 52.8514 33.6647 53.9576 32.9739 54.2897L32.4291 54.498Z" fill="#FFBE9D"/>
<path d="M22.6039 45.5078L24.1834 50.3347L20.7294 51.7174C20.7294 51.7174 18.927 46.9764 21.2098 45.8161L22.6039 45.5078Z" fill="#EBEBEB"/>
<path d="M24.4127 50.149C24.4127 50.149 24.3938 50.1363 24.3656 50.1045C24.3264 50.0547 24.2918 50.0015 24.262 49.9455C24.1658 49.7391 24.0825 49.5267 24.0123 49.3098C23.8192 48.7694 23.557 48.0193 23.2729 47.1912L22.8756 46.0214C22.7532 45.6622 22.6574 45.3285 22.4769 45.1139C22.4096 45.0268 22.3239 44.956 22.2261 44.9068C22.1283 44.8576 22.0209 44.8311 21.9117 44.8294C21.831 44.8347 21.7519 44.8541 21.6777 44.8866C21.6777 44.8866 21.6934 44.8692 21.7311 44.8485C21.7866 44.819 21.8476 44.8017 21.9101 44.7976C22.0263 44.7923 22.1421 44.8147 22.2482 44.8631C22.3543 44.9114 22.4477 44.9842 22.5208 45.0758C22.7186 45.2999 22.8207 45.6416 22.9463 45.996C23.0719 46.3504 23.2069 46.7494 23.3498 47.1642C23.6355 47.9922 23.8883 48.7535 24.0673 49.2907C24.1583 49.5641 24.2243 49.7882 24.2902 49.9265C24.3562 50.0647 24.419 50.1442 24.4127 50.149Z" fill="#263238"/>
<path d="M24.3386 50.2344C24.2989 50.2675 24.2551 50.2953 24.2083 50.317C24.1219 50.3663 23.9947 50.433 23.8362 50.5125C23.5222 50.6714 23.0747 50.8781 22.5802 51.0831C22.0856 51.2881 21.6162 51.4518 21.2786 51.5599C21.1107 51.6139 20.9646 51.6553 20.8767 51.6807C20.8262 51.6991 20.7733 51.7103 20.7197 51.7141C20.8928 51.6324 21.0711 51.5628 21.2535 51.5059C21.5864 51.3835 22.0385 51.2118 22.5425 51.0084C23.0465 50.805 23.4845 50.6063 23.8111 50.4601C23.9821 50.3739 24.1583 50.2985 24.3386 50.2344Z" fill="#263238"/>
<path d="M21.2951 51.5387C21.1524 51.3222 21.0571 51.0772 21.0156 50.8203C21.0982 50.9213 21.1586 51.0388 21.193 51.1652C21.2537 51.2806 21.2885 51.4081 21.2951 51.5387Z" fill="#263238"/>
<path d="M22.0248 51.2569C22.0044 51.268 21.9102 51.1282 21.8411 50.939C21.7865 50.8245 21.7648 50.6967 21.7783 50.5703C21.8425 50.676 21.8897 50.7913 21.9181 50.912C21.9703 51.021 22.0063 51.1372 22.0248 51.2569Z" fill="#263238"/>
<path d="M22.7897 50.9183C22.6944 50.8288 22.6263 50.7135 22.5935 50.5862C22.5362 50.4674 22.5133 50.3345 22.5275 50.2031C22.5911 50.3135 22.6392 50.4322 22.6704 50.556C22.7263 50.6707 22.7664 50.7926 22.7897 50.9183Z" fill="#263238"/>
<path d="M23.6072 50.5816C23.5315 50.4703 23.4782 50.345 23.4502 50.2129C23.398 50.0887 23.3708 49.9553 23.3701 49.8203C23.4475 49.9301 23.501 50.0552 23.5271 50.1875C23.5807 50.3117 23.608 50.446 23.6072 50.5816Z" fill="#263238"/>
<path d="M31.4357 50.9766C31.0022 51.1621 30.5581 51.3213 30.1059 51.4534C29.662 51.6108 29.2097 51.7424 28.751 51.8475C29.1848 51.6627 29.6288 51.5035 30.0808 51.3707C30.5245 51.2128 30.9769 51.0812 31.4357 50.9766Z" fill="#263238"/>
<path d="M29.3284 51.5396C29.3064 51.5491 29.2374 51.4315 29.1714 51.2789C29.1055 51.1264 29.0725 50.9945 29.0929 50.9849C29.1133 50.9754 29.1824 51.093 29.2499 51.2472C29.3174 51.4013 29.352 51.5253 29.3284 51.5396Z" fill="#263238"/>
<path d="M30.0071 51.3831C29.9867 51.3831 29.9129 51.2528 29.8627 51.0652C29.8196 50.9552 29.8076 50.8352 29.8282 50.7188C29.8517 50.7188 29.8925 50.8634 29.9412 51.0366C29.9852 51.1467 30.0076 51.2644 30.0071 51.3831Z" fill="#263238"/>
<path d="M30.7411 51.149C30.6429 50.9364 30.5961 50.7033 30.6045 50.4688C30.665 50.5697 30.702 50.6833 30.7128 50.8009C30.7486 50.9132 30.7582 51.0323 30.7411 51.149Z" fill="#263238"/>
<path d="M23.5544 44.4425C23.5309 44.4425 23.5199 44.3535 23.5262 44.2454C23.5324 44.1374 23.5591 44.0531 23.5811 44.0547C23.6031 44.0563 23.6156 44.1453 23.6078 44.2518C23.5999 44.3583 23.5764 44.4441 23.5544 44.4425Z" fill="#263238"/>
<path d="M24.2702 44.4816C24.2467 44.4816 24.2263 44.3957 24.2215 44.2892C24.2168 44.1828 24.2325 44.0938 24.2545 44.0938C24.2765 44.0938 24.2985 44.178 24.3032 44.2861C24.3079 44.3941 24.2922 44.48 24.2702 44.4816Z" fill="#263238"/>
<path d="M24.8225 44.5818C24.8005 44.5818 24.7832 44.4912 24.7832 44.3799C24.7832 44.2687 24.8036 44.1797 24.8256 44.1797C24.8476 44.1797 24.8664 44.2703 24.8648 44.3799C24.8633 44.4896 24.846 44.5818 24.8225 44.5818Z" fill="#263238"/>
<path d="M25.5702 44.6659C25.5498 44.6659 25.5043 44.569 25.5012 44.4323C25.498 44.2956 25.5357 44.1907 25.5561 44.1955C25.5765 44.2002 25.5781 44.3035 25.5828 44.4291C25.5875 44.5547 25.5938 44.6596 25.5702 44.6659Z" fill="#263238"/>
<path d="M26.1891 44.6658C26.1656 44.6658 26.1357 44.5656 26.12 44.4353C26.1043 44.305 26.1106 44.1969 26.1326 44.1953C26.1546 44.1937 26.186 44.2955 26.2017 44.4258C26.2174 44.5561 26.2095 44.6626 26.1891 44.6658Z" fill="#263238"/>
</svg>
