<svg width="104" height="104" viewBox="0 0 104 104" fill="none" xmlns="http://www.w3.org/2000/svg">
<path d="M11.3537 62.3656L9.27376 62.409L8.21637 62.4283C7.86443 62.4283 7.50933 62.4283 7.1558 62.4283H7.08605V62.3575L7.07812 60.5586V60.4766H7.15739L9.25632 60.4862C9.95544 60.4862 10.6561 60.5039 11.3553 60.5119H11.3996V60.5553C11.3996 60.8608 11.387 61.163 11.379 61.4637L11.3537 62.3656ZM11.3537 62.3656L11.3315 61.4556C11.3315 61.1566 11.314 60.8608 11.3109 60.5666L11.3537 60.61C10.6546 60.61 9.95386 60.6357 9.25474 60.6357L7.1558 60.647L7.23507 60.5666L7.22556 62.3656L7.1558 62.2932C7.5014 62.2932 7.84699 62.2932 8.19418 62.2932L9.23572 62.3125L11.3537 62.3656Z" fill="#EBEBEB"/>
<path d="M39.3133 74.5825L37.2334 74.6275L36.1775 74.6452C35.824 74.6532 35.4689 74.6452 35.1154 74.6549H35.0456V74.5825L35.0361 72.7835V72.7031H35.1154L37.2143 72.7144C37.915 72.7144 38.6142 72.7321 39.3133 72.7401H39.3577V72.7835C39.3577 73.089 39.3434 73.3928 39.3355 73.6935L39.3133 74.5825ZM39.3133 74.5825L39.2911 73.6742C39.2911 73.3751 39.2736 73.0777 39.2705 72.7835L39.3133 72.8285C38.6142 72.8366 37.915 72.8526 37.2143 72.8542L35.1154 72.8639L35.1947 72.7835L35.1867 74.5825L35.1154 74.5118C35.461 74.5118 35.8066 74.5118 36.1538 74.5118L37.1969 74.5295L39.3133 74.5825Z" fill="#EBEBEB"/>
<path d="M9.01237 64.6218L6.93088 64.6652L5.87507 64.6845C5.52313 64.6845 5.16802 64.6845 4.8145 64.6925H4.74316V64.6138V62.8164V62.7344H4.82243L6.92136 62.744C7.62048 62.744 8.3196 62.7617 9.0203 62.7697H9.0631V62.8131C9.0631 63.117 9.05042 63.4209 9.04249 63.7215L9.01237 64.6218ZM9.01237 64.6218L8.99018 63.7118C8.99018 63.4128 8.97115 63.117 8.96957 62.8228L9.01237 62.8662C8.31167 62.8742 7.61255 62.8919 6.91344 62.8919L4.8145 62.9032L4.89377 62.8228L4.88109 64.6138L4.81133 64.543C5.15693 64.543 5.50252 64.543 5.84812 64.543L6.89124 64.5623L9.01237 64.6218Z" fill="#EBEBEB"/>
<path d="M13.6949 62.8281H9.49707V64.6271H13.6949V62.8281Z" fill="#EBEBEB"/>
<path d="M49.5144 56.5529L47.4329 56.5979L46.3771 56.6156C46.0252 56.6236 45.6701 56.6156 45.3166 56.6236H45.2452V56.5513L45.2373 54.7523V54.6719H45.3182L47.4171 54.6815C48.1162 54.6815 48.8153 54.6992 49.516 54.7089H49.5588V54.7523C49.5588 55.0577 49.5446 55.3616 49.5382 55.6606L49.5144 56.5529ZM49.5144 56.5529L49.4907 55.6429C49.4907 55.3439 49.4732 55.0481 49.47 54.7539L49.5144 54.7973C48.8137 54.8053 48.1146 54.823 47.4155 54.8246L45.3166 54.8342L45.3958 54.7539L45.3863 56.5529L45.3166 56.4805C45.6622 56.4805 46.0062 56.4805 46.3534 56.4902L47.3965 56.5078L49.5144 56.5529Z" fill="#EBEBEB"/>
<path d="M47.1715 57.0234H42.9736V58.8224H47.1715V57.0234Z" fill="#EBEBEB"/>
<path d="M51.8562 58.8265L49.7747 58.8715L48.7189 58.8892C48.367 58.8892 48.0119 58.8892 47.6584 58.8892H47.587V58.8169L47.5791 57.0179V56.9375H47.6584L49.7573 56.9471C50.4564 56.9471 51.1555 56.9648 51.8562 56.9745H51.899V57.0179C51.899 57.3233 51.8864 57.6256 51.8784 57.9262L51.8562 58.8265ZM51.8562 58.8265L51.834 57.9166C51.8261 57.6175 51.815 57.3217 51.8134 57.0275L51.8562 57.0709C51.1555 57.0709 50.4564 57.0967 49.7573 57.0967L47.6584 57.1079L47.7376 57.0275L47.7281 58.8265L47.6584 58.7542C48.004 58.7542 48.3496 58.7542 48.6952 58.7638L49.7383 58.7815L51.8562 58.8265Z" fill="#EBEBEB"/>
<path d="M99.9435 57.0356L97.8636 57.0806L96.8062 57.0983C96.4543 57.0983 96.0992 57.0983 95.7456 57.108H95.6759V57.0356L95.668 55.2366V55.1562H95.7472L97.8462 55.1675C98.5453 55.1675 99.246 55.1852 99.9451 55.1932H99.9895V55.2366C99.9895 55.5421 99.9768 55.8459 99.9689 56.1466L99.9435 57.0356ZM99.9435 57.0356L99.9213 56.1273C99.9213 55.8283 99.9039 55.5308 99.9007 55.2366L99.9435 55.2816C99.2444 55.2897 98.5437 55.3058 97.8446 55.3074L95.7456 55.317L95.8249 55.2366V57.0356L95.7536 56.9649C96.0992 56.9649 96.4448 56.9649 96.7919 56.9729L97.8335 56.9906L99.9435 57.0356Z" fill="#EBEBEB"/>
<path d="M99.9435 31.6059L97.8636 31.651L96.8062 31.6686C96.4543 31.6686 96.0992 31.6686 95.7456 31.6783H95.6759V31.6059L95.668 29.8069V29.7266H95.7472L97.8462 29.7378C98.5453 29.7378 99.246 29.7555 99.9451 29.7635H99.9895V29.8069C99.9895 30.1124 99.9768 30.4163 99.9689 30.7169L99.9435 31.6059ZM99.9435 31.6059L99.9213 30.704C99.9213 30.405 99.9039 30.1076 99.9007 29.8134L99.9435 29.8584C99.2444 29.8584 98.5437 29.8825 97.8446 29.8841L95.7456 29.8938L95.8249 29.8134V31.6124L95.7536 31.5416C96.0992 31.5416 96.4448 31.5416 96.7919 31.5416L97.8335 31.5593L99.9435 31.6059Z" fill="#EBEBEB"/>
<path d="M102.285 32.0781H98.0869V33.8771H102.285V32.0781Z" fill="#EBEBEB"/>
<path d="M7.42655 31.6016L5.34505 31.6466L4.28924 31.6627C3.93731 31.6627 3.5822 31.6627 3.22868 31.6627H3.15734V31.5903L3.14941 29.7929V29.7109H3.22868L5.32761 29.7334C6.02673 29.7334 6.72585 29.7511 7.42655 29.7592H7.46935V29.8026C7.46935 30.1064 7.45667 30.4103 7.44874 30.7109L7.42655 31.6016ZM7.42655 31.6016L7.40435 30.6981C7.40435 30.399 7.38533 30.1032 7.38375 29.809L7.42655 29.8524C6.72585 29.8524 6.02673 29.8781 5.32761 29.8781L3.22868 29.8878L3.30794 29.809L3.29526 31.6016L3.22551 31.5308C3.5711 31.5308 3.9167 31.5308 4.26229 31.5308L5.30542 31.5501L7.42655 31.6016Z" fill="#EBEBEB"/>
<path d="M5.57015 85.5497L7.68652 85.5046L8.72965 85.4869C9.07683 85.4789 9.42242 85.4869 9.76802 85.4773L9.69668 85.5497V83.7507L9.77594 83.831L7.67701 83.8198C6.97789 83.8198 6.27719 83.8021 5.57807 83.7941L5.62088 83.7507C5.62088 84.0449 5.60819 84.3407 5.60027 84.6397L5.57015 85.5497ZM5.57015 85.5497L5.54795 84.659C5.54795 84.3584 5.53051 84.0561 5.52734 83.7507V83.7072H5.57173C6.27085 83.6992 6.97155 83.6831 7.67067 83.6815L9.7696 83.6719H9.84887V83.7523V85.5513V85.6236H9.77911C9.42559 85.6236 9.07048 85.6236 8.71855 85.6156L7.66115 85.5979L5.57015 85.5497Z" fill="#EBEBEB"/>
<path d="M3.22889 87.7969H7.42676V85.9979H3.22889V87.7969Z" fill="#EBEBEB"/>
<path d="M98.0868 85.5513L100.205 85.5062L101.248 85.4886C101.593 85.4805 101.939 85.4886 102.285 85.4789L102.215 85.5513L102.205 83.7603L102.285 83.8407L100.186 83.831C99.4866 83.831 98.7875 83.8117 98.0868 83.8037L98.1296 83.7603C98.1296 84.0545 98.1169 84.3503 98.1089 84.651L98.0868 85.5513ZM98.0868 85.5513L98.0646 84.6606C98.0646 84.3616 98.0471 84.0577 98.0439 83.7523V83.7088H98.0868C98.7875 83.7008 99.4866 83.6831 100.186 83.6815L102.285 83.6719H102.364V83.7523V85.5513V85.6236H102.293C101.939 85.6236 101.584 85.6236 101.232 85.6156L100.176 85.5979L98.0868 85.5513Z" fill="#EBEBEB"/>
<path d="M64.616 75.4395L66.6975 75.3945L67.7533 75.3768C68.1053 75.3688 68.4604 75.3768 68.8139 75.3672H68.8852V75.4395L68.8932 77.2385V77.3189H68.8123L66.715 77.3173C66.0159 77.3173 65.3167 77.298 64.616 77.29H64.5732V77.2466C64.5732 76.9411 64.5875 76.6373 64.5939 76.3382L64.616 75.4395ZM64.616 75.4395L64.6462 76.3527C64.6462 76.6533 64.6636 76.9491 64.6668 77.2433L64.6224 77.1999C65.3231 77.1919 66.0222 77.1742 66.7213 77.1726L68.8202 77.163L68.741 77.2433L68.7505 75.4444L68.8202 75.5167C68.4747 75.5167 68.1306 75.5167 67.7835 75.5071L66.7403 75.4894L64.616 75.4395Z" fill="#EBEBEB"/>
<path d="M66.9594 74.9766H71.1572V73.1776H66.9594V74.9766Z" fill="#EBEBEB"/>
<path d="M64.2134 32.0781H19.9678V54.031H64.2134V32.0781Z" fill="white"/>
<path d="M64.2133 45.4414V54.3866H45.9189V39.3049H49.0499V43.6312H49.8584V41.1827H53.8407V45.0604H54.3702V35.9609H57.8309V38.4577H59.608V41.5653H60.1438V39.6104H63.2922V45.4414H64.2133Z" fill="#EBEBEB"/>
<path d="M46.8319 39.8516H46.3027V40.6779H46.8319V39.8516Z" fill="white"/>
<path d="M47.7498 39.8516H47.2207V40.6779H47.7498V39.8516Z" fill="white"/>
<path d="M48.6698 39.8516H48.1406V40.6779H48.6698V39.8516Z" fill="white"/>
<path d="M46.8319 41.1016H46.3027V41.9279H46.8319V41.1016Z" fill="white"/>
<path d="M47.7498 41.1016H47.2207V41.9279H47.7498V41.1016Z" fill="white"/>
<path d="M48.6698 41.1016H48.1406V41.9279H48.6698V41.1016Z" fill="white"/>
<path d="M46.8319 42.3359H46.3027V43.1623H46.8319V42.3359Z" fill="white"/>
<path d="M47.7498 42.3359H47.2207V43.1623H47.7498V42.3359Z" fill="white"/>
<path d="M48.6698 42.3359H48.1406V43.1623H48.6698V42.3359Z" fill="white"/>
<path d="M46.8319 43.5859H46.3027V44.4123H46.8319V43.5859Z" fill="white"/>
<path d="M47.7498 43.5859H47.2207V44.4123H47.7498V43.5859Z" fill="white"/>
<path d="M48.6698 43.5859H48.1406V44.4123H48.6698V43.5859Z" fill="white"/>
<path d="M53.3622 41.7109H50.3105V42.2286H53.3622V41.7109Z" fill="white"/>
<path d="M53.3622 42.7188H50.3105V43.2364H53.3622V42.7188Z" fill="white"/>
<path d="M53.3622 43.7188H50.3105V44.2364H53.3622V43.7188Z" fill="white"/>
<path d="M53.3622 44.7188H50.3105V45.2364H53.3622V44.7188Z" fill="white"/>
<path d="M53.3622 45.7266H50.3105V46.2442H53.3622V45.7266Z" fill="white"/>
<path d="M53.3622 46.7344H50.3105V47.2521H53.3622V46.7344Z" fill="white"/>
<path d="M53.3622 47.7344H50.3105V48.252H53.3622V47.7344Z" fill="white"/>
<path d="M53.3622 48.7344H50.3105V49.252H53.3622V48.7344Z" fill="white"/>
<path d="M62.0063 40.0781H61.0654V40.5777H62.0063V40.0781Z" fill="white"/>
<path d="M62.0063 41.0547H61.0654V41.5543H62.0063V41.0547Z" fill="white"/>
<path d="M62.0063 42.0156H61.0654V42.5152H62.0063V42.0156Z" fill="white"/>
<path d="M62.0063 42.9922H61.0654V43.4918H62.0063V42.9922Z" fill="white"/>
<path d="M62.0063 43.9688H61.0654V44.4683H62.0063V43.9688Z" fill="white"/>
<path d="M62.0063 44.9297H61.0654V45.4293H62.0063V44.9297Z" fill="white"/>
<path d="M62.0063 45.8906H61.0654V46.3902H62.0063V45.8906Z" fill="white"/>
<path d="M62.0063 46.8672H61.0654V47.3668H62.0063V46.8672Z" fill="white"/>
<path d="M63.2885 40.0781H62.3477V40.5777H63.2885V40.0781Z" fill="white"/>
<path d="M63.2885 41.0547H62.3477V41.5543H63.2885V41.0547Z" fill="white"/>
<path d="M63.2885 42.0156H62.3477V42.5152H63.2885V42.0156Z" fill="white"/>
<path d="M63.2885 42.9922H62.3477V43.4918H63.2885V42.9922Z" fill="white"/>
<path d="M63.2885 43.9688H62.3477V44.4683H63.2885V43.9688Z" fill="white"/>
<path d="M63.2885 44.9297H62.3477V45.4293H63.2885V44.9297Z" fill="white"/>
<path d="M63.2885 45.8906H62.3477V46.3902H63.2885V45.8906Z" fill="white"/>
<path d="M63.2885 46.8672H62.3477V47.3668H63.2885V46.8672Z" fill="white"/>
<path d="M55.8742 36.4844H54.8936V37.2721H55.8742V36.4844Z" fill="white"/>
<path d="M57.339 36.4844H56.3584V37.2721H57.339V36.4844Z" fill="white"/>
<path d="M55.8742 37.6406H54.8936V38.4284H55.8742V37.6406Z" fill="white"/>
<path d="M57.339 37.6406H56.3584V38.4284H57.339V37.6406Z" fill="white"/>
<path d="M55.8742 38.8047H54.8936V39.5925H55.8742V38.8047Z" fill="white"/>
<path d="M57.339 38.8047H56.3584V39.5925H57.339V38.8047Z" fill="white"/>
<path d="M55.8742 39.9609H54.8936V40.7487H55.8742V39.9609Z" fill="white"/>
<path d="M57.339 39.9609H56.3584V40.7487H57.339V39.9609Z" fill="white"/>
<path d="M55.8742 41.1094H54.8936V41.8971H55.8742V41.1094Z" fill="white"/>
<path d="M57.339 41.1094H56.3584V41.8971H57.339V41.1094Z" fill="white"/>
<path d="M55.8742 42.2734H54.8936V43.0612H55.8742V42.2734Z" fill="white"/>
<path d="M57.339 42.2734H56.3584V43.0612H57.339V42.2734Z" fill="white"/>
<path d="M55.8742 43.4375H54.8936V44.2253H55.8742V43.4375Z" fill="white"/>
<path d="M57.339 43.4375H56.3584V44.2253H57.339V43.4375Z" fill="white"/>
<path d="M55.8742 44.5781H54.8936V45.3659H55.8742V44.5781Z" fill="white"/>
<path d="M57.339 44.5781H56.3584V45.3659H57.339V44.5781Z" fill="white"/>
<path d="M59.1525 38.8047H58.1719V39.5925H59.1525V38.8047Z" fill="white"/>
<path d="M59.1525 39.9609H58.1719V40.7487H59.1525V39.9609Z" fill="white"/>
<path d="M59.1525 41.1094H58.1719V41.8971H59.1525V41.1094Z" fill="white"/>
<path d="M59.1525 42.2734H58.1719V43.0612H59.1525V42.2734Z" fill="white"/>
<path d="M59.1525 43.4375H58.1719V44.2253H59.1525V43.4375Z" fill="white"/>
<path d="M59.1525 44.5781H58.1719V45.3659H59.1525V44.5781Z" fill="white"/>
<path d="M55.8742 45.7266H54.8936V46.5143H55.8742V45.7266Z" fill="white"/>
<path d="M57.339 45.7266H56.3584V46.5143H57.339V45.7266Z" fill="white"/>
<path d="M59.1525 45.7266H58.1719V46.5143H59.1525V45.7266Z" fill="white"/>
<path d="M55.8742 46.875H54.8936V47.6628H55.8742V46.875Z" fill="white"/>
<path d="M57.339 46.875H56.3584V47.6628H57.339V46.875Z" fill="white"/>
<path d="M59.1525 46.875H58.1719V47.6628H59.1525V46.875Z" fill="white"/>
<path d="M55.8742 48.0156H54.8936V48.8034H55.8742V48.0156Z" fill="white"/>
<path d="M57.339 48.0156H56.3584V48.8034H57.339V48.0156Z" fill="white"/>
<path d="M59.1525 48.0156H58.1719V48.8034H59.1525V48.0156Z" fill="white"/>
<path d="M55.8742 49.1562H54.8936V49.944H55.8742V49.1562Z" fill="white"/>
<path d="M57.339 49.1562H56.3584V49.944H57.339V49.1562Z" fill="white"/>
<path d="M59.1525 49.1562H58.1719V49.944H59.1525V49.1562Z" fill="white"/>
<path d="M55.8742 50.3047H54.8936V51.0925H55.8742V50.3047Z" fill="white"/>
<path d="M57.339 50.3047H56.3584V51.0925H57.339V50.3047Z" fill="white"/>
<path d="M59.1525 50.3047H58.1719V51.0925H59.1525V50.3047Z" fill="white"/>
<path d="M45.9182 54.3882H19.7607V39.3049H22.8933V43.6296H23.7002V41.1827H27.6841V45.0588H28.2104V35.9609H31.6743V38.4577H33.4498V41.5653H33.9872V39.6104H37.134V45.4414H38.0551V40.702H40.934V37.1008H42.8918L45.1556 37.112V44.1456H45.9182V54.3882Z" fill="#EBEBEB"/>
<path d="M20.6727 39.8516H20.1436V40.6779H20.6727V39.8516Z" fill="white"/>
<path d="M21.5926 39.8516H21.0635V40.6779H21.5926V39.8516Z" fill="white"/>
<path d="M22.5106 39.8516H21.9814V40.6779H22.5106V39.8516Z" fill="white"/>
<path d="M20.6727 41.1016H20.1436V41.9279H20.6727V41.1016Z" fill="white"/>
<path d="M21.5926 41.1016H21.0635V41.9279H21.5926V41.1016Z" fill="white"/>
<path d="M22.5106 41.1016H21.9814V41.9279H22.5106V41.1016Z" fill="white"/>
<path d="M20.6727 42.3359H20.1436V43.1623H20.6727V42.3359Z" fill="white"/>
<path d="M21.5926 42.3359H21.0635V43.1623H21.5926V42.3359Z" fill="white"/>
<path d="M22.5106 42.3359H21.9814V43.1623H22.5106V42.3359Z" fill="white"/>
<path d="M20.6727 43.5859H20.1436V44.4123H20.6727V43.5859Z" fill="white"/>
<path d="M21.5926 43.5859H21.0635V44.4123H21.5926V43.5859Z" fill="white"/>
<path d="M22.5106 43.5859H21.9814V44.4123H22.5106V43.5859Z" fill="white"/>
<path d="M39.0262 41.2891H38.4971V41.9788H39.0262V41.2891Z" fill="white"/>
<path d="M39.9461 41.2891H39.417V41.9788H39.9461V41.2891Z" fill="white"/>
<path d="M40.8631 41.2891H40.334V41.9788H40.8631V41.2891Z" fill="white"/>
<path d="M39.0262 42.3281H38.4971V43.0178H39.0262V42.3281Z" fill="white"/>
<path d="M39.9461 42.3281H39.417V43.0178H39.9461V42.3281Z" fill="white"/>
<path d="M40.8631 42.3281H40.334V43.0178H40.8631V42.3281Z" fill="white"/>
<path d="M39.0262 43.375H38.4971V44.0647H39.0262V43.375Z" fill="white"/>
<path d="M39.9461 43.375H39.417V44.0647H39.9461V43.375Z" fill="white"/>
<path d="M40.8631 43.375H40.334V44.0647H40.8631V43.375Z" fill="white"/>
<path d="M39.0262 44.4141H38.4971V45.1038H39.0262V44.4141Z" fill="white"/>
<path d="M39.9461 44.4141H39.417V45.1038H39.9461V44.4141Z" fill="white"/>
<path d="M40.8631 44.4141H40.334V45.1038H40.8631V44.4141Z" fill="white"/>
<path d="M39.0262 45.4688H38.4971V46.1584H39.0262V45.4688Z" fill="white"/>
<path d="M39.9461 45.4688H39.417V46.1584H39.9461V45.4688Z" fill="white"/>
<path d="M40.8631 45.4688H40.334V46.1584H40.8631V45.4688Z" fill="white"/>
<path d="M39.0262 46.5391H38.4971V47.2288H39.0262V46.5391Z" fill="white"/>
<path d="M39.9461 46.5312H39.417V47.2209H39.9461V46.5312Z" fill="white"/>
<path d="M40.8631 46.5312H40.334V47.2209H40.8631V46.5312Z" fill="white"/>
<path d="M39.0262 47.6016H38.4971V48.2913H39.0262V47.6016Z" fill="white"/>
<path d="M39.9461 47.6016H39.417V48.2913H39.9461V47.6016Z" fill="white"/>
<path d="M40.8631 47.6016H40.334V48.2913H40.8631V47.6016Z" fill="white"/>
<path d="M39.0262 48.6641H38.4971V49.3538H39.0262V48.6641Z" fill="white"/>
<path d="M39.9461 48.6641H39.417V49.3538H39.9461V48.6641Z" fill="white"/>
<path d="M40.8631 48.6641H40.334V49.3538H40.8631V48.6641Z" fill="white"/>
<path d="M27.2031 41.7109H24.1514V42.2286H27.2031V41.7109Z" fill="white"/>
<path d="M27.2031 42.7188H24.1514V43.2364H27.2031V42.7188Z" fill="white"/>
<path d="M27.2031 43.7188H24.1514V44.2364H27.2031V43.7188Z" fill="white"/>
<path d="M27.2031 44.7188H24.1514V45.2364H27.2031V44.7188Z" fill="white"/>
<path d="M27.2031 45.7266H24.1514V46.2442H27.2031V45.7266Z" fill="white"/>
<path d="M27.2031 46.7344H24.1514V47.2521H27.2031V46.7344Z" fill="white"/>
<path d="M27.2031 47.7344H24.1514V48.252H27.2031V47.7344Z" fill="white"/>
<path d="M27.2031 48.7344H24.1514V49.252H27.2031V48.7344Z" fill="white"/>
<path d="M35.8471 40.0781H34.9062V40.5777H35.8471V40.0781Z" fill="white"/>
<path d="M35.8471 41.0547H34.9062V41.5543H35.8471V41.0547Z" fill="white"/>
<path d="M35.8471 42.0156H34.9062V42.5152H35.8471V42.0156Z" fill="white"/>
<path d="M35.8471 42.9922H34.9062V43.4918H35.8471V42.9922Z" fill="white"/>
<path d="M35.8471 43.9688H34.9062V44.4683H35.8471V43.9688Z" fill="white"/>
<path d="M35.8471 44.9297H34.9062V45.4293H35.8471V44.9297Z" fill="white"/>
<path d="M35.8471 45.8906H34.9062V46.3902H35.8471V45.8906Z" fill="white"/>
<path d="M35.8471 46.8672H34.9062V47.3668H35.8471V46.8672Z" fill="white"/>
<path d="M37.1293 40.0781H36.1885V40.5777H37.1293V40.0781Z" fill="white"/>
<path d="M37.1293 41.0469H36.1885V41.5464H37.1293V41.0469Z" fill="white"/>
<path d="M37.1293 42.0156H36.1885V42.5152H37.1293V42.0156Z" fill="white"/>
<path d="M37.1293 42.9922H36.1885V43.4918H37.1293V42.9922Z" fill="white"/>
<path d="M37.1293 43.9688H36.1885V44.4683H37.1293V43.9688Z" fill="white"/>
<path d="M37.1293 44.9297H36.1885V45.4293H37.1293V44.9297Z" fill="white"/>
<path d="M37.1293 45.8906H36.1885V46.3902H37.1293V45.8906Z" fill="white"/>
<path d="M37.1293 46.8672H36.1885V47.3668H37.1293V46.8672Z" fill="white"/>
<path d="M29.717 36.4844H28.7363V37.2721H29.717V36.4844Z" fill="white"/>
<path d="M31.1799 36.4844H30.1992V37.2721H31.1799V36.4844Z" fill="white"/>
<path d="M29.717 37.6406H28.7363V38.4284H29.717V37.6406Z" fill="white"/>
<path d="M31.1799 37.6406H30.1992V38.4284H31.1799V37.6406Z" fill="white"/>
<path d="M29.717 38.8047H28.7363V39.5925H29.717V38.8047Z" fill="white"/>
<path d="M31.1799 38.8047H30.1992V39.5925H31.1799V38.8047Z" fill="white"/>
<path d="M29.717 39.9609H28.7363V40.7487H29.717V39.9609Z" fill="white"/>
<path d="M31.1799 39.9609H30.1992V40.7487H31.1799V39.9609Z" fill="white"/>
<path d="M29.717 41.1094H28.7363V41.8971H29.717V41.1094Z" fill="white"/>
<path d="M31.1799 41.1094H30.1992V41.8971H31.1799V41.1094Z" fill="white"/>
<path d="M29.717 42.2734H28.7363V43.0612H29.717V42.2734Z" fill="white"/>
<path d="M31.1799 42.2734H30.1992V43.0612H31.1799V42.2734Z" fill="white"/>
<path d="M29.717 43.4375H28.7363V44.2253H29.717V43.4375Z" fill="white"/>
<path d="M31.1799 43.4375H30.1992V44.2253H31.1799V43.4375Z" fill="white"/>
<path d="M29.717 44.5781H28.7363V45.3659H29.717V44.5781Z" fill="white"/>
<path d="M31.1799 44.5781H30.1992V45.3659H31.1799V44.5781Z" fill="white"/>
<path d="M32.9943 38.8047H32.0137V39.5925H32.9943V38.8047Z" fill="white"/>
<path d="M32.9943 39.9609H32.0137V40.7487H32.9943V39.9609Z" fill="white"/>
<path d="M32.9943 41.1094H32.0137V41.8971H32.9943V41.1094Z" fill="white"/>
<path d="M32.9943 42.2734H32.0137V43.0612H32.9943V42.2734Z" fill="white"/>
<path d="M32.9943 43.4375H32.0137V44.2253H32.9943V43.4375Z" fill="white"/>
<path d="M32.9943 44.5781H32.0137V45.3659H32.9943V44.5781Z" fill="white"/>
<path d="M29.717 45.7266H28.7363V46.5143H29.717V45.7266Z" fill="white"/>
<path d="M31.1799 45.7266H30.1992V46.5143H31.1799V45.7266Z" fill="white"/>
<path d="M32.9943 45.7266H32.0137V46.5143H32.9943V45.7266Z" fill="white"/>
<path d="M29.717 46.875H28.7363V47.6628H29.717V46.875Z" fill="white"/>
<path d="M31.1799 46.875H30.1992V47.6628H31.1799V46.875Z" fill="white"/>
<path d="M32.9943 46.875H32.0137V47.6628H32.9943V46.875Z" fill="white"/>
<path d="M29.717 48.0156H28.7363V48.8034H29.717V48.0156Z" fill="white"/>
<path d="M31.1799 48.0156H30.1992V48.8034H31.1799V48.0156Z" fill="white"/>
<path d="M32.9943 48.0156H32.0137V48.8034H32.9943V48.0156Z" fill="white"/>
<path d="M29.717 49.1562H28.7363V49.944H29.717V49.1562Z" fill="white"/>
<path d="M31.1799 49.1562H30.1992V49.944H31.1799V49.1562Z" fill="white"/>
<path d="M32.9943 49.1562H32.0137V49.944H32.9943V49.1562Z" fill="white"/>
<path d="M29.717 50.3047H28.7363V51.0925H29.717V50.3047Z" fill="white"/>
<path d="M31.1799 50.3047H30.1992V51.0925H31.1799V50.3047Z" fill="white"/>
<path d="M32.9943 50.3047H32.0137V51.0925H32.9943V50.3047Z" fill="white"/>
<path d="M41.8621 37.6172H41.333V38.3069H41.8621V37.6172Z" fill="white"/>
<path d="M42.7821 37.6172H42.2529V38.3069H42.7821V37.6172Z" fill="white"/>
<path d="M41.8621 38.6484H41.333V39.3381H41.8621V38.6484Z" fill="white"/>
<path d="M42.7821 38.6484H42.2529V39.3381H42.7821V38.6484Z" fill="white"/>
<path d="M41.8621 39.6875H41.333V40.3772H41.8621V39.6875Z" fill="white"/>
<path d="M42.7821 39.6875H42.2529V40.3772H42.7821V39.6875Z" fill="white"/>
<path d="M41.8621 40.7188H41.333V41.4084H41.8621V40.7188Z" fill="white"/>
<path d="M42.7821 40.7188H42.2529V41.4084H42.7821V40.7188Z" fill="white"/>
<path d="M41.8621 41.7891H41.333V42.4788H41.8621V41.7891Z" fill="white"/>
<path d="M42.7821 41.7891H42.2529V42.4788H42.7821V41.7891Z" fill="white"/>
<path d="M41.8621 42.8516H41.333V43.5413H41.8621V42.8516Z" fill="white"/>
<path d="M42.7821 42.8516H42.2529V43.5413H42.7821V42.8516Z" fill="white"/>
<path d="M41.8621 43.9141H41.333V44.6038H41.8621V43.9141Z" fill="white"/>
<path d="M42.7821 43.9141H42.2529V44.6038H42.7821V43.9141Z" fill="white"/>
<path d="M41.8621 44.9766H41.333V45.6663H41.8621V44.9766Z" fill="white"/>
<path d="M42.7821 44.9766H42.2529V45.6663H42.7821V44.9766Z" fill="white"/>
<path d="M41.8621 46.0547H41.333V46.7444H41.8621V46.0547Z" fill="white"/>
<path d="M42.7821 46.0547H42.2529V46.7444H42.7821V46.0547Z" fill="white"/>
<path d="M41.8621 47.125H41.333V47.8147H41.8621V47.125Z" fill="white"/>
<path d="M42.7821 47.125H42.2529V47.8147H42.7821V47.125Z" fill="white"/>
<path d="M41.8621 48.2031H41.333V48.8928H41.8621V48.2031Z" fill="white"/>
<path d="M42.7821 48.2031H42.2529V48.8928H42.7821V48.2031Z" fill="white"/>
<path d="M41.8621 49.2812H41.333V49.9709H41.8621V49.2812Z" fill="white"/>
<path d="M42.7821 49.2812H42.2529V49.9709H42.7821V49.2812Z" fill="white"/>
<path d="M43.828 37.6172H43.2988V38.3069H43.828V37.6172Z" fill="white"/>
<path d="M44.7459 37.6172H44.2168V38.3069H44.7459V37.6172Z" fill="white"/>
<path d="M43.828 38.6484H43.2988V39.3381H43.828V38.6484Z" fill="white"/>
<path d="M44.7459 38.6484H44.2168V39.3381H44.7459V38.6484Z" fill="white"/>
<path d="M43.828 39.6875H43.2988V40.3772H43.828V39.6875Z" fill="white"/>
<path d="M44.7459 39.6875H44.2168V40.3772H44.7459V39.6875Z" fill="white"/>
<path d="M43.828 40.7188H43.2988V41.4084H43.828V40.7188Z" fill="white"/>
<path d="M44.7459 40.7188H44.2168V41.4084H44.7459V40.7188Z" fill="white"/>
<path d="M43.828 41.7891H43.2988V42.4788H43.828V41.7891Z" fill="white"/>
<path d="M44.7459 41.7891H44.2168V42.4788H44.7459V41.7891Z" fill="white"/>
<path d="M43.828 42.8516H43.2988V43.5413H43.828V42.8516Z" fill="white"/>
<path d="M44.7459 42.8516H44.2168V43.5413H44.7459V42.8516Z" fill="white"/>
<path d="M43.828 43.9141H43.2988V44.6038H43.828V43.9141Z" fill="white"/>
<path d="M44.7459 43.9141H44.2168V44.6038H44.7459V43.9141Z" fill="white"/>
<path d="M43.828 44.9766H43.2988V45.6663H43.828V44.9766Z" fill="white"/>
<path d="M44.7459 44.9766H44.2168V45.6663H44.7459V44.9766Z" fill="white"/>
<path d="M43.828 46.0547H43.2988V46.7444H43.828V46.0547Z" fill="white"/>
<path d="M44.7459 46.0547H44.2168V46.7444H44.7459V46.0547Z" fill="white"/>
<path d="M43.828 47.125H43.2988V47.8147H43.828V47.125Z" fill="white"/>
<path d="M44.7459 47.125H44.2168V47.8147H44.7459V47.125Z" fill="white"/>
<path d="M43.828 48.2031H43.2988V48.8928H43.828V48.2031Z" fill="white"/>
<path d="M44.7459 48.2031H44.2168V48.8928H44.7459V48.2031Z" fill="white"/>
<path d="M43.828 49.2812H43.2988V49.9709H43.828V49.2812Z" fill="white"/>
<path d="M44.7459 49.2812H44.2168V49.9709H44.7459V49.2812Z" fill="white"/>
<path d="M19.3271 31.3438V54.758H64.8537V31.3438H19.3271ZM64.2133 54.0281H19.9676V32.0752H64.2133V54.0281Z" fill="#DBDBDB"/>
<path d="M42.4121 32.0781H41.7705V54.031H42.4121V32.0781Z" fill="#DBDBDB"/>
<path d="M47.9701 66.0185C47.9701 66.0185 44.029 65.4591 44.9501 60.6328C44.9501 60.6328 49.354 61.636 47.9701 66.0185Z" fill="#29CC99"/>
<path opacity="0.1" d="M47.9701 66.0185C47.9701 66.0185 44.029 65.4591 44.9501 60.6328C44.9501 60.6328 49.354 61.636 47.9701 66.0185Z" fill="black"/>
<path d="M47.7718 65.018C47.694 64.774 47.604 64.5342 47.5023 64.2994L47.4928 64.2078C47.4928 64.1419 47.4817 64.0743 47.4769 64.0084C47.4658 63.8637 47.4563 63.7207 47.4484 63.576C47.4309 63.2882 47.4135 62.9988 47.4087 62.711C47.4087 62.7078 47.4075 62.7048 47.4053 62.7025C47.403 62.7002 47.4 62.699 47.3969 62.699C47.3937 62.699 47.3907 62.7002 47.3884 62.7025C47.3862 62.7048 47.385 62.7078 47.385 62.711C47.385 63.0004 47.377 63.2882 47.385 63.5776C47.385 63.7223 47.3992 63.8653 47.4087 64.01C47.4087 64.0422 47.4087 64.0743 47.4087 64.1065C47.1866 63.6257 46.9212 63.1666 46.6161 62.7351C46.4798 62.5438 46.3371 62.3589 46.1849 62.1805C46.0327 62.002 45.8678 61.8252 45.7093 61.6451C45.6982 61.6339 45.6824 61.6451 45.6919 61.6628C45.9751 61.9805 46.2298 62.3232 46.4528 62.6869C46.5717 62.8702 46.6843 63.0599 46.7921 63.2512L46.7556 63.2367L46.6161 63.1789L46.299 63.0551C46.0866 62.9763 45.8758 62.8943 45.6649 62.8155C45.6522 62.8155 45.6427 62.8332 45.6554 62.838C45.8647 62.9232 46.0723 63.0133 46.28 63.1033L46.5844 63.2367L46.7429 63.301C46.7762 63.3176 46.8113 63.3301 46.8475 63.338C46.9284 63.4827 47.0061 63.629 47.079 63.7769C47.2596 64.1509 47.4184 64.5352 47.5546 64.928L47.5831 65.0116C47.4816 64.95 47.3756 64.8962 47.2661 64.8509C47.1297 64.7882 46.9934 64.7271 46.8586 64.6628C46.5812 64.5341 46.307 64.4039 46.0422 64.2512C46.0394 64.2504 46.0364 64.2507 46.0338 64.2519C46.0311 64.2531 46.029 64.2552 46.0277 64.2579C46.0264 64.2605 46.026 64.2635 46.0266 64.2664C46.0273 64.2693 46.0288 64.2719 46.0311 64.2737C46.3006 64.4232 46.5669 64.5824 46.838 64.7319C46.9728 64.8074 47.1091 64.8798 47.2486 64.9473C47.3636 65.0173 47.4888 65.0683 47.6196 65.0984C47.7501 65.4616 47.8369 65.8395 47.878 66.2238C47.9208 66.7688 47.916 67.3202 47.9287 67.8669C47.9287 67.8765 47.943 67.8749 47.943 67.8669C47.9826 67.3701 48.0048 66.8685 48.0064 66.3717C47.9999 65.9107 47.9207 65.4537 47.7718 65.018Z" fill="#263238"/>
<path d="M47.165 62.1656C47.1266 62.4473 47.1133 62.7319 47.1254 63.016C47.1254 63.016 47.1365 63.016 47.1381 63.016C47.1539 62.7347 47.1555 62.4533 47.1888 62.172C47.1904 62.1559 47.1666 62.1495 47.165 62.1656Z" fill="#263238"/>
<path d="M46.0368 62.4099C45.8604 62.3421 45.6907 62.2577 45.5299 62.1577C45.5286 62.1569 45.5271 62.1565 45.5256 62.1563C45.524 62.1562 45.5225 62.1563 45.521 62.1567C45.5196 62.1572 45.5182 62.1579 45.517 62.1589C45.5158 62.1599 45.5148 62.1611 45.5141 62.1625C45.5134 62.1639 45.5129 62.1654 45.5128 62.1669C45.5126 62.1685 45.5127 62.17 45.5132 62.1715C45.5136 62.173 45.5144 62.1744 45.5153 62.1756C45.5163 62.1768 45.5175 62.1778 45.5188 62.1785C45.6763 62.2867 45.8487 62.3706 46.0305 62.4275C46.04 62.4291 46.0463 62.4147 46.0368 62.4099Z" fill="#263238"/>
<path d="M48.0963 73.6743C48.0963 73.2322 48.0836 72.7901 48.0789 72.3496C48.0709 70.8818 48.0599 69.4156 48.0329 67.9478C48.0118 66.7838 47.9854 65.6177 47.9537 64.4494C47.9531 64.4463 47.9517 64.4434 47.9498 64.4409C47.9479 64.4384 47.9454 64.4364 47.9426 64.435V63.4816C47.9426 63.4736 47.9331 63.4688 47.9236 63.4688C47.9141 63.4688 47.9046 63.4688 47.9046 63.4816V64.4382C47.9046 64.4382 47.8951 64.4382 47.8951 64.451C47.8365 66.5233 47.7858 68.5973 47.7731 70.6696C47.7731 71.0908 47.7731 71.512 47.7731 71.9348C47.7583 73.2852 47.753 74.6368 47.7573 75.9894V76.6324C47.7573 77.8687 47.7699 79.105 47.7699 80.343C47.7699 80.4089 47.8428 80.4426 47.9204 80.4459C47.9981 80.4491 48.1026 80.4137 48.1026 80.3365C48.1026 78.9732 48.1121 77.6035 48.1121 76.2466C48.0995 75.3929 48.1026 74.5328 48.0963 73.6743Z" fill="#263238"/>
<path d="M46.4497 72.3269C46.4497 72.3269 44.5473 70.9025 42.7543 71.8655C40.9614 72.8285 40.6729 76.5374 40.6729 76.5374C40.6729 76.5374 43.3155 76.9216 44.9801 75.3155C46.5828 73.7738 46.4497 72.3269 46.4497 72.3269Z" fill="#29CC99"/>
<path d="M46.967 72.4277C46.6189 72.2876 46.242 72.2373 45.87 72.2814C45.7928 72.2691 45.715 72.2616 45.6369 72.2589L45.369 72.238L44.8173 72.1994C44.4432 72.1705 44.0675 72.148 43.6949 72.1094C43.6807 72.1094 43.6791 72.1319 43.6949 72.1335C44.0643 72.1817 44.4321 72.2348 44.8047 72.2717C44.9949 72.2926 45.1851 72.3119 45.377 72.3264L45.5149 72.3393L45.3468 72.3811C45.0494 72.4701 44.7616 72.5891 44.4876 72.7364C44.3386 72.7637 44.1896 72.8055 44.0437 72.8409C43.8091 72.8971 43.576 72.9582 43.343 73.0193C42.8817 73.1415 42.4267 73.2798 41.9701 73.4148C41.9687 73.4148 41.9672 73.4151 41.9659 73.4157C41.9646 73.4162 41.9633 73.4171 41.9623 73.4181C41.9613 73.4192 41.9604 73.4204 41.9599 73.4218C41.9593 73.4231 41.959 73.4246 41.959 73.4261C41.959 73.4275 41.9593 73.429 41.9599 73.4304C41.9604 73.4317 41.9613 73.433 41.9623 73.434C41.9633 73.4351 41.9646 73.4359 41.9659 73.4365C41.9672 73.437 41.9687 73.4373 41.9701 73.4373C42.4267 73.3248 42.8849 73.2203 43.343 73.1158L44.0104 72.955L44.1832 72.9132C43.6741 73.2333 43.2191 73.6345 42.8357 74.1013C42.4658 74.5609 42.1518 75.064 41.9004 75.5996C41.9004 75.6125 41.9131 75.627 41.9194 75.6125C42.231 75.062 42.612 74.5551 43.0529 74.1045L43.0291 74.1817C42.9927 74.2942 42.9578 74.4068 42.9229 74.5209C42.8532 74.7476 42.7818 74.9727 42.7152 75.2009C42.7152 75.2154 42.7343 75.2202 42.739 75.2009C42.8183 74.9807 42.8975 74.7604 42.9705 74.5386C43.0085 74.4309 43.0466 74.3231 43.083 74.217C43.1036 74.1624 43.1211 74.1061 43.1401 74.0482L43.1591 73.9968C43.3701 73.7883 43.5947 73.5944 43.8313 73.4164C44.1437 73.183 44.4814 72.9866 44.838 72.8312C44.83 72.865 44.8253 72.8971 44.8189 72.9293L44.7619 73.193C44.7254 73.3746 44.6905 73.5579 44.6556 73.7396C44.5843 74.1109 44.5399 74.4887 44.4717 74.8649C44.4717 74.881 44.4908 74.8874 44.4939 74.8649C44.5795 74.4903 44.6889 74.1222 44.7714 73.7396C44.8126 73.5515 44.8538 73.365 44.8918 73.1769C44.9109 73.0884 44.9283 73 44.9457 72.9132C44.9553 72.8634 44.9664 72.8151 44.9711 72.7653C45.006 72.7508 45.0393 72.7348 45.0742 72.7219C45.5719 72.5354 46.122 72.4004 46.6515 72.5033C46.9025 72.5504 47.138 72.6598 47.3372 72.8216C47.5363 72.9835 47.6929 73.1928 47.7929 73.4309C47.8104 73.4727 47.8754 73.4454 47.8659 73.4036C47.8017 73.181 47.6869 72.9768 47.5308 72.8073C47.3747 72.6378 47.1816 72.5078 46.967 72.4277Z" fill="#263238"/>
<path d="M44.064 73.997C44.0117 74.2414 43.9578 74.4793 43.9055 74.7285C43.8455 74.9621 43.801 75.1995 43.7725 75.4391C43.7725 75.4488 43.7851 75.4488 43.7883 75.4391C43.857 75.2045 43.9099 74.9655 43.9467 74.7237C43.9943 74.4825 44.0402 74.2414 44.0861 74.0018C44.0855 73.9995 44.0843 73.9974 44.0826 73.9958C44.0809 73.9941 44.0788 73.993 44.0765 73.9925C44.0742 73.992 44.0718 73.9921 44.0696 73.9929C44.0674 73.9937 44.0654 73.9952 44.064 73.997Z" fill="#263238"/>
<path d="M42.2307 74.6252C41.9899 74.7505 41.7555 74.8918 41.5037 74.993C41.5023 74.9936 41.5011 74.9945 41.5001 74.9956C41.4991 74.9968 41.4983 74.9981 41.4978 74.9995C41.4973 75.0009 41.497 75.0024 41.4971 75.0039C41.4971 75.0054 41.4975 75.0069 41.4981 75.0083C41.4987 75.0096 41.4996 75.0109 41.5007 75.0119C41.5018 75.0129 41.5031 75.0137 41.5045 75.0142C41.5059 75.0148 41.5074 75.015 41.5089 75.0149C41.5103 75.0149 41.5118 75.0145 41.5132 75.0139C41.7607 74.9013 42.0019 74.7748 42.2354 74.6348C42.2354 74.6348 42.237 74.6236 42.2307 74.6252Z" fill="#263238"/>
<path d="M46.8762 69.7248C46.8762 69.7248 44.5601 69.8743 43.4821 68.3245C42.4041 66.7747 42.6451 64.5625 42.6451 64.5625C42.6451 64.5625 45.0801 64.8631 46.0455 65.9757C47.011 67.0882 46.8762 69.7248 46.8762 69.7248Z" fill="#29CC99"/>
<path d="M47.9637 72.0323C47.8844 71.7799 47.7846 71.5324 47.691 71.2864C47.5975 71.0404 47.504 70.8137 47.4025 70.5822C47.1962 70.1083 46.9644 69.6462 46.7081 69.198C46.5496 68.9118 46.3689 68.6353 46.1882 68.362C46.1882 68.3202 46.1771 68.2784 46.1707 68.2366C46.1596 68.1627 46.1501 68.0903 46.139 68.018C46.1152 67.8685 46.0899 67.7205 46.0645 67.5726C46.0122 67.2511 45.9456 66.9296 45.8949 66.6C45.8949 66.5855 45.8679 66.5855 45.8711 66.6C45.9171 66.9215 45.9488 67.2431 45.9932 67.5646C46.0154 67.7254 46.036 67.8861 46.0598 68.0373C46.0677 68.0935 46.0772 68.1498 46.0851 68.2077C45.7321 67.683 45.3494 67.1794 44.939 66.6997C44.8835 66.6338 44.8264 66.5711 44.7709 66.5067C44.7709 66.4891 44.7566 66.4714 44.7487 66.4537L44.698 66.3187L44.5981 66.0389C44.5331 65.8556 44.4745 65.6691 44.4253 65.4794C44.4253 65.465 44.3984 65.4714 44.4031 65.4875C44.4491 65.6804 44.4982 65.8733 44.5537 66.063C44.5807 66.1547 44.6108 66.2463 44.6425 66.3363C44.6425 66.3508 44.6536 66.3669 44.6599 66.3814C44.3635 66.0598 44.0544 65.7383 43.7421 65.4264C43.731 65.4151 43.7151 65.4264 43.7262 65.4441C44.3251 66.0794 44.8737 66.7616 45.367 67.4842C45.311 67.4653 45.2538 67.4502 45.1958 67.4392C45.0182 67.4054 44.8375 67.3797 44.6568 67.3556C44.2795 67.3074 43.9038 67.2591 43.528 67.1948C43.5122 67.1948 43.5058 67.2157 43.528 67.219C43.8879 67.2913 44.243 67.3797 44.5997 67.4553C44.7677 67.4955 44.9374 67.5292 45.1054 67.563C45.2438 67.5923 45.3799 67.6315 45.5128 67.6804C45.5509 67.735 45.5889 67.7881 45.6254 67.8411C45.7966 68.0919 45.9599 68.3475 46.1184 68.6064L45.8822 68.5598C45.7031 68.5244 45.5239 68.4906 45.3448 68.4617C44.9913 68.4022 44.6377 68.3395 44.2874 68.2591C44.285 68.26 44.2829 68.2617 44.2814 68.2638C44.2799 68.266 44.2791 68.2686 44.2791 68.2712C44.2791 68.2738 44.2799 68.2764 44.2814 68.2785C44.2829 68.2807 44.285 68.2823 44.2874 68.2832C44.6409 68.3668 44.9929 68.4665 45.3432 68.5614C45.5128 68.6064 45.684 68.6482 45.8553 68.6868L46.1137 68.743C46.148 68.7523 46.183 68.7587 46.2183 68.7623C46.556 69.3186 46.8746 69.8877 47.1695 70.4697C47.2995 70.7253 47.4231 70.9825 47.5436 71.243C47.6641 71.5034 47.7735 71.7832 47.8876 72.0468C47.8987 72.1143 47.9827 72.0918 47.9637 72.0323Z" fill="#263238"/>
<path d="M45.592 66.6411C45.5476 66.4161 45.5017 66.1926 45.4525 65.9707C45.4525 65.9547 45.4272 65.9611 45.4288 65.9707C45.4731 66.191 45.5159 66.4112 45.5539 66.6331C45.592 66.855 45.6252 67.0768 45.6854 67.2906H45.6933C45.6743 67.072 45.6404 66.855 45.592 66.6411Z" fill="#263238"/>
<path d="M44.2412 66.5757C44.1335 66.5211 44.0195 66.4777 43.907 66.4344L43.7328 66.3637L43.6425 66.3284C43.6082 66.3179 43.5752 66.3034 43.5443 66.285C43.5268 66.2705 43.5158 66.3026 43.5332 66.3043C43.568 66.3141 43.6015 66.3282 43.633 66.346L43.7201 66.3862L43.8896 66.4617C44.0006 66.515 44.1149 66.5612 44.2317 66.5998C44.2444 66.6046 44.2539 66.5821 44.2412 66.5757Z" fill="#263238"/>
<path d="M49.248 67.8776C49.248 67.8776 50.651 65.2201 52.7849 64.8086C54.9187 64.397 56.2234 66.6236 56.2234 66.6236C56.2234 66.6236 54.6682 68.6381 52.7103 68.9901C50.7525 69.3422 49.248 67.8776 49.248 67.8776Z" fill="#29CC99"/>
<path d="M54.2142 65.9877C53.6581 65.9121 53.0943 65.9186 52.5401 66.007L52.6352 65.9556C52.7937 65.8752 52.9523 65.7948 53.1108 65.708C53.4363 65.5259 53.7707 65.3606 54.1127 65.2128C54.1145 65.2123 54.1162 65.2114 54.1177 65.2102C54.1191 65.209 54.1203 65.2074 54.1211 65.2057C54.1218 65.2039 54.1222 65.202 54.1222 65.2001C54.1222 65.1982 54.1217 65.1963 54.1208 65.1946C54.12 65.1929 54.1188 65.1914 54.1173 65.1902C54.1158 65.189 54.1141 65.1882 54.1122 65.1878C54.1104 65.1874 54.1085 65.1874 54.1066 65.1878C54.1048 65.1883 54.1031 65.1891 54.1016 65.1903C53.7687 65.3511 53.4231 65.4797 53.0886 65.6356C52.9206 65.7144 52.7557 65.7964 52.5924 65.8832C52.4878 65.9395 52.3705 65.9941 52.2674 66.0617C51.7988 66.1568 51.3436 66.3102 50.912 66.5182L51.1783 66.224C51.3765 66.0022 51.5731 65.7707 51.7918 65.5697C51.8029 65.5585 51.7918 65.5424 51.7744 65.552C51.5509 65.7578 51.3147 65.9491 51.0991 66.1629C50.9928 66.2658 50.893 66.3735 50.7947 66.4845C50.7455 66.5391 50.6964 66.597 50.6504 66.6549C49.9192 67.054 49.2842 67.6123 48.7908 68.2896C48.2975 68.967 47.958 69.7467 47.7969 70.5728C47.7969 70.5873 47.8143 70.5953 47.8191 70.5808C48.1201 69.5679 48.6586 68.6439 49.3885 67.888C50.1719 67.0767 51.1584 66.497 52.2421 66.2112C52.8859 66.0457 53.5515 65.9844 54.2142 66.0295C54.2169 66.0295 54.2195 66.029 54.222 66.0279C54.2246 66.0269 54.2268 66.0253 54.2287 66.0234C54.2306 66.0214 54.2322 66.0191 54.2332 66.0166C54.2342 66.0141 54.2348 66.0114 54.2348 66.0086C54.2348 66.0059 54.2342 66.0031 54.2332 66.0006C54.2322 65.9981 54.2306 65.9958 54.2287 65.9938C54.2268 65.9919 54.2246 65.9903 54.222 65.9893C54.2195 65.9882 54.2169 65.9877 54.2142 65.9877Z" fill="#263238"/>
<path opacity="0.1" d="M56.223 66.6213C56.223 66.6213 54.6678 68.6373 52.7084 68.9878C51.215 69.2579 49.9864 68.4669 49.4887 68.0778L49.3809 67.8994C49.3809 67.8994 50.3907 67.036 52.301 66.5377C54.2113 66.0393 56.223 66.6213 56.223 66.6213Z" fill="black"/>
<path d="M52.9737 65.0486C52.8096 65.1469 52.6509 65.2542 52.4984 65.3702C52.3506 65.4844 52.2132 65.6119 52.0881 65.7512C52.0865 65.7522 52.0851 65.7536 52.084 65.7552C52.083 65.7569 52.0823 65.7587 52.0821 65.7607C52.0819 65.7626 52.0821 65.7645 52.0827 65.7664C52.0834 65.7682 52.0844 65.7699 52.0857 65.7713C52.0871 65.7726 52.0887 65.7737 52.0906 65.7743C52.0924 65.775 52.0943 65.7752 52.0962 65.7749C52.0981 65.7747 52.0999 65.774 52.1015 65.773C52.1032 65.7719 52.1045 65.7705 52.1055 65.7689C52.2465 65.6451 52.3891 65.5197 52.5364 65.4023C52.6792 65.2859 52.829 65.1785 52.9848 65.0808C52.999 65.0615 52.9863 65.0406 52.9737 65.0486Z" fill="#263238"/>
<path d="M54.1457 65.4929C54.0665 65.5266 53.9873 65.5555 53.9065 65.5892L53.6689 65.6888C53.6515 65.6888 53.6594 65.7242 53.6769 65.7161L53.916 65.6198C53.9952 65.586 54.0744 65.5491 54.152 65.517C54.1663 65.5105 54.16 65.488 54.1457 65.4929Z" fill="#263238"/>
<path d="M48.9688 71.2168C48.9688 71.2168 49.3429 73.8518 51.2976 74.773C53.2522 75.6942 55.6333 74.773 55.6333 74.773C55.6333 74.773 54.6964 69.0722 48.9688 71.2168Z" fill="#29CC99"/>
<path d="M54.2871 73.0602C54.1064 73.0393 53.9273 73.0087 53.7481 72.975L53.4865 72.9251L53.3486 72.8978C53.2963 72.848 53.244 72.7965 53.1901 72.7483C52.8201 72.4186 52.4204 72.1247 51.9964 71.8705C51.765 71.7319 51.5257 71.6073 51.2798 71.4975H51.3163L51.9647 71.5297C52.3927 71.5506 52.8223 71.5602 53.2503 71.5875C53.2662 71.5875 53.2646 71.565 53.2503 71.5634C52.8191 71.5345 52.3911 71.4862 51.9615 71.4493L51.3369 71.393L51.0198 71.3641L50.9374 71.3544C50.8264 71.3126 50.7139 71.2724 50.5997 71.2371C50.067 71.052 49.4941 71.0203 48.9447 71.1454C48.4532 71.2724 47.9634 71.5988 47.835 72.1245C47.835 72.1422 47.8572 72.155 47.8651 72.1374C48.049 71.6985 48.5293 71.4766 48.9637 71.385C49.2555 71.3284 49.5546 71.3225 49.8483 71.3673C49.8685 71.503 49.9014 71.6366 49.9466 71.766C50.0005 71.9525 50.0544 72.1374 50.1051 72.3222C50.2161 72.692 50.3381 73.0586 50.4459 73.4299C50.4459 73.4444 50.4729 73.438 50.4681 73.4299C50.3778 73.0602 50.3017 72.6856 50.2129 72.3158C50.1701 72.1341 50.1257 71.9525 50.0813 71.7708C50.0563 71.644 50.0235 71.5189 49.983 71.3962C50.1536 71.4273 50.3224 71.4675 50.4887 71.5168C50.7907 71.6077 51.0866 71.7178 51.3749 71.8464C51.4035 72.0345 51.4447 72.221 51.4875 72.4058C51.5414 72.639 51.6 72.8688 51.673 73.0955C51.673 73.0985 51.6741 73.1014 51.6762 73.1035C51.6783 73.1056 51.6811 73.1068 51.6841 73.1068C51.687 73.1068 51.6898 73.1056 51.6919 73.1035C51.694 73.1014 51.6952 73.0985 51.6952 73.0955L51.6856 73.0521C51.6413 72.8367 51.5953 72.6213 51.5509 72.4091C51.5144 72.2354 51.4811 72.0618 51.4431 71.8882C51.6868 71.9981 51.9249 72.1204 52.1565 72.2547C52.1565 72.3078 52.1739 72.3624 52.1818 72.4155C52.1961 72.5055 52.212 72.5955 52.2278 72.6856C52.2643 72.8881 52.3039 73.0907 52.3531 73.2917C52.441 73.6806 52.5532 74.0635 52.6891 74.4379C52.6873 74.4402 52.6864 74.4431 52.6864 74.446C52.6864 74.4489 52.6873 74.4517 52.6891 74.454L52.7002 74.4669C52.7082 74.4765 52.7224 74.4669 52.7193 74.454C52.6289 74.0634 52.5259 73.6775 52.4418 73.2852C52.399 73.0891 52.3562 72.893 52.3182 72.6968C52.2992 72.5988 52.2801 72.5007 52.2627 72.4026L52.2484 72.3142C52.5117 72.4705 52.7658 72.6423 53.0094 72.8287C53.4313 73.1491 53.8215 73.5104 54.1746 73.9074C54.1888 73.9219 54.2158 73.9074 54.2031 73.8833C54.0579 73.6827 53.9023 73.49 53.737 73.3061C53.6387 73.2 53.5373 73.0971 53.4326 72.9959H53.4659L53.7402 73.0377C53.9209 73.0618 54.1032 73.0795 54.284 73.1004C54.2966 73.0859 54.3014 73.0618 54.2871 73.0602Z" fill="#263238"/>
<path d="M52.9159 73.9539C52.9137 73.9312 52.91 73.9086 52.9048 73.8864C52.9048 73.8559 52.8858 73.8285 52.8826 73.7996C52.8435 73.6238 52.8087 73.447 52.778 73.2691C52.778 73.2661 52.7769 73.2632 52.7748 73.2611C52.7727 73.259 52.7699 73.2578 52.767 73.2578C52.764 73.2578 52.7612 73.259 52.7591 73.2611C52.757 73.2632 52.7559 73.2661 52.7559 73.2691C52.7682 73.5051 52.8185 73.7376 52.9048 73.9571H52.919L52.9159 73.9539Z" fill="#263238"/>
<path d="M51.2785 73.9147C51.2785 73.9117 51.2773 73.9089 51.2752 73.9068C51.2731 73.9046 51.2703 73.9035 51.2674 73.9035C51.2119 73.6703 51.1597 73.4356 51.109 73.2009C51.0836 73.0771 51.0583 72.9549 51.0345 72.8311C51.0218 72.7636 51.0107 72.6977 50.9981 72.6302C50.9934 72.5715 50.9795 72.514 50.9569 72.4598C50.9558 72.4577 50.9542 72.4561 50.9522 72.4549C50.9503 72.4537 50.948 72.4531 50.9458 72.4531C50.9435 72.4531 50.9413 72.4537 50.9393 72.4549C50.9374 72.4561 50.9358 72.4577 50.9347 72.4598C50.933 72.5795 50.9495 72.6988 50.9838 72.8135C51.0076 72.9421 51.0313 73.0707 51.0598 73.1977C51.1169 73.4581 51.1802 73.717 51.2531 73.9726C51.2531 73.976 51.2545 73.9793 51.2568 73.9817C51.2592 73.9841 51.2624 73.9855 51.2658 73.9855C51.2692 73.9855 51.2724 73.9841 51.2748 73.9817C51.2771 73.9793 51.2785 73.976 51.2785 73.9726C51.2816 73.9533 51.2801 73.934 51.2785 73.9147Z" fill="#263238"/>
<path d="M54.1079 72.3024C53.7515 72.2526 53.3952 72.2012 53.0388 72.1562C53.0229 72.1562 53.0166 72.1787 53.0388 72.1803C53.3952 72.2334 53.7516 72.2783 54.1095 72.3265C54.1174 72.3346 54.1238 72.3056 54.1079 72.3024Z" fill="#263238"/>
<path d="M47.9674 65.035C47.9674 65.035 46.7721 59.7152 52.4062 57.5625C52.4078 57.5625 53.9693 64.5639 47.9674 65.035Z" fill="#29CC99"/>
<path d="M49.1848 62.0218L49.2451 61.9848L49.5621 61.8047L50.2153 61.4334C50.6465 61.189 51.0697 60.935 51.5041 60.6971C51.5168 60.689 51.5041 60.6681 51.4914 60.6761C51.057 60.9157 50.6163 61.1392 50.1788 61.3739L49.5352 61.7244L49.2704 61.8658C49.4591 61.5041 49.6588 61.1504 49.8808 60.808C50.174 60.353 50.4974 59.9189 50.8319 59.4945C50.8355 59.4907 50.8374 59.4855 50.8373 59.4803C50.8371 59.475 50.8349 59.47 50.8311 59.4664C50.8274 59.4627 50.8223 59.4608 50.8171 59.4609C50.8119 59.4611 50.807 59.4633 50.8034 59.4672C50.31 59.9529 49.8733 60.4944 49.5019 61.0813C49.5019 61.062 49.5019 61.0427 49.5019 61.025C49.5019 60.8932 49.5114 60.7614 49.513 60.6279C49.513 60.3691 49.5035 60.1086 49.513 59.8498C49.513 59.8337 49.4908 59.8337 49.4892 59.8498C49.4797 60.1054 49.448 60.3594 49.4337 60.6151C49.4337 60.7437 49.421 60.8707 49.4178 60.9977C49.4178 61.0668 49.4099 61.1456 49.4178 61.2212C49.3021 61.4093 49.1911 61.599 49.0849 61.7919C48.8965 62.1383 48.7287 62.4958 48.5824 62.8626C48.5824 62.7308 48.5681 62.5973 48.5602 62.4655C48.5443 62.1745 48.5079 61.8835 48.4968 61.5925C48.4968 61.5764 48.4714 61.5781 48.473 61.5925C48.473 61.8851 48.4651 62.1761 48.473 62.4671C48.473 62.6134 48.4809 62.7581 48.4904 62.9044L48.5 63.0652C48.3207 63.5402 48.1786 64.0288 48.0751 64.5265C47.9778 65.0584 47.9074 65.595 47.8643 66.1342C47.9237 65.6489 48.0239 65.1697 48.1639 64.7018C48.2336 64.451 48.3066 64.2018 48.3858 63.9542C48.6204 63.8417 48.8456 63.7018 49.0723 63.5748C49.299 63.4478 49.5478 63.3127 49.7793 63.1825C50.2549 62.9205 50.7194 62.6536 51.2061 62.4237C51.2203 62.4237 51.2061 62.3964 51.1934 62.4028C50.7019 62.6279 50.2057 62.8433 49.7238 63.0893C49.4828 63.2115 49.2482 63.3417 49.0136 63.4751C48.817 63.5877 48.6157 63.6986 48.4286 63.8272C48.4841 63.6664 48.5412 63.5057 48.603 63.3336C48.7751 62.8867 48.9693 62.4489 49.1848 62.0218Z" fill="#263238"/>
<path d="M48.7084 60.8089C48.7084 60.7929 48.6831 60.7929 48.6846 60.8089C48.7052 61.1128 48.7147 61.4166 48.7464 61.7189C48.7474 61.7217 48.7492 61.7242 48.7516 61.7259C48.754 61.7277 48.7569 61.7286 48.7599 61.7286C48.7629 61.7286 48.7657 61.7277 48.7682 61.7259C48.7706 61.7242 48.7724 61.7217 48.7734 61.7189C48.7623 61.4134 48.7306 61.1112 48.7084 60.8089Z" fill="#263238"/>
<path d="M51.4106 61.8136C51.0573 61.9565 50.7025 62.0931 50.3509 62.2425C50.3414 62.2425 50.3509 62.2634 50.3509 62.2585C50.7073 62.1236 51.0589 61.9758 51.4122 61.8361C51.4312 61.8313 51.4248 61.8072 51.4106 61.8136Z" fill="#263238"/>
<path d="M51.9453 59.3685C51.6007 59.5288 51.2663 59.7108 50.9441 59.9135C50.9282 59.9231 50.9441 59.9488 50.9599 59.9392C51.2863 59.7447 51.6189 59.5598 51.958 59.3878C51.9722 59.3813 51.9643 59.3621 51.9453 59.3685Z" fill="#263238"/>
<path d="M51.8622 76.5391H43.7344V85.227H51.8622V76.5391Z" fill="#455A64"/>
<path d="M43.5899 79.6094H43.1748V94.4917H43.5899V79.6094Z" fill="#263238"/>
<path d="M52.377 79.6094H51.9619V94.4917H52.377V79.6094Z" fill="#263238"/>
<path d="M48.2041 79.6094H47.7891V94.4917H48.2041V79.6094Z" fill="#263238"/>
<path d="M52.1691 84.6719H43.3818V85.8744H52.1691V84.6719Z" fill="#263238"/>
<path d="M1.5127 94.5101L14.3235 94.4715L27.1343 94.457L52.7575 94.4297L78.3806 94.457L91.1914 94.4715L104.002 94.5101L91.1914 94.5503L78.3806 94.5631L52.7575 94.5905L27.1343 94.5631L14.3235 94.5487L1.5127 94.5101Z" fill="#263238"/>
<path d="M101.477 33.0469H77.376V94.4635H101.477V33.0469Z" fill="white"/>
<path d="M103.772 30.5156V94.4611H101.477V32.9979H77.3756V94.4611H75.0801V30.5156H103.772Z" fill="#37474F"/>
<path d="M82.5726 96.559L101.677 94.4513V32.9881L82.498 30.2422L82.5726 96.559Z" fill="#455A64"/>
<path d="M81.4814 30.1562L82.5714 30.3122V96.5647L81.4814 96.3525V30.1562Z" fill="#37474F"/>
<path d="M91.4958 87.4398L85.6904 87.8738V34.4844L91.4958 35.1869V87.4398Z" fill="#DBDBDB"/>
<path d="M99.2874 86.7937L93.4805 87.2953V35.4219L99.2874 36.1228V86.7937Z" fill="#DBDBDB"/>
<path d="M91.4954 35.1823V36.0408L85.6885 40.5391V37.7289L89.3378 34.9219L91.4954 35.1823Z" fill="#EBEBEB"/>
<path d="M85.6885 71.4141L91.4954 65.8516V68.5637L85.6885 74.2228V71.4141Z" fill="#EBEBEB"/>
<path d="M99.2878 58.9531V61.5367L93.4824 66.715V64.0366L99.2878 58.9531Z" fill="#EBEBEB"/>
<path d="M99.2878 81.0469V83.6304L95.9016 87.0901L93.4824 87.2911V86.9583L99.2878 81.0469Z" fill="#EBEBEB"/>
<path d="M85.6885 47.8913L91.4954 43.1406V44.4975L85.6885 49.298V47.8913Z" fill="#EBEBEB"/>
<path d="M99.2878 37.3203V38.6129L93.4824 42.9327V41.5919L99.2878 37.3203Z" fill="#EBEBEB"/>
<path d="M85.6885 86.5694L91.4954 80.4844V81.8413L85.7994 87.8524L85.6885 87.8604V86.5694Z" fill="#EBEBEB"/>
<path d="M99.2878 72.8906V74.1816L93.4824 79.8342V78.495L99.2878 72.8906Z" fill="#EBEBEB"/>
<path d="M85.6885 45.7487L91.4954 41.0703V41.4931L85.6885 46.1843V45.7487Z" fill="#EBEBEB"/>
<path d="M98.8344 36.0751L93.4824 39.9721V39.5557L98.3445 36.0156L98.8344 36.0751Z" fill="#EBEBEB"/>
<path d="M87.6582 87.7297L91.4962 83.6719V84.0947L88.0894 87.6975L87.6582 87.7297Z" fill="#EBEBEB"/>
<path d="M99.2878 75.9062V76.3098L93.4824 82.0412V81.6248L99.2878 75.9062Z" fill="#EBEBEB"/>
<path d="M85.6885 55.5707L91.4954 50.5547V50.9791L85.6885 56.0095V55.5707Z" fill="#EBEBEB"/>
<path d="M99.2878 44.375V44.7801L93.4824 49.3299V48.9119L99.2878 44.375Z" fill="#EBEBEB"/>
<path d="M85.6885 67.9108L91.4954 62.4688V62.8916L85.6885 68.348V67.9108Z" fill="#EBEBEB"/>
<path d="M99.2878 55.7266V56.1285L93.4824 61.1059V60.6879L99.2878 55.7266Z" fill="#EBEBEB"/>
<path d="M85.4879 71.5719L83.752 71.9047L83.7599 64.6846L85.4958 64.4531L85.4879 71.5719Z" fill="#C7C7C7"/>
<path d="M87.2334 65.5961L84.624 65.9964V65.1781L87.2334 64.7891V65.5961Z" fill="#C7C7C7"/>
<path d="M86.7656 66.9112V64.8582L87.233 64.7891V66.8373L86.7656 66.9112Z" fill="#C7C7C7"/>
<path d="M21.0504 77.0547C20.3482 77.4775 19.6395 77.8843 18.9293 78.291C18.2191 78.6977 17.5026 79.0948 16.7908 79.4919C16.079 79.889 15.3561 80.2781 14.6363 80.6639L13.5536 81.2395C13.189 81.4276 12.8291 81.6189 12.4629 81.8022C12.8132 81.59 13.1683 81.3874 13.5203 81.1784L14.584 80.5675C15.2942 80.1623 16.0108 79.7636 16.7226 79.3665C17.4344 78.9694 18.1494 78.5788 18.877 78.1929C19.6047 77.8071 20.3117 77.4245 21.0504 77.0547Z" fill="#DBDBDB"/>
<path d="M13.0625 77.0547C13.741 77.3762 14.4116 77.7251 15.0822 78.0691C15.7528 78.4132 16.417 78.7669 17.0844 79.1157C17.7518 79.4646 18.4129 79.8295 19.0724 80.1929L20.0616 80.7427C20.3882 80.9308 20.7179 81.1141 21.0429 81.3054C20.7021 81.1446 20.366 80.971 20.0283 80.8054L19.0216 80.291C18.3511 79.9469 17.6868 79.5932 17.0194 79.2443C16.352 78.8955 15.6909 78.5305 15.0314 78.1656C14.372 77.8007 13.7141 77.4357 13.0625 77.0547Z" fill="#DBDBDB"/>
<path d="M29.1465 77.0547C28.4458 77.4775 27.7356 77.8843 27.0254 78.291C26.3152 78.6977 25.5986 79.0948 24.8868 79.4919C24.175 79.889 23.4601 80.2781 22.7324 80.6639L21.6496 81.2395C21.2866 81.4276 20.9252 81.6189 20.5605 81.8022C20.9093 81.59 21.2644 81.3874 21.6164 81.1784L22.6801 80.5675C23.3903 80.1623 24.1069 79.7636 24.8187 79.3665C25.5305 78.9694 26.2454 78.5788 26.9747 78.1929C27.7039 77.8071 28.4173 77.4245 29.1465 77.0547Z" fill="#DBDBDB"/>
<path d="M21.166 77.0547C21.8445 77.3762 22.5167 77.7251 23.1873 78.0691C23.8579 78.4132 24.5221 78.7669 25.1895 79.1157C25.8569 79.4646 26.5164 79.8295 27.1775 80.1929L28.1651 80.7427C28.4917 80.9308 28.8214 81.1141 29.1464 81.3054C28.8072 81.1446 28.4711 80.971 28.1334 80.8054L27.1267 80.291C26.4562 79.9469 25.7903 79.5932 25.1229 79.2443C24.4555 78.8955 23.796 78.5305 23.1365 78.1656C22.4771 77.8007 21.8176 77.4357 21.166 77.0547Z" fill="#DBDBDB"/>
<path d="M27.665 75.9219L28.0947 78.5327L31.0037 94.4649H31.4729L29.3581 78.5327L29.0458 75.9219H27.665Z" fill="#DBDBDB"/>
<path d="M29.0458 75.9219H27.665L28.0947 78.5327H29.3581L29.0458 75.9219Z" fill="#C7C7C7"/>
<path d="M18.5303 94.4649H18.9995L21.9085 78.5327L22.3382 75.9219H20.9574L20.6451 78.5327L18.5303 94.4649Z" fill="#DBDBDB"/>
<path d="M20.9568 75.9219L20.6445 78.5327H21.908L22.3376 75.9219H20.9568Z" fill="#C7C7C7"/>
<path d="M9.80469 94.4649H10.2739L13.183 78.5327L13.6126 75.9219H12.2334L11.9195 78.5327L9.80469 94.4649Z" fill="#DBDBDB"/>
<path d="M11.9199 78.5327H13.1834L13.613 75.9219H12.2338L11.9199 78.5327Z" fill="#C7C7C7"/>
<path d="M10.5479 77.1451H31.8638V74.867H23.885L21.2026 57.3594H11.3611L10.5479 77.1451Z" fill="#DBDBDB"/>
<path d="M10.5479 77.1451H11.7099L12.4676 57.3594H11.3611L10.5479 77.1451Z" fill="#C7C7C7"/>
<path d="M8.08035 84.5156H4.27246V85.1941H8.08035V84.5156Z" fill="#455A64"/>
<path d="M10.1437 94.4502H9.73315L6.37866 78.5711L6.18843 77.666L5.58601 74.8156L5.3609 73.7529L4.51752 69.7643L4.22266 68.3672H5.68747L5.92685 69.7643L6.0838 70.6806L6.18843 71.2916L6.78925 74.8156L6.98266 75.9506L10.1437 94.4502Z" fill="#455A64"/>
<path d="M5.68747 68.3672L5.92685 69.7643H4.51752L4.22266 68.3672H5.68747Z" fill="#263238"/>
<path d="M6.98309 75.9497L6.37909 78.5702L6.18885 77.6651L5.58644 74.8146L5.36133 73.752L6.08422 70.6797L6.18885 71.2906L6.78968 74.8146L6.98309 75.9497Z" fill="#263238"/>
<path d="M8.15351 68.3672L7.85864 69.7643L6.79015 74.8156L6.18933 77.666L2.64301 94.4502H2.23242L5.58691 74.8156L6.18933 71.2916L6.44931 69.7643L6.68711 68.3672H8.15351Z" fill="#455A64"/>
<path d="M8.15341 68.3672L7.85855 69.7643H6.44922L6.68701 68.3672H8.15341Z" fill="#263238"/>
<path d="M45.4153 84.5156H41.6074V85.1941H45.4153V84.5156Z" fill="#455A64"/>
<path d="M47.4797 94.4502H47.0691L43.7146 78.5711L43.5244 77.666L42.922 74.8156L42.6968 73.7529L41.8535 69.7643L41.5586 68.3672H43.0234L43.2628 69.7643L43.4197 70.6806L43.5244 71.2916L44.1252 74.8156L44.3186 75.9506L47.4797 94.4502Z" fill="#455A64"/>
<path d="M43.0234 68.3672L43.2628 69.7643H41.8535L41.5586 68.3672H43.0234Z" fill="#263238"/>
<path d="M44.319 75.9497L43.715 78.5702L43.5248 77.6651L42.9224 74.8146L42.6973 73.752L43.4202 70.6797L43.5248 71.2906L44.1256 74.8146L44.319 75.9497Z" fill="#263238"/>
<path d="M45.4885 68.3672L45.1936 69.7643L44.1251 74.8156L43.5243 77.666L39.978 94.4502H39.5674L42.9219 74.8156L43.5243 71.2916L43.7843 69.7643L44.0221 68.3672H45.4885Z" fill="#455A64"/>
<path d="M45.4884 68.3672L45.1935 69.7643H43.7842L44.022 68.3672H45.4884Z" fill="#263238"/>
<path d="M48.3419 67.3438H1.37109V68.3646H48.3419V67.3438Z" fill="#455A64"/>
<path d="M49.7134 65.3906H0V67.3407H49.7134V65.3906Z" fill="#37474F"/>
<path d="M33.2805 64.8359H21.0547V65.3922H33.2805V64.8359Z" fill="#455A64"/>
<path d="M33.2805 64.8359H27.1279V65.3922H33.2805V64.8359Z" fill="#37474F"/>
<path d="M27.7891 65.3931H39.7042L41.2609 57.1875H29.3474L27.7891 65.3931Z" fill="#455A64"/>
<path d="M33.7998 61.2911C33.7897 61.3847 33.7993 61.4793 33.828 61.5688C33.8568 61.6583 33.904 61.7405 33.9666 61.81C34.0291 61.8795 34.1056 61.9347 34.1908 61.972C34.276 62.0092 34.3681 62.0275 34.4609 62.0258C34.6589 62.0233 34.8491 61.9471 34.9952 61.8116C35.1414 61.6761 35.2333 61.4909 35.2535 61.2911C35.2637 61.1974 35.254 61.1025 35.2252 61.0128C35.1964 60.9231 35.149 60.8407 35.0863 60.7711C35.0236 60.7014 34.947 60.6461 34.8616 60.6088C34.7762 60.5715 34.6839 60.5531 34.5909 60.5548C34.3929 60.5577 34.2029 60.6344 34.0571 60.7701C33.9112 60.9059 33.8196 61.0913 33.7998 61.2911Z" fill="white"/>
<path d="M5.00354 65.3359H11.833V58.6817H5.00354L5.00354 65.3359Z" fill="#EBEBEB"/>
<path d="M2.40975 65.3359H5.00488L5.00488 58.6817H2.40975L2.40975 65.3359Z" fill="#C7C7C7"/>
<path d="M11.8324 62.0156H5.00293L10.3375 62.186L11.8324 62.0156Z" fill="#C7C7C7"/>
<path d="M5.00293 64.5391H11.8324L6.49945 64.7111L5.00293 64.5391Z" fill="#C7C7C7"/>
<path d="M11.8321 60.1562H7.50586L11.3518 60.2961L11.8321 60.1562Z" fill="#C7C7C7"/>
<path d="M5.00293 63.5625H9.32921L5.48328 63.7024L5.00293 63.5625Z" fill="#C7C7C7"/>
<path d="M10.195 59.4219H5.31543L6.12869 59.5055L10.195 59.4219Z" fill="#C7C7C7"/>
<path d="M11.168 62.7266H6.29004L7.1033 62.8118L11.168 62.7266Z" fill="#C7C7C7"/>
<path d="M8.16868 60.7969H5.00284L4.43848 61.0203L8.16868 60.7969Z" fill="#EBEBEB"/>
<path d="M12.7048 60.7969H9.54056L8.97461 61.0203L12.7048 60.7969Z" fill="#DBDBDB"/>
<path d="M8.64258 63.7812H11.8084L12.3728 64.0047L8.64258 63.7812Z" fill="#DBDBDB"/>
<path d="M5.00306 63.0234H2.46183L1.89746 63.2469L5.00306 63.0234Z" fill="#C7C7C7"/>
<path d="M4.11667 62.0191H2.14648L2.40801 61.8359L4.11667 62.0191Z" fill="#C7C7C7"/>
<path d="M64.3174 84.5L63.8418 91.0915C63.8418 92.3776 63.8529 93.5143 63.9147 94.0979C63.914 94.101 63.914 94.1043 63.9147 94.1075C63.9162 94.2484 63.9498 94.3871 64.013 94.5126H64.0209C64.3982 94.7747 74.5648 95.1284 74.923 95.0191C75.2813 94.9097 75.0039 93.8663 74.6202 93.532C74.2366 93.1976 70.4033 91.2973 70.4033 91.2973L70.8092 84.7058L64.3174 84.5Z" fill="#E8A89F"/>
<path d="M63.8545 89.7109V91.0952C63.8545 92.3813 63.8656 93.5179 63.9274 94.1015C63.9267 94.1047 63.9267 94.108 63.9274 94.1112C63.9409 94.2485 63.9696 94.3839 64.013 94.5147H64.0209C64.3982 94.7767 74.5648 95.1304 74.923 95.0211C75.2813 94.9118 75.0039 93.8684 74.6202 93.534C74.2366 93.1996 70.4034 91.2993 70.4034 91.2993L70.4224 89.8942L63.8545 89.7109Z" fill="white"/>
<path d="M74.9249 95.0245C74.5651 95.1338 64.4001 94.7817 64.0228 94.5181C63.877 94.4216 63.8405 92.9104 63.85 91.0953V91.0391L70.4116 91.1918V91.3059C70.4116 91.3059 74.2417 93.2046 74.6285 93.539C75.0153 93.8734 75.2848 94.9184 74.9249 95.0245Z" fill="#A6A6A6"/>
<path d="M74.8231 94.6207C73.111 94.5194 66.1959 94.2703 64.4949 94.2992C64.4822 94.2992 64.4822 94.3088 64.4949 94.3088C66.1895 94.4487 73.1062 94.64 74.8215 94.6465C74.858 94.6497 74.8595 94.6239 74.8231 94.6207Z" fill="#263238"/>
<path d="M70.9548 91.3515C70.2844 91.2005 69.457 91.276 68.9244 91.745C68.9038 91.7643 68.9244 91.7932 68.9513 91.7868C69.6028 91.5986 70.2724 91.4817 70.9485 91.4382C70.9598 91.4391 70.971 91.4353 70.9797 91.4278C70.9883 91.4203 70.9936 91.4096 70.9944 91.3981C70.9953 91.3866 70.9916 91.3752 70.9842 91.3665C70.9767 91.3577 70.9662 91.3523 70.9548 91.3515Z" fill="#263238"/>
<path d="M71.4308 91.648C70.7619 91.497 69.9329 91.5741 69.4019 92.0432C69.3813 92.0608 69.4019 92.0914 69.4289 92.0849C70.0803 91.8961 70.7499 91.7787 71.426 91.7347C71.4374 91.7354 71.4485 91.7314 71.457 91.7238C71.4655 91.7161 71.4706 91.7053 71.4712 91.6938C71.4718 91.6823 71.4679 91.671 71.4603 91.6624C71.4528 91.6538 71.4421 91.6486 71.4308 91.648Z" fill="#263238"/>
<path d="M71.9073 91.9684C71.2369 91.8174 70.4095 91.8945 69.8785 92.3619C69.8579 92.3812 69.8785 92.4101 69.9054 92.4037C70.5569 92.2153 71.2265 92.0985 71.9026 92.0551C71.9139 92.0557 71.9251 92.0518 71.9335 92.0441C71.942 92.0364 71.9471 92.0256 71.9478 92.0141C71.9484 92.0026 71.9445 91.9914 71.9369 91.9828C71.9293 91.9742 71.9187 91.969 71.9073 91.9684Z" fill="#263238"/>
<path d="M63.4567 91.3801L70.5731 91.237C70.5731 91.237 71.4418 78.2502 71.2801 73.9207C71.1041 69.2182 69.1114 55.2266 69.1114 55.2266H63.1016C63.1016 55.2266 64.6377 69.2729 64.671 73.9785C64.7011 78.3386 63.4567 91.3801 63.4567 91.3801Z" fill="#37474F"/>
<path d="M67.9304 55.2266L64.3207 67.8919C63.8942 61.8984 63.1016 55.2266 63.1016 55.2266H67.9304Z" fill="#263238"/>
<path d="M64.2432 55.9141L64.6252 60.094L64.9787 64.274C65.2039 67.0617 65.4195 69.8494 65.5827 72.6436C65.6224 73.3413 65.6477 74.0423 65.6366 74.7448C65.6255 75.4474 65.5954 76.1435 65.5605 76.8428C65.4897 78.2362 65.401 79.6295 65.2942 81.0228C65.1875 82.4161 65.0765 83.8095 64.9613 85.2028L64.5761 89.3828L64.8836 85.2028C64.9893 83.8095 65.086 82.4161 65.1737 81.0228C65.2609 79.6273 65.3545 78.2335 65.4179 76.8428C65.4496 76.1451 65.4749 75.4474 65.4876 74.7529C65.5003 74.0583 65.4686 73.3606 65.4274 72.6629C65.2768 69.8719 65.0596 67.0842 64.8583 64.2949L64.2432 55.9141Z" fill="#263238"/>
<path d="M70.2764 90.0288C69.1667 90.0192 69.4838 90.0063 68.3741 90.0079C67.8303 90.0079 64.2523 90.0224 63.7513 90.1141C63.7484 90.1141 63.7456 90.1152 63.7435 90.1174C63.7414 90.1195 63.7402 90.1223 63.7402 90.1253C63.7402 90.1283 63.7414 90.1312 63.7435 90.1333C63.7456 90.1354 63.7484 90.1366 63.7513 90.1366C64.2602 90.2153 67.8319 90.1366 68.3756 90.1285C69.4854 90.1044 69.1683 90.098 70.278 90.061C70.2822 90.0608 70.2862 90.0589 70.289 90.0557C70.2918 90.0526 70.2933 90.0484 70.2931 90.0441C70.2929 90.0399 70.291 90.0359 70.2879 90.033C70.2847 90.0301 70.2806 90.0286 70.2764 90.0288Z" fill="#263238"/>
<path d="M52.7574 80.9688C52.7574 80.9688 49.3173 86.6278 49.3142 86.6374C48.7577 87.7982 48.2885 88.8239 48.0951 89.3785C48.0944 89.3817 48.0944 89.385 48.0951 89.3882C48.0359 89.513 48.006 89.65 48.0079 89.7885C48.0079 89.7885 48.0079 89.7885 48.0079 89.7981C48.2362 90.2001 57.2454 94.9893 57.6148 95.0488C57.9842 95.1083 58.1823 94.0456 57.9778 93.5762C57.7733 93.1067 55.1354 89.7017 55.1354 89.7017L58.5105 84.0185L52.7574 80.9688Z" fill="#E8A89F"/>
<path d="M48.0011 89.7744C48.0004 89.7759 48 89.7776 48 89.7792C48 89.7809 48.0004 89.7826 48.0011 89.7841C48.2294 90.186 57.2386 94.9753 57.608 95.0348C57.9774 95.0942 58.1739 94.0316 57.9726 93.5621C57.7713 93.0927 55.1191 89.694 55.1191 89.694L55.7215 88.6796C54.2487 87.8838 51.5727 86.4867 49.9114 85.625C49.5483 86.2198 49.3026 86.6282 49.3026 86.6298C48.7446 87.7889 48.2753 88.8146 48.0835 89.3629C48.0835 89.3629 48.0835 89.3629 48.0835 89.3725C48.0257 89.4982 47.9975 89.6358 48.0011 89.7744Z" fill="white"/>
<path d="M57.6148 95.0472C57.2454 94.9877 48.2362 90.2 48.0079 89.7965C47.9175 89.6454 48.5295 88.2724 49.3158 86.6374C49.3233 86.6198 49.3317 86.6026 49.3411 86.5859L55.1861 89.6084L55.1322 89.7081C55.1322 89.7081 57.7733 93.1051 57.9778 93.5745C58.1823 94.044 57.9889 95.1082 57.6148 95.0472Z" fill="#A6A6A6"/>
<path d="M57.6957 94.6277C56.1976 93.7837 50.072 90.5185 48.528 89.8047C48.5153 89.8047 48.5105 89.8047 48.528 89.8143C49.996 90.6857 56.1469 93.8994 57.6894 94.6599C57.7163 94.6695 57.7274 94.6454 57.6957 94.6277Z" fill="#263238"/>
<path d="M55.6108 89.9777C55.0702 89.5468 54.2918 89.2526 53.6117 89.4407C53.5863 89.4487 53.5959 89.4857 53.6196 89.4905C54.287 89.6071 54.9402 89.7957 55.568 90.0532C55.5729 90.0561 55.5783 90.0579 55.5839 90.0587C55.5894 90.0594 55.5951 90.059 55.6006 90.0575C55.606 90.056 55.6111 90.0535 55.6156 90.05C55.6201 90.0465 55.6238 90.0421 55.6266 90.0372C55.6294 90.0322 55.6313 90.0267 55.632 90.021C55.6327 90.0154 55.6323 90.0096 55.6308 90.0041C55.6294 89.9986 55.6268 89.9934 55.6234 89.9889C55.62 89.9843 55.6157 89.9805 55.6108 89.9777Z" fill="#263238"/>
<path d="M55.9072 90.4705C55.3682 90.0396 54.5882 89.7438 53.9081 89.9335C53.8828 89.9335 53.8938 89.9785 53.916 89.9818C54.5835 90.0988 55.2366 90.288 55.8644 90.5461C55.8743 90.5518 55.886 90.5534 55.897 90.5503C55.908 90.5473 55.9174 90.54 55.923 90.53C55.9287 90.52 55.9302 90.5081 55.9273 90.4969C55.9243 90.4858 55.9171 90.4763 55.9072 90.4705Z" fill="#263238"/>
<path d="M56.2023 90.9619C55.6633 90.5326 54.8833 90.2368 54.2048 90.4249C54.1778 90.433 54.1889 90.4699 54.2048 90.4748C54.872 90.592 55.5251 90.7806 56.1531 91.0374C56.158 91.0407 56.1635 91.043 56.1692 91.0441C56.175 91.0452 56.1809 91.0452 56.1867 91.044C56.1924 91.0428 56.1979 91.0405 56.2027 91.0371C56.2076 91.0338 56.2117 91.0295 56.2149 91.0246C56.2182 91.0196 56.2204 91.0141 56.2215 91.0082C56.2226 91.0024 56.2226 90.9964 56.2214 90.9906C56.2202 90.9847 56.2179 90.9792 56.2146 90.9743C56.2114 90.9694 56.2072 90.9652 56.2023 90.9619Z" fill="#263238"/>
<path d="M68.4967 55.2109C68.4713 55.3363 68.0512 57.3138 67.6152 59.0115C67.2982 60.2526 66.9811 61.3426 66.7861 61.4568C66.5737 61.5838 65.5417 62.0468 65.2008 62.1931C65.2008 62.1931 62.8799 73.942 61.6545 77.5866C60.5242 80.9483 55.8444 89.9352 55.8444 89.9352L49.0498 86.4675C49.0498 86.4675 54.351 77.3471 54.9154 75.7105C55.7794 73.1735 59.0166 60.7864 59.0166 60.7864C59.0166 60.7864 58.9928 56.9086 60.2848 55.2158L68.4967 55.2109Z" fill="#37474F"/>
<path d="M55.7382 88.6028C54.768 88.053 55.0549 88.1961 54.0784 87.6591C53.6028 87.3955 50.4607 85.6656 49.9724 85.5C49.9629 85.5 49.9534 85.5129 49.9629 85.5193C50.3719 85.8408 53.5409 87.5096 54.0229 87.77C55.0089 88.2893 54.7315 88.1302 55.7239 88.6382C55.7285 88.6401 55.7337 88.6401 55.7383 88.6381C55.7429 88.6362 55.7466 88.6324 55.7485 88.6277C55.7504 88.6231 55.7503 88.6178 55.7484 88.6131C55.7465 88.6084 55.7428 88.6047 55.7382 88.6028Z" fill="#263238"/>
<path d="M60.7518 59.7097C60.9414 59.6684 61.133 59.6367 61.3257 59.6149C61.4843 59.5908 61.6317 59.5635 61.7823 59.5297C62.0732 59.4765 62.3488 59.3585 62.5892 59.184C62.8524 58.9766 62.9855 58.6632 63.1124 58.3609C63.1885 58.1808 63.2709 58.0024 63.3438 57.8255C63.3834 57.7387 63.4215 57.6519 63.4611 57.5667C63.5151 57.4664 63.5627 57.3628 63.6038 57.2564C63.6038 57.242 63.6339 57.2564 63.6276 57.2564C63.6016 57.3296 63.5799 57.4042 63.5626 57.4799L63.4865 57.7387C63.4389 57.8995 63.393 58.0474 63.3422 58.2001C63.2695 58.4828 63.163 58.7555 63.0252 59.012C62.7462 59.4638 62.2452 59.6454 61.7442 59.7097C61.6 59.729 61.4557 59.7387 61.3115 59.7467C61.129 59.7636 60.9454 59.7636 60.7629 59.7467C60.7597 59.7452 60.7567 59.743 60.7543 59.7403C60.752 59.7375 60.7502 59.7343 60.7491 59.7308C60.7481 59.7273 60.7478 59.7236 60.7483 59.72C60.7487 59.7163 60.7499 59.7129 60.7518 59.7097Z" fill="#263238"/>
<path d="M67.333 61.1889C66.5964 61.4611 65.8846 61.7979 65.2056 62.1953C65.1997 62.1981 65.1951 62.2031 65.1929 62.2093C65.1907 62.2155 65.191 62.2223 65.1937 62.2283C65.1964 62.2343 65.2014 62.2389 65.2075 62.2411C65.2136 62.2434 65.2203 62.2431 65.2262 62.2403C65.9427 61.9285 66.6736 61.6294 67.3711 61.2757C67.3804 61.2694 67.3871 61.26 67.3902 61.2491C67.3933 61.2382 67.3925 61.2265 67.388 61.2161C67.3835 61.2058 67.3755 61.1974 67.3654 61.1924C67.3554 61.1874 67.3439 61.1862 67.333 61.1889Z" fill="#263238"/>
<path d="M67.5478 56.2165C67.5478 56.1907 67.5034 56.1859 67.5034 56.2165C67.5034 57.0798 67.4543 57.8386 67.3829 58.6457C67.3496 59.0202 67.0516 61.0893 66.4127 60.9382C66.3049 60.9125 66.2542 60.8064 66.2336 60.6424C66.2354 60.4279 66.2642 60.2145 66.3192 60.0074C66.3889 59.5749 66.446 59.1392 66.4777 58.7019C66.552 57.8875 66.543 57.0675 66.4508 56.255C66.4508 56.2495 66.4486 56.2442 66.4447 56.2403C66.4409 56.2363 66.4356 56.2341 66.4302 56.2341C66.4247 56.2341 66.4195 56.2363 66.4156 56.2403C66.4117 56.2442 66.4095 56.2495 66.4095 56.255C66.4285 57.3838 66.3633 58.5124 66.2146 59.6312C66.1353 60.1697 65.8674 60.9784 66.4222 61.062C66.9771 61.1456 67.3528 59.7887 67.4226 59.4173C67.6005 58.3603 67.6426 57.2844 67.5478 56.2165Z" fill="#263238"/>
<path d="M66.4295 60.9853C66.3735 61.1253 66.3258 61.2687 66.2869 61.4146C66.2451 61.527 66.2246 61.6465 66.2267 61.7666C66.2267 61.7908 66.2584 61.7924 66.2711 61.7763C66.3369 61.6701 66.3871 61.5548 66.42 61.4339C66.4675 61.302 66.5198 61.1702 66.5641 61.0351C66.5707 61.017 66.5698 60.997 66.5618 60.9795C66.5538 60.962 66.5392 60.9485 66.5214 60.9419C66.5035 60.9353 66.4838 60.9362 66.4666 60.9443C66.4493 60.9524 66.436 60.9672 66.4295 60.9853Z" fill="#263238"/>
<path d="M50.8825 85.3223C51.8495 83.4783 52.8451 81.6504 53.8454 79.8241C54.3385 78.9238 54.8521 78.0331 55.3229 77.12C55.7686 76.2171 56.1305 75.2741 56.4041 74.3033C57.0023 72.3323 57.5688 70.3522 58.1035 68.3629C58.6383 66.3737 59.1398 64.3764 59.608 62.3711C59.7269 61.8695 59.8553 61.3679 59.9504 60.8615C60.036 60.3502 60.036 59.8278 59.9504 59.3165C59.8762 58.8374 59.8725 58.3498 59.9393 57.8696C60.0141 57.3933 60.1248 56.9235 60.2706 56.4645C60.3452 56.2217 60.4292 55.9822 60.5084 55.741C60.518 55.7153 60.5592 55.7266 60.5512 55.7539C60.258 56.7185 59.9583 57.7072 60.0218 58.7361C60.0519 59.2297 60.1803 59.7152 60.1724 60.2136C60.1413 60.7076 60.0589 61.1969 59.9266 61.6734C59.4648 63.6905 58.9691 65.6995 58.4396 67.7006C57.9101 69.7016 57.35 71.693 56.7592 73.6747C56.4707 74.6393 56.2012 75.6168 55.7922 76.538C55.3832 77.4592 54.8648 78.3305 54.3765 79.2099C53.3683 81.032 52.3468 82.8433 51.3121 84.6439C51.1811 84.8722 51.0484 85.0999 50.9142 85.3272C50.8968 85.3513 50.8746 85.3432 50.8825 85.3223Z" fill="#263238"/>
<path d="M66.5164 46.3175C69.687 45.8352 73.6994 44.5844 74.1797 43.7757C74.7108 42.8851 75.6937 40.1359 76.136 37.2726C76.2168 36.7534 72.1474 36.6296 72.0523 36.9784C71.7003 38.3096 70.7063 41.6407 70.5573 41.7372C70.3639 41.8722 67.7038 43.3609 65.8252 44.4156C63.5598 45.6905 64.79 46.5795 66.5164 46.3175Z" fill="#E8A89F"/>
<path d="M76.0861 37.6312C76.1686 37.3869 76.9533 35.4384 76.9089 34.3098C76.8867 33.7117 76.6394 32.0767 76.2748 32.0446C75.945 32.0172 75.9054 32.4818 75.9054 32.4818C75.9054 32.4818 75.7849 31.7536 75.3268 31.7198C74.8686 31.686 74.8401 32.4738 74.8401 32.4738C74.8401 32.4738 74.6625 31.7359 74.206 31.7343C73.7494 31.7327 73.8493 32.5381 73.8493 32.5381C73.8493 32.5381 73.7177 31.8548 73.3388 32.0156C72.8838 32.2085 73.2659 33.44 73.1803 34.096C73.1612 34.2455 72.5557 37.0846 72.5557 37.0846L76.0861 37.6312Z" fill="#E8A89F"/>
<path d="M73.8299 32.5495C74.1087 33.4546 74.077 33.8999 73.8394 34.8002C73.8388 34.802 73.8385 34.8039 73.8386 34.8058C73.8387 34.8077 73.8391 34.8096 73.84 34.8113C73.8408 34.813 73.8419 34.8146 73.8433 34.8158C73.8447 34.8171 73.8463 34.8181 73.8481 34.8187C73.8499 34.8194 73.8517 34.8196 73.8536 34.8195C73.8555 34.8194 73.8573 34.819 73.859 34.8181C73.8607 34.8173 73.8622 34.8162 73.8635 34.8147C73.8647 34.8133 73.8657 34.8117 73.8663 34.8099C74.1832 33.9482 74.2972 33.3951 73.8663 32.5302C73.852 32.4916 73.8172 32.5061 73.8299 32.5495Z" fill="#263238"/>
<path d="M74.8217 32.4879C75.0292 33.4525 74.9991 33.9348 74.8217 34.8994C74.8217 34.9123 74.8423 34.9187 74.8454 34.8994C75.1005 33.9686 75.2066 33.4155 74.874 32.4766C74.8549 32.4429 74.8122 32.4445 74.8217 32.4879Z" fill="#263238"/>
<path d="M75.9031 32.5302C76.0393 33.4803 76.0267 34.0109 75.7336 34.924C75.7328 34.9263 75.7324 34.9286 75.7324 34.931C75.7325 34.9334 75.733 34.9357 75.734 34.9379C75.7349 34.94 75.7363 34.942 75.738 34.9436C75.7397 34.9452 75.7417 34.9465 75.7439 34.9474C75.7461 34.9482 75.7484 34.9486 75.7507 34.9485C75.7531 34.9485 75.7554 34.9479 75.7575 34.947C75.7596 34.946 75.7616 34.9446 75.7632 34.9429C75.7648 34.9411 75.766 34.9391 75.7669 34.9369C76.155 34.035 76.174 33.3726 75.9253 32.5254C75.9126 32.4707 75.892 32.4691 75.9031 32.5302Z" fill="#263238"/>
<path d="M71.9094 37.6682C71.9094 37.6682 71.5685 36.2872 71.5733 35.7519C71.578 35.2165 72.3136 33.2294 72.7448 33.3661C73.3044 33.5429 73.1015 34.776 72.924 35.366C72.924 35.366 74.216 35.7744 74.2604 36.6908C74.3048 37.6072 71.9094 37.6682 71.9094 37.6682Z" fill="#E8A89F"/>
<path d="M72.8909 33.4725C73.2856 34.0062 73.005 34.7586 72.875 35.3518C72.8727 35.3604 72.8724 35.3694 72.8743 35.3781C72.8761 35.3868 72.88 35.3948 72.8856 35.4016C72.8912 35.4085 72.8984 35.4138 72.9065 35.4171C72.9146 35.4205 72.9234 35.4218 72.9321 35.421C73.4616 35.6284 74.1512 36.0785 74.2939 36.6701C74.2949 36.673 74.2967 36.6754 74.2991 36.6772C74.3015 36.6789 74.3044 36.6799 74.3074 36.6799C74.3103 36.6799 74.3132 36.6789 74.3156 36.6772C74.318 36.6754 74.3199 36.673 74.3208 36.6701C74.2527 36.0158 73.6122 35.5174 73.0161 35.3277C73.1588 34.7297 73.4077 33.9548 72.8956 33.4725C72.8909 33.466 72.8814 33.4692 72.8909 33.4725Z" fill="#263238"/>
<path d="M71.61 38.0859L75.9949 39.1743C75.9949 39.1743 74.6775 43.7466 74.0006 44.2434C73.3237 44.7401 68.5408 46.433 65.7824 46.4459C64.9771 46.4459 63.3173 45.8221 65.6905 44.3559C68.0637 42.8897 70.3655 41.6052 70.4559 41.5023C70.5462 41.3994 71.61 38.0859 71.61 38.0859Z" fill="#7B55D3"/>
<path d="M71.4849 39.1551C71.7971 39.2646 72.1146 39.3579 72.4361 39.4348C72.7674 39.5265 73.1003 39.6069 73.4333 39.6888C73.7662 39.7708 75.1073 40.0522 75.4418 40.1229C75.4448 40.1229 75.4476 40.1217 75.4497 40.1196C75.4518 40.1175 75.4529 40.1146 75.4529 40.1117C75.4529 40.1087 75.4518 40.1058 75.4497 40.1037C75.4476 40.1016 75.4448 40.1004 75.4418 40.1004C75.1121 40.0088 73.801 39.6454 73.4745 39.5667C73.1479 39.4879 72.8213 39.4059 72.4932 39.3368C72.165 39.2676 71.821 39.176 71.4833 39.1406C71.4817 39.1406 71.477 39.1519 71.4849 39.1551Z" fill="#263238"/>
<path opacity="0.1" d="M68.1077 46.1748C67.342 46.3354 66.5637 46.4263 65.7821 46.4465C65.029 46.4465 63.5294 45.8999 65.2779 44.625L68.1077 46.1748Z" fill="black"/>
<path d="M60.2734 55.2095H69.1114C69.0918 54.941 69.0445 54.6754 68.9704 54.4169C68.4282 52.1662 66.6986 45.803 65.8901 44.6101C65.4399 43.9445 63.7325 43.795 63.0271 44.4686C61.6304 45.7998 60.5112 51.7321 60.191 54.1613C60.1307 54.5122 60.1591 54.8728 60.2734 55.2095Z" fill="#EBEBEB"/>
<path d="M63.2206 44.3359C63.2317 44.4967 63.9229 48.1735 63.9451 48.7763C63.9673 49.3792 63.2714 60.5912 63.2714 60.5912L58.6074 60.2166C58.6074 60.2166 59.7346 54.6572 59.7726 54.5736C59.8107 54.49 61.4911 46.7507 62.0713 45.6639C62.6515 44.5771 63.2206 44.3359 63.2206 44.3359Z" fill="#7B55D3"/>
<path d="M65.5537 44.2344C65.5537 44.2344 66.7839 49.2182 67.0296 50.022C67.2753 50.8259 68.6149 60.4896 68.6149 60.4896L70.2509 59.8964C70.2509 59.8964 68.1901 50.0413 66.4161 45.3003C66.1767 44.6749 65.5537 44.2344 65.5537 44.2344Z" fill="#7B55D3"/>
<path d="M65.7936 44.3516C65.9157 44.3516 66.3929 44.8467 66.4436 44.985C66.4943 45.1232 67.7451 52.0588 67.6167 52.8369C67.4883 53.615 65.0565 60.3383 65.0565 60.3383L64.1719 59.9461C64.1719 59.9461 66.7084 53.1424 66.7844 52.8932C66.8605 52.644 65.8666 44.8548 65.8333 44.6554C65.8 44.4561 65.7936 44.3516 65.7936 44.3516Z" fill="#7B55D3"/>
<path opacity="0.2" d="M65.7936 44.3516C65.9157 44.3516 66.3929 44.8467 66.4436 44.985C66.4943 45.1232 67.7451 52.0588 67.6167 52.8369C67.4883 53.615 65.0565 60.3383 65.0565 60.3383L64.1719 59.9461C64.1719 59.9461 66.7084 53.1424 66.7844 52.8932C66.8605 52.644 65.8666 44.8548 65.8333 44.6554C65.8 44.4561 65.7936 44.3516 65.7936 44.3516Z" fill="black"/>
<path d="M63.2825 44.3486C63.1826 44.2762 62.512 44.4129 62.3931 44.4965C62.2742 44.5801 59.2225 49.8115 58.8864 50.5333C58.5503 51.2551 55.7158 58.0299 55.7158 58.0299L56.667 58.2084C56.667 58.2084 59.4682 51.305 59.5396 51.0526C59.6109 50.8002 62.9416 44.7119 63.0764 44.5688L63.2825 44.3486Z" fill="#7B55D3"/>
<path opacity="0.2" d="M63.2825 44.3486C63.1826 44.2762 62.512 44.4129 62.3931 44.4965C62.2742 44.5801 59.2225 49.8115 58.8864 50.5333C58.5503 51.2551 55.7158 58.0299 55.7158 58.0299L56.667 58.2084C56.667 58.2084 59.4682 51.305 59.5396 51.0526C59.6109 50.8002 62.9416 44.7119 63.0764 44.5688L63.2825 44.3486Z" fill="black"/>
<path d="M55.539 58.1911L54.4424 64.2031L63.8516 65.9682L64.9482 59.9562L55.539 58.1911Z" fill="#7B55D3"/>
<path opacity="0.1" d="M55.539 58.1911L54.4424 64.2031L63.8516 65.9682L64.9482 59.9562L55.539 58.1911Z" fill="black"/>
<path opacity="0.1" d="M55.5409 58.1843L55.0244 61.0156L64.4336 62.7807L64.9501 59.9494L55.5409 58.1843Z" fill="black"/>
<path d="M65.3291 59.114L55.4756 57.2656L54.9638 60.0717L64.8173 61.9201L65.3291 59.114Z" fill="#7B55D3"/>
<path opacity="0.1" d="M65.3291 59.114L55.4756 57.2656L54.9638 60.0717L64.8173 61.9201L65.3291 59.114Z" fill="black"/>
<path d="M61.9633 57.4327L61.7778 58.4519L61.3228 58.3667L61.4291 57.7864L59.6963 57.4616L59.5901 58.042L59.1367 57.9568L59.3222 56.9375L61.9633 57.4327Z" fill="#263238"/>
<path d="M56.9404 59.5332L56.3008 59.4141L56.0588 60.7501L56.6985 60.8692L56.9404 59.5332Z" fill="#263238"/>
<path d="M63.5871 61.0032L62.9453 60.8828L62.7008 62.2234L63.3426 62.3438L63.5871 61.0032Z" fill="#263238"/>
<path d="M61.4542 45.8729C60.5871 46.7668 57.2548 50.8728 57.1137 51.8824C56.8965 53.4161 59.2538 58.3212 59.88 59.3854C60.1527 59.8501 63.6578 57.5848 63.4026 57.0688C63.2298 56.7215 60.8138 52.9933 60.7662 52.5673C60.7187 52.1412 62.1153 48.4789 63.0221 46.6189C63.8845 44.8392 63.29 43.979 61.4542 45.8729Z" fill="#E8A89F"/>
<path d="M66.5158 61.3746C66.4423 61.4868 66.3366 61.5734 66.213 61.6229C66.0895 61.6723 65.9539 61.6822 65.8246 61.6511C65.8255 61.8802 65.7476 62.1025 65.6043 62.2797C65.338 62.5803 64.7561 62.2797 64.7561 62.2797C64.709 62.5175 64.5925 62.7354 64.4216 62.9051C64.1379 63.1671 63.5101 62.9565 63.5101 62.9565C63.3482 63.1501 63.1232 63.2785 62.876 63.3183C62.2086 63.397 61.5681 62.5819 61.1559 62.0691C60.7438 61.5562 60.0462 59.7106 59.8877 59.3714L63.1122 56.6641C63.1122 56.6641 65.6043 58.4325 66.0038 59.1045C66.3319 59.6785 66.7822 60.9341 66.5158 61.3746Z" fill="#E8A89F"/>
<path d="M65.8579 61.5809C65.6424 60.8913 65.2368 60.3028 64.8661 59.6935C64.8582 59.6791 64.8376 59.6935 64.8455 59.7064C65.221 60.3093 65.4792 60.9781 65.8262 61.5954C65.8357 61.6115 65.8626 61.5986 65.8579 61.5809Z" fill="#263238"/>
<path d="M64.7908 62.2393C64.7268 62.0873 64.6432 61.9445 64.5421 61.8149C64.4454 61.6718 64.3441 61.5287 64.2427 61.3889C64.0383 61.1075 63.826 60.8294 63.609 60.5593C63.5995 60.5481 63.5789 60.5593 63.5884 60.5722C63.7933 60.8541 63.9918 61.1391 64.1841 61.4275C64.2791 61.5721 64.3742 61.7184 64.4676 61.8647C64.5476 62.0082 64.6427 62.1424 64.7512 62.2651C64.7553 62.268 64.7602 62.2697 64.7653 62.2698C64.7703 62.2699 64.7753 62.2685 64.7796 62.2658C64.7838 62.263 64.7872 62.259 64.7892 62.2543C64.7912 62.2496 64.7917 62.2444 64.7908 62.2393Z" fill="#263238"/>
<path d="M63.5003 62.9559C63.4404 62.8198 63.3585 62.6948 63.2579 62.5861C63.1613 62.4591 63.0663 62.3337 62.9728 62.2051C62.7827 61.9511 62.5942 61.6955 62.4135 61.435C62.4056 61.4222 62.3834 61.435 62.393 61.4479C62.5751 61.7148 62.7526 61.9832 62.9379 62.2517C63.0282 62.3819 63.1185 62.5106 63.2104 62.6392C63.2826 62.766 63.3771 62.8782 63.4892 62.9704C63.4911 62.9718 63.4935 62.9725 63.4959 62.9722C63.4983 62.9719 63.5004 62.9707 63.5019 62.9687C63.5034 62.9668 63.504 62.9644 63.5037 62.962C63.5035 62.9596 63.5022 62.9574 63.5003 62.9559Z" fill="#263238"/>
<path d="M63.4025 56.5297L59.5439 59.4654C59.5439 59.4654 56.8393 54.4687 56.9884 51.943C57.0502 50.9013 60.159 47.12 61.5509 45.6731C62.9427 44.2262 64.3093 43.948 63.087 46.7245C61.8647 49.501 60.8676 52.0122 60.9627 52.1906C61.0578 52.3691 63.4025 56.5297 63.4025 56.5297Z" fill="#7B55D3"/>
<path d="M62.6691 55.9618C62.3838 56.1291 62.1071 56.311 61.84 56.5068C61.5562 56.7013 61.2804 56.9039 61.003 57.1048C60.7256 57.3058 59.6428 58.1482 59.3717 58.3572C59.3606 58.3669 59.3717 58.3862 59.386 58.3765C59.6697 58.1836 60.7921 57.4119 61.0632 57.219C61.3343 57.0261 61.607 56.8235 61.8733 56.6177C62.1517 56.4178 62.4195 56.2032 62.6755 55.9746C62.6755 55.9746 62.6771 55.9569 62.6691 55.9618Z" fill="#263238"/>
<path d="M59.795 59.2659L59.551 59.4684L59.5415 59.4765L59.532 59.4636C59.401 59.2935 59.2874 59.1104 59.193 58.917C59.093 58.7256 59.0164 58.5226 58.9648 58.3125C59.0891 58.4871 59.2003 58.6709 59.2975 58.8623C59.3984 59.0512 59.4843 59.248 59.5542 59.4507H59.5352L59.795 59.2659Z" fill="#263238"/>
<path d="M63.1605 56.7167L63.3999 56.5302C62.964 55.8437 62.5423 55.1508 62.1317 54.4531C61.9224 54.1042 61.7211 53.7505 61.5198 53.3985C61.3184 53.0464 61.1187 52.6943 60.9475 52.3149C60.9365 52.2892 60.927 52.2629 60.9189 52.2361C60.9111 52.2039 60.9111 52.1703 60.9189 52.138C60.9254 52.0836 60.9365 52.0298 60.9522 51.9773C60.9792 51.876 61.0109 51.7795 61.0426 51.6815C61.1076 51.4885 61.1773 51.2956 61.2487 51.1059C61.3929 50.7249 61.5388 50.3439 61.6957 49.9693C62.0049 49.2153 62.3298 48.4677 62.6612 47.7266L61.7797 50.003C61.6371 50.3841 61.4881 50.7619 61.3501 51.1445C61.2804 51.3342 61.2122 51.5255 61.1504 51.7184C61.1187 51.8149 61.0886 51.9114 61.0632 52.0078C61.0508 52.0543 61.0413 52.1016 61.0347 52.1493C61.0298 52.1666 61.0298 52.185 61.0347 52.2023C61.0347 52.2184 61.0505 52.2441 61.0569 52.265C61.2154 52.6284 61.4231 52.9853 61.6165 53.3406L62.2141 54.4017L63.4126 56.5222L63.1605 56.7167Z" fill="#263238"/>
<path d="M62.3135 48.5378C62.3753 48.4623 62.4386 48.39 62.4941 48.3113C62.5495 48.2326 62.6049 48.1506 62.6524 48.0703C62.6248 48.1663 62.5796 48.2562 62.5194 48.3354C62.4626 48.4142 62.393 48.4826 62.3135 48.5378Z" fill="#263238"/>
<path d="M65.3353 45.7757C64.7757 45.8818 63.75 44.8995 63.4076 44.1857C63.3854 44.1375 63.4805 43.6391 63.5661 43.0266C63.6184 42.6552 63.6691 42.2404 63.6866 41.8594L66.0201 42.5587C65.8626 43.0269 65.762 43.5128 65.7205 44.0056C65.7185 44.0594 65.7217 44.1132 65.73 44.1664C65.73 44.1744 65.73 44.1825 65.73 44.1921C65.7681 44.496 65.8775 45.6744 65.3353 45.7757Z" fill="#E8A89F"/>
<path d="M66.0232 42.5587C65.893 42.9525 65.7996 43.3578 65.7442 43.7693C64.6535 44.4461 63.4756 43.6294 63.4756 43.6294C63.5041 43.4542 63.5358 43.2484 63.5691 43.0266C63.6214 42.6568 63.6722 42.2404 63.6896 41.8594L66.0232 42.5587Z" fill="#263238"/>
<path d="M66.3608 39.1177C66.6636 39.973 66.3323 42.4938 65.7505 43.087C64.9071 43.9391 63.4676 44.0886 62.7384 43.0468C62.0314 42.0372 62.5212 38.7527 63.1759 38.2126C64.1414 37.4151 65.9153 37.8573 66.3608 39.1177Z" fill="#E8A89F"/>
<path d="M64.0132 40.8125C64.0132 40.8125 64.0259 40.8221 64.0243 40.8286C63.9974 40.9988 63.9958 41.1964 64.14 41.2735C64.14 41.2735 64.14 41.2848 64.14 41.2832C63.9546 41.2269 63.961 40.9635 64.0132 40.8125Z" fill="#263238"/>
<path d="M64.1844 40.6565C64.4569 40.671 64.4094 41.224 64.1559 41.2096C63.9025 41.1951 63.9563 40.6421 64.1844 40.6565Z" fill="#263238"/>
<path d="M63.0756 40.7109C63.0756 40.7109 63.0614 40.7109 63.0614 40.7238C63.0519 40.8957 63.0123 41.09 62.8555 41.1334V41.143C63.044 41.1366 63.0931 40.8748 63.0756 40.7109Z" fill="#263238"/>
<path d="M62.9419 40.5182C62.6726 40.4732 62.6029 41.0231 62.8532 41.0649C63.1035 41.1067 63.1669 40.5568 62.9419 40.5182Z" fill="#263238"/>
<path d="M64.4217 40.4177C64.3521 40.3902 64.2839 40.3591 64.2174 40.3245C64.1411 40.3011 64.0744 40.2532 64.0273 40.188C64.0167 40.1645 64.0139 40.1382 64.0193 40.113C64.0247 40.0878 64.0381 40.065 64.0574 40.0482C64.1012 40.0218 64.1513 40.0078 64.2023 40.0078C64.2533 40.0078 64.3034 40.0218 64.3473 40.0482C64.4455 40.0855 64.5264 40.1589 64.5738 40.2538C64.5826 40.2758 64.585 40.2998 64.5807 40.3232C64.5765 40.3465 64.5657 40.368 64.5496 40.3853C64.5336 40.4026 64.513 40.4148 64.4904 40.4205C64.4677 40.4263 64.4438 40.4253 64.4217 40.4177Z" fill="#263238"/>
<path d="M62.7558 40.2187C62.8299 40.2099 62.9034 40.1971 62.976 40.1802C63.056 40.179 63.1331 40.1501 63.1946 40.0983C63.21 40.078 63.2184 40.0532 63.2184 40.0276C63.2184 40.002 63.21 39.9772 63.1946 39.9569C63.1591 39.9195 63.1144 39.8923 63.0652 39.8782C63.0159 39.8641 62.9638 39.8635 62.9142 39.8766C62.8103 39.887 62.7141 39.9369 62.645 40.0163C62.6298 40.0358 62.6206 40.0593 62.6186 40.084C62.6166 40.1087 62.6218 40.1335 62.6337 40.1551C62.6456 40.1768 62.6635 40.1944 62.6853 40.2057C62.707 40.217 62.7316 40.2216 62.7558 40.2187Z" fill="#263238"/>
<path d="M64.0747 42.3782C64.0303 42.4136 63.986 42.465 63.9242 42.465C63.8614 42.4587 63.8009 42.4384 63.7468 42.4056C63.7468 42.4056 63.7357 42.4056 63.7389 42.4056C63.7598 42.4415 63.7901 42.471 63.8264 42.4908C63.8627 42.5106 63.9036 42.52 63.9448 42.518C63.98 42.5119 64.0126 42.4954 64.0385 42.4705C64.0645 42.4457 64.0825 42.4135 64.0905 42.3782C64.0937 42.3766 64.081 42.3718 64.0747 42.3782Z" fill="#263238"/>
<path d="M63.9427 41.841C63.894 41.9048 63.8328 41.9578 63.763 41.9965C63.6933 42.0352 63.6164 42.0589 63.5371 42.0661C63.4679 42.0733 63.3979 42.0701 63.3296 42.0565C63.316 42.0563 63.3026 42.0535 63.29 42.0484H63.2536C63.2448 42.0457 63.2371 42.0401 63.2317 42.0326C63.2263 42.025 63.2234 42.0159 63.2235 42.0066C63.2227 42.0007 63.2227 41.9948 63.2235 41.9889V41.9729C63.2314 41.841 63.2615 41.6417 63.2615 41.6417C63.2124 41.6626 62.9605 41.751 62.97 41.6819C63.0373 41.09 63.1636 40.5067 63.347 39.9407C63.3481 39.9375 63.3501 39.9347 63.3528 39.9327C63.3555 39.9308 63.3587 39.9297 63.3621 39.9297C63.3654 39.9297 63.3687 39.9308 63.3714 39.9327C63.3741 39.9347 63.3761 39.9375 63.3771 39.9407C63.3185 40.489 63.1648 41.0227 63.0983 41.5709C63.1876 41.5385 63.2809 41.5185 63.3756 41.5115C63.3946 41.5115 63.3106 41.8957 63.3122 41.9552C63.4175 41.976 63.5258 41.9749 63.6306 41.952C63.7355 41.929 63.8346 41.8847 63.9221 41.8217C63.9411 41.8169 63.9538 41.8282 63.9427 41.841Z" fill="#263238"/>
<path d="M63.4062 42.0505C63.4743 42.1439 63.5648 42.218 63.6692 42.2658C63.7267 42.2905 63.7905 42.2961 63.8513 42.2818C63.9844 42.2497 63.9907 42.1212 63.9686 42.02C63.9564 41.9644 63.9378 41.9105 63.9131 41.8594C63.7685 41.9761 63.5909 42.0431 63.4062 42.0505Z" fill="#263238"/>
<path d="M63.6689 42.2614C63.7265 42.2861 63.7902 42.2917 63.8511 42.2775C63.9842 42.2453 63.9905 42.1168 63.9683 42.0156C63.8987 42.0175 63.8317 42.0426 63.7776 42.0871C63.7235 42.1315 63.6853 42.1928 63.6689 42.2614Z" fill="#FF98B9"/>
<path d="M66.5294 41.2954C65.8778 41.3597 65.5164 40.58 65.6511 39.9402C65.6511 39.9402 63.9232 40.2215 63.8027 38.8148C63.6685 39.013 63.4921 39.1781 63.2866 39.298C63.0811 39.4179 62.8517 39.4896 62.6153 39.5077L62.5107 40.0061C62.3315 39.9595 62.1286 39.4514 62.5535 39.0415C62.573 38.6083 62.7564 38.1995 63.0655 37.9C63.2007 37.7754 63.3684 37.6929 63.5487 37.6624C63.7289 37.6319 63.9139 37.6547 64.0817 37.728C64.3757 37.4912 64.7499 37.3814 65.1232 37.4225C65.3159 37.4479 65.4997 37.5195 65.6596 37.6313C65.8195 37.7432 65.9509 37.892 66.0427 38.0656C66.0427 38.0656 66.9067 38.2087 67.07 38.8244C67.1197 38.9979 67.1328 39.18 67.1085 39.359C67.0842 39.5379 67.023 39.7096 66.9289 39.863C66.9289 39.863 67.1508 40.1009 67.0557 40.6331C66.9923 40.9739 66.7244 41.2713 66.5294 41.2954Z" fill="#263238"/>
<path d="M63.8368 38.6797C63.8249 38.7941 63.8249 38.9094 63.8368 39.0237C63.8476 39.1371 63.8715 39.2488 63.9081 39.3565C63.9832 39.5682 64.1336 39.7437 64.3298 39.8485C64.5309 39.9468 64.7518 39.9963 64.975 39.9932C65.086 39.9932 65.2001 39.9932 65.3127 39.9755C65.4253 39.9578 65.5378 39.9433 65.652 39.9305C65.5426 39.961 65.43 39.9867 65.319 40.0141C65.2081 40.0414 65.0908 40.0414 64.975 40.0559C64.7396 40.0693 64.5046 40.0223 64.2918 39.9192C64.0816 39.8014 63.9256 39.6045 63.8574 39.371C63.7936 39.1459 63.7866 38.9082 63.8368 38.6797Z" fill="#263238"/>
<path d="M62.9639 39.5286C63.152 39.4578 63.3271 39.3557 63.4819 39.2263C63.5576 39.1625 63.6242 39.0884 63.6799 39.0061C63.7365 38.9214 63.7827 38.8302 63.8178 38.7344C63.8116 38.8408 63.7824 38.9445 63.7322 39.0382C63.6835 39.1345 63.6162 39.2198 63.5342 39.289C63.4533 39.3557 63.363 39.4099 63.2665 39.4498C63.1703 39.4919 63.0682 39.5185 62.9639 39.5286Z" fill="#263238"/>
<path d="M64.1012 41.6875C63.9148 41.6343 63.7568 41.5083 63.6617 41.3372C63.5666 41.166 63.5423 40.9637 63.5939 40.7744C63.6308 40.6412 63.7037 40.5211 63.8044 40.4278C63.9052 40.3345 64.0297 40.2717 64.1639 40.2466C64.298 40.2215 64.4364 40.2351 64.5634 40.2858C64.6903 40.3365 64.8007 40.4223 64.8819 40.5335C64.9632 40.6446 65.0121 40.7766 65.023 40.9145C65.034 41.0524 65.0066 41.1907 64.9439 41.3136C64.8813 41.4365 64.7859 41.5391 64.6686 41.6097C64.5513 41.6804 64.4168 41.7163 64.2804 41.7133C64.2198 41.7125 64.1596 41.7038 64.1012 41.6875ZM63.6954 40.8017C63.6613 40.9243 63.6638 41.0544 63.7027 41.1755C63.7416 41.2966 63.8151 41.4033 63.9138 41.482C64.0126 41.5607 64.1321 41.6079 64.2574 41.6176C64.3826 41.6274 64.5079 41.5991 64.6173 41.5365C64.7266 41.4739 64.8152 41.3798 64.8718 41.2661C64.9284 41.1524 64.9504 41.0242 64.935 40.8978C64.9197 40.7713 64.8676 40.6524 64.7855 40.556C64.7034 40.4596 64.5949 40.3902 64.4738 40.3564C64.4221 40.3417 64.3689 40.3336 64.3153 40.3323C64.1753 40.3302 64.0387 40.3751 63.9266 40.46C63.8145 40.5449 63.7332 40.6651 63.6954 40.8017Z" fill="#7B55D3"/>
<path d="M62.575 41.4663C62.2787 41.4245 62.0839 41.0612 62.1393 40.6625C62.1617 40.4795 62.2398 40.3081 62.3627 40.1721C62.4137 40.1131 62.4782 40.0675 62.5506 40.0395C62.6229 40.0115 62.7009 40.0018 62.7778 40.0114C62.8543 40.0249 62.9266 40.0569 62.9884 40.1048C63.0501 40.1526 63.0996 40.2149 63.1326 40.2863C63.215 40.4492 63.2455 40.634 63.2198 40.8152C63.1659 41.1978 62.9029 41.4824 62.6273 41.476L62.575 41.4663ZM62.4324 40.2348C62.3237 40.3557 62.2551 40.5081 62.2359 40.6705C62.1868 41.021 62.3453 41.3329 62.5892 41.3683C62.8332 41.4036 63.0645 41.1464 63.1184 40.7959C63.1438 40.6342 63.1188 40.4684 63.0471 40.3217C63.0211 40.2643 62.9819 40.214 62.9328 40.1751C62.8838 40.1363 62.8263 40.1099 62.7651 40.0982H62.7271C62.6705 40.0984 62.6146 40.1107 62.5631 40.1343C62.5115 40.1578 62.4653 40.1921 62.4276 40.2348H62.4324Z" fill="#7B55D3"/>
<path d="M63.6067 40.8664L63.678 40.8005C63.5813 40.6913 63.3453 40.5307 63.1426 40.6961L63.2044 40.7732C63.3865 40.6238 63.5972 40.8567 63.6067 40.8664Z" fill="#7B55D3"/>
<path d="M66.6554 41.5091L66.7473 41.4769C66.7315 41.4335 66.5888 41.0493 66.3827 40.9834C66.1766 40.9175 65.0194 40.8548 64.9639 40.8516V40.9512C65.4309 40.9671 65.8966 41.0096 66.3589 41.0782C66.4937 41.1297 66.6189 41.4046 66.6554 41.5091Z" fill="#7B55D3"/>
<path d="M65.7788 41.1872C65.7788 41.1872 66.3143 40.3609 66.6819 40.5522C67.0494 40.7435 66.6628 41.9316 66.243 42.1036C66.1905 42.1296 66.1333 42.1446 66.0749 42.1476C66.0165 42.1507 65.9582 42.1417 65.9033 42.1213C65.8484 42.1009 65.7981 42.0694 65.7555 42.0288C65.7129 41.9882 65.6788 41.9393 65.6553 41.8849L65.7788 41.1872Z" fill="#E8A89F"/>
<path d="M66.5633 40.8906C66.5633 40.8906 66.5712 40.8906 66.5633 40.9019C66.2671 41.0337 66.1181 41.3183 66.0168 41.6125C66.0332 41.5818 66.0561 41.555 66.0837 41.5341C66.1113 41.5131 66.143 41.4985 66.1767 41.4912C66.2104 41.4839 66.2453 41.484 66.2789 41.4916C66.3126 41.4992 66.3442 41.5141 66.3716 41.5353C66.3733 41.5361 66.3748 41.5373 66.3758 41.5389C66.3768 41.5404 66.3773 41.5423 66.3773 41.5441C66.3773 41.546 66.3768 41.5479 66.3758 41.5494C66.3748 41.551 66.3733 41.5522 66.3716 41.553C66.3185 41.537 66.2618 41.5384 66.2096 41.5568C66.1573 41.5753 66.112 41.6099 66.0801 41.6559C66.0272 41.7322 65.9825 41.8141 65.947 41.9002C65.9344 41.9276 65.8853 41.9147 65.8948 41.8826C65.8758 41.4903 66.1562 40.9405 66.5633 40.8906Z" fill="#263238"/>
<path d="M65.7456 44.2719L65.1764 45.6915L63.4405 43.8828L62.9443 44.4584C62.9443 44.4584 64.6358 47.3265 64.6469 47.1914L65.2319 45.968L66.0626 46.8249L66.004 44.6818L65.7456 44.2719Z" fill="#EBEBEB"/>
<path d="M66.0929 45.7768C66.0723 45.4248 66.0596 45.0679 66.0232 44.7158C66.0232 44.7029 66.0025 44.6965 65.9994 44.7158C65.928 45.0566 66.0152 46.4071 66.0121 46.7318C65.9772 46.6948 65.2416 45.9778 65.2353 45.9891C65.1084 46.1836 64.6788 47.0742 64.6503 47.1546C64.3824 46.6997 63.3567 45.0421 63.0396 44.6113C63.0391 44.6093 63.0382 44.6075 63.0369 44.606C63.0356 44.6045 63.034 44.6033 63.0321 44.6025C63.0303 44.6017 63.0283 44.6014 63.0263 44.6016C63.0243 44.6018 63.0224 44.6024 63.0207 44.6035C63.019 44.6045 63.0176 44.606 63.0165 44.6077C63.0155 44.6094 63.0149 44.6114 63.0147 44.6134C63.0145 44.6154 63.0148 44.6174 63.0156 44.6193C63.0163 44.6212 63.0175 44.6228 63.019 44.6241C63.2552 45.1064 64.6122 47.3347 64.6329 47.3299C64.8584 46.9096 65.0621 46.4776 65.2432 46.0357C65.3684 46.1964 66.1103 47.0003 66.1135 46.9488C66.1268 46.5581 66.1199 46.1669 66.0929 45.7768Z" fill="#263238"/>
<path d="M10.1947 43.0148C13.2599 43.0148 15.7448 40.4948 15.7448 37.3863C15.7448 34.2778 13.2599 31.7578 10.1947 31.7578C7.12941 31.7578 4.64453 34.2778 4.64453 37.3863C4.64453 40.4948 7.12941 43.0148 10.1947 43.0148Z" fill="#FFA95C"/>
<path opacity="0.1" d="M11.0832 42.8354C13.9873 42.4806 16.058 39.8054 15.7081 36.8602C15.3582 33.915 12.7202 31.8152 9.81607 32.17C6.91191 32.5248 4.84127 35.2 5.19117 38.1452C5.54107 41.0904 8.17901 43.1902 11.0832 42.8354Z" fill="black"/>
<path d="M12.2941 42.176C14.8371 41.1402 16.0715 38.2095 15.0513 35.6302C14.031 33.0509 11.1425 31.7996 8.59955 32.8354C6.05659 33.8712 4.82217 36.8019 5.84239 39.3813C6.86261 41.9606 9.75113 43.2119 12.2941 42.176Z" fill="white"/>
<path opacity="0.5" d="M15.2975 36.4421C13.0385 37.8295 9.32414 40.1076 7.24899 41.3567C6.66244 40.8549 6.1985 40.2221 5.89355 39.5079L12.7579 33.0547C13.399 33.3976 13.9584 33.8784 14.3971 34.4635C14.8358 35.0487 15.1431 35.7239 15.2975 36.4421Z" fill="#EBEBEB"/>
<path opacity="0.5" d="M15.4076 37.6875C15.3891 38.2473 15.2782 38.7999 15.0795 39.3225L8.89679 42.2919C8.62724 42.2009 8.36578 42.0869 8.11523 41.9511C9.97796 40.8546 13.3943 38.8611 15.4076 37.6875Z" fill="#EBEBEB"/>
<path d="M10.4964 32.8438H10.4014V33.6058H10.4964V32.8438Z" fill="#C7C7C7"/>
<path d="M8.19015 33.4354L8.10645 33.4844L8.4821 34.1442L8.5658 34.0952L8.19015 33.4354Z" fill="#C7C7C7"/>
<path d="M6.486 35.1275L6.43848 35.2109L7.08868 35.5916L7.1362 35.5082L6.486 35.1275Z" fill="#C7C7C7"/>
<path d="M6.59748 37.4531H5.84668V37.5495H6.59748V37.4531Z" fill="#C7C7C7"/>
<path d="M7.09064 39.4162L6.44043 39.7969L6.48795 39.8803L7.13816 39.4996L7.09064 39.4162Z" fill="#C7C7C7"/>
<path d="M8.48176 40.8634L8.10645 41.5234L8.19018 41.5724L8.56549 40.9124L8.48176 40.8634Z" fill="#C7C7C7"/>
<path d="M10.4964 41.4141H10.4014V42.1761H10.4964V41.4141Z" fill="#C7C7C7"/>
<path d="M12.4913 40.9354L12.4072 40.9844L12.7829 41.6472L12.867 41.5982L12.4913 40.9354Z" fill="#C7C7C7"/>
<path d="M13.8766 39.338L13.8291 39.4219L14.4823 39.8026L14.5298 39.7187L13.8766 39.338Z" fill="#C7C7C7"/>
<path d="M15.0477 37.4531H14.2969V37.5495H15.0477V37.4531Z" fill="#C7C7C7"/>
<path d="M14.408 35.1349L13.7578 35.5156L13.8053 35.5991L14.4555 35.2184L14.408 35.1349Z" fill="#C7C7C7"/>
<path d="M12.7083 33.4415L12.333 34.1016L12.4167 34.1505L12.7921 33.4905L12.7083 33.4415Z" fill="#C7C7C7"/>
<path d="M13.3992 34.3516L10.0352 37.5299L10.3712 37.8643L13.4911 34.4416L13.3992 34.3516Z" fill="#455A64"/>
<path d="M9.49609 34.2089L10.2866 37.8406L10.7365 37.7056L9.61808 34.1719L9.49609 34.2089Z" fill="#263238"/>
<path d="M10.3344 37.3929C10.3128 37.4156 10.2983 37.4442 10.2927 37.4752C10.287 37.5062 10.2905 37.5382 10.3027 37.5672C10.3148 37.5962 10.3351 37.621 10.361 37.6384C10.387 37.6557 10.4174 37.665 10.4484 37.665C10.4795 37.665 10.5099 37.6557 10.5358 37.6384C10.5617 37.621 10.5821 37.5962 10.5942 37.5672C10.6064 37.5382 10.6098 37.5062 10.6042 37.4752C10.5986 37.4442 10.584 37.4156 10.5625 37.3929C10.5477 37.3774 10.53 37.365 10.5104 37.3565C10.4908 37.3481 10.4697 37.3438 10.4484 37.3438C10.4271 37.3438 10.4061 37.3481 10.3865 37.3565C10.3669 37.365 10.3492 37.3774 10.3344 37.3929Z" fill="#FFA95C"/>
</svg>
