<svg width="74" height="74" viewBox="0 0 74 74" fill="none" xmlns="http://www.w3.org/2000/svg">
<g filter="url(#filter0_d_1_129982)">
<rect x="1" width="72" height="72" rx="36" fill="white" shape-rendering="crispEdges"/>
<g clip-path="url(#clip0_1_129982)">
<path d="M29.9297 21.3031C30.1275 21.3743 30.2491 21.3792 30.4526 21.3278C30.5019 21.3157 30.5512 21.3036 30.602 21.2911C30.7363 21.2559 30.8706 21.2207 31.0049 21.1855C32.4716 20.8061 34.0268 20.9326 35.354 21.6923C36.6041 22.4447 37.53 23.5915 37.9023 25.0102C38.0056 25.4334 38.0703 25.8293 38.07 26.2657C38.0701 26.3316 38.0701 26.3316 38.0702 26.3989C38.0703 26.5454 38.0699 26.692 38.0696 26.8385C38.0696 26.9438 38.0696 27.0492 38.0696 27.1545C38.0696 27.44 38.0693 27.7255 38.0688 28.011C38.0684 28.3095 38.0684 28.6081 38.0683 28.9066C38.0681 29.4717 38.0676 30.0368 38.067 30.6019C38.0663 31.2453 38.066 31.8888 38.0656 32.5322C38.065 33.8556 38.0639 35.179 38.0625 36.5023C38.1443 36.5019 38.1443 36.5019 38.2277 36.5015C39.5553 36.4946 40.8829 36.4894 42.2105 36.4862C42.8526 36.4845 43.4946 36.4824 44.1367 36.4788C44.6964 36.4757 45.2561 36.4736 45.8159 36.4729C46.1122 36.4725 46.4084 36.4716 46.7046 36.4693C46.9838 36.4672 47.263 36.4665 47.5421 36.467C47.6443 36.4669 47.7464 36.4663 47.8485 36.4651C48.4696 36.4581 49.0098 36.4825 49.4936 36.9227C49.964 37.4072 49.965 37.9749 49.9628 38.6139C49.9631 38.7004 49.9635 38.7869 49.9641 38.8734C49.9652 39.1071 49.9651 39.3408 49.9647 39.5746C49.9646 39.7703 49.9649 39.966 49.9653 40.1616C49.9662 40.6236 49.9661 41.0856 49.9654 41.5475C49.9647 42.0229 49.9655 42.4981 49.9672 42.9735C49.9686 43.3827 49.969 43.792 49.9686 44.2012C49.9684 44.4451 49.9686 44.689 49.9697 44.9329C49.9706 45.1625 49.9704 45.392 49.9692 45.6215C49.9689 45.745 49.9698 45.8684 49.9707 45.9919C49.9663 46.5291 49.9004 46.9933 49.551 47.4184C49.5045 47.4564 49.4581 47.4944 49.4102 47.5336C49.3638 47.5729 49.3175 47.6122 49.2698 47.6527C48.9841 47.8493 48.7487 47.8929 48.4041 47.8915C48.3228 47.8915 48.2415 47.8915 48.1577 47.8915C48.0696 47.8909 47.9814 47.8902 47.8933 47.8896C47.8027 47.8893 47.712 47.8891 47.6214 47.889C47.3835 47.8885 47.1457 47.8873 46.9078 47.8859C46.6648 47.8846 46.4218 47.8841 46.1788 47.8834C45.7026 47.8821 45.2263 47.8799 44.75 47.8773C44.75 48.2073 44.75 48.5373 44.75 48.8773C44.9111 48.8744 45.0723 48.8715 45.2383 48.8686C45.3957 48.8666 45.5531 48.8651 45.7105 48.8636C45.8193 48.8624 45.928 48.8607 46.0368 48.8585C46.1938 48.8554 46.3508 48.854 46.5078 48.8529C46.5558 48.8516 46.6038 48.8504 46.6533 48.849C47.0016 48.8489 47.2739 48.9275 47.5625 49.1273C47.8994 49.5506 47.8882 49.9056 47.8906 50.4242C47.8926 50.5248 47.8926 50.5248 47.8945 50.6273C47.8966 51.0547 47.8862 51.4018 47.5916 51.7362C47.3105 51.9447 47.1812 52.0101 46.8333 52.0115C46.7203 52.0122 46.7203 52.0122 46.605 52.0129C46.521 52.0131 46.437 52.0132 46.3531 52.0134C46.265 52.0138 46.1769 52.0142 46.0889 52.0147C45.8492 52.0157 45.6095 52.0164 45.3698 52.0169C45.2201 52.0172 45.0703 52.0176 44.9206 52.018C44.4521 52.0192 43.9837 52.0201 43.5152 52.0206C42.9744 52.0212 42.4336 52.0229 41.8928 52.0254C41.4749 52.0273 41.0569 52.0282 40.639 52.0284C40.3894 52.0286 40.1397 52.0291 39.8901 52.0307C39.6551 52.0321 39.4202 52.0324 39.1852 52.0318C39.0991 52.0317 39.013 52.0321 38.9269 52.033C38.1229 52.0406 38.1229 52.0406 37.8125 51.7523C37.5489 51.4887 37.558 51.4083 37.5 51.0023C32.055 51.0023 26.61 51.0023 21 51.0023C21 42.2863 21 42.2863 22.25 40.6898C22.2996 40.6461 22.2996 40.6461 22.3501 40.6014C22.5091 40.4212 22.4632 40.167 22.4616 39.9376C22.4619 39.8791 22.4622 39.8206 22.4626 39.7603C22.4634 39.5634 22.463 39.3665 22.4625 39.1696C22.4629 39.0288 22.4633 38.8879 22.4639 38.7471C22.4648 38.4432 22.4652 38.1394 22.4651 37.8355C22.465 37.3545 22.4662 36.8736 22.4676 36.3926C22.4694 35.7177 22.4707 35.0428 22.4715 34.3679C22.4715 34.3251 22.4716 34.2822 22.4716 34.2381C22.4718 34.0646 22.472 33.891 22.4722 33.7175C22.4727 33.2413 22.4734 32.7651 22.4742 32.2889C22.4742 32.2463 22.4743 32.2038 22.4744 32.1599C22.4755 31.4478 22.4771 30.7358 22.4791 30.0237C22.4803 29.5462 22.4809 29.0686 22.481 28.5911C22.4812 28.2929 22.4818 27.9947 22.4826 27.6966C22.4829 27.5589 22.483 27.4213 22.4828 27.2837C22.4806 25.3789 22.8528 23.8859 24.1992 22.4633C25.6561 21.0385 28.0283 20.5713 29.9297 21.3031ZM24.8477 23.3695C24.0078 24.2603 23.5888 25.37 23.6067 26.5854C23.607 26.655 23.6072 26.7247 23.6075 26.7965C23.6085 27.0162 23.6109 27.2358 23.6133 27.4555C23.6142 27.6056 23.6151 27.7558 23.6158 27.9059C23.6179 28.2714 23.621 28.6369 23.625 29.0023C23.6665 28.9895 23.708 28.9767 23.7507 28.9635C23.8059 28.9467 23.8611 28.9299 23.918 28.9125C23.9724 28.8958 24.0267 28.8791 24.0828 28.862C24.2419 28.8171 24.4 28.7825 24.5625 28.7523C24.5717 28.6964 24.5809 28.6405 24.5903 28.5829C24.7065 27.9565 24.8553 27.4244 25.3906 27.0375C25.5983 26.9095 25.7776 26.8541 26.0156 26.807C26.2345 26.7515 26.2945 26.7199 26.4126 26.5229C26.4643 26.3929 26.5118 26.2611 26.5542 26.1278C26.7095 25.7155 26.998 25.5105 27.375 25.3148C27.9186 25.0994 28.4832 25.1328 29.0203 25.3493C29.2641 25.4813 29.4486 25.656 29.6482 25.8468C30.5424 26.6932 31.622 27.2643 32.8125 27.5648C32.8682 27.5801 32.9238 27.5953 32.9812 27.611C33.5758 27.7482 34.2062 27.7008 34.8125 27.6898C34.7259 27.1542 34.4057 26.6546 33.9766 26.3263C33.2798 25.8523 32.5677 25.7807 31.75 25.6898C31.7913 25.3392 31.8325 24.9886 31.875 24.6273C33.1809 24.8179 34.3166 24.9911 35.2148 26.0609C35.8234 26.8816 35.96 27.7551 36 28.7523C36.0565 28.7652 36.113 28.778 36.1711 28.7912C36.2449 28.808 36.3186 28.8248 36.3945 28.8422C36.4678 28.8589 36.541 28.8755 36.6165 28.8927C36.8125 28.9398 36.8125 28.9398 37 29.0023C37.0031 28.6557 37.0054 28.3091 37.0069 27.9625C37.0075 27.845 37.0083 27.7276 37.0094 27.6101C37.0242 25.9834 36.8695 24.597 35.6875 23.3773C35.6367 23.3186 35.6367 23.3186 35.585 23.2587C34.8526 22.4412 33.6997 22.1287 32.6424 22.0683C31.9186 22.0509 31.1735 22.2046 30.5391 22.557C30.3143 22.6534 30.2254 22.588 30 22.5023C29.9378 22.4772 29.8756 22.4521 29.8115 22.4262C28.083 21.7414 26.2014 22.0813 24.8477 23.3695ZM27.4375 26.6273C27.2875 26.9805 27.125 27.365 27.125 27.7523C27.0804 27.7502 27.0359 27.748 26.99 27.7458C26.5273 27.7327 26.2164 27.7576 25.8516 28.0648C25.663 28.2969 25.6787 28.5132 25.6764 28.8016C25.676 28.8445 25.6756 28.8874 25.6752 28.9317C25.674 29.074 25.6732 29.2162 25.6726 29.3585C25.6724 29.4075 25.6721 29.4564 25.6718 29.5068C25.6705 29.7665 25.6696 30.0262 25.6691 30.2859C25.6684 30.5515 25.6662 30.8172 25.6637 31.0828C25.6621 31.2891 25.6616 31.4954 25.6613 31.7017C25.661 31.7994 25.6603 31.8972 25.6592 31.9949C25.6435 33.3895 26.0441 34.5768 27.0266 35.5973C27.3812 35.9393 27.751 36.1979 28.1851 36.4262C28.4659 36.5802 28.5701 36.7073 28.6875 37.0023C28.707 37.1695 28.7179 37.3231 28.7195 37.4901C28.7206 37.5354 28.7217 37.5806 28.7229 37.6273C28.7262 37.7705 28.7284 37.9138 28.7305 38.057C28.7325 38.1547 28.7347 38.2523 28.7369 38.35C28.7422 38.5883 28.7464 38.8265 28.75 39.0648C28.6312 39.0754 28.6312 39.0754 28.51 39.0861C28.174 39.1234 27.8539 39.202 27.5273 39.2875C27.4703 39.3021 27.4132 39.3167 27.3544 39.3318C27.2153 39.3675 27.0764 39.4035 26.9375 39.4398C26.9694 39.9361 26.9694 39.9361 27.1445 40.3969C27.1701 40.4456 27.1956 40.4944 27.2219 40.5446C27.629 41.1974 28.2043 41.4439 28.9195 41.6326C29.4664 41.7832 29.8762 42.0863 30.3125 42.4398C30.3496 42.4074 30.3868 42.3749 30.425 42.3415C30.9261 41.9199 31.4118 41.6852 32.0391 41.5063C32.6694 41.3181 33.0872 40.9987 33.4375 40.4398C33.6108 40.1015 33.6387 39.8303 33.6875 39.4398C33.0894 39.2955 32.4913 39.1511 31.875 39.0023C31.8707 38.7332 31.867 38.4643 31.8647 38.1952C31.8638 38.1037 31.8625 38.0123 31.8609 37.9209C31.8586 37.789 31.8575 37.6572 31.8567 37.5253C31.8557 37.4461 31.8547 37.3669 31.8537 37.2853C31.8836 36.9758 31.9773 36.7693 32.2046 36.5573C32.3597 36.4504 32.5172 36.3499 32.6787 36.2529C33.726 35.6178 34.4608 34.6691 34.7889 33.4808C34.9027 33.0093 34.8986 32.5433 34.8933 32.0619C34.893 31.9677 34.8927 31.8735 34.8925 31.7793C34.8918 31.5339 34.89 31.2886 34.8879 31.0432C34.8859 30.7918 34.8851 30.5404 34.8842 30.289C34.8822 29.7976 34.879 29.3062 34.875 28.8148C34.8271 28.8116 34.7791 28.8084 34.7297 28.8051C34.5095 28.7901 34.2893 28.7747 34.0691 28.7592C33.956 28.7516 33.956 28.7516 33.8406 28.7439C31.9347 28.6081 30.2819 27.8748 28.8909 26.5614C28.6079 26.3172 28.3904 26.2059 28.0171 26.2245C27.7434 26.2781 27.5931 26.398 27.4375 26.6273ZM36 29.8148C36 30.4748 36 31.1348 36 31.8148C36.4569 31.7496 36.5759 31.7004 36.8633 31.3734C36.9799 31.085 36.9776 30.8088 36.9375 30.5023C36.7927 30.1961 36.6074 30.0398 36.3125 29.8773C36.2094 29.8567 36.1062 29.8361 36 29.8148ZM23.8867 30.1547C23.654 30.4273 23.5958 30.6291 23.6057 30.9828C23.6434 31.2649 23.7557 31.4713 23.9802 31.6474C24.1898 31.7763 24.3137 31.8148 24.5625 31.8148C24.5625 31.1548 24.5625 30.4948 24.5625 29.8148C24.3118 29.8148 24.0652 30 23.8867 30.1547ZM23.625 32.6898C23.625 34.9173 23.625 37.1448 23.625 39.4398C23.9163 39.3233 24.1846 39.1885 24.4612 39.0419C25.1376 38.7369 25.8532 38.5862 26.5742 38.4281C26.7246 38.395 26.875 38.3617 27.0253 38.3281C27.118 38.3074 27.2108 38.2869 27.3036 38.2667C27.5132 38.2338 27.5132 38.2338 27.6875 38.1273C27.7527 37.8613 27.764 37.6416 27.6875 37.3773C27.4551 37.1692 27.1978 37.032 26.9258 36.8821C25.8597 36.2489 25.1502 35.0392 24.8125 33.8773C24.735 33.5675 24.6766 33.255 24.625 32.9398C24.5403 32.9206 24.5403 32.9206 24.4539 32.901C24.3801 32.8842 24.3064 32.8674 24.2305 32.85C24.1572 32.8333 24.084 32.8166 24.0085 32.7995C23.8125 32.7523 23.8125 32.7523 23.625 32.6898ZM36.4678 32.8302C36.2924 32.8835 36.1186 32.9129 35.9375 32.9398C35.9283 33.0012 35.9191 33.0625 35.9097 33.1256C35.6786 34.5569 35.019 35.8273 33.8748 36.746C33.7367 36.8428 33.6114 36.9205 33.4631 36.997C33.2498 37.1084 33.0552 37.2149 32.875 37.3773C32.807 37.6399 32.8234 37.8628 32.875 38.1273C33.1685 38.2311 33.462 38.306 33.7651 38.3739C33.8372 38.3903 33.8372 38.3903 33.9107 38.407C34.0628 38.4416 34.215 38.4759 34.3672 38.5102C34.4709 38.5337 34.5745 38.5572 34.6782 38.5807C34.9313 38.6381 35.1844 38.6953 35.4375 38.7523C35.441 38.6449 35.441 38.6449 35.4446 38.5353C35.4487 38.4397 35.4528 38.3441 35.457 38.2484C35.4584 38.2014 35.4599 38.1544 35.4613 38.106C35.4838 37.6327 35.6292 37.268 35.9497 36.9132C36.2574 36.6449 36.605 36.5682 37 36.5023C37 35.2442 37 33.9861 37 32.6898C36.8095 32.6898 36.646 32.7666 36.4678 32.8302ZM36.5625 37.8148C36.4816 37.9767 36.4916 38.0941 36.4908 38.2755C36.4904 38.3467 36.4899 38.4179 36.4894 38.4913C36.4893 38.5699 36.4891 38.6484 36.4889 38.7294C36.4885 38.8118 36.4881 38.8942 36.4877 38.9791C36.4866 39.2056 36.4859 39.4321 36.4854 39.6586C36.4851 39.8001 36.4847 39.9416 36.4843 40.0831C36.4831 40.5257 36.4823 40.9683 36.4817 41.4109C36.4811 41.9219 36.4795 42.433 36.477 42.944C36.4751 43.3389 36.4741 43.7338 36.4739 44.1287C36.4738 44.3647 36.4732 44.6006 36.4717 44.8365C36.4702 45.0584 36.4699 45.2804 36.4706 45.5024C36.4706 45.6226 36.4694 45.7428 36.4682 45.8629C36.4686 45.9347 36.4691 46.0065 36.4695 46.0804C36.4694 46.1426 36.4692 46.2049 36.4691 46.269C36.5086 46.4876 36.5985 46.593 36.75 46.7523C36.9162 46.8354 37.0416 46.8223 37.2277 46.8219C37.3015 46.8219 37.3753 46.8219 37.4514 46.8219C37.5714 46.8214 37.5714 46.8214 37.6938 46.8209C37.8164 46.8208 37.8164 46.8208 37.9413 46.8207C38.1585 46.8204 38.3758 46.8198 38.593 46.8191C38.8146 46.8185 39.0362 46.8182 39.2578 46.8179C39.6927 46.8172 40.1276 46.8162 40.5625 46.8148C40.5634 46.7345 40.5643 46.6541 40.5653 46.5713C40.5689 46.2711 40.5737 45.971 40.5789 45.6708C40.581 45.5413 40.5827 45.4117 40.5842 45.2822C40.5863 45.0952 40.5895 44.9083 40.593 44.7213C40.5934 44.6641 40.5938 44.6068 40.5942 44.5479C40.6066 43.9976 40.7316 43.4709 41.125 43.0648C41.6086 42.7073 42.0899 42.7372 42.668 42.7328C42.7844 42.7301 42.7844 42.7301 42.9032 42.7273C43.4399 42.7236 43.8521 42.7732 44.2712 43.1251C44.3207 43.1862 44.3207 43.1862 44.3711 43.2484C44.4052 43.289 44.4393 43.3295 44.4744 43.3712C44.6377 43.6142 44.7028 43.8344 44.7074 44.1257C44.7093 44.2158 44.7093 44.2158 44.7112 44.3076C44.7123 44.4037 44.7123 44.4037 44.7134 44.5016C44.7146 44.5678 44.7158 44.6339 44.717 44.7021C44.7208 44.9128 44.7237 45.1236 44.7266 45.3344C44.7289 45.4775 44.7314 45.6206 44.7339 45.7637C44.7399 46.1141 44.7452 46.4645 44.75 46.8148C45.2335 46.8221 45.7171 46.8276 46.2006 46.831C46.4252 46.8327 46.6497 46.8349 46.8743 46.8384C47.0911 46.8418 47.3078 46.8437 47.5247 46.8445C47.6474 46.8454 47.7701 46.8478 47.8928 46.8503C47.9679 46.8503 48.043 46.8503 48.1203 46.8503C48.2192 46.8514 48.2192 46.8514 48.3201 46.8524C48.5858 46.7969 48.6623 46.7311 48.8125 46.5023C48.8586 46.2281 48.8539 45.9567 48.851 45.6791C48.8512 45.5945 48.8515 45.5099 48.852 45.4252C48.8529 45.1959 48.8518 44.9666 48.8504 44.7373C48.8491 44.4971 48.8495 44.257 48.8496 44.0169C48.8496 43.6138 48.8484 43.2106 48.8464 42.8075C48.8441 42.3415 48.8435 41.8754 48.844 41.4094C48.8444 40.9609 48.8437 40.5124 48.8425 40.064C48.8419 39.8732 48.8418 39.6824 48.8419 39.4915C48.8419 39.2669 48.841 39.0423 48.8394 38.8176C48.8388 38.6959 48.839 38.5741 48.8393 38.4523C48.8386 38.3799 48.8379 38.3074 48.8372 38.2327C48.8369 38.1698 48.8367 38.1068 48.8364 38.0419C48.8086 37.8502 48.7594 37.7653 48.625 37.6273C48.4051 37.554 48.2069 37.5556 47.9781 37.5556C47.9309 37.5554 47.8838 37.5552 47.8352 37.555C47.6767 37.5543 47.5182 37.554 47.3598 37.5538C47.2463 37.5534 47.1329 37.553 47.0195 37.5525C46.711 37.5515 46.4025 37.5508 46.094 37.5503C45.9013 37.55 45.7087 37.5496 45.516 37.5492C44.9135 37.548 44.311 37.5471 43.7085 37.5466C43.0125 37.546 42.3165 37.5443 41.6205 37.5418C41.0829 37.5399 40.5452 37.539 40.0075 37.5388C39.6862 37.5386 39.3649 37.5381 39.0436 37.5365C38.7415 37.5351 38.4393 37.5348 38.1372 37.5354C38.0262 37.5355 37.9153 37.5351 37.8044 37.5342C37.653 37.5331 37.5017 37.5335 37.3503 37.5344C37.3063 37.5337 37.2624 37.533 37.2171 37.5323C36.9205 37.5362 36.771 37.6056 36.5625 37.8148ZM25.541 39.7526C25.4542 39.7843 25.3676 39.8168 25.2812 39.85C25.2132 39.8761 25.2132 39.8761 25.1439 39.9027C23.8146 40.4267 22.9357 41.411 22.3611 42.6981C22.1136 43.2924 22.0528 43.903 22.0554 44.5403C22.0554 44.5989 22.0554 44.6575 22.0554 44.7178C22.0554 44.9102 22.0559 45.1027 22.0564 45.2951C22.0565 45.429 22.0566 45.5629 22.0567 45.6968C22.0569 46.0483 22.0575 46.3998 22.0582 46.7513C22.059 47.1735 22.0592 47.5957 22.0596 48.018C22.0602 48.6586 22.0614 49.2992 22.0625 49.9398C23.0731 49.9398 24.0838 49.9398 25.125 49.9398C25.125 47.8773 25.125 45.8148 25.125 43.6898C25.4756 43.6898 25.8263 43.6898 26.1875 43.6898C26.1875 45.7523 26.1875 47.8148 26.1875 49.9398C29.9206 49.9398 33.6537 49.9398 37.5 49.9398C37.5619 49.7336 37.6238 49.5273 37.6875 49.3148C37.9545 49.0236 38.1012 48.9913 38.5 48.8773C38.5 48.5473 38.5 48.2173 38.5 47.8773C38.3659 47.8757 38.2319 47.8741 38.0938 47.8725C37.9624 47.8701 37.831 47.8672 37.6997 47.8644C37.6091 47.8626 37.5186 47.8613 37.428 47.8604C36.8222 47.8541 36.3795 47.8242 35.8906 47.4242C35.5376 46.9928 35.4631 46.6204 35.4659 46.0702C35.4652 46.0037 35.4646 45.9372 35.4639 45.8686C35.4621 45.6502 35.462 45.4318 35.4619 45.2133C35.461 45.0613 35.4599 44.9092 35.4588 44.7572C35.4561 44.3581 35.4548 43.9591 35.4539 43.56C35.4526 43.1523 35.45 42.7447 35.4475 42.3371C35.4428 41.538 35.4396 40.7389 35.4375 39.9398C35.2063 39.8204 35.0087 39.7279 34.75 39.6898C34.7363 39.7495 34.7226 39.8092 34.7085 39.8708C34.4891 40.7837 34.1023 41.5954 33.2969 42.1391C32.9758 42.3193 32.6308 42.4165 32.2812 42.5258C31.7656 42.6885 31.384 42.8602 31 43.2523C30.9369 43.314 30.8738 43.3755 30.8105 43.4369C30.6419 43.6021 30.4766 43.7701 30.3125 43.9398C30.0488 43.722 29.8094 43.497 29.5742 43.2484C29.1419 42.8155 28.7084 42.649 28.1289 42.4789C27.3505 42.2483 26.761 41.839 26.3301 41.1408C26.1155 40.7417 25.9974 40.3547 25.915 39.9098C25.9018 39.8579 25.8886 39.8059 25.875 39.7523C25.7398 39.6669 25.7398 39.6669 25.541 39.7526ZM41.6875 44.0648C41.6512 44.2421 41.6395 44.3657 41.6449 44.5421C41.6449 44.5891 41.6448 44.6361 41.6448 44.6845C41.645 44.8391 41.6479 44.9935 41.6509 45.1481C41.6516 45.2555 41.6521 45.363 41.6525 45.4705C41.6539 45.7527 41.6576 46.0349 41.6618 46.3172C41.6656 46.6054 41.6673 46.8937 41.6692 47.1819C41.6732 47.7471 41.6798 48.3122 41.6875 48.8773C42.3475 48.8773 43.0075 48.8773 43.6875 48.8773C43.6931 48.2634 43.6977 47.6495 43.7005 47.0356C43.7018 46.7505 43.7035 46.4654 43.7064 46.1803C43.7091 45.9052 43.7106 45.63 43.7112 45.3549C43.7117 45.2499 43.7126 45.145 43.7139 45.0401C43.7157 44.893 43.716 44.746 43.7159 44.5989C43.7168 44.5556 43.7177 44.5123 43.7186 44.4677C43.7167 44.2493 43.6903 44.1318 43.5724 43.9455C43.3141 43.6953 43.007 43.7345 42.668 43.7289C42.6153 43.7266 42.5627 43.7242 42.5084 43.7218C42.4311 43.7207 42.4311 43.7207 42.3523 43.7196C42.2824 43.7178 42.2824 43.7178 42.2111 43.7159C41.9888 43.7704 41.8316 43.8914 41.6875 44.0648ZM39.625 47.8773C39.625 48.2073 39.625 48.5373 39.625 48.8773C39.9344 48.8773 40.2437 48.8773 40.5625 48.8773C40.5625 48.5473 40.5625 48.2173 40.5625 47.8773C40.2531 47.8773 39.9438 47.8773 39.625 47.8773ZM38.5625 49.9398C38.5625 50.2698 38.5625 50.5998 38.5625 50.9398C41.2644 50.9398 43.9662 50.9398 46.75 50.9398C46.75 50.6098 46.75 50.2798 46.75 49.9398C44.0481 49.9398 41.3463 49.9398 38.5625 49.9398Z" fill="#7B55D3"/>
<path d="M46.2655 19.9771C46.3458 19.9774 46.4261 19.9778 46.5089 19.9781C48.3479 20.0017 49.9545 20.787 51.2445 22.0857C52.5918 23.4957 53.0364 25.257 53.0172 27.1624C52.9718 28.934 52.0996 30.5074 50.849 31.7254C49.3871 33.0481 47.6152 33.517 45.68 33.4443C44.1811 33.3591 42.8066 32.6509 41.6873 31.6841C41.6173 31.6237 41.6173 31.6237 41.5457 31.562C40.3526 30.4464 39.6033 28.7487 39.5413 27.1255C39.5179 25.5626 39.8063 24.093 40.7498 22.8091C40.7875 22.7576 40.8253 22.7061 40.8641 22.6531C41.9303 21.264 43.4524 20.3204 45.182 20.0211C45.5425 19.9753 45.9025 19.9754 46.2655 19.9771ZM46.8123 21.0591C46.8123 21.3891 46.8123 21.7191 46.8123 22.0591C46.4617 22.0591 46.1111 22.0591 45.7498 22.0591C45.7498 21.7497 45.7498 21.4403 45.7498 21.1216C44.635 21.1216 43.62 21.6397 42.7498 22.3091C42.8379 22.51 42.9438 22.6417 43.1014 22.7935C43.1409 22.8318 43.1804 22.8702 43.221 22.9097C43.2512 22.9384 43.2813 22.967 43.3123 22.9966C43.22 23.2123 43.0975 23.3497 42.9295 23.5122C42.8843 23.5564 42.839 23.6005 42.7923 23.646C42.7577 23.6792 42.723 23.7124 42.6873 23.7466C42.4864 23.6586 42.3547 23.5526 42.203 23.395C42.1646 23.3556 42.1263 23.3161 42.0868 23.2754C42.0581 23.2453 42.0294 23.2151 41.9998 23.1841C41.5683 23.3398 41.3513 23.9172 41.1568 24.3091C40.8972 24.9006 40.6873 25.5361 40.6873 26.1841C41.0173 26.1841 41.3473 26.1841 41.6873 26.1841C41.6873 26.5347 41.6873 26.8853 41.6873 27.2466C41.3573 27.2466 41.0273 27.2466 40.6873 27.2466C40.7313 28.3167 41.1806 29.4277 41.8748 30.2466C42.129 30.1368 42.2706 29.9739 42.451 29.7693C42.5623 29.6841 42.5623 29.6841 42.6842 29.6875C42.8477 29.7629 42.9537 29.8585 43.0819 29.9849C43.1492 30.0493 43.1492 30.0493 43.2179 30.115C43.3123 30.2466 43.3123 30.2466 43.3114 30.3713C43.2312 30.5346 43.1274 30.637 42.9959 30.7622C42.9501 30.8064 42.9043 30.8505 42.857 30.896C42.8217 30.9292 42.7863 30.9624 42.7498 30.9966C42.8877 31.4102 43.4974 31.6269 43.867 31.8208C44.479 32.1169 45.0721 32.2729 45.7498 32.3091C45.7498 31.9791 45.7498 31.6491 45.7498 31.3091C46.1005 31.3091 46.4511 31.3091 46.8123 31.3091C46.8123 31.6391 46.8123 31.9691 46.8123 32.3091C47.9161 32.2776 48.9611 31.8094 49.8123 31.1216C49.7243 30.9206 49.6184 30.789 49.4608 30.6372C49.4213 30.5989 49.3818 30.5605 49.3412 30.521C49.311 30.4923 49.2809 30.4636 49.2498 30.4341C49.3422 30.2183 49.4647 30.081 49.6327 29.9185C49.6779 29.8743 49.7232 29.8302 49.7699 29.7847C49.8218 29.7349 49.8218 29.7349 49.8748 29.6841C50.0758 29.7721 50.2075 29.8781 50.3592 30.0357C50.3976 30.0751 50.4359 30.1146 50.4754 30.1553C50.5041 30.1854 50.5328 30.2155 50.5623 30.2466C51.0182 30.0831 51.2815 29.3906 51.4842 28.9732C51.7258 28.4147 51.8748 27.8555 51.8748 27.2466C51.5448 27.2466 51.2148 27.2466 50.8748 27.2466C50.8748 26.896 50.8748 26.5453 50.8748 26.1841C51.2048 26.1841 51.5348 26.1841 51.8748 26.1841C51.8748 25.1623 51.4334 24.2125 50.8748 23.3716C50.7511 23.2478 50.7511 23.2478 50.6248 23.1216C50.4186 23.3278 50.2123 23.5341 49.9998 23.7466C49.7706 23.632 49.6581 23.5434 49.4842 23.3638C49.4401 23.3185 49.3959 23.2732 49.3504 23.2266C49.3006 23.1746 49.3006 23.1746 49.2498 23.1216C49.3422 22.9058 49.4647 22.7685 49.6327 22.606C49.6779 22.5618 49.7232 22.5177 49.7699 22.4722C49.8218 22.4224 49.8218 22.4224 49.8748 22.3716C49.0872 21.5277 47.9082 21.2352 46.8123 21.0591Z" fill="#65C7C3"/>
<path d="M45.7495 23.0625C46.1001 23.0625 46.4508 23.0625 46.812 23.0625C46.812 23.4131 46.812 23.7637 46.812 24.125C46.9564 24.125 47.1008 24.125 47.2495 24.125C47.6917 24.2398 47.9888 24.5801 48.2495 24.9375C48.3726 25.1991 48.3777 25.4019 48.3745 25.6875C48.2025 25.6976 48.0311 25.7051 47.8589 25.7109C47.8103 25.7141 47.7617 25.7172 47.7117 25.7205C47.5693 25.7241 47.4501 25.7229 47.312 25.6875C47.1607 25.5024 47.1607 25.5024 47.062 25.3125C46.8275 25.1952 46.5467 25.233 46.2886 25.2305C46.2286 25.2287 46.1687 25.2268 46.1069 25.225C45.7619 25.217 45.7619 25.217 45.4597 25.3643C45.3445 25.5479 45.3428 25.6622 45.3745 25.875C45.4904 26.035 45.5581 26.0612 45.7495 26.125C45.859 26.1314 45.9687 26.1347 46.0784 26.136C46.1756 26.1382 46.1756 26.1382 46.2748 26.1405C46.4104 26.1432 46.5459 26.1451 46.6815 26.1464C47.1821 26.1597 47.5231 26.2398 47.9033 26.5718C48.2865 27.0175 48.4097 27.3396 48.398 27.9312C48.3476 28.3474 48.1584 28.6825 47.8511 28.9648C47.5113 29.225 47.251 29.3125 46.812 29.3125C46.812 29.6631 46.812 30.0138 46.812 30.375C46.4614 30.375 46.1108 30.375 45.7495 30.375C45.7495 30.0244 45.7495 29.6737 45.7495 29.3125C45.6683 29.3099 45.5871 29.3073 45.5034 29.3047C45.0997 29.2589 44.8 29.0616 44.5242 28.7683C44.267 28.4343 44.187 28.1091 44.187 27.6875C44.5583 27.6875 44.9295 27.6875 45.312 27.6875C45.3533 27.8113 45.3945 27.935 45.437 28.0625C45.6869 28.2455 45.9799 28.2082 46.2769 28.207C46.3298 28.208 46.3826 28.209 46.4371 28.2101C46.7367 28.2103 46.9465 28.1994 47.187 28C47.2601 27.8532 47.2601 27.8532 47.2495 27.6875C47.1401 27.4555 47.1401 27.4555 46.937 27.3125C46.8296 27.3051 46.7219 27.3013 46.6143 27.2993C46.5493 27.2975 46.4842 27.2958 46.4172 27.2939C46.2809 27.2907 46.1445 27.2879 46.0081 27.2856C45.4508 27.2692 45.0176 27.1828 44.5957 26.7966C44.2797 26.4381 44.1612 26.0004 44.1704 25.531C44.226 25.0083 44.4616 24.6833 44.8547 24.3496C45.1762 24.1284 45.3388 24.125 45.7495 24.125C45.7495 23.7744 45.7495 23.4238 45.7495 23.0625Z" fill="#65C7C3"/>
<path d="M28.1875 33.9375C28.5588 33.9375 28.93 33.9375 29.3125 33.9375C29.3357 34.0239 29.3589 34.1102 29.3828 34.1992C29.485 34.5083 29.6062 34.6333 29.875 34.8125C30.1664 34.9096 30.4055 34.909 30.6953 34.8047C31.0532 34.5713 31.1777 34.3418 31.3125 33.9375C31.6631 33.9375 32.0138 33.9375 32.375 33.9375C32.375 34.554 32.1844 35.0531 31.75 35.5C31.1765 35.9633 30.6039 36.0682 29.8818 36.0179C29.4069 35.9535 28.9703 35.6626 28.6541 35.3108C28.3296 34.8739 28.2106 34.4775 28.1875 33.9375Z" fill="#7B55D3"/>
<path d="M33.2114 29.9823C33.5578 30.2875 33.8491 30.5982 33.9379 31.0643C33.9521 31.3373 33.9465 31.603 33.9379 31.8768C33.5667 31.8768 33.1954 31.8768 32.8129 31.8768C32.8048 31.6876 32.7967 31.4984 32.7885 31.3092C32.7664 31.1224 32.7664 31.1224 32.6367 31.0084C32.4292 30.9032 32.2828 30.9448 32.0629 31.0018C31.9261 31.2071 31.9159 31.3037 31.8989 31.5448C31.8911 31.6543 31.8834 31.7639 31.8754 31.8768C31.5042 31.8768 31.1329 31.8768 30.7504 31.8768C30.7275 31.2802 30.7487 30.7706 31.1372 30.2909C31.6999 29.7032 32.4891 29.6211 33.2114 29.9823Z" fill="#7B55D3"/>
<path d="M29.0864 29.9823C29.4328 30.2875 29.7241 30.5982 29.8129 31.0643C29.8271 31.3373 29.8215 31.603 29.8129 31.8768C29.4417 31.8768 29.0704 31.8768 28.6879 31.8768C28.6798 31.6876 28.6717 31.4984 28.6635 31.3092C28.6414 31.1224 28.6414 31.1224 28.5117 31.0084C28.3042 30.9032 28.1578 30.9448 27.9379 31.0018C27.8011 31.2071 27.7909 31.3037 27.7739 31.5448C27.7661 31.6543 27.7584 31.7639 27.7504 31.8768C27.3792 31.8768 27.0079 31.8768 26.6254 31.8768C26.6025 31.2802 26.6237 30.7706 27.0122 30.2909C27.5749 29.7032 28.3641 29.6211 29.0864 29.9823Z" fill="#7B55D3"/>
<path d="M30.2812 46.7734C30.5 46.8125 30.5 46.8125 30.6836 46.9375C30.8619 47.1969 30.8569 47.3144 30.8125 47.625C30.7227 47.7812 30.7227 47.7812 30.5625 47.875C30.3668 47.9127 30.1953 47.9159 30 47.875C29.7928 47.7082 29.7569 47.6052 29.7148 47.3438C29.75 47.125 29.75 47.125 29.8789 46.9414C30.0625 46.8125 30.0625 46.8125 30.2812 46.7734Z" fill="#7B55D3"/>
<path d="M30.2815 44.7109C30.5003 44.75 30.5003 44.75 30.6839 44.875C30.8622 45.1344 30.8571 45.2519 30.8128 45.5625C30.719 45.7188 30.719 45.7188 30.5628 45.8125C30.2521 45.8569 30.1347 45.8619 29.8753 45.6836C29.7172 45.4514 29.701 45.3382 29.7503 45.0625C29.9123 44.8318 30.0029 44.7607 30.2815 44.7109Z" fill="#7B55D3"/>
</g>
</g>
<defs>
<filter id="filter0_d_1_129982" x="0" y="0" width="74" height="74" filterUnits="userSpaceOnUse" color-interpolation-filters="sRGB">
<feFlood flood-opacity="0" result="BackgroundImageFix"/>
<feColorMatrix in="SourceAlpha" type="matrix" values="0 0 0 0 0 0 0 0 0 0 0 0 0 0 0 0 0 0 127 0" result="hardAlpha"/>
<feOffset dy="1"/>
<feGaussianBlur stdDeviation="0.5"/>
<feComposite in2="hardAlpha" operator="out"/>
<feColorMatrix type="matrix" values="0 0 0 0 0 0 0 0 0 0 0 0 0 0 0 0 0 0 0.04 0"/>
<feBlend mode="normal" in2="BackgroundImageFix" result="effect1_dropShadow_1_129982"/>
<feBlend mode="normal" in="SourceGraphic" in2="effect1_dropShadow_1_129982" result="shape"/>
</filter>
<clipPath id="clip0_1_129982">
<rect width="32" height="32" fill="white" transform="translate(21 20)"/>
</clipPath>
</defs>
</svg>
