<svg width="74" height="74" viewBox="0 0 74 74" fill="none" xmlns="http://www.w3.org/2000/svg">
<g filter="url(#filter0_d_1_129881)">
<rect x="1" width="72" height="72" rx="36" fill="white" shape-rendering="crispEdges"/>
<g clip-path="url(#clip0_1_129881)">
<path d="M38.75 20.2537C39.4067 20.6425 39.8433 21.1436 40.0625 21.8787C40.0625 21.9405 40.0625 22.0024 40.0625 22.0662C42.4756 22.0662 44.8888 22.0662 47.375 22.0662C47.2188 24.0974 47.2188 24.0974 47.1459 24.7167C47.1092 25.3326 47.1257 25.9538 47.4375 26.5037C47.6421 26.73 47.8724 26.9137 48.1134 27.1C49.3432 28.0576 50.5009 29.0109 50.7045 30.6403C50.8352 31.815 50.7906 33.0096 50.7477 34.1883C50.7256 34.8089 50.7237 35.4286 50.7213 36.0497C50.7057 37.6804 50.6638 39.3108 50.625 40.9412C50.5631 44.5918 50.5012 48.2424 50.4375 52.0037C42.5794 52.0037 34.7212 52.0037 26.625 52.0037C26.625 50.993 26.625 49.9824 26.625 48.9412C25.6144 48.9412 24.6037 48.9412 23.5625 48.9412C23.5625 40.0724 23.5625 31.2037 23.5625 22.0662C27.3163 22.0455 31.07 22.0249 34.9375 22.0037C35.02 21.7768 35.1025 21.5499 35.1875 21.3162C35.98 20.1649 37.4275 19.5278 38.75 20.2537ZM24.625 23.1287C24.625 31.2755 24.625 39.4224 24.625 47.8162C25.285 47.8162 25.945 47.8162 26.625 47.8162C26.625 40.3293 26.625 32.8424 26.625 25.1287C29.3475 25.1287 32.07 25.1287 34.875 25.1287C34.875 24.4687 34.875 23.8087 34.875 23.1287C31.4925 23.1287 28.11 23.1287 24.625 23.1287ZM40.125 23.1287C40.125 23.7887 40.125 24.4487 40.125 25.1287C40.3933 25.1305 40.3933 25.1305 40.6671 25.1324C41.2573 25.1366 41.8475 25.1415 42.4377 25.1466C42.7957 25.1498 43.1536 25.1527 43.5116 25.155C43.8569 25.1573 44.2021 25.1602 44.5474 25.1636C44.6793 25.1647 44.8112 25.1657 44.9431 25.1664C45.1275 25.1674 45.3118 25.1692 45.4962 25.1712C45.551 25.1714 45.6059 25.1715 45.6624 25.1717C46.0411 25.1769 46.0411 25.1769 46.25 25.3162C46.25 24.5943 46.25 23.8724 46.25 23.1287C44.2288 23.1287 42.2075 23.1287 40.125 23.1287ZM36.3125 21.6287C36.028 22.0269 35.9905 22.3726 35.9889 22.8502C35.9883 22.9309 35.9883 22.9309 35.9877 23.0132C35.9865 23.1909 35.9857 23.3687 35.9851 23.5464C35.9849 23.6071 35.9846 23.6679 35.9843 23.7305C35.983 24.0518 35.9821 24.3731 35.9816 24.6944C35.9809 25.0264 35.9787 25.3583 35.9762 25.6902C35.9746 25.9455 35.9741 26.2007 35.9738 26.456C35.9735 26.5784 35.9728 26.7008 35.9717 26.8231C35.9701 26.9943 35.9702 27.1654 35.9706 27.3365C35.9698 27.387 35.969 27.4375 35.9682 27.4896C35.9704 27.7266 35.9902 27.8633 36.1195 28.0649C36.2831 28.2262 36.2831 28.2262 36.5 28.2537C36.7089 28.1785 36.8399 28.1309 36.9478 27.9317C37.0115 27.7145 37.0165 27.512 37.0142 27.2879C37.0142 27.2421 37.0142 27.1964 37.0142 27.1492C37.0142 26.9987 37.0132 26.8483 37.0122 26.6978C37.012 26.5931 37.0118 26.4885 37.0117 26.3838C37.0112 26.109 37.01 25.8341 37.0086 25.5593C37.0073 25.2786 37.0067 24.9979 37.0061 24.7172C37.0048 24.1668 37.0026 23.6165 37 23.0662C37.3506 23.0662 37.7013 23.0662 38.0625 23.0662C38.06 23.7084 38.0564 24.3506 38.051 24.9928C38.0485 25.291 38.0465 25.5893 38.0456 25.8875C38.0446 26.1757 38.0425 26.4638 38.0395 26.7519C38.0386 26.8615 38.0381 26.9711 38.038 27.0807C38.0369 28.1776 38.0369 28.1776 37.75 28.6287C37.7165 28.6854 37.683 28.7421 37.6484 28.8005C37.3167 29.1148 36.9534 29.2725 36.4961 29.2888C36.1405 29.2737 35.871 29.1741 35.5625 29.0037C35.4949 28.9719 35.4949 28.9719 35.426 28.9395C35.2741 28.8581 35.252 28.7879 35.1875 28.6287C35.1553 28.5604 35.123 28.492 35.0898 28.4216C34.8299 27.7548 34.903 26.9267 34.875 26.2537C32.5238 26.2537 30.1725 26.2537 27.75 26.2537C27.75 34.4005 27.75 42.5474 27.75 50.9412C34.8862 50.9412 42.0225 50.9412 49.375 50.9412C49.375 44.1555 49.375 37.3699 49.375 30.3787C48.0138 30.3787 46.6525 30.3787 45.25 30.3787C45.25 29.0174 45.25 27.6562 45.25 26.2537C43.5588 26.2537 41.8675 26.2537 40.125 26.2537C40.125 27.2643 40.125 28.2749 40.125 29.3162C39.7744 29.3162 39.4237 29.3162 39.0625 29.3162C39.0628 29.2329 39.0631 29.1495 39.0633 29.0637C39.0659 28.2775 39.0677 27.4913 39.069 26.705C39.0696 26.3009 39.0705 25.8967 39.0719 25.4925C39.0733 25.1023 39.074 24.712 39.0744 24.3218C39.0746 24.1731 39.075 24.0244 39.0757 23.8757C39.0766 23.667 39.0767 23.4584 39.0767 23.2497C39.0774 23.158 39.0774 23.158 39.0781 23.0645C39.0763 22.4834 39.0054 21.9621 38.625 21.5037C38.2662 21.1734 37.8798 21.0369 37.3936 21.0508C36.9509 21.0982 36.6108 21.3031 36.3125 21.6287ZM46.3125 27.0662C46.3125 27.788 46.3125 28.5099 46.3125 29.2537C47.0344 29.2537 47.7563 29.2537 48.5 29.2537C48.2185 28.921 48.2185 28.921 47.9228 28.6059C47.888 28.5709 47.8532 28.5359 47.8173 28.4998C47.7631 28.4458 47.7631 28.4458 47.7078 28.3906C47.6696 28.3524 47.6314 28.3142 47.5921 28.2748C47.5123 28.195 47.4324 28.1152 47.3525 28.0355C47.2295 27.9129 47.1069 27.7899 46.9843 27.6669C46.9064 27.5891 46.8286 27.5113 46.7507 27.4336C46.714 27.3967 46.6772 27.3598 46.6393 27.3218C46.4987 27.1472 46.4987 27.1472 46.3125 27.0662Z" fill="#7B55D3"/>
<path d="M43.6874 32.1898C44.2559 32.6881 44.7144 33.2445 45.1249 33.8774C45.1647 33.9375 45.2044 33.9977 45.2453 34.0597C45.6905 34.7754 46.0102 35.6161 46.1874 36.4398C46.2002 36.4943 46.2129 36.5488 46.226 36.6049C46.6143 38.5944 46.1521 40.7089 45.043 42.3916C44.769 42.7922 44.4598 43.1521 44.1249 43.5023C44.0629 43.5714 44.0629 43.5714 43.9997 43.6418C43.138 44.5656 41.8987 45.2392 40.6874 45.5648C40.6212 45.5832 40.6212 45.5832 40.5537 45.602C38.5002 46.1516 36.3992 45.8006 34.5654 44.7787C34.1813 44.5553 33.8391 44.2881 33.4999 44.0023C33.4441 43.956 33.3883 43.9097 33.3307 43.862C31.819 42.5593 30.938 40.6352 30.771 38.6618C30.6517 36.8792 31.089 34.9967 32.1874 33.5649C32.2293 33.51 32.2712 33.4551 32.3144 33.3986C32.4362 33.2433 32.5609 33.0913 32.6874 32.9399C32.7219 32.8969 32.7564 32.854 32.7919 32.8097C33.0913 32.4483 33.4412 32.1626 33.8124 31.8773C33.8846 31.8214 33.8846 31.8214 33.9582 31.7643C34.7617 31.1716 35.6637 30.7613 36.6249 30.5024C36.6661 30.4912 36.7072 30.4801 36.7496 30.4687C39.1948 29.8466 41.7938 30.5925 43.6874 32.1898ZM33.6015 33.5375C32.3282 35.0444 31.7595 36.7846 31.8749 38.7523C32.0029 40.0208 32.5442 41.2408 33.3124 42.2523C33.3331 42.2523 33.3537 42.2523 33.3749 42.2523C33.3755 42.2089 33.3761 42.1655 33.3767 42.1208C33.4089 40.2171 33.4089 40.2171 33.9831 39.5412C34.076 39.4343 34.076 39.4343 34.1249 39.2523C34.2389 39.1872 34.2389 39.1872 34.3749 39.1273C34.4316 39.0929 34.4316 39.0929 34.4894 39.0578C35.2432 38.6013 36.156 38.417 36.9999 38.1898C36.9524 37.9889 36.9524 37.9889 36.7695 37.8734C36.3074 37.5014 36.1085 36.9434 35.9999 36.3773C35.9735 36.0877 35.9708 35.8009 35.9726 35.5102C35.9713 35.4366 35.9701 35.363 35.9688 35.2873C35.9692 34.4933 36.1585 33.7695 36.6906 33.1706C37.2145 32.6483 37.8107 32.4272 38.5468 32.4086C39.3322 32.4395 39.9085 32.6941 40.4531 33.2641C41.1738 34.1226 41.1872 35.208 41.1098 36.2731C41.022 36.9566 40.7362 37.5124 40.2211 37.9696C40.1894 38.0011 40.1576 38.0325 40.1249 38.0648C40.1249 38.1061 40.1249 38.1473 40.1249 38.1898C40.174 38.203 40.2231 38.2162 40.2737 38.2298C40.4598 38.2802 40.6456 38.3313 40.8314 38.3829C40.9498 38.4155 41.0684 38.4473 41.1869 38.4792C42.0382 38.7166 42.8327 39.0324 43.332 39.7953C43.742 40.5419 43.7288 41.3594 43.7499 42.1898C44.0035 41.9568 44.1738 41.7212 44.3398 41.4203C44.364 41.3767 44.3881 41.3331 44.413 41.2881C45.2777 39.6856 45.4696 37.868 44.9648 36.1195C44.4044 34.3144 43.1427 32.9228 41.4848 32.0461C40.8668 31.7362 40.1821 31.5435 39.4999 31.4398C39.4556 31.4329 39.4113 31.426 39.3657 31.4189C37.2612 31.1378 35.0342 31.9749 33.6015 33.5375ZM37.3124 34.0649C36.8948 34.6792 36.9145 35.598 37.039 36.3109C37.1239 36.6193 37.2806 36.8954 37.4999 37.1273C37.5404 37.1465 37.5808 37.1656 37.6224 37.1853C37.7746 37.2574 37.8817 37.319 37.9999 37.4398C38.072 37.7065 38.0671 37.9658 38.0624 38.2406C38.0632 38.3137 38.0639 38.3869 38.0646 38.4622C38.0661 38.6424 38.0653 38.8222 38.0624 39.0023C37.9835 39.0207 37.9835 39.0207 37.903 39.0395C37.3243 39.1789 36.7514 39.3368 36.1796 39.5023C36.1063 39.5231 36.0329 39.5438 35.9574 39.5652C35.3823 39.7339 34.9665 39.93 34.6249 40.4398C34.4251 40.8424 34.4374 41.1645 34.4374 41.6273C37.1393 41.6273 39.8412 41.6273 42.6249 41.6273C42.6249 40.8962 42.6211 40.5201 42.1445 40.0102C41.5563 39.6329 40.846 39.4855 40.1796 39.2992C40.0771 39.2703 39.9745 39.2413 39.872 39.2123C39.6231 39.142 39.374 39.072 39.1249 39.0023C39.1085 38.7511 39.0986 38.5 39.0898 38.2484C39.0851 38.1776 39.0803 38.1067 39.0755 38.0337C39.0618 37.5123 39.0618 37.5123 39.2461 37.3009C39.3967 37.1869 39.3967 37.1869 39.5473 37.0952C39.8375 36.9029 39.9929 36.5867 40.0624 36.2523C40.0796 36.0104 40.0798 35.7683 40.082 35.5258C40.0838 35.4606 40.0856 35.3954 40.0875 35.3283C40.092 34.774 39.9885 34.31 39.6171 33.8852C39.3165 33.6117 38.958 33.4696 38.5585 33.4125C38.0405 33.4897 37.663 33.6675 37.3124 34.0649ZM33.8749 42.7523C34.9338 43.9877 36.4695 44.5926 38.0624 44.7523C39.8387 44.8839 41.519 44.2706 42.8857 43.1596C43.0777 42.9993 43.0777 42.9993 43.2499 42.7523C40.1562 42.7523 37.0624 42.7523 33.8749 42.7523Z" fill="#65C7C3"/>
<path d="M28.6875 46.8125C35.1844 46.8125 41.6812 46.8125 48.375 46.8125C48.375 47.1631 48.375 47.5137 48.375 47.875C41.8781 47.875 35.3812 47.875 28.6875 47.875C28.6875 47.5244 28.6875 47.1738 28.6875 46.8125Z" fill="#7B55D3"/>
<path d="M28.6875 48.875C34.5037 48.875 40.32 48.875 46.3125 48.875C46.3125 49.2256 46.3125 49.5762 46.3125 49.9375C40.4963 49.9375 34.68 49.9375 28.6875 49.9375C28.6875 49.5869 28.6875 49.2363 28.6875 48.875Z" fill="#7B55D3"/>
<path d="M47.3125 48.875C47.6631 48.875 48.0137 48.875 48.375 48.875C48.375 49.2256 48.375 49.5762 48.375 49.9375C48.0244 49.9375 47.6738 49.9375 47.3125 49.9375C47.3125 49.5869 47.3125 49.2363 47.3125 48.875Z" fill="#7B55D3"/>
</g>
</g>
<defs>
<filter id="filter0_d_1_129881" x="0" y="0" width="74" height="74" filterUnits="userSpaceOnUse" color-interpolation-filters="sRGB">
<feFlood flood-opacity="0" result="BackgroundImageFix"/>
<feColorMatrix in="SourceAlpha" type="matrix" values="0 0 0 0 0 0 0 0 0 0 0 0 0 0 0 0 0 0 127 0" result="hardAlpha"/>
<feOffset dy="1"/>
<feGaussianBlur stdDeviation="0.5"/>
<feComposite in2="hardAlpha" operator="out"/>
<feColorMatrix type="matrix" values="0 0 0 0 0 0 0 0 0 0 0 0 0 0 0 0 0 0 0.04 0"/>
<feBlend mode="normal" in2="BackgroundImageFix" result="effect1_dropShadow_1_129881"/>
<feBlend mode="normal" in="SourceGraphic" in2="effect1_dropShadow_1_129881" result="shape"/>
</filter>
<clipPath id="clip0_1_129881">
<rect width="32" height="32" fill="white" transform="translate(21 20)"/>
</clipPath>
</defs>
</svg>
