<svg width="74" height="74" viewBox="0 0 74 74" fill="none" xmlns="http://www.w3.org/2000/svg">
<g filter="url(#filter0_d_1_130041)">
<rect x="1" width="72" height="72" rx="36" fill="white" shape-rendering="crispEdges"/>
<g clip-path="url(#clip0_1_130041)">
<path d="M35.315 20.1676C35.5993 20.358 35.8385 20.592 36.0846 20.8283C38.0737 22.6973 40.9282 23.9802 43.6749 24.0127C43.7207 24.0133 43.7665 24.014 43.8137 24.0146C43.9631 24.0166 44.1126 24.0181 44.2621 24.0197C44.3664 24.021 44.4708 24.0223 44.5752 24.0236C44.8485 24.027 45.1218 24.0301 45.3951 24.0332C45.6746 24.0363 45.954 24.0398 46.2335 24.0432C46.7808 24.0499 47.3281 24.0563 47.8753 24.0624C47.8768 25.0078 47.8779 25.9532 47.8786 26.8986C47.8789 27.3376 47.8793 27.7767 47.8801 28.2157C47.8808 28.64 47.8811 29.0643 47.8813 29.4886C47.8814 29.6499 47.8816 29.8112 47.882 29.9724C47.8852 31.5942 47.8852 31.5942 47.8128 32.3749C47.8766 32.3772 47.8766 32.3772 47.9416 32.3796C49.3497 32.444 50.6553 33.2231 51.6105 34.2179C52.7376 35.4827 53.0681 37.0064 53.0159 38.6594C52.9807 39.1474 52.8371 39.5995 52.6878 40.0624C52.6189 40.2943 52.6189 40.2943 52.6854 40.5197C52.7146 40.566 52.7437 40.6123 52.7738 40.66C53.0686 41.1352 53.0381 41.6439 53.0003 42.1874C52.9478 42.4002 52.8689 42.5664 52.7503 42.7499C52.7224 42.794 52.6944 42.8382 52.6656 42.8837C52.3388 43.3569 51.9381 43.6253 51.3753 43.7499C51.2252 43.7626 51.0888 43.7595 50.9378 43.7499C50.9324 43.7946 50.927 43.8393 50.9215 43.8854C50.8151 44.6396 50.5559 45.309 50.1253 45.9374C50.0902 45.9887 50.0551 46.04 50.0189 46.0929C49.7263 46.4881 49.3852 46.7679 48.9913 47.0543C48.8556 47.1555 48.7391 47.2508 48.6253 47.3749C48.667 47.403 48.7086 47.4311 48.7516 47.4601C49.9227 48.2775 50.6264 49.286 50.9378 50.6874C50.9378 51.1205 50.9378 51.5536 50.9378 51.9999C47.5141 51.9999 44.0903 51.9999 40.5628 51.9999C40.5628 50.4886 40.8695 49.2801 41.911 48.1403C42.2254 47.8496 42.5832 47.6135 42.9378 47.3749C42.8938 47.3398 42.8497 47.3046 42.8043 47.2684C42.6226 47.1227 42.4422 46.9756 42.2621 46.828C42.2011 46.7781 42.1401 46.7281 42.0772 46.6766C42.0312 46.6389 41.9852 46.6012 41.9378 46.5624C41.7253 46.7744 41.5138 46.9874 41.3026 47.2008C41.1303 47.3748 40.9577 47.5484 40.785 47.7221C40.6948 47.813 40.6046 47.904 40.5145 47.9951C40.0093 48.5063 39.5067 48.9967 38.9378 49.4374C38.8594 49.5014 38.7811 49.5655 38.703 49.63C37.9233 50.265 37.1085 50.8383 36.2582 51.3749C36.1791 51.4255 36.1791 51.4255 36.0985 51.4772C35.5689 51.8058 35.035 52.0485 34.4027 52.0311C34.3569 52.0303 34.311 52.0294 34.2638 52.0286C33.8829 52.0141 33.5856 51.9351 33.2503 51.7499C33.1853 51.7156 33.1203 51.6814 33.0533 51.6461C31.6542 50.8797 30.3442 49.8643 29.1754 48.7846C29.0389 48.6601 28.9009 48.5387 28.7611 48.4181C28.4954 48.1863 28.245 47.9413 27.9964 47.6913C27.9547 47.6498 27.9129 47.6082 27.8698 47.5654C27.588 47.2831 27.3225 46.9901 27.0628 46.6874C27.01 46.6271 26.9571 46.5669 26.9027 46.5048C25.5154 44.8952 24.3518 43.0983 23.4333 41.1826C23.375 41.0618 23.3155 40.9417 23.2557 40.8217C21.8439 37.9501 20.9834 34.5577 20.9932 31.3564C20.9932 31.277 20.9932 31.1977 20.9932 31.1159C20.9932 30.9008 20.9936 30.6858 20.994 30.4707C20.9944 30.245 20.9944 30.0192 20.9945 29.7935C20.9947 29.3672 20.9952 28.9409 20.9958 28.5146C20.9965 28.0288 20.9969 27.543 20.9972 27.0572C20.9978 26.059 20.9989 25.0607 21.0003 24.0624C21.0557 24.0622 21.1111 24.0619 21.1682 24.0617C21.6975 24.0593 22.2268 24.0557 22.7561 24.0509C23.0281 24.0485 23.3 24.0464 23.572 24.0455C24.7968 24.0407 25.9873 24.0248 27.1878 23.7499C27.266 23.7323 27.3441 23.7146 27.4246 23.6965C27.6056 23.6516 27.7831 23.6017 27.9613 23.5468C28.0536 23.519 28.0536 23.519 28.1478 23.4906C28.7256 23.3108 29.2714 23.0813 29.8128 22.8124C29.8573 22.7906 29.9018 22.7689 29.9477 22.7465C31.0574 22.2001 32.025 21.4959 32.9239 20.6488C33.587 20.0256 34.4372 19.6984 35.315 20.1676ZM33.5628 21.5975C33.1665 21.9701 32.7538 22.3067 32.3128 22.6249C32.2786 22.6498 32.2444 22.6748 32.2091 22.7005C29.1318 24.9174 25.7164 25.1426 22.0628 25.1874C22.0584 25.984 22.0551 26.7807 22.0531 27.5774C22.0522 27.9475 22.0509 28.3177 22.0487 28.6878C22.015 34.6245 23.3132 40.1255 29.0628 47.1874C29.6205 47.738 30.1934 48.2691 30.8128 48.7499C30.8495 48.7789 30.8861 48.8079 30.9239 48.8378C32.5748 50.2687 32.5748 50.2687 34.5355 50.9452C34.9943 50.8849 35.3689 50.6198 35.7503 50.3749C35.7872 50.3516 35.824 50.3283 35.8619 50.3042C36.8811 49.6555 37.8502 48.9305 38.7503 48.1249C38.8093 48.0728 38.8683 48.0208 38.9291 47.9672C39.3343 47.6033 39.7228 47.2229 40.1097 46.8397C40.1592 46.791 40.2088 46.7423 40.2598 46.6921C40.7694 46.1952 40.7694 46.1952 41.1878 45.6249C41.1806 45.4925 41.1806 45.4925 41.1253 45.3749C41.1008 45.3127 41.0762 45.2505 41.0509 45.1864C41.0226 45.1197 40.9943 45.053 40.9652 44.9843C40.9367 44.9169 40.9083 44.8496 40.879 44.7802C40.8572 44.7289 40.8353 44.6777 40.8128 44.6249C40.5589 44.8755 40.3139 45.1334 40.0707 45.3944C40.0318 45.4361 39.9929 45.4777 39.9528 45.5206C39.7583 45.7297 39.5658 45.9398 39.3792 46.1561C39.0338 46.556 38.6507 46.9062 38.2503 47.2499C38.1866 47.3058 38.1229 47.3618 38.0592 47.4179C37.177 48.1897 36.2361 48.8666 35.2503 49.4999C35.2116 49.525 35.1728 49.5502 35.1329 49.5761C35.0308 49.6417 34.9277 49.7056 34.8246 49.7694C34.7687 49.804 34.7129 49.8385 34.6554 49.8742C34.456 49.9555 34.3906 49.9492 34.1878 49.8749C34.0007 49.7747 33.823 49.662 33.6449 49.5468C33.5926 49.5133 33.5404 49.4798 33.4866 49.4453C31.643 48.2515 29.7943 46.7744 28.4366 45.0333C28.303 44.8623 28.1618 44.6993 28.0199 44.535C27.1922 43.5388 26.5203 42.4324 25.8753 41.3124C25.8477 41.2647 25.8201 41.217 25.7917 41.1678C24.5729 39.0387 23.8158 36.6079 23.391 34.203C23.3785 34.1328 23.3661 34.0627 23.3533 33.9904C23.1673 32.8813 23.106 31.7784 23.0995 30.6552C23.0983 30.5252 23.0971 30.3953 23.0958 30.2654C23.0926 29.928 23.0901 29.5905 23.0878 29.2531C23.0853 28.907 23.0821 28.5609 23.079 28.2147C23.073 27.539 23.0677 26.8632 23.0628 26.1874C23.1011 26.1875 23.1393 26.1876 23.1786 26.1877C23.3555 26.1881 23.5324 26.1884 23.7093 26.1886C23.7694 26.1888 23.8295 26.1889 23.8914 26.1891C27.5645 26.193 31.3103 25.1071 34.016 22.5116C34.0679 22.4596 34.1197 22.4077 34.1732 22.3541C34.3128 22.2499 34.3128 22.2499 34.4322 22.244C34.6301 22.3476 34.7856 22.4952 34.9496 22.6444C36.6867 24.1758 38.8401 25.2419 41.0824 25.7929C41.1296 25.8047 41.1768 25.8166 41.2255 25.8289C42.3196 26.0858 43.3999 26.1515 44.5199 26.1366C44.6464 26.1357 44.7729 26.1348 44.8994 26.134C45.2039 26.1322 45.5084 26.1287 45.8128 26.1249C45.8061 26.7921 45.799 27.4594 45.7916 28.1266C45.7882 28.4365 45.7849 28.7465 45.7818 29.0564C45.7787 29.3563 45.7755 29.6562 45.772 29.9561C45.7708 30.0697 45.7696 30.1833 45.7685 30.2969C45.7619 30.992 45.7372 31.6814 45.6878 32.3749C46.0178 32.3749 46.3478 32.3749 46.6878 32.3749C46.746 31.9821 46.7589 31.6009 46.7574 31.2042C46.7575 31.1063 46.7575 31.1063 46.7575 31.0064C46.7574 30.792 46.7569 30.5776 46.7564 30.3632C46.7563 30.214 46.7562 30.0647 46.7562 29.9155C46.7559 29.5238 46.7553 29.1322 46.7546 28.7405C46.754 28.3404 46.7537 27.9403 46.7534 27.5402C46.7527 26.7559 46.7517 25.9717 46.7503 25.1874C46.713 25.1869 46.6758 25.1864 46.6373 25.1859C46.2428 25.1804 45.8483 25.1742 45.4537 25.1676C45.3072 25.1652 45.1608 25.163 45.0143 25.161C41.3764 25.1112 37.9557 24.1409 35.2776 21.566C34.9061 21.2062 34.9061 21.2062 34.4339 21.035C34.0612 21.0906 33.8251 21.345 33.5628 21.5975ZM34.3753 23.6249C34.3231 23.6673 34.2708 23.7096 34.2169 23.7533C31.4686 25.9605 28.2151 27.0555 24.7127 27.2216C24.6558 27.2243 24.5989 27.2271 24.5403 27.23C24.402 27.2367 24.2637 27.2433 24.1253 27.2499C24.1224 27.77 24.1202 28.29 24.1189 28.8101C24.1182 29.0518 24.1174 29.2935 24.1159 29.5351C24.1075 30.9877 24.1375 32.4239 24.3871 33.8593C24.4005 33.9372 24.4138 34.0152 24.4276 34.0955C25.0852 37.787 26.6756 41.367 29.1551 44.2002C29.277 44.3438 29.3938 44.4913 29.5116 44.6383C29.808 45.0016 30.1284 45.3341 30.4613 45.664C30.5156 45.7187 30.5699 45.7735 30.6258 45.83C30.9554 46.1585 31.2968 46.4611 31.6599 46.7521C31.7813 46.8495 31.8995 46.9484 32.016 47.0516C32.7553 47.7028 33.5794 48.2666 34.4378 48.7499C35.1644 48.3167 35.8382 47.8384 36.5003 47.3124C36.5961 47.2369 36.5961 47.2369 36.6937 47.1598C37.3485 46.6339 37.95 46.0565 38.5456 45.4655C38.6344 45.3775 38.7235 45.2897 38.8126 45.2019C39.2774 44.7376 39.7345 44.2603 40.0628 43.6874C40.0138 43.6661 39.9647 43.6448 39.9142 43.6229C39.292 43.3359 38.9257 43.0173 38.6698 42.3764C38.4524 41.7577 38.5887 41.223 38.8128 40.6249C38.8541 40.563 38.8953 40.5011 38.9378 40.4374C38.9015 40.1092 38.7782 39.7885 38.6839 39.473C38.4211 38.4721 38.5975 37.5349 38.8753 36.5624C37.576 36.5624 36.2766 36.5624 34.9378 36.5624C34.9362 37.1108 34.9346 37.6592 34.933 38.2243C34.9312 38.6163 34.9293 39.0083 34.9271 39.4003C34.9243 39.9079 34.9219 40.4154 34.9209 40.923C34.9201 41.3249 34.9184 41.7269 34.9157 42.1288C34.9143 42.3414 34.9133 42.5541 34.9134 42.7667C34.9132 43.0046 34.9115 43.2425 34.9095 43.4803C34.9099 43.5851 34.9099 43.5851 34.9104 43.692C34.9019 44.3302 34.6925 44.8469 34.2503 45.3124C33.7046 45.7503 33.119 45.7979 32.4378 45.7499C31.931 45.6658 31.5138 45.3808 31.1986 44.9794C30.8359 44.4194 30.8004 43.8383 30.7503 43.1874C31.1216 43.1874 31.4928 43.1874 31.8753 43.1874C31.8689 43.3111 31.8625 43.4349 31.8558 43.5624C31.8569 43.8993 31.8827 44.1291 32.0873 44.4003C32.3044 44.6153 32.5238 44.739 32.8319 44.7594C33.1535 44.7383 33.3825 44.6577 33.6253 44.4374C33.9024 44.0482 33.9099 43.6675 33.9037 43.2036C33.9038 43.0939 33.9038 43.0939 33.9038 42.9819C33.9036 42.7464 33.9017 42.5108 33.8998 42.2753C33.8994 42.1293 33.8991 41.9834 33.899 41.8375C33.8977 41.2979 33.8942 40.7582 33.891 40.2186C33.8858 39.0121 33.8807 37.8055 33.8753 36.5624C31.3178 36.5624 28.7603 36.5624 26.1253 36.5624C26.2289 33.6637 26.7472 31.3357 28.8949 29.2968C29.9894 28.3402 31.3816 27.6432 32.8128 27.3749C32.819 27.2995 32.8251 27.2241 32.8314 27.1464C32.8408 27.0455 32.8502 26.9445 32.8597 26.8436C32.8636 26.7942 32.8675 26.7447 32.8714 26.6937C32.9026 26.3765 32.9737 26.1353 33.1298 25.8567C33.1972 25.7402 33.1972 25.7402 33.2503 25.5624C33.3634 25.4965 33.3634 25.4965 33.5003 25.4374C33.5614 25.4043 33.5614 25.4043 33.6236 25.3705C34.0421 25.1593 34.4327 25.1162 34.8919 25.2191C35.2715 25.3452 35.5633 25.5643 35.7699 25.91C35.9303 26.2368 35.9536 26.5298 35.973 26.8905C35.9757 26.9371 35.9784 26.9836 35.9812 27.0316C35.9878 27.146 35.9941 27.2605 36.0003 27.3749C36.0716 27.3909 36.1428 27.407 36.2162 27.4235C37.2524 27.6693 38.2605 28.0535 39.1253 28.6874C39.159 28.712 39.1926 28.7367 39.2272 28.762C40.6298 29.8005 41.7457 31.181 42.2503 32.8749C42.5132 32.8311 42.7508 32.7487 43.0003 32.6561C43.4132 32.5031 43.7682 32.431 44.2074 32.4022C44.2858 32.397 44.3642 32.3918 44.4449 32.3864C44.5045 32.3826 44.564 32.3788 44.6253 32.3749C44.7024 31.837 44.6958 31.3014 44.6939 30.7594C44.6938 30.6579 44.6937 30.5564 44.6937 30.4549C44.6934 30.1896 44.6928 29.9242 44.6921 29.6588C44.6915 29.3873 44.6912 29.1158 44.6909 28.8442C44.6902 28.3128 44.6892 27.7813 44.6878 27.2499C44.6335 27.2467 44.5792 27.2434 44.5232 27.2401C44.3174 27.2277 44.1116 27.2151 43.9058 27.2023C43.8175 27.1968 43.7292 27.1915 43.6409 27.1863C40.4419 26.9959 37.2937 25.9382 34.7994 23.8861C34.659 23.7762 34.538 23.6947 34.3753 23.6249ZM34.0628 26.3749C33.9248 26.582 33.9238 26.6464 33.93 26.8866C33.9326 26.9859 33.9352 27.0851 33.9378 27.1874C34.2472 27.1874 34.5566 27.1874 34.8753 27.1874C34.918 26.7373 34.918 26.7373 34.766 26.3358C34.4689 26.1543 34.3496 26.1636 34.0628 26.3749ZM29.8128 29.9374C29.7551 29.9848 29.6973 30.0323 29.6378 30.0812C28.3305 31.211 27.4229 32.8991 27.2503 34.6249C27.2503 34.893 27.2503 35.1611 27.2503 35.4374C28.261 35.4374 29.2716 35.4374 30.3128 35.4374C30.3541 34.9836 30.3953 34.5299 30.4378 34.0624C30.4792 33.8026 30.5214 33.5523 30.5785 33.2968C30.5921 33.2344 30.6058 33.172 30.6198 33.1077C30.9597 31.6058 31.5917 30.2434 32.483 28.9881C32.5962 28.8275 32.7046 28.6639 32.8128 28.4999C31.7623 28.4999 30.5899 29.2975 29.8128 29.9374ZM34.1253 28.664C32.4276 30.4442 31.3753 32.9704 31.3753 35.4374C33.376 35.4374 35.3766 35.4374 37.4378 35.4374C37.4378 34.9253 37.4236 34.4825 37.3324 33.9882C37.3211 33.926 37.3099 33.8639 37.2983 33.7999C37.1249 32.8792 36.8458 32.0304 36.4378 31.1874C36.4186 31.1476 36.3993 31.1078 36.3795 31.0668C35.8993 30.0904 35.2682 29.2677 34.5003 28.4999C34.2948 28.4793 34.2948 28.4793 34.1253 28.664ZM36.0003 28.4999C36.0506 28.5643 36.1009 28.6288 36.1527 28.6952C37.6812 30.7463 38.2655 32.9367 38.5628 35.4374C39.2134 35.5135 39.2134 35.5135 39.8175 35.3231C39.9209 35.2251 40.0209 35.1233 40.117 35.0182C40.2451 34.8805 40.3467 34.811 40.5121 34.7265C40.797 34.5626 40.9304 34.3119 41.0914 34.0326C41.176 33.8942 41.2553 33.7948 41.3753 33.6874C41.1297 32.612 40.5897 31.6462 39.8753 30.8124C39.8338 30.7617 39.7922 30.711 39.7494 30.6588C38.8613 29.6146 37.5778 28.8411 36.2503 28.4999C36.1678 28.4999 36.0853 28.4999 36.0003 28.4999ZM42.0003 34.5624C41.9139 34.6998 41.8306 34.8392 41.7503 34.9804C41.5519 35.3245 41.3805 35.4834 41.0323 35.6652C40.3467 36.0352 39.9268 36.7282 39.6878 37.453C39.5394 38.1045 39.5046 39.0172 39.8128 39.6249C40.0189 39.6936 40.0882 39.6793 40.2933 39.6288C40.3823 39.6069 40.4712 39.585 40.5628 39.5624C40.5628 39.2736 40.5628 38.9849 40.5628 38.6874C40.6505 38.6642 40.7382 38.641 40.8285 38.6171C41.9297 38.2794 42.6646 37.6219 43.3038 36.693C43.4378 36.4999 43.4378 36.4999 43.5628 36.3749C44.0996 36.6214 44.6299 36.8737 45.1488 37.1561C46.9768 38.1392 48.8668 38.5833 50.9378 38.5624C50.9378 38.8924 50.9378 39.2224 50.9378 39.5624C51.1647 39.6036 51.3916 39.6449 51.6253 39.6874C51.6662 39.5717 51.7064 39.4557 51.7464 39.3397C51.7689 39.2752 51.7914 39.2107 51.8146 39.1442C52.1281 38.0776 51.9279 36.9162 51.4378 35.9374C50.7669 34.718 49.7336 33.9222 48.4012 33.5338C47.9265 33.427 47.4613 33.4264 46.9762 33.4247C46.8953 33.4243 46.8145 33.424 46.7312 33.4236C46.5604 33.423 46.3896 33.4226 46.2189 33.4224C46.0021 33.422 45.7854 33.4205 45.5686 33.4188C45.3594 33.4173 45.1502 33.4172 44.941 33.4169C44.8642 33.4161 44.7874 33.4153 44.7083 33.4145C43.6408 33.4173 42.7203 33.7496 42.0003 34.5624ZM43.8753 37.7499C43.7615 37.8716 43.6522 37.995 43.5433 38.121C43.0908 38.6272 42.5975 38.9861 41.9871 39.289C41.931 39.3168 41.8749 39.3447 41.8171 39.3734C41.7744 39.3945 41.7318 39.4156 41.6878 39.4374C41.682 39.9846 41.6776 40.5317 41.6749 41.0789C41.6736 41.3331 41.6718 41.5872 41.669 41.8414C41.6662 42.0874 41.6648 42.3333 41.6641 42.5793C41.6637 42.6725 41.6628 42.7656 41.6614 42.8587C41.6465 43.9221 41.9033 44.905 42.6385 45.7091C43.761 46.7458 44.9544 46.8643 46.4224 46.8236C47.4993 46.7642 48.3374 46.2718 49.0609 45.4923C49.7632 44.653 49.8958 43.7455 49.8876 42.6889C49.8873 42.6001 49.8871 42.5113 49.887 42.4225C49.8865 42.1909 49.8853 41.9593 49.8839 41.7277C49.8826 41.4906 49.8821 41.2534 49.8814 41.0162C49.8801 40.5525 49.878 40.0887 49.8753 39.6249C49.8256 39.6181 49.7758 39.6112 49.7246 39.6042C49.496 39.5726 49.2676 39.5407 49.0392 39.5087C48.9609 39.4979 48.8826 39.4872 48.802 39.4761C47.1174 39.2391 45.6409 38.5991 44.1429 37.8165C44.0077 37.7411 44.0077 37.7411 43.8753 37.7499ZM39.9378 40.9374C39.6794 41.2308 39.6024 41.4035 39.608 41.7885C39.6461 42.1156 39.8034 42.3167 40.0589 42.5233C40.2619 42.6427 40.2619 42.6427 40.5628 42.6874C40.5628 42.0274 40.5628 41.3674 40.5628 40.6874C40.2613 40.6874 40.1732 40.756 39.9378 40.9374ZM50.9378 40.6874C50.9378 41.3474 50.9378 42.0074 50.9378 42.6874C51.4561 42.5578 51.5938 42.4983 51.8636 42.0702C51.9781 41.7689 51.9766 41.5449 51.8675 41.2421C51.7257 41.0246 51.591 40.895 51.3753 40.7499C51.231 40.7293 51.0866 40.7086 50.9378 40.6874ZM44.8128 47.9374C44.8361 48.2634 44.9442 48.4733 45.1878 48.6874C45.4718 48.8535 45.6869 48.906 46.0055 48.848C46.3682 48.7402 46.5744 48.5121 46.7503 48.1874C46.7503 48.1049 46.7503 48.0224 46.7503 47.9374C46.5542 47.872 46.4152 47.8668 46.2093 47.8666C46.1058 47.8665 46.1058 47.8665 46.0001 47.8663C45.8919 47.8667 45.8919 47.8667 45.7816 47.8671C45.7095 47.8668 45.6374 47.8666 45.5631 47.8663C45.494 47.8664 45.425 47.8665 45.3539 47.8666C45.2906 47.8667 45.2273 47.8667 45.1621 47.8668C44.993 47.868 44.993 47.868 44.8128 47.9374ZM42.7074 48.9452C42.184 49.4901 41.7503 50.1645 41.7503 50.9374C44.411 50.9374 47.0716 50.9374 49.8128 50.9374C49.7759 50.536 49.7759 50.536 49.6546 50.1918C49.6352 50.1515 49.6157 50.1111 49.5957 50.0696C49.5745 50.0285 49.5534 49.9875 49.5316 49.9452C49.5094 49.9018 49.4873 49.8584 49.4644 49.8136C49.1091 49.1449 48.5378 48.5135 47.8128 48.2499C47.8006 48.293 47.7884 48.3361 47.7757 48.3805C47.6093 48.9033 47.3736 49.3074 46.898 49.6019C46.3315 49.8914 45.7569 49.9732 45.1297 49.8344C44.5631 49.6278 44.1367 49.2291 43.8753 48.6874C43.8226 48.5415 43.7851 48.4016 43.7503 48.2499C43.3902 48.2499 42.9454 48.7177 42.7074 48.9452Z" fill="#7B55D3"/>
<path d="M43.1875 42.6875C44.8994 42.6875 46.6113 42.6875 48.375 42.6875C48.375 43.723 48.3164 44.3719 47.625 45.125C46.9428 45.709 46.2531 45.8646 45.3732 45.8237C44.7555 45.7675 44.1842 45.3981 43.7656 44.957C43.1843 44.2554 43.1875 43.5956 43.1875 42.6875ZM44.375 43.75C44.5765 44.2536 44.829 44.4662 45.3125 44.6875C45.7307 44.812 46.0783 44.753 46.4727 44.5835C46.8435 44.3803 47.0318 44.1392 47.1875 43.75C46.2594 43.75 45.3313 43.75 44.375 43.75Z" fill="#7B55D3"/>
<path d="M48.7773 40.3525C49.1335 40.6575 49.3412 40.9705 49.4375 41.4345C49.4375 41.517 49.4375 41.5995 49.4375 41.6845C49.0663 41.6845 48.695 41.6845 48.3125 41.6845C48.2506 41.5607 48.1888 41.437 48.125 41.3095C47.9125 41.2263 47.9125 41.2263 47.6875 41.247C47.5034 41.3826 47.4475 41.4671 47.375 41.6845C47.0037 41.6845 46.6325 41.6845 46.25 41.6845C46.2732 41.1899 46.3839 40.8702 46.7319 40.5119C47.2983 40.0011 48.1334 39.8955 48.7773 40.3525Z" fill="#65C7C3"/>
<path d="M44.6523 40.3525C45.1104 40.7486 45.231 41.0847 45.3125 41.6845C44.9413 41.6845 44.57 41.6845 44.1875 41.6845C44.1256 41.5607 44.0638 41.437 44 41.3095C43.7667 41.2374 43.6354 41.2105 43.4141 41.3212C43.29 41.4419 43.29 41.4419 43.25 41.6845C42.8787 41.6845 42.5075 41.6845 42.125 41.6845C42.1482 41.1899 42.2589 40.8702 42.6069 40.5119C43.1733 40.0011 44.0084 39.8955 44.6523 40.3525Z" fill="#65C7C3"/>
</g>
</g>
<defs>
<filter id="filter0_d_1_130041" x="0" y="0" width="74" height="74" filterUnits="userSpaceOnUse" color-interpolation-filters="sRGB">
<feFlood flood-opacity="0" result="BackgroundImageFix"/>
<feColorMatrix in="SourceAlpha" type="matrix" values="0 0 0 0 0 0 0 0 0 0 0 0 0 0 0 0 0 0 127 0" result="hardAlpha"/>
<feOffset dy="1"/>
<feGaussianBlur stdDeviation="0.5"/>
<feComposite in2="hardAlpha" operator="out"/>
<feColorMatrix type="matrix" values="0 0 0 0 0 0 0 0 0 0 0 0 0 0 0 0 0 0 0.04 0"/>
<feBlend mode="normal" in2="BackgroundImageFix" result="effect1_dropShadow_1_130041"/>
<feBlend mode="normal" in="SourceGraphic" in2="effect1_dropShadow_1_130041" result="shape"/>
</filter>
<clipPath id="clip0_1_130041">
<rect width="32" height="32" fill="white" transform="translate(21 20)"/>
</clipPath>
</defs>
</svg>
