<svg width="74" height="74" viewBox="0 0 74 74" fill="none" xmlns="http://www.w3.org/2000/svg">
<g filter="url(#filter0_d_1_130180)">
<rect x="1" width="72" height="72" rx="36" fill="white" shape-rendering="crispEdges"/>
<g clip-path="url(#clip0_1_130180)">
<path d="M33.2904 19.9836C33.3808 19.9831 33.3808 19.9831 33.473 19.9826C33.6748 19.9817 33.8766 19.9816 34.0784 19.9816C34.2232 19.9811 34.3679 19.9806 34.5127 19.98C34.9059 19.9786 35.2992 19.9781 35.6924 19.9778C35.9382 19.9775 36.184 19.9771 36.4298 19.9767C37.1111 19.9755 37.7925 19.9744 38.4738 19.9743C38.5174 19.9742 38.561 19.9742 38.6059 19.9742C38.6942 19.9742 38.7825 19.9742 38.8708 19.9742C38.9147 19.9741 38.9585 19.9741 39.0037 19.9741C39.0475 19.9741 39.0914 19.9741 39.1367 19.9741C39.8472 19.9739 40.5578 19.9722 41.2684 19.9698C41.999 19.9675 42.7295 19.9662 43.4601 19.9662C43.8699 19.9662 44.2797 19.9656 44.6894 19.9639C45.0751 19.9622 45.4608 19.9621 45.8464 19.9631C45.9876 19.9632 46.1288 19.9628 46.27 19.9618C47.1857 19.9557 47.945 19.9644 48.6416 20.6379C48.6775 20.6751 48.7135 20.7124 48.7505 20.7507C48.7851 20.7841 48.8198 20.8174 48.8555 20.8518C49.3022 21.3163 49.4464 21.9644 49.4432 22.5916C49.4343 22.8625 49.4011 23.1296 49.3674 23.3984C49.3598 23.4605 49.3523 23.5227 49.3446 23.5868C49.3198 23.7909 49.2944 23.9949 49.269 24.199C49.2514 24.3419 49.2338 24.4849 49.2162 24.6279C49.1792 24.9272 49.142 25.2264 49.1046 25.5256C49.0569 25.9072 49.0102 26.2889 48.9638 26.6706C48.9278 26.9659 48.891 27.2612 48.8541 27.5563C48.8366 27.6969 48.8194 27.8376 48.8024 27.9782C48.6576 29.1729 48.5407 30.1326 47.5864 30.9531C47.1473 31.2788 46.7125 31.3867 46.174 31.3707C46.0806 31.3682 45.9872 31.3658 45.8938 31.3635C45.8444 31.3622 45.7951 31.3609 45.7442 31.3595C45.4259 31.3521 45.1075 31.3499 44.7891 31.347C44.51 31.3442 44.2313 31.3394 43.9525 31.3301C42.7848 31.24 42.7848 31.24 41.6958 31.548C41.426 31.8028 41.2612 32.0916 41.1202 32.4321C41.0435 32.6078 40.9366 32.7502 40.8169 32.8992C40.7844 32.9402 40.7519 32.9813 40.7185 33.0237C40.5031 33.26 40.2488 33.4181 39.9255 33.4531C39.4912 33.4661 39.1729 33.3956 38.842 33.1035C38.3881 32.6099 38.5005 32.0158 38.5005 31.3757C37.8405 31.3757 37.1805 31.3757 36.5005 31.3757C36.4799 31.5613 36.4592 31.747 36.438 31.9382C36.2899 32.3315 35.983 32.6049 35.6255 32.8132C35.5842 32.8132 35.543 32.8132 35.5005 32.8132C35.5011 32.917 35.5011 32.917 35.5017 33.0228C35.5056 33.6783 35.5084 34.3338 35.5102 34.9893C35.5112 35.3262 35.5125 35.6631 35.5146 36C35.5167 36.3258 35.5178 36.6517 35.5183 36.9775C35.5186 37.1011 35.5193 37.2247 35.5203 37.3483C35.5283 38.3619 35.456 39.2622 35.0005 40.1882C34.9712 40.2491 34.9418 40.31 34.9116 40.3728C34.5208 41.1119 33.9178 41.692 33.197 42.1089C33.056 42.1849 33.056 42.1849 32.938 42.3132C32.9955 42.3451 33.053 42.377 33.1123 42.4099C34.1709 43.0117 35.024 43.7882 35.688 44.8132C35.7733 44.6425 35.773 44.4897 35.7888 44.2993C35.7995 44.181 35.7995 44.181 35.8104 44.0604C35.8252 43.8948 35.839 43.7291 35.8524 43.5633C35.9029 43.0199 35.9773 42.5707 36.3286 42.1413C36.766 41.7835 37.1066 41.5998 37.688 41.6257C38.1601 41.6927 38.5012 41.8915 38.813 42.2507C39.1989 42.7999 39.1324 43.4182 39.0632 44.0544C39.0562 44.1236 39.0492 44.1929 39.0419 44.2642C39.0196 44.4837 38.9964 44.7031 38.9731 44.9226C38.9503 45.1429 38.9276 45.3633 38.905 45.5837C38.891 45.7204 38.8767 45.8571 38.8622 45.9938C38.8525 46.0867 38.8525 46.0867 38.8427 46.1816C38.8369 46.2358 38.8312 46.29 38.8253 46.3459C38.7834 46.6513 38.7834 46.6513 38.8977 46.9153C38.9355 46.946 38.9733 46.9768 39.0122 47.0085C39.4007 47.3678 39.5926 47.8743 39.6382 48.396C39.6522 49.1027 39.4315 49.6698 38.9473 50.1868C38.5103 50.5959 37.9991 50.7704 37.4219 50.8938C37.3396 50.9122 37.3396 50.9122 37.2556 50.9309C37.0758 50.9708 36.8958 51.0097 36.7158 51.0486C36.5891 51.0762 36.4625 51.1039 36.3358 51.1316C36.0706 51.1894 35.8053 51.2466 35.5399 51.3036C35.203 51.3761 34.8664 51.4502 34.5299 51.5247C34.2683 51.5824 34.0065 51.639 33.7445 51.6952C33.6205 51.722 33.4966 51.7492 33.3728 51.7769C32.2172 52.0338 31.0713 52.2331 30.0161 51.5749C29.4526 51.1967 29.1371 50.6773 28.8091 50.0984C28.7624 50.0171 28.7156 49.9359 28.6687 49.8548C28.5739 49.6904 28.4795 49.5258 28.3853 49.361C28.1929 49.0247 27.9969 48.6905 27.8013 48.3562C27.7308 48.2353 27.6604 48.1145 27.5901 47.9936C27.439 47.7344 27.2874 47.4755 27.1355 47.2168C27.0959 47.1493 27.0563 47.0817 27.0155 47.0121C26.9402 46.8836 26.8647 46.755 26.789 46.6266C26.2235 45.661 25.9513 44.7859 26.1958 43.6648C26.3343 43.1829 26.5752 42.783 26.938 42.4382C26.8617 42.4072 26.7854 42.3762 26.7068 42.3442C24.4988 41.4374 22.5201 39.9176 21.5688 37.6633C21.4485 37.3635 21.346 37.0593 21.2505 36.7507C21.2363 36.7059 21.2221 36.6611 21.2074 36.6149C20.9781 35.8509 20.9747 35.0689 20.9692 34.2781C20.9686 34.2269 20.9679 34.1758 20.9672 34.1231C20.946 31.9904 21.7291 30.1079 23.188 28.5632C23.234 28.5125 23.28 28.4617 23.3274 28.4094C24.1554 27.5301 25.2415 26.9335 26.3755 26.5437C26.4169 26.5293 26.4583 26.5149 26.5009 26.5C26.6456 26.4532 26.7907 26.4136 26.938 26.3757C27.0035 26.3587 27.069 26.3416 27.1365 26.324C27.96 26.1394 28.7857 26.1674 29.6255 26.1765C29.7775 26.1774 29.9295 26.1783 30.0815 26.1791C30.4504 26.1811 30.8192 26.1842 31.188 26.1882C31.1824 26.1443 31.1767 26.1004 31.1709 26.0552C31.1178 25.6389 31.0653 25.2224 31.0136 24.8059C30.987 24.5918 30.9602 24.3778 30.9327 24.1638C30.901 23.9171 30.8705 23.6702 30.8401 23.4233C30.8302 23.3476 30.8203 23.2718 30.8101 23.1938C30.7108 22.3723 30.7539 21.6454 31.2493 20.9526C31.8077 20.2934 32.4337 19.9813 33.2904 19.9836ZM32.0864 21.6882C31.7055 22.2423 31.8881 23.0011 31.9712 23.6262C31.9809 23.7016 31.9906 23.777 32.0006 23.8547C32.0314 24.0935 32.0628 24.3323 32.0942 24.571C32.1153 24.7338 32.1364 24.8965 32.1575 25.0593C32.2089 25.4565 32.2608 25.8536 32.313 26.2507C32.3889 26.2751 32.4648 26.2995 32.543 26.3246C32.6443 26.3577 32.7456 26.3907 32.8469 26.4238C32.8967 26.4398 32.9466 26.4557 32.9979 26.4722C34.2986 26.8991 35.2937 27.7905 35.9263 28.9968C36.0981 29.3549 36.224 29.7152 36.3301 30.0976C36.3609 30.246 36.3609 30.246 36.438 30.3132C36.5377 30.319 36.6377 30.3206 36.7377 30.3203C36.8334 30.3203 36.8334 30.3203 36.931 30.3203C37.0004 30.32 37.0698 30.3197 37.1413 30.3193C37.212 30.3192 37.2827 30.3191 37.3555 30.3191C37.5822 30.3187 37.8089 30.3179 38.0356 30.3171C38.1889 30.3168 38.3422 30.3165 38.4955 30.3163C38.8721 30.3156 39.2488 30.3144 39.6255 30.3132C39.6255 30.9732 39.6255 31.6332 39.6255 32.3132C39.8672 32.3421 39.8672 32.3421 39.9695 32.2228C39.9987 32.1809 40.0278 32.1389 40.0579 32.0957C40.1078 32.025 40.1078 32.025 40.1588 31.953C40.1929 31.903 40.227 31.853 40.2622 31.8015C40.2951 31.7546 40.328 31.7078 40.3619 31.6595C40.3956 31.6114 40.4294 31.5633 40.4641 31.5137C40.4985 31.4656 40.5329 31.4176 40.5684 31.3681C40.693 31.1881 40.693 31.1881 40.7932 30.9817C41.096 30.4376 41.096 30.4376 41.3648 30.3299C41.6995 30.2586 42.0395 30.278 42.3794 30.2893C42.4893 30.2899 42.5993 30.2901 42.7092 30.2899C42.9977 30.2904 43.2858 30.2955 43.5741 30.3019C44.0354 30.3111 44.4968 30.3125 44.9581 30.3151C45.1184 30.3166 45.2786 30.3197 45.4388 30.3231C46.325 30.3416 46.325 30.3416 47.0864 29.9226C47.1256 29.8888 47.1647 29.8549 47.2051 29.8201C47.5557 29.3916 47.569 28.8507 47.633 28.3213C47.6447 28.2286 47.6565 28.1359 47.6683 28.0433C47.6993 27.7986 47.7295 27.5539 47.7595 27.3092C47.7893 27.0678 47.8198 26.8266 47.8502 26.5853C47.8923 26.2514 47.9339 25.9175 47.9751 25.5834C48.0216 25.2062 48.0687 24.829 48.1182 24.4521C48.142 24.271 48.1655 24.0897 48.189 23.9085C48.2052 23.7845 48.2219 23.6605 48.2386 23.5365C48.4008 22.5357 48.4008 22.5357 48.063 21.6257C47.7748 21.3161 47.4978 21.0916 47.0611 21.0516C46.9099 21.0468 46.7593 21.046 46.6081 21.0465C46.5213 21.0461 46.5213 21.0461 46.4327 21.0456C46.2391 21.0449 46.0456 21.045 45.852 21.0451C45.713 21.0447 45.5741 21.0443 45.4352 21.0438C45.058 21.0427 44.6808 21.0424 44.3036 21.0423C44.0679 21.0422 43.8322 21.042 43.5965 21.0416C42.8164 21.0405 42.0364 21.0399 41.2564 21.04C41.1933 21.04 41.1933 21.04 41.129 21.0401C41.0659 21.0401 41.0659 21.0401 41.0015 21.0401C40.3199 21.0401 39.6383 21.0389 38.9567 21.0372C38.2562 21.0354 37.5556 21.0345 36.8551 21.0346C36.462 21.0346 36.069 21.0343 35.676 21.033C35.3062 21.0318 34.9365 21.0317 34.5668 21.0327C34.4313 21.0328 34.2958 21.0325 34.1602 21.0317C33.9749 21.0308 33.7896 21.0313 33.6042 21.0323C33.5509 21.0317 33.4976 21.031 33.4427 21.0304C32.869 21.0369 32.4426 21.2397 32.0864 21.6882ZM23.7104 29.5903C22.346 31.1625 21.9557 33.0969 22.063 35.1257C22.0926 35.4885 22.1565 35.8368 22.2505 36.1882C22.2626 36.2335 22.2746 36.2788 22.2871 36.3254C22.8319 38.2828 24.2009 39.8015 25.9412 40.8109C26.5409 41.1493 26.5409 41.1493 27.188 41.3132C27.188 40.2407 27.188 39.1682 27.188 38.0632C26.8477 38.0013 26.8477 38.0013 26.5005 37.9382C25.9614 37.7116 25.5769 37.4045 25.313 36.8757C25.1047 36.3593 25.0956 35.6821 25.2856 35.157C25.5492 34.6105 25.9288 34.2667 26.5005 34.0632C26.7284 34.0081 26.9554 33.9678 27.188 33.9382C27.1889 33.8778 27.1898 33.8174 27.1907 33.7551C27.2094 33.2438 27.2342 32.7945 27.563 32.3757C28.0714 31.9038 28.6733 31.8569 29.3388 31.8588C29.4013 31.8584 29.4637 31.8581 29.5281 31.8578C29.6627 31.8571 29.7974 31.8568 29.932 31.8567C30.145 31.8564 30.3581 31.8554 30.5711 31.8541C31.1764 31.8507 31.7818 31.8487 32.3871 31.8472C32.7582 31.8462 33.1292 31.8443 33.5002 31.8419C33.6415 31.8412 33.7828 31.8408 33.924 31.8408C34.1211 31.8408 34.3181 31.8396 34.5151 31.8383C34.5735 31.8385 34.6319 31.8388 34.6921 31.8391C35.0005 31.8367 35.0005 31.8367 35.2847 31.7296C35.4709 31.5165 35.4422 31.3077 35.4263 31.0398C35.3341 29.9214 34.8216 28.9141 33.9692 28.1804C33.7069 27.9821 33.432 27.8205 33.1411 27.6687C33.0842 27.6382 33.0842 27.6382 33.0262 27.607C32.1618 27.179 31.2174 27.2214 30.2776 27.2263C30.0487 27.2273 29.8199 27.2263 29.5911 27.2251C27.2802 27.2229 25.2968 27.8515 23.7104 29.5903ZM28.313 33.1882C28.2265 33.3611 28.2435 33.5014 28.2444 33.6946C28.2446 33.7703 28.2448 33.846 28.245 33.9241C28.2455 34.0035 28.246 34.0829 28.2466 34.1648C28.2469 34.2447 28.2471 34.3246 28.2474 34.407C28.2482 34.6049 28.2492 34.8028 28.2505 35.0007C28.2133 34.9991 28.1762 34.9974 28.1379 34.9958C27.9671 34.9892 27.7964 34.9852 27.6255 34.9812C27.5379 34.9773 27.5379 34.9773 27.4485 34.9732C27.0367 34.9661 26.7496 35.0334 26.438 35.3132C26.2495 35.5633 26.1669 35.7831 26.1841 36.0984C26.2338 36.3834 26.3421 36.622 26.563 36.8132C27.1126 37.0828 27.1126 37.0828 28.2505 37.0007C28.2505 38.5063 28.2505 40.012 28.2505 41.5632C28.4497 41.613 28.5852 41.6338 28.7848 41.6348C28.8408 41.6352 28.8967 41.6356 28.9543 41.636C29.0143 41.6361 29.0744 41.6361 29.1362 41.6362C29.2296 41.6365 29.2296 41.6365 29.3249 41.6368C29.4567 41.6372 29.5884 41.6373 29.7202 41.6373C29.9207 41.6374 30.1212 41.6386 30.3218 41.6398C30.45 41.6399 30.5783 41.6401 30.7065 41.6401C30.7661 41.6406 30.8256 41.641 30.8869 41.6415C31.238 41.6403 31.5385 41.6004 31.8755 41.5007C31.7078 41.3279 31.5407 41.1698 31.352 41.0202C30.4489 40.2447 30.3648 39.2069 30.2505 38.0632C31.6117 38.0632 32.973 38.0632 34.3755 38.0632C34.3755 36.372 34.3755 34.6807 34.3755 32.9382C33.3485 32.9309 33.3485 32.9309 32.3215 32.926C31.9027 32.9245 31.484 32.9227 31.0652 32.9194C30.7276 32.9166 30.3901 32.9151 30.0525 32.9145C29.9236 32.914 29.7947 32.9131 29.6659 32.9118C29.4855 32.91 29.3053 32.9097 29.1249 32.9098C29.0715 32.9089 29.018 32.908 28.963 32.9071C28.6598 32.9092 28.5011 32.9254 28.313 33.1882ZM31.438 39.1257C31.672 39.8279 31.9558 40.2864 32.6255 40.6257C32.8178 40.7128 32.9755 40.7695 33.188 40.7507C33.6547 40.4862 34.0201 39.8062 34.188 39.3132C34.188 39.2513 34.188 39.1895 34.188 39.1257C33.2805 39.1257 32.373 39.1257 31.438 39.1257ZM27.5925 43.3164C27.2986 43.7054 27.2275 44.0518 27.2192 44.532C27.2181 44.5757 27.2169 44.6194 27.2157 44.6645C27.2236 45.3222 27.6346 45.8785 27.9536 46.4304C27.9978 46.5073 28.042 46.5843 28.0862 46.6612C28.4342 47.2659 28.7883 47.8669 29.1462 48.4657C29.3344 48.7808 29.5205 49.0964 29.6985 49.4175C29.7287 49.4716 29.7589 49.5257 29.7901 49.5814C29.8444 49.6791 29.8979 49.7773 29.9505 49.876C30.1881 50.3018 30.5337 50.6625 30.9966 50.8406C31.0435 50.8598 31.0905 50.8791 31.1389 50.8989C31.6663 51.018 32.1764 50.8922 32.6938 50.7807C32.7706 50.7645 32.8473 50.7483 32.9264 50.7316C33.1287 50.6887 33.3308 50.6452 33.5329 50.6015C33.6986 50.566 33.8645 50.5315 34.0305 50.497C34.2283 50.4556 34.4259 50.413 34.6235 50.3706C34.698 50.3552 34.7725 50.3397 34.8492 50.3238C34.9174 50.3088 34.9857 50.2938 35.056 50.2783C35.1164 50.2654 35.1767 50.2525 35.2389 50.2392C35.284 50.2224 35.329 50.2056 35.3755 50.1882C35.4585 49.9392 35.3786 49.7814 35.2937 49.5449C35.2707 49.4787 35.2707 49.4787 35.2472 49.4112C35.198 49.2703 35.1481 49.1296 35.0981 48.989C35.0647 48.8935 35.0313 48.798 34.9979 48.7025C34.916 48.4684 34.8334 48.2345 34.7505 48.0007C34.673 48.0102 34.5956 48.0197 34.5158 48.0295C34.4722 48.0349 34.4287 48.0402 34.3838 48.0458C33.7326 48.1111 33.7326 48.1111 33.2036 48.4446C33.1368 48.6089 33.0977 48.7643 33.063 48.9382C33.0269 49.0659 32.9905 49.1935 32.9536 49.321C32.9272 49.4225 32.901 49.524 32.8755 49.6257C32.8145 49.6032 32.7535 49.5806 32.6907 49.5574C32.6103 49.528 32.53 49.4987 32.4497 49.4695C32.4095 49.4546 32.3694 49.4397 32.328 49.4243C32.1474 49.3588 32.0067 49.3132 31.813 49.3132C31.8333 49.2599 31.8333 49.2599 31.8541 49.2054C31.9157 49.0425 31.9757 48.8791 32.0356 48.7156C32.057 48.6596 32.0784 48.6037 32.1005 48.546C32.1304 48.4635 32.1304 48.4635 32.1609 48.3794C32.1795 48.3293 32.1982 48.2792 32.2174 48.2276C32.2987 47.8237 32.1431 47.486 31.9736 47.1299C31.952 47.0832 31.9303 47.0365 31.908 46.9884C31.8378 46.8373 31.7668 46.6866 31.6958 46.5359C31.6472 46.4317 31.5986 46.3275 31.5501 46.2233C31.4773 46.067 31.4045 45.9108 31.3314 45.7547C31.1899 45.4523 31.0503 45.1492 30.9131 44.845C30.8825 44.7772 30.8518 44.7094 30.8203 44.6395C30.7653 44.5175 30.7105 44.3954 30.656 44.2732C30.3808 43.6661 30.09 43.0986 29.4497 42.821C28.7714 42.6028 28.067 42.7813 27.5925 43.3164ZM37.063 43.0007C37.0092 43.1859 37.0092 43.1859 36.9912 43.394C36.982 43.4718 36.9729 43.5496 36.9634 43.6297C36.955 43.7109 36.9466 43.7921 36.938 43.8757C36.9247 43.9935 36.9247 43.9935 36.9111 44.1137C36.8846 44.3532 36.8602 44.5929 36.8364 44.8327C36.828 44.9135 36.8197 44.9943 36.811 45.0775C36.7695 45.4917 36.7405 45.8969 36.7505 46.3132C37.0599 46.3132 37.3692 46.3132 37.688 46.3132C37.7789 45.702 37.8537 45.0922 37.9145 44.4773C37.9229 44.396 37.9313 44.3147 37.9399 44.2309C38.0574 43.5223 38.0574 43.5223 37.8677 42.8757C37.6972 42.7388 37.6972 42.7388 37.4966 42.7156C37.2679 42.7593 37.2074 42.8204 37.063 43.0007ZM31.2505 42.9382C31.3467 43.2504 31.4738 43.5396 31.6118 43.8347C31.6349 43.8846 31.658 43.9345 31.6819 43.986C31.7566 44.1472 31.8316 44.3084 31.9067 44.4695C32.0093 44.6896 32.1117 44.9098 32.2141 45.1301C32.2392 45.184 32.2642 45.2379 32.29 45.2934C32.4317 45.599 32.5696 45.9057 32.7029 46.2151C32.7308 46.2794 32.7588 46.3437 32.7876 46.41C32.837 46.5246 32.8855 46.6396 32.9329 46.755C32.9543 46.8043 32.9757 46.8537 32.9978 46.9045C33.0152 46.9463 33.0326 46.9881 33.0505 47.0311C33.1218 47.1381 33.1218 47.1381 33.2641 47.1763C33.4763 47.1909 33.6409 47.1539 33.8469 47.1008C33.9243 47.0812 34.0017 47.0615 34.0814 47.0412C34.1625 47.0199 34.2436 46.9986 34.3247 46.9773C34.4065 46.9564 34.4883 46.9356 34.5702 46.9148C34.9508 46.8274 34.9508 46.8274 35.313 46.6882C35.0671 45.7703 34.5382 45.0374 33.8755 44.3757C33.8391 44.3349 33.8028 44.2942 33.7654 44.2522C33.1582 43.5823 32.1451 43.0377 31.2505 42.9382ZM36.3716 47.532C36.3175 47.5469 36.2634 47.5618 36.2076 47.5771C36.0759 47.6135 35.9444 47.6508 35.813 47.6882C35.943 48.1889 36.0963 48.6788 36.2622 49.1687C36.2967 49.2713 36.2967 49.2713 36.3319 49.3761C36.3879 49.5427 36.4441 49.7092 36.5005 49.8757C37.484 49.7996 37.484 49.7996 38.2798 49.2705C38.5174 48.9424 38.56 48.6482 38.5005 48.2507C38.3717 47.8569 38.0771 47.6175 37.727 47.4148C37.2592 47.3034 36.8246 47.4019 36.3716 47.532Z" fill="#7B55D3"/>
<path d="M41.8877 34.4279C41.9675 34.4275 42.0474 34.427 42.1296 34.4266C42.2179 34.4264 42.3062 34.4262 42.3946 34.4261C42.4877 34.4257 42.5808 34.4253 42.6739 34.4248C42.9797 34.4235 43.2855 34.4229 43.5913 34.4222C43.6968 34.422 43.8022 34.4217 43.9077 34.4215C44.4034 34.4203 44.8992 34.4194 45.3949 34.4189C45.966 34.4183 46.5372 34.4166 47.1083 34.4141C47.5504 34.4122 47.9925 34.4113 48.4346 34.4111C48.6984 34.4109 48.9621 34.4104 49.2258 34.4088C49.4742 34.4073 49.7227 34.4071 49.9711 34.4077C50.0618 34.4077 50.1526 34.4074 50.2433 34.4065C51.1015 34.3988 51.7408 34.5737 52.3782 35.1637C52.8773 35.6743 53.0218 36.2407 53.0267 36.9334C53.0113 37.8298 52.8201 38.721 52.6662 39.6018C52.631 39.8049 52.5971 40.0083 52.5632 40.2116C52.53 40.4095 52.4962 40.6073 52.4621 40.805C52.4461 40.8985 52.4302 40.992 52.4146 41.0855C52.2588 42.0118 52.041 42.7862 51.2571 43.3668C50.8002 43.6874 50.3931 43.7643 49.8398 43.7443C48.8351 43.662 48.8351 43.662 47.8892 43.9085C47.64 44.145 47.5002 44.4283 47.3704 44.7429C47.2863 44.9318 47.1667 45.0801 47.0344 45.2379C46.9984 45.2834 46.9624 45.329 46.9253 45.3759C46.6952 45.6268 46.4914 45.7961 46.1448 45.827C45.7218 45.8372 45.4622 45.8242 45.1243 45.5621C44.8083 45.2462 44.6827 44.9333 44.6746 44.4882C44.6754 44.3995 44.6769 44.3109 44.679 44.2223C44.6795 44.1766 44.6801 44.1308 44.6807 44.0837C44.6821 43.9724 44.6844 43.861 44.6868 43.7496C44.6165 43.7509 44.5463 43.7523 44.4739 43.7536C44.2103 43.7582 43.9467 43.761 43.6831 43.7634C43.5696 43.7646 43.4561 43.7663 43.3425 43.7685C42.3835 43.7864 41.6702 43.6999 40.9329 43.027C40.4876 42.5625 40.3314 41.9834 40.2297 41.3629C40.2178 41.2938 40.2058 41.2247 40.1934 41.1535C40.1656 40.9914 40.1381 40.8294 40.1111 40.6671C40.0642 40.3868 40.0149 40.107 39.9655 39.8271C39.9187 39.5609 39.8727 39.2947 39.8269 39.0284C39.804 38.896 39.7809 38.7636 39.7576 38.6313C39.368 36.4138 39.368 36.4138 39.9133 35.5231C40.4003 34.8437 41.0465 34.4312 41.8877 34.4279ZM40.9719 35.9489C40.4912 36.6022 40.6673 37.2654 40.7802 38.0184C40.8543 38.5007 40.9323 38.9822 41.012 39.4636C41.0473 39.677 41.0816 39.8906 41.1157 40.1042C41.149 40.311 41.1833 40.5176 41.2175 40.7242C41.2295 40.8 41.2415 40.8758 41.2539 40.9539C41.3413 41.4719 41.4403 42.0207 41.8665 42.3707C41.9063 42.4048 41.9461 42.4389 41.9871 42.474C42.3878 42.7314 42.8011 42.7035 43.2605 42.6993C43.37 42.6991 43.37 42.6991 43.4817 42.6988C43.7141 42.6981 43.9465 42.6965 44.179 42.6949C44.3368 42.6943 44.4947 42.6937 44.6526 42.6932C45.039 42.692 45.4254 42.6895 45.8118 42.6871C45.8118 43.3471 45.8118 44.0071 45.8118 44.6871C45.8736 44.7078 45.9355 44.7284 45.9993 44.7496C46.3555 44.2965 46.7008 43.8369 47.0344 43.3668C47.0836 43.298 47.0836 43.298 47.1337 43.2278C47.1642 43.1846 47.1947 43.1413 47.2261 43.0968C47.2532 43.0584 47.2803 43.0201 47.3082 42.9806C47.3851 42.8664 47.3851 42.8664 47.4368 42.6871C47.5137 42.6881 47.5906 42.6891 47.6698 42.6901C47.9568 42.6935 48.2438 42.6957 48.5308 42.6974C48.6547 42.6984 48.7786 42.6996 48.9025 42.7013C49.0813 42.7036 49.26 42.7046 49.4387 42.7054C49.4936 42.7064 49.5484 42.7074 49.6049 42.7084C50.0341 42.7085 50.3547 42.62 50.7297 42.402C51.2007 41.9056 51.2792 41.2449 51.3814 40.5968C51.3976 40.498 51.414 40.3992 51.4305 40.3004C51.4645 40.0945 51.4979 39.8885 51.5308 39.6823C51.5727 39.4192 51.6159 39.1563 51.6596 38.8935C51.6933 38.6899 51.7267 38.4862 51.7598 38.2826C51.7756 38.1856 51.7915 38.0887 51.8074 37.9918C51.8297 37.8561 51.8513 37.7204 51.8729 37.5846C51.8853 37.5076 51.8976 37.4307 51.9104 37.3514C51.9666 36.8679 51.9546 36.4807 51.6868 36.0621C51.4173 35.7547 51.1552 35.5722 50.7493 35.4996C50.4626 35.4808 50.1763 35.4813 49.8891 35.4815C49.802 35.4811 49.7149 35.4807 49.6278 35.4802C49.3921 35.4791 49.1564 35.4788 48.9208 35.4787C48.7732 35.4786 48.6257 35.4784 48.4782 35.478C47.9628 35.4769 47.4475 35.4764 46.9321 35.4765C46.4529 35.4765 45.9737 35.4752 45.4946 35.4733C45.0821 35.4716 44.6697 35.4709 44.2573 35.471C44.0114 35.4711 43.7655 35.4707 43.5197 35.4694C43.2882 35.4682 43.0568 35.4682 42.8254 35.4691C42.7009 35.4693 42.5764 35.4682 42.4519 35.4671C41.8924 35.471 41.3785 35.5315 40.9719 35.9489Z" fill="#7B55D3"/>
<path d="M32.8125 24.125C37.2675 24.125 41.7225 24.125 46.3125 24.125C46.3125 24.4756 46.3125 24.8262 46.3125 25.1875C41.8575 25.1875 37.4025 25.1875 32.8125 25.1875C32.8125 24.8369 32.8125 24.4863 32.8125 24.125Z" fill="#65C7C3"/>
<path d="M37 26.1875C40.0731 26.1875 43.1462 26.1875 46.3125 26.1875C46.3125 26.5381 46.3125 26.8887 46.3125 27.25C43.2394 27.25 40.1662 27.25 37 27.25C37 26.8994 37 26.5488 37 26.1875Z" fill="#65C7C3"/>
<path d="M37 22.0625C40.0731 22.0625 43.1462 22.0625 46.3125 22.0625C46.3125 22.4131 46.3125 22.7637 46.3125 23.125C43.2394 23.125 40.1662 23.125 37 23.125C37 22.7744 37 22.4238 37 22.0625Z" fill="#65C7C3"/>
<path d="M42.625 40.625C45.0381 40.625 47.4513 40.625 49.9375 40.625C49.9375 40.9756 49.9375 41.3262 49.9375 41.6875C47.5244 41.6875 45.1112 41.6875 42.625 41.6875C42.625 41.3369 42.625 40.9863 42.625 40.625Z" fill="#65C7C3"/>
<path d="M42.625 38.5625C45.0381 38.5625 47.4513 38.5625 49.9375 38.5625C49.9375 38.9131 49.9375 39.2637 49.9375 39.625C47.5244 39.625 45.1112 39.625 42.625 39.625C42.625 39.2744 42.625 38.9238 42.625 38.5625Z" fill="#65C7C3"/>
<path d="M42.625 36.5C45.0381 36.5 47.4513 36.5 49.9375 36.5C49.9375 36.8506 49.9375 37.2012 49.9375 37.5625C47.5244 37.5625 45.1112 37.5625 42.625 37.5625C42.625 37.2119 42.625 36.8613 42.625 36.5Z" fill="#65C7C3"/>
<path d="M37 28.25C38.7119 28.25 40.4237 28.25 42.1875 28.25C42.1875 28.6006 42.1875 28.9512 42.1875 29.3125C40.4756 29.3125 38.7637 29.3125 37 29.3125C37 28.9619 37 28.6113 37 28.25Z" fill="#65C7C3"/>
<path d="M32.5943 34.0346C32.9933 34.2823 33.2821 34.6447 33.4117 35.0959C33.4624 35.3991 33.4486 35.6968 33.438 36.0034C33.0668 36.0034 32.6955 36.0034 32.313 36.0034C32.3079 35.8951 32.3027 35.7868 32.2974 35.6752C32.2765 35.4565 32.2617 35.3348 32.149 35.144C31.9323 35.0299 31.7946 35.064 31.563 35.1284C31.4262 35.3337 31.416 35.4303 31.399 35.6713C31.3912 35.7809 31.3835 35.8905 31.3755 36.0034C31.0043 36.0034 30.633 36.0034 30.2505 36.0034C30.2292 35.386 30.2392 34.9148 30.6373 34.4213C31.1453 33.8944 31.9003 33.731 32.5943 34.0346Z" fill="#7B55D3"/>
<path d="M32.8125 22.0625C33.1838 22.0625 33.555 22.0625 33.9375 22.0625C33.9375 22.4131 33.9375 22.7637 33.9375 23.125C33.5662 23.125 33.195 23.125 32.8125 23.125C32.8125 22.7744 32.8125 22.4238 32.8125 22.0625Z" fill="#65C7C3"/>
<path d="M45.25 28.25C45.6006 28.25 45.9512 28.25 46.3125 28.25C46.3125 28.6006 46.3125 28.9512 46.3125 29.3125C45.9619 29.3125 45.6113 29.3125 45.25 29.3125C45.25 28.9619 45.25 28.6113 45.25 28.25Z" fill="#65C7C3"/>
<path d="M43.1875 28.25C43.5381 28.25 43.8887 28.25 44.25 28.25C44.25 28.6006 44.25 28.9512 44.25 29.3125C43.8994 29.3125 43.5488 29.3125 43.1875 29.3125C43.1875 28.9619 43.1875 28.6113 43.1875 28.25Z" fill="#65C7C3"/>
<path d="M34.9375 22.0625C35.2881 22.0625 35.6387 22.0625 36 22.0625C36 22.4131 36 22.7637 36 23.125C35.6494 23.125 35.2988 23.125 34.9375 23.125C34.9375 22.7744 34.9375 22.4238 34.9375 22.0625Z" fill="#65C7C3"/>
</g>
</g>
<defs>
<filter id="filter0_d_1_130180" x="0" y="0" width="74" height="74" filterUnits="userSpaceOnUse" color-interpolation-filters="sRGB">
<feFlood flood-opacity="0" result="BackgroundImageFix"/>
<feColorMatrix in="SourceAlpha" type="matrix" values="0 0 0 0 0 0 0 0 0 0 0 0 0 0 0 0 0 0 127 0" result="hardAlpha"/>
<feOffset dy="1"/>
<feGaussianBlur stdDeviation="0.5"/>
<feComposite in2="hardAlpha" operator="out"/>
<feColorMatrix type="matrix" values="0 0 0 0 0 0 0 0 0 0 0 0 0 0 0 0 0 0 0.04 0"/>
<feBlend mode="normal" in2="BackgroundImageFix" result="effect1_dropShadow_1_130180"/>
<feBlend mode="normal" in="SourceGraphic" in2="effect1_dropShadow_1_130180" result="shape"/>
</filter>
<clipPath id="clip0_1_130180">
<rect width="32" height="32" fill="white" transform="translate(21 20)"/>
</clipPath>
</defs>
</svg>
