<svg width="104" height="104" viewBox="0 0 104 104" fill="none" xmlns="http://www.w3.org/2000/svg">
<path d="M103.693 79.7891H0V79.8409H103.693V79.7891Z" fill="#EBEBEB"/>
<path d="M93.3032 83.125H86.4346V83.1768H93.3032V83.125Z" fill="#EBEBEB"/>
<path d="M68.6896 83.6953H66.8877V83.7471H68.6896V83.6953Z" fill="#EBEBEB"/>
<path d="M86.2268 81.2031H82.2471V81.255H86.2268V81.2031Z" fill="#EBEBEB"/>
<path d="M19.8359 81.5547H10.8789V81.6065H19.8359V81.5547Z" fill="#EBEBEB"/>
<path d="M22.9963 81.5547H21.6846V81.6065H22.9963V81.5547Z" fill="#EBEBEB"/>
<path d="M46.6925 82.4219H27.2646V82.4737H46.6925V82.4219Z" fill="#EBEBEB"/>
<path d="M74.5176 39.9389C80.5216 39.9389 85.3888 35.0714 85.3888 29.0671C85.3888 23.0628 80.5216 18.1953 74.5176 18.1953C68.5137 18.1953 63.6465 23.0628 63.6465 29.0671C63.6465 35.0714 68.5137 39.9389 74.5176 39.9389Z" fill="#E0E0E0"/>
<path d="M73.6924 39.9389C79.6964 39.9389 84.5636 35.0714 84.5636 29.0671C84.5636 23.0628 79.6964 18.1953 73.6924 18.1953C67.6885 18.1953 62.8213 23.0628 62.8213 29.0671C62.8213 35.0714 67.6885 39.9389 73.6924 39.9389Z" fill="#F5F5F5"/>
<path d="M80.7981 36.1756C84.722 32.2515 84.722 25.8892 80.7981 21.965C76.8742 18.0409 70.5122 18.0409 66.5883 21.965C62.6644 25.8892 62.6644 32.2515 66.5883 36.1756C70.5122 40.0998 76.8742 40.0998 80.7981 36.1756Z" fill="white"/>
<path d="M75.4052 36.3825C75.3505 36.3826 75.2974 36.3642 75.2545 36.3303C75.2116 36.2964 75.1814 36.2491 75.1688 36.1959L73.4557 29.1278C73.4436 29.066 73.4558 29.0019 73.4897 28.9489C73.5236 28.8958 73.5766 28.8579 73.6378 28.8429C73.6989 28.828 73.7635 28.8372 73.818 28.8686C73.8725 28.9 73.9129 28.9512 73.9307 29.0116L75.6416 36.0818C75.6566 36.1448 75.646 36.2111 75.6122 36.2663C75.5784 36.3215 75.5241 36.361 75.4612 36.3763C75.4428 36.3804 75.424 36.3825 75.4052 36.3825Z" fill="#F5F5F5"/>
<path d="M73.6921 29.5578C73.6281 29.5579 73.5648 29.5452 73.5057 29.5207C73.4466 29.4961 73.393 29.4601 73.3479 29.4147L67.4685 23.535C67.4233 23.4897 67.3874 23.4359 67.363 23.3767C67.3386 23.3175 67.3261 23.254 67.3262 23.19C67.3264 23.0607 67.3779 22.9367 67.4695 22.8454C67.5611 22.7541 67.6852 22.7029 67.8145 22.7031C67.9438 22.7033 68.0678 22.7549 68.1591 22.8465L73.6921 28.3819L76.9211 25.1527C77.0127 25.0614 77.1368 25.0102 77.2661 25.0104C77.3954 25.0106 77.5194 25.0622 77.6107 25.1538C77.702 25.2453 77.7532 25.3695 77.753 25.4988C77.7528 25.6281 77.7012 25.7521 77.6096 25.8434L74.0364 29.4147C73.9451 29.5062 73.8213 29.5577 73.6921 29.5578Z" fill="#EBEBEB"/>
<path d="M45.9359 78.2734H47.5742V67.0532H45.9359V78.2734Z" fill="#F0F0F0"/>
<path d="M12.7981 79.7891H46.4941V78.2751H12.7981V79.7891Z" fill="#F0F0F0"/>
<path d="M45.9356 67.0625H11.7148V78.2827H45.9356V67.0625Z" fill="#F5F5F5"/>
<path d="M43.7208 69.0078H13.9277V75.4164H43.7208V69.0078Z" fill="#F0F0F0"/>
<path d="M21.5786 69.8672H36.0749C36.3464 69.8672 36.5664 69.6471 36.5664 69.3757V69.2844C36.5664 69.0129 36.3464 68.7929 36.0749 68.7929H21.5786C21.3072 68.7929 21.0871 69.0129 21.0871 69.2844V69.3757C21.0871 69.6471 21.3072 69.8672 21.5786 69.8672Z" fill="#F5F5F5"/>
<path d="M10.9641 67.0625H45.9355V66.0608H10.9641V67.0625Z" fill="#F0F0F0"/>
<path d="M48.3599 66.0547H45.9355V67.0564H48.3599V66.0547Z" fill="#E6E6E6"/>
<path d="M89.1117 55.2109H85.918V79.7917H89.1117V55.2109Z" fill="#F0F0F0"/>
<path d="M57.9644 79.7891H85.918V55.2083H57.9644V79.7891Z" fill="#F5F5F5"/>
<path d="M57.709 77.6328H82.251V64.4859H57.709V77.6328Z" fill="#FAFAFA"/>
<path d="M57.709 63.0938H82.251V58.7654H57.709V63.0938Z" fill="#FAFAFA"/>
<g style="mix-blend-mode:multiply" opacity="0.7">
<path d="M82.4707 64.4844H82.251V77.6313H82.4707V64.4844Z" fill="#E6E6E6"/>
</g>
<g style="mix-blend-mode:multiply" opacity="0.7">
<path d="M82.4707 58.7656H82.251V63.094H82.4707V58.7656Z" fill="#E6E6E6"/>
</g>
<g style="mix-blend-mode:multiply" opacity="0.7">
<path d="M89.1113 56.2422H57.8936V56.798H89.1113V56.2422Z" fill="#E6E6E6"/>
</g>
<path d="M89.485 54.875H85.918V56.4823H89.485V54.875Z" fill="#F0F0F0"/>
<path d="M57.5912 56.4844H85.918V54.877H57.5912V56.4844Z" fill="#F5F5F5"/>
<path d="M68.2176 50.1402C68.0249 49.8367 67.8977 49.4962 67.8443 49.1406C67.788 48.7854 67.7699 48.4253 67.7903 48.0663C67.8348 47.3519 67.9872 46.6485 68.2424 45.9799C68.3639 45.6481 68.5024 45.3227 68.6572 45.0051C68.8231 44.694 68.989 44.3829 69.1757 44.0863C69.3623 43.7897 69.5676 43.5035 69.7792 43.2256C69.9907 42.9477 70.2292 42.6885 70.476 42.4375C70.3557 42.7714 70.2126 43.0867 70.0612 43.4019C69.9098 43.7171 69.7916 44.0345 69.6464 44.3414L69.2441 45.2747L69.0595 45.7455L68.9641 45.9799L68.8812 46.2163C68.6443 46.8395 68.4564 47.4802 68.3192 48.1326C68.2479 48.4586 68.1994 48.7892 68.174 49.1219C68.1431 49.4618 68.1577 49.8043 68.2176 50.1402Z" fill="#E6E6E6"/>
<path d="M64.1918 50.6919C64.2184 50.1912 64.1745 49.6892 64.0611 49.2007C63.955 48.7554 63.747 48.3408 63.4535 47.9895C63.1405 47.6414 62.7701 47.3496 62.3585 47.1267C61.9333 46.8799 61.4647 46.687 60.9814 46.4589C61.5184 46.4016 62.0614 46.4596 62.5742 46.629C62.8391 46.7157 63.0925 46.8341 63.3291 46.9815C63.5709 47.1373 63.7895 47.3265 63.9782 47.5436C64.3548 47.9878 64.5736 48.5443 64.6003 49.126C64.6289 49.6776 64.4862 50.2246 64.1918 50.6919Z" fill="#E6E6E6"/>
<path d="M64.3725 50.62C64.3549 50.0364 64.3002 49.4545 64.2086 48.8778C64.123 48.3283 63.9705 47.7913 63.7545 47.2788C63.5383 46.7749 63.2413 46.3098 62.8751 45.9017C62.4799 45.4797 62.0405 45.1015 61.5645 44.7734C62.1778 44.8685 62.7563 45.1199 63.2443 45.5035C63.7445 45.9008 64.1373 46.417 64.387 47.005C64.6332 47.5837 64.7554 48.2076 64.7458 48.8364C64.7494 49.4507 64.6221 50.0587 64.3725 50.62Z" fill="#E6E6E6"/>
<path d="M67.9419 49.5592C67.4913 48.9746 67.1087 48.3407 66.8012 47.6698C66.4887 47.0006 66.2314 46.3069 66.0318 45.5958C65.83 44.8828 65.696 44.1522 65.6316 43.414C65.5637 42.6759 65.5978 41.9319 65.7332 41.2031C65.8846 41.9311 66.0007 42.6342 66.1666 43.3331C66.3325 44.032 66.4985 44.7206 66.6955 45.4071C66.8925 46.0936 67.0916 46.78 67.3052 47.4665C67.5188 48.153 67.7365 48.8499 67.9419 49.5592Z" fill="#E6E6E6"/>
<path d="M67.7554 49.5063C67.242 49.0041 66.7845 48.4478 66.3908 47.8471C65.9966 47.2481 65.6499 46.6192 65.3539 45.966C65.0537 45.3114 64.8149 44.6303 64.6405 43.9315C64.4639 43.2315 64.3837 42.5107 64.402 41.7891C64.6633 42.4652 64.8893 43.1206 65.1568 43.7656C65.4244 44.4106 65.6898 45.0494 65.9864 45.6819C66.2829 46.3145 66.5691 46.945 66.8719 47.5796C67.1747 48.2142 67.4671 48.8468 67.7554 49.5063Z" fill="#E6E6E6"/>
<path d="M68.5269 50.1733C67.9454 49.8653 67.4053 49.4848 66.9196 49.0409C66.4305 48.5999 65.984 48.1138 65.5861 47.5891C65.1801 47.0672 64.8324 46.5025 64.5492 45.905C64.2658 45.308 64.0769 44.6706 63.9893 44.0156C64.346 44.5735 64.6612 45.119 65.0262 45.6395C65.3912 46.1601 65.7437 46.6765 66.1316 47.1722C66.5194 47.6679 66.9072 48.1657 67.3095 48.6593C67.7118 49.1529 68.1204 49.6548 68.5269 50.1733Z" fill="#E6E6E6"/>
<path d="M67.3999 49.5188C66.8349 49.2862 66.3111 48.964 65.8487 48.5647C65.3821 48.1723 64.9644 47.7253 64.6044 47.2333C64.4214 46.9879 64.2525 46.7324 64.0983 46.468C63.9482 46.1998 63.8145 45.9228 63.6981 45.6384C63.4595 45.0751 63.3132 44.477 63.2646 43.8672C63.5902 44.3878 63.8578 44.9042 64.1813 45.3895C64.3265 45.6404 64.5007 45.8727 64.6521 46.1175C64.8035 46.3622 64.9797 46.5903 65.1581 46.8185C65.501 47.2803 65.8604 47.7331 66.2365 48.1769C66.6015 48.627 66.9852 49.0646 67.3999 49.5188Z" fill="#E6E6E6"/>
<path d="M68.284 49.8626C68.0157 49.6732 67.8013 49.4173 67.6618 49.1201C67.5177 48.8234 67.4165 48.5078 67.3611 48.1826C67.2574 47.5379 67.2757 46.8794 67.415 46.2414C67.4821 45.9283 67.5652 45.6189 67.6639 45.3143C67.7821 45.0178 67.8879 44.717 68.0289 44.4329C68.1699 44.1488 68.3192 43.8709 68.4872 43.6033C68.66 43.3382 68.8462 43.0821 69.0451 42.8359C68.9787 43.1491 68.8854 43.4457 68.7962 43.7423C68.707 44.0388 68.6324 44.3375 68.5349 44.6258C68.4374 44.9141 68.3794 45.2127 68.2902 45.501L68.1886 45.9386C68.1533 46.0838 68.1118 46.229 68.0911 46.3762C67.966 46.952 67.902 47.5395 67.9003 48.1287C67.8977 48.423 67.9241 48.7169 67.9791 49.006C68.0309 49.3069 68.134 49.5966 68.284 49.8626Z" fill="#E6E6E6"/>
<path d="M67.8986 49.2008C67.444 48.7148 67.1144 48.1254 66.9384 47.4836C66.7469 46.8356 66.6856 46.1561 66.758 45.4843C66.7683 45.3163 66.8098 45.1524 66.8368 44.9865L66.8845 44.7376L66.957 44.4971C67.011 44.3374 67.0566 44.1777 67.1167 44.0221C67.1769 43.8666 67.2557 43.7173 67.3241 43.5679L67.4361 43.346L67.5709 43.1386L67.8447 42.7238C68.0493 42.4685 68.2703 42.2268 68.5062 42C68.3984 42.3132 68.2553 42.5973 68.1391 42.8918L67.9753 43.3336L67.8924 43.541L67.826 43.765C67.7824 43.9122 67.7368 44.0595 67.6891 44.2046L67.5875 44.6505L67.5336 44.8725L67.5025 45.0964C67.4838 45.2458 67.4465 45.3951 67.4382 45.5444C67.375 46.1482 67.3833 46.7573 67.4631 47.3592C67.5399 47.9872 67.686 48.6049 67.8986 49.2008Z" fill="#E6E6E6"/>
<path d="M67.0226 48.949L64.0508 46.3047L64.4904 49.8947L67.0226 48.949Z" fill="#E6E6E6"/>
<path d="M61.2949 48.4688H69.918L68.7878 54.8753H62.4252L61.2949 48.4688Z" fill="#F5F5F5"/>
<path d="M66.6826 48.4688H69.9178L68.7876 54.8753H67.0891L66.6826 48.4688Z" fill="#EBEBEB"/>
<path d="M77.533 50.1501C77.5736 49.8669 77.5617 49.5786 77.4977 49.2997C77.4429 49.0329 77.3573 48.7733 77.2427 48.5261C77.0103 48.0302 76.7155 47.5661 76.3654 47.1449C76.2866 47.0308 76.185 46.9375 76.0958 46.8276C76.0066 46.7176 75.9154 46.6202 75.82 46.5102C75.6126 46.3028 75.4343 46.0954 75.2289 45.8881C75.0236 45.6807 74.8266 45.4733 74.6192 45.2659C74.4118 45.0585 74.2045 44.8511 73.9971 44.625C74.277 44.7308 74.5425 44.8614 74.8121 44.9942C75.0737 45.138 75.3277 45.2951 75.5732 45.465C75.6969 45.5497 75.816 45.6411 75.9299 45.7387C76.046 45.8341 76.1601 45.9337 76.2742 46.0312C76.4953 46.2398 76.7031 46.4622 76.8963 46.6969C77.2946 47.1764 77.5852 47.7359 77.7487 48.3374C77.8274 48.6418 77.8547 48.9573 77.8296 49.2707C77.8155 49.5859 77.7127 49.8907 77.533 50.1501Z" fill="#E6E6E6"/>
<path d="M82.3814 49.2902C82.1629 49.1018 82.0012 48.8562 81.9148 48.5809C81.8669 48.4391 81.8356 48.2923 81.8215 48.1433C81.8173 48.0673 81.8173 47.9912 81.8215 47.9152C81.819 47.8392 81.826 47.7633 81.8422 47.6891C81.964 47.0991 82.2723 46.564 82.7215 46.1627C82.8252 46.061 82.9434 45.9801 83.0533 45.8889C83.1627 45.7981 83.2792 45.7162 83.4017 45.6442C83.522 45.5736 83.6423 45.5011 83.7668 45.4368C83.8269 45.4036 83.887 45.3663 83.9513 45.3372L84.1421 45.2563C84.2707 45.2024 84.3993 45.1526 84.5279 45.1029C84.6557 45.0511 84.7875 45.0095 84.9219 44.9784C85.1891 44.9088 85.4597 44.8534 85.7328 44.8125C85.5184 44.9823 85.2947 45.1402 85.0629 45.2854C84.9489 45.3538 84.841 45.4305 84.7332 45.5094C84.6253 45.5882 84.5258 45.6587 84.4055 45.7313C84.1794 45.8661 83.9907 46.0382 83.7833 46.1834C83.6798 46.256 83.5814 46.3357 83.4888 46.4219C83.3935 46.5049 83.2815 46.5795 83.2027 46.6666C82.8435 46.9842 82.56 47.3782 82.3731 47.8198C82.3335 47.9308 82.3017 48.0445 82.2777 48.1599C82.2586 48.2799 82.2489 48.4013 82.2487 48.5228C82.2486 48.7843 82.2935 49.0439 82.3814 49.2902Z" fill="#E6E6E6"/>
<path d="M82.1601 49.2807C81.7855 48.7928 81.5815 48.1953 81.5794 47.5801C81.5708 46.9499 81.7312 46.329 82.044 45.7819L82.2928 45.3879C82.3882 45.2655 82.4899 45.1494 82.5915 45.0332L82.747 44.8611L82.9171 44.7118L83.2655 44.4193C83.5117 44.2485 83.7672 44.0913 84.0307 43.9485C84.3012 43.8259 84.5782 43.7179 84.8603 43.625C84.6529 43.8448 84.4455 44.0398 84.2236 44.2265C84.0017 44.4131 83.8213 44.6267 83.6263 44.8238C83.5351 44.9316 83.4459 45.0312 83.3526 45.1369L83.2136 45.2883L83.0954 45.4542C83.0166 45.5642 82.9295 45.6616 82.8528 45.7778L82.6454 46.12C82.3824 46.5815 82.2047 47.0867 82.1207 47.6112C82.0348 48.1656 82.0481 48.731 82.1601 49.2807Z" fill="#E6E6E6"/>
<path d="M77.7988 49.5928C77.971 48.9519 78.1576 48.3339 78.338 47.7262C78.5185 47.1185 78.6947 46.4984 78.8565 45.8845C79.0183 45.2706 79.1531 44.6526 79.2713 44.0179C79.3895 43.3833 79.4538 42.7735 79.5098 42.1016C79.7277 42.7349 79.8303 43.4023 79.8125 44.0718C79.7876 44.7384 79.6909 45.4004 79.5243 46.0463C79.3551 46.6882 79.1267 47.3131 78.842 47.9128C78.5637 48.5131 78.2134 49.0772 77.7988 49.5928Z" fill="#E6E6E6"/>
<path d="M78.0146 49.4871C78.2843 48.8649 78.5746 48.2427 78.8608 47.6475C79.147 47.0523 79.4352 46.4467 79.7111 45.8452C79.9869 45.2438 80.2523 44.6402 80.4991 44.0284C80.7459 43.4166 80.9575 42.784 81.1648 42.1328C81.229 42.8214 81.1792 43.5158 81.0176 44.1881C80.854 44.8567 80.6269 45.5081 80.3394 46.1335C80.0507 46.7539 79.7129 47.3503 79.3295 47.9171C78.9497 48.4868 78.5088 49.0133 78.0146 49.4871Z" fill="#E6E6E6"/>
<path d="M77.1699 50.2771C77.5743 49.7213 77.9995 49.1965 78.4142 48.6718C78.829 48.1471 79.2438 47.6348 79.6461 47.106C80.0484 46.5771 80.4425 46.0524 80.8199 45.509C81.1974 44.9656 81.5416 44.4057 81.8921 43.8125C81.8003 44.4979 81.5964 45.1635 81.2886 45.7828C80.9802 46.3979 80.6135 46.9819 80.1936 47.527C79.7733 48.0668 79.3107 48.5724 78.8103 49.0389C78.3103 49.5102 77.7602 49.9254 77.1699 50.2771Z" fill="#E6E6E6"/>
<path d="M78.4395 49.3748C78.8356 48.8791 79.2317 48.4104 79.6215 47.9355C80.0114 47.4605 80.3889 46.9897 80.758 46.5106C81.1272 46.0316 81.4694 45.538 81.7949 45.034C82.1205 44.53 82.4171 43.997 82.7365 43.4453C82.6899 44.0829 82.5327 44.7075 82.2719 45.2912C82.0122 45.874 81.6844 46.424 81.2951 46.9296C80.9094 47.4327 80.4745 47.8961 79.9969 48.3129C79.5269 48.7341 79.0032 49.0912 78.4395 49.3748Z" fill="#E6E6E6"/>
<path d="M77.4253 49.9577C77.6504 49.5079 77.7588 49.0087 77.7405 48.506C77.7131 48.0261 77.5904 47.5566 77.3797 47.1247L77.3092 46.9567L77.22 46.7949L77.0458 46.4672C76.9068 46.2598 76.7824 46.0379 76.631 45.8243C76.4796 45.6107 76.3428 45.3971 76.1893 45.1834C76.0281 44.9686 75.8779 44.7457 75.7393 44.5156C75.9778 44.6468 76.209 44.7908 76.4319 44.947C76.6494 45.1126 76.8571 45.2905 77.0541 45.48C77.1525 45.5764 77.2446 45.6789 77.3299 45.787C77.4184 45.8934 77.5055 46.0013 77.5912 46.1105L77.8131 46.4693L77.9189 46.6518L78.006 46.8468C78.259 47.3725 78.3527 47.9608 78.2756 48.5391C78.2387 48.8213 78.1442 49.0928 77.998 49.3369C77.8517 49.5809 77.6568 49.7923 77.4253 49.9577Z" fill="#E6E6E6"/>
<path d="M77.8109 49.2876C77.9815 48.7736 78.0983 48.2433 78.1593 47.7051C78.2153 47.2035 78.1781 46.6958 78.0494 46.2077C77.9848 45.9671 77.8944 45.7342 77.7798 45.5129C77.6657 45.2848 77.531 45.0675 77.3775 44.8638C77.0473 44.4323 76.6855 44.0261 76.2949 43.6484C76.8506 43.813 77.3599 44.1057 77.7819 44.5029C78.0019 44.7053 78.1931 44.937 78.3501 45.1915C78.5119 45.4485 78.6349 45.7281 78.7151 46.0211C78.8713 46.6074 78.862 47.2255 78.6881 47.8068C78.5311 48.3689 78.2285 48.8797 77.8109 49.2876Z" fill="#E6E6E6"/>
<path d="M78.8252 48.7948L82.0687 45.6797L81.9381 48.7347L78.8252 48.7948Z" fill="#E6E6E6"/>
<path d="M75.2764 48.4688H83.8995L82.7692 54.8753H76.4066L75.2764 48.4688Z" fill="#F5F5F5"/>
<path d="M80.6631 48.4688H83.9004L82.7701 54.8753H81.0716L80.6631 48.4688Z" fill="#EBEBEB"/>
<path d="M21.541 19.2969V52.8953C21.541 54.2924 20.9861 55.6323 19.9982 56.6203C19.0103 57.6082 17.6705 58.1632 16.2734 58.1632H40.745C42.1422 58.1632 43.4823 57.6082 44.4704 56.6204C45.4586 55.6325 46.0141 54.2926 46.0146 52.8953V19.2969H21.541Z" fill="#F5F5F5"/>
<path d="M42.1735 27.8047H26.3604V43.6188H42.1735V27.8047Z" fill="#F0F0F0"/>
<path d="M41.6882 27.3125H25.875V43.1266H41.6882V27.3125Z" fill="white"/>
<path d="M29.7575 45.4688H25.7363V49.4902H29.7575V45.4688Z" fill="white"/>
<path d="M41.6862 45.4688H37.665V49.4902H41.6862V45.4688Z" fill="white"/>
<path d="M35.7224 45.4688H31.7012V49.4902H35.7224V45.4688Z" fill="white"/>
<path d="M46.0188 19.2969H21.541V23.2955H46.0188V19.2969Z" fill="#F0F0F0"/>
<path d="M23.0195 18.0124V20.58C23.0193 20.674 23.0376 20.7672 23.0734 20.8541C23.1093 20.9411 23.162 21.02 23.2285 21.0865C23.295 21.153 23.374 21.2057 23.4609 21.2416C23.5478 21.2775 23.641 21.2958 23.735 21.2955C23.829 21.2955 23.922 21.277 24.0088 21.241C24.0956 21.2051 24.1745 21.1524 24.2409 21.0859C24.3074 21.0195 24.3601 20.9406 24.396 20.8538C24.432 20.767 24.4505 20.6739 24.4505 20.58V18.0124C24.4499 17.8228 24.3744 17.6411 24.2403 17.5071C24.1063 17.373 23.9246 17.2974 23.735 17.2969C23.5453 17.2969 23.3633 17.3723 23.2291 17.5064C23.0949 17.6406 23.0195 17.8226 23.0195 18.0124Z" fill="#E6E6E6"/>
<path d="M43.1201 18.0124V20.58C43.1201 20.7697 43.1955 20.9517 43.3297 21.0859C43.4639 21.2201 43.6458 21.2955 43.8356 21.2955C43.9296 21.2958 44.0228 21.2775 44.1097 21.2416C44.1967 21.2057 44.2756 21.153 44.3421 21.0865C44.4086 21.02 44.4613 20.9411 44.4972 20.8541C44.533 20.7672 44.5514 20.674 44.5511 20.58V18.0124C44.5511 17.8226 44.4757 17.6406 44.3415 17.5064C44.2073 17.3723 44.0254 17.2969 43.8356 17.2969C43.646 17.2974 43.4643 17.373 43.3303 17.5071C43.1962 17.6411 43.1207 17.8228 43.1201 18.0124Z" fill="#E6E6E6"/>
<path d="M39.0986 18.0124V20.58C39.0986 20.6739 39.1171 20.767 39.1531 20.8538C39.1891 20.9406 39.2418 21.0195 39.3082 21.0859C39.3746 21.1524 39.4535 21.2051 39.5403 21.241C39.6271 21.277 39.7202 21.2955 39.8141 21.2955C39.9081 21.2955 40.0011 21.277 40.0879 21.241C40.1747 21.2051 40.2536 21.1524 40.32 21.0859C40.3865 21.0195 40.4392 20.9406 40.4751 20.8538C40.5111 20.767 40.5296 20.6739 40.5296 20.58V18.0124C40.5291 17.8235 40.4541 17.6425 40.3209 17.5085C40.1877 17.3746 40.0071 17.2985 39.8183 17.2969C39.724 17.2966 39.6307 17.3149 39.5435 17.3507C39.4563 17.3865 39.3771 17.4391 39.3103 17.5056C39.2434 17.572 39.1904 17.651 39.154 17.7379C39.1177 17.8249 39.0989 17.9182 39.0986 18.0124Z" fill="#E6E6E6"/>
<path d="M35.0772 18.0124V20.58C35.0769 20.674 35.0952 20.7672 35.1311 20.8541C35.1669 20.9411 35.2196 21.02 35.2861 21.0865C35.3526 21.153 35.4316 21.2057 35.5185 21.2416C35.6054 21.2775 35.6986 21.2958 35.7926 21.2955C35.9811 21.2939 36.1613 21.2177 36.2938 21.0836C36.4263 20.9495 36.5004 20.7685 36.4998 20.58V18.0124C36.4998 17.823 36.4247 17.6413 36.291 17.5072C36.1573 17.3731 35.9758 17.2974 35.7864 17.2969C35.5977 17.2985 35.4173 17.3746 35.2845 17.5086C35.1517 17.6426 35.0771 17.8237 35.0772 18.0124Z" fill="#E6E6E6"/>
<path d="M31.0557 18.0124V20.58C31.0554 20.6738 31.0736 20.7668 31.1094 20.8536C31.1451 20.9404 31.1976 21.0193 31.2639 21.0858C31.3302 21.1523 31.4089 21.205 31.4956 21.241C31.5823 21.277 31.6752 21.2955 31.7691 21.2955C31.8631 21.2958 31.9563 21.2775 32.0432 21.2416C32.1301 21.2057 32.2091 21.153 32.2756 21.0865C32.3421 21.02 32.3948 20.9411 32.4307 20.8541C32.4665 20.7672 32.4848 20.674 32.4846 20.58V18.0124C32.4846 17.8226 32.4092 17.6406 32.275 17.5064C32.1408 17.3723 31.9588 17.2969 31.7691 17.2969C31.5797 17.2974 31.3982 17.3731 31.2645 17.5072C31.1308 17.6413 31.0557 17.823 31.0557 18.0124Z" fill="#E6E6E6"/>
<path d="M27.0332 18.0124V20.58C27.0332 20.6739 27.0517 20.767 27.0877 20.8538C27.1236 20.9406 27.1763 21.0195 27.2428 21.0859C27.3092 21.1524 27.3881 21.2051 27.4749 21.241C27.5617 21.277 27.6547 21.2955 27.7487 21.2955C27.8426 21.2955 27.9357 21.277 28.0225 21.241C28.1093 21.2051 28.1882 21.1524 28.2546 21.0859C28.321 21.0195 28.3737 20.9406 28.4097 20.8538C28.4457 20.767 28.4642 20.6739 28.4642 20.58V18.0124C28.4636 17.8228 28.3881 17.6411 28.254 17.5071C28.1199 17.373 27.9383 17.2974 27.7487 17.2969C27.5591 17.2974 27.3774 17.373 27.2434 17.5071C27.1093 17.6411 27.0338 17.8228 27.0332 18.0124Z" fill="#E6E6E6"/>
<path d="M38.5468 55.9531C38.5468 56.5378 38.7791 57.0986 39.1925 57.512C39.6059 57.9255 40.1666 58.1578 40.7513 58.1578H13.2084C12.6237 58.1578 12.063 57.9255 11.6496 57.512C11.2362 57.0986 11.0039 56.5378 11.0039 55.9531H38.5468Z" fill="#E6E6E6"/>
<path d="M51.8467 89.1486C74.0541 89.1486 92.0568 88.0975 92.0568 86.8009C92.0568 85.5042 74.0541 84.4531 51.8467 84.4531C29.6394 84.4531 11.6367 85.5042 11.6367 86.8009C11.6367 88.0975 29.6394 89.1486 51.8467 89.1486Z" fill="#F5F5F5"/>
<path opacity="0.2" d="M55.9087 67.0078C55.9087 67.0078 40.668 76.0068 40.668 84.5329H71.1537C71.1516 76.0068 55.9087 67.0078 55.9087 67.0078Z" fill="#7B55D3"/>
<path opacity="0.2" d="M55.9091 77.7344C55.9091 77.7344 41.8359 81.2207 41.8359 84.5225H69.9823C69.9823 81.2207 55.9091 77.7344 55.9091 77.7344Z" fill="#7B55D3"/>
<path opacity="0.3" d="M57.7588 69.4922C60.6207 72.3066 66.1828 78.543 66.1828 84.5327H62.369C62.369 78.543 59.3246 72.3066 57.7588 69.4922Z" fill="white"/>
<path opacity="0.2" d="M55.9087 67.0017C55.9087 67.0017 40.668 58.0027 40.668 49.4766H71.1537C71.1516 58.0027 55.9087 67.0017 55.9087 67.0017Z" fill="#7B55D3"/>
<path opacity="0.2" d="M55.909 66.1859C55.909 66.1859 48.1279 62.4527 48.1279 58.9062H63.6922C63.6922 62.4465 55.909 66.1859 55.909 66.1859Z" fill="#7B55D3"/>
<path opacity="0.3" d="M54.2477 64.517C51.3879 61.7027 45.832 55.4662 45.832 49.4766H49.6459C49.6376 55.4662 52.6758 61.7027 54.2477 64.517Z" fill="white"/>
<path opacity="0.3" d="M57.7588 64.517C60.6207 61.7027 66.0438 54.7445 66.1828 49.4766H65.1666C64.6896 55.8997 60.0234 61.7939 57.7588 64.517Z" fill="white"/>
<path d="M69.0817 46.4688H67.3545V46.676H69.0817V46.4688Z" fill="#7B55D3"/>
<path d="M74.9467 49.3184H74.7393C74.7388 48.6182 74.4605 47.9467 73.9656 47.4514C73.4707 46.956 72.7995 46.6772 72.0993 46.6761H70.2764V46.4688H72.0993C72.8543 46.4704 73.5779 46.7712 74.1116 47.3053C74.6453 47.8394 74.9456 48.5633 74.9467 49.3184Z" fill="#7B55D3"/>
<path d="M72.0974 47.1953H39.7203C38.5475 47.1953 37.5967 48.1461 37.5967 49.3191V49.6385C37.5967 50.8114 38.5475 51.7622 39.7203 51.7622H72.0974C73.2702 51.7622 74.221 50.8114 74.221 49.6385V49.3191C74.221 48.1461 73.2702 47.1953 72.0974 47.1953Z" fill="#7B55D3"/>
<path d="M72.0974 82.25H39.7203C38.5475 82.25 37.5967 83.2008 37.5967 84.3738V84.6931C37.5967 85.8661 38.5475 86.8169 39.7203 86.8169H72.0974C73.2702 86.8169 74.221 85.8661 74.221 84.6931V84.3738C74.221 83.2008 73.2702 82.25 72.0974 82.25Z" fill="#7B55D3"/>
<path d="M29.1834 63.633L27.7773 62.3844L30.1747 58.7031L31.5808 59.9496L29.1834 63.633Z" fill="#FF8B7B"/>
<path d="M28.0674 61.5891L29.8551 62.8335C29.8703 62.843 29.8835 62.8554 29.894 62.8701C29.9044 62.8847 29.9119 62.9013 29.9159 62.9188C29.92 62.9363 29.9205 62.9545 29.9176 62.9722C29.9146 62.99 29.9081 63.0069 29.8986 63.0222L29.0027 64.4989C28.9511 64.5731 28.8724 64.6241 28.7835 64.6408C28.6947 64.6575 28.6028 64.6385 28.5278 64.5881C27.9056 64.1463 27.6754 63.9306 26.9309 63.3291C26.195 62.7508 25.489 62.1354 24.8156 61.4854C24.2639 60.913 24.8467 60.3592 25.1391 60.5562C25.8297 61.025 27.0305 61.5414 27.7252 61.4999C27.846 61.4903 27.9666 61.5217 28.0674 61.5891Z" fill="#263238"/>
<path opacity="0.2" d="M31.5787 59.9517L30.1726 58.7031L29.0195 60.4764L30.4609 61.6731L31.5787 59.9517Z" fill="black"/>
<path d="M45.884 41.5611C45.884 41.5611 36.4479 40.9161 35.2783 44.1142C32.6175 51.3855 29.1562 59.0986 29.1562 59.0986L31.9373 61.1125C31.9373 61.1125 37.8167 52.1218 39.6106 46.3499C43.2398 47.2313 49.8015 47.9842 51.9148 45.5577C53.719 43.4837 52.3689 41.5611 52.3689 41.5611H45.884Z" fill="#263238"/>
<path opacity="0.3" d="M37.8017 47.2109C37.582 48.0986 37.2483 50.6413 37.041 52.3274C37.4991 51.4398 37.9343 50.5397 38.326 49.6603L37.8017 47.2109Z" fill="black"/>
<path d="M31.7588 62.0217L28.6045 59.5495L29.2495 58.1641L32.775 60.8582L31.7588 62.0217Z" fill="#7B55D3"/>
<path d="M27.3104 61.4809C27.4565 61.5762 27.6121 61.6561 27.7746 61.7194C27.7827 61.7223 27.7914 61.7227 27.7998 61.7208C27.8081 61.7189 27.8158 61.7147 27.8218 61.7086C27.8279 61.7025 27.8321 61.6949 27.834 61.6865C27.836 61.6782 27.8355 61.6695 27.8327 61.6614C27.8057 61.5909 27.5695 60.9707 27.3228 60.9106C27.2945 60.9041 27.2651 60.9049 27.2372 60.9129C27.2093 60.9209 27.1838 60.9358 27.1632 60.9562C27.1286 60.9837 27.1017 61.0198 27.0853 61.0609C27.069 61.1021 27.0637 61.1468 27.07 61.1906C27.1119 61.3135 27.1974 61.4168 27.3104 61.4809ZM27.7104 61.595C27.385 61.454 27.1819 61.2984 27.1591 61.1802C27.1555 61.1513 27.1598 61.122 27.1715 61.0954C27.1831 61.0687 27.2018 61.0457 27.2254 61.0288C27.235 61.0185 27.2471 61.0109 27.2606 61.0069C27.2741 61.0029 27.2884 61.0026 27.3021 61.006C27.4347 61.0392 27.6068 61.3482 27.7104 61.595Z" fill="#7B55D3"/>
<path d="M27.7649 61.7092C27.7717 61.7112 27.7788 61.7112 27.7856 61.7092C27.7933 61.71 27.8012 61.709 27.8084 61.7061C27.8156 61.7032 27.822 61.6986 27.8271 61.6926C27.8416 61.676 28.1939 61.2426 28.1421 60.975C28.1353 60.9408 28.1207 60.9087 28.0995 60.881C28.0783 60.8533 28.051 60.8308 28.0198 60.8153C27.988 60.7954 27.9505 60.7864 27.913 60.7898C27.8756 60.7931 27.8403 60.8087 27.8126 60.834C27.655 60.9813 27.6613 61.479 27.7545 61.6843C27.7559 61.6933 27.7595 61.7019 27.7649 61.7092ZM27.9949 60.9149C28.0099 60.9248 28.0228 60.9376 28.0327 60.9526C28.0427 60.9675 28.0496 60.9843 28.053 61.002C28.0841 61.1596 27.9162 61.4313 27.8063 61.5806C27.7483 61.3732 27.767 61.0041 27.8685 60.9087C27.8892 60.89 27.9183 60.8713 27.9784 60.9087L27.9949 60.9149Z" fill="#7B55D3"/>
<path d="M41.5803 65.8089L39.7657 66.1718L39.4297 61.3125L41.2733 61.3706L41.5803 65.8089Z" fill="#FF8B7B"/>
<path d="M39.5197 65.5126L41.5935 64.6395C41.6105 64.6312 41.629 64.6263 41.6478 64.6252C41.6667 64.6242 41.6856 64.6269 41.7034 64.6333C41.7212 64.6397 41.7376 64.6496 41.7514 64.6624C41.7653 64.6752 41.7765 64.6907 41.7843 64.7079L42.5765 66.3008C42.6128 66.3869 42.6137 66.4839 42.5792 66.5708C42.5447 66.6577 42.4775 66.7275 42.3919 66.7653C41.6661 67.0578 41.3052 67.1594 40.3948 67.5451C39.8349 67.7816 38.321 68.466 37.5122 68.6672C36.7034 68.8683 36.5209 68.0574 36.8485 67.8998C37.6241 67.5265 38.9099 66.3879 39.2563 65.7595C39.3153 65.651 39.4076 65.5645 39.5197 65.5126Z" fill="#263238"/>
<path d="M39.0025 66.1073C39.1658 66.0327 39.3207 65.941 39.4646 65.8338C39.4717 65.8283 39.4772 65.821 39.4805 65.8126C39.4838 65.8042 39.4848 65.795 39.4833 65.7862C39.4808 65.7774 39.4761 65.7696 39.4695 65.7634C39.4629 65.7572 39.4548 65.7529 39.446 65.7509C39.3714 65.7343 38.7 65.5997 38.5114 65.782C38.4899 65.8028 38.4742 65.8288 38.4658 65.8575C38.4575 65.8862 38.4568 65.9166 38.4637 65.9457C38.4684 65.9905 38.4848 66.0333 38.5114 66.0697C38.538 66.1061 38.5737 66.1349 38.615 66.1529C38.7453 66.1863 38.8834 66.17 39.0025 66.1073ZM39.3196 65.8214C39.0191 66.0286 38.7725 66.1177 38.6502 66.07C38.6229 66.0576 38.5996 66.0378 38.5828 66.0129C38.566 65.9881 38.5564 65.9591 38.5549 65.9291C38.5509 65.915 38.5507 65.9001 38.5544 65.8859C38.558 65.8717 38.5653 65.8588 38.5756 65.8483C38.6772 65.7509 39.0502 65.7758 39.3196 65.8214Z" fill="#7B55D3"/>
<path d="M39.4546 65.8402C39.4616 65.8365 39.468 65.8316 39.4732 65.8257C39.4767 65.8189 39.4785 65.8115 39.4785 65.8039C39.4785 65.7963 39.4767 65.7888 39.4732 65.7821C39.4732 65.7593 39.2825 65.2118 39.0214 65.1101C38.9878 65.0967 38.9516 65.0914 38.9155 65.0947C38.8795 65.0979 38.8448 65.1096 38.8141 65.1288C38.7778 65.145 38.7481 65.1732 38.73 65.2087C38.7119 65.2442 38.7065 65.2848 38.7147 65.3238C38.7561 65.5312 39.1934 65.8111 39.4235 65.8422C39.4337 65.8456 39.4449 65.8449 39.4546 65.8402ZM38.8888 65.1993C38.9058 65.1921 38.9241 65.1884 38.9426 65.1884C38.9612 65.1884 38.9795 65.1921 38.9965 65.1993C39.152 65.2595 39.295 65.556 39.3655 65.7344C39.1582 65.666 38.8411 65.4523 38.8141 65.3072C38.8141 65.2802 38.8141 65.2449 38.8701 65.2118L38.8888 65.1993Z" fill="#7B55D3"/>
<path opacity="0.2" d="M41.2754 61.3726L39.4297 61.3125L39.606 63.851L41.4434 63.8179L41.2754 61.3726Z" fill="black"/>
<path d="M50.4676 41.5625C50.4676 41.5625 36.9875 42.838 37.4728 46.8968C38.182 52.7516 38.7005 63.0033 38.7005 63.0033L42.1369 63.1381C42.1369 63.1381 43.4268 54.1246 42.6719 48.1287C46.1622 48.1287 53.7442 48.3133 55.0777 46.5089C56.6601 44.3686 55.928 41.5625 55.928 41.5625H50.4676Z" fill="#263238"/>
<path d="M42.5163 63.3431L38.3914 63.1377L38.2441 61.3438L42.7672 61.6548L42.5163 63.3431Z" fill="#7B55D3"/>
<path d="M47.4747 29.6773C47.4457 30.0486 47.4125 30.3784 47.3668 30.7247C47.3212 31.0711 47.2777 31.4091 47.2238 31.7513C47.1242 32.4337 46.9873 33.1119 46.8339 33.7942C46.6804 34.4765 46.4917 35.1568 46.2553 35.8433C46.0152 36.5655 45.7004 37.2606 45.3158 37.9173C45.0862 38.3036 44.8074 38.6585 44.4863 38.9729C44.4012 39.0524 44.3119 39.1272 44.2187 39.1969C44.1337 39.2674 44.0487 39.3276 43.9616 39.3877C43.7957 39.5047 43.6233 39.612 43.4452 39.7092C42.7875 40.067 42.0919 40.3501 41.3713 40.5533C41.0291 40.6591 40.6849 40.7441 40.3344 40.8208C39.9839 40.8976 39.65 40.9639 39.2975 41.0179C38.6112 41.1301 37.9185 41.1994 37.2236 41.2252C37.0523 41.2325 36.8841 41.1774 36.7503 41.0702C36.6164 40.963 36.5259 40.811 36.4956 40.6422C36.4652 40.4734 36.497 40.2993 36.5851 40.1522C36.6732 40.0051 36.8116 39.8948 36.9747 39.8419L37.0017 39.8315C38.2178 39.4468 39.4109 38.9925 40.575 38.471C41.1102 38.2288 41.6225 37.9386 42.1055 37.6041C42.2154 37.5253 42.3129 37.4444 42.4124 37.3635C42.458 37.3241 42.5057 37.2847 42.5451 37.2432C42.5819 37.2102 42.6165 37.1748 42.6488 37.1374C42.7865 36.971 42.9048 36.7894 43.0014 36.5961C43.253 36.085 43.4551 35.5509 43.6049 35.0012C43.7728 34.4185 43.918 33.8108 44.0383 33.1927C44.1586 32.5747 44.2664 31.9484 44.368 31.3137C44.4697 30.6791 44.5464 30.032 44.6169 29.4305V29.3953C44.6688 29.0316 44.8592 28.702 45.1483 28.4754C45.4375 28.2487 45.8029 28.1425 46.1685 28.1789C46.534 28.2153 46.8714 28.3915 47.1102 28.6707C47.3489 28.9499 47.4706 29.3106 47.4498 29.6773H47.4747Z" fill="#7B55D3"/>
<path d="M37.2918 39.4688L36.2549 39.533L37.0844 41.4411C37.0844 41.4411 38.8783 41.4017 38.841 40.5182L38.5175 40.1034C38.3694 39.9172 38.1837 39.7644 37.9725 39.6551C37.7612 39.5457 37.5293 39.4822 37.2918 39.4688Z" fill="#FF8B7B"/>
<path d="M35.1182 39.6925L36.0141 41.4471H37.0821L36.2526 39.5391L35.1182 39.6925Z" fill="#FF8B7B"/>
<path d="M47.325 26.7385L49.3304 26.3237L50.9273 26.0935C51.1555 26.0562 51.3873 26.0457 51.6179 26.0624C52.2307 26.1179 52.812 26.3592 53.2841 26.7538C53.7562 27.1485 54.0967 27.6779 54.26 28.2711C54.6603 29.7229 55.0211 31.5045 55.2969 33.0828C55.6827 35.275 55.8818 38.5684 55.9191 41.5632H46.4188C46.2114 36.1398 45.0583 32.6452 44.6663 30.4778C44.5483 29.8235 44.6486 29.1486 44.9517 28.5568C45.2549 27.9651 45.7441 27.4894 46.3441 27.203L47.325 26.7385Z" fill="#7B55D3"/>
<path d="M46.4189 27.9352C46.4418 28.827 46.6263 32.0064 47.5824 33.8129C47.7504 32.1205 49.7599 26.9688 49.7599 26.9688L46.4189 27.9352Z" fill="#F5F5F5"/>
<path opacity="0.3" d="M55.5147 34.5729C55.5147 34.5397 55.5147 34.5086 55.5023 34.4733L55.4836 34.324C55.4733 34.2431 55.4629 34.1622 55.4525 34.0855L55.4214 33.8636L55.3903 33.6562C55.3903 33.5981 55.3716 33.538 55.3633 33.482C55.3426 33.3492 55.3219 33.2206 55.299 33.0941C55.2306 32.7063 55.158 32.304 55.0792 31.8995V31.8663C55.0004 31.4515 54.9195 31.0513 54.8324 30.6468V30.6199C54.7972 30.4457 54.7598 30.2756 54.7204 30.1035L54.6769 29.9127L54.6022 29.5829L54.54 29.3257L54.5276 29.2718C54.4446 28.9317 54.3596 28.5978 54.2725 28.2825L52.8312 27.5234C52.9971 28.1601 53.1547 28.8612 53.304 29.5787C53.1315 29.669 52.9724 29.7828 52.8312 29.9168C52.4869 30.2238 52.4993 30.8771 52.8436 31.6506C53.7966 33.8627 54.3242 36.2346 54.399 38.642C54.4425 39.6189 54.4695 40.6082 54.4819 41.5684H55.9336C55.8922 39.1896 55.7594 36.6261 55.5147 34.5729Z" fill="black"/>
<path d="M48.5845 22.7344L47.7695 23.9788L46.662 25.6691C46.8046 25.8143 46.9204 25.9835 47.0042 26.1689C47.2116 26.5837 47.3734 26.8823 46.5169 27.4651C46.3344 27.5896 46.3281 27.7866 46.3696 28.0043C46.4194 28.2698 46.577 28.5477 47.4978 28.3839C48.3877 28.2127 49.1999 27.7623 49.8164 27.098C50.1233 26.789 50.0528 26.5588 49.7562 26.2394C48.9184 25.3372 48.6675 23.8958 48.5845 22.7344Z" fill="#FF8B7B"/>
<path d="M46.626 28.4218L47.2129 28.791L48.1669 28.3866C47.942 28.1596 47.6521 28.0081 47.3373 27.9531C47.0631 28.0441 46.8177 28.2058 46.626 28.4218Z" fill="#263238"/>
<path d="M47.3271 27.9572C47.7647 28.1376 47.9846 28.5441 48.1836 29.0128C48.1836 29.0128 50.2803 27.4241 50.3239 26.3768C50.2119 26.0201 49.6872 26.0823 49.6872 26.0823C49.6872 26.0823 49.0484 27.1898 47.3271 27.9572Z" fill="white"/>
<path d="M47.327 27.9564C47.1226 28.0391 46.949 28.1833 46.8302 28.3691C46.7114 28.5549 46.6532 28.773 46.6637 28.9934C46.6637 28.9934 45.7311 27.8983 46.4896 27.0708C46.6955 26.9627 46.9141 26.8812 47.1404 26.8281C47.1404 26.8281 46.9124 27.2844 47.327 27.9564Z" fill="white"/>
<path d="M47.3973 28.6172H47.1299C47.0429 28.7665 46.9227 30.7119 46.875 31.7468C47.0031 32.351 47.1913 32.9409 47.4367 33.5076C47.4358 33.5145 47.4358 33.5215 47.4367 33.5284C47.4512 33.5615 47.4657 33.5927 47.4823 33.6238C47.5113 33.686 47.5403 33.7482 47.5735 33.8063C47.6692 33.1638 47.8183 32.5304 48.0191 31.9127C47.7455 30.714 47.3973 28.6172 47.3973 28.6172Z" fill="#263238"/>
<path opacity="0.2" d="M46.9356 25.2519L47.6154 24.0469C47.6278 24.0759 47.6444 24.1112 47.661 24.1444C47.7206 24.2948 47.7691 24.4493 47.8061 24.6068C47.9304 25.144 47.5159 25.9072 47.0579 26.266C47.0392 26.2328 47.0226 26.1976 47.004 26.1623C46.9224 25.9882 46.8171 25.8263 46.691 25.6812L46.6641 25.6604L46.9356 25.2519Z" fill="black"/>
<path d="M43.6214 22.6675C43.4575 21.9312 44.6293 20.9129 44.6293 20.9129L43.2419 20.4297C42.6156 20.8797 43.022 22.1635 43.6214 22.6675Z" fill="#263238"/>
<path d="M48.2957 20.5396C48.6234 22.3813 48.9179 23.4432 48.2252 24.6191C48.0082 25.0052 47.6896 25.3246 47.3041 25.5428C46.9186 25.7609 46.4808 25.8694 46.038 25.8566C45.5953 25.8438 45.1645 25.7101 44.7922 25.47C44.42 25.23 44.1205 24.8927 43.9261 24.4947C43.1484 22.9765 42.744 20.2223 44.3264 19.0131C44.6617 18.7428 45.0622 18.5653 45.4877 18.4985C45.9132 18.4317 46.3488 18.4779 46.7509 18.6325C47.1529 18.7871 47.5072 19.0447 47.7784 19.3794C48.0495 19.7141 48.2279 20.1142 48.2957 20.5396Z" fill="#FF8B7B"/>
<path d="M48.321 22.4004L47.45 22.1619V21.0419C47.45 21.0419 46.3488 20.4197 46.5188 19.642C46.6032 19.2047 46.7218 18.7748 46.8735 18.3561C46.8735 18.3561 48.6196 18.2441 49.1547 18.4681C49.0161 18.6183 48.8656 18.757 48.7047 18.8829C49.1234 19.1726 49.4825 19.5402 49.7623 19.9655C49.5437 20.0142 49.3392 20.1129 49.1651 20.2538C49.1651 20.2538 49.3932 21.7906 48.321 22.4004Z" fill="#263238"/>
<path d="M46.3174 17.1649C46.9582 17.5672 46.587 18.3055 46.587 18.3055L48.3021 18.3408C48.2108 17.7995 46.7239 17.1379 46.3174 17.1649Z" fill="#263238"/>
<path d="M46.9875 20.0239C46.8651 20.3682 45.4756 20.7912 44.2085 20.8327C43.5769 20.819 42.9519 20.7013 42.3586 20.4843C42.5375 20.3005 42.7483 20.1509 42.9808 20.0425C42.2155 19.8538 41.247 19.1818 40.9795 18.6343C41.5382 18.4346 42.1418 18.3958 42.7215 18.5223C42.5318 18.3622 42.3759 18.1657 42.263 17.9446C42.1502 17.7234 42.0825 17.482 42.0641 17.2344C42.0641 17.2344 45.3076 18.5202 46.5561 17.9872C47.9124 17.4065 48.9431 18.4954 48.0513 19.3249C47.1596 20.1545 46.9875 20.0239 46.9875 20.0239Z" fill="#263238"/>
<path d="M49.2861 21.8825C49.3037 22.2887 49.1717 22.6872 48.9151 23.0024C48.5794 23.4027 48.0571 23.0833 47.9369 22.5876C47.8291 22.1376 47.97 21.4428 48.4115 21.2271C48.8529 21.0114 49.2633 21.3785 49.2861 21.8825Z" fill="#FF8B7B"/>
<path d="M45.4915 22.2541C45.5371 22.3993 45.4915 22.5424 45.4086 22.5777C45.3257 22.6129 45.2014 22.5217 45.1537 22.3703C45.106 22.2189 45.1537 22.082 45.2366 22.0467C45.3195 22.0115 45.4439 22.1007 45.4915 22.2541Z" fill="#263238"/>
<path d="M43.8841 22.8312C43.9297 22.9743 43.8841 23.1195 43.8012 23.1527C43.7183 23.1858 43.594 23.0987 43.5463 22.9453C43.4986 22.7918 43.5463 22.657 43.6292 22.6238C43.7121 22.5906 43.8365 22.686 43.8841 22.8312Z" fill="#263238"/>
<path d="M44.4344 22.7578C44.4411 23.187 44.391 23.6152 44.2852 24.0312C44.3903 24.0536 44.4992 24.0524 44.6038 24.0277C44.7085 24.0029 44.8063 23.9553 44.8904 23.8881L44.4344 22.7578Z" fill="#A02724"/>
<path d="M45.4166 24.4412C45.583 24.3853 45.7366 24.2968 45.8683 24.1806C46 24.0645 46.1072 23.9232 46.1835 23.7651C46.1876 23.754 46.1873 23.7418 46.1827 23.731C46.1781 23.7202 46.1694 23.7116 46.1586 23.707C46.1533 23.7046 46.1476 23.7033 46.1418 23.7031C46.136 23.703 46.1302 23.704 46.1248 23.7061C46.1194 23.7083 46.1144 23.7115 46.1103 23.7155C46.1061 23.7196 46.1028 23.7244 46.1006 23.7298C46.0164 23.9013 45.894 24.0512 45.7427 24.1677C45.5913 24.2842 45.4152 24.3643 45.228 24.4018C45.2222 24.403 45.2167 24.4054 45.2119 24.4088C45.207 24.4122 45.2029 24.4165 45.1998 24.4216C45.1967 24.4266 45.1947 24.4323 45.1938 24.4381C45.193 24.444 45.1933 24.45 45.1948 24.4557C45.1973 24.467 45.2042 24.4768 45.2139 24.483C45.2236 24.4892 45.2354 24.4913 45.2467 24.4889C45.3043 24.4767 45.3611 24.4608 45.4166 24.4412Z" fill="#263238"/>
<path d="M45.8477 21.408C45.8605 21.4004 45.8712 21.3897 45.8788 21.3769C45.8853 21.3673 45.8899 21.3565 45.8922 21.3451C45.8945 21.3337 45.8945 21.3219 45.8922 21.3105C45.8898 21.2991 45.8853 21.2883 45.8787 21.2787C45.8721 21.2691 45.8637 21.2609 45.8539 21.2547C45.7374 21.1767 45.6037 21.1284 45.4643 21.114C45.3249 21.0995 45.184 21.1194 45.054 21.1718C45.0434 21.1768 45.0339 21.1839 45.026 21.1926C45.0182 21.2013 45.0121 21.2115 45.0081 21.2225C45.0042 21.2336 45.0025 21.2453 45.003 21.2571C45.0036 21.2688 45.0065 21.2803 45.0116 21.2909C45.0166 21.3015 45.0237 21.311 45.0324 21.3189C45.0411 21.3268 45.0513 21.3329 45.0623 21.3368C45.0734 21.3408 45.0851 21.3425 45.0969 21.3419C45.1086 21.3413 45.1201 21.3384 45.1307 21.3334C45.2323 21.294 45.3419 21.2798 45.4502 21.2921C45.5585 21.3043 45.6622 21.3427 45.7524 21.4039C45.7662 21.4135 45.7826 21.419 45.7994 21.4198C45.8163 21.4205 45.8331 21.4164 45.8477 21.408Z" fill="#263238"/>
<path d="M43.5651 21.9574C43.5691 21.9431 43.5691 21.9281 43.5651 21.9138C43.556 21.8922 43.5387 21.875 43.5169 21.8661C43.4952 21.8571 43.4708 21.8571 43.4491 21.8661C43.3186 21.9168 43.2026 21.999 43.1115 22.1054C43.0203 22.2118 42.9569 22.339 42.9268 22.4759C42.9262 22.4974 42.9335 22.5183 42.9472 22.5349C42.9608 22.5515 42.98 22.5625 43.0012 22.5661C43.0224 22.5696 43.0442 22.5654 43.0625 22.5541C43.0808 22.5429 43.0944 22.5254 43.1009 22.5049C43.1267 22.3982 43.1779 22.2993 43.25 22.2166C43.3222 22.134 43.4132 22.0699 43.5154 22.03C43.5293 22.0232 43.5411 22.013 43.5498 22.0002C43.5586 21.9875 43.5638 21.9727 43.5651 21.9574Z" fill="#263238"/>
<path d="M53.8182 27.3703C54.0463 27.6523 54.2454 27.9074 54.4403 28.1791C54.6353 28.4508 54.8385 28.7204 55.0293 28.9963C55.4171 29.5459 55.778 30.1162 56.1305 30.6969C56.4831 31.2776 56.8107 31.8832 57.1052 32.5241C57.4249 33.189 57.6784 33.8836 57.8622 34.5981C57.9654 35.0134 58.0196 35.4394 58.0239 35.8673C58.0188 36.2952 57.9574 36.7206 57.8414 37.1325C57.6349 37.8496 57.3337 38.5359 56.9455 39.1733C56.7672 39.4781 56.5743 39.7706 56.3732 40.0526C56.172 40.3347 55.9584 40.6085 55.751 40.8719C55.3181 41.4015 54.8475 41.8992 54.3428 42.361C54.2166 42.4735 54.0543 42.5374 53.8852 42.5411C53.7161 42.5448 53.5512 42.4881 53.4201 42.3812C53.289 42.2744 53.2003 42.1243 53.1699 41.9579C53.1394 41.7915 53.1693 41.6197 53.2541 41.4733L53.2727 41.4422C53.9167 40.3973 54.4797 39.3046 54.9567 38.1736C55.1707 37.6639 55.3266 37.1317 55.4213 36.587C55.456 36.3683 55.465 36.1462 55.4482 35.9254C55.4232 35.7069 55.376 35.4914 55.3072 35.2825C55.1278 34.7522 54.9023 34.2386 54.6332 33.7477C54.3574 33.2272 54.0463 32.7108 53.7145 32.186C53.3827 31.6613 53.0342 31.1491 52.6775 30.6451L52.1321 29.886C51.9496 29.6392 51.7588 29.3758 51.5867 29.1497L51.5742 29.1331C51.3405 28.8367 51.2341 28.4595 51.2784 28.0845C51.3227 27.7096 51.5142 27.3676 51.8107 27.1338C52.1071 26.9001 52.4843 26.7936 52.8592 26.838C53.2342 26.8823 53.5761 27.0738 53.8099 27.3703H53.8182Z" fill="#7B55D3"/>
<path d="M34.059 42.6744L51.7034 41.8759C51.759 41.8722 51.8149 41.8799 51.8675 41.8983C51.9202 41.9167 51.9686 41.9456 52.0098 41.9831C52.051 42.0207 52.0843 42.0662 52.1075 42.1169C52.1308 42.1676 52.1436 42.2225 52.1451 42.2782L33.6567 43.1078C33.6542 43.0528 33.6626 42.9979 33.6816 42.9462C33.7005 42.8945 33.7296 42.8471 33.767 42.8068C33.8045 42.7665 33.8496 42.734 33.8997 42.7112C33.9498 42.6885 34.004 42.676 34.059 42.6744Z" fill="#7B55D3"/>
<g opacity="0.6">
<path d="M34.059 42.6744L51.7034 41.8759C51.759 41.8722 51.8149 41.8799 51.8675 41.8983C51.9202 41.9167 51.9686 41.9456 52.0098 41.9831C52.051 42.0207 52.0843 42.0662 52.1075 42.1169C52.1308 42.1676 52.1436 42.2225 52.1451 42.2782L33.6567 43.1078C33.6542 43.0528 33.6626 42.9979 33.6816 42.9462C33.7005 42.8945 33.7296 42.8471 33.767 42.8068C33.8045 42.7665 33.8496 42.734 33.8997 42.7112C33.9498 42.6885 34.004 42.676 34.059 42.6744Z" fill="white"/>
</g>
<path d="M31.2513 34.4901L43.8043 33.9219C43.8849 33.923 43.9631 33.9488 44.0284 33.996C44.0937 34.0431 44.1429 34.1092 44.1693 34.1853L46.5792 41.832C46.5921 41.8636 46.5971 41.8979 46.5936 41.9319C46.5902 41.9658 46.5784 41.9984 46.5593 42.0267C46.5402 42.0551 46.5144 42.0782 46.4843 42.0942C46.4541 42.1101 46.4204 42.1184 46.3863 42.1182L33.8332 42.6865C33.7532 42.6857 33.6753 42.6602 33.6103 42.6134C33.5453 42.5666 33.4964 42.5009 33.4703 42.4252L31.0605 34.7764C31.0476 34.7449 31.0426 34.7108 31.0459 34.677C31.0493 34.6432 31.0609 34.6108 31.0798 34.5825C31.0986 34.5542 31.1241 34.531 31.154 34.5149C31.1839 34.4988 31.2173 34.4903 31.2513 34.4901Z" fill="#7B55D3"/>
<path opacity="0.6" d="M31.2513 34.4901L43.8043 33.9219C43.8849 33.923 43.9631 33.9488 44.0284 33.996C44.0937 34.0431 44.1429 34.1092 44.1693 34.1853L46.5792 41.832C46.5921 41.8636 46.5971 41.8979 46.5936 41.9319C46.5902 41.9658 46.5784 41.9984 46.5593 42.0267C46.5402 42.0551 46.5144 42.0782 46.4843 42.0942C46.4541 42.1101 46.4204 42.1184 46.3863 42.1182L33.8332 42.6865C33.7532 42.6857 33.6753 42.6602 33.6103 42.6134C33.5453 42.5666 33.4964 42.5009 33.4703 42.4252L31.0605 34.7764C31.0476 34.7449 31.0426 34.7108 31.0459 34.677C31.0493 34.6432 31.0609 34.6108 31.0798 34.5825C31.0986 34.5542 31.1241 34.531 31.154 34.5149C31.1839 34.4988 31.2173 34.4903 31.2513 34.4901Z" fill="white"/>
<path opacity="0.5" d="M44.1726 34.1853L46.5824 41.832C46.5959 41.8637 46.6012 41.8982 46.5979 41.9325C46.5947 41.9667 46.583 41.9996 46.5638 42.0282C46.5447 42.0568 46.5188 42.0802 46.4883 42.0963C46.4579 42.1124 46.424 42.1206 46.3896 42.1203L43.8076 33.9219C43.8881 33.923 43.9664 33.9488 44.0317 33.996C44.097 34.0431 44.1462 34.1092 44.1726 34.1853Z" fill="#7B55D3"/>
<path opacity="0.5" d="M47.0643 42.0911L51.7036 41.8837C51.7592 41.8801 51.8151 41.8877 51.8677 41.9061C51.9204 41.9245 51.9687 41.9534 52.01 41.9909C52.0512 42.0285 52.0845 42.074 52.1077 42.1247C52.131 42.1754 52.1437 42.2303 52.1453 42.2861L46.662 42.5328C46.6584 42.4772 46.666 42.4214 46.6844 42.3687C46.7028 42.3161 46.7317 42.2677 46.7693 42.2264C46.8068 42.1852 46.8523 42.1519 46.903 42.1287C46.9537 42.1054 47.0086 42.0927 47.0643 42.0911Z" fill="#7B55D3"/>
<path d="M52.9245 41.3958L51.7383 41.5679L52.9536 43.2582C52.9536 43.2582 54.8843 42.9492 54.6603 42.0926L54.2456 41.7484C54.0623 41.6005 53.85 41.4927 53.6224 41.4319C53.3949 41.3712 53.1571 41.3589 52.9245 41.3958Z" fill="#FF8B7B"/>
<path d="M50.2871 42.0686L51.7741 43.3648L52.9541 43.2528L51.7388 41.5625L50.2871 42.0686Z" fill="#FF8B7B"/>
</svg>
