<svg width="96" height="96" viewBox="0 0 96 96" fill="none" xmlns="http://www.w3.org/2000/svg">
<path d="M87.3583 33.0067H82.8721V28.7719H87.3583V24.2031H91.5166V28.7719H96.0028V33.0067H91.5166V37.5755H87.3583V33.0067ZM90.9259 32.403H95.4121V29.3735H90.9259V24.8047H87.9512V29.3735H83.4649V32.403H87.9512V36.9718H90.9259V32.403Z" fill="#EBEBEB"/>
<path d="M3.97305 25.2018H1.84766V23.1958H3.97305V21.0312H5.94288V23.1958H8.06827V25.2018H5.94288V27.3663H3.97305V25.2018ZM5.66328 24.9171H7.78867V23.4805H5.66328V21.316H4.25265V23.4805H2.12726V24.9171H4.25265V27.0816H5.66328V24.9171Z" fill="#EBEBEB"/>
<path d="M86.9535 46.4929V49.366H83.9094V52.4661H81.0861V49.366H78.042V46.4929H81.0861V43.3906H83.9094V46.4929H86.9535Z" fill="#EBEBEB"/>
<path d="M6.89111 7.15101V11.0797H11.0536V15.3188H14.9092V11.0797H19.0717V7.15101H14.9092V2.91406H11.0536V7.15101H6.89111Z" fill="#EBEBEB"/>
<path d="M3.13721 95.9034C31.6419 95.7728 63.6195 95.7707 92.1242 95.9034C63.6195 96.0362 31.6419 96.034 3.13721 95.9034Z" fill="#263238"/>
<path d="M82.5212 62.9634C82.2458 63.884 82.1869 64.8752 82.3257 65.8258C82.62 67.8319 84.1021 69.4226 84.4238 71.3987C84.3838 71.6364 84.3355 71.8762 84.2724 72.1138C84.2724 72.1181 84.2724 72.1224 84.2682 72.1267C84.2682 72.1267 84.2682 72.1309 84.2682 72.1331C84.2682 72.1331 84.2682 72.1374 84.2682 72.1395C84.2682 72.1502 84.2787 72.1566 84.285 72.1609C84.2997 72.1331 84.3102 72.1052 84.3228 72.0796C84.346 72.0303 84.3691 71.9811 84.388 71.9297C84.4195 71.859 84.4448 71.7884 84.4721 71.7156C84.4805 71.7199 84.4889 71.6835 84.4889 71.6749C85.2121 69.6453 84.5478 67.3951 84.2114 65.3355C84.018 64.158 84.1 62.9698 83.9276 61.7965C83.8856 61.5161 83.8877 60.9851 83.4924 61.0922C83.0468 61.2142 82.6347 62.5866 82.5233 62.9634H82.5212Z" fill="#455A64"/>
<path d="M82.8128 64.6934C82.6867 67.1341 84.8983 69.2708 84.3853 71.7094C84.3685 71.7779 84.3538 71.8464 84.3349 71.9149C84.3223 71.962 84.3096 72.0091 84.2949 72.0562C84.2886 72.0776 84.2823 72.0947 84.276 72.1161C84.276 72.1204 84.276 72.1247 84.2718 72.129C84.2718 72.129 84.2718 72.1333 84.2718 72.1354C84.2718 72.1354 84.2718 72.1397 84.2718 72.1418C84.2718 72.1525 84.2823 72.1589 84.2886 72.1632C84.2928 72.1632 84.2949 72.1632 84.297 72.1632C84.3054 72.1632 84.3117 72.1589 84.3159 72.1482C84.3433 72.0755 84.3685 72.0027 84.3895 71.9299C84.4463 71.75 84.4862 71.5702 84.5115 71.3904C84.7427 70.3177 84.6859 69.2494 84.4631 68.1211C84.1898 66.7359 83.8429 65.3935 83.5949 63.9912C83.5633 63.8178 83.5633 63.137 83.29 63.2269C82.9453 63.3425 82.8275 64.413 82.8128 64.6956V64.6934ZM82.9306 64.3295C82.9516 64.1925 83.1261 63.274 83.3489 63.3703C83.4814 63.426 83.4982 64.1218 83.5192 64.2203C83.5991 64.5992 83.679 64.9739 83.7588 65.3507C83.9291 66.145 84.1036 66.9372 84.2718 67.7293C84.4778 68.7099 84.6082 69.6904 84.5388 70.6646C84.4148 68.5279 82.5816 66.5454 82.9306 64.3295Z" fill="white"/>
<path d="M81.9502 86.4005C81.9502 86.4326 81.9775 86.4775 82.0196 86.4497C83.8359 85.2593 86.1001 86.2292 87.9816 85.1651C88.7363 84.7369 89.3901 84.1375 89.9998 83.523C90.4497 83.0691 90.9017 82.5874 91.2296 82.0329C91.2738 81.958 91.505 81.6561 91.4672 81.5062C91.1792 80.3651 88.2696 82.2941 87.784 82.5682C85.8814 83.6258 84.1408 84.5892 82.4758 85.9444C82.3013 86.0836 82.1289 86.2292 81.9565 86.3791C81.9502 86.3833 81.9502 86.3919 81.9523 86.4026L81.9502 86.4005Z" fill="#455A64"/>
<path d="M81.9495 86.401C82.0168 86.3581 82.0819 86.3153 82.1471 86.2746C83.3959 85.6645 84.7855 85.4482 86.1267 85.1014C87.4806 84.7481 88.6389 84.1722 89.6438 83.1724C89.8204 82.9947 90.5583 82.3182 90.3418 81.9777C90.1463 81.6716 89.4042 82.2625 89.2234 82.3674C87.8716 83.1381 86.5514 83.9196 85.1428 84.5833C84.241 85.0072 83.3307 85.4311 82.473 85.9449C82.2985 86.0841 82.1261 86.2297 81.9537 86.3795C81.9474 86.3838 81.9474 86.3924 81.9495 86.4031V86.401ZM82.7967 85.885C83.789 85.3198 84.8338 84.8466 85.8681 84.3478C86.5787 84.0052 87.2724 83.6348 87.9536 83.2345C88.3257 83.014 88.6957 82.7892 89.0699 82.5708C89.2591 82.4616 89.4462 82.3546 89.6354 82.2518C89.73 82.1983 90.0411 82.0163 90.121 82.1619C90.3355 82.5579 88.25 84.5747 85.6621 85.095C84.6909 85.2898 83.7091 85.5103 82.7967 85.8828V85.885Z" fill="white"/>
<path d="M84.9706 82.8942C84.9706 82.8942 84.9664 82.9135 84.9727 82.9199C84.979 82.9263 84.9895 82.9285 85 82.9199C85.0379 82.8814 85.0757 82.845 85.1136 82.8086C85.2502 82.6715 85.3827 82.5302 85.513 82.3889C85.5361 82.3611 85.5614 82.3376 85.5845 82.3119C85.5929 82.3119 85.5992 82.3097 85.6055 82.3033C87.0561 80.7918 89.255 80.3315 90.4912 78.5802C91.042 77.8009 91.3909 76.8974 91.6558 75.9811C91.7694 75.585 92.3286 74.3753 91.8387 74.0628C91.4582 73.8187 90.8612 74.3497 90.6131 74.5745C89.8226 75.2895 89.2634 76.2872 88.7127 77.195C88.1724 78.0813 87.6825 78.9955 87.1696 79.8947C86.6924 80.7297 86.1374 81.4748 85.5466 82.2048C85.3595 82.436 85.1682 82.6673 84.9727 82.9006L84.9706 82.8942Z" fill="#455A64"/>
<path d="M84.9704 82.896C84.9704 82.896 84.9662 82.9152 84.9725 82.9217C85.0923 82.7953 85.21 82.669 85.3299 82.5427C85.2563 82.6305 85.1827 82.7204 85.1112 82.8082C85.2479 82.6712 85.3803 82.5299 85.5107 82.3886C85.5737 82.3136 85.6389 82.2387 85.7041 82.1638C86.5345 81.3416 87.4321 80.5944 88.3781 79.9072C88.8491 79.5646 89.2485 79.1771 89.5827 78.689C90.1903 77.8005 91.1342 75.7131 90.9513 75.3962C90.7579 75.0601 90.39 75.7473 90.2849 75.8929C89.4398 77.0661 88.7545 78.34 87.8463 79.4683C87.2345 80.2262 86.6164 80.9798 85.9984 81.7313C85.8428 81.8854 85.6893 82.0417 85.5422 82.2023C85.3551 82.4335 85.1638 82.6647 84.9683 82.8981L84.9704 82.896ZM90.8147 75.4711C90.9745 75.5396 90.7306 76.1006 90.6675 76.2483C90.3606 76.9612 90.0242 77.6827 89.6479 78.3636C89.2485 79.0851 88.6767 79.5625 88.0208 80.0314C87.4826 80.4167 86.9549 80.8428 86.4525 81.3009C87.0663 80.5923 87.6739 79.8794 88.2415 79.1364C88.7124 78.5177 89.1202 77.8604 89.5365 77.2032C89.7446 76.8756 89.9506 76.548 90.1714 76.229C90.2302 76.1412 90.6696 75.4112 90.8147 75.4733" fill="white"/>
<path d="M74.1573 92.2182C74.1573 92.2182 74.1636 92.2353 74.172 92.2353C74.1805 92.2353 74.1889 92.2331 74.191 92.2203C74.1994 92.1732 74.2099 92.1282 74.2183 92.079C74.2519 91.9077 74.2793 91.7364 74.3045 91.5652C74.3087 91.533 74.315 91.5031 74.3171 91.471C74.3234 91.4645 74.3255 91.4603 74.3276 91.4538C74.6472 89.5976 76.0368 88.1289 76.0788 86.2042C76.0977 85.3478 75.9085 84.5043 75.6478 83.6929C75.5343 83.3439 75.3472 82.1664 74.8322 82.1878C74.4306 82.2049 74.254 82.9007 74.1826 83.194C73.9555 84.1253 74.0375 85.1487 74.0816 86.0972C74.1237 87.0263 74.2141 87.9512 74.2814 88.8761C74.3444 89.7346 74.3045 90.5675 74.2309 91.411C74.2078 91.6765 74.1805 91.9463 74.1531 92.216L74.1573 92.2182Z" fill="#455A64"/>
<path d="M74.1562 92.2164C74.1562 92.2164 74.1626 92.2335 74.171 92.2335C74.1962 92.0793 74.2214 91.9252 74.2466 91.771C74.2361 91.8738 74.2256 91.9766 74.2172 92.0772C74.2509 91.9059 74.2782 91.7346 74.3034 91.5634C74.3139 91.4756 74.3223 91.3878 74.3328 91.2979C74.5389 90.2659 74.829 89.2554 75.1822 88.2642C75.3587 87.7696 75.4618 87.2793 75.466 86.7484C75.4744 85.7828 75.1338 83.7617 74.8437 83.6226C74.5347 83.4727 74.604 84.1685 74.5998 84.3291C74.5599 85.6265 74.686 86.9154 74.5767 88.2128C74.5031 89.0841 74.419 89.9555 74.337 90.829C74.2992 91.0217 74.2635 91.2165 74.234 91.4092C74.2109 91.6747 74.1836 91.9445 74.1562 92.2142V92.2164ZM74.4569 90.2809C74.5578 89.4438 74.6503 88.6067 74.7007 87.7696C74.7407 87.0738 74.7155 86.378 74.6965 85.6822C74.686 85.3332 74.6776 84.9864 74.6818 84.6395C74.6818 84.5453 74.644 83.781 74.7806 83.7532C74.932 83.721 75.0308 84.2584 75.0581 84.3997C75.1843 85.0827 75.2957 85.7849 75.3545 86.4807C75.4176 87.2172 75.2326 87.8617 74.9824 88.5425C74.7764 89.1013 74.5998 89.6879 74.4569 90.2809Z" fill="white"/>
<path d="M73.9471 93.7637C73.9786 93.7637 74.027 93.7508 74.088 93.7145C75.9443 92.9908 77.9772 92.9587 79.844 92.2351C80.6597 91.9182 81.4312 91.4536 82.0135 90.7792C82.2616 90.4923 83.1256 89.4989 82.9343 89.0408C82.3667 87.6577 76.0977 92.0145 74.0375 93.5817C73.9955 93.6031 73.9639 93.6245 73.9429 93.6481C73.8798 93.708 73.8903 93.7616 73.9471 93.7658V93.7637Z" fill="#455A64"/>
<path d="M73.9474 93.7615C74.0862 93.6845 74.2228 93.6053 74.3637 93.5303C74.8136 93.3462 75.2698 93.1706 75.7344 93.0208C76.4702 92.7853 77.227 92.644 77.9754 92.4534C79.1443 92.1537 80.2227 91.5863 81.1078 90.7492C81.3012 90.5694 81.873 90.0877 81.749 89.7515C81.6354 89.4454 81.1666 89.7473 81.0006 89.8265C78.6439 90.9719 76.3503 92.2886 74.0652 93.5817C74.0231 93.6031 73.9832 93.6224 73.9453 93.6438C73.8823 93.7037 73.8928 93.7573 73.9496 93.7615H73.9474ZM75.0406 93.1514C75.9362 92.6547 76.8318 92.1623 77.7273 91.6741C78.4316 91.2909 79.1337 90.9119 79.8401 90.5351C80.1891 90.3489 80.536 90.1583 80.887 89.9785C81.0258 89.9078 81.5619 89.6295 81.6123 89.8265C81.6607 90.0085 81.2928 90.3917 81.2255 90.4623C80.166 91.5714 78.8079 92.143 77.3531 92.4727C76.5669 92.6504 75.789 92.8645 75.0385 93.1514H75.0406Z" fill="white"/>
<path d="M82.8454 77.7788C82.8306 77.8045 82.8285 77.8302 82.837 77.8516C82.8475 77.8837 82.8811 77.9073 82.9168 77.9094C82.9337 77.9137 82.9526 77.9094 82.9715 77.9051C82.982 77.9051 82.9925 77.9051 83.003 77.8944C83.8797 77.0209 85.2188 76.2073 86.1207 75.3702C86.8123 74.7258 87.3821 73.9572 87.8614 73.1351C88.3911 72.2273 88.8473 71.2425 89.1438 70.2277C89.2846 69.7438 89.6946 68.6005 89.3077 68.1231C88.5152 67.1425 86.9111 70.7072 86.682 71.1055C85.3933 73.3256 84.1088 75.5458 82.8433 77.7788H82.8454Z" fill="#455A64"/>
<path d="M82.8364 77.8543C82.8469 77.8864 82.8806 77.91 82.9163 77.9121C82.9689 77.8372 83.0193 77.7601 83.0719 77.6852C83.4145 77.2741 83.7572 76.8652 84.1251 76.4734C84.7201 75.8354 85.4012 75.283 85.9751 74.6258C86.9758 73.4804 88.8531 69.8322 88.3128 69.4682C88.0311 69.2777 87.6843 70.0291 87.5812 70.2068C87.1776 70.9091 86.8644 71.6584 86.4502 72.3585C86.0193 73.0928 85.5462 73.7994 85.0732 74.5059C84.3459 75.5935 83.6122 76.6789 82.8974 77.7751C82.8764 77.8008 82.8574 77.8265 82.8364 77.8522V77.8543ZM83.5554 76.9701C84.2029 76.0088 84.842 75.0411 85.4832 74.0755C85.9247 73.4076 86.3619 72.7332 86.7572 72.0352C86.9758 71.6434 87.1734 71.2409 87.371 70.8363C87.4677 70.6414 87.5644 70.4423 87.6737 70.2518C87.7683 70.0891 88.1194 69.4061 88.2771 69.6566C88.4285 69.8964 87.9597 70.9754 87.8482 71.2259C87.6653 71.6327 87.4782 72.0352 87.2743 72.4313C86.8749 73.2106 86.4145 73.9642 85.8343 74.6215C85.254 75.2745 84.5771 75.8268 83.9906 76.4755C83.8434 76.6383 83.6963 76.8031 83.5533 76.9722L83.5554 76.9701Z" fill="white"/>
<path d="M72.3312 79.5541C73.9437 81.3397 76.5484 81.8364 77.4965 84.9643C77.4986 84.9772 77.5133 84.9772 77.5196 84.9686C77.5238 84.9686 77.5259 84.9622 77.5238 84.9579C77.465 84.6432 77.3956 84.3285 77.3115 84.0159C76.8742 82.3352 76.1027 80.7017 75.081 79.3251C74.4629 78.4986 73.7335 77.7515 72.9031 77.152C72.4784 76.8458 71.5576 76.0644 71.0278 76.1843C69.8821 76.4455 72.0369 79.2309 72.3312 79.5563V79.5541Z" fill="#455A64"/>
<path d="M72.4291 78.4541C73.0787 79.7515 74.3674 80.5929 75.3534 81.6034C76.0324 82.2992 76.6505 83.0614 77.1382 83.9028C77.2728 84.2539 77.3989 84.6072 77.5208 84.969C77.525 84.969 77.5271 84.9626 77.525 84.9583C77.4662 84.6436 77.3968 84.3288 77.3127 84.0163C77.3022 83.9991 77.2938 83.982 77.2854 83.967C76.9427 83.0057 76.4676 82.083 75.9462 81.2373C75.2125 80.0469 74.3149 78.9593 73.2869 78.0237C73.1103 77.861 72.5237 77.1524 72.2189 77.3343C71.9267 77.5078 72.3387 78.2764 72.4291 78.4562V78.4541ZM72.3198 77.4457C72.5426 77.36 73.577 78.407 73.9827 78.8351C74.8572 79.7536 75.6141 80.7877 76.23 81.901C76.5012 82.3891 76.7304 82.8858 76.9385 83.3932C76.5916 82.8666 76.1985 82.372 75.7717 81.9053C74.8825 80.9354 73.7704 80.1583 72.9631 79.1156C72.7529 78.8437 72.5679 78.5483 72.4291 78.2293C72.3745 78.1029 72.118 77.5227 72.3198 77.4457Z" fill="white"/>
<path d="M74.3333 69.809C74.2282 70.6783 74.2176 71.5646 74.3165 72.436C74.5057 74.1402 75.0922 75.7352 76.0025 77.1718C76.0193 77.1975 76.034 77.2232 76.0508 77.2489C76.0655 77.3324 76.0803 77.4158 76.1013 77.4972C76.1055 77.5165 76.1076 77.5336 76.1139 77.5529L76.1181 77.5657C76.1307 77.5786 76.1559 77.5743 76.1538 77.5486C76.1538 77.4458 76.1538 77.3431 76.158 77.2403C76.1896 75.125 76.5743 73.0547 76.2968 70.9373C76.2337 70.4749 75.9394 67.4476 74.9009 67.9657C74.4174 68.2055 74.3858 69.3659 74.3333 69.809Z" fill="#455A64"/>
<path d="M74.7475 70.2364C74.6761 71.5402 75.0124 72.9383 75.2752 74.2078C75.4791 75.1948 75.6978 76.2032 76.0026 77.1731C76.0257 77.2523 76.0531 77.3336 76.0783 77.4107C76.0846 77.4385 76.093 77.4685 76.1014 77.4985C76.1056 77.522 76.1098 77.5434 76.1182 77.567C76.1308 77.5798 76.1561 77.5756 76.154 77.5499C76.154 77.4471 76.154 77.3443 76.1582 77.2416C76.1371 77.1645 76.1161 77.0874 76.0951 77.0082C75.9437 75.8585 75.9585 74.7024 75.9669 73.5356C75.9711 72.9061 75.9627 72.2788 75.908 71.6515C75.8554 71.0478 75.8281 70.3991 75.6431 69.8189C75.5632 69.5663 75.395 69.0653 75.0461 69.2515C74.7517 69.4078 74.7602 69.958 74.7433 70.2342L74.7475 70.2364ZM75.5107 69.7975C75.7293 70.4826 75.7629 71.2876 75.8113 72.0027C75.8596 72.6878 75.8512 73.3771 75.8449 74.0644C75.8386 74.7923 75.8302 75.5331 75.8954 76.261C75.6494 75.3447 75.4119 74.4262 75.2374 73.4842C75.1007 72.7477 74.9788 72.0091 74.8947 71.264C74.8506 70.8808 74.8232 70.4954 74.8569 70.1079C74.8674 69.9709 74.8821 69.8339 74.9115 69.7011C75.0019 69.2772 75.4119 69.487 75.5107 69.7953V69.7975Z" fill="white"/>
<path d="M87.0835 64.3186C87.0751 64.3529 87.0709 64.385 87.0625 64.4193C87.052 64.4728 87.1003 64.4985 87.1403 64.4899C87.1613 64.4835 87.1781 64.4685 87.1844 64.4428C87.1991 64.3829 87.2118 64.3208 87.2265 64.2587C87.237 64.2073 87.2496 64.1581 87.2601 64.1088C87.3043 64.0275 87.3526 63.9461 87.4052 63.869C87.956 63.0212 88.9104 62.304 89.5579 61.5782C90.1486 60.9209 90.7057 60.2294 91.1577 59.4629C91.6139 58.6879 91.9713 57.8422 92.0848 56.9388C92.1142 56.6968 92.2278 56.0824 91.9292 55.9304C91.5529 55.7377 90.979 56.472 90.7751 56.6626C90.075 57.3284 89.4801 58.1034 88.9798 58.9341C87.9728 60.6019 87.4577 62.4196 87.0835 64.3208V64.3186Z" fill="#455A64"/>
<path d="M87.2517 63.8956C87.1886 64.0326 87.1298 64.1739 87.0835 64.3174C87.0751 64.3516 87.0709 64.3837 87.0625 64.418C87.052 64.4715 87.1003 64.4972 87.1403 64.4886C87.1466 64.4651 87.155 64.4394 87.1634 64.4159C87.1844 64.3623 87.2054 64.3088 87.2265 64.2553C87.2811 64.1225 87.3421 63.9941 87.4052 63.8656C87.628 63.4139 87.8971 62.99 88.2124 62.5575C88.7401 61.8381 89.2951 61.1402 89.7975 60.4016C90.0498 60.0312 91.9839 57.1794 91.2229 56.9075C91.0799 56.854 90.9412 57.051 90.8655 57.1302C90.5964 57.4149 90.3778 57.7532 90.1696 58.0851C89.684 58.8579 89.2278 59.6501 88.7948 60.4551C88.2019 61.5641 87.6743 62.7074 87.2496 63.8935L87.2517 63.8956ZM88.635 60.9518C89.005 60.2389 89.396 59.5388 89.806 58.8494C90.0057 58.5132 90.2054 58.175 90.4219 57.8495C90.5291 57.689 91.0736 56.9653 91.2229 57.0595C91.4415 57.1987 90.9223 58.3248 90.7646 58.6289C90.5838 58.9757 90.3883 59.3118 90.1823 59.6415C89.7681 60.3074 89.3119 60.9454 88.841 61.5705C88.4269 62.125 87.9307 62.7138 87.5439 63.3518C87.8635 62.5318 88.2314 61.7332 88.6329 60.9496L88.635 60.9518Z" fill="white"/>
<path d="M80.4304 74.2412C80.4409 74.2754 80.4514 74.3054 80.4619 74.3396C80.4787 74.391 80.5334 74.3889 80.5628 74.361C80.5796 74.3461 80.586 74.3225 80.5775 74.2968C80.5586 74.2369 80.5418 74.1769 80.5229 74.117C80.5082 74.0656 80.4935 74.0185 80.4787 73.9693C80.4787 73.875 80.4787 73.7809 80.485 73.6867C80.5418 72.6718 81.0148 71.5628 81.2187 70.6058C81.4058 69.7344 81.5467 68.8524 81.5593 67.9575C81.5719 67.054 81.4647 66.1376 81.1178 65.3005C81.0232 65.0757 80.8193 64.487 80.4871 64.5084C80.0667 64.5341 79.9321 65.4632 79.8502 65.733C79.5748 66.6665 79.4402 67.6406 79.415 68.6147C79.3645 70.5716 79.8144 72.4085 80.4283 74.2433L80.4304 74.2412Z" fill="#455A64"/>
<path d="M80.3699 73.7916C80.3825 73.9436 80.4014 74.0956 80.433 74.2412C80.4435 74.2755 80.454 74.3054 80.4645 74.3397C80.4813 74.3911 80.536 74.3889 80.5654 74.3611C80.5591 74.3354 80.5528 74.3119 80.5486 74.2862C80.5423 74.2284 80.5318 74.1727 80.5255 74.1149C80.5087 73.9715 80.496 73.8302 80.4876 73.6867C80.4582 73.1836 80.4813 72.6783 80.5423 72.1431C80.6453 71.2503 80.7799 70.3639 80.8513 69.4669C80.8871 69.0173 81.1562 65.5618 80.3636 65.7159C80.2143 65.7438 80.1912 65.9836 80.1639 66.0928C80.0714 66.476 80.0483 66.8806 80.0335 67.2746C79.9957 68.1909 79.9894 69.1115 80.0125 70.0278C80.0462 71.291 80.1534 72.5499 80.3699 73.7916ZM80.1155 70.5374C80.084 69.7302 80.0777 68.9252 80.0924 68.1202C80.0987 67.7284 80.105 67.3324 80.1323 66.9406C80.145 66.7457 80.2606 65.8423 80.4351 65.8487C80.6937 65.8572 80.7988 67.0969 80.8135 67.4394C80.8282 67.8312 80.824 68.223 80.8093 68.6127C80.7798 69.4005 80.6979 70.1841 80.6012 70.9656C80.5171 71.6571 80.3783 72.4193 80.3573 73.1686C80.2312 72.2951 80.1534 71.4173 80.1155 70.5352V70.5374Z" fill="white"/>
<path d="M75.9 75.6621C76.1775 77.499 76.518 79.2953 76.9931 81.0894C77.361 82.4724 77.731 83.8769 77.7836 85.3156C77.8467 87.037 77.3568 88.9467 76.4991 90.5974C76.9952 90.0343 77.4851 89.4627 77.9707 88.8803C78.9588 87.7007 79.9405 86.4867 80.6427 85.1015C80.7121 84.9645 80.7751 84.8254 80.8382 84.6862C80.8319 84.6776 80.8298 84.6669 80.8319 84.6519C81.2355 82.7743 81.3343 80.9374 81.1872 79.079C80.8781 78.0985 80.4976 77.2185 79.9952 76.2894C79.499 75.373 79.0239 74.4803 78.7611 73.4612C78.7464 73.4034 78.8263 73.3691 78.8494 73.4269C79.354 74.7757 80.3925 76.0881 81.0022 77.4862C80.9664 77.2549 80.9307 77.0259 80.8886 76.7925C80.4913 74.5788 79.7387 72.3564 80.5334 70.1427C80.5607 70.0678 80.6637 70.1191 80.6406 70.1919C79.8922 72.6562 81.0694 75.3709 81.4184 77.8202C81.6791 79.6421 81.7653 81.6032 81.3322 83.4187C81.6665 82.4211 81.9019 81.387 82.129 80.3572C83.4955 74.1463 85.0785 67.9696 88.0427 62.3239C88.0721 62.2683 88.1583 62.3068 88.131 62.3646C85.0953 68.4899 83.8928 75.1482 82.3119 81.7488C82.293 81.8237 82.274 81.8987 82.2551 81.9736C82.7807 81.1022 83.4765 80.3058 84.1619 79.6271C84.1976 79.5929 84.2523 79.6357 84.2207 79.6764C83.3525 80.8111 82.6882 82.0528 81.904 83.2368C81.616 84.1595 81.2565 85.0523 80.7709 85.8958C80.1907 86.8999 79.4864 87.8163 78.7527 88.7069C79.991 87.6493 81.2397 86.6066 82.4044 85.4548C84.1619 83.7163 85.8395 81.8708 87.3573 79.9076C87.3784 79.8798 87.4204 79.914 87.3994 79.944C85.9026 82.0678 84.2943 84.0846 82.4717 85.9301C80.9307 87.4908 79.2783 89.0816 77.4283 90.2805C75.6603 92.353 73.7704 94.4361 71.5335 95.954C71.4263 96.0268 71.3275 95.877 71.42 95.7913C71.83 95.4209 72.2315 95.042 72.6288 94.6609C73.0156 93.7831 73.5496 92.9781 73.8923 92.0682C74.2959 90.9977 74.5671 89.8994 74.7122 88.7647C74.7227 88.6812 74.8425 88.7026 74.8383 88.784C74.7458 90.3297 74.4052 92.2331 73.5938 93.7103C74.1593 93.1408 74.7143 92.5628 75.2567 91.9719C76.7093 89.7132 77.6554 87.0284 77.3379 84.3244C77.1739 82.9349 76.7829 81.5925 76.4634 80.2373C76.106 78.7258 75.9231 77.2164 75.7948 75.6706C75.7885 75.6043 75.8852 75.5936 75.8958 75.6599L75.9 75.6621Z" fill="#455A64"/>
<path d="M51.4011 13.5156H8.15918V72.0088H51.4011V13.5156Z" fill="#7B55D3"/>
<g opacity="0.4">
<path d="M51.4006 13.5156H8.15869V72.0088H51.4006V13.5156Z" fill="black"/>
</g>
<path d="M52.5768 13.5156H9.33496V72.0088H52.5768V13.5156Z" fill="#7B55D3"/>
<g opacity="0.2">
<path d="M52.5763 13.5156H9.33447V72.0088H52.5763V13.5156Z" fill="black"/>
</g>
<path d="M49.7125 15.8563L11.5425 16.3516L12.2018 69.0457L50.3717 68.5504L49.7125 15.8563Z" fill="#EBEBEB"/>
<path d="M11.8483 15.6889L10.7285 68.375L48.8927 69.2163L50.0125 16.5302L11.8483 15.6889Z" fill="#DBDBDB"/>
<path d="M49.4543 16.1016H11.2812V68.8H49.4543V16.1016Z" fill="white"/>
<path d="M18.8826 51.3672H15.6416V54.6678H18.8826V51.3672Z" fill="#EBEBEB"/>
<path d="M31.1337 51.3672H20.6323V51.8505H31.1337V51.3672Z" fill="#C7C7C7"/>
<path d="M45.0975 52.3047H20.6323V52.788H45.0975V52.3047Z" fill="#EBEBEB"/>
<path d="M45.0975 53.2422H20.6323V53.7255H45.0975V53.2422Z" fill="#EBEBEB"/>
<path d="M45.0975 54.1875H20.6323V54.6708H45.0975V54.1875Z" fill="#EBEBEB"/>
<path d="M15.8789 52.851C15.9987 52.9531 16.1124 53.0583 16.2247 53.165C16.3385 53.2718 16.4463 53.3831 16.557 53.4913C16.7756 53.7108 16.9852 53.938 17.1933 54.1667L16.822 54.1911C17.1154 53.5645 17.4567 52.9653 17.831 52.3875C18.0196 52.0994 18.2172 51.8174 18.4298 51.5445C18.6438 51.2716 18.8669 51.0063 19.1214 50.7578C19.0241 51.1024 18.8968 51.4286 18.7606 51.7472C18.6229 52.0659 18.4702 52.3769 18.307 52.6802C17.9792 53.287 17.6184 53.8724 17.2097 54.4289L17.0061 54.7063L16.837 54.4533C16.6648 54.1956 16.4972 53.9349 16.337 53.6697C16.2591 53.5355 16.1768 53.4029 16.1005 53.2657C16.0241 53.13 15.9478 52.9928 15.8789 52.851Z" fill="#7B55D3"/>
<path d="M18.8826 56.8359H15.6416V60.1365H18.8826V56.8359Z" fill="#EBEBEB"/>
<path d="M31.1337 56.8359H20.6323V57.3192H31.1337V56.8359Z" fill="#C7C7C7"/>
<path d="M45.0975 57.7734H20.6323V58.2567H45.0975V57.7734Z" fill="#EBEBEB"/>
<path d="M45.0975 58.7109H20.6323V59.1942H45.0975V58.7109Z" fill="#EBEBEB"/>
<path d="M45.0975 59.6562H20.6323V60.1395H45.0975V59.6562Z" fill="#EBEBEB"/>
<path d="M34.685 29.3359H25.7974V29.8192H34.685V29.3359Z" fill="#C7C7C7"/>
<path d="M45.0965 30.2734H25.7974V30.7567H45.0965V30.2734Z" fill="#EBEBEB"/>
<path d="M45.0965 31.2109H25.7974V31.6942H45.0965V31.2109Z" fill="#EBEBEB"/>
<path d="M45.0965 33.0938H25.7974V33.577H45.0965V33.0938Z" fill="#EBEBEB"/>
<path d="M34.1895 34.0312H25.7974V34.5145H34.1895V34.0312Z" fill="#EBEBEB"/>
<path d="M49.4548 21.4062H11.2817V26.0012H49.4548V21.4062Z" fill="#7B55D3"/>
<path d="M18.2715 22.4848C18.2715 22.3521 18.3718 22.25 18.502 22.25C18.6323 22.25 18.737 22.3521 18.737 22.4848V25.0018C18.737 25.1344 18.6278 25.2366 18.502 25.2366C18.3763 25.2366 18.2715 25.1344 18.2715 25.0018V22.4848Z" fill="white"/>
<path d="M19.9804 25.0046C19.9804 25.1327 19.8756 25.2394 19.7544 25.2394C19.6241 25.2394 19.5238 25.1327 19.5238 25.0046V22.5211C19.5193 22.448 19.5538 22.3717 19.6166 22.3245C19.7214 22.2513 19.8636 22.2726 19.9355 22.3763L21.2888 24.2835V22.5257C21.2888 22.4022 21.3891 22.2955 21.5148 22.2955C21.6406 22.2955 21.7454 22.4022 21.7454 22.5257V25.0046C21.7454 25.1327 21.6406 25.2394 21.5148 25.2394C21.4475 25.2394 21.3846 25.2058 21.3427 25.154C21.3337 25.1449 21.3262 25.1372 21.3217 25.1281L19.9804 23.2331V25.0046Z" fill="white"/>
<path d="M22.6573 24.4951C22.7321 24.4005 22.8713 24.3884 22.9627 24.4646C23.1468 24.6186 23.4656 24.7969 23.7635 24.7939C23.9731 24.7939 24.1617 24.7298 24.2875 24.6353C24.4132 24.5408 24.4671 24.4341 24.4671 24.3274C24.4671 24.2725 24.4552 24.2329 24.4297 24.1902C24.4043 24.1475 24.3668 24.1048 24.304 24.0621C24.1827 23.9813 23.9776 23.9081 23.7306 23.8609H23.7216C23.524 23.8228 23.3399 23.7709 23.1812 23.6947C23.0225 23.6185 22.8833 23.5117 22.792 23.3623C22.7291 23.2602 22.6962 23.1398 22.6962 23.0132C22.6962 22.7571 22.8384 22.5345 23.0315 22.3897C23.2291 22.2449 23.4836 22.1641 23.7561 22.1641C24.1587 22.1641 24.4551 22.3653 24.6692 22.5056C24.765 22.5742 24.795 22.7098 24.7276 22.8089C24.6647 22.9111 24.53 22.9416 24.4297 22.873C24.2156 22.7281 24.0105 22.6001 23.7546 22.6001C23.5659 22.6001 23.3983 22.6595 23.2845 22.7449C23.1707 22.8303 23.1258 22.9248 23.1258 23.0132C23.1258 23.0651 23.1348 23.0986 23.1558 23.1321C23.1767 23.1657 23.2142 23.2053 23.2695 23.2434C23.3788 23.3197 23.5674 23.3883 23.7935 23.4309H23.8025C24.0165 23.4736 24.2126 23.5285 24.3803 23.6108C24.5525 23.6962 24.7036 23.8075 24.7995 23.9645C24.8623 24.0667 24.8998 24.1947 24.8998 24.3274C24.8998 24.6003 24.7486 24.835 24.539 24.989C24.3339 25.143 24.0614 25.2329 23.7635 25.2329C23.3115 25.2284 22.9297 24.9982 22.6902 24.8061C22.5974 24.7298 22.5854 24.5881 22.6573 24.4951Z" fill="white"/>
<path d="M26.7599 25.2366C26.0847 25.2366 25.5488 24.6816 25.5488 24.0032V22.4848C25.5488 22.3521 25.6491 22.25 25.7794 22.25C25.9096 22.25 26.0144 22.3521 26.0144 22.4848V24.0032C26.0144 24.4209 26.3497 24.7624 26.7599 24.7624C27.1701 24.7624 27.5054 24.4209 27.5054 24.0032V22.4848C27.5054 22.3521 27.6102 22.25 27.7404 22.25C27.8707 22.25 27.9709 22.3521 27.9709 22.4848V24.0032C27.9709 24.6816 27.4305 25.2366 26.7599 25.2366Z" fill="white"/>
<path d="M30.7881 24.8829C30.83 25.0064 30.7626 25.139 30.6414 25.1817C30.6249 25.1862 30.5905 25.1939 30.5486 25.1939H30.5441C30.5022 25.1939 30.4393 25.1847 30.3809 25.1466C30.327 25.1131 30.2806 25.0567 30.2462 24.9972C30.1878 24.8737 30.1579 24.7197 30.1579 24.485C30.1534 24.4042 30.1369 24.3478 30.107 24.302C30.0815 24.2548 30.0321 24.2121 29.9812 24.1785C29.8929 24.1191 29.7836 24.084 29.7462 24.0764H29.2522V25.0018C29.2522 25.1298 29.1474 25.2366 29.0172 25.2366C28.8869 25.2366 28.7866 25.1298 28.7866 25.0018V22.4848C28.7866 22.3521 28.8869 22.25 29.0172 22.25H29.7671C30.2656 22.25 30.6638 22.6601 30.6638 23.1678C30.6638 23.4498 30.5381 23.6968 30.3375 23.8675C30.3914 23.9102 30.4423 23.962 30.4842 24.0261C30.568 24.1496 30.6219 24.3081 30.6219 24.4865C30.6174 24.6145 30.6309 24.6953 30.6384 24.738C30.7058 24.7594 30.7596 24.8112 30.7851 24.8829H30.7881ZM30.2013 23.1678C30.2013 22.9208 30.0082 22.7241 29.7701 22.7241H29.2552V23.6038H29.7701C30.0097 23.6038 30.2013 23.4071 30.2013 23.1678Z" fill="white"/>
<path d="M32.9642 24.5372H31.9462L31.7411 25.0922C31.7037 25.1867 31.6154 25.2416 31.5226 25.2416C31.4926 25.2416 31.4687 25.237 31.4432 25.2294C31.322 25.1821 31.2636 25.0464 31.3055 24.9214L32.2306 22.4075C32.2681 22.3129 32.3609 22.2535 32.4522 22.2581C32.548 22.2535 32.6363 22.3129 32.6737 22.4075L33.5989 24.9214C33.6408 25.0449 33.5824 25.1821 33.4611 25.2294C33.4402 25.2385 33.4103 25.2416 33.3818 25.2416C33.289 25.2416 33.2022 25.1867 33.1677 25.0922L32.9627 24.5372H32.9642ZM32.792 24.0677L32.4522 23.1499L32.1124 24.0677H32.7905H32.792Z" fill="white"/>
<path d="M34.6362 25.0046C34.6362 25.1327 34.5314 25.2394 34.4101 25.2394C34.2799 25.2394 34.1796 25.1327 34.1796 25.0046V22.5211C34.1751 22.448 34.2095 22.3717 34.2724 22.3245C34.3772 22.2513 34.5194 22.2726 34.5913 22.3763L35.9445 24.2835V22.5257C35.9445 22.4022 36.0448 22.2955 36.1706 22.2955C36.2963 22.2955 36.4011 22.4022 36.4011 22.5257V25.0046C36.4011 25.1327 36.2963 25.2394 36.1706 25.2394C36.1032 25.2394 36.0403 25.2058 35.9984 25.154C35.9894 25.1449 35.982 25.1372 35.9775 25.1281L34.6362 23.2331V25.0046Z" fill="white"/>
<path d="M37.2764 23.7008C37.2809 22.8562 37.9755 22.1686 38.8138 22.1641C39.182 22.1641 39.5174 22.2875 39.7823 22.4964C39.8826 22.5818 39.8991 22.7312 39.8242 22.8379C39.7404 22.9446 39.5847 22.9614 39.4889 22.8852C39.3048 22.7312 39.0742 22.6504 38.8138 22.6504C38.5249 22.6504 38.2569 22.7693 38.0593 22.9583C37.8707 23.155 37.7539 23.4111 37.7539 23.7008C37.7539 23.9904 37.8707 24.2557 38.0593 24.4432C38.2569 24.6308 38.5249 24.7512 38.8138 24.7512C39.0742 24.7512 39.3003 24.6704 39.4889 24.5164C39.5847 24.4432 39.7404 24.4615 39.8242 24.5637C39.8991 24.6704 39.8826 24.8244 39.7823 24.9052C39.5189 25.114 39.1835 25.2375 38.8138 25.2375C37.9755 25.2375 37.2809 24.55 37.2764 23.7008Z" fill="white"/>
<path d="M40.6348 25.0018V22.4848C40.6348 22.3521 40.7351 22.25 40.8653 22.25H42.2351C42.3563 22.25 42.4656 22.3521 42.4656 22.4848C42.4656 22.6174 42.3563 22.7241 42.2351 22.7241H41.0989V23.5047H42.0749C42.2006 23.5047 42.3054 23.616 42.3054 23.7395C42.3054 23.8721 42.2006 23.9788 42.0749 23.9788H41.0989V24.764H42.2351C42.3563 24.764 42.4656 24.8707 42.4656 25.0033C42.4656 25.1359 42.3563 25.2381 42.2351 25.2381H40.8773C40.8683 25.2381 40.8683 25.2335 40.8683 25.2335L40.8638 25.2381C40.7336 25.2381 40.6333 25.1314 40.6333 25.0033L40.6348 25.0018Z" fill="white"/>
<path d="M45.1784 48.3591H15.5605V41.0703H45.1784V48.3591ZM15.7222 48.1731H45.0167V41.2563H15.7222V48.1731Z" fill="#EBEBEB"/>
<path d="M45.0973 45.3672H15.6411V45.5532H45.0973V45.3672Z" fill="#EBEBEB"/>
<path d="M45.0973 42.5625H15.6411V42.7485H45.0973V42.5625Z" fill="#EBEBEB"/>
<path d="M25.337 41.1641H25.1753V48.2668H25.337V41.1641Z" fill="#EBEBEB"/>
<path d="M35.563 41.1641H35.4014V48.2668H35.563V41.1641Z" fill="#EBEBEB"/>
<path d="M17.3223 41.9211C17.8432 41.883 18.3642 41.8647 18.8851 41.8495C19.4061 41.8327 19.927 41.8296 20.448 41.8281C20.9689 41.8296 21.4899 41.8327 22.0108 41.8495L22.7922 41.8754C23.0527 41.8906 23.3132 41.8998 23.5737 41.9211C23.3132 41.9425 23.0527 41.9516 22.7922 41.9669L22.0108 41.9928C21.4899 42.0095 20.9689 42.0126 20.448 42.0141C19.927 42.0111 19.4061 42.0095 18.8851 41.9928C18.3642 41.9775 17.8432 41.9592 17.3223 41.9211Z" fill="#C7C7C7"/>
<path d="M27.2432 41.9211C27.7641 41.883 28.2851 41.8647 28.806 41.8495C29.327 41.8327 29.8479 41.8296 30.3689 41.8281C30.8898 41.8296 31.4108 41.8327 31.9317 41.8495L32.7131 41.8754C32.9736 41.8906 33.2341 41.8998 33.4946 41.9211C33.2341 41.9425 32.9736 41.9516 32.7131 41.9669L31.9317 41.9928C31.4108 42.0095 30.8898 42.0126 30.3689 42.0141C29.8479 42.0111 29.327 42.0095 28.806 41.9928C28.2851 41.9775 27.7641 41.9592 27.2432 41.9211Z" fill="#C7C7C7"/>
<path d="M37.2261 41.9211C37.747 41.883 38.268 41.8647 38.7889 41.8495C39.3099 41.8327 39.8308 41.8296 40.3518 41.8281C40.8727 41.8296 41.3937 41.8327 41.9146 41.8495L42.6961 41.8754C42.9565 41.8906 43.217 41.8998 43.4775 41.9211C43.217 41.9425 42.9565 41.9516 42.6961 41.9669L41.9146 41.9928C41.3937 42.0095 40.8727 42.0126 40.3518 42.0141C39.8308 42.0111 39.3099 42.0095 38.7889 41.9928C38.268 41.9775 37.747 41.9592 37.2261 41.9211Z" fill="#C7C7C7"/>
<path d="M17.3223 43.718C17.8432 43.6799 18.3642 43.6616 18.8851 43.6463C19.4061 43.6296 19.927 43.6265 20.448 43.625C20.9689 43.6265 21.4899 43.6296 22.0108 43.6463L22.7922 43.6723C23.0527 43.6875 23.3132 43.6967 23.5737 43.718C23.3132 43.7393 23.0527 43.7485 22.7922 43.7637L22.0108 43.7897C21.4899 43.8064 20.9689 43.8095 20.448 43.811C19.927 43.8079 19.4061 43.8064 18.8851 43.7897C18.3642 43.7744 17.8432 43.7561 17.3223 43.718Z" fill="#EBEBEB"/>
<path d="M27.2432 43.718C27.7641 43.6799 28.2851 43.6616 28.806 43.6463C29.327 43.6296 29.8479 43.6265 30.3689 43.625C30.8898 43.6265 31.4108 43.6296 31.9317 43.6463L32.7131 43.6723C32.9736 43.6875 33.2341 43.6967 33.4946 43.718C33.2341 43.7393 32.9736 43.7485 32.7131 43.7637L31.9317 43.7897C31.4108 43.8064 30.8898 43.8095 30.3689 43.811C29.8479 43.8079 29.327 43.8064 28.806 43.7897C28.2851 43.7744 27.7641 43.7561 27.2432 43.718Z" fill="#EBEBEB"/>
<path d="M37.2261 43.718C37.747 43.6799 38.268 43.6616 38.7889 43.6463C39.3099 43.6296 39.8308 43.6265 40.3518 43.625C40.8727 43.6265 41.3937 43.6296 41.9146 43.6463L42.6961 43.6723C42.9565 43.6875 43.217 43.6967 43.4775 43.718C43.217 43.7393 42.9565 43.7485 42.6961 43.7637L41.9146 43.7897C41.3937 43.8064 40.8727 43.8095 40.3518 43.811C39.8308 43.8079 39.3099 43.8064 38.7889 43.7897C38.268 43.7744 37.747 43.7561 37.2261 43.718Z" fill="#EBEBEB"/>
<path d="M17.3223 44.4367C17.8432 44.3986 18.3642 44.3803 18.8851 44.3651C19.4061 44.3483 19.927 44.3453 20.448 44.3438C20.9689 44.3453 21.4899 44.3483 22.0108 44.3651L22.7922 44.391C23.0527 44.4063 23.3132 44.4154 23.5737 44.4367C23.3132 44.4581 23.0527 44.4672 22.7922 44.4825L22.0108 44.5084C21.4899 44.5252 20.9689 44.5282 20.448 44.5297C19.927 44.5267 19.4061 44.5252 18.8851 44.5084C18.3642 44.4932 17.8432 44.4749 17.3223 44.4367Z" fill="#EBEBEB"/>
<path d="M27.2432 44.4367C27.7641 44.3986 28.2851 44.3803 28.806 44.3651C29.327 44.3483 29.8479 44.3453 30.3689 44.3438C30.8898 44.3453 31.4108 44.3483 31.9317 44.3651L32.7131 44.391C32.9736 44.4063 33.2341 44.4154 33.4946 44.4367C33.2341 44.4581 32.9736 44.4672 32.7131 44.4825L31.9317 44.5084C31.4108 44.5252 30.8898 44.5282 30.3689 44.5297C29.8479 44.5267 29.327 44.5252 28.806 44.5084C28.2851 44.4932 27.7641 44.4749 27.2432 44.4367Z" fill="#EBEBEB"/>
<path d="M37.2261 44.4367C37.747 44.3986 38.268 44.3803 38.7889 44.3651C39.3099 44.3483 39.8308 44.3453 40.3518 44.3438C40.8727 44.3453 41.3937 44.3483 41.9146 44.3651L42.6961 44.391C42.9565 44.4063 43.217 44.4154 43.4775 44.4367C43.217 44.4581 42.9565 44.4672 42.6961 44.4825L41.9146 44.5084C41.3937 44.5252 40.8727 44.5282 40.3518 44.5297C39.8308 44.5267 39.3099 44.5252 38.7889 44.5084C38.268 44.4932 37.747 44.4749 37.2261 44.4367Z" fill="#EBEBEB"/>
<path d="M17.3223 46.3586C17.8432 46.3205 18.3642 46.3022 18.8851 46.287C19.4061 46.2702 19.927 46.2671 20.448 46.2656C20.9689 46.2671 21.4899 46.2702 22.0108 46.287L22.7922 46.3129C23.0527 46.3281 23.3132 46.3373 23.5737 46.3586C23.3132 46.38 23.0527 46.3891 22.7922 46.4044L22.0108 46.4303C21.4899 46.447 20.9689 46.4501 20.448 46.4516C19.927 46.4486 19.4061 46.447 18.8851 46.4303C18.3642 46.415 17.8432 46.3967 17.3223 46.3586Z" fill="#EBEBEB"/>
<path d="M27.2432 46.3586C27.7641 46.3205 28.2851 46.3022 28.806 46.287C29.327 46.2702 29.8479 46.2671 30.3689 46.2656C30.8898 46.2671 31.4108 46.2702 31.9317 46.287L32.7131 46.3129C32.9736 46.3281 33.2341 46.3373 33.4946 46.3586C33.2341 46.38 32.9736 46.3891 32.7131 46.4044L31.9317 46.4303C31.4108 46.447 30.8898 46.4501 30.3689 46.4516C29.8479 46.4486 29.327 46.447 28.806 46.4303C28.2851 46.415 27.7641 46.3967 27.2432 46.3586Z" fill="#EBEBEB"/>
<path d="M37.2261 46.3586C37.747 46.3205 38.268 46.3022 38.7889 46.287C39.3099 46.2702 39.8308 46.2671 40.3518 46.2656C40.8727 46.2671 41.3937 46.2702 41.9146 46.287L42.6961 46.3129C42.9565 46.3281 43.217 46.3373 43.4775 46.3586C43.217 46.38 42.9565 46.3891 42.6961 46.4044L41.9146 46.4303C41.3937 46.447 40.8727 46.4501 40.3518 46.4516C39.8308 46.4486 39.3099 46.447 38.7889 46.4303C38.268 46.415 37.747 46.3967 37.2261 46.3586Z" fill="#EBEBEB"/>
<path d="M17.3223 47.0774C17.8432 47.0393 18.3642 47.021 18.8851 47.0057C19.4061 46.989 19.927 46.9859 20.448 46.9844C20.9689 46.9859 21.4899 46.989 22.0108 47.0057L22.7922 47.0316C23.0527 47.0469 23.3132 47.056 23.5737 47.0774C23.3132 47.0987 23.0527 47.1079 22.7922 47.1231L22.0108 47.149C21.4899 47.1658 20.9689 47.1688 20.448 47.1704C19.927 47.1673 19.4061 47.1658 18.8851 47.149C18.3642 47.1338 17.8432 47.1155 17.3223 47.0774Z" fill="#EBEBEB"/>
<path d="M27.2432 47.0774C27.7641 47.0393 28.2851 47.021 28.806 47.0057C29.327 46.989 29.8479 46.9859 30.3689 46.9844C30.8898 46.9859 31.4108 46.989 31.9317 47.0057L32.7131 47.0316C32.9736 47.0469 33.2341 47.056 33.4946 47.0774C33.2341 47.0987 32.9736 47.1079 32.7131 47.1231L31.9317 47.149C31.4108 47.1658 30.8898 47.1688 30.3689 47.1704C29.8479 47.1673 29.327 47.1658 28.806 47.149C28.2851 47.1338 27.7641 47.1155 27.2432 47.0774Z" fill="#EBEBEB"/>
<path d="M37.2261 47.0774C37.747 47.0393 38.268 47.021 38.7889 47.0057C39.3099 46.989 39.8308 46.9859 40.3518 46.9844C40.8727 46.9859 41.3937 46.989 41.9146 47.0057L42.6961 47.0316C42.9565 47.0469 43.217 47.056 43.4775 47.0774C43.217 47.0987 42.9565 47.1079 42.6961 47.1231L41.9146 47.149C41.3937 47.1658 40.8727 47.1688 40.3518 47.1704C39.8308 47.1673 39.3099 47.1658 38.7889 47.149C38.268 47.1338 37.747 47.1155 37.2261 47.0774Z" fill="#EBEBEB"/>
<path d="M43.0612 17.3589H17.6724C17.6724 14.6452 19.8325 12.4453 22.4971 12.4453H38.2364C40.9011 12.4453 43.0612 14.6452 43.0612 17.3589Z" fill="#C7C7C7"/>
<path d="M36.0998 9.26562H24.4637L23.9473 12.4488H36.7869L36.0998 9.26562ZM30.3663 11.5555C29.9876 11.5555 29.6807 11.2445 29.6807 10.8572C29.6807 10.4715 29.9891 10.159 30.3663 10.159C30.7436 10.159 31.052 10.4731 31.052 10.8572C31.052 11.2414 30.7466 11.5555 30.3663 11.5555Z" fill="#C7C7C7"/>
<path d="M36.7869 12.4463H23.9473L24.0625 11.7344H36.6327L36.7869 12.4463Z" fill="#A6A6A6"/>
<path d="M22.848 30.7432C22.848 30.7432 22.1804 36.1858 21.0831 37.41C19.7657 38.8796 18.8107 38.6647 18.2792 39.4209C17.7478 38.6616 16.7912 38.8781 15.4739 37.4085C14.3766 36.1843 13.7104 30.7417 13.7104 30.7417C16.6011 29.3132 18.2792 27.7109 18.2792 27.7109C18.3301 27.7612 20.0023 29.3346 22.848 30.7417V30.7432Z" fill="#7B55D3"/>
<path opacity="0.1" d="M18.2792 27.714V39.4209C17.7478 38.6616 16.7912 38.8781 15.4739 37.4085C14.3766 36.1843 13.7104 30.7417 13.7104 30.7417C16.6011 29.3132 18.2792 27.7109 18.2792 27.7109V27.714Z" fill="black"/>
<path d="M14.4185 31.1769C14.4185 31.1769 14.9829 35.7733 15.908 36.8085C17.0217 38.051 17.8286 37.868 18.2777 38.5083C18.7268 37.868 19.5352 38.051 20.6474 36.8085C21.5741 35.7733 22.1369 31.1769 22.1369 31.1769C19.6954 29.9694 18.2777 28.6172 18.2777 28.6172C18.2777 28.6172 16.8586 29.9694 14.417 31.1769H14.4185Z" fill="#7B55D3"/>
<path opacity="0.2" d="M22.1386 31.1769C22.1386 31.1769 21.5742 35.7733 20.6476 36.8085C19.5353 38.0495 18.7284 37.8696 18.2778 38.5068V28.6172C18.3212 28.6583 19.7329 29.9877 22.1371 31.1769H22.1386Z" fill="white"/>
<path d="M17.9437 35.4119L16.6548 34.0459L17.1323 33.5779L17.8434 34.331L19.3748 31.9375L19.9302 32.3064L17.9437 35.4119Z" fill="white"/>
<path d="M50.8213 31.7266H51.459V6.34771H50.8213V31.7266Z" fill="#DBDBDB"/>
<path d="M50.6763 4.99795H51.6029L51.4173 2.46875H50.8634L50.6763 4.99795Z" fill="#DBDBDB"/>
<path d="M53.2894 35.3189C51.5768 35.3189 50.6816 33.9621 50.6816 32.6236V29.6797H51.6128V32.6236C51.6128 33.273 51.9661 34.3722 53.2909 34.3722C54.463 34.3722 54.8433 33.1831 54.8433 32.6083V30.9847H55.7744V32.6083C55.7744 33.0519 55.6307 33.7304 55.2265 34.3051C54.7609 34.9683 54.0918 35.3204 53.2924 35.3204L53.2894 35.3189Z" fill="#263238"/>
<path d="M31.6875 17.0179C31.6875 17.0179 34.6261 15.6672 36.4479 15.716C38.2667 15.7693 41.5781 17.0179 41.5781 17.0179C41.5781 17.0179 44.587 15.8196 46.4508 15.7708C48.3145 15.7175 51.1408 17.0179 51.1408 17.0179C51.1408 17.0179 53.9671 15.716 55.8309 15.7708C57.6946 15.8196 60.699 17.0179 60.699 17.0179C60.699 17.0179 64.0104 15.7708 65.8337 15.716C67.6555 15.6656 70.5941 17.0179 70.5941 17.0179C67.5702 10.8756 60.4116 4.6875 51.1408 4.6875C41.87 4.6875 34.7084 10.8756 31.6875 17.0179Z" fill="#7B55D3"/>
<path opacity="0.4" d="M31.6875 17.0179C31.6875 17.0179 34.6261 15.6672 36.4479 15.716C38.2667 15.7693 41.5781 17.0179 41.5781 17.0179C41.5781 17.0179 44.587 15.8196 46.4508 15.7708C48.3145 15.7175 51.1408 17.0179 51.1408 17.0179C51.1408 17.0179 53.9671 15.716 55.8309 15.7708C57.6946 15.8196 60.699 17.0179 60.699 17.0179C60.699 17.0179 64.0104 15.7708 65.8337 15.716C67.6555 15.6656 70.5941 17.0179 70.5941 17.0179C67.5702 10.8756 60.4116 4.6875 51.1408 4.6875C41.87 4.6875 34.7084 10.8756 31.6875 17.0179Z" fill="white"/>
<g opacity="0.1">
<path d="M31.6875 17.0164C32.3252 16.2511 32.9749 15.4949 33.6426 14.757C34.3057 14.0146 34.9809 13.2843 35.677 12.5754C37.0677 11.1591 38.5033 9.77638 40.0991 8.61621C40.8925 8.03232 41.7263 7.50178 42.6334 7.13894C43.5406 6.75476 44.4717 6.43309 45.4074 6.12056C46.343 5.81413 47.2921 5.54276 48.2486 5.30646C49.2037 5.06253 50.1678 4.85367 51.1408 4.6875C49.1798 4.91618 47.2442 5.35677 45.3475 5.92389C44.3984 6.20593 43.4628 6.5398 42.5451 6.91331C41.6125 7.2792 40.7532 7.81431 39.9479 8.39973C39.144 8.99277 38.385 9.64222 37.653 10.3206C36.9225 10.9991 36.2114 11.7003 35.5347 12.4336C34.174 13.8911 32.8836 15.4171 31.689 17.0164H31.6875Z" fill="black"/>
<path d="M41.583 17.0179C41.7582 16.3593 41.9528 15.7068 42.1758 15.065C42.3914 14.4201 42.6279 13.7844 42.8914 13.1608C43.4243 11.9214 44.0171 10.6835 44.8375 9.6346C45.6668 8.5842 46.7072 7.71522 47.7746 6.90569C48.3105 6.50017 48.8629 6.11751 49.4257 5.7501C49.9856 5.37659 50.559 5.02595 51.1413 4.6875C49.9272 5.26835 48.7656 5.96201 47.6578 6.73952C46.5545 7.5216 45.5051 8.40126 44.6339 9.4669C44.4213 9.73522 44.2192 10.0203 44.0501 10.3176C43.8689 10.6088 43.7058 10.9091 43.5456 11.2125C43.2357 11.8223 42.9468 12.4428 42.7043 13.0831C42.2193 14.3606 41.827 15.6748 41.5815 17.0179H41.583Z" fill="black"/>
<path d="M51.141 17.0179C51.1949 15.9904 51.2203 14.9628 51.2413 13.9353C51.2622 12.9078 51.2607 11.8802 51.2712 10.8527C51.2607 9.82517 51.2622 8.79763 51.2413 7.7701L51.2053 6.2288C51.1829 5.71503 51.1709 5.20127 51.141 4.6875C51.111 5.20127 51.0991 5.71503 51.0766 6.2288L51.0407 7.7701C51.0197 8.79763 51.0212 9.82517 51.0107 10.8527C51.0212 11.8802 51.0197 12.9078 51.0407 13.9353C51.0616 14.9628 51.0871 15.9904 51.141 17.0179Z" fill="black"/>
<path d="M70.5944 17.0164C69.3998 15.4171 68.1094 13.8911 66.7486 12.4336C66.072 11.7003 65.3609 11.0006 64.6304 10.3206C63.8984 9.64222 63.1394 8.99277 62.3355 8.39973C61.5301 7.81279 60.6709 7.27768 59.7383 6.91331C58.8191 6.53828 57.885 6.20593 56.9359 5.92389C55.0392 5.35677 53.1036 4.91618 51.1426 4.6875C52.1156 4.85367 53.0797 5.06101 54.0348 5.30646C54.9913 5.54276 55.9404 5.81413 56.876 6.12056C57.8101 6.43309 58.7413 6.75476 59.6499 7.13894C60.5586 7.50178 61.3909 8.03232 62.1843 8.61621C63.7801 9.77638 65.2157 11.1607 66.6064 12.5754C67.3025 13.2843 67.9777 14.0146 68.6408 14.757C69.3085 15.4949 69.9582 16.2511 70.5959 17.0164H70.5944Z" fill="black"/>
<path d="M60.6984 17.0179C60.4529 15.6748 60.0607 14.3606 59.5757 13.0831C59.3332 12.4428 59.0442 11.8223 58.7344 11.2125C58.5742 10.9106 58.411 10.6088 58.2299 10.3176C58.0592 10.0203 57.8571 9.73674 57.6461 9.4669C56.7763 8.40126 55.7254 7.5216 54.6222 6.73952C53.5144 5.96201 52.3527 5.26835 51.1387 4.6875C51.721 5.02595 52.2943 5.37659 52.8542 5.7501C53.4171 6.11751 53.971 6.49864 54.5054 6.90569C55.5727 7.71522 56.6131 8.5842 57.4425 9.6346C58.2628 10.6835 58.8556 11.9214 59.3885 13.1608C59.652 13.7844 59.8885 14.4216 60.1041 15.065C60.3272 15.7068 60.5218 16.3593 60.6969 17.0179H60.6984Z" fill="black"/>
</g>
<path opacity="0.1" d="M70.5924 17.0126C70.5041 16.973 67.6269 15.6649 65.8335 15.7137C64.0102 15.7671 60.6988 17.0141 60.6988 17.0141C60.6988 17.0141 57.6929 15.8174 55.8307 15.7671C53.9669 15.7122 51.1406 17.0141 51.1406 17.0141C51.1406 17.0141 48.3143 15.7122 46.4506 15.7671C44.7036 15.8128 41.9491 16.8693 41.6123 17.0004C41.9252 16.848 44.6751 15.5354 46.3607 15.3707C48.1526 15.1969 51.1406 16.415 51.1406 16.415C51.1406 16.415 53.8037 15.0963 55.9205 14.9484C58.0357 14.799 60.3156 16.0674 60.4818 15.979C60.6465 15.8921 63.0686 14.0398 64.6509 13.9544C68.308 13.7547 63.2302 8.01332 58.6465 6.10156C64.2257 8.27859 68.4487 12.6555 70.5924 17.0096V17.0126Z" fill="black"/>
<g opacity="0.2">
<path d="M40.9839 8.7001C42.0318 8.36776 43.2503 8.50649 44.1844 9.098C43.1336 8.91659 42.0467 8.787 40.9839 8.7001Z" fill="white"/>
<path d="M61.2967 8.7001C60.2324 8.78853 59.1471 8.91659 58.0962 9.098C59.0318 8.50649 60.2489 8.36776 61.2967 8.7001Z" fill="white"/>
<path d="M46.0327 9.42382C47.4384 8.8506 49.094 8.84602 50.4982 9.42382C49.0042 9.26527 47.5267 9.2668 46.0327 9.42382Z" fill="white"/>
<path d="M56.4811 9.42382C54.9871 9.2668 53.5081 9.26527 52.0156 9.42382C53.4198 8.84602 55.077 8.8506 56.4811 9.42382Z" fill="white"/>
</g>
<path d="M69.1165 89.6141H44.1777V40.9297H77.5733V80.9088" fill="white"/>
<path d="M77.5679 80.911C77.5679 80.911 77.5679 80.8472 77.5679 80.7237C77.5679 80.6003 77.5679 80.4131 77.5679 80.169C77.5679 79.6794 77.5679 78.9569 77.5679 78.0138C77.5679 76.1263 77.5679 73.3637 77.5584 69.8563C77.5584 62.8401 77.5584 52.845 77.5461 40.9305L77.5774 40.9624H44.1819L44.2173 40.9263V40.9693C44.2173 59.6836 44.2173 76.7753 44.2091 89.6108L44.1819 89.583L62.4137 89.5955L67.3857 89.6024L62.4137 89.6108L44.1819 89.6219H44.156V89.5955C44.156 76.7601 44.156 59.6684 44.1465 40.9541V40.875H44.1819H77.5774H77.6087V40.9069C77.6087 52.8214 77.5992 62.8193 77.5951 69.8327C77.5951 73.3401 77.5951 76.1027 77.587 77.9902C77.587 78.9333 77.587 79.6545 77.587 80.1454C77.587 80.3881 77.587 80.574 77.587 80.7002C77.587 80.8264 77.5679 80.911 77.5679 80.911Z" fill="#263238"/>
<path d="M60.8763 43.9531H46.29V51.9609H60.8763V43.9531Z" fill="#7B55D3"/>
<path d="M74.9132 45.8017C74.9132 45.8225 72.2903 45.8391 69.0574 45.8391C65.8245 45.8391 63.2017 45.8225 63.2017 45.8017C63.2017 45.7809 65.8231 45.7656 69.0574 45.7656C72.2917 45.7656 74.9132 45.7823 74.9132 45.8017Z" fill="#263238"/>
<path d="M74.9132 47.2392C74.9132 47.2586 72.2903 47.2752 69.0574 47.2752C65.8245 47.2752 63.2017 47.2586 63.2017 47.2392C63.2017 47.2198 65.8231 47.2031 69.0574 47.2031C72.2917 47.2031 74.9132 47.2198 74.9132 47.2392Z" fill="#263238"/>
<path d="M74.9132 48.6767C74.9132 48.6961 72.2903 48.7127 69.0574 48.7127C65.8245 48.7127 63.2017 48.6961 63.2017 48.6767C63.2017 48.6573 65.8231 48.6406 69.0574 48.6406C72.2917 48.6406 74.9132 48.6559 74.9132 48.6767Z" fill="#263238"/>
<path d="M70.252 50.1064C70.252 50.1272 68.6723 50.1424 66.7249 50.1424C64.7776 50.1424 63.1992 50.1272 63.1992 50.1064C63.1992 50.0856 64.7776 50.0703 66.7249 50.0703C68.6723 50.0703 70.252 50.087 70.252 50.1064Z" fill="#263238"/>
<path d="M75.3596 53.5793C75.3596 53.5987 68.8869 53.6153 60.9054 53.6153C52.9238 53.6153 46.4512 53.5987 46.4512 53.5793C46.4512 53.5599 52.9184 53.5391 60.9054 53.5391C68.8924 53.5391 75.3596 53.5599 75.3596 53.5793Z" fill="#263238"/>
<path d="M75.3601 54.4657C75.3601 54.4852 68.9596 54.5018 61.0612 54.5018C53.1627 54.5018 46.7622 54.4852 46.7622 54.4657C46.7622 54.4463 53.1627 54.4297 61.0612 54.4297C68.9596 54.4297 75.3601 54.4463 75.3601 54.4657Z" fill="#263238"/>
<path d="M75.3596 55.8906H46.4512V57.5992H75.3596V55.8906Z" fill="#E0E0E0"/>
<path d="M75.0476 71.5469H46.1392V73.2555H75.0476V71.5469Z" fill="#E0E0E0"/>
<path d="M57.9802 63.1328H46.4512V64.8414H57.9802V63.1328Z" fill="#E0E0E0"/>
<path d="M75.0495 63.1328H60.6348V64.8414H75.0495V63.1328Z" fill="#E0E0E0"/>
<path d="M63.1544 59.1078C63.1544 59.1272 59.4449 59.1438 54.8692 59.1438C50.2935 59.1438 46.584 59.1272 46.584 59.1078C46.584 59.0883 50.2922 59.0703 54.8692 59.0703C59.4462 59.0703 63.1544 59.0842 63.1544 59.1078Z" fill="#263238"/>
<path d="M75.1988 60.4501C75.1988 60.4695 68.786 60.4862 60.8767 60.4862C52.9673 60.4862 46.5532 60.4695 46.5532 60.4501C46.5532 60.4307 52.9646 60.4141 60.8767 60.4141C68.7888 60.4141 75.1988 60.4293 75.1988 60.4501Z" fill="#263238"/>
<path d="M75.1988 61.7236C75.1988 61.743 68.786 61.7596 60.8767 61.7596C52.9673 61.7596 46.5532 61.743 46.5532 61.7236C46.5532 61.7041 52.9646 61.6875 60.8767 61.6875C68.7888 61.6875 75.1988 61.7097 75.1988 61.7236Z" fill="#263238"/>
<path d="M57.8799 65.8798C57.8799 65.8992 55.3006 65.9159 52.1208 65.9159C48.941 65.9159 46.3604 65.8992 46.3604 65.8798C46.3604 65.8604 48.9382 65.8438 52.1208 65.8438C55.3033 65.8438 57.8799 65.8646 57.8799 65.8798Z" fill="#263238"/>
<path d="M57.8801 67.2001C57.8801 67.2195 55.3444 67.2362 52.2164 67.2362C49.0883 67.2362 46.5513 67.2195 46.5513 67.2001C46.5513 67.1807 49.0869 67.1641 52.2164 67.1641C55.3458 67.1641 57.8801 67.1793 57.8801 67.2001Z" fill="#263238"/>
<path d="M57.8347 68.5282C57.8347 68.549 55.2758 68.5643 52.1151 68.5643C48.9543 68.5643 46.3955 68.549 46.3955 68.5282C46.3955 68.5074 48.953 68.4922 52.1151 68.4922C55.2772 68.4922 57.8347 68.513 57.8347 68.5282Z" fill="#263238"/>
<path d="M57.8347 69.8251C57.8347 69.8445 55.2758 69.8612 52.1151 69.8612C48.9543 69.8612 46.3955 69.8445 46.3955 69.8251C46.3955 69.8057 48.953 69.7891 52.1151 69.7891C55.2772 69.7891 57.8347 69.8043 57.8347 69.8251Z" fill="#263238"/>
<path d="M74.8263 66.1923C74.8263 66.2131 72.1558 66.2284 68.8616 66.2284C65.5674 66.2284 62.8955 66.2131 62.8955 66.1923C62.8955 66.1715 65.566 66.1562 68.8616 66.1562C72.1571 66.1562 74.8263 66.1729 74.8263 66.1923Z" fill="#263238"/>
<path d="M61.9791 66.6129C61.9685 66.5334 61.9635 66.4532 61.9641 66.373C61.9641 66.226 61.9518 66.0207 61.9477 65.7766L61.9791 65.8071H61.162L61.1974 65.7711V66.2107C61.1974 66.3494 61.1974 66.4811 61.1974 66.6046L61.1674 66.5741C61.4071 66.5741 61.6073 66.5838 61.753 66.5893C61.8318 66.5897 61.9104 66.5948 61.9886 66.6046C61.917 66.6157 61.8445 66.6208 61.7721 66.6198C61.6291 66.6198 61.4194 66.6323 61.1674 66.6365H61.1361V66.6046C61.1361 66.4811 61.1361 66.3494 61.1361 66.2107V65.7711C61.1048 65.803 61.1797 65.7267 61.1729 65.735H61.99H62.0213V65.7669C62.0213 66.0249 62.0118 66.2371 62.0063 66.3827C62.0037 66.4601 61.9946 66.5371 61.9791 66.6129Z" fill="#263238"/>
<path d="M74.8263 67.8017C74.8263 67.8225 72.1558 67.8377 68.8616 67.8377C65.5674 67.8377 62.8955 67.8225 62.8955 67.8017C62.8955 67.7809 65.566 67.7656 68.8616 67.7656C72.1571 67.7656 74.8263 67.7823 74.8263 67.8017Z" fill="#263238"/>
<path d="M61.9791 68.2167C61.9685 68.1372 61.9635 68.057 61.9641 67.9768C61.9641 67.8284 61.9518 67.6245 61.9477 67.3804L61.9791 67.411H61.162L61.1974 67.3749V67.8201C61.1974 67.9597 61.1974 68.0914 61.1974 68.2153L61.1674 68.1834C61.4071 68.1834 61.6073 68.1945 61.753 68.2001C61.8318 68.2005 61.9104 68.2056 61.9886 68.2153C61.917 68.2264 61.8445 68.2315 61.7721 68.2306C61.6291 68.2306 61.4194 68.2431 61.1674 68.2459H61.1361V68.214C61.1361 68.091 61.1361 67.9592 61.1361 67.8187V67.3804C61.1048 67.4123 61.1797 67.3361 61.1729 67.3444H61.99H62.0213V67.3763C62.0213 67.6342 62.0118 67.8464 62.0063 67.9921C62.0034 68.0676 61.9943 68.1427 61.9791 68.2167Z" fill="#263238"/>
<path d="M74.8263 69.4111C74.8263 69.4319 72.1558 69.4471 68.8616 69.4471C65.5674 69.4471 62.8955 69.4319 62.8955 69.4111C62.8955 69.3903 65.566 69.375 68.8616 69.375C72.1571 69.375 74.8263 69.3916 74.8263 69.4111Z" fill="#263238"/>
<path d="M61.9787 69.826C61.9683 69.7464 61.9633 69.6663 61.9637 69.586C61.9637 69.4376 61.9515 69.2324 61.9474 68.9897L61.9787 69.0202H61.1616L61.197 68.9841V69.4224C61.197 69.562 61.197 69.6938 61.197 69.8177L61.1671 69.7858C61.4067 69.7858 61.6069 69.7968 61.7526 69.8024C61.8314 69.8019 61.9101 69.807 61.9882 69.8177C61.9166 69.8287 61.8442 69.8338 61.7717 69.8329C61.6287 69.8329 61.419 69.8454 61.1671 69.8482H61.1357V69.8163C61.1357 69.6933 61.1357 69.5615 61.1357 69.421V68.9828L61.1725 68.9453H61.9896H62.0209V68.9772C62.0209 69.2338 62.0114 69.4474 62.0059 69.593C62.0035 69.6713 61.9944 69.7493 61.9787 69.826Z" fill="#263238"/>
<path d="M74.8256 82.6995C74.8256 82.6995 74.8256 82.6523 74.8256 82.5608C74.8256 82.4693 74.8256 82.3361 74.8256 82.1614C74.8256 81.8077 74.8256 81.2877 74.8256 80.6109C74.8256 79.2587 74.8188 77.2824 74.8133 74.7861L74.8351 74.8083L46.3734 74.8221L46.4088 74.7861C46.4088 77.5085 46.4088 80.1629 46.4088 82.6995L46.3748 82.6648L66.7038 82.6801L72.6753 82.6898H74.2809H74.6976H74.289H72.6903L66.7283 82.6995L46.3748 82.7161H46.3394V74.75H46.3761L74.8378 74.7639H74.8433V74.7861C74.8433 77.2893 74.8351 79.2698 74.8324 80.6261C74.8324 81.3002 74.8324 81.8188 74.8324 82.1711C74.8324 82.3445 74.8324 82.4762 74.8324 82.5664C74.8324 82.6565 74.8256 82.6995 74.8256 82.6995Z" fill="#263238"/>
<path d="M74.8269 76.7782C74.8269 76.7977 68.4727 76.8143 60.6355 76.8143C52.7983 76.8143 46.4414 76.7977 46.4414 76.7782C46.4414 76.7588 52.7956 76.7422 60.6355 76.7422C68.4754 76.7422 74.8269 76.7574 74.8269 76.7782Z" fill="#263238"/>
<path d="M74.8269 78.7392C74.8269 78.7586 68.4727 78.7752 60.6355 78.7752C52.7983 78.7752 46.4414 78.7586 46.4414 78.7392C46.4414 78.7198 52.7956 78.7031 60.6355 78.7031C68.4754 78.7031 74.8269 78.7184 74.8269 78.7392Z" fill="#263238"/>
<path d="M74.8269 80.7236C74.8269 80.7444 68.4727 80.7596 60.6355 80.7596C52.7983 80.7596 46.4414 80.7444 46.4414 80.7236C46.4414 80.7028 52.7956 80.6875 60.6355 80.6875C68.4754 80.6875 74.8269 80.7097 74.8269 80.7236Z" fill="#263238"/>
<path d="M49.6697 82.7623C49.6506 82.7623 49.6343 80.9718 49.6343 78.764C49.6343 76.5561 49.6506 74.7656 49.6697 74.7656C49.6887 74.7656 49.7065 76.5561 49.7065 78.764C49.7065 80.9718 49.6901 82.7623 49.6697 82.7623Z" fill="#263238"/>
<path d="M59.2961 82.5267C59.2757 82.5267 59.2607 80.8167 59.2607 78.7087C59.2607 76.6006 59.2757 74.8906 59.2961 74.8906C59.3166 74.8906 59.3316 76.5992 59.3316 78.7087C59.3316 80.8181 59.3193 82.5267 59.2961 82.5267Z" fill="#263238"/>
<path d="M69.4392 82.8838C69.4188 82.8838 69.4038 81.1197 69.4038 78.9451C69.4038 76.7705 69.4188 75.0078 69.4392 75.0078C69.4596 75.0078 69.4746 76.7705 69.4746 78.9451C69.4746 81.1197 69.4583 82.8838 69.4392 82.8838Z" fill="#263238"/>
<path d="M69.1162 89.6116L77.573 80.9062H69.1162V89.6116Z" fill="#E0E0E0"/>
<path d="M69.1168 89.6136C69.1168 89.3224 69.1045 86.0147 69.0854 80.9083V80.875H69.1168H75.0828H77.6566L77.5981 80.936L71.5408 87.1395L69.1168 89.6136L71.5449 87.0979L77.5491 80.8875L77.5736 80.9471H75.0828H69.1168L69.1495 80.9152C69.1249 86.0147 69.1249 89.3168 69.1168 89.6136Z" fill="#263238"/>
<path d="M68.6976 84.4657C68.6976 84.4852 63.7284 84.5018 57.5975 84.5018C51.4667 84.5018 46.4961 84.4852 46.4961 84.4657C46.4961 84.4463 51.4653 84.4297 57.5975 84.4297C63.7297 84.4297 68.6976 84.4519 68.6976 84.4657Z" fill="#263238"/>
<path d="M68.6976 85.6142C68.6976 85.6336 63.7284 85.6502 57.5975 85.6502C51.4667 85.6502 46.4961 85.6336 46.4961 85.6142C46.4961 85.5948 51.4653 85.5781 57.5975 85.5781C63.7297 85.5781 68.6976 85.5934 68.6976 85.6142Z" fill="#263238"/>
<path d="M56.5949 86.7626C56.5949 86.782 54.333 86.7987 51.544 86.7987C48.755 86.7987 46.4917 86.782 46.4917 86.7626C46.4917 86.7432 48.7537 86.7266 51.544 86.7266C54.3343 86.7266 56.5949 86.7418 56.5949 86.7626Z" fill="#263238"/>
<path d="M49.6383 46.8033H48.3623V46.1875H51.6306V46.8033H50.3546V50.1082H49.6397L49.6383 46.8033Z" fill="white"/>
<path d="M54.472 49.2012H52.5464L52.1678 50.1082H51.4297L53.1633 46.1875H53.8714L55.6091 50.1082H54.8614L54.472 49.2012ZM54.235 48.6298L53.5092 46.9156L52.7888 48.6298H54.235Z" fill="white"/>
<path d="M58.3287 50.1082L57.2842 48.6187L56.2492 50.1082H55.4321L56.8688 48.1083L55.507 46.1875H56.3241L57.3087 47.5827L58.2797 46.1875H59.0545L57.7063 48.0806L59.1539 50.1082H58.3287Z" fill="white"/>
<path d="M75.6259 42.622C75.6259 42.6414 69.0606 42.6581 60.9633 42.6581C52.866 42.6581 46.3008 42.6414 46.3008 42.622C46.3008 42.6026 52.8647 42.5859 60.9633 42.5859C69.062 42.5859 75.6259 42.6026 75.6259 42.622Z" fill="#E0E0E0"/>
<path d="M61.0641 43.1689C61.0641 43.1883 57.759 43.2049 53.6818 43.2049C49.6045 43.2049 46.3008 43.1883 46.3008 43.1689C46.3008 43.1495 49.6045 43.1328 53.6818 43.1328C57.759 43.1328 61.0641 43.1481 61.0641 43.1689Z" fill="#E0E0E0"/>
<path d="M77.6426 38.0703H43.9406C43.1223 38.0703 42.459 38.7459 42.459 39.5792V89.5604C42.459 90.3937 43.1223 91.0693 43.9406 91.0693H77.6426C78.4609 91.0693 79.1242 90.3937 79.1242 89.5604V39.5792C79.1242 38.7459 78.4609 38.0703 77.6426 38.0703Z" fill="#E0E0E0"/>
<path d="M77.6424 91.0679L77.7568 91.061C77.8685 91.0505 77.9789 91.0286 78.0863 90.9958C78.2625 90.9371 78.4267 90.8464 78.5711 90.7281C78.7691 90.5622 78.922 90.3473 79.0151 90.104C79.0719 89.9584 79.1046 89.8043 79.1118 89.6478C79.1199 89.4827 79.1118 89.308 79.1118 89.1249C79.1118 88.7588 79.1118 88.3594 79.1118 87.9253C79.1118 87.0585 79.1118 86.0572 79.1118 84.931C79.1118 80.4237 79.105 73.9041 79.1009 65.8478C79.1009 61.8259 79.1009 57.4073 79.1009 52.6726C79.1009 50.3057 79.1009 47.8588 79.1009 45.3319V41.4903C79.1009 40.8431 79.1009 40.1904 79.1009 39.5321C79.091 39.2064 78.975 38.8933 78.7711 38.6421C78.5671 38.391 78.2869 38.2162 77.9747 38.1452C77.8166 38.1125 77.6551 38.0999 77.4939 38.1078H43.9445C43.5731 38.1073 43.2158 38.2523 42.9466 38.5128C42.6773 38.7733 42.5168 39.1294 42.4983 39.5071C42.4983 40.2671 42.4983 41.0326 42.4983 41.7899V55.1537C42.4983 60.9522 42.4983 66.544 42.4983 71.8709C42.4983 77.1979 42.4983 82.2585 42.4983 86.9961C42.4983 87.5878 42.4983 88.1749 42.4983 88.7574C42.4983 89.0472 42.4983 89.3399 42.4983 89.6256C42.5088 89.9086 42.6001 90.1823 42.7611 90.4133C42.9202 90.6421 43.1391 90.8208 43.393 90.9292C43.5198 90.9806 43.6525 91.0151 43.7879 91.0318C43.9241 91.0443 44.0603 91.0416 44.1965 91.0416H45.8306H52.0405L70.7762 91.0527L75.8707 91.0596H77.1957C77.4939 91.0596 77.6465 91.0596 77.6465 91.0596H77.1957H75.8707L70.7762 91.0665L52.0405 91.079H44.191C44.0548 91.079 43.9186 91.079 43.7743 91.0693C43.6341 91.0519 43.4968 91.016 43.3658 90.9625C43.1015 90.8506 42.8735 90.665 42.708 90.4272C42.5414 90.1865 42.4468 89.9018 42.4356 89.6075C42.4288 89.3177 42.4356 89.0292 42.4356 88.738V86.9767C42.4356 82.2391 42.4356 77.1771 42.4356 71.8515C42.4356 66.526 42.4356 60.9328 42.4356 55.1343C42.4356 52.2357 42.4356 49.2886 42.4356 46.293V41.7885C42.4356 41.0285 42.4356 40.2629 42.4356 39.5016C42.4551 39.1067 42.6224 38.7345 42.903 38.4613C43.1836 38.1882 43.5563 38.0348 43.9445 38.0329H77.4831C77.6493 38.0263 77.8157 38.0398 77.9787 38.0731C78.3056 38.1479 78.5987 38.3316 78.8115 38.5951C79.0244 38.8586 79.1449 39.1868 79.154 39.5279C79.154 40.1871 79.154 40.8408 79.154 41.4889C79.154 42.7833 79.154 44.0629 79.154 45.3278C79.154 47.8509 79.154 50.2978 79.154 52.6684C79.154 57.406 79.154 61.8217 79.154 65.8436C79.154 73.8999 79.1445 80.4196 79.1417 84.9269C79.1417 86.053 79.1417 87.0543 79.1417 87.9211C79.1417 88.3547 79.1417 88.7546 79.1417 89.1208C79.1417 89.3038 79.1417 89.4786 79.1417 89.645C79.133 89.8029 79.0994 89.9583 79.0423 90.1054C78.9477 90.3505 78.7924 90.5665 78.5916 90.7323C78.3595 90.9258 78.0738 91.0403 77.7745 91.0596L77.6424 91.0679Z" fill="#263238"/>
<g opacity="0.3">
<path d="M45.6572 89.871H70.1888L76.0922 83.3527V79.8828L45.6572 84.7257V89.871Z" fill="black"/>
</g>
<g opacity="0.3">
<path d="M70.0436 38.1797L70.7422 40.2919V41.3265H69.9551L70.0436 38.1797Z" fill="black"/>
</g>
<path d="M69.0325 88.8798H44.0938V40.1953H77.4879V80.1744" fill="white"/>
<path d="M77.4882 80.1756C77.4882 80.1756 77.4882 80.1118 77.4882 79.9883C77.4882 79.8649 77.4882 79.6777 77.4882 79.4336C77.4882 78.944 77.4882 78.2215 77.4882 77.2784C77.4882 75.3909 77.4882 72.6283 77.48 69.1209C77.48 62.1047 77.4718 52.1096 77.4664 40.1951L77.4977 40.227H44.1035L44.1389 40.1909V40.2339C44.1389 58.9482 44.1389 76.0399 44.1308 88.8754L44.1035 88.8476L62.3354 88.8601H67.306H68.601H69.0423C69.0423 88.8601 68.8925 88.8601 68.601 88.8601H67.306L62.3354 88.8684L44.094 88.9031H44.0668V88.8768C44.0668 76.0413 44.0668 58.9496 44.0586 40.2353V40.1562H44.094H77.4882H77.5195V40.1881C77.5195 52.1027 77.51 62.1006 77.5072 69.114C77.5072 72.6213 77.5004 75.384 77.4991 77.2715C77.4991 78.2146 77.4991 78.9357 77.4991 79.4267C77.4991 79.6694 77.4991 79.8552 77.4991 79.9814C77.4991 80.1076 77.4882 80.1756 77.4882 80.1756Z" fill="#263238"/>
<path d="M60.7933 43.2188H46.207V51.2265H60.7933V43.2188Z" fill="#7B55D3"/>
<path d="M74.8297 45.0673C74.8297 45.0881 72.2068 45.1034 68.9739 45.1034C65.741 45.1034 63.1182 45.0881 63.1182 45.0673C63.1182 45.0465 65.741 45.0312 68.9739 45.0312C72.2068 45.0312 74.8297 45.0479 74.8297 45.0673Z" fill="#263238"/>
<path d="M74.8297 46.497C74.8297 46.5164 72.2068 46.5331 68.9739 46.5331C65.741 46.5331 63.1182 46.5164 63.1182 46.497C63.1182 46.4776 65.741 46.4609 68.9739 46.4609C72.2068 46.4609 74.8297 46.4776 74.8297 46.497Z" fill="#263238"/>
<path d="M74.8297 47.9345C74.8297 47.9539 72.2068 47.9706 68.9739 47.9706C65.741 47.9706 63.1182 47.9539 63.1182 47.9345C63.1182 47.9151 65.741 47.8984 68.9739 47.8984C72.2068 47.8984 74.8297 47.9137 74.8297 47.9345Z" fill="#263238"/>
<path d="M70.167 49.3798C70.167 49.4006 68.5887 49.4159 66.6413 49.4159C64.694 49.4159 63.1143 49.4006 63.1143 49.3798C63.1143 49.359 64.694 49.3438 66.6413 49.3438C68.5887 49.3438 70.167 49.3562 70.167 49.3798Z" fill="#263238"/>
<path d="M75.2756 52.8486C75.2756 52.868 68.8043 52.8846 60.8227 52.8846C52.8412 52.8846 46.3672 52.868 46.3672 52.8486C46.3672 52.8291 52.8385 52.8125 60.8227 52.8125C68.807 52.8125 75.2756 52.8264 75.2756 52.8486Z" fill="#263238"/>
<path d="M75.2756 53.7236C75.2756 53.743 68.8752 53.7596 60.9767 53.7596C53.0782 53.7596 46.6777 53.743 46.6777 53.7236C46.6777 53.7041 53.0782 53.6875 60.9767 53.6875C68.8752 53.6875 75.2756 53.7041 75.2756 53.7236Z" fill="#263238"/>
<path d="M75.2756 55.1562H46.3672V56.8649H75.2756V55.1562Z" fill="#E0E0E0"/>
<path d="M74.965 70.8125H46.0566V72.5211H74.965V70.8125Z" fill="#E0E0E0"/>
<path d="M57.8962 62.3984H46.3672V64.1071H57.8962V62.3984Z" fill="#E0E0E0"/>
<path d="M74.9645 62.3984H60.5498V64.1071H74.9645V62.3984Z" fill="#E0E0E0"/>
<path d="M63.0708 58.372C63.0708 58.3928 59.3613 58.4094 54.7856 58.4094C50.2099 58.4094 46.499 58.3928 46.499 58.372C46.499 58.3512 50.2086 58.3359 54.7856 58.3359C59.3626 58.3359 63.0708 58.3526 63.0708 58.372Z" fill="#263238"/>
<path d="M75.1152 59.7157C75.1152 59.7352 68.7024 59.7518 60.7931 59.7518C52.8837 59.7518 46.4683 59.7352 46.4683 59.7157C46.4683 59.6963 52.881 59.6797 60.7931 59.6797C68.7052 59.6797 75.1152 59.6949 75.1152 59.7157Z" fill="#263238"/>
<path d="M75.1152 60.9892C75.1152 61.0086 68.7024 61.0252 60.7931 61.0252C52.8837 61.0252 46.4683 61.0086 46.4683 60.9892C46.4683 60.9698 52.881 60.9531 60.7931 60.9531C68.7052 60.9531 75.1152 60.9698 75.1152 60.9892Z" fill="#263238"/>
<path d="M57.7972 65.1546C57.7972 65.174 55.218 65.1907 52.0368 65.1907C48.8556 65.1907 46.2764 65.174 46.2764 65.1546C46.2764 65.1352 48.8556 65.1172 52.0368 65.1172C55.218 65.1172 57.7972 65.1338 57.7972 65.1546Z" fill="#263238"/>
<path d="M57.7961 66.4657C57.7961 66.4852 55.2591 66.5018 52.1324 66.5018C49.0057 66.5018 46.4673 66.4852 46.4673 66.4657C46.4673 66.4463 49.003 66.4297 52.1324 66.4297C55.2618 66.4297 57.7961 66.4449 57.7961 66.4657Z" fill="#263238"/>
<path d="M57.7492 67.7939C57.7492 67.8147 55.1918 67.8299 52.0365 67.8299C48.8812 67.8299 46.3169 67.8147 46.3169 67.7939C46.3169 67.7731 48.8744 67.7578 52.0365 67.7578C55.1986 67.7578 57.7492 67.7745 57.7492 67.7939Z" fill="#263238"/>
<path d="M57.7492 69.0907C57.7492 69.1102 55.1918 69.1268 52.0365 69.1268C48.8812 69.1268 46.3169 69.1102 46.3169 69.0907C46.3169 69.0713 48.8744 69.0547 52.0365 69.0547C55.1986 69.0547 57.7492 69.0699 57.7492 69.0907Z" fill="#263238"/>
<path d="M74.7427 65.4657C74.7427 65.4866 72.0708 65.5018 68.7766 65.5018C65.4824 65.5018 62.8105 65.4866 62.8105 65.4657C62.8105 65.4449 65.481 65.4297 68.7766 65.4297C72.0722 65.4297 74.7427 65.4394 74.7427 65.4657Z" fill="#263238"/>
<path d="M61.8947 65.8838C61.8947 65.8838 61.8865 65.7909 61.8797 65.6439C61.8729 65.4969 61.8675 65.2916 61.8648 65.0475L61.8947 65.078H61.0776L61.113 65.042V65.2653C61.113 65.3388 61.113 65.4109 61.113 65.4802C61.113 65.6189 61.113 65.7576 61.113 65.8755L61.0817 65.845C61.3214 65.845 61.5229 65.8547 61.6673 65.8602C61.7461 65.8605 61.8247 65.8656 61.9029 65.8755C61.8317 65.8867 61.7597 65.8918 61.6877 65.8907C61.5447 65.8907 61.335 65.9032 61.0817 65.9074H61.0518V65.8838C61.0518 65.7599 61.0518 65.6282 61.0518 65.4885C61.0518 65.4192 61.0518 65.3499 61.0518 65.2736V65.0517L61.0872 65.0156H61.9042H61.9356V65.0475C61.9356 65.3055 61.926 65.5177 61.9192 65.6633C61.9179 65.7374 61.9097 65.8113 61.8947 65.8838Z" fill="#263238"/>
<path d="M74.7427 67.0673C74.7427 67.0881 72.0708 67.1034 68.7766 67.1034C65.4824 67.1034 62.8105 67.0881 62.8105 67.0673C62.8105 67.0465 65.481 67.0312 68.7766 67.0312C72.0722 67.0312 74.7427 67.0479 74.7427 67.0673Z" fill="#263238"/>
<path d="M61.8947 67.4808C61.8947 67.4808 61.8865 67.3879 61.8797 67.2409C61.8729 67.0939 61.8675 66.8886 61.8648 66.6446L61.8947 66.6751H61.0776C61.0695 66.6751 61.1444 66.6057 61.113 66.639V66.8609C61.113 66.9344 61.113 67.0079 61.113 67.0773C61.113 67.2159 61.113 67.3546 61.113 67.4725L61.0817 67.4406C61.3214 67.4406 61.5229 67.4517 61.6673 67.4573C61.7461 67.4576 61.8247 67.4627 61.9029 67.4725C61.8317 67.4838 61.7597 67.4889 61.6877 67.4878C61.5447 67.4878 61.335 67.5002 61.0817 67.503H61.0518V67.4711C61.0518 67.3482 61.0518 67.2164 61.0518 67.0759C61.0518 67.0065 61.0518 66.9372 61.0518 66.8595V66.6376L61.0872 66.6016H61.9042H61.9356V66.6335C61.9356 66.8914 61.926 67.1036 61.9192 67.2492C61.9186 67.3271 61.9104 67.4047 61.8947 67.4808Z" fill="#263238"/>
<path d="M74.7427 68.6689C74.7427 68.6897 72.0708 68.7049 68.7766 68.7049C65.4824 68.7049 62.8105 68.6897 62.8105 68.6689C62.8105 68.6481 65.481 68.6328 68.7766 68.6328C72.0722 68.6328 74.7427 68.6508 74.7427 68.6689Z" fill="#263238"/>
<path d="M61.8946 69.092C61.8946 69.092 61.8864 68.9991 61.8796 68.8521C61.8728 68.7051 61.8674 68.4985 61.8646 68.2544L61.8946 68.2863H61.0775L61.1129 68.2502V68.4721C61.1129 68.5456 61.1129 68.6177 61.1129 68.6885C61.1129 68.8272 61.1129 68.9658 61.1129 69.0837L61.0816 69.0518C61.3213 69.0518 61.5228 69.0629 61.6672 69.0685C61.746 69.0679 61.8247 69.073 61.9028 69.0837C61.8316 69.095 61.7596 69.1001 61.6876 69.099C61.5446 69.099 61.3349 69.1115 61.0816 69.1142H61.0516V69.0823C61.0516 68.9594 61.0516 68.8276 61.0516 68.6871C61.0516 68.6164 61.0516 68.5484 61.0516 68.4707V68.2488C61.0203 68.2807 61.0952 68.2045 61.0871 68.2114H61.9041H61.9355V68.2419C61.9355 68.4999 61.9259 68.7134 61.9191 68.8591C61.9186 68.9374 61.9104 69.0154 61.8946 69.092Z" fill="#263238"/>
<path d="M74.7427 81.9651C74.7427 81.9651 74.7427 81.918 74.7427 81.8264C74.7427 81.7349 74.7427 81.6018 74.7427 81.427C74.7427 81.0734 74.7427 80.5533 74.7427 79.8765C74.7427 78.5243 74.7359 76.548 74.7305 74.0517L74.7523 74.0739L46.2905 74.0877L46.326 74.0517V81.9651L46.2905 81.9305L66.6196 81.9457L72.5911 81.9554H74.1966H74.6134H74.7563H74.6202H74.2116H72.6129L66.6495 81.9651L46.296 81.9804H46.2456V81.9651C46.2456 79.4286 46.2456 76.7741 46.2456 74.0517V74.0156H46.2837L74.7455 74.0295H74.7672V74.0517C74.7672 76.555 74.7577 78.5354 74.755 79.8918C74.755 80.5658 74.755 81.0845 74.755 81.4367C74.755 81.6101 74.755 81.7418 74.755 81.832C74.755 81.9221 74.7427 81.9651 74.7427 81.9651Z" fill="#263238"/>
<path d="M74.7429 76.0425C74.7429 76.0619 68.3887 76.0785 60.5501 76.0785C52.7116 76.0785 46.3574 76.0619 46.3574 76.0425C46.3574 76.0231 52.7102 76.0078 60.5447 76.0078C68.3792 76.0078 74.7429 76.0217 74.7429 76.0425Z" fill="#263238"/>
<path d="M74.7429 78.0048C74.7429 78.0242 68.3887 78.0409 60.5501 78.0409C52.7116 78.0409 46.3574 78.0242 46.3574 78.0048C46.3574 77.9854 52.7102 77.9688 60.5501 77.9688C68.3901 77.9688 74.7429 77.984 74.7429 78.0048Z" fill="#263238"/>
<path d="M74.7429 79.9892C74.7429 80.01 68.3887 80.0252 60.5501 80.0252C52.7116 80.0252 46.3574 80.01 46.3574 79.9892C46.3574 79.9684 52.7102 79.9531 60.5501 79.9531C68.3901 79.9531 74.7429 79.9698 74.7429 79.9892Z" fill="#263238"/>
<path d="M49.5857 82.0279C49.5666 82.0279 49.5503 80.2375 49.5503 78.0296C49.5503 75.8217 49.5666 74.0312 49.5857 74.0312C49.6048 74.0312 49.6211 75.8217 49.6211 78.0296C49.6211 80.2375 49.6048 82.0279 49.5857 82.0279Z" fill="#263238"/>
<path d="M59.2122 81.7923C59.1931 81.7923 59.1768 80.0823 59.1768 77.9743C59.1768 75.8663 59.1931 74.1562 59.2122 74.1562C59.2312 74.1562 59.2476 75.8649 59.2476 77.9743C59.2476 80.0837 59.2326 81.7923 59.2122 81.7923Z" fill="#263238"/>
<path d="M69.3552 82.1494C69.3362 82.1494 69.3198 80.3853 69.3198 78.2107C69.3198 76.0361 69.3362 74.2734 69.3552 74.2734C69.3743 74.2734 69.3906 76.0361 69.3906 78.2107C69.3906 80.3853 69.3757 82.1494 69.3552 82.1494Z" fill="#263238"/>
<path d="M69.0332 88.8772L77.4887 80.1719H69.0332V88.8772Z" fill="#E0E0E0"/>
<path d="M69.0337 88.8793C69.0337 88.588 69.02 85.2803 69.001 80.1739V80.1406H69.0337H74.9984H77.5681L77.5095 80.2016L71.4563 86.4051L69.0337 88.8793L71.4604 86.3593L77.4646 80.149L77.4891 80.2086H74.9984H69.0337L69.0663 80.1767C69.0473 85.2803 69.035 88.588 69.0337 88.8793Z" fill="#263238"/>
<path d="M68.6151 83.7392C68.6151 83.7586 63.6445 83.7752 57.515 83.7752C51.3855 83.7752 46.4136 83.7586 46.4136 83.7392C46.4136 83.7198 51.3828 83.7031 57.515 83.7031C63.6472 83.7031 68.6151 83.7198 68.6151 83.7392Z" fill="#263238"/>
<path d="M68.6151 84.8798C68.6151 84.8992 63.6445 84.9159 57.515 84.9159C51.3855 84.9159 46.4136 84.8992 46.4136 84.8798C46.4136 84.8604 51.3828 84.8438 57.515 84.8438C63.6472 84.8438 68.6151 84.8576 68.6151 84.8798Z" fill="#263238"/>
<path d="M56.5168 86.0282C56.5168 86.0477 54.2548 86.0643 51.4645 86.0643C48.6742 86.0643 46.4136 86.0477 46.4136 86.0282C46.4136 86.0088 48.6742 85.9922 51.4645 85.9922C54.2548 85.9922 56.5168 86.0074 56.5168 86.0282Z" fill="#263238"/>
<path d="M49.5553 46.0689H48.2793V45.4531H51.5476V46.0689H50.2716V49.3779H49.5553V46.0689Z" fill="white"/>
<path d="M54.3899 48.4626H52.4643L52.0844 49.3738H51.3477L53.0799 45.4531H53.7839L55.5229 49.3738H54.774L54.3899 48.4626ZM54.153 47.8912L53.4271 46.184L52.7067 47.8982L54.153 47.8912Z" fill="white"/>
<path d="M58.2452 49.3738L57.1993 47.8843L56.1657 49.3738H55.3486L56.7785 47.3739L55.4263 45.4531H56.2338L57.2184 46.8483L58.1921 45.4531H58.9683L57.6201 47.3462L59.0691 49.3738H58.2452Z" fill="white"/>
<path d="M75.5413 41.8876C75.5413 41.907 68.976 41.9237 60.8788 41.9237C52.7815 41.9237 46.2148 41.907 46.2148 41.8876C46.2148 41.8682 52.7787 41.8516 60.8788 41.8516C68.9788 41.8516 75.5413 41.871 75.5413 41.8876Z" fill="#E0E0E0"/>
<path d="M60.9782 42.4345C60.9782 42.4539 57.6731 42.4706 53.5972 42.4706C49.5213 42.4706 46.2148 42.4539 46.2148 42.4345C46.2148 42.4151 49.5199 42.3984 53.5972 42.3984C57.6744 42.3984 60.9782 42.4137 60.9782 42.4345Z" fill="#E0E0E0"/>
<path d="M54.0085 36.7578H69.1817C69.4104 36.7578 69.6296 36.8503 69.7913 37.0149C69.9529 37.1796 70.0438 37.4029 70.0438 37.6357V41.7505H53.1465V37.6301C53.1479 37.3983 53.2394 37.1764 53.4009 37.013C53.5624 36.8495 53.7808 36.7578 54.0085 36.7578Z" fill="#263238"/>
<path d="M63.7459 34.875H59.4453L59.9478 38.6292H63.1876L63.7459 34.875Z" fill="#263238"/>
<path d="M68.958 36.7548C68.958 36.7742 65.6611 36.7909 61.5947 36.7909C57.5284 36.7909 54.2314 36.7742 54.2314 36.7548C54.2314 36.7354 57.5284 36.7188 61.5947 36.7188C65.6611 36.7188 68.958 36.7298 68.958 36.7548Z" fill="#455A64"/>
<path d="M53.5252 40.935C53.5061 40.935 53.4897 40.2291 53.4897 39.3581C53.4897 38.4872 53.5061 37.7812 53.5252 37.7812C53.5442 37.7812 53.5606 38.4872 53.5606 39.3581C53.5606 40.2291 53.5442 40.935 53.5252 40.935Z" fill="#455A64"/>
<path d="M69.4959 40.567C69.4768 40.567 69.4604 39.9249 69.4604 39.1344C69.4604 38.3439 69.4768 37.7031 69.4959 37.7031C69.5322 38.1792 69.5445 38.657 69.5326 39.1344C69.5445 39.6122 69.5322 40.0904 69.4959 40.567Z" fill="#455A64"/>
<path d="M68.6815 41.2314C68.6815 41.2522 65.2974 41.2674 61.1234 41.2674C56.9495 41.2674 53.5654 41.2522 53.5654 41.2314C53.5654 41.2106 56.9482 41.1953 61.1234 41.1953C65.2987 41.1953 68.6815 41.212 68.6815 41.2314Z" fill="#455A64"/>
<path d="M47.3125 94.268L35.265 94.2604C34.569 94.2604 33.9015 93.9788 33.4093 93.4776C32.9171 92.9764 32.6406 92.2966 32.6406 91.5878V60.8211C32.6408 60.47 32.7089 60.1223 32.841 59.7979C32.9731 59.4736 33.1666 59.1789 33.4105 58.9307C33.6545 58.6825 33.944 58.4857 34.2626 58.3515C34.5812 58.2173 34.9227 58.1483 35.2675 58.1484L47.315 58.156C48.0109 58.1567 48.6781 58.4387 49.17 58.9401C49.6619 59.4415 49.9381 60.1212 49.9381 60.83L49.9319 91.5953C49.9319 92.3033 49.6561 92.9823 49.165 93.4834C48.6739 93.9845 48.0077 94.2667 47.3125 94.268Z" fill="#263238"/>
<path d="M47.3087 59.2435H44.9725C44.8963 59.2451 44.8212 59.262 44.7514 59.2932C44.6817 59.3244 44.6187 59.3693 44.5659 59.4254C44.5132 59.4814 44.4719 59.5475 44.4442 59.6198C44.4166 59.6921 44.4032 59.7692 44.4049 59.8468V60.2794C44.4079 60.436 44.3498 60.5874 44.2435 60.7004C44.1371 60.8135 43.991 60.8791 43.8373 60.8827H39.2828C39.1289 60.8791 38.9826 60.8134 38.8762 60.7C38.7698 60.5866 38.7119 60.4349 38.7152 60.2781V59.8468C38.7186 59.69 38.6607 59.5383 38.5542 59.4249C38.4478 59.3116 38.3016 59.2458 38.1476 59.2422H35.2823C34.7955 59.2415 34.3284 59.4376 33.9835 59.7874C33.6386 60.1372 33.4442 60.6122 33.4429 61.1079V91.1384C33.4429 91.6346 33.6364 92.1106 33.9808 92.4616C34.3253 92.8127 34.7925 93.01 35.2798 93.0104L47.3062 93.018C47.5477 93.0181 47.7869 92.9698 48.0101 92.8758C48.2332 92.7818 48.436 92.644 48.6068 92.4701C48.7776 92.2963 48.9132 92.0898 49.0056 91.8626C49.0981 91.6354 49.1456 91.3919 49.1456 91.146L49.1519 61.1167C49.152 60.8704 49.1044 60.6264 49.0118 60.3988C48.9192 60.1712 48.7834 59.9644 48.6122 59.7904C48.4409 59.6164 48.2376 59.4785 48.014 59.3846C47.7903 59.2908 47.5506 59.2428 47.3087 59.2435Z" fill="white"/>
<path d="M33.4429 71.6719H49.1456V91.4114C49.1456 91.8385 48.9791 92.248 48.6826 92.55C48.386 92.8519 47.9839 93.0216 47.5646 93.0216H35.0202C34.6015 93.0206 34.2003 92.8505 33.9046 92.5486C33.6089 92.2468 33.4429 91.8378 33.4429 91.4114V71.6719Z" fill="#F5F5F5"/>
<path d="M45.3015 71.6328H33.4365V76.0915H45.3015V71.6328Z" fill="#E0E0E0"/>
<path d="M47.7467 93.0216C48.1176 93.0216 48.4733 92.8715 48.7356 92.6044C48.9978 92.3373 49.1452 91.9751 49.1452 91.5973V71.6719H45.2949V93.0216H47.7467Z" fill="#7B55D3"/>
<path d="M48.7847 76.1266C48.7847 76.1456 45.307 76.1595 41.0159 76.1595C36.7247 76.1595 33.2471 76.1456 33.2471 76.1266C33.2471 76.1077 36.7247 76.0938 41.0159 76.0938C45.307 76.0938 48.7847 76.1089 48.7847 76.1266Z" fill="#263238"/>
<path d="M48.7847 80.4626C48.7847 80.4803 45.307 80.4955 41.0159 80.4955C36.7247 80.4955 33.2471 80.4803 33.2471 80.4626C33.2471 80.4449 36.7247 80.4297 41.0159 80.4297C45.307 80.4297 48.7847 80.4436 48.7847 80.4626Z" fill="#263238"/>
<path d="M48.7847 85.0563C48.7847 85.0753 45.307 85.0892 41.0159 85.0892C36.7247 85.0892 33.2471 85.0753 33.2471 85.0563C33.2471 85.0374 36.7247 85.0234 41.0159 85.0234C45.307 85.0234 48.7847 85.0399 48.7847 85.0563Z" fill="#263238"/>
<path d="M48.7847 89.4001C48.7847 89.4178 45.307 89.433 41.0159 89.433C36.7247 89.433 33.2471 89.4178 33.2471 89.4001C33.2471 89.3824 36.7247 89.3672 41.0159 89.3672C45.307 89.3672 48.7847 89.3824 48.7847 89.4001Z" fill="#263238"/>
<path d="M37.2813 89.393C37.2627 89.393 37.249 85.4377 37.249 80.5604C37.249 75.6831 37.2627 71.7266 37.2813 71.7266C37.2999 71.7266 37.3136 75.6805 37.3136 80.5604C37.3136 85.4403 37.2937 89.393 37.2813 89.393Z" fill="#263238"/>
<path d="M41.2916 93.0219C41.2742 93.0219 41.2593 88.2546 41.2593 82.3742C41.2593 76.4938 41.2742 71.7266 41.2916 71.7266C41.309 71.7266 41.3239 76.4926 41.3239 82.3742C41.3239 88.2559 41.309 93.0219 41.2916 93.0219Z" fill="#263238"/>
<path d="M45.3013 93.0143C45.2839 93.0143 45.269 88.2483 45.269 82.3704C45.269 76.4926 45.2839 71.7266 45.3013 71.7266C45.3187 71.7266 45.3336 76.4913 45.3336 82.3704C45.3336 88.2495 45.32 93.0143 45.3013 93.0143Z" fill="#263238"/>
<path d="M35.8915 77.7031V77.8448L35.3053 79.1919H35.0792L35.658 77.8878H34.9898V78.1534H34.7886V77.7031H35.8915Z" fill="#263238"/>
<path d="M39.915 78.7728C39.915 79.0434 39.6902 79.2104 39.3325 79.2104C38.9748 79.2104 38.755 79.0434 38.755 78.7728C38.7534 78.6927 38.7776 78.6143 38.8237 78.5495C38.8699 78.4846 38.9356 78.4369 39.0108 78.4135C38.9489 78.3872 38.8964 78.3424 38.86 78.2851C38.8236 78.2277 38.8052 78.1605 38.8071 78.0923C38.8071 77.8393 39.017 77.6875 39.3325 77.6875C39.648 77.6875 39.8628 77.8431 39.8628 78.0923C39.8645 78.1608 39.8457 78.2282 39.8089 78.2856C39.7721 78.343 39.719 78.3876 39.6567 78.4135C39.7322 78.4366 39.7983 78.4842 39.845 78.549C39.8916 78.6139 39.9162 78.6924 39.915 78.7728ZM39.7063 78.7664C39.7063 78.602 39.5647 78.5008 39.3337 78.5008C39.1027 78.5008 38.9611 78.602 38.9611 78.7664C38.9611 78.9309 39.099 79.0384 39.3337 79.0384C39.5685 79.0384 39.7063 78.9347 39.7063 78.7664ZM39.0133 78.0998C39.0133 78.2466 39.1375 78.3376 39.3325 78.3376C39.5275 78.3376 39.6591 78.2466 39.6591 78.0998C39.6591 77.9531 39.5349 77.8595 39.3325 77.8595C39.13 77.8595 39.0133 77.9519 39.0133 78.0998Z" fill="#263238"/>
<path d="M43.8667 78.43C43.8667 78.9359 43.5848 79.2104 43.1762 79.2104C43.0495 79.2154 42.9238 79.1857 42.8123 79.1244L42.8918 78.9574C42.9769 79.0085 43.0749 79.0332 43.1737 79.0283C43.4705 79.0283 43.6581 78.8385 43.6581 78.4667V78.4135C43.6092 78.4791 43.5452 78.5313 43.4718 78.5655C43.3983 78.5997 43.3177 78.6148 43.237 78.6096C42.9464 78.6096 42.7402 78.4325 42.7402 78.158C42.7402 77.8836 42.965 77.6875 43.2557 77.6875C43.6457 77.6875 43.8667 77.9557 43.8667 78.43ZM43.6109 78.1479C43.6109 77.9949 43.4867 77.8608 43.2619 77.8608C43.2217 77.8558 43.1809 77.8595 43.1423 77.8717C43.1036 77.8839 43.0679 77.9043 43.0375 77.9315C43.0071 77.9587 42.9828 77.9922 42.966 78.0297C42.9492 78.0672 42.9404 78.108 42.9402 78.1492C42.9402 78.3237 43.0644 78.4363 43.2718 78.4363C43.3129 78.4412 43.3545 78.4375 43.3941 78.4255C43.4337 78.4135 43.4705 78.3934 43.5022 78.3664C43.534 78.3394 43.56 78.3061 43.5787 78.2685C43.5973 78.231 43.6083 78.1899 43.6109 78.1479Z" fill="#263238"/>
<path d="M42.6592 73.6384C42.6657 73.5774 42.6893 73.5197 42.7273 73.4721C42.7653 73.4246 42.816 73.3893 42.8733 73.3704C42.9306 73.3516 42.992 73.35 43.0502 73.366C43.1083 73.3819 43.1607 73.4147 43.2009 73.4603C43.2412 73.5058 43.2676 73.5623 43.277 73.6229C43.2864 73.6834 43.2784 73.7455 43.254 73.8015C43.2295 73.8575 43.1897 73.9051 43.1392 73.9386C43.0888 73.9721 43.0299 73.9899 42.9697 73.99C42.9258 73.9903 42.8824 73.9811 42.8422 73.9631C42.8021 73.945 42.7662 73.9185 42.7369 73.8853C42.7075 73.852 42.6854 73.8129 42.672 73.7703C42.6586 73.7277 42.6543 73.6828 42.6592 73.6384ZM43.1001 73.6384C43.1001 73.5018 43.0479 73.4373 42.9759 73.4373C42.9039 73.4373 42.8517 73.5043 42.8517 73.6384C42.8517 73.7725 42.9051 73.8408 42.9759 73.8408C43.0467 73.8408 43.1001 73.775 43.1001 73.6384ZM43.7137 73.2969H43.926L43.0728 74.5693H42.8604L43.7137 73.2969ZM43.5087 74.2329C43.5152 74.1719 43.5389 74.1141 43.577 74.0665C43.615 74.0189 43.6658 73.9836 43.7232 73.9648C43.7805 73.946 43.842 73.9445 43.9002 73.9606C43.9583 73.9766 44.0107 74.0095 44.0509 74.0552C44.0911 74.1009 44.1174 74.1575 44.1267 74.2182C44.136 74.2788 44.1278 74.3409 44.1031 74.3969C44.0785 74.4529 44.0385 74.5004 43.9878 74.5337C43.9372 74.567 43.8782 74.5846 43.818 74.5845C43.7747 74.5845 43.7318 74.5753 43.6922 74.5575C43.6526 74.5397 43.6171 74.5136 43.588 74.481C43.5589 74.4483 43.5368 74.4098 43.5231 74.368C43.5095 74.3261 43.5046 74.2818 43.5087 74.2379V74.2329ZM43.9484 74.2329C43.9484 74.0988 43.8962 74.0318 43.818 74.0318C43.7397 74.0318 43.6938 74.0975 43.6938 74.2329C43.6938 74.3682 43.7472 74.4353 43.818 74.4353C43.8888 74.4353 43.9484 74.3733 43.9484 74.2379V74.2329Z" fill="#263238"/>
<path d="M34.8375 73.9294C34.8363 73.8411 34.853 73.7535 34.8863 73.6719C34.9197 73.5904 34.969 73.5167 35.0314 73.4554C35.0938 73.394 35.1678 73.3463 35.2489 73.3151C35.33 73.2839 35.4166 73.27 35.5032 73.2742C35.5921 73.2707 35.6807 73.2868 35.763 73.3213C35.8453 73.3558 35.9193 73.4078 35.9801 73.474L35.8634 73.5891C35.8186 73.5396 35.764 73.5004 35.7032 73.4742C35.6423 73.4481 35.5767 73.4355 35.5106 73.4373C35.4452 73.4339 35.3798 73.4441 35.3184 73.4673C35.2569 73.4905 35.2008 73.5261 35.1533 73.5721C35.1058 73.6181 35.068 73.6734 35.0422 73.7347C35.0163 73.796 35.003 73.862 35.003 73.9287C35.003 73.9954 35.0163 74.0615 35.0422 74.1228C35.068 74.1841 35.1058 74.2394 35.1533 74.2854C35.2008 74.3313 35.2569 74.367 35.3184 74.3901C35.3798 74.4133 35.4452 74.4235 35.5106 74.4201C35.5767 74.4215 35.6423 74.4085 35.7031 74.3822C35.7639 74.3558 35.8185 74.3166 35.8634 74.2671L35.9801 74.3822C35.9191 74.4489 35.8447 74.5014 35.762 74.5361C35.6792 74.5708 35.5901 74.5869 35.5007 74.5833C35.4143 74.5873 35.3281 74.5732 35.2473 74.542C35.1664 74.5109 35.0927 74.4632 35.0306 74.402C34.9685 74.3407 34.9193 74.2672 34.8861 74.186C34.8529 74.1047 34.8364 74.0174 34.8375 73.9294Z" fill="#263238"/>
<path d="M36.1 83.3185H35.8218V83.6853H35.6194V83.3185H34.8096V83.1705L35.5548 82.1953H35.7808L35.0642 83.1364H35.6256V82.8126H35.8218V83.1364H36.1V83.3185Z" fill="#263238"/>
<path d="M39.7878 83.2376C39.7878 83.4905 39.6077 83.7018 39.2338 83.7018C39.0398 83.7064 38.8502 83.6425 38.6973 83.5209L38.7941 83.3527C38.9162 83.4586 39.0722 83.5153 39.2326 83.512C39.4537 83.512 39.5791 83.4083 39.5791 83.2464C39.5791 83.0845 39.4748 82.9745 39.1357 82.9745H38.8041L38.8811 82.1953H39.7058V82.3812H39.0562L39.0165 82.7898H39.1804C39.6164 82.7898 39.7878 82.9745 39.7878 83.2376Z" fill="#263238"/>
<path d="M43.9119 83.2247C43.9119 83.5118 43.6833 83.6952 43.394 83.6952C43.0015 83.6952 42.7729 83.4271 42.7729 82.9528C42.7729 82.4468 43.0549 82.1723 43.4648 82.1723C43.5915 82.1677 43.7172 82.1978 43.8287 82.2596L43.7492 82.4253C43.664 82.3754 43.5666 82.3512 43.4685 82.3557C43.1729 82.3557 42.9828 82.5442 42.9828 82.9173C42.9828 82.9338 42.9828 82.9502 42.9828 82.9705C43.0314 82.905 43.0952 82.8527 43.1685 82.8185C43.2417 82.7843 43.3222 82.7692 43.4027 82.7744C43.7007 82.7769 43.9119 82.9502 43.9119 83.2247ZM43.7094 83.2336C43.7094 83.059 43.5852 82.9464 43.3753 82.9464C43.3343 82.9417 43.2928 82.9456 43.2533 82.9578C43.2139 82.97 43.1772 82.9903 43.1457 83.0174C43.1142 83.0445 43.0885 83.0779 43.0701 83.1155C43.0517 83.1531 43.041 83.1941 43.0387 83.2361C43.0387 83.3891 43.1629 83.5232 43.3853 83.5232C43.4257 83.5282 43.4666 83.5245 43.5055 83.5122C43.5444 83.5 43.5803 83.4795 43.6109 83.4522C43.6415 83.4248 43.6661 83.3912 43.6831 83.3536C43.7 83.3159 43.709 83.275 43.7094 83.2336Z" fill="#263238"/>
<path d="M35.2805 86.5938V88.0825H35.0731V86.7784H34.7427V86.5938H35.2805Z" fill="#263238"/>
<path d="M39.7908 87.902V88.0867H38.7401V87.9412L39.335 87.3568C39.489 87.2038 39.5188 87.1102 39.5188 87.0166C39.5188 86.8635 39.412 86.7699 39.2071 86.7699C39.1369 86.766 39.0669 86.7786 39.0022 86.8067C38.9376 86.8348 38.8802 86.8776 38.8345 86.9318L38.6929 86.8054C38.7598 86.7296 38.8425 86.67 38.9349 86.6309C39.0272 86.5917 39.127 86.574 39.2269 86.5789C39.5312 86.5789 39.7237 86.7383 39.7237 86.9938C39.7237 87.1393 39.6815 87.2683 39.484 87.4618L39.0369 87.9007L39.7908 87.902Z" fill="#263238"/>
<path d="M43.7804 87.6436C43.7804 87.8966 43.5991 88.0989 43.2265 88.0989C43.0324 88.1045 42.8425 88.0405 42.6899 87.9181L42.7856 87.7511C42.9085 87.8572 43.0654 87.9139 43.2265 87.9105C43.4463 87.9105 43.5718 87.808 43.5718 87.6461C43.5718 87.4842 43.4612 87.3868 43.2103 87.3868H43.0936V87.2376L43.4662 86.7784H42.7583V86.5938H43.7233V86.7379L43.3408 87.2186C43.6277 87.2464 43.7804 87.4147 43.7804 87.6436Z" fill="#263238"/>
<path d="M36.5693 91.2042C36.5693 90.7198 36.8177 90.4453 37.1667 90.4453C37.5158 90.4453 37.7617 90.7223 37.7617 91.2042C37.7617 91.6861 37.5133 91.9632 37.1667 91.9632C36.8202 91.9632 36.5693 91.6887 36.5693 91.2042ZM37.553 91.2042C37.553 90.8248 37.394 90.6325 37.1667 90.6325C36.9395 90.6325 36.778 90.8235 36.778 91.2042C36.778 91.585 36.937 91.776 37.1667 91.776C37.3965 91.776 37.553 91.585 37.553 91.2042Z" fill="#263238"/>
<path d="M43.4614 91.2692C43.4594 91.322 43.4476 91.374 43.4266 91.4223L43.3285 91.7183H43.1968L43.2738 91.4021C43.2474 91.392 43.2246 91.3739 43.2088 91.3501C43.193 91.3262 43.1849 91.298 43.1856 91.2692C43.185 91.2502 43.1881 91.2313 43.1949 91.2135C43.2017 91.1958 43.212 91.1797 43.2251 91.1662C43.2383 91.1527 43.254 91.142 43.2714 91.135C43.2887 91.1279 43.3073 91.1245 43.326 91.1251C43.3444 91.1249 43.3626 91.1285 43.3795 91.1358C43.3964 91.143 43.4117 91.1537 43.4244 91.1672C43.4371 91.1808 43.4469 91.1968 43.4533 91.2143C43.4596 91.2319 43.4624 91.2506 43.4614 91.2692Z" fill="#263238"/>
<path d="M47.9913 90.8281H46.5654V90.9812H47.9913V90.8281Z" fill="#263238"/>
<path d="M47.9913 91.2891H46.5654V91.4421H47.9913V91.2891Z" fill="#263238"/>
<path d="M47.8137 87.2031H46.7456V87.317H47.8137V87.2031Z" fill="#263238"/>
<path d="M47.8671 87.367H46.6885V87.1406H47.8671V87.367Z" fill="#263238"/>
<path d="M47.2231 86.7091V87.7969H47.3349V86.7091H47.2231Z" fill="#263238"/>
<path d="M47.3888 87.8553H47.1665V86.6562H47.3888V87.8553Z" fill="#263238"/>
<path d="M47.7731 78.0278L47.6166 77.8672L47.2788 78.2112L46.9409 77.8672L46.7832 78.0278L47.121 78.3719L46.7832 78.7159L46.9409 78.8753L47.2775 78.5312L47.6154 78.8753L47.7731 78.7146L47.4353 78.3719L47.7731 78.0278Z" fill="#263238"/>
<path d="M47.8137 82.8984H46.7456V83.0123H47.8137V82.8984Z" fill="#263238"/>
<path d="M47.8671 83.0623H46.6885V82.8359H47.8671V83.0623Z" fill="#263238"/>
<path d="M47.8137 73.9531H46.7456V74.067H47.8137V73.9531Z" fill="#263238"/>
<path d="M47.8671 74.117H46.6885V73.8906H47.8671V74.117Z" fill="#263238"/>
<path d="M47.2775 73.5908C47.3763 73.5908 47.4563 73.5093 47.4563 73.4087C47.4563 73.3081 47.3763 73.2266 47.2775 73.2266C47.1787 73.2266 47.0986 73.3081 47.0986 73.4087C47.0986 73.5093 47.1787 73.5908 47.2775 73.5908Z" fill="#263238"/>
<path d="M47.4573 74.5728C47.4576 74.6091 47.4472 74.6447 47.4276 74.675C47.408 74.7053 47.3799 74.729 47.347 74.7431C47.3142 74.7572 47.2779 74.761 47.2429 74.7541C47.2079 74.7471 47.1757 74.7298 47.1504 74.7042C47.125 74.6786 47.1078 74.6459 47.1007 74.6103C47.0937 74.5747 47.0972 74.5377 47.1108 74.5041C47.1243 74.4706 47.1474 74.4418 47.1771 74.4216C47.2067 74.4014 47.2416 74.3906 47.2773 74.3906C47.3248 74.3906 47.3704 74.4098 47.4042 74.4439C47.4379 74.478 47.457 74.5243 47.4573 74.5728Z" fill="#263238"/>
<path d="M39.8401 73.6911L39.7445 73.5938L39.5396 73.8025L39.3346 73.5938L39.2402 73.6911L39.4439 73.8998L39.2402 74.1086L39.3346 74.2047L39.5396 73.996L39.7445 74.2047L39.8401 74.1086L39.6352 73.8998L39.8401 73.6911Z" fill="#263238"/>
<path d="M40.0878 74.4901H39.0643C39.0392 74.4901 39.0143 74.4848 38.9912 74.4745C38.9681 74.4643 38.9474 74.4494 38.9302 74.4306L38.57 74.0322C38.5382 73.9966 38.5205 73.9501 38.5205 73.9019C38.5205 73.8537 38.5382 73.8073 38.57 73.7716L38.9302 73.3732C38.9473 73.3543 38.968 73.3392 38.9911 73.3287C39.0142 73.3183 39.0391 73.3128 39.0643 73.3125H40.0878C40.1121 73.3128 40.1361 73.318 40.1584 73.3278C40.1807 73.3376 40.2009 73.3518 40.2179 73.3695C40.2348 73.3872 40.2482 73.4082 40.2572 73.4312C40.2662 73.4542 40.2707 73.4787 40.2703 73.5035V74.3004C40.2707 74.3501 40.2517 74.398 40.2175 74.4336C40.1832 74.4691 40.1366 74.4894 40.0878 74.4901ZM39.0643 73.439C39.0484 73.4394 39.0332 73.4462 39.0221 73.458L38.6594 73.8564C38.6485 73.8687 38.6425 73.8847 38.6425 73.9013C38.6425 73.9179 38.6485 73.9339 38.6594 73.9462L39.0196 74.3446C39.0249 74.3507 39.0314 74.3555 39.0387 74.3588C39.046 74.362 39.0539 74.3637 39.0619 74.3636H40.0853C40.0932 74.3634 40.101 74.3617 40.1083 74.3584C40.1155 74.3551 40.1221 74.3504 40.1275 74.3445C40.133 74.3386 40.1372 74.3317 40.14 74.3241C40.1427 74.3165 40.144 74.3084 40.1436 74.3004V73.5035C40.144 73.4954 40.1427 73.4872 40.14 73.4796C40.1372 73.4719 40.133 73.4649 40.1276 73.4589C40.1222 73.4529 40.1156 73.4481 40.1084 73.4447C40.1011 73.4412 40.0933 73.4393 40.0853 73.439H39.0643Z" fill="#263238"/>
<path d="M40.6975 67.0781V69.7242H40.5087V67.2514H39.874V67.0781H40.6975Z" fill="#263238"/>
<path d="M43.1387 67.0794V67.2147L42.0209 69.7255H41.8134L42.9201 67.2527H41.4607V67.7586H41.2744V67.0781L43.1387 67.0794Z" fill="#263238"/>
<path d="M45.1468 68.9765C45.1468 69.4154 44.8351 69.7354 44.2364 69.7354C43.8551 69.7354 43.5024 69.5912 43.3198 69.38L43.4167 69.232C43.5241 69.3406 43.6523 69.4257 43.7933 69.4818C43.9343 69.5379 44.0851 69.564 44.2364 69.5583C44.7047 69.5583 44.9531 69.3306 44.9531 68.9714C44.9531 68.6122 44.7158 68.3858 44.1967 68.3858H44.0327V68.2454L44.8015 67.2436H43.4167V67.0703H45.0462V67.2057L44.2662 68.2175C44.8574 68.2428 45.1468 68.5451 45.1468 68.9765Z" fill="#263238"/>
<path d="M47.5018 68.9937C47.5018 69.4554 47.1292 69.7387 46.5144 69.7387C45.8996 69.7387 45.5332 69.4554 45.5332 68.9937C45.5332 68.6611 45.7344 68.4309 46.0871 68.336C45.7903 68.2373 45.6264 68.0299 45.6264 67.739C45.6264 67.3153 45.9754 67.0547 46.5144 67.0547C47.0534 67.0547 47.4086 67.3153 47.4086 67.739C47.4086 68.0299 47.241 68.2373 46.9404 68.336C47.2969 68.4334 47.5018 68.6674 47.5018 68.9937ZM47.3118 68.9937C47.3118 68.6421 47.0149 68.4195 46.5144 68.4195C46.0139 68.4195 45.7232 68.6421 45.7232 68.9937C45.7232 69.3454 46.0126 69.573 46.5144 69.573C47.0162 69.573 47.3118 69.3517 47.3118 68.9937ZM46.5144 68.2601C46.9553 68.2601 47.2186 68.0603 47.2186 67.7466C47.2186 67.4329 46.9441 67.2229 46.5144 67.2229C46.0847 67.2229 45.8164 67.424 45.8164 67.7453C45.8164 68.0666 46.0722 68.2626 46.5144 68.2626V68.2601Z" fill="#263238"/>
</svg>
