<svg width="74" height="74" viewBox="0 0 74 74" fill="none" xmlns="http://www.w3.org/2000/svg">
<g filter="url(#filter0_d_1_130101)">
<rect x="1" width="72" height="72" rx="36" fill="white" shape-rendering="crispEdges"/>
<g clip-path="url(#clip0_1_130101)">
<path d="M29.5 20.5C29.83 20.5 30.16 20.5 30.5 20.5C30.5 21.16 30.5 21.82 30.5 22.5C30.83 22.5 31.16 22.5 31.5 22.5C31.5 22.17 31.5 21.84 31.5 21.5C31.83 21.5 32.16 21.5 32.5 21.5C32.5 21.83 32.5 22.16 32.5 22.5C33.82 22.5 35.14 22.5 36.5 22.5C36.5 23.16 36.5 23.82 36.5 24.5C36.83 24.5 37.16 24.5 37.5 24.5C37.5 24.83 37.5 25.16 37.5 25.5C41.79 25.5 46.08 25.5 50.5 25.5C50.5 25.83 50.5 26.16 50.5 26.5C50.17 26.5 49.84 26.5 49.5 26.5C49.5 27.16 49.5 27.82 49.5 28.5C49.83 28.5 50.16 28.5 50.5 28.5C50.5 29.49 50.5 30.48 50.5 31.5C50.17 31.5 49.84 31.5 49.5 31.5C49.5 33.48 49.5 35.46 49.5 37.5C50.49 37.5 51.48 37.5 52.5 37.5C52.5 38.82 52.5 40.14 52.5 41.5C52.17 41.5 51.84 41.5 51.5 41.5C51.5 44.8 51.5 48.1 51.5 51.5C41.6 51.5 31.7 51.5 21.5 51.5C21.5 42.59 21.5 33.68 21.5 24.5C22.16 24.5 22.82 24.5 23.5 24.5C23.5 23.84 23.5 23.18 23.5 22.5C24.82 22.5 26.14 22.5 27.5 22.5C27.5 22.17 27.5 21.84 27.5 21.5C27.83 21.5 28.16 21.5 28.5 21.5C28.5 21.83 28.5 22.16 28.5 22.5C28.83 22.5 29.16 22.5 29.5 22.5C29.5 21.84 29.5 21.18 29.5 20.5ZM24.5 23.5C24.5 23.83 24.5 24.16 24.5 24.5C28.13 24.5 31.76 24.5 35.5 24.5C35.5 24.17 35.5 23.84 35.5 23.5C31.87 23.5 28.24 23.5 24.5 23.5ZM22.5 25.5C22.5 33.75 22.5 42 22.5 50.5C23.82 50.5 25.14 50.5 26.5 50.5C26.5 48.52 26.5 46.54 26.5 44.5C28.48 44.5 30.46 44.5 32.5 44.5C32.5 46.48 32.5 48.46 32.5 50.5C33.16 50.5 33.82 50.5 34.5 50.5C34.5 48.19 34.5 45.88 34.5 43.5C31.2 43.5 27.9 43.5 24.5 43.5C24.5 37.56 24.5 31.62 24.5 25.5C23.84 25.5 23.18 25.5 22.5 25.5ZM25.5 25.5C25.5 26.16 25.5 26.82 25.5 27.5C26.16 27.5 26.82 27.5 27.5 27.5C27.5 26.84 27.5 26.18 27.5 25.5C26.84 25.5 26.18 25.5 25.5 25.5ZM28.5 25.5C28.5 26.16 28.5 26.82 28.5 27.5C29.16 27.5 29.82 27.5 30.5 27.5C30.5 26.84 30.5 26.18 30.5 25.5C29.84 25.5 29.18 25.5 28.5 25.5ZM31.5 25.5C31.5 26.16 31.5 26.82 31.5 27.5C32.16 27.5 32.82 27.5 33.5 27.5C33.5 26.84 33.5 26.18 33.5 25.5C32.84 25.5 32.18 25.5 31.5 25.5ZM34.5 25.5C34.5 29.46 34.5 33.42 34.5 37.5C35.16 37.5 35.82 37.5 36.5 37.5C36.5 33.54 36.5 29.58 36.5 25.5C35.84 25.5 35.18 25.5 34.5 25.5ZM37.5 26.5C37.5 27.16 37.5 27.82 37.5 28.5C38.16 28.5 38.82 28.5 39.5 28.5C39.5 27.84 39.5 27.18 39.5 26.5C38.84 26.5 38.18 26.5 37.5 26.5ZM40.5 26.5C40.5 27.16 40.5 27.82 40.5 28.5C41.16 28.5 41.82 28.5 42.5 28.5C42.5 27.84 42.5 27.18 42.5 26.5C41.84 26.5 41.18 26.5 40.5 26.5ZM43.5 26.5C43.5 27.16 43.5 27.82 43.5 28.5C44.16 28.5 44.82 28.5 45.5 28.5C45.5 27.84 45.5 27.18 45.5 26.5C44.84 26.5 44.18 26.5 43.5 26.5ZM46.5 26.5C46.5 27.16 46.5 27.82 46.5 28.5C47.16 28.5 47.82 28.5 48.5 28.5C48.5 27.84 48.5 27.18 48.5 26.5C47.84 26.5 47.18 26.5 46.5 26.5ZM25.5 28.5C25.5 29.16 25.5 29.82 25.5 30.5C26.16 30.5 26.82 30.5 27.5 30.5C27.5 29.84 27.5 29.18 27.5 28.5C26.84 28.5 26.18 28.5 25.5 28.5ZM28.5 28.5C28.5 29.16 28.5 29.82 28.5 30.5C29.16 30.5 29.82 30.5 30.5 30.5C30.5 29.84 30.5 29.18 30.5 28.5C29.84 28.5 29.18 28.5 28.5 28.5ZM31.5 28.5C31.5 29.16 31.5 29.82 31.5 30.5C32.16 30.5 32.82 30.5 33.5 30.5C33.5 29.84 33.5 29.18 33.5 28.5C32.84 28.5 32.18 28.5 31.5 28.5ZM37.5 29.5C37.5 29.83 37.5 30.16 37.5 30.5C41.46 30.5 45.42 30.5 49.5 30.5C49.5 30.17 49.5 29.84 49.5 29.5C45.54 29.5 41.58 29.5 37.5 29.5ZM25.5 31.5C25.5 32.16 25.5 32.82 25.5 33.5C26.16 33.5 26.82 33.5 27.5 33.5C27.5 32.84 27.5 32.18 27.5 31.5C26.84 31.5 26.18 31.5 25.5 31.5ZM28.5 31.5C28.5 32.16 28.5 32.82 28.5 33.5C29.16 33.5 29.82 33.5 30.5 33.5C30.5 32.84 30.5 32.18 30.5 31.5C29.84 31.5 29.18 31.5 28.5 31.5ZM31.5 31.5C31.5 32.16 31.5 32.82 31.5 33.5C32.16 33.5 32.82 33.5 33.5 33.5C33.5 32.84 33.5 32.18 33.5 31.5C32.84 31.5 32.18 31.5 31.5 31.5ZM37.5 31.5C37.5 33.48 37.5 35.46 37.5 37.5C41.13 37.5 44.76 37.5 48.5 37.5C48.5 35.52 48.5 33.54 48.5 31.5C44.87 31.5 41.24 31.5 37.5 31.5ZM25.5 34.5C25.5 35.16 25.5 35.82 25.5 36.5C26.16 36.5 26.82 36.5 27.5 36.5C27.5 35.84 27.5 35.18 27.5 34.5C26.84 34.5 26.18 34.5 25.5 34.5ZM28.5 34.5C28.5 35.16 28.5 35.82 28.5 36.5C29.16 36.5 29.82 36.5 30.5 36.5C30.5 35.84 30.5 35.18 30.5 34.5C29.84 34.5 29.18 34.5 28.5 34.5ZM31.5 34.5C31.5 35.16 31.5 35.82 31.5 36.5C32.16 36.5 32.82 36.5 33.5 36.5C33.5 35.84 33.5 35.18 33.5 34.5C32.84 34.5 32.18 34.5 31.5 34.5ZM25.5 37.5C25.5 38.16 25.5 38.82 25.5 39.5C26.16 39.5 26.82 39.5 27.5 39.5C27.5 38.84 27.5 38.18 27.5 37.5C26.84 37.5 26.18 37.5 25.5 37.5ZM28.5 37.5C28.5 38.16 28.5 38.82 28.5 39.5C29.16 39.5 29.82 39.5 30.5 39.5C30.5 38.84 30.5 38.18 30.5 37.5C29.84 37.5 29.18 37.5 28.5 37.5ZM31.5 37.5C31.5 38.16 31.5 38.82 31.5 39.5C32.16 39.5 32.82 39.5 33.5 39.5C33.5 38.84 33.5 38.18 33.5 37.5C32.84 37.5 32.18 37.5 31.5 37.5ZM34.5 38.5C34.5 39.16 34.5 39.82 34.5 40.5C40.11 40.5 45.72 40.5 51.5 40.5C51.5 39.84 51.5 39.18 51.5 38.5C45.89 38.5 40.28 38.5 34.5 38.5ZM25.5 40.5C25.5 41.16 25.5 41.82 25.5 42.5C26.16 42.5 26.82 42.5 27.5 42.5C27.5 41.84 27.5 41.18 27.5 40.5C26.84 40.5 26.18 40.5 25.5 40.5ZM28.5 40.5C28.5 41.16 28.5 41.82 28.5 42.5C29.16 42.5 29.82 42.5 30.5 42.5C30.5 41.84 30.5 41.18 30.5 40.5C29.84 40.5 29.18 40.5 28.5 40.5ZM31.5 40.5C31.5 41.16 31.5 41.82 31.5 42.5C32.49 42.5 33.48 42.5 34.5 42.5C34.5 42.17 34.5 41.84 34.5 41.5C34.17 41.5 33.84 41.5 33.5 41.5C33.5 41.17 33.5 40.84 33.5 40.5C32.84 40.5 32.18 40.5 31.5 40.5ZM35.5 41.5C35.5 44.47 35.5 47.44 35.5 50.5C35.83 50.5 36.16 50.5 36.5 50.5C36.5 48.85 36.5 47.2 36.5 45.5C37.49 45.5 38.48 45.5 39.5 45.5C39.5 47.15 39.5 48.8 39.5 50.5C39.83 50.5 40.16 50.5 40.5 50.5C40.5 48.52 40.5 46.54 40.5 44.5C42.15 44.5 43.8 44.5 45.5 44.5C45.5 46.48 45.5 48.46 45.5 50.5C45.83 50.5 46.16 50.5 46.5 50.5C46.5 48.85 46.5 47.2 46.5 45.5C47.49 45.5 48.48 45.5 49.5 45.5C49.5 47.15 49.5 48.8 49.5 50.5C49.83 50.5 50.16 50.5 50.5 50.5C50.5 47.53 50.5 44.56 50.5 41.5C45.55 41.5 40.6 41.5 35.5 41.5ZM27.5 45.5C27.5 47.15 27.5 48.8 27.5 50.5C28.82 50.5 30.14 50.5 31.5 50.5C31.5 48.85 31.5 47.2 31.5 45.5C30.18 45.5 28.86 45.5 27.5 45.5ZM41.5 45.5C41.5 47.15 41.5 48.8 41.5 50.5C42.49 50.5 43.48 50.5 44.5 50.5C44.5 48.85 44.5 47.2 44.5 45.5C43.51 45.5 42.52 45.5 41.5 45.5ZM37.5 46.5C37.5 47.82 37.5 49.14 37.5 50.5C37.83 50.5 38.16 50.5 38.5 50.5C38.5 49.18 38.5 47.86 38.5 46.5C38.17 46.5 37.84 46.5 37.5 46.5ZM47.5 46.5C47.5 47.82 47.5 49.14 47.5 50.5C47.83 50.5 48.16 50.5 48.5 50.5C48.5 49.18 48.5 47.86 48.5 46.5C48.17 46.5 47.84 46.5 47.5 46.5Z" fill="#7B55D3"/>
<path d="M43.5 32.5C44.82 32.5 46.14 32.5 47.5 32.5C47.5 33.82 47.5 35.14 47.5 36.5C46.18 36.5 44.86 36.5 43.5 36.5C43.5 35.18 43.5 33.86 43.5 32.5ZM44.5 33.5C44.5 34.16 44.5 34.82 44.5 35.5C45.16 35.5 45.82 35.5 46.5 35.5C46.5 34.84 46.5 34.18 46.5 33.5C45.84 33.5 45.18 33.5 44.5 33.5Z" fill="#65C7C3"/>
<path d="M38.5 32.5C39.82 32.5 41.14 32.5 42.5 32.5C42.5 33.82 42.5 35.14 42.5 36.5C41.18 36.5 39.86 36.5 38.5 36.5C38.5 35.18 38.5 33.86 38.5 32.5ZM39.5 33.5C39.5 34.16 39.5 34.82 39.5 35.5C40.16 35.5 40.82 35.5 41.5 35.5C41.5 34.84 41.5 34.18 41.5 33.5C40.84 33.5 40.18 33.5 39.5 33.5Z" fill="#65C7C3"/>
<path d="M48.5 42.5C48.83 42.5 49.16 42.5 49.5 42.5C49.5 42.83 49.5 43.16 49.5 43.5C49.17 43.5 48.84 43.5 48.5 43.5C48.5 43.17 48.5 42.84 48.5 42.5Z" fill="#65C7C3"/>
<path d="M46.5 42.5C46.83 42.5 47.16 42.5 47.5 42.5C47.5 42.83 47.5 43.16 47.5 43.5C47.17 43.5 46.84 43.5 46.5 43.5C46.5 43.17 46.5 42.84 46.5 42.5Z" fill="#65C7C3"/>
<path d="M44.5 42.5C44.83 42.5 45.16 42.5 45.5 42.5C45.5 42.83 45.5 43.16 45.5 43.5C45.17 43.5 44.84 43.5 44.5 43.5C44.5 43.17 44.5 42.84 44.5 42.5Z" fill="#65C7C3"/>
<path d="M42.5 42.5C42.83 42.5 43.16 42.5 43.5 42.5C43.5 42.83 43.5 43.16 43.5 43.5C43.17 43.5 42.84 43.5 42.5 43.5C42.5 43.17 42.5 42.84 42.5 42.5Z" fill="#65C7C3"/>
<path d="M40.5 42.5C40.83 42.5 41.16 42.5 41.5 42.5C41.5 42.83 41.5 43.16 41.5 43.5C41.17 43.5 40.84 43.5 40.5 43.5C40.5 43.17 40.5 42.84 40.5 42.5Z" fill="#65C7C3"/>
<path d="M38.5 42.5C38.83 42.5 39.16 42.5 39.5 42.5C39.5 42.83 39.5 43.16 39.5 43.5C39.17 43.5 38.84 43.5 38.5 43.5C38.5 43.17 38.5 42.84 38.5 42.5Z" fill="#65C7C3"/>
<path d="M36.5 42.5C36.83 42.5 37.16 42.5 37.5 42.5C37.5 42.83 37.5 43.16 37.5 43.5C37.17 43.5 36.84 43.5 36.5 43.5C36.5 43.17 36.5 42.84 36.5 42.5Z" fill="#65C7C3"/>
</g>
</g>
<defs>
<filter id="filter0_d_1_130101" x="0" y="0" width="74" height="74" filterUnits="userSpaceOnUse" color-interpolation-filters="sRGB">
<feFlood flood-opacity="0" result="BackgroundImageFix"/>
<feColorMatrix in="SourceAlpha" type="matrix" values="0 0 0 0 0 0 0 0 0 0 0 0 0 0 0 0 0 0 127 0" result="hardAlpha"/>
<feOffset dy="1"/>
<feGaussianBlur stdDeviation="0.5"/>
<feComposite in2="hardAlpha" operator="out"/>
<feColorMatrix type="matrix" values="0 0 0 0 0 0 0 0 0 0 0 0 0 0 0 0 0 0 0.04 0"/>
<feBlend mode="normal" in2="BackgroundImageFix" result="effect1_dropShadow_1_130101"/>
<feBlend mode="normal" in="SourceGraphic" in2="effect1_dropShadow_1_130101" result="shape"/>
</filter>
<clipPath id="clip0_1_130101">
<rect width="32" height="32" fill="white" transform="translate(21 20)"/>
</clipPath>
</defs>
</svg>
