<svg width="74" height="74" viewBox="0 0 74 74" fill="none" xmlns="http://www.w3.org/2000/svg">
<g filter="url(#filter0_d_1_130077)">
<rect x="1" width="72" height="72" rx="36" fill="white" shape-rendering="crispEdges"/>
<g clip-path="url(#clip0_1_130077)">
<path d="M35.3984 19.6668C39.5324 19.8331 39.5324 19.8331 43.7499 20.0028C43.7809 29.5006 43.7809 29.5006 43.8124 39.1903C46.3802 36.6225 46.3802 36.6225 48.9999 34.0028C49.7247 33.5196 50.3161 33.2757 51.1952 33.4129C51.9012 33.5871 52.4115 33.9901 52.7875 34.6036C53.085 35.2044 53.0953 35.8809 52.9533 36.5277C52.7638 37.0566 52.3905 37.4285 51.9999 37.8153C51.934 37.8819 51.8682 37.9485 51.8024 38.0152C51.6403 38.179 51.4768 38.3413 51.3124 38.5028C51.3913 38.7195 51.4833 38.8888 51.621 39.0731C51.9861 39.6113 52.0801 40.2254 51.9706 40.8602C51.7624 41.7429 51.1822 42.2916 50.5576 42.9049C50.4714 42.9904 50.3854 43.0759 50.2994 43.1615C50.0744 43.3852 49.8486 43.6082 49.6227 43.8311C49.26 44.189 48.8985 44.5481 48.5369 44.9071C48.4107 45.0322 48.2843 45.157 48.1578 45.2818C48.0806 45.3581 48.0035 45.4344 47.9264 45.5107C47.8912 45.5453 47.856 45.5799 47.8197 45.6155C47.5241 45.9072 47.5241 45.9072 47.4023 46.2958C47.4106 46.6462 47.6357 46.8333 47.8749 47.0653C47.9306 47.1221 47.9306 47.1221 47.9875 47.18C48.0739 47.2679 48.1617 47.3542 48.2499 47.4403C48.1542 47.6643 48.0207 47.8171 47.8515 47.9911C47.8033 48.0417 47.7551 48.0924 47.7055 48.1446C47.5624 48.2528 47.5624 48.2528 47.4365 48.2535C46.9574 48.0093 46.519 47.4328 46.3244 46.9364C46.1676 46.3826 46.2295 45.882 46.4999 45.3778C46.838 44.9433 47.2454 44.5632 47.6358 44.1766C47.7529 44.0606 47.8698 43.9444 47.9866 43.8281C48.3184 43.4978 48.6506 43.1678 48.983 42.8382C49.1872 42.6356 49.3911 42.4328 49.5949 42.2298C49.6722 42.1529 49.7496 42.0761 49.8271 41.9994C49.9355 41.8922 50.0435 41.7846 50.1515 41.677C50.1832 41.6458 50.2149 41.6146 50.2476 41.5825C50.5932 41.2359 50.8187 40.9243 50.832 40.4286C50.8293 40.0946 50.7644 39.8348 50.5624 39.5653C50.5006 39.524 50.4387 39.4828 50.3749 39.4403C49.5014 40.1722 48.648 40.9226 47.8112 41.6963C47.3892 42.0858 46.9639 42.4679 46.518 42.83C45.3412 43.798 44.741 44.7007 43.8124 46.0028C43.7918 47.9828 43.7712 49.9628 43.7499 52.0028C36.2424 52.0028 28.7349 52.0028 20.9999 52.0028C20.7832 45.538 20.7832 45.538 20.7375 42.8009C20.727 42.1748 20.7161 41.5487 20.7047 40.9226C20.7033 40.8442 20.7018 40.7658 20.7004 40.685C20.6801 39.5863 20.647 38.4888 20.6036 37.3908C20.1238 25.2276 20.1238 25.2276 22.646 22.36C25.9619 18.828 31.0116 19.4167 35.3984 19.6668ZM27.2499 21.0653C27.2499 22.7772 27.2499 24.489 27.2499 26.2528C25.5381 26.2528 23.8262 26.2528 22.0624 26.2528C22.0624 34.3997 22.0624 42.5465 22.0624 50.9403C28.8481 50.9403 35.6337 50.9403 42.6249 50.9403C42.6249 49.7028 42.6249 48.4653 42.6249 47.1903C42.2503 47.511 42.2503 47.511 41.9218 47.86C41.2424 48.6178 40.706 48.9873 39.7165 49.2004C39.4684 49.2604 39.2285 49.3366 38.986 49.4161C37.8402 49.7862 36.4775 50.208 35.2824 49.8043C34.9142 49.5377 34.734 49.1928 34.5429 48.7918C34.5205 48.7458 34.498 48.6998 34.4749 48.6524C34.4203 48.5403 34.3663 48.4278 34.3124 48.3153C34.2712 48.3153 34.2299 48.3153 34.1874 48.3153C34.1047 48.4233 34.1047 48.4233 34.0243 48.5641C33.9926 48.6162 33.9609 48.6684 33.9282 48.7221C33.8622 48.8324 33.7965 48.9427 33.7309 49.0532C33.5055 49.4227 33.3028 49.7352 32.8749 49.8778C32.6422 49.8971 32.4092 49.898 32.1757 49.9012C32.1122 49.9036 32.0487 49.9059 31.9832 49.9083C31.5544 49.9133 31.2622 49.856 30.9374 49.5653C30.7109 49.2972 30.6603 48.9432 30.582 48.6083C30.5609 48.5209 30.5609 48.5209 30.5394 48.4319C30.5049 48.2889 30.471 48.1459 30.4374 48.0028C30.3549 47.9822 30.2724 47.9615 30.1874 47.9403C30.1774 47.9781 30.1673 48.0159 30.157 48.0548C30.1105 48.2278 30.0631 48.4004 30.0156 48.5731C29.9998 48.6326 29.984 48.692 29.9677 48.7533C29.8506 49.1747 29.7332 49.4834 29.3903 49.7733C29.015 49.9669 28.5417 49.9207 28.1288 49.9247C28.0375 49.9264 27.9461 49.9283 27.8548 49.9303C27.6323 49.9351 27.41 49.9376 27.1874 49.9403C27.1874 49.5897 27.1874 49.239 27.1874 48.8778C27.7237 48.8778 28.2599 48.8778 28.8124 48.8778C28.8485 48.7592 28.8846 48.6406 28.9218 48.5184C28.9448 48.4446 28.9679 48.3708 28.9916 48.2948C29.0367 48.1488 29.0801 48.0024 29.1215 47.8553C29.2653 47.3697 29.3897 47.1717 29.832 46.9208C30.2514 46.8135 30.621 46.8467 30.9999 47.0653C31.3612 47.3846 31.4387 47.7995 31.5624 48.2528C31.5986 48.374 31.635 48.4951 31.6718 48.6161C31.6979 48.7033 31.7239 48.7905 31.7499 48.8778C32.0424 48.9489 32.2722 48.9651 32.5624 48.8778C32.8355 48.6232 32.9992 48.2757 33.1724 47.9499C33.2431 47.8271 33.3172 47.7263 33.4096 47.6195C33.564 47.4266 33.6439 47.3096 33.6874 47.0653C33.5914 46.6884 33.3825 46.3515 33.1958 46.0137C32.8635 45.3766 32.7641 44.4359 32.9533 43.7445C33.0271 43.5598 33.1327 43.413 33.2499 43.2528C33.2499 43.2115 33.2499 43.1703 33.2499 43.1278C33.286 43.1099 33.3221 43.092 33.3593 43.0736C33.4474 43.0293 33.5347 42.9836 33.621 42.9359C34.0646 42.709 34.5053 42.6591 34.986 42.8058C35.4392 43.0068 35.6804 43.3011 35.8984 43.7372C36.0654 44.6058 35.8475 45.542 35.4374 46.3153C35.3876 46.3765 35.3377 46.4377 35.2863 46.5008C35.1173 46.7137 35.0105 46.8648 34.9374 47.1278C35.0219 47.5605 35.2765 47.9419 35.4999 48.3153C35.5593 48.4209 35.6183 48.5266 35.6769 48.6327C35.7216 48.7136 35.7664 48.7944 35.8124 48.8778C36.0599 48.8778 36.3074 48.8778 36.5624 48.8778C36.7108 48.5007 36.8254 48.1224 36.9306 47.7313C36.965 47.607 36.9994 47.4827 37.0339 47.3585C37.0875 47.1649 37.1406 46.9712 37.1926 46.7772C37.2433 46.5883 37.2958 46.4 37.3486 46.2118C37.371 46.1257 37.371 46.1257 37.3938 46.0379C37.5724 45.4135 37.9414 45.0905 38.4696 44.7423C40.2375 43.5736 42.3156 41.9791 42.8002 39.8031C43.069 38.4739 43.0804 37.1013 43.0766 35.7503C43.0765 35.6974 43.0764 35.6445 43.0763 35.59C43.0722 34.2178 43.0225 32.8484 42.9581 31.4779C42.921 30.6818 42.8961 29.8859 42.879 29.0891C42.8778 29.0319 42.8765 28.9747 42.8752 28.9157C42.8656 28.4677 42.8566 28.0197 42.8477 27.5717C42.8046 25.4011 42.7115 23.2354 42.6249 21.0653C37.5512 21.0653 32.4774 21.0653 27.2499 21.0653ZM25.7627 22.1694C25.7316 22.2004 25.7005 22.2314 25.6685 22.2633C25.5652 22.3663 25.4621 22.4696 25.3591 22.5729C25.2877 22.6442 25.2163 22.7155 25.1449 22.7868C24.9951 22.9365 24.8455 23.0863 24.6959 23.2362C24.5036 23.4288 24.3111 23.6211 24.1185 23.8134C23.971 23.9606 23.8236 24.1081 23.6763 24.2555C23.6054 24.3265 23.5344 24.3975 23.4633 24.4684C23.3643 24.5673 23.2654 24.6664 23.1665 24.7656C23.0819 24.8503 23.0819 24.8503 22.9955 24.9368C22.8678 25.0435 22.8678 25.0435 22.8749 25.1278C23.9474 25.1278 25.0199 25.1278 26.1249 25.1278C26.1249 24.0553 26.1249 22.9828 26.1249 21.8778C25.9904 21.8778 25.847 22.0852 25.7627 22.1694ZM49.3124 35.2528C49.2639 35.298 49.2154 35.3432 49.1655 35.3897C48.9245 35.6207 48.8162 35.7434 48.6874 36.0653C49.2443 36.6222 49.8012 37.179 50.3749 37.7528C50.5959 37.6423 50.7055 37.5633 50.8752 37.3941C50.9215 37.348 50.9677 37.3019 51.0154 37.2544C51.0632 37.2062 51.1109 37.1579 51.1601 37.1083C51.2081 37.0608 51.256 37.0133 51.3055 36.9643C51.3517 36.918 51.3979 36.8716 51.4455 36.8238C51.5084 36.7607 51.5084 36.7607 51.5726 36.6963C51.8658 36.3618 51.9577 36.0748 51.9511 35.6332C51.9151 35.2897 51.7401 34.9929 51.4999 34.7528C51.1761 34.518 50.8759 34.4751 50.4819 34.4757C49.9855 34.5551 49.6615 34.9214 49.3124 35.2528ZM47.6196 36.93C47.5655 36.9842 47.5113 37.0384 47.4555 37.0943C47.4253 37.1243 47.3951 37.1543 47.3641 37.1852C47.2624 37.2866 47.1612 37.3883 47.0599 37.4901C46.9874 37.5626 46.9148 37.635 46.8422 37.7075C46.6444 37.9049 46.4471 38.1028 46.2498 38.3007C46.0433 38.5078 45.8364 38.7145 45.6296 38.9213C45.2818 39.2692 44.9343 39.6172 44.5869 39.9655C44.186 40.3673 43.7848 40.7689 43.3834 41.1702C42.9557 41.5979 42.5283 42.0258 42.1009 42.4537C41.978 42.5767 41.8552 42.6996 41.7323 42.8225C41.5384 43.0165 41.3446 43.2106 41.151 43.4049C41.0802 43.4759 41.0093 43.5468 40.9384 43.6177C40.6014 43.9546 40.268 44.2918 39.9588 44.6549C39.8493 44.7827 39.7329 44.902 39.6135 45.0204C39.5698 45.0639 39.526 45.1074 39.481 45.1522C39.437 45.1957 39.393 45.2392 39.3476 45.284C39.3019 45.3295 39.2561 45.3749 39.209 45.4217C39.0978 45.5322 38.9864 45.6426 38.8749 45.7528C38.9763 46.0091 39.161 46.1798 39.3539 46.369C39.4057 46.4205 39.4057 46.4205 39.4585 46.473C39.5684 46.5822 39.6787 46.6909 39.789 46.7997C39.8637 46.8738 39.9384 46.9479 40.0131 47.0221C40.1959 47.2035 40.3791 47.3845 40.5624 47.5653C40.8172 47.464 40.9879 47.2819 41.1771 47.0907C41.2314 47.0366 41.2314 47.0366 41.2867 46.9813C41.4081 46.8602 41.5289 46.7387 41.6498 46.6171C41.7366 46.5303 41.8235 46.4434 41.9103 46.3566C42.1463 46.1207 42.3818 45.8845 42.6173 45.6481C42.8634 45.4012 43.1098 45.1547 43.3562 44.9081C43.8229 44.4411 44.2892 43.9738 44.7554 43.5063C45.2861 42.9742 45.8172 42.4424 46.3483 41.9107C47.4409 40.8168 48.5331 39.7224 49.6249 38.6278C49.566 38.5585 49.5069 38.4892 49.4479 38.42C49.415 38.3815 49.3821 38.3429 49.3483 38.3032C49.1251 38.047 48.8812 37.8099 48.641 37.5698C48.5458 37.4744 48.4511 37.3786 48.3564 37.2827C48.2959 37.222 48.2353 37.1613 48.1747 37.1007C48.1202 37.0459 48.0656 36.991 48.0094 36.9346C47.8301 36.7756 47.7995 36.7716 47.6196 36.93ZM34.0624 43.9403C33.8654 44.2359 33.9042 44.5316 33.9374 44.8778C34.0238 45.247 34.1335 45.6049 34.3124 45.9403C34.3537 45.9403 34.3949 45.9403 34.4374 45.9403C34.4991 45.8116 34.5601 45.6826 34.621 45.5536C34.6551 45.4818 34.6892 45.41 34.7243 45.336C34.8527 45.0326 34.8866 44.7645 34.8945 44.4364C34.898 44.3405 34.898 44.3405 34.9015 44.2428C34.8684 44.0215 34.7968 43.9533 34.6249 43.8153C34.3877 43.7005 34.2646 43.7913 34.0624 43.9403ZM38.3124 46.8778C38.1732 47.2356 38.056 47.5939 37.9531 47.9637C37.9385 48.0141 37.9239 48.0644 37.9089 48.1163C37.8189 48.3748 37.8189 48.3748 37.8749 48.6278C38.1329 48.5582 38.3907 48.4876 38.6484 48.4168C38.7218 48.397 38.7953 48.3772 38.871 48.3568C38.9762 48.3278 38.9762 48.3278 39.0834 48.2982C39.1482 48.2805 39.213 48.2628 39.2798 48.2446C39.4456 48.2003 39.4456 48.2003 39.5624 48.0653C39.3661 47.8671 39.1694 47.6693 38.9726 47.4715C38.9165 47.4149 38.8604 47.3583 38.8025 47.2999C38.7492 47.2463 38.6958 47.1928 38.6408 47.1376C38.5914 47.0878 38.542 47.0381 38.491 46.9868C38.3939 46.8707 38.3939 46.8707 38.3124 46.8778Z" fill="#7B55D3"/>
<path d="M23.0625 32.375C29.2087 32.375 35.355 32.375 41.6875 32.375C41.6875 32.7256 41.6875 33.0762 41.6875 33.4375C35.5413 33.4375 29.395 33.4375 23.0625 33.4375C23.0625 33.0869 23.0625 32.7363 23.0625 32.375Z" fill="#7B55D3"/>
<path d="M23.0625 30.3125C29.2087 30.3125 35.355 30.3125 41.6875 30.3125C41.6875 30.6631 41.6875 31.0137 41.6875 31.375C35.5413 31.375 29.395 31.375 23.0625 31.375C23.0625 31.0244 23.0625 30.6738 23.0625 30.3125Z" fill="#7B55D3"/>
<path d="M23.0625 28.25C29.2087 28.25 35.355 28.25 41.6875 28.25C41.6875 28.6006 41.6875 28.9512 41.6875 29.3125C35.5413 29.3125 29.395 29.3125 23.0625 29.3125C23.0625 28.9619 23.0625 28.6113 23.0625 28.25Z" fill="#7B55D3"/>
<path d="M28.0359 35.0131C28.7052 35.5202 29.1433 36.2444 29.2839 37.0761C29.374 37.9433 29.2057 38.772 28.6519 39.4574C28.6225 39.4932 28.5932 39.529 28.563 39.5658C28.5089 39.6451 28.5089 39.6451 28.4536 39.726C27.9123 40.3124 27.1282 40.6412 26.3399 40.7035C25.4906 40.7191 24.6082 40.4509 23.9749 39.8639C23.2586 39.0668 23.0112 38.298 23.0415 37.2443C23.085 36.438 23.4721 35.7465 24.0552 35.1987C25.2133 34.2205 26.7833 34.155 28.0359 35.0131ZM24.813 36.0033C24.3806 36.4496 24.1519 36.9263 24.1099 37.5463C24.1214 38.1609 24.3751 38.6095 24.7876 39.0463C25.18 39.4165 25.6204 39.5782 26.1567 39.5971C26.7023 39.5785 27.2279 39.3873 27.6255 39.0033C28.0834 38.4397 28.2561 37.9158 28.188 37.1908C28.0987 36.6854 27.819 36.271 27.4204 35.9516C26.5701 35.3677 25.6361 35.3639 24.813 36.0033Z" fill="#65C7C3"/>
<path d="M30.25 39.0625C34.0244 39.0625 37.7987 39.0625 41.6875 39.0625C41.6875 39.4338 41.6875 39.805 41.6875 40.1875C37.9131 40.1875 34.1388 40.1875 30.25 40.1875C30.25 39.8162 30.25 39.445 30.25 39.0625Z" fill="#7B55D3"/>
<path d="M30.25 37C34.0244 37 37.7987 37 41.6875 37C41.6875 37.3713 41.6875 37.7425 41.6875 38.125C37.9131 38.125 34.1388 38.125 30.25 38.125C30.25 37.7537 30.25 37.3825 30.25 37Z" fill="#7B55D3"/>
<path d="M32.3125 34.9375C35.4062 34.9375 38.5 34.9375 41.6875 34.9375C41.6875 35.2881 41.6875 35.6387 41.6875 36C38.5938 36 35.5 36 32.3125 36C32.3125 35.6494 32.3125 35.2988 32.3125 34.9375Z" fill="#7B55D3"/>
<path d="M23.0625 43.6875C25.455 43.6875 27.8475 43.6875 30.3125 43.6875C30.3125 44.0588 30.3125 44.43 30.3125 44.8125C27.92 44.8125 25.5275 44.8125 23.0625 44.8125C23.0625 44.4412 23.0625 44.07 23.0625 43.6875Z" fill="#7B55D3"/>
<path d="M23.0625 41.625C25.455 41.625 27.8475 41.625 30.3125 41.625C30.3125 41.9963 30.3125 42.3675 30.3125 42.75C27.92 42.75 25.5275 42.75 23.0625 42.75C23.0625 42.3787 23.0625 42.0075 23.0625 41.625Z" fill="#7B55D3"/>
<path d="M33.375 26.1875C35.4375 26.1875 37.5 26.1875 39.625 26.1875C39.625 26.5381 39.625 26.8887 39.625 27.25C37.5625 27.25 35.5 27.25 33.375 27.25C33.375 26.8994 33.375 26.5488 33.375 26.1875Z" fill="#7B55D3"/>
<path d="M33.375 24.125C35.4375 24.125 37.5 24.125 39.625 24.125C39.625 24.4756 39.625 24.8262 39.625 25.1875C37.5625 25.1875 35.5 25.1875 33.375 25.1875C33.375 24.8369 33.375 24.4863 33.375 24.125Z" fill="#7B55D3"/>
<path d="M33.375 22.0625C35.4375 22.0625 37.5 22.0625 39.625 22.0625C39.625 22.4131 39.625 22.7637 39.625 23.125C37.5625 23.125 35.5 23.125 33.375 23.125C33.375 22.7744 33.375 22.4238 33.375 22.0625Z" fill="#7B55D3"/>
<path d="M30.25 34.9375C30.6213 34.9375 30.9925 34.9375 31.375 34.9375C31.375 35.2881 31.375 35.6387 31.375 36C31.0037 36 30.6325 36 30.25 36C30.25 35.6494 30.25 35.2988 30.25 34.9375Z" fill="#65C7C3"/>
<path d="M40.5625 26.1875C40.9338 26.1875 41.305 26.1875 41.6875 26.1875C41.6875 26.5381 41.6875 26.8887 41.6875 27.25C41.3162 27.25 40.945 27.25 40.5625 27.25C40.5625 26.8994 40.5625 26.5488 40.5625 26.1875Z" fill="#65C7C3"/>
<path d="M40.5625 24.125C40.9338 24.125 41.305 24.125 41.6875 24.125C41.6875 24.4756 41.6875 24.8262 41.6875 25.1875C41.3162 25.1875 40.945 25.1875 40.5625 25.1875C40.5625 24.8369 40.5625 24.4863 40.5625 24.125Z" fill="#65C7C3"/>
<path d="M40.5625 22.0625C40.9338 22.0625 41.305 22.0625 41.6875 22.0625C41.6875 22.4131 41.6875 22.7637 41.6875 23.125C41.3162 23.125 40.945 23.125 40.5625 23.125C40.5625 22.7744 40.5625 22.4238 40.5625 22.0625Z" fill="#65C7C3"/>
<path d="M25.125 48.875C25.4756 48.875 25.8262 48.875 26.1875 48.875C26.1875 49.2256 26.1875 49.5762 26.1875 49.9375C25.8369 49.9375 25.4863 49.9375 25.125 49.9375C25.125 49.5869 25.125 49.2363 25.125 48.875Z" fill="#65C7C3"/>
</g>
</g>
<defs>
<filter id="filter0_d_1_130077" x="0" y="0" width="74" height="74" filterUnits="userSpaceOnUse" color-interpolation-filters="sRGB">
<feFlood flood-opacity="0" result="BackgroundImageFix"/>
<feColorMatrix in="SourceAlpha" type="matrix" values="0 0 0 0 0 0 0 0 0 0 0 0 0 0 0 0 0 0 127 0" result="hardAlpha"/>
<feOffset dy="1"/>
<feGaussianBlur stdDeviation="0.5"/>
<feComposite in2="hardAlpha" operator="out"/>
<feColorMatrix type="matrix" values="0 0 0 0 0 0 0 0 0 0 0 0 0 0 0 0 0 0 0.04 0"/>
<feBlend mode="normal" in2="BackgroundImageFix" result="effect1_dropShadow_1_130077"/>
<feBlend mode="normal" in="SourceGraphic" in2="effect1_dropShadow_1_130077" result="shape"/>
</filter>
<clipPath id="clip0_1_130077">
<rect width="32" height="32" fill="white" transform="translate(21 20)"/>
</clipPath>
</defs>
</svg>
