<svg width="104" height="104" viewBox="0 0 104 104" fill="none" xmlns="http://www.w3.org/2000/svg">
<path d="M52.0001 96.2003C76.4109 96.2003 96.1999 84.7457 96.1999 70.6158C96.1999 56.4858 76.4109 45.0312 52.0001 45.0312C27.5892 45.0312 7.80029 56.4858 7.80029 70.6158C7.80029 84.7457 27.5892 96.2003 52.0001 96.2003Z" fill="#FAFAFA"/>
<path d="M82.1593 90.0299C89.4968 90.0299 95.445 86.5866 95.445 82.3392C95.445 78.0917 89.4968 74.6484 82.1593 74.6484C74.8218 74.6484 68.8735 78.0917 68.8735 82.3392C68.8735 86.5866 74.8218 90.0299 82.1593 90.0299Z" fill="#EBEBEB"/>
<path d="M28.376 94.6717L13.9401 86.3101C13.5115 86.0632 13.5115 85.6607 13.9401 85.4137L50.1743 64.4436C50.4147 64.3215 50.6805 64.2578 50.9501 64.2578C51.2197 64.2578 51.4854 64.3215 51.7259 64.4436L66.1618 72.8052C66.5904 73.0541 66.5904 73.4547 66.1618 73.7017L29.9257 94.6717C29.6855 94.7936 29.42 94.8571 29.1508 94.8571C28.8816 94.8571 28.6162 94.7936 28.376 94.6717Z" fill="#EBEBEB"/>
<path d="M47.2837 64.4421L8.90053 85.0117C8.46219 85.2664 8.46219 85.6786 8.90053 85.9314L11.8331 87.6271C12.079 87.7531 12.3512 87.8187 12.6273 87.8187C12.9035 87.8187 13.1757 87.7531 13.4216 87.6271L51.8066 67.0595C52.245 66.8048 52.245 66.3945 51.8066 66.1397L48.8741 64.4421C48.6279 64.3159 48.3554 64.25 48.0789 64.25C47.8024 64.25 47.5298 64.3159 47.2837 64.4421Z" fill="#EBEBEB"/>
<path d="M59.9243 19.9632L60.254 20.1615L67.0346 16.2355L66.7029 16.0391L59.9243 19.9632Z" fill="#FAFAFA"/>
<path d="M66.7023 16.0346L60.2534 19.7662V12.9953L66.7043 9.26562L66.7023 16.0346Z" fill="white"/>
<path d="M67.6571 7.99219L59.6313 12.6377V21.2424L67.6571 16.5968V7.99219ZM67.0345 16.2352L60.2462 20.1612V12.9994L67.0345 9.07531V16.2352Z" fill="#F0F0F0"/>
<path d="M67.0343 16.2302L66.7026 16.0338L66.7046 9.26477L67.0343 9.07031V16.2302Z" fill="#E0E0E0"/>
<path d="M67.6567 7.98939L67.3212 7.79688L59.2954 12.4444L59.6309 12.6369L67.6567 7.98939Z" fill="#FAFAFA"/>
<path d="M59.2954 12.4453L59.6309 12.6378V21.2405L59.2954 21.048V12.4453Z" fill="#E0E0E0"/>
<path d="M66.451 15.8367L60.5044 19.2785V17.5576L61.9901 14.1157L62.9172 14.9752L62.5836 16.4181L64.6375 12.0156L66.451 14.1157V15.8367Z" fill="#F0F0F0"/>
<path d="M62.8607 12.4507C62.7324 12.5342 62.6256 12.647 62.5491 12.7798C62.4726 12.9126 62.4285 13.0617 62.4204 13.2149C62.4204 13.4949 62.6144 13.6038 62.8607 13.4696C62.989 13.3861 63.0958 13.2733 63.1723 13.1405C63.2488 13.0077 63.2929 12.8586 63.3009 12.7054C63.3009 12.4235 63.1031 12.3107 62.8607 12.4507Z" fill="#F0F0F0"/>
<path d="M59.9243 30.5413L60.254 30.7396L67.0346 26.8136L66.7029 26.6172L59.9243 30.5413Z" fill="#FAFAFA"/>
<path d="M66.7023 26.6127L60.2534 30.3443V23.5734L66.7043 19.8438L66.7023 26.6127Z" fill="white"/>
<path d="M67.6571 18.5703L59.6313 23.2159V31.8205L67.6571 27.175V18.5703ZM67.0345 26.8133L60.2462 30.7374V23.5775L67.0345 19.6534V26.8133Z" fill="#F0F0F0"/>
<path d="M67.0343 26.8083L66.7026 26.6119L66.7046 19.8429L67.0343 19.6484V26.8083Z" fill="#E0E0E0"/>
<path d="M67.6567 18.5675L67.3212 18.375L59.2954 23.0205L59.6309 23.2131L67.6567 18.5675Z" fill="#FAFAFA"/>
<path d="M59.2954 23.0234L59.6309 23.2159V31.8206L59.2954 31.6281V23.0234Z" fill="#E0E0E0"/>
<path d="M66.451 26.4148L60.5044 29.8567V28.1357L61.9901 24.6939L62.9172 25.5534L62.5836 26.9962L64.6375 22.5938L66.451 24.6939V26.4148Z" fill="#F0F0F0"/>
<path d="M62.8607 23.0288C62.7324 23.1124 62.6256 23.2251 62.5491 23.358C62.4726 23.4908 62.4285 23.6399 62.4204 23.793C62.4204 24.073 62.6144 24.1819 62.8607 24.0478C62.989 23.9642 63.0958 23.8514 63.1723 23.7186C63.2488 23.5858 63.2929 23.4367 63.3009 23.2836C63.3009 23.0016 63.1031 22.8888 62.8607 23.0288Z" fill="#F0F0F0"/>
<path d="M60.0417 72.1708C60.0417 72.1708 59.0719 67.9589 61.2054 63.8482C62.3982 61.5516 64.6655 60.3052 65.8331 60.2235C67.1423 60.134 68.4049 61.3202 67.1559 62.8253C65.9669 64.2565 63.8102 64.8068 62.3323 68.5695C61.3625 71.0508 61.3722 72.9078 61.3722 72.9078L60.0417 72.1708Z" fill="#7B55D3"/>
<path opacity="0.5" d="M60.0417 72.1708C60.0417 72.1708 59.0719 67.9589 61.2054 63.8482C62.3982 61.5516 64.6655 60.3052 65.8331 60.2235C67.1423 60.134 68.4049 61.3202 67.1559 62.8253C65.9669 64.2565 63.8102 64.8068 62.3323 68.5695C61.3625 71.0508 61.3722 72.9078 61.3722 72.9078L60.0417 72.1708Z" fill="white"/>
<path d="M60.8937 71.1165C60.9033 71.1171 60.913 71.1157 60.9222 71.1124C60.9313 71.1092 60.9397 71.1042 60.9469 71.0977C60.9541 71.0912 60.96 71.0833 60.9642 71.0745C60.9683 71.0658 60.9707 71.0562 60.9712 71.0465C60.6958 66.4068 63.7195 62.5858 65.9539 61.3529C65.9624 61.3498 65.97 61.3446 65.976 61.3379C65.9821 61.3312 65.9865 61.3231 65.9887 61.3143C65.991 61.3055 65.9912 61.2963 65.9892 61.2875C65.9871 61.2786 65.983 61.2704 65.9771 61.2635C65.963 61.2485 65.9442 61.2386 65.9239 61.2355C65.9035 61.2323 65.8827 61.236 65.8647 61.246C63.5974 62.4963 60.529 66.366 60.8083 71.0563C60.8097 71.066 60.8131 71.0753 60.8182 71.0836C60.8233 71.092 60.83 71.0992 60.838 71.1048C60.846 71.1105 60.8551 71.1144 60.8646 71.1165C60.8742 71.1185 60.8841 71.1185 60.8937 71.1165Z" fill="white"/>
<path d="M61.3669 72.9096C61.6268 71.8479 62.4395 70.5645 64.0823 69.4347C65.725 68.3049 67.9613 67.2957 67.715 66.2495C67.4687 65.2034 65.7425 65.1859 64.5012 65.7245C63.2599 66.2632 60.3855 68.7405 60.6706 72.5305L61.3669 72.9096Z" fill="#7B55D3"/>
<path opacity="0.65" d="M61.3669 72.9096C61.6268 71.8479 62.4395 70.5645 64.0823 69.4347C65.725 68.3049 67.9613 67.2957 67.715 66.2495C67.4687 65.2034 65.7425 65.1859 64.5012 65.7245C63.2599 66.2632 60.3855 68.7405 60.6706 72.5305L61.3669 72.9096Z" fill="white"/>
<path d="M61.1162 71.5018C61.1336 71.5017 61.1506 71.496 61.1646 71.4855C61.1785 71.475 61.1888 71.4602 61.1938 71.4435C61.5681 69.1975 64.9933 66.4479 66.5177 66.0493C66.527 66.0482 66.5359 66.0451 66.5439 66.0403C66.5519 66.0354 66.5587 66.0289 66.5638 66.0211C66.569 66.0133 66.5724 66.0045 66.5738 65.9952C66.5753 65.986 66.5747 65.9766 66.572 65.9676C66.5632 65.9495 66.548 65.9354 66.5294 65.9278C66.5108 65.9203 66.4901 65.9199 66.4712 65.9267C64.873 66.3448 61.4284 69.0944 61.0405 71.4298C61.0405 71.4648 61.0677 71.4979 61.1123 71.5018H61.1162Z" fill="white"/>
<path d="M10.8013 85.6083C10.8105 85.5059 10.8456 85.4075 10.9032 85.3224C10.9609 85.2373 11.0393 85.1684 11.131 85.1222L43.8973 64.471V34.2487L47.9606 29.2085C48.6583 28.2553 49.0628 27.1184 49.1243 25.9377V8.9073C49.1243 7.89029 48.4261 7.50138 47.5727 8.03808L11.131 30.7388C11.0393 30.785 10.9609 30.854 10.9032 30.939C10.8456 31.0241 10.8105 31.1225 10.8013 31.225V85.6083Z" fill="#7B55D3"/>
<path opacity="0.3" d="M46.8743 13.4508C46.8743 12.4338 46.1547 12.0098 45.2684 12.5018L11.9086 31.012C11.5717 31.1811 11.19 31.2383 10.8186 31.1754C10.8176 31.1929 10.8176 31.2104 10.8186 31.2279V85.5588C10.8367 85.467 10.8749 85.3805 10.9306 85.3054C10.9863 85.2304 11.0581 85.1688 11.1405 85.1251L43.9068 64.4739V34.2517L46.884 30.557L46.8743 13.4508Z" fill="black"/>
<path d="M11.1 86.0415C11.3421 86.1593 11.6082 86.2194 11.8774 86.2171C12.1465 86.2147 12.4115 86.15 12.6516 86.0279L46.0114 67.5177C46.8997 67.0257 47.6173 65.8026 47.6173 64.7953V14.0832C47.6173 13.0682 46.8997 12.6423 46.0114 13.1343L12.6516 31.6445C12.4117 31.7669 12.1468 31.832 11.8776 31.8347C11.6084 31.8374 11.3423 31.7776 11.1 31.6601C11.0169 31.6216 10.9455 31.5617 10.8931 31.4866C10.8406 31.4114 10.8089 31.3237 10.8013 31.2323V85.6079C10.8075 85.7004 10.8386 85.7895 10.8911 85.8659C10.9437 85.9422 11.0159 86.0029 11.1 86.0415Z" fill="#7B55D3"/>
<path opacity="0.3" d="M11.1 86.0415C11.3421 86.1593 11.6082 86.2194 11.8774 86.2171C12.1465 86.2147 12.4115 86.15 12.6516 86.0279L46.0114 67.5177C46.8997 67.0257 47.6173 65.8026 47.6173 64.7953V14.0832C47.6173 13.0682 46.8997 12.6423 46.0114 13.1343L12.6516 31.6445C12.4117 31.7669 12.1468 31.832 11.8776 31.8347C11.6084 31.8374 11.3423 31.7776 11.1 31.6601C11.0169 31.6216 10.9455 31.5617 10.8931 31.4866C10.8406 31.4114 10.8089 31.3237 10.8013 31.2323V85.6079C10.8075 85.7004 10.8386 85.7895 10.8911 85.8659C10.9437 85.9422 11.0159 86.0029 11.1 86.0415Z" fill="white"/>
<path opacity="0.3" d="M11.8525 31.8352C11.593 31.8421 11.336 31.7825 11.1058 31.6622C11.0216 31.6245 10.9491 31.565 10.8955 31.4898C10.842 31.4146 10.8095 31.3264 10.8013 31.2344V85.61C10.8075 85.7025 10.8386 85.7916 10.8911 85.868C10.9437 85.9443 11.0159 86.005 11.1 86.0436C11.33 86.1646 11.587 86.2249 11.8467 86.2186L11.8525 31.8352Z" fill="white"/>
<path d="M16.3129 31.2117C16.3008 31.2117 16.2888 31.2141 16.2776 31.2188C16.2664 31.2235 16.2563 31.2305 16.2478 31.2391C16.2393 31.2478 16.2326 31.2581 16.2281 31.2695C16.2237 31.2808 16.2215 31.2929 16.2218 31.305V82.2154C16.2218 82.2412 16.232 82.2659 16.2502 82.2842C16.2684 82.3024 16.293 82.3127 16.3187 82.3127C16.3445 82.3127 16.3691 82.3024 16.3873 82.2842C16.4055 82.2659 16.4157 82.2412 16.4157 82.2154V31.305C16.4161 31.2918 16.4136 31.2787 16.4085 31.2665C16.4033 31.2544 16.3956 31.2435 16.3858 31.2346C16.376 31.2257 16.3644 31.2191 16.3519 31.2151C16.3393 31.2112 16.326 31.21 16.3129 31.2117ZM13.3319 32.9385C13.3077 32.9385 13.2845 32.9481 13.2674 32.9652C13.2503 32.9824 13.2407 33.0056 13.2407 33.0299V83.9422C13.2407 83.9664 13.2503 83.9897 13.2674 84.0068C13.2845 84.024 13.3077 84.0336 13.3319 84.0336C13.3561 84.0336 13.3792 84.024 13.3963 84.0068C13.4134 83.9897 13.423 83.9664 13.423 83.9422V33.0299C13.4231 33.0063 13.414 32.9836 13.3977 32.9666C13.3815 32.9495 13.3593 32.9395 13.3358 32.9385H13.3319ZM14.8234 32.0751C14.799 32.0751 14.7756 32.0846 14.7582 32.1017C14.7408 32.1188 14.7308 32.1421 14.7303 32.1665V83.0788C14.7308 83.1032 14.7408 83.1265 14.7582 83.1436C14.7756 83.1606 14.799 83.1702 14.8234 83.1702C14.8475 83.1702 14.8707 83.1606 14.8878 83.1434C14.9049 83.1263 14.9145 83.1031 14.9145 83.0788V32.1665C14.9146 32.1429 14.9055 32.1202 14.8892 32.1032C14.873 32.0861 14.8507 32.0761 14.8273 32.0751H14.8234Z" fill="#7B55D3"/>
<path d="M19.4043 34.1407L18.6382 33.6973L53.0705 13.7656L53.8386 14.209L19.4043 34.1407Z" fill="#F0F0F0"/>
<path d="M53.839 14.2109V67.2312L19.3911 87.1706L19.4047 34.1426L53.839 14.2109Z" fill="#FAFAFA"/>
<path d="M53.6547 14.5279V67.1262L19.5754 86.8517L19.5889 34.2476L53.6547 14.5279ZM53.8487 14.2109L19.4047 34.1426L19.3911 87.1706L53.839 67.2312V14.2109H53.8487Z" fill="#EBEBEB"/>
<path d="M19.4043 34.1387L19.3907 87.1667L18.6459 86.735L18.6382 33.6953L19.3907 34.1289L19.4043 34.1387Z" fill="#E0E0E0"/>
<path d="M63.477 71.9603V72.8509L29.0428 92.7787L28.6548 92.559C26.3316 91.2081 24.4025 89.2697 23.0602 86.9374C21.7179 84.6052 21.0094 81.9606 21.0054 79.268V38.127L55.4377 18.1953L56.2135 18.6387V59.3343C56.2133 61.8927 56.8843 64.4061 58.1592 66.6223C59.4342 68.8385 61.2681 70.6794 63.477 71.9603Z" fill="#F0F0F0"/>
<path d="M56.2053 59.3363V18.6406L21.7729 38.5723V79.2699C21.7733 81.8289 22.4452 84.3427 23.7212 86.5589C24.9972 88.7751 26.8323 90.6158 29.0423 91.8959L63.4766 71.9642C61.2659 70.6841 59.4302 68.8433 58.1539 66.6267C56.8775 64.4101 56.2055 61.8958 56.2053 59.3363ZM21.9359 79.2699V38.6695L56.0346 18.9343V59.3363C56.0389 61.8751 56.6949 64.37 57.9395 66.581C59.1841 68.792 60.9754 70.6445 63.141 71.9603L29.0423 91.6976C26.8826 90.424 25.0914 88.608 23.8452 86.4286C22.599 84.2493 21.9409 81.782 21.9359 79.2699Z" fill="#E0E0E0"/>
<path d="M63.1422 71.9558L29.0434 91.693C26.8838 90.4194 25.0925 88.6034 23.8463 86.4241C22.6001 84.2448 21.9421 81.7774 21.937 79.2654V38.665L56.0358 18.9297V59.3317C56.04 61.8705 56.696 64.3655 57.9406 66.5765C59.1852 68.7874 60.9766 70.64 63.1422 71.9558Z" fill="#FAFAFA"/>
<path d="M21.7714 79.266V38.5684L20.9956 38.125V79.266C20.9997 81.9594 21.7086 84.6045 23.0516 86.9372C24.3946 89.2699 26.3247 91.2083 28.649 92.5589L29.0369 92.7787V91.892C26.8276 90.6113 24.9932 88.7705 23.718 86.5543C22.4427 84.3381 21.7714 81.8245 21.7714 79.266Z" fill="#E0E0E0"/>
<path opacity="0.15" d="M29.0425 91.8926V92.7793L63.4787 72.8496V71.9609L29.0425 91.8926Z" fill="black"/>
<path d="M45.4764 29.3811L53.6942 24.6228C53.8881 24.5061 54.0607 24.5897 54.0607 24.8172C54.0517 24.9407 54.0138 25.0603 53.9501 25.1664C53.8864 25.2724 53.7987 25.362 53.6942 25.4278L45.4764 30.1861C45.2728 30.3028 45.1079 30.2192 45.1079 29.9917C45.1163 29.8678 45.1541 29.7477 45.2182 29.6415C45.2823 29.5353 45.3708 29.446 45.4764 29.3811Z" fill="#E0E0E0"/>
<path d="M45.4764 32.5686L53.6942 27.8103C53.8881 27.6936 54.0607 27.7772 54.0607 28.0047C54.0517 28.1282 54.0138 28.2478 53.9501 28.3539C53.8864 28.4599 53.7987 28.5495 53.6942 28.6153L45.4764 33.3717C45.2728 33.4884 45.1079 33.4048 45.1079 33.1772C45.1166 33.0537 45.1545 32.934 45.2186 32.8282C45.2827 32.7223 45.3711 32.6333 45.4764 32.5686Z" fill="#E0E0E0"/>
<path d="M48.5526 29.1936L53.6943 26.2165C53.8882 26.0998 54.0608 26.1835 54.0608 26.411C54.0518 26.5344 54.0139 26.654 53.9502 26.7601C53.8865 26.8662 53.7988 26.9557 53.6943 27.0216L48.5526 29.9987C48.3586 30.1154 48.1841 30.0317 48.1841 29.8042C48.1924 29.6804 48.2303 29.5603 48.2944 29.4541C48.3585 29.3478 48.447 29.2585 48.5526 29.1936Z" fill="#E0E0E0"/>
<path d="M25.826 50.1851L52.6845 34.6384C52.8882 34.5217 53.0511 34.6053 53.0511 34.8329C53.043 34.9566 53.0054 35.0765 52.9417 35.1827C52.8779 35.2889 52.7898 35.3783 52.6845 35.4434L25.826 50.9999C25.6321 51.1185 25.4595 51.0349 25.4595 50.8054C25.4674 50.6804 25.5047 50.5589 25.5684 50.4511C25.6321 50.3433 25.7204 50.2521 25.826 50.1851Z" fill="#E0E0E0"/>
<path d="M25.826 51.7808L52.6845 36.2243C52.8882 36.1077 53.0511 36.1913 53.0511 36.4188C53.043 36.5425 53.0054 36.6624 52.9417 36.7687C52.8779 36.8749 52.7898 36.9643 52.6845 37.0294L25.826 52.578C25.6321 52.6967 25.4595 52.6131 25.4595 52.3836C25.47 52.2616 25.5086 52.1436 25.5722 52.0391C25.6358 51.9345 25.7227 51.8461 25.826 51.7808Z" fill="#E0E0E0"/>
<path d="M25.826 53.3745L52.6845 37.8181C52.8882 37.7014 53.0511 37.785 53.0511 38.0125C53.043 38.1362 53.0054 38.2562 52.9417 38.3624C52.8779 38.4686 52.7898 38.558 52.6845 38.6231L25.826 54.1815C25.6321 54.3001 25.4595 54.2165 25.4595 53.9871C25.4686 53.8633 25.5064 53.7435 25.5701 53.6371C25.6338 53.5307 25.7214 53.4408 25.826 53.3745Z" fill="#E0E0E0"/>
<path d="M25.826 54.9683L52.6845 39.4118C52.8882 39.2952 53.0511 39.3788 53.0511 39.6063C53.043 39.73 53.0054 39.8499 52.9417 39.9562C52.8779 40.0624 52.7898 40.1518 52.6845 40.2169L25.826 55.7655C25.6321 55.8842 25.4595 55.8005 25.4595 55.5711C25.4697 55.449 25.5082 55.3309 25.5718 55.2263C25.6354 55.1217 25.7225 55.0333 25.826 54.9683Z" fill="#E0E0E0"/>
<path d="M25.8251 58.1883L52.6836 42.6318C52.8872 42.5132 53.0501 42.5968 53.0501 42.8263C53.0415 42.9501 53.0038 43.0702 52.9401 43.1766C52.8764 43.2831 52.7885 43.3729 52.6836 43.4388L25.8251 58.9855C25.6311 59.1022 25.4585 59.0186 25.4585 58.7911C25.4687 58.669 25.5072 58.5509 25.5708 58.4463C25.6345 58.3417 25.7215 58.2533 25.8251 58.1883Z" fill="#E0E0E0"/>
<path d="M25.8251 59.7804L52.6836 44.2337C52.8872 44.1151 53.0501 44.1987 53.0501 44.4184C53.0415 44.5422 53.0038 44.6623 52.9401 44.7687C52.8764 44.8752 52.7885 44.965 52.6836 45.0309L25.8251 60.5874C25.6311 60.7041 25.4585 60.6204 25.4585 60.3929C25.4673 60.2691 25.505 60.1491 25.5687 60.0427C25.6324 59.9363 25.7202 59.8464 25.8251 59.7804Z" fill="#E0E0E0"/>
<path d="M25.8251 61.3722L52.6836 45.8274C52.8872 45.7088 53.0501 45.7924 53.0501 46.0122C53.0415 46.136 53.0038 46.256 52.9401 46.3625C52.8764 46.4689 52.7885 46.5588 52.6836 46.6247L25.8251 62.1695C25.6311 62.2881 25.4585 62.2045 25.4585 61.975C25.4693 61.8531 25.508 61.7352 25.5716 61.6307C25.6352 61.5262 25.7219 61.4377 25.8251 61.3722Z" fill="#E0E0E0"/>
<path d="M25.8251 62.9735L52.6836 47.4287C52.8872 47.3101 53.0501 47.3937 53.0501 47.6232C53.0415 47.747 53.0038 47.867 52.9401 47.9735C52.8764 48.0799 52.7885 48.1698 52.6836 48.2357L25.8251 63.7707C25.6311 63.8894 25.4585 63.8057 25.4585 63.586C25.4679 63.4624 25.5059 63.3426 25.5695 63.2363C25.6332 63.1299 25.7207 63.04 25.8251 62.9735Z" fill="#E0E0E0"/>
<path d="M25.8251 66.1933L52.6836 50.6466C52.8872 50.5299 53.0501 50.6116 53.0501 50.841C53.042 50.9647 53.0045 51.0847 52.9407 51.1909C52.8769 51.2971 52.7888 51.3865 52.6836 51.4516L25.8251 67.0081C25.6311 67.1248 25.4585 67.0411 25.4585 66.8136C25.4661 66.6885 25.5033 66.5669 25.567 66.4591C25.6308 66.3512 25.7192 66.2601 25.8251 66.1933Z" fill="#E0E0E0"/>
<path d="M25.8251 67.7968L52.6836 52.2403C52.8872 52.1237 53.0501 52.2053 53.0501 52.4348C53.042 52.5585 53.0045 52.6784 52.9407 52.7847C52.8769 52.8909 52.7888 52.9803 52.6836 53.0454L25.8251 68.5863C25.6311 68.7029 25.4585 68.6193 25.4585 68.3918C25.4699 68.2711 25.5089 68.1546 25.5725 68.0514C25.636 67.9482 25.7225 67.8611 25.8251 67.7968Z" fill="#E0E0E0"/>
<path d="M25.8251 69.3829L40.2202 61.0446C40.4142 60.928 40.5868 61.0116 40.5868 61.2391C40.5777 61.3626 40.5398 61.4822 40.4761 61.5882C40.4124 61.6943 40.3248 61.7839 40.2202 61.8497L25.8251 70.1879C25.6311 70.3046 25.4585 70.221 25.4585 69.9935C25.4676 69.87 25.5055 69.7504 25.5692 69.6444C25.6328 69.5383 25.7205 69.4487 25.8251 69.3829Z" fill="#E0E0E0"/>
<path d="M25.8251 72.214L35.3889 66.67C35.5828 66.5534 35.7554 66.635 35.7554 66.8645C35.7473 66.9882 35.7098 67.1081 35.646 67.2143C35.5822 67.3206 35.4941 67.4099 35.3889 67.4751L25.8251 73.019C25.6311 73.1357 25.4585 73.0521 25.4585 72.8245C25.4676 72.7011 25.5055 72.5815 25.5692 72.4754C25.6328 72.3694 25.7205 72.2798 25.8251 72.214Z" fill="#7B55D3"/>
<path d="M27.5614 44.6958C27.5635 44.6583 27.5741 44.6217 27.5924 44.5889C27.6047 44.5642 27.6235 44.5434 27.6468 44.5286L27.8853 44.3886C27.8937 44.3823 27.9039 44.3789 27.9144 44.3789C27.9249 44.3789 27.9351 44.3823 27.9435 44.3886C27.9525 44.3989 27.959 44.411 27.9627 44.4241C27.9664 44.4372 27.9671 44.451 27.9648 44.4644C27.958 44.6022 27.9378 44.7389 27.9047 44.8728C27.8682 45.0208 27.8155 45.1642 27.7476 45.3006C27.6743 45.4446 27.5838 45.5792 27.478 45.7012C27.3685 45.8307 27.2372 45.9399 27.0901 46.024C26.9828 46.0936 26.859 46.1332 26.7313 46.1387C26.6326 46.1389 26.5376 46.1013 26.4656 46.0337C26.3837 45.95 26.3254 45.846 26.2968 45.7323C26.2524 45.5819 26.2277 45.4263 26.2231 45.2695C26.2231 45.1567 26.2231 45.0271 26.2231 44.8806C26.2231 44.7341 26.2231 44.6045 26.2231 44.4917C26.2308 44.3076 26.2555 44.1247 26.2968 43.9453C26.3334 43.7733 26.39 43.6062 26.4656 43.4474C26.5355 43.2988 26.6249 43.1602 26.7313 43.0352C26.8326 42.9147 26.954 42.8127 27.0901 42.7338C27.2061 42.6574 27.3396 42.6119 27.478 42.6016C27.5803 42.6027 27.6787 42.6407 27.7554 42.7085C27.8297 42.7745 27.8841 42.8601 27.9125 42.9555C27.9474 43.0644 27.9676 43.1776 27.9726 43.2919C27.9747 43.3269 27.9673 43.3618 27.9513 43.393C27.9388 43.4208 27.9186 43.4444 27.8931 43.4611L27.6545 43.5991C27.646 43.6043 27.6363 43.607 27.6264 43.607C27.6165 43.607 27.6067 43.6043 27.5983 43.5991C27.5876 43.591 27.5792 43.5803 27.5738 43.5681C27.5684 43.5559 27.5661 43.5425 27.5672 43.5291C27.5612 43.476 27.5468 43.4241 27.5246 43.3755C27.5059 43.333 27.4757 43.2966 27.4373 43.2705C27.3943 43.2462 27.3448 43.236 27.2957 43.2413C27.2265 43.2517 27.1604 43.2769 27.1017 43.3152C27.0275 43.3595 26.9619 43.4168 26.9078 43.4844C26.8501 43.5543 26.8019 43.6314 26.7643 43.7138C26.7243 43.8 26.695 43.8908 26.677 43.9841C26.6561 44.0788 26.6438 44.1751 26.6401 44.2719C26.6401 44.3906 26.6401 44.5189 26.6401 44.6608C26.6401 44.8028 26.6401 44.9273 26.6401 45.04C26.6421 45.1242 26.6545 45.2078 26.677 45.2889C26.6911 45.3508 26.7212 45.4078 26.7643 45.4542C26.8025 45.4924 26.8538 45.5147 26.9078 45.5165C26.9768 45.5147 27.0439 45.4938 27.1017 45.4562C27.1734 45.4122 27.2387 45.3586 27.2957 45.2967C27.3504 45.2378 27.398 45.1725 27.4373 45.1023C27.4753 45.0365 27.5058 44.9667 27.5284 44.8942C27.5461 44.8294 27.5572 44.7629 27.5614 44.6958Z" fill="#7B55D3"/>
<path d="M28.2371 43.316C28.2433 43.1422 28.2641 42.9692 28.2992 42.7988C28.3349 42.632 28.3889 42.4696 28.4601 42.3146C28.5302 42.1649 28.6196 42.025 28.7259 41.8985C28.8348 41.77 28.9663 41.6626 29.1138 41.5815C29.225 41.5073 29.3546 41.4656 29.4881 41.4609C29.5371 41.4607 29.5856 41.4702 29.6309 41.4889C29.6761 41.5076 29.7173 41.5351 29.7519 41.5698C29.8303 41.6537 29.8863 41.756 29.9148 41.8674C29.9542 42.0126 29.9757 42.1622 29.9788 42.3127C29.9788 42.369 29.9788 42.4313 29.9788 42.5071C29.9788 42.583 29.9788 42.6491 29.9788 42.723C29.9788 42.7969 29.9788 42.8688 29.9788 42.9388C29.9788 43.0088 29.9788 43.0749 29.9788 43.1333C29.9735 43.3072 29.9528 43.4803 29.9167 43.6505C29.881 43.8173 29.827 43.9797 29.7558 44.1347C29.6864 44.2853 29.5963 44.4254 29.4881 44.5508C29.3823 44.6761 29.2557 44.782 29.1138 44.8639C28.9979 44.9392 28.8638 44.9816 28.7259 44.9864C28.6269 44.986 28.5319 44.9478 28.4601 44.8795C28.3823 44.7948 28.3269 44.6918 28.2992 44.58C28.2615 44.4351 28.2407 44.2863 28.2371 44.1366C28.2371 44.0803 28.2371 44.018 28.2371 43.9422V43.5105C28.2332 43.4405 28.2352 43.3744 28.2371 43.316ZM29.5715 42.5654C29.5782 42.4887 29.5696 42.4114 29.5463 42.3379C29.523 42.2645 29.4854 42.1964 29.4357 42.1376C29.3504 42.0657 29.2418 42.0696 29.1041 42.1493C28.9587 42.2376 28.8431 42.3677 28.7724 42.5227C28.6853 42.705 28.6384 42.9039 28.6347 43.106C28.6347 43.2247 28.6347 43.353 28.6347 43.4949C28.6347 43.6369 28.6347 43.7633 28.6347 43.8839C28.6286 43.9604 28.6376 44.0375 28.6612 44.1106C28.6848 44.1836 28.7226 44.2513 28.7724 44.3097C28.8558 44.3797 28.9664 44.3739 29.1041 44.2942C29.2484 44.2064 29.3638 44.0778 29.4357 43.9247C29.5228 43.7425 29.5692 43.5434 29.5715 43.3413C29.5715 43.2227 29.5715 43.0944 29.5715 42.9524C29.5715 42.8105 29.5754 42.6782 29.5715 42.5654Z" fill="#7B55D3"/>
<path d="M31.6986 43.311C31.6656 43.3305 31.6404 43.3324 31.6229 43.311L31.5842 43.2702L30.7579 41.8546V43.7291C30.7574 43.7641 30.7495 43.7985 30.7346 43.8302C30.7234 43.8582 30.7037 43.882 30.6784 43.8983L30.4398 44.0363C30.4321 44.0432 30.4221 44.047 30.4117 44.047C30.4014 44.047 30.3914 44.0432 30.3836 44.0363C30.375 44.0262 30.3685 44.0145 30.3645 44.0018C30.3605 43.9891 30.359 43.9757 30.3603 43.9625V41.0242C30.3606 40.9892 30.3685 40.9547 30.3836 40.9231C30.3949 40.8951 30.4145 40.8714 30.4398 40.8551L30.6474 40.7345C30.6803 40.715 30.7056 40.715 30.723 40.7345L30.7618 40.7773L31.5861 42.1929V40.3184C31.5869 40.2832 31.5955 40.2486 31.6113 40.2172C31.6219 40.1888 31.6417 40.1648 31.6676 40.1492L31.9061 40.0111C31.9134 40.004 31.9231 40 31.9333 40C31.9434 40 31.9532 40.004 31.9604 40.0111C31.9698 40.0204 31.9769 40.0317 31.9813 40.0442C31.9856 40.0567 31.9871 40.0699 31.9856 40.0831V43.0232C31.9856 43.0579 31.9769 43.092 31.9604 43.1224C31.9498 43.1507 31.9309 43.1751 31.9061 43.1924L31.6986 43.311Z" fill="#7B55D3"/>
<path d="M33.8183 38.9012C33.8261 38.8944 33.8361 38.8906 33.8464 38.8906C33.8567 38.8906 33.8667 38.8944 33.8745 38.9012C33.883 38.9111 33.8894 38.9225 33.8934 38.9348C33.8974 38.9472 33.8989 38.9602 33.8978 38.9732V39.2979C33.8975 39.3323 33.8895 39.3662 33.8745 39.3971C33.8627 39.4252 33.8432 39.4495 33.8183 39.4671L33.2888 39.7743V42.2673C33.2885 42.3025 33.2799 42.3372 33.2636 42.3684C33.2524 42.3964 33.2327 42.4202 33.2073 42.4364L32.9688 42.5745C32.9613 42.5812 32.9516 42.5849 32.9416 42.5849C32.9316 42.5849 32.9219 42.5812 32.9145 42.5745C32.9051 42.5648 32.8979 42.5532 32.8936 42.5404C32.8892 42.5276 32.8877 42.514 32.8892 42.5006V40.0077L32.3598 40.3149C32.352 40.3218 32.342 40.3255 32.3316 40.3255C32.3213 40.3255 32.3113 40.3218 32.3035 40.3149C32.2949 40.3048 32.2884 40.293 32.2844 40.2803C32.2804 40.2677 32.279 40.2543 32.2802 40.241V39.9182C32.2805 39.8839 32.2885 39.85 32.3035 39.8191C32.3154 39.7909 32.3348 39.7667 32.3598 39.7491L33.8183 38.9012Z" fill="#7B55D3"/>
<path d="M35.032 38.1941C35.2784 38.0521 35.4646 38.0327 35.5926 38.1338C35.7206 38.2349 35.7865 38.4449 35.7865 38.756C35.788 38.9681 35.7546 39.179 35.6876 39.3802C35.6244 39.5691 35.5257 39.744 35.3967 39.8955L35.804 40.7842C35.8065 40.799 35.8065 40.8141 35.804 40.8289C35.8035 40.8572 35.7969 40.8851 35.7846 40.9106C35.7749 40.9336 35.7587 40.9532 35.738 40.967L35.4878 41.1128C35.449 41.1362 35.4199 41.1362 35.4005 41.1128C35.3836 41.0972 35.3703 41.0779 35.3618 41.0564L34.9739 40.2203L34.5859 40.4478V41.5076C34.5854 41.5426 34.5775 41.577 34.5627 41.6087C34.5514 41.6367 34.5317 41.6604 34.5064 41.6768L34.2679 41.8148C34.2603 41.8221 34.2502 41.8261 34.2397 41.8261C34.2293 41.8261 34.2192 41.8221 34.2116 41.8148C34.2031 41.805 34.1967 41.7936 34.1927 41.7812C34.1887 41.7688 34.1872 41.7558 34.1883 41.7429V38.8046C34.1886 38.7696 34.1966 38.7351 34.2116 38.7035C34.2229 38.6756 34.2425 38.6518 34.2679 38.6355L35.032 38.1941ZM34.5898 39.8839L35.0185 39.6369C35.1262 39.5775 35.2181 39.4927 35.2861 39.39C35.3594 39.269 35.3946 39.1287 35.387 38.9874C35.387 38.8163 35.354 38.723 35.2861 38.7035C35.1915 38.6906 35.0955 38.715 35.0185 38.7716L34.5898 39.0147V39.8839Z" fill="#7B55D3"/>
<path d="M37.1386 36.9755C37.1696 36.9561 37.1929 36.9561 37.2084 36.9755C37.2291 37.0025 37.2436 37.0337 37.2511 37.0669L37.9726 39.5248C37.9739 39.5352 37.9739 39.5456 37.9726 39.5559C37.9716 39.5905 37.963 39.6243 37.9474 39.6551C37.9362 39.6837 37.9166 39.7081 37.8911 39.7251L37.6797 39.8476C37.6409 39.869 37.6119 39.8729 37.5963 39.8476C37.5812 39.8319 37.5705 39.8124 37.5653 39.7912L37.4373 39.3595L36.5063 39.9001L36.3803 40.4835C36.3727 40.5157 36.3616 40.547 36.3473 40.5768C36.3295 40.6142 36.3003 40.6448 36.2639 40.6643L36.0525 40.7868C36.0449 40.7941 36.0348 40.7981 36.0244 40.7981C36.0139 40.7981 36.0038 40.7941 35.9962 40.7868C35.9878 40.777 35.9813 40.7656 35.9773 40.7532C35.9733 40.7409 35.9718 40.7278 35.973 40.7149C35.9719 40.7033 35.9719 40.6915 35.973 40.6799L36.6964 37.3858C36.705 37.3378 36.7186 37.2909 36.7371 37.2458C36.7518 37.2121 36.777 37.1841 36.8089 37.1661L37.1386 36.9755ZM37.2996 38.8792L36.9757 37.7689L36.6518 39.2545L37.2996 38.8792Z" fill="#7B55D3"/>
<path d="M39.4706 37.8035C39.4742 37.7662 39.4848 37.7299 39.5017 37.6965C39.5146 37.6722 39.5332 37.6515 39.556 37.6362L39.7946 37.4982C39.8029 37.4918 39.8132 37.4884 39.8236 37.4884C39.8341 37.4884 39.8443 37.4918 39.8527 37.4982C39.8621 37.5082 39.869 37.5203 39.873 37.5334C39.877 37.5465 39.8781 37.5604 39.876 37.574C39.8675 37.7117 39.8467 37.8484 39.8139 37.9824C39.7789 38.1308 39.7262 38.2744 39.6568 38.4102C39.5855 38.5575 39.4969 38.6959 39.3931 38.8224C39.2825 38.9508 39.1514 39.0599 39.0052 39.1452C38.8979 39.2148 38.774 39.2544 38.6464 39.2599C38.5474 39.2596 38.4524 39.2213 38.3806 39.153C38.2997 39.0693 38.2416 38.9662 38.2119 38.8535C38.1685 38.7029 38.1444 38.5474 38.1401 38.3907C38.1401 38.276 38.1401 38.1515 38.1401 38.0115C38.1401 37.8715 38.1401 37.7432 38.1401 37.6226C38.1473 37.4387 38.1713 37.2557 38.2119 37.0762C38.2505 36.9054 38.3071 36.7392 38.3806 36.5803C38.4513 36.4315 38.5406 36.2924 38.6464 36.1661C38.7483 36.0468 38.8696 35.9455 39.0052 35.8667C39.1207 35.7894 39.2545 35.7438 39.3931 35.7344C39.4899 35.7327 39.5844 35.7642 39.6607 35.8239C39.7357 35.8901 39.7902 35.9765 39.8178 36.0728C39.8528 36.1818 39.8736 36.2949 39.8799 36.4092C39.8808 36.4443 39.8728 36.4791 39.8566 36.5103C39.8442 36.5377 39.8239 36.5607 39.7984 36.5764L39.5599 36.7164C39.5513 36.7212 39.5416 36.7237 39.5317 36.7237C39.5219 36.7237 39.5122 36.7212 39.5036 36.7164C39.4862 36.7164 39.4765 36.6834 39.4726 36.6464C39.4681 36.593 39.4536 36.5409 39.4299 36.4928C39.4112 36.4508 39.3809 36.4151 39.3426 36.3898C39.3003 36.3637 39.2502 36.3533 39.2011 36.3606C39.132 36.3701 39.0658 36.3947 39.0071 36.4325C38.9332 36.4781 38.8676 36.5359 38.8132 36.6037C38.7562 36.6733 38.708 36.7497 38.6696 36.8312C38.6307 36.9178 38.6015 37.0084 38.5824 37.1015C38.5615 37.1968 38.5492 37.2937 38.5455 37.3912C38.5455 37.5079 38.5455 37.6382 38.5455 37.7801C38.5455 37.9221 38.5455 38.0465 38.5455 38.1593C38.5473 38.2435 38.5597 38.3271 38.5824 38.4082C38.5968 38.4699 38.6269 38.5268 38.6696 38.5735C38.7079 38.6119 38.759 38.6348 38.8132 38.6377C38.8823 38.6353 38.9494 38.6138 39.0071 38.5754C39.0792 38.5321 39.1445 38.4784 39.2011 38.416C39.3081 38.302 39.3877 38.165 39.4338 38.0154C39.4536 37.9463 39.4659 37.8752 39.4706 37.8035Z" fill="#7B55D3"/>
<path d="M41.5936 34.4017C41.6008 34.3946 41.6106 34.3906 41.6207 34.3906C41.6309 34.3906 41.6406 34.3946 41.6479 34.4017C41.6571 34.4111 41.6642 34.4224 41.6685 34.4349C41.6729 34.4473 41.6745 34.4606 41.6731 34.4737V34.7965C41.6733 34.8318 41.6646 34.8666 41.6479 34.8976C41.6372 34.9254 41.6183 34.9492 41.5936 34.9657L41.0622 35.2729V37.7678C41.0618 37.8021 41.0539 37.836 41.0389 37.8669C41.027 37.8951 41.0075 37.9193 40.9826 37.9369L40.7441 38.075C40.736 38.0812 40.7261 38.0845 40.716 38.0845C40.7058 38.0845 40.6959 38.0812 40.6878 38.075C40.6793 38.0648 40.6728 38.0531 40.6689 38.0404C40.6649 38.0277 40.6634 38.0144 40.6646 38.0011V35.5179L40.1331 35.8252C40.125 35.8313 40.1152 35.8346 40.105 35.8346C40.0948 35.8346 40.085 35.8313 40.0769 35.8252C40.0683 35.815 40.0619 35.8032 40.0579 35.7905C40.0539 35.7779 40.0525 35.7645 40.0536 35.7513V35.4285C40.0539 35.3941 40.0619 35.3602 40.0769 35.3293C40.0881 35.3008 40.1078 35.2764 40.1331 35.2593L41.5936 34.4017Z" fill="#7B55D3"/>
<path opacity="0.2" d="M49.6329 61.6021V60.7699C47.7982 61.8335 46.3028 64.6959 46.3028 67.15L46.9254 66.7902C46.9254 64.7932 48.1415 62.4675 49.6329 61.6021ZM52.0341 63.8326C52.0341 62.063 50.9576 61.2463 49.6329 62.0125C48.3083 62.7786 47.2338 64.8418 47.2338 66.6113C47.2338 68.3809 48.3102 69.1976 49.6329 68.4314C50.9557 67.6653 52.0341 65.6021 52.0341 63.8326ZM47.5383 66.4344C47.5383 64.8962 48.4751 63.0995 49.6271 62.4325C49.7086 62.3858 49.7881 62.3489 49.8657 62.3139L47.5538 66.7455C47.5499 66.6424 47.5383 66.5394 47.5383 66.4344ZM47.6275 67.1908L50.2323 62.203C50.9053 62.0863 51.4348 62.4928 51.6326 63.2822L49.0414 68.2447C48.3723 68.3673 47.837 67.9686 47.6333 67.1869L47.6275 67.1908ZM51.7005 63.7295C51.7005 63.8209 51.7121 63.9239 51.7121 64.0173C51.7121 65.5574 50.7734 67.3522 49.6213 68.0192C49.5505 68.0604 49.4773 68.0974 49.4021 68.13L51.7005 63.7295ZM49.6329 59.9434C47.4568 61.2035 45.6841 64.5968 45.6841 67.5078C45.6841 70.4188 47.4568 71.7625 49.6329 70.5004C51.8091 69.2384 53.5838 65.851 53.5838 62.9342C53.5838 60.0173 51.8052 58.6834 49.6329 59.9434ZM49.6329 70.0843C47.6275 71.251 45.9963 70.0085 45.9963 67.3269C45.9963 64.6454 47.6275 61.5205 49.6329 60.3596C51.6384 59.1987 53.2715 60.4354 53.2715 63.117C53.2715 65.7985 51.6404 68.9234 49.6329 70.0843ZM52.3483 63.6537C52.3483 65.6507 51.1322 67.9783 49.6329 68.8417V69.674C51.4697 68.6103 52.965 65.7499 52.965 63.2939L52.3483 63.6537Z" fill="#7B55D3"/>
<path d="M42.942 75.321L28.1299 83.9004C28.0949 83.9234 28.055 83.9377 28.0135 83.9423C27.9719 83.9469 27.9299 83.9415 27.8907 83.9268C27.8516 83.912 27.8165 83.8882 27.7883 83.8572C27.7601 83.8263 27.7396 83.7891 27.7284 83.7487V83.7235C27.7039 83.6312 27.7095 83.5334 27.7444 83.4445C27.7793 83.3557 27.8417 83.2803 27.9224 83.2295L42.7345 74.6482C42.7691 74.6268 42.8081 74.6139 42.8486 74.6103C42.8891 74.6068 42.9298 74.6129 42.9675 74.628C43.0053 74.6431 43.0389 74.6669 43.0658 74.6974C43.0927 74.728 43.1121 74.7644 43.1224 74.8038V74.8291C43.1497 74.9196 43.1468 75.0165 43.1143 75.1053C43.0817 75.1941 43.0213 75.2698 42.942 75.321Z" fill="#E0E0E0"/>
<path d="M39.3779 79.4001L29.0053 85.4283C28.9685 85.451 28.9273 85.4654 28.8844 85.4706C28.8415 85.4758 28.798 85.4716 28.7568 85.4583C28.7157 85.445 28.678 85.4229 28.6462 85.3935C28.6144 85.3642 28.5894 85.3283 28.5728 85.2883V85.2746C28.5371 85.1878 28.5339 85.091 28.5638 85.002C28.5938 84.913 28.6548 84.8378 28.7357 84.7905L39.1102 78.7623C39.1465 78.7398 39.1873 78.7255 39.2297 78.7206C39.2721 78.7158 39.3151 78.7204 39.3555 78.7341C39.396 78.7479 39.4329 78.7705 39.4635 78.8002C39.4942 78.83 39.518 78.8662 39.533 78.9062V78.9198C39.5684 79.0053 39.5722 79.1006 39.5438 79.1887C39.5153 79.2767 39.4565 79.3517 39.3779 79.4001Z" fill="#E0E0E0"/>
<path d="M56.4003 69.6102L46.0278 75.6383C45.9911 75.6614 45.9498 75.6761 45.9068 75.6815C45.8638 75.6868 45.8202 75.6827 45.779 75.6693C45.7378 75.656 45.6999 75.6338 45.6682 75.6042C45.6365 75.5747 45.6116 75.5385 45.5953 75.4983V75.4847C45.5595 75.3978 45.5563 75.301 45.5863 75.212C45.6162 75.123 45.6773 75.0479 45.7582 75.0005L56.1307 68.9724C56.1673 68.9501 56.2082 68.9362 56.2506 68.9315C56.2931 68.9268 56.3361 68.9314 56.3765 68.9451C56.417 68.9589 56.454 68.9813 56.4849 69.0108C56.5158 69.0404 56.5399 69.0764 56.5555 69.1163V69.1299C56.5909 69.2153 56.5947 69.3107 56.5662 69.3987C56.5378 69.4867 56.479 69.5617 56.4003 69.6102Z" fill="#E0E0E0"/>
<path d="M36.8537 74.4097C36.6692 74.854 36.3844 75.2494 36.0216 75.5647C35.9886 75.6003 35.9473 75.627 35.9014 75.6425C35.8296 75.6561 35.8063 75.5958 35.7966 75.5142C35.7885 75.3788 35.797 75.243 35.8219 75.1097C35.8529 74.8433 35.8917 74.5788 35.9343 74.3144C36.0068 73.8892 36.0843 73.4646 36.1671 73.0407C36.2427 72.8618 36.3145 72.6809 36.3824 72.4962C36.5798 71.9629 36.745 71.418 36.877 70.8647C37.0069 70.3203 37.1271 69.7272 37.0282 69.1652C37.0185 69.1107 36.9468 69.068 36.9196 69.1282C36.6869 69.6455 36.6054 70.2716 36.489 70.8414L36.0817 72.8248C36.072 72.8696 36.0643 72.9123 36.0546 72.9571C35.9253 73.2708 35.7844 73.5761 35.6318 73.873C35.5426 74.048 35.4495 74.2191 35.3525 74.3863C35.2683 74.5502 35.171 74.7069 35.0616 74.855C34.9122 75.0339 34.7183 74.9775 34.629 74.75C34.6102 74.7011 34.5972 74.6502 34.5903 74.5983C34.7294 74.4567 34.8453 74.294 34.9335 74.116C35.0423 73.917 35.1351 73.7095 35.2109 73.4957C35.2899 73.2663 35.3502 73.0309 35.3913 72.7918C35.4165 72.6343 35.4747 72.3932 35.3796 72.2609C35.2846 72.1287 35.1488 72.2473 35.0751 72.3718C34.9583 72.5774 34.8578 72.792 34.7745 73.0135C34.5846 73.4712 34.4819 73.9606 34.4719 74.4563C34.471 74.4751 34.471 74.4939 34.4719 74.5127C34.4564 74.5244 34.4429 74.538 34.4254 74.5497C34.3848 74.5845 34.3348 74.6065 34.2817 74.6129C34.2286 74.6192 34.1749 74.6095 34.1273 74.5852C34.0797 74.5608 34.0404 74.5228 34.0144 74.4759C33.9884 74.4291 33.9768 74.3756 33.9812 74.3221C33.9812 74.2463 33.8901 74.2152 33.8591 74.2813C33.7543 74.5147 33.7466 74.8063 33.6205 75.0222C33.5623 75.1194 33.4556 75.24 33.3606 75.17C33.3358 75.1492 33.316 75.1229 33.3029 75.0932C33.2898 75.0636 33.2837 75.0313 33.285 74.9989C33.2966 74.9639 33.3102 74.9308 33.3199 74.8958C33.3451 74.8219 33.2462 74.7694 33.2113 74.82C33.1791 74.8641 33.1609 74.917 33.1589 74.9716C33.0988 75.1447 33.0348 75.3158 32.9649 75.4811C32.9368 75.304 32.9368 75.1235 32.9649 74.9464C32.9766 74.8763 32.8583 74.8297 32.8447 74.9055C32.7965 75.1419 32.7317 75.3745 32.6507 75.6017C32.61 75.7164 32.5635 75.8292 32.513 75.94C32.4674 76.0681 32.4019 76.1882 32.3191 76.2959C32.2803 76.3348 32.224 76.3717 32.1755 76.3425C32.1271 76.3134 32.1193 76.1928 32.1174 76.117C32.1174 75.9906 32.1174 75.8622 32.1271 75.7281C32.1458 75.4782 32.1854 75.2304 32.2454 74.9872C32.2648 74.9036 32.1465 74.8491 32.1212 74.9327C32.0085 75.3198 31.8691 75.6986 31.7042 76.0664C31.6247 76.2434 31.5413 76.4184 31.4482 76.5837C31.4056 76.6614 31.2931 76.8345 31.2 76.8306C31.2194 76.7956 31.2368 76.7606 31.2562 76.7276C31.4661 76.3315 31.6457 75.92 31.7935 75.4967C31.948 75.0701 32.049 74.6259 32.0941 74.1744C32.105 74.114 32.1007 74.0518 32.0818 73.9934C32.0628 73.9351 32.0297 73.8823 31.9855 73.8399C32.0302 73.6117 32.0354 73.3776 32.001 73.1476C31.9254 72.7412 31.6247 72.5915 31.3299 72.6848C30.9769 72.7957 30.6976 73.1515 30.4533 73.4879C29.9652 74.1618 29.579 74.9042 29.307 75.6911C29.1645 76.1023 29.0498 76.5226 28.9637 76.9492C28.8822 77.3537 28.7697 77.8437 28.9094 78.2424C29.2391 79.1913 30.1565 78.3182 30.527 77.8535C30.746 77.5697 30.9407 77.2679 31.1088 76.9512C31.1617 76.967 31.2181 76.9661 31.2705 76.9487C31.3229 76.9313 31.3687 76.8983 31.4017 76.854C31.5256 76.7029 31.6257 76.5337 31.6984 76.3523C31.8012 76.1384 31.8924 75.9186 31.9816 75.6931C31.9816 75.7767 31.9816 75.8603 31.9816 75.9439C31.9647 76.0852 31.9813 76.2284 32.0301 76.362C32.0498 76.3992 32.08 76.4297 32.1169 76.4498C32.1538 76.4698 32.1958 76.4785 32.2376 76.4748C32.4451 76.4553 32.5673 76.1228 32.6585 75.9147C32.7287 75.754 32.7889 75.589 32.8389 75.4208C32.852 75.5079 32.8721 75.5937 32.899 75.6775C32.9014 75.6893 32.9073 75.7001 32.9161 75.7084C32.9248 75.7167 32.9359 75.7221 32.9478 75.7238C32.9597 75.7255 32.9719 75.7235 32.9826 75.718C32.9933 75.7124 33.002 75.7038 33.0076 75.6931C33.0865 75.5232 33.1582 75.3502 33.2229 75.1739C33.2498 75.2199 33.2893 75.2572 33.3368 75.2814C33.3842 75.3055 33.4376 75.3154 33.4905 75.31C33.7757 75.24 33.8261 74.8336 33.9172 74.5147C33.9556 74.588 34.0142 74.6488 34.086 74.6897C34.1503 74.724 34.223 74.7395 34.2958 74.7344C34.3685 74.7292 34.4383 74.7036 34.4972 74.6605C34.5237 74.7866 34.5864 74.9022 34.6775 74.993C34.7287 75.049 34.7996 75.0828 34.8751 75.0876C34.9507 75.0923 35.0252 75.0674 35.0829 75.0183C35.2374 74.8559 35.3645 74.6694 35.4592 74.466C35.5794 74.256 35.6958 74.0402 35.8063 73.8205L35.9305 73.5618C35.8587 73.9216 35.7928 74.2833 35.7365 74.6469C35.7132 74.8005 35.6919 74.9541 35.6744 75.1097C35.6527 75.2381 35.6449 75.3685 35.6512 75.4986C35.6744 75.7125 35.8102 75.8311 35.9712 75.765C36.0744 75.7108 36.1671 75.6383 36.2447 75.5511C36.3488 75.4514 36.4448 75.3434 36.5317 75.2283C36.7107 74.9884 36.8593 74.7272 36.9739 74.4505C37.0088 74.3863 36.8867 74.3299 36.8537 74.4097ZM36.5841 70.9833C36.65 70.6625 36.7121 70.3416 36.778 70.0227C36.82 69.8148 36.8744 69.6096 36.941 69.4083C36.9513 69.7571 36.9148 70.1057 36.8323 70.4447C36.747 70.8336 36.6384 71.2342 36.5337 71.6114C36.4677 71.8273 36.3979 72.0392 36.3242 72.2493C36.4115 71.8292 36.4987 71.4034 36.5841 70.9795V70.9833ZM30.7325 77.3187C30.5384 77.6312 30.3029 77.9157 30.0324 78.1646C29.9095 78.2737 29.7741 78.3677 29.629 78.4446C29.4893 78.5185 29.3361 78.5729 29.2042 78.4563C28.9501 78.2326 28.9792 77.7698 29.0316 77.4218C29.0871 77.0624 29.1636 76.7066 29.2604 76.3562C29.4472 75.6704 29.7141 75.0093 30.0557 74.3863C30.2233 74.0804 30.4112 73.7861 30.6181 73.5054C30.8392 73.2099 31.1011 72.8832 31.425 72.8171C31.8866 72.7237 31.9157 73.2701 31.8245 73.8166C31.6801 73.8482 31.5516 73.9302 31.4618 74.048C31.2097 74.3866 31.0397 74.7794 30.9653 75.1953C30.9342 75.3286 30.9109 75.4637 30.8955 75.5997C30.7801 75.6773 30.6462 75.723 30.5076 75.7319C30.3039 75.7319 30.333 75.3917 30.3543 75.2089C30.3782 75.0088 30.4277 74.8128 30.5017 74.6255C30.5211 74.5788 30.4416 74.5108 30.4203 74.5594C30.3311 74.7674 30.2704 74.9865 30.2399 75.2108C30.1953 75.3977 30.2194 75.5945 30.3078 75.765C30.4125 75.905 30.5851 75.872 30.719 75.8331C30.7726 75.8157 30.8251 75.7949 30.8761 75.7708C30.8576 76.0116 30.8673 76.2538 30.9052 76.4923C30.9197 76.6176 30.9544 76.7398 31.008 76.854C30.9226 77.0095 30.8276 77.1651 30.7325 77.3148V77.3187ZM31.7935 73.9819C31.7444 74.23 31.6737 74.4734 31.5821 74.7091C31.4692 75.0066 31.2878 75.2731 31.0526 75.4869C31.1003 75.1919 31.1823 74.9034 31.2969 74.6274C31.3623 74.4557 31.4546 74.2955 31.5704 74.153C31.6234 74.087 31.6894 74.0327 31.7644 73.9935L31.7935 73.9819ZM31.0875 76.7042C31.072 76.6478 31.0623 76.5817 31.0526 76.537C31.0344 76.4419 31.0221 76.3458 31.0157 76.2492C30.9983 76.0616 30.9983 75.8728 31.0157 75.6853C31.078 75.6432 31.137 75.5964 31.1922 75.5453C31.4885 75.2418 31.7017 74.8667 31.8109 74.4563C31.8516 74.326 31.8924 74.1802 31.9254 74.0305C31.9254 74.0421 31.9254 74.0538 31.9254 74.0713C31.9292 74.1172 31.9292 74.1634 31.9254 74.2094C31.879 74.5888 31.7952 74.9627 31.6752 75.3255C31.5217 75.8034 31.325 76.2662 31.0875 76.7081V76.7042ZM34.6155 74.0207C34.6763 73.6302 34.7871 73.2492 34.9452 72.8871C35.0118 72.7072 35.1011 72.5366 35.2109 72.3795C35.2206 72.3659 35.2768 72.3056 35.2943 72.3212C35.3118 72.3368 35.3059 72.3815 35.3059 72.3932C35.3108 72.4397 35.3108 72.4866 35.3059 72.5332C35.293 72.6382 35.2756 72.7432 35.2536 72.8482C35.1736 73.2645 35.0282 73.6656 34.823 74.0363C34.7556 74.1651 34.6757 74.2869 34.5844 74.3999C34.5858 74.273 34.5961 74.1462 34.6155 74.0207ZM40.8646 72.1442L40.8045 72.1306C40.82 71.8273 40.8219 71.522 40.8161 71.2225C40.8064 70.6392 40.7696 70.0733 40.7056 69.5055C40.7056 69.4471 40.692 69.3888 40.6823 69.3305C40.7114 69.1555 40.7366 68.9805 40.756 68.8035C40.7909 68.4593 40.8142 68.0257 40.562 67.8215C40.5291 67.7943 40.4767 67.7962 40.4689 67.8565C40.4316 68.254 40.4518 68.6549 40.5291 69.0466C40.5291 69.1127 40.5465 69.1807 40.5543 69.241C40.5101 69.5219 40.4519 69.8003 40.3797 70.0752C40.2898 70.4271 40.177 70.7726 40.0423 71.1097C39.9763 71.277 39.9045 71.4423 39.8289 71.6037C39.7642 71.7794 39.6461 71.9303 39.4914 72.0354C39.4596 71.9674 39.4456 71.8925 39.4507 71.8176C39.4507 71.7456 39.3576 71.697 39.3382 71.7787C39.3342 71.7978 39.329 71.8166 39.3227 71.8351C39.3382 71.6406 39.3595 71.4462 39.3886 71.2517C39.3983 71.1875 39.2955 71.1331 39.2781 71.2011C39.2252 71.4217 39.1511 71.6366 39.057 71.8428C39.008 71.9506 38.9523 72.0552 38.8902 72.1559C38.8553 72.2143 38.7796 72.3504 38.7156 72.3348C38.5702 72.3154 38.6788 71.7514 38.7156 71.6348C38.7156 71.5998 38.7331 71.5667 38.7428 71.5317C38.8165 71.3625 38.8844 71.1875 38.9367 71.0086C38.9619 70.9386 38.8669 70.8745 38.8359 70.9386C38.7801 71.0539 38.7321 71.1727 38.6923 71.2945C38.523 71.6998 38.3199 72.0901 38.0853 72.4612C37.9437 72.6829 37.7575 73.0271 37.5228 73.064C37.387 73.0835 37.3424 72.9629 37.3386 72.8073C37.5772 72.5469 37.7843 72.2591 37.9553 71.9498C38.0814 71.7203 38.6982 70.4544 38.1279 70.5089C37.8797 70.5322 37.7245 70.857 37.6159 71.1156C37.48 71.4364 37.3761 71.7699 37.3056 72.1112C37.2726 72.2745 37.2435 72.4418 37.2261 72.609C37.2231 72.6582 37.2231 72.7076 37.2261 72.7568C37.0473 72.9487 36.8491 73.1215 36.6345 73.2721C36.588 73.3032 36.6578 73.3946 36.6985 73.3674C36.8919 73.2356 37.073 73.0866 37.2396 72.9221C37.2473 72.9653 37.261 73.0072 37.2804 73.0465C37.42 73.311 37.7032 73.1807 37.8622 73.0154C38.1036 72.7348 38.3083 72.4244 38.4712 72.0917C38.5042 72.0295 38.5372 71.9673 38.5682 71.8973C38.5411 72.0917 38.5294 72.3562 38.6691 72.4301C38.8087 72.504 38.9775 72.2706 39.057 72.1209C39.1166 72.014 39.1697 71.9036 39.216 71.7903C39.216 71.8584 39.2063 71.9265 39.2044 71.9848C39.2024 72.0431 39.2529 72.0879 39.2897 72.0626C39.3224 72.0387 39.3512 72.0098 39.3751 71.977C39.3892 72.0276 39.4101 72.076 39.4371 72.1209C39.4447 72.1322 39.4552 72.1411 39.4676 72.1466C39.4799 72.1521 39.4936 72.154 39.5069 72.152C39.8347 72.0548 40.0112 71.555 40.1567 71.2011C40.3134 70.8219 40.443 70.432 40.5446 70.0344C40.5717 69.9236 40.5989 69.8108 40.6222 69.698C40.6454 69.9411 40.6648 70.1841 40.6765 70.4272C40.713 70.9794 40.7176 71.5332 40.6901 72.0859C40.4151 72.0914 40.149 72.184 39.9298 72.3504C39.6093 72.5532 39.3248 72.8082 39.088 73.1049C38.8567 73.4034 38.7403 73.7755 38.7602 74.153C38.7835 74.5127 38.9542 74.8219 39.2315 74.9055C39.8134 75.0844 40.3099 74.3221 40.533 73.7096C40.6935 73.2336 40.7868 72.7375 40.8103 72.2356C40.8316 72.2337 40.853 72.2337 40.8743 72.2356C40.9441 72.2959 40.9441 72.1695 40.8646 72.1501V72.1442ZM37.4045 72.2765C37.4556 72.0043 37.5276 71.7364 37.6198 71.4753C37.6915 71.2027 37.8242 70.95 38.0077 70.7364C38.0445 70.7014 38.1435 70.6256 38.1881 70.6547C38.2327 70.6839 38.2482 70.7986 38.2366 70.8842C38.2135 71.0304 38.1752 71.1738 38.1221 71.312C38.0257 71.569 37.9056 71.8163 37.7633 72.0509C37.6413 72.256 37.5031 72.4511 37.3502 72.6343C37.3618 72.4923 37.389 72.3581 37.4045 72.2823V72.2765ZM40.6125 68.8521C40.5667 68.5752 40.5537 68.2939 40.5737 68.014C40.692 68.2318 40.6513 68.5857 40.6125 68.858V68.8521ZM40.5776 72.9668C40.4554 73.6454 40.18 74.4213 39.6602 74.7169C39.6038 74.7579 39.5388 74.7852 39.4701 74.7968C39.4015 74.8085 39.3311 74.804 39.2645 74.7839C39.1978 74.7638 39.1367 74.7284 39.0859 74.6807C39.0351 74.633 38.996 74.5742 38.9716 74.5088C38.9097 74.3393 38.8845 74.1586 38.8975 73.9786C38.9105 73.7985 38.9616 73.6233 39.0473 73.4646C39.254 73.1154 39.5388 72.8192 39.8793 72.5993C40.102 72.4092 40.3762 72.29 40.6668 72.257C40.6491 72.4969 40.6193 72.7358 40.5776 72.9726V72.9668Z" fill="#455A64"/>
<path d="M21.1069 80.1328C21.1351 81.2103 21.2834 82.2813 21.5491 83.3257L25.7211 80.9203L26.8324 77.6807L25.7211 77.4688L21.1069 80.1328Z" fill="#E0E0E0"/>
<path d="M25.3473 76.8125L17.147 81.5592V85.0107L25.3473 80.2641L26.8368 77.6759L25.3473 76.8125Z" fill="#7B55D3"/>
<path d="M20.2905 80.538C20.2925 80.5358 20.2949 80.5342 20.2976 80.533C20.3002 80.5318 20.3031 80.5313 20.306 80.5312C20.3089 80.5313 20.3118 80.5318 20.3145 80.533C20.3171 80.5342 20.3195 80.5358 20.3215 80.538C20.3268 80.5433 20.3307 80.5497 20.3331 80.5568C20.3354 80.5639 20.3361 80.5714 20.3351 80.5788V82.2258C20.3352 82.2448 20.3306 82.2636 20.3215 82.2803C20.3161 82.2965 20.3051 82.3103 20.2905 82.3192L20.1567 82.397C20.1524 82.4008 20.1469 82.4029 20.1412 82.4029C20.1354 82.4029 20.1299 82.4008 20.1256 82.397C20.1204 82.3917 20.1165 82.3852 20.1141 82.3781C20.1117 82.371 20.111 82.3635 20.1121 82.3561V81.6833L19.6097 81.9711V82.6439C19.6101 82.6636 19.6054 82.683 19.5962 82.7003C19.5895 82.7158 19.5788 82.7293 19.5651 82.7392L19.4313 82.817C19.4269 82.8204 19.4214 82.8223 19.4158 82.8223C19.4102 82.8223 19.4047 82.8204 19.4003 82.817C19.395 82.8117 19.3911 82.8052 19.3887 82.7982C19.3864 82.7911 19.3857 82.7835 19.3867 82.7761V81.1272C19.3866 81.1075 19.3912 81.0882 19.4003 81.0708C19.4063 81.0549 19.4172 81.0413 19.4313 81.0319L19.5651 80.9541C19.5696 80.9506 19.575 80.9487 19.5806 80.9487C19.5863 80.9487 19.5917 80.9506 19.5962 80.9541C19.6012 80.9599 19.605 80.9667 19.6074 80.9741C19.6097 80.9814 19.6105 80.9892 19.6097 80.9969V81.6502L20.1082 81.3625V80.7071C20.1083 80.6875 20.1129 80.6682 20.1218 80.6507C20.1283 80.6351 20.1391 80.6217 20.1528 80.6119L20.2905 80.538Z" fill="white"/>
<path d="M21.3559 81.3862C21.3602 81.3824 21.3657 81.3803 21.3714 81.3803C21.3771 81.3803 21.3827 81.3824 21.3869 81.3862C21.3957 81.3972 21.3998 81.4111 21.3986 81.4251V81.6079C21.3984 81.6267 21.3945 81.6452 21.3869 81.6624C21.3808 81.6782 21.3699 81.6917 21.3559 81.7012L20.6305 82.1213C20.6262 82.1251 20.6207 82.1272 20.615 82.1272C20.6093 82.1272 20.6037 82.1251 20.5995 82.1213C20.5942 82.116 20.5903 82.1095 20.5879 82.1024C20.5856 82.0954 20.5849 82.0878 20.5859 82.0804V80.4315C20.5858 80.4118 20.5904 80.3925 20.5995 80.3751C20.6054 80.3591 20.6163 80.3455 20.6305 80.3362L21.3559 79.9278C21.3602 79.924 21.3657 79.9219 21.3714 79.9219C21.3771 79.9219 21.3827 79.924 21.3869 79.9278C21.3967 79.9391 21.4015 79.9538 21.4005 79.9686V80.1495C21.3995 80.169 21.3949 80.1881 21.3869 80.2059C21.3802 80.2209 21.3695 80.2337 21.3559 80.2428L20.8225 80.552V80.9565L21.319 80.6706C21.321 80.6685 21.3234 80.6668 21.3261 80.6657C21.3288 80.6645 21.3317 80.6639 21.3346 80.6639C21.3375 80.6639 21.3403 80.6645 21.343 80.6657C21.3457 80.6668 21.3481 80.6685 21.3501 80.6706C21.3553 80.6759 21.3593 80.6824 21.3616 80.6895C21.364 80.6965 21.3647 80.7041 21.3637 80.7115V80.8923C21.3635 80.9119 21.3589 80.9312 21.3501 80.9487C21.344 80.9641 21.3331 80.9771 21.319 80.9857L20.8225 81.2734V81.6974L21.3559 81.3862Z" fill="white"/>
<path d="M22.0835 79.5072C22.2212 79.4274 22.3259 79.4158 22.3977 79.4741C22.4392 79.5211 22.4702 79.5765 22.4886 79.6365C22.507 79.6966 22.5124 79.7599 22.5043 79.8222C22.5049 79.9412 22.4859 80.0594 22.4481 80.1722C22.4128 80.2774 22.3582 80.375 22.2871 80.46L22.5199 80.9578C22.5214 80.9662 22.5214 80.9747 22.5199 80.9831C22.5197 80.9993 22.5157 81.0153 22.5082 81.0297C22.5025 81.042 22.4938 81.0527 22.483 81.0609L22.3414 81.1425C22.3201 81.1542 22.3046 81.1561 22.2929 81.1425C22.2834 81.1333 22.2761 81.122 22.2716 81.1095L22.0544 80.6408L21.8352 80.7692V81.3623C21.8353 81.3819 21.8307 81.4012 21.8216 81.4187C21.8156 81.4345 21.8047 81.4481 21.7906 81.4576L21.6568 81.5353C21.6525 81.5392 21.647 81.5413 21.6412 81.5413C21.6355 81.5413 21.63 81.5392 21.6257 81.5353C21.6206 81.5303 21.6168 81.5242 21.6144 81.5175C21.6121 81.5107 21.6113 81.5035 21.6122 81.4964V79.8513C21.612 79.8317 21.6167 79.8124 21.6257 79.795C21.6318 79.7791 21.6426 79.7655 21.6568 79.7561L22.0835 79.5072ZM21.8352 80.4542L22.0757 80.3161C22.135 80.2817 22.186 80.2345 22.225 80.178C22.2655 80.1093 22.285 80.0302 22.2813 79.9505C22.2813 79.8552 22.2619 79.8027 22.225 79.793C22.199 79.7886 22.1722 79.7896 22.1466 79.796C22.1209 79.8024 22.0968 79.8139 22.0757 79.83L21.8352 79.97V80.4542Z" fill="white"/>
<path d="M23.4896 80.1597C23.4917 80.1575 23.4943 80.1558 23.4971 80.1546C23.5 80.1534 23.503 80.1528 23.5061 80.1528C23.5091 80.1528 23.5122 80.1534 23.515 80.1546C23.5178 80.1558 23.5204 80.1575 23.5225 80.1597C23.5316 80.1712 23.5358 80.1859 23.5342 80.2005V80.3814C23.5339 80.4007 23.5299 80.4198 23.5225 80.4377C23.5159 80.4533 23.5043 80.4663 23.4896 80.4747L22.7661 80.8947C22.764 80.8969 22.7614 80.8986 22.7586 80.8998C22.7557 80.901 22.7527 80.9016 22.7496 80.9016C22.7466 80.9016 22.7435 80.901 22.7407 80.8998C22.7379 80.8986 22.7353 80.8969 22.7332 80.8947C22.7241 80.8831 22.7199 80.8685 22.7215 80.8539V79.2068C22.7218 79.1875 22.7258 79.1683 22.7332 79.1504C22.7398 79.1349 22.7514 79.1219 22.7661 79.1135L23.4779 78.7013C23.4822 78.6974 23.4877 78.6953 23.4934 78.6953C23.4992 78.6953 23.5047 78.6974 23.509 78.7013C23.5187 78.7125 23.5236 78.7272 23.5225 78.7421V78.9229C23.5217 78.9424 23.5171 78.9616 23.509 78.9793C23.5018 78.9945 23.4911 79.0078 23.4779 79.0182L22.9446 79.3255V79.7319L23.4411 79.4441C23.4453 79.4402 23.4509 79.4381 23.4566 79.4381C23.4623 79.4381 23.4678 79.4402 23.4721 79.4441C23.4771 79.4495 23.4809 79.456 23.4833 79.463C23.4856 79.4701 23.4864 79.4775 23.4857 79.4849V79.6658C23.4858 79.6854 23.4811 79.7047 23.4721 79.7221C23.4649 79.7373 23.4543 79.7507 23.4411 79.761L22.9426 80.0449V80.4669L23.4896 80.1597Z" fill="white"/>
<path d="M78.4026 80.5864L77.2524 80.147L77.6326 79.3672L78.3386 80.0322L78.4026 80.5864Z" fill="black"/>
<path d="M79.6027 78.5078C79.6027 78.5078 79.6454 79.2604 79.6551 79.4976C79.6648 79.7348 78.6523 80.4699 78.4021 80.5865L78.3381 80.0421C78.1075 80.3146 77.912 80.6151 77.7563 80.9366C77.5623 81.273 77.3102 81.9088 76.7749 82.3444C75.9816 82.9881 74.7461 83.3167 73.4874 83.3498C72.2286 83.3828 71.5091 83.0756 71.16 82.8014C70.8108 82.5272 70.6906 82.2044 70.7817 81.8855C70.8729 81.5666 79.6027 78.5078 79.6027 78.5078Z" fill="#263238"/>
<path d="M76.2437 75.9278L76.2302 75.4922C75.9974 75.4922 75.9664 76.1164 75.627 76.6686C75.1315 77.4956 74.5325 78.2557 73.8445 78.9302C72.5625 80.0969 71.4201 80.8164 70.8499 81.3395C70.0741 82.0376 71.4182 83.1615 73.4722 83.0546C74.4904 83.0021 76.3039 82.4965 76.8159 81.8878C77.3279 81.2792 77.6441 80.3458 78.0552 79.9102C78.4664 79.4746 79.3412 79.0352 79.5972 78.5024C79.7388 78.2107 79.667 77.5301 79.5875 76.9467C79.5138 76.4139 79.5002 75.5972 79.1996 75.6633L79.1763 75.9355C79.0541 76.1689 78.769 76.552 77.9447 76.6861C77.5432 76.762 76.3174 76.7931 76.2437 75.9278Z" fill="#37474F"/>
<path opacity="0.15" d="M77.2922 76.7066C76.9043 76.6716 76.4795 76.5394 76.3224 76.1835V76.1719C76.3446 76.3229 76.3318 76.4771 76.2851 76.6224C76.2383 76.7678 76.1588 76.9004 76.0528 77.01C75.6843 77.4378 73.3491 80.4655 73.3491 80.4655C73.3491 80.4655 75.5214 77.9706 75.9364 77.5C76.5532 76.8058 76.7472 76.7222 77.3077 76.7086L77.2922 76.7066Z" fill="black"/>
<path opacity="0.15" d="M76.7767 77.5139C76.7821 77.5456 76.7994 77.5741 76.8251 77.5935C76.8508 77.6129 76.8829 77.6217 76.9149 77.6183C76.9469 77.6148 76.9764 77.5992 76.9973 77.5748C77.0182 77.5503 77.0291 77.5188 77.0275 77.4867C77.0236 77.4534 77.0067 77.4231 76.9805 77.4023C76.9542 77.3815 76.9208 77.372 76.8875 77.3758C76.8712 77.3775 76.8553 77.3824 76.8408 77.3903C76.8264 77.3982 76.8136 77.4089 76.8033 77.4217C76.793 77.4346 76.7853 77.4493 76.7808 77.4651C76.7762 77.481 76.7748 77.4975 76.7767 77.5139Z" fill="black"/>
<path opacity="0.15" d="M76.1683 78.1856C76.1711 78.21 76.1811 78.233 76.1969 78.2517C76.2128 78.2705 76.2339 78.2841 76.2575 78.2909C76.281 78.2977 76.3061 78.2974 76.3295 78.29C76.3529 78.2825 76.3736 78.2684 76.389 78.2492C76.4044 78.2301 76.4137 78.2068 76.4159 78.1824C76.4181 78.1579 76.413 78.1334 76.4012 78.1118C76.3895 78.0902 76.3716 78.0726 76.3499 78.0612C76.3282 78.0498 76.3036 78.045 76.2791 78.0475C76.2628 78.0492 76.2469 78.0542 76.2324 78.062C76.218 78.0699 76.2052 78.0806 76.1949 78.0934C76.1846 78.1063 76.1769 78.121 76.1724 78.1368C76.1678 78.1527 76.1664 78.1692 76.1683 78.1856Z" fill="black"/>
<path opacity="0.15" d="M75.557 78.8497C75.5609 78.883 75.5778 78.9133 75.604 78.9341C75.6303 78.9549 75.6637 78.9644 75.697 78.9606C75.7133 78.9588 75.7291 78.9538 75.7436 78.9459C75.758 78.938 75.7707 78.9273 75.781 78.9145C75.7913 78.9017 75.7989 78.887 75.8035 78.8712C75.8081 78.8554 75.8096 78.8389 75.8078 78.8225C75.806 78.8062 75.801 78.7903 75.7931 78.7759C75.7852 78.7615 75.7745 78.7488 75.7617 78.7385C75.7489 78.7282 75.7342 78.7205 75.7184 78.7159C75.7026 78.7113 75.6861 78.7099 75.6697 78.7117C75.6532 78.7131 75.6371 78.7179 75.6224 78.7256C75.6077 78.7334 75.5947 78.744 75.5842 78.7569C75.5737 78.7698 75.5659 78.7846 75.5612 78.8006C75.5565 78.8165 75.5551 78.8332 75.557 78.8497Z" fill="black"/>
<path opacity="0.15" d="M74.9479 79.523C74.9518 79.5562 74.9687 79.5866 74.995 79.6073C75.0212 79.6281 75.0546 79.6376 75.0879 79.6338C75.1043 79.6321 75.1202 79.6272 75.1346 79.6193C75.1491 79.6114 75.1618 79.6008 75.1722 79.5879C75.1825 79.5751 75.1901 79.5603 75.1947 79.5445C75.1993 79.5287 75.2006 79.5121 75.1987 79.4957C75.1933 79.464 75.176 79.4355 75.1503 79.4162C75.1246 79.3968 75.0925 79.3879 75.0605 79.3914C75.0285 79.3948 74.999 79.4104 74.9781 79.4348C74.9572 79.4593 74.9464 79.4908 74.9479 79.523Z" fill="black"/>
<path opacity="0.15" d="M74.3392 80.1856C74.3431 80.2184 74.3597 80.2485 74.3856 80.2692C74.4114 80.2899 74.4443 80.2997 74.4772 80.2964C74.4938 80.295 74.5099 80.2902 74.5246 80.2824C74.5393 80.2747 74.5522 80.264 74.5628 80.2512C74.5733 80.2383 74.5811 80.2235 74.5858 80.2075C74.5905 80.1916 74.5919 80.1749 74.59 80.1583C74.5861 80.1255 74.5695 80.0954 74.5436 80.0747C74.5178 80.054 74.4849 80.0442 74.452 80.0475C74.4354 80.049 74.4193 80.0537 74.4046 80.0615C74.3899 80.0692 74.377 80.0799 74.3665 80.0927C74.3559 80.1056 74.3481 80.1205 74.3434 80.1364C74.3387 80.1523 74.3373 80.1691 74.3392 80.1856Z" fill="black"/>
<path d="M76.9055 77.5499C76.915 77.549 76.9239 77.5453 76.9314 77.5395C76.9389 77.5337 76.9446 77.5258 76.9478 77.5169C76.9511 77.508 76.9517 77.4983 76.9497 77.489C76.9477 77.4797 76.9432 77.4712 76.9366 77.4644C76.9114 77.4391 76.3101 76.8518 75.5207 76.8927C75.5075 76.8941 75.4954 76.9006 75.4867 76.9107C75.4781 76.9208 75.4736 76.9338 75.4742 76.9471C75.4747 76.9538 75.4765 76.9602 75.4795 76.9662C75.4825 76.9721 75.4866 76.9774 75.4916 76.9818C75.4967 76.9861 75.5025 76.9894 75.5089 76.9915C75.5152 76.9935 75.5218 76.9943 75.5285 76.9938C76.2733 76.9549 76.8629 77.5305 76.8687 77.5363C76.8735 77.541 76.8793 77.5447 76.8857 77.547C76.892 77.5494 76.8988 77.5504 76.9055 77.5499Z" fill="#263238"/>
<path d="M76.2963 78.2142C76.3082 78.213 76.3192 78.2075 76.3273 78.1986C76.332 78.1939 76.3358 78.1883 76.3384 78.1821C76.341 78.176 76.3423 78.1693 76.3423 78.1626C76.3423 78.156 76.341 78.1493 76.3384 78.1432C76.3358 78.137 76.332 78.1314 76.3273 78.1267C76.3021 78.1014 75.7008 77.5141 74.9095 77.5569C74.9029 77.5574 74.8964 77.5592 74.8905 77.5622C74.8845 77.5652 74.8793 77.5694 74.8749 77.5744C74.8706 77.5795 74.8673 77.5854 74.8653 77.5917C74.8632 77.598 74.8624 77.6047 74.863 77.6114C74.8639 77.6244 74.87 77.6366 74.8797 77.6453C74.8895 77.654 74.9023 77.6586 74.9153 77.658C75.6601 77.6191 76.2517 78.1928 76.2575 78.1986C76.2625 78.2038 76.2685 78.2079 76.2752 78.2106C76.2819 78.2133 76.2891 78.2145 76.2963 78.2142Z" fill="#263238"/>
<path d="M75.6868 78.8859C75.6928 78.8857 75.6987 78.8842 75.704 78.8816C75.7094 78.8789 75.7141 78.875 75.7178 78.8703C75.7226 78.8656 75.7263 78.86 75.7289 78.8538C75.7315 78.8476 75.7328 78.841 75.7328 78.8343C75.7328 78.8276 75.7315 78.821 75.7289 78.8148C75.7263 78.8087 75.7226 78.8031 75.7178 78.7983C75.6926 78.775 75.0913 78.1878 74.3 78.2286C74.2868 78.2301 74.2747 78.2365 74.266 78.2466C74.2574 78.2567 74.2529 78.2697 74.2535 78.283C74.2545 78.2961 74.2605 78.3083 74.2702 78.317C74.28 78.3257 74.2928 78.3303 74.3058 78.3297C75.0506 78.2908 75.6422 78.8664 75.648 78.8703C75.6527 78.8759 75.6587 78.8802 75.6655 78.8829C75.6722 78.8856 75.6795 78.8866 75.6868 78.8859Z" fill="#263238"/>
<path d="M75.0804 79.5577C75.0864 79.5576 75.0923 79.5561 75.0977 79.5534C75.1031 79.5507 75.1078 79.5469 75.1115 79.5422C75.1162 79.5376 75.1199 79.5322 75.1224 79.5262C75.125 79.5202 75.1263 79.5137 75.1263 79.5072C75.1263 79.5006 75.125 79.4942 75.1224 79.4882C75.1199 79.4821 75.1162 79.4767 75.1115 79.4722C75.0863 79.4469 74.485 78.8596 73.6937 78.9005C73.6871 78.901 73.6806 78.9028 73.6747 78.9058C73.6687 78.9088 73.6634 78.9129 73.6591 78.918C73.6548 78.923 73.6515 78.9289 73.6494 78.9353C73.6474 78.9416 73.6466 78.9483 73.6471 78.9549C73.6474 78.9615 73.6489 78.9679 73.6517 78.9739C73.6545 78.9798 73.6585 78.9851 73.6634 78.9895C73.6683 78.9938 73.674 78.9971 73.6802 78.9992C73.6864 79.0013 73.693 79.0021 73.6995 79.0016C74.4443 78.9627 75.0339 79.5383 75.0397 79.5441C75.0452 79.5491 75.0516 79.553 75.0586 79.5553C75.0656 79.5576 75.0731 79.5585 75.0804 79.5577Z" fill="#263238"/>
<path d="M74.467 80.2354C74.4795 80.2343 74.4912 80.2288 74.5 80.2198C74.5091 80.2101 74.5142 80.1972 74.5142 80.1839C74.5142 80.1705 74.5091 80.1576 74.5 80.1479C74.1171 79.7838 73.61 79.58 73.0822 79.5781C73.0687 79.5791 73.056 79.5854 73.047 79.5955C73.0379 79.6057 73.0332 79.619 73.0337 79.6326C73.0342 79.6392 73.036 79.6457 73.039 79.6517C73.042 79.6576 73.0462 79.6629 73.0512 79.6672C73.0563 79.6716 73.0621 79.6749 73.0684 79.6769C73.0747 79.679 73.0814 79.6798 73.088 79.6792C73.8328 79.6404 74.4224 80.214 74.4282 80.2198C74.4333 80.225 74.4394 80.229 74.446 80.2317C74.4527 80.2343 74.4599 80.2356 74.467 80.2354Z" fill="#263238"/>
<path d="M87.8169 84.2197C87.9915 85.2037 88.2223 85.8434 88.6431 86.3821C89.064 86.9207 89.8165 86.9829 90.3771 86.8643C91.1626 86.699 91.9287 86.1507 92.239 85.0228C92.4194 84.3442 92.2952 83.5663 92.0334 82.6641L87.8169 84.2197Z" fill="#263238"/>
<path d="M90.0022 76.6563C90.2795 76.6447 90.52 77.967 90.8381 79.2795C91.1775 80.6874 91.7089 81.4341 91.965 82.3811C92.3199 83.6917 92.2985 84.3043 91.9262 85.1696C91.5538 86.0349 89.622 87.0889 88.6697 86.0271C87.8939 85.1618 87.7407 84.1176 87.6418 82.7758C87.5842 81.6345 87.4697 80.4968 87.2985 79.367C87.1258 78.3714 86.9416 77.4089 87.1685 77.2689C87.2034 77.4147 87.2442 77.5994 87.281 77.7414C87.3082 77.8503 87.4013 78.3889 87.5564 78.3753C87.5537 78.2485 87.5394 78.1223 87.5137 77.9981C87.4841 77.8863 87.4979 77.7674 87.5525 77.6656C87.6272 77.5774 87.7288 77.5166 87.8415 77.4925C88.1062 77.4028 88.3756 77.3275 88.6484 77.2669C88.7841 77.2372 88.9214 77.2151 89.0595 77.2008C89.3 77.1618 89.5433 77.143 89.7869 77.1444C89.8211 77.1507 89.8536 77.1644 89.8821 77.1846C89.9106 77.2047 89.9343 77.2308 89.9517 77.2611C89.9723 77.3091 89.9835 77.3606 89.9847 77.4128C89.9963 77.5053 90.0191 77.5961 90.0526 77.6831C90.0662 77.7219 90.0991 77.7667 90.1379 77.7531C90.1767 77.7394 90.1767 77.6986 90.1728 77.6656C90.1554 77.5042 90.1205 77.3894 90.0914 77.2028C90.0778 77.1172 90.0487 77.0083 90.039 76.913C90.0293 76.8177 90.0138 76.7419 90.0022 76.6563Z" fill="#37474F"/>
<path opacity="0.15" d="M90.9847 82.8342C90.9888 82.8529 90.9873 82.8725 90.9803 82.8903C90.9733 82.9082 90.9612 82.9236 90.9455 82.9347C90.9298 82.9457 90.9112 82.9518 90.892 82.9522C90.8728 82.9527 90.8539 82.9474 90.8377 82.9372C90.8215 82.9269 90.8087 82.9121 90.8009 82.8945C90.7931 82.877 90.7906 82.8575 90.7939 82.8386C90.7971 82.8197 90.8059 82.8022 90.8191 82.7882C90.8323 82.7743 90.8493 82.7646 90.868 82.7603C90.8805 82.7574 90.8935 82.757 90.9061 82.7592C90.9188 82.7614 90.9309 82.766 90.9417 82.7729C90.9526 82.7798 90.962 82.7887 90.9693 82.7992C90.9767 82.8098 90.9819 82.8216 90.9847 82.8342Z" fill="black"/>
<path opacity="0.15" d="M90.7903 81.9201C90.7945 81.9388 90.7929 81.9584 90.786 81.9763C90.779 81.9942 90.7669 82.0096 90.7512 82.0206C90.7355 82.0316 90.7168 82.0377 90.6976 82.0382C90.6785 82.0386 90.6596 82.0334 90.6434 82.0231C90.6271 82.0128 90.6143 81.998 90.6065 81.9805C90.5987 81.9629 90.5963 81.9435 90.5995 81.9246C90.6028 81.9056 90.6116 81.8881 90.6247 81.8742C90.6379 81.8602 90.655 81.8505 90.6737 81.8462C90.6862 81.8433 90.6991 81.843 90.7118 81.8451C90.7244 81.8473 90.7366 81.852 90.7474 81.8588C90.7582 81.8657 90.7676 81.8747 90.775 81.8852C90.7824 81.8957 90.7876 81.9076 90.7903 81.9201Z" fill="black"/>
<path opacity="0.15" d="M90.597 81.0607C90.6011 81.0795 90.5996 81.099 90.5926 81.1169C90.5856 81.1348 90.5735 81.1502 90.5578 81.1612C90.5421 81.1722 90.5235 81.1784 90.5043 81.1788C90.4851 81.1793 90.4662 81.174 90.45 81.1637C90.4338 81.1535 90.421 81.1386 90.4132 81.1211C90.4054 81.1036 90.4029 81.0841 90.4062 81.0652C90.4094 81.0463 90.4182 81.0287 90.4314 81.0148C90.4446 81.0008 90.4616 80.9911 90.4803 80.9868C90.4928 80.984 90.5058 80.9836 90.5184 80.9858C90.5311 80.9879 90.5432 80.9926 90.554 80.9995C90.5649 81.0063 90.5743 81.0153 90.5816 81.0258C90.589 81.0363 90.5942 81.0482 90.597 81.0607Z" fill="black"/>
<path opacity="0.15" d="M90.4026 80.217C90.4068 80.2357 90.4052 80.2553 90.3983 80.2732C90.3913 80.291 90.3792 80.3065 90.3635 80.3175C90.3478 80.3285 90.3291 80.3346 90.31 80.3351C90.2908 80.3355 90.2719 80.3303 90.2557 80.32C90.2394 80.3097 90.2266 80.2949 90.2188 80.2773C90.211 80.2598 90.2086 80.2404 90.2118 80.2214C90.2151 80.2025 90.2239 80.185 90.237 80.171C90.2502 80.1571 90.2673 80.1474 90.286 80.1431C90.2985 80.1402 90.3114 80.1399 90.3241 80.142C90.3368 80.1442 90.3489 80.1488 90.3597 80.1557C90.3706 80.1626 90.3799 80.1715 90.3873 80.182C90.3947 80.1926 90.3999 80.2044 90.4026 80.217Z" fill="black"/>
<path opacity="0.15" d="M88.2415 80.6076C88.2456 80.6263 88.2441 80.6459 88.2371 80.6638C88.2302 80.6817 88.2181 80.6971 88.2023 80.7081C88.1866 80.7191 88.168 80.7252 88.1488 80.7257C88.1296 80.7261 88.1107 80.7209 88.0945 80.7106C88.0783 80.7003 88.0655 80.6855 88.0577 80.668C88.0499 80.6504 88.0475 80.631 88.0507 80.6121C88.054 80.5931 88.0627 80.5756 88.0759 80.5617C88.0891 80.5477 88.1061 80.538 88.1248 80.5337C88.1373 80.5308 88.1503 80.5305 88.163 80.5326C88.1756 80.5348 88.1877 80.5395 88.1986 80.5463C88.2094 80.5532 88.2188 80.5622 88.2262 80.5727C88.2335 80.5832 88.2387 80.5951 88.2415 80.6076Z" fill="black"/>
<path opacity="0.15" d="M88.4322 81.468C88.435 81.4804 88.4353 81.4932 88.4332 81.5058C88.431 81.5183 88.4263 81.5302 88.4194 81.5409C88.4125 81.5516 88.4036 81.5608 88.3931 81.568C88.3826 81.5752 88.3707 81.5802 88.3583 81.5827C88.3394 81.5869 88.3198 81.5855 88.3018 81.5785C88.2838 81.5715 88.2683 81.5593 88.2573 81.5435C88.2462 81.5277 88.2401 81.509 88.2398 81.4897C88.2394 81.4704 88.2448 81.4514 88.2552 81.4352C88.2657 81.419 88.2807 81.4062 88.2984 81.3986C88.3161 81.3909 88.3357 81.3887 88.3547 81.3923C88.3737 81.3958 88.3912 81.4048 88.405 81.4183C88.4187 81.4318 88.4282 81.4491 88.4322 81.468Z" fill="black"/>
<path opacity="0.15" d="M88.6224 82.3263C88.6265 82.3451 88.625 82.3646 88.618 82.3825C88.611 82.4004 88.5989 82.4158 88.5832 82.4268C88.5675 82.4379 88.5489 82.444 88.5297 82.4444C88.5105 82.4449 88.4916 82.4396 88.4754 82.4294C88.4592 82.4191 88.4464 82.4043 88.4386 82.3867C88.4308 82.3692 88.4283 82.3497 88.4316 82.3308C88.4348 82.3119 88.4436 82.2944 88.4568 82.2804C88.47 82.2665 88.487 82.2567 88.5057 82.2525C88.5182 82.2496 88.5312 82.2492 88.5438 82.2514C88.5565 82.2536 88.5686 82.2582 88.5794 82.2651C88.5903 82.272 88.5997 82.2809 88.607 82.2914C88.6144 82.3019 88.6196 82.3138 88.6224 82.3263Z" fill="black"/>
<path opacity="0.15" d="M88.824 83.243C88.8267 83.2558 88.8268 83.2689 88.8244 83.2818C88.822 83.2946 88.8171 83.3068 88.81 83.3177C88.8029 83.3287 88.7936 83.3381 88.7829 83.3454C88.7721 83.3528 88.76 83.358 88.7472 83.3606C88.7344 83.3633 88.7213 83.3635 88.7084 83.3611C88.6956 83.3586 88.6834 83.3537 88.6725 83.3466C88.6616 83.3395 88.6521 83.3303 88.6448 83.3195C88.6374 83.3087 88.6322 83.2966 88.6296 83.2838C88.6241 83.258 88.6292 83.2312 88.6436 83.2091C88.658 83.187 88.6806 83.1716 88.7064 83.1662C88.7322 83.1608 88.759 83.1658 88.7811 83.1802C88.8032 83.1946 88.8186 83.2172 88.824 83.243Z" fill="black"/>
<path opacity="0.15" d="M89.6882 83.5772L88.1812 77.2224L88.5361 77.1719L89.6882 83.5772Z" fill="black"/>
<path d="M90.9071 82.9102H90.8916C90.2379 82.846 89.1576 83.0405 88.7581 83.2991C88.7526 83.3027 88.7465 83.3051 88.7402 83.3062C88.7338 83.3073 88.7272 83.3072 88.7209 83.3057C88.7145 83.3043 88.7086 83.3016 88.7033 83.2978C88.698 83.294 88.6936 83.2891 88.6902 83.2836C88.6836 83.2724 88.6815 83.2591 88.6844 83.2464C88.6873 83.2337 88.6949 83.2227 88.7057 83.2155C89.1305 82.9394 90.2205 82.741 90.9051 82.811C90.918 82.811 90.9303 82.8161 90.9394 82.8253C90.9485 82.8344 90.9536 82.8467 90.9536 82.8596C90.9536 82.8725 90.9485 82.8849 90.9394 82.894C90.9303 82.9031 90.918 82.9083 90.9051 82.9083L90.9071 82.9102Z" fill="#263238"/>
<path d="M90.7046 81.9833C90.6963 81.9853 90.6877 81.9853 90.6794 81.9833C90.1654 81.8103 89.0114 82.0786 88.5459 82.3722C88.5348 82.3789 88.5215 82.381 88.5089 82.3781C88.4962 82.3752 88.4852 82.3675 88.478 82.3567C88.4745 82.3512 88.4721 82.3451 88.471 82.3387C88.4698 82.3323 88.47 82.3257 88.4714 82.3194C88.4729 82.313 88.4756 82.307 88.4794 82.3017C88.4832 82.2965 88.488 82.292 88.4936 82.2886C88.9707 81.9775 90.1616 81.7053 90.7046 81.8861C90.7156 81.8883 90.7254 81.8943 90.7325 81.903C90.7396 81.9117 90.7435 81.9225 90.7435 81.9338C90.7435 81.945 90.7396 81.9558 90.7325 81.9645C90.7254 81.9732 90.7156 81.9792 90.7046 81.9814V81.9833Z" fill="#263238"/>
<path d="M90.5141 81.1316C90.5052 81.1344 90.4958 81.1344 90.4869 81.1316C89.9729 80.9585 88.8189 81.2268 88.3534 81.5205C88.3425 81.5253 88.3302 81.5261 88.3187 81.5226C88.3073 81.5192 88.2974 81.5118 88.2909 81.5018C88.2844 81.4917 88.2816 81.4797 88.2831 81.4678C88.2846 81.4559 88.2903 81.4449 88.2991 81.4368C88.7782 81.1277 89.9691 80.8535 90.5102 81.0343C90.5165 81.0361 90.5224 81.0391 90.5275 81.0433C90.5325 81.0474 90.5367 81.0526 90.5396 81.0585C90.5425 81.0644 90.5442 81.0708 90.5445 81.0773C90.5447 81.0839 90.5436 81.0904 90.5412 81.0966C90.5397 81.1041 90.5364 81.1111 90.5317 81.1172C90.527 81.1233 90.521 81.1282 90.5141 81.1316Z" fill="#263238"/>
<path d="M90.3271 80.2792H90.2999C89.7859 80.1061 88.6319 80.3745 88.1664 80.6681C88.1611 80.6717 88.1551 80.6742 88.1488 80.6754C88.1425 80.6767 88.136 80.6767 88.1297 80.6754C88.1234 80.6741 88.1174 80.6716 88.112 80.668C88.1067 80.6645 88.1021 80.6599 88.0986 80.6545C88.095 80.6491 88.0925 80.6431 88.0913 80.6368C88.09 80.6305 88.09 80.624 88.0913 80.6176C88.0925 80.6113 88.095 80.6053 88.0986 80.6C88.1022 80.5946 88.1068 80.59 88.1121 80.5864C88.5912 80.2753 89.7821 80.0031 90.3232 80.182C90.3296 80.1839 90.3355 80.1872 90.3406 80.1915C90.3456 80.1959 90.3498 80.2012 90.3527 80.2072C90.3556 80.2133 90.3572 80.2198 90.3575 80.2265C90.3578 80.2332 90.3566 80.2399 90.3542 80.2461C90.3528 80.2535 90.3496 80.2604 90.3448 80.2661C90.3401 80.2719 90.334 80.2764 90.3271 80.2792Z" fill="#263238"/>
<path d="M88.5057 44.2614C89.1496 52.4499 89.5452 63.6 89.5452 63.6C89.6034 64.2222 90.2008 66.8766 90.4995 69.9431C90.8156 73.1789 91.0716 79.24 91.0716 79.24C91.0716 79.24 88.814 80.4573 86.9851 79.8467C86.9851 79.8467 85.0242 69.6378 84.0874 65.8246C83.1991 62.2155 81.8104 55.3745 81.8104 55.3745L80.8659 62.1513C80.8659 62.1513 80.99 64.4848 80.9221 66.1182C80.8407 68.018 79.6323 77.1457 79.6323 77.1457C79.6323 77.1457 77.1769 78.5886 75.2742 77.1244C75.2742 77.1244 74.9445 64.5353 74.8863 62.2505C74.7816 57.7683 75.3033 49.0819 75.4682 43.2969L88.5057 44.2614Z" fill="#263238"/>
<path d="M85.1841 53.6875C85.3548 55.6489 85.5455 57.6097 85.7562 59.5698C85.8584 60.5472 85.9651 61.526 86.0763 62.5061L86.2431 63.9742L86.3284 64.7073C86.3556 64.9523 86.406 65.1934 86.4428 65.4365C86.7648 67.3811 87.2613 70.9085 87.6065 72.8472C87.9518 74.7859 88.3319 76.7188 88.7315 78.6478C88.4729 76.6955 88.1936 74.747 87.8936 72.8025C87.591 70.8579 87.1178 67.3266 86.7842 65.3859C86.7454 65.1429 86.695 64.9017 86.6659 64.6587L86.5767 63.9256L86.3924 62.4613C86.2709 61.4852 86.1416 60.5096 86.0045 59.5348C85.7537 57.5824 85.4802 55.6334 85.1841 53.6875Z" fill="black"/>
<path d="M76.1407 53.1328C75.9351 54.9626 75.8265 56.8041 75.7528 58.6437C75.6791 60.4832 75.6015 62.3383 75.6714 64.1682C75.7412 65.998 75.7625 69.0937 75.8323 70.9352C75.9022 72.7767 75.9836 74.6143 76.0922 76.4519C76.122 74.6098 76.1278 72.7689 76.1097 70.9294C76.098 69.0898 76.0651 66.0058 76.0263 64.1662L75.9933 62.7875L75.9836 62.4414V62.0992V61.4108L76.0185 58.6515L76.0631 55.8921C76.0806 54.9724 76.1097 54.0526 76.1407 53.1328Z" fill="black"/>
<path d="M81.8103 55.3786L81.0131 50.8945C81.0131 50.8945 78.7962 50.5697 77.6597 49.5469C77.6597 49.5469 78.3928 50.9081 80.4836 51.4292L81.2866 55.3922L80.8657 62.1534L81.8103 55.3786Z" fill="black"/>
<path d="M72.1705 30.2623C72.186 29.8734 72.3644 29.5662 72.8338 29.2512C73.2003 29.0358 73.5228 28.7527 73.7842 28.4169C74.0421 28.0708 74.4805 27.4252 74.7442 27.2094C75.008 26.9935 74.6919 26.6863 74.2283 26.7407C73.7648 26.7952 72.7155 27.3241 72.4634 27.8841C72.2112 28.4442 72.0444 29.6323 72.1705 30.2623Z" fill="#F28F8F"/>
<path d="M78.2031 28.4111C77.1363 28.4928 75.8601 28.4928 74.7546 30.5384C73.6142 32.6522 72.6657 34.3187 72.6657 34.3187C72.4432 33.3414 72.2934 32.3489 72.2177 31.3493C72.1266 29.8831 72.1653 29.2414 72.6289 28.3994C73.2873 27.4831 73.8815 26.5221 74.4074 25.5234C73.5892 25.5655 72.7762 25.6781 71.9772 25.8598C71.8504 25.8878 71.7396 25.9646 71.6688 26.0737C71.6281 26.1554 71.63 26.2546 71.5912 26.3382C71.5271 26.4518 71.4246 26.5386 71.3023 26.5832C71.0579 26.6999 70.7728 26.803 70.6564 27.048C70.5924 27.1841 70.5924 27.3455 70.5381 27.4855C70.445 27.7208 70.2219 27.8744 70.0474 28.0339C69.8555 28.253 69.7309 28.5232 69.6886 28.8117C69.3162 30.3207 69.2153 31.8549 69.2153 34.1942C69.2153 35.8179 69.3123 38.0405 69.867 39.2695C70.4217 40.4985 71.5369 41.8869 73.1739 40.2418C74.8109 38.5967 77.6658 34.0367 77.6658 34.0367L78.2031 28.4111Z" fill="#FFA8A7"/>
<path d="M72.8103 28.125C72.5343 28.2316 72.2774 28.3826 72.05 28.5722C72.1141 28.6999 72.1482 28.8405 72.1499 28.9834C72.1516 29.1262 72.1208 29.2676 72.0597 29.3967C71.8658 29.8945 71.4934 30.0871 71.5865 30.5635C71.5815 30.4106 71.6196 30.2595 71.6965 30.1274C71.7733 29.9953 71.8858 29.8877 72.0209 29.8168C72.5601 29.4862 72.8743 28.4128 72.8103 28.125Z" fill="#F28F8F"/>
<path d="M78.091 28.3438C77.0766 28.4526 76.037 28.509 75.0362 29.8838C74.0354 31.2586 72.6293 34.1619 72.6293 34.1619L72.6661 34.3252C72.6661 34.3252 73.4904 35.3753 73.6572 37.4482C73.7111 38.0468 73.6395 38.6501 73.4471 39.2194C73.2547 39.7887 72.9458 40.3114 72.5401 40.7539C72.3906 40.847 72.2277 40.9165 72.0571 40.96C72.0571 40.96 72.4644 41.2595 73.056 40.8414C73.6475 40.4233 78.2035 33.8702 78.2035 33.8702L78.091 28.3438Z" fill="#F0F0F0"/>
<path d="M72.6022 34.0275L72.6662 34.3192C72.6662 34.3192 73.2034 36.2054 72.5188 37.6366C71.8341 39.0678 70.8469 39.2137 70.3329 39.1689C69.7685 39.1203 69.5823 38.43 69.5823 38.43L69.4776 37.9458C69.4073 38.0021 69.357 38.0796 69.3343 38.1669C69.3116 38.2542 69.3176 38.3465 69.3515 38.43C69.5673 39.0315 69.8266 39.6165 70.1273 40.1801C70.4396 40.746 71.485 41.5627 72.3849 41.0649C73.2849 40.5671 73.8454 39.3439 73.8454 37.7183C73.8454 36.0926 73.473 35.0562 73.2209 34.7101C72.9687 34.3639 72.5207 33.625 72.5207 33.625L72.6022 34.0275Z" fill="#E0E0E0"/>
<path d="M88.7042 29.2016C88.7042 29.2016 90.1336 30.3878 89.4586 33.3027C89.0252 35.2047 88.7226 37.1344 88.5529 39.078C88.4482 40.6142 88.6208 45.7945 88.6208 45.7945C86.303 48.5713 76.6113 47.8616 75.4087 45.3337C75.4087 45.3337 75.271 35.5059 76.1477 32.0251C76.6442 30.0533 77.3425 28.9138 78.0872 28.346L81.3844 27.5682L84.3771 27.5312L88.7042 29.2016Z" fill="#E6E6E6"/>
<path d="M87.3695 12.5825C87.4412 12.4659 87.4892 12.3363 87.511 12.2011C87.5327 12.0659 87.5277 11.9277 87.4962 11.7945C87.4647 11.6612 87.4073 11.5355 87.3273 11.4244C87.2473 11.3134 87.1463 11.2193 87.03 11.1474C86.9138 11.0755 86.7845 11.0273 86.6497 11.0055C86.5148 10.9837 86.377 10.9887 86.2441 11.0203C86.1111 11.0519 85.9857 11.1095 85.875 11.1897C85.7643 11.2698 85.6704 11.3711 85.5987 11.4877L85.0498 12.3822C85.0087 12.4647 84.9904 12.5568 84.9969 12.6488C85.0034 12.7408 85.0344 12.8294 85.0866 12.9053C85.2196 13.1247 85.4024 13.3096 85.6201 13.4447C85.8379 13.5799 86.0844 13.6616 86.3396 13.6831C86.4297 13.6957 86.5216 13.6844 86.606 13.6503C86.6904 13.6162 86.7644 13.5604 86.8206 13.4886L87.3695 12.5941V12.5825Z" fill="#455A64"/>
<path d="M86.3396 13.6802C86.4297 13.6928 86.5216 13.6815 86.606 13.6474C86.6904 13.6133 86.7644 13.5575 86.8206 13.4857L87.3695 12.5912C87.4623 12.4401 87.5151 12.2678 87.5229 12.0905C87.5307 11.9132 87.4933 11.7368 87.4141 11.5781C87.5072 11.8581 87.2434 12.2821 86.9389 12.7779C86.6344 13.2738 86.26 13.511 85.5114 13.091C84.9664 12.7857 85.0323 12.4512 85.1099 12.2918L85.0498 12.3909C85.0087 12.4735 84.9904 12.5655 84.9969 12.6575C85.0034 12.7496 85.0344 12.8381 85.0866 12.914C85.2209 13.1313 85.4043 13.3139 85.6219 13.447C85.8396 13.5801 86.0854 13.66 86.3396 13.6802Z" fill="#37474F"/>
<path d="M87.3131 16.8656C87.75 16.1344 87.8819 15.26 87.6802 14.432C87.4785 13.6039 86.9595 12.889 86.2355 12.442C85.5116 11.9951 84.6412 11.8522 83.8129 12.0443C82.9846 12.2365 82.2652 12.7481 81.8107 13.4684C81.5605 13.8768 81.5779 14.4407 81.9251 15.0921C82.6175 16.3775 84.3592 17.4528 85.8158 17.4936C86.5431 17.515 87.0609 17.2739 87.3131 16.8656Z" fill="#7B55D3"/>
<path d="M87.1991 15.2388C86.5067 13.9554 84.765 12.8781 83.3085 12.8372C82.5811 12.8159 82.0613 13.0589 81.8111 13.4653L69.7182 33.1462C69.468 33.5545 69.4874 34.1185 69.8327 34.7699C70.5251 36.0552 72.2668 37.1306 73.7233 37.1734C74.4507 37.1928 74.9704 36.9517 75.2206 36.5453L87.3136 16.8625C87.5638 16.4561 87.5444 15.8824 87.1991 15.2388Z" fill="#7B55D3"/>
<path opacity="0.2" d="M87.1991 15.2388C86.5067 13.9554 84.765 12.8781 83.3085 12.8372C82.5811 12.8159 82.0613 13.0589 81.8111 13.4653L69.7182 33.1462C69.468 33.5545 69.4874 34.1185 69.8327 34.7699C70.5251 36.0552 72.2668 37.1306 73.7233 37.1734C74.4507 37.1928 74.9704 36.9517 75.2206 36.5453L87.3136 16.8625C87.5638 16.4561 87.5444 15.8824 87.1991 15.2388Z" fill="white"/>
<path d="M73.0406 38.4091C71.5433 38.3663 69.7531 37.2598 69.0413 35.9395C68.6864 35.2783 68.667 34.6891 68.925 34.2711L69.854 32.7562C70.112 32.3382 70.6453 32.0893 71.394 32.1107C72.8913 32.1534 74.6815 33.2599 75.3933 34.5802C75.7482 35.2414 75.7676 35.8306 75.5096 36.2506L74.5806 37.7635C74.3227 38.1816 73.7893 38.4324 73.0406 38.4091Z" fill="#7B55D3"/>
<path opacity="0.35" d="M73.0406 38.4091C71.5433 38.3663 69.7531 37.2598 69.0413 35.9395C68.6864 35.2783 68.667 34.6891 68.925 34.2711L69.854 32.7562C70.112 32.3382 70.6453 32.0893 71.394 32.1107C72.8913 32.1534 74.6815 33.2599 75.3933 34.5802C75.7482 35.2414 75.7676 35.8306 75.5096 36.2506L74.5806 37.7635C74.3227 38.1816 73.7893 38.4324 73.0406 38.4091Z" fill="white"/>
<path d="M70.463 33.6263C71.9603 33.6691 73.7505 34.7736 74.4623 36.0959C74.8192 36.7551 74.8366 37.3443 74.5787 37.7643C74.3207 38.1843 73.7893 38.4313 73.0406 38.4099C71.5433 38.3671 69.7531 37.2606 69.0413 35.9403C68.6864 35.2791 68.667 34.6899 68.925 34.2719C69.1829 33.8538 69.7144 33.6049 70.463 33.6263Z" fill="#7B55D3"/>
<path opacity="0.15" d="M70.463 33.6263C71.9603 33.6691 73.7505 34.7736 74.4623 36.0959C74.8192 36.7551 74.8366 37.3443 74.5787 37.7643C74.3207 38.1843 73.7893 38.4313 73.0406 38.4099C71.5433 38.3671 69.7531 37.2606 69.0413 35.9403C68.6864 35.2791 68.667 34.6899 68.925 34.2719C69.1829 33.8538 69.7144 33.6049 70.463 33.6263Z" fill="black"/>
<path d="M58.1822 52.5991C58.4052 52.2374 58.8668 52.0157 59.5166 52.041C60.8122 52.078 62.3638 53.0347 62.9805 54.18C63.2889 54.7517 63.3044 55.2631 63.0814 55.6248L62.3386 56.356C62.1895 56.4887 62.0147 56.589 61.8251 56.6505C61.6355 56.7121 61.4352 56.7337 61.2369 56.7138C60.0422 56.6807 58.6147 55.7979 58.0464 54.7439C57.9398 54.5752 57.8691 54.3862 57.8387 54.1888C57.8083 53.9914 57.8189 53.7898 57.8699 53.5967L58.1822 52.5991Z" fill="#7B55D3"/>
<g opacity="0.15">
<path d="M58.1822 52.5991C58.4052 52.2374 58.8668 52.0157 59.5166 52.041C60.8122 52.078 62.3638 53.0347 62.9805 54.18C63.2889 54.7517 63.3044 55.2631 63.0814 55.6248L62.3386 56.356C62.1895 56.4887 62.0147 56.589 61.8251 56.6505C61.6355 56.7121 61.4352 56.7337 61.2369 56.7138C60.0422 56.6807 58.6147 55.7979 58.0464 54.7439C57.9398 54.5752 57.8691 54.3862 57.8387 54.1888C57.8083 53.9914 57.8189 53.7898 57.8699 53.5967L58.1822 52.5991Z" fill="black"/>
</g>
<path d="M59.5165 52.0421C60.8121 52.0791 62.3637 53.0358 62.9805 54.1811C63.2889 54.7528 63.3044 55.2643 63.0814 55.6259L73.9873 37.876C74.2103 37.5124 74.1948 37.001 73.8864 36.4293C73.2697 35.284 71.72 34.3272 70.4225 34.2903C69.7747 34.2708 69.3111 34.4847 69.0881 34.8484L58.1821 52.6002C58.3994 52.2366 58.8668 52.0227 59.5165 52.0421Z" fill="#7B55D3"/>
<path d="M62.2432 56.4221C62.4507 56.0993 62.4372 55.6443 62.1579 55.1192C61.6051 54.0945 60.2086 53.2408 59.0411 53.2116C58.4592 53.198 58.05 53.3847 57.8521 53.7094V53.7192C57.1578 54.8587 55.7924 58.3005 55.9553 60.0156L55.9863 60.0351C55.992 60.1288 56.0192 60.22 56.0658 60.3015C56.1904 60.5029 56.3609 60.6719 56.5631 60.7945C56.7654 60.9172 56.9938 60.9902 57.2295 61.0074C57.3191 61.0108 57.4084 60.9948 57.4914 60.9607C59.0857 60.3384 61.5527 57.546 62.2432 56.4221Z" fill="#7B55D3"/>
<path opacity="0.2" d="M73.8861 36.4297C73.7694 36.2177 73.6302 36.0189 73.4711 35.8367L62.5651 53.5982C62.7247 53.7801 62.8639 53.979 62.9802 54.1913C62.9996 54.2283 63.0151 54.2652 63.0326 54.3022L73.9404 36.5503C73.9152 36.5036 73.9152 36.4667 73.8861 36.4297ZM75.655 35.2941C75.6444 35.233 75.6302 35.1726 75.6123 35.1133L86.3689 17.6123C87.7809 15.3158 87.775 14.3493 87.263 13.3984C87.5675 14.3377 86.2739 16.4281 86.0993 16.7042L75.2574 34.3471C75.3059 34.423 75.3505 34.4988 75.3931 34.5746L74.4622 36.0895C74.5851 36.3126 74.6734 36.5533 74.724 36.8031L75.655 35.2941ZM56.7 60.8786L57.2664 60.6239C57.2664 60.6239 57.6775 60.6667 58.9033 59.5486C60.1291 58.4304 60.8681 57.2151 62.1578 55.1189C62.0201 54.8722 61.8498 54.6452 61.6516 54.4441C61.638 54.4713 60.2009 57.2637 58.399 59.2374C57.8639 59.8349 57.2619 60.3686 56.605 60.8281C56.636 60.8456 56.667 60.8631 56.7 60.8786Z" fill="white"/>
<path d="M56.4089 60.0924L55.957 60.8274C55.763 61.1483 55.443 62.0544 55.6971 62.212C55.9512 62.3695 56.6164 61.6772 56.8143 61.3564L57.2662 60.6233C57.2662 60.6233 57.2565 60.4288 56.919 60.2343C56.5815 60.0399 56.4089 60.0924 56.4089 60.0924Z" fill="#455A64"/>
<path d="M56.025 62.1547C56.0166 62.109 55.9987 62.0656 55.9724 62.0273C55.9462 61.9889 55.9123 61.9565 55.8728 61.9322C55.8333 61.9078 55.7892 61.892 55.7433 61.8858C55.6973 61.8796 55.6506 61.8831 55.6061 61.8961C55.5906 62.0478 55.6197 62.1683 55.6972 62.217C55.7748 62.2656 55.8931 62.2345 56.025 62.1547Z" fill="#263238"/>
<path d="M74.4005 25.5234C74.6778 25.5234 75.1898 25.8229 75.5913 26.0854C75.9928 26.3479 76.3671 26.3674 76.2352 26.6688C76.176 26.7533 76.0953 26.8206 76.0016 26.8636C75.9079 26.9067 75.8045 26.924 75.7019 26.9138C75.4792 26.9047 75.2591 26.8635 75.0483 26.7913C75.5234 27.2016 75.6301 27.3649 75.4885 27.5088C75.2946 27.7169 74.9416 27.6916 74.6545 27.5497C74.8155 27.715 74.9978 27.8005 74.9144 27.958C74.831 28.1155 74.5382 28.1641 74.1968 28.1019C73.9785 28.0641 73.768 27.9898 73.5742 27.8822C73.2115 27.9794 72.8081 28.1194 72.8081 28.1194C73.1836 27.1675 73.7225 26.2889 74.4005 25.5234Z" fill="#FFA8A7"/>
<path d="M74.6544 27.5376C74.4604 27.4267 74.2665 27.2867 74.0725 27.172C73.8763 27.0688 73.6483 27.0438 73.4344 27.102C73.2114 27.1292 72.9883 27.172 72.7653 27.2148C72.5423 27.2576 72.3192 27.2926 72.0923 27.3217C72.3095 27.2595 72.5306 27.205 72.7537 27.1506C72.9767 27.0962 73.1978 27.0534 73.4247 27.0203C73.5397 27.004 73.6558 26.9975 73.7719 27.0009C73.8918 27.0076 74.0074 27.048 74.1055 27.1175C74.3033 27.2537 74.474 27.4014 74.6544 27.5376Z" fill="#F28F8F"/>
<path d="M75.0488 26.781C74.8762 26.6702 74.7036 26.5593 74.5271 26.4562C74.4379 26.4076 74.3487 26.3512 74.2614 26.3143C74.1676 26.2873 74.0696 26.2781 73.9724 26.2871C73.7785 26.2871 73.567 26.324 73.3653 26.3493C73.1636 26.3746 72.958 26.4018 72.7524 26.4193C72.9464 26.3668 73.152 26.324 73.3556 26.2851C73.5587 26.2457 73.7641 26.219 73.9705 26.2054C74.078 26.1974 74.1861 26.2106 74.2885 26.2443C74.3832 26.2894 74.474 26.342 74.5601 26.4018C74.7316 26.5166 74.8949 26.6434 75.0488 26.781Z" fill="#F28F8F"/>
<path d="M85.1529 18.7734C85.1529 18.7734 85.7987 18.7734 86.272 19.5668C86.5106 19.9557 86.7103 20.6966 86.272 22.8726C86.1044 23.7163 85.8108 24.5298 85.4011 25.2858C85.2827 25.5304 85.0741 25.7194 84.8193 25.8127L84.7572 24.1735L84.7456 23.0301C84.7456 23.0301 83.9523 22.0772 83.8204 21.2625C83.6517 20.2163 83.8457 19.771 83.8457 19.771L85.1529 18.7734Z" fill="#37474F"/>
<path d="M85.3805 18.8143C85.1613 17.9042 83.9278 16.8833 81.676 16.9066C79.8315 16.928 78.7958 17.63 78.2256 18.7462C77.6554 19.8624 78.1655 21.2274 78.1655 21.2274L83.9181 20.4768L85.3805 18.8143Z" fill="#37474F"/>
<path d="M86.2779 24.5494C85.6591 24.9208 85.0307 24.3705 85.0307 24.3705L85.12 27.7521C85.12 27.7521 85.0947 28.4074 84.0959 29.0452C82.68 29.9494 82.0594 30.1847 81.4853 31.0909C80.919 29.6675 80.3371 28.8858 81.206 27.7249L81.1595 26.947C80.8225 26.9903 80.4822 27.0014 80.1431 26.9801C79.3867 26.9101 78.8786 26.3442 78.6032 25.545C78.1978 24.3627 77.9437 22.4473 78.2657 20.3706C78.3236 19.9678 78.5198 19.5978 78.8204 19.3244C80.2246 18.0779 81.9372 18.8169 83.2212 19.2252C83.7429 19.3713 84.2988 19.3336 84.7961 19.1183C84.3907 19.6297 84.2142 20.11 84.3403 22.4357C84.4299 22.5904 84.5484 22.7264 84.6894 22.8363C84.9784 23.0579 85.1626 22.426 85.3779 22.1712C85.4834 22.0697 85.611 21.9942 85.7506 21.9506C85.8902 21.9071 86.038 21.8967 86.1823 21.9203C86.3266 21.9438 86.4634 22.0008 86.582 22.0865C86.7006 22.1722 86.7977 22.2845 86.8655 22.4143C86.9682 22.5928 87.0344 22.79 87.0604 22.9944C87.0864 23.1988 87.0717 23.4064 87.017 23.6051C86.9623 23.8037 86.8688 23.9895 86.7419 24.1516C86.615 24.3137 86.4573 24.4489 86.2779 24.5494Z" fill="#FFA8A7"/>
<path d="M81.9722 21.1004L82.8217 21.4077C82.8606 21.2916 82.8531 21.1648 82.8006 21.0541C82.7481 20.9435 82.6549 20.8576 82.5404 20.8146C82.4845 20.7946 82.4251 20.7862 82.3658 20.7899C82.3065 20.7936 82.2486 20.8092 82.1955 20.8359C82.1424 20.8626 82.0952 20.8998 82.0568 20.9453C82.0185 20.9908 81.9897 21.0435 81.9722 21.1004Z" fill="#37474F"/>
<path d="M78.8358 21.3381L79.6931 21.0289C79.6756 20.9721 79.6468 20.9193 79.6084 20.8739C79.57 20.8285 79.5228 20.7914 79.4696 20.7649C79.4165 20.7383 79.3585 20.7229 79.2992 20.7195C79.24 20.7161 79.1806 20.7248 79.1248 20.745C79.0102 20.7882 78.9163 20.8736 78.8626 20.9839C78.8088 21.0942 78.7993 21.221 78.8358 21.3381Z" fill="#37474F"/>
<path d="M82.5039 21.9674C82.5062 22.0405 82.4868 22.1126 82.4481 22.1746C82.4095 22.2367 82.3533 22.2858 82.2868 22.3158C82.2203 22.3458 82.1464 22.3554 82.0744 22.3432C82.0025 22.3311 81.9358 22.2978 81.8827 22.2476C81.8296 22.1974 81.7926 22.1326 81.7764 22.0613C81.7601 21.99 81.7653 21.9154 81.7913 21.8471C81.8174 21.7788 81.863 21.7197 81.9226 21.6774C81.9821 21.6351 82.0528 21.6115 82.1257 21.6096C82.174 21.608 82.2222 21.616 82.2674 21.6332C82.3125 21.6504 82.3539 21.6763 82.3891 21.7096C82.4242 21.7428 82.4525 21.7827 82.4722 21.827C82.4919 21.8712 82.5027 21.9189 82.5039 21.9674Z" fill="#263238"/>
<path d="M79.7657 22.0105C79.7678 22.0832 79.7486 22.1549 79.7103 22.2167C79.672 22.2784 79.6164 22.3275 79.5505 22.3577C79.4845 22.3879 79.4111 22.398 79.3395 22.3865C79.2679 22.3751 79.2012 22.3428 79.1478 22.2936C79.0944 22.2443 79.0567 22.1804 79.0394 22.1098C79.0221 22.0392 79.026 21.965 79.0506 21.8966C79.0751 21.8282 79.1193 21.7685 79.1775 21.7252C79.2357 21.6818 79.3053 21.6566 79.3778 21.6527C79.4278 21.6446 79.4791 21.648 79.5277 21.6627C79.5763 21.6773 79.6209 21.7028 79.6583 21.7373C79.6956 21.7717 79.7247 21.8142 79.7433 21.8615C79.7619 21.9089 79.7695 21.9598 79.7657 22.0105Z" fill="#263238"/>
<path d="M81.1077 21.2422L80.9545 23.6029L79.6899 23.2256C80.0087 22.4665 80.4931 21.7887 81.1077 21.2422Z" fill="#F28F8F"/>
<path d="M84.3501 22.2422C84.2938 23.8523 83.743 23.9709 83.1747 24.0701C82.4203 24.2042 82.044 23.7998 80.6941 23.8173C79.8756 23.827 79.6215 24.074 79.158 24.2723C78.8166 24.4181 78.5354 24.3793 78.3996 24.0778C78.212 23.519 78.1176 22.933 78.1203 22.3433C78.0633 23.2227 78.0964 24.1056 78.2193 24.9782C78.3395 25.7327 78.6227 26.3763 79.0435 26.7283C79.6254 27.2105 80.8337 27.3953 82.3407 27.0433C83.8477 26.6913 84.4083 26.0555 84.5848 25.5188C85.1511 23.7687 84.9106 22.9597 85.1046 22.6292C85.2985 22.2986 84.3501 22.2422 84.3501 22.2422Z" fill="#37474F"/>
<path d="M80.8848 24.2997C81.6606 24.2745 81.9088 24.4106 81.9515 24.9395C82.0136 25.6959 81.9806 25.9507 81.6916 25.9934C81.3522 26.046 81.1098 26.0693 81.0884 25.8534C81.0561 25.6913 81.0709 25.5232 81.1311 25.3692C81.2494 25.2215 81.2067 25.202 80.8693 25.2137C80.5318 25.2253 80.5357 25.2856 80.6385 25.3887C80.7122 25.4645 80.7083 25.7232 80.7102 25.8729C80.7122 26.0226 80.6753 26.1004 80.1885 26.0673C79.7637 26.0323 79.8316 25.6901 79.8316 25.0387C79.8316 24.5934 80.012 24.3289 80.8848 24.2997Z" fill="#FFA8A7"/>
<path d="M81.6157 24.4062L80.3628 24.6007C80.3713 24.6841 80.3966 24.7649 80.4371 24.8383C80.4776 24.9117 80.5325 24.9761 80.5984 25.0277C80.6643 25.0793 80.74 25.1169 80.8208 25.1385C80.9017 25.16 80.986 25.1649 81.0688 25.153C81.2389 25.1242 81.3912 25.0302 81.4933 24.8908C81.5954 24.7514 81.6393 24.5776 81.6157 24.4062Z" fill="#B16668"/>
<path d="M81.4524 24.6025C81.5038 24.5996 81.5553 24.6035 81.6056 24.6142C81.5826 24.7484 81.5185 24.8722 81.4223 24.9683C81.326 25.0645 81.2024 25.1283 81.0684 25.1509C81.001 25.1626 80.9321 25.1626 80.8647 25.1509C80.8737 25.0013 80.9397 24.8609 81.0492 24.7588C81.1586 24.6567 81.303 24.6007 81.4524 24.6025Z" fill="#F28F8F"/>
<path d="M80.8745 30.9631C80.8745 30.9631 80.3159 29.9092 80.314 29.495L80.9812 28.7969L81.1984 30.5217L80.8745 30.9631Z" fill="#7B55D3"/>
<path opacity="0.2" d="M80.8745 30.9631C80.8745 30.9631 80.3159 29.9092 80.314 29.495L80.9812 28.7969L81.1984 30.5217L80.8745 30.9631Z" fill="black"/>
<path d="M81.7896 30.5903L82.93 29.8047L83.8881 30.4444L82.1348 31.3526L81.7896 30.5903Z" fill="#7B55D3"/>
<path opacity="0.2" d="M81.7896 30.5903L82.93 29.8047L83.8881 30.4444L82.1348 31.3526L81.7896 30.5903Z" fill="black"/>
<path d="M82.5944 41.2108C82.4858 37.5161 81.6635 32.8239 81.7275 31.9255L81.101 31.8672C80.6724 32.9464 79.7162 38.9356 79.7608 41.4869C79.7336 42.3775 80.6006 44.0148 81.198 44.042C81.7953 44.0693 82.6099 41.7514 82.5944 41.2108Z" fill="#7B55D3"/>
<path opacity="0.1" d="M82.5944 41.2108C82.4858 37.5161 81.6635 32.8239 81.7275 31.9255L81.101 31.8672C80.6724 32.9464 79.7162 38.9356 79.7608 41.4869C79.7336 42.3775 80.6006 44.0148 81.198 44.042C81.7953 44.0693 82.6099 41.7514 82.5944 41.2108Z" fill="white"/>
<path opacity="0.5" d="M81.0522 32.0111C81.0716 31.9547 81.0833 31.9178 81.1007 31.875L81.7272 31.9333C81.7223 32.0253 81.7223 32.1175 81.7272 32.2095C81.4866 32.2191 81.2496 32.1494 81.0522 32.0111Z" fill="black"/>
<path d="M81.8055 30.5055C81.6097 30.4764 81.4113 30.4692 81.2139 30.4841C81.0678 30.6195 80.9521 30.7846 80.8745 30.9683C80.8837 31.282 80.9611 31.59 81.1014 31.8706C81.1955 31.925 81.3002 31.9585 81.4083 31.9685C81.5164 31.9786 81.6255 31.9651 81.7279 31.9289C81.9333 31.775 82.0891 31.5641 82.1759 31.3222C82.1632 31.012 82.0303 30.719 81.8055 30.5055Z" fill="#7B55D3"/>
<path opacity="0.1" d="M81.8055 30.5055C81.6097 30.4764 81.4113 30.4692 81.2139 30.4841C81.0678 30.6195 80.9521 30.7846 80.8745 30.9683C80.8837 31.282 80.9611 31.59 81.1014 31.8706C81.1955 31.925 81.3002 31.9585 81.4083 31.9685C81.5164 31.9786 81.6255 31.9651 81.7279 31.9289C81.9333 31.775 82.0891 31.5641 82.1759 31.3222C82.1632 31.012 82.0303 30.719 81.8055 30.5055Z" fill="white"/>
<path d="M81.7925 30.5014C81.8119 30.5014 81.839 30.5481 81.8584 30.552C82.2929 30.3109 82.3608 30.2311 82.4771 30.2622C82.6963 30.3225 83.2238 31.2345 83.3557 31.5262C83.4876 31.8179 83.4643 31.8179 83.8639 31.5457C84.5655 31.062 85.1762 30.4576 85.6676 29.7606C85.9762 29.3126 86.2149 28.8202 86.3756 28.3002C86.3756 28.3002 85.9101 27.6702 85.7724 27.429C85.5067 26.9623 85.3593 26.7757 85.0936 26.8184V27.1237C85.0509 27.534 84.63 27.9288 84.0656 28.4285C83.5012 28.9283 82.5838 29.4008 82.3685 29.6225C82.1413 29.8907 81.9479 30.1859 81.7925 30.5014Z" fill="#F5F5F5"/>
<path d="M79.7335 30.8725C79.7994 31.0378 80.3153 29.7272 80.5733 29.7505C80.6974 29.7602 80.9845 30.1103 81.2211 30.4817H81.3995C81.2632 30.1647 81.1687 29.8314 81.1183 29.49C81.0601 29.0466 81.2211 27.7224 81.2211 27.7224L81.1823 27.2109L80.9534 27.2207C80.8697 27.3152 80.795 27.4174 80.7304 27.526C80.4821 27.946 79.8324 28.9183 79.7606 29.4161C79.67 29.8966 79.6608 30.389 79.7335 30.8725Z" fill="#F5F5F5"/>
<path d="M83.636 38.1819C83.3369 37.8591 83.0825 37.4974 82.8796 37.1066C82.6178 36.6107 82.5228 36.2763 82.3288 35.8698L82.1349 35.4809C82.122 35.4468 82.1014 35.4162 82.0747 35.3915C82.0407 35.369 82.0004 35.3578 81.9597 35.3596C81.919 35.3613 81.8798 35.3759 81.8478 35.4012C81.7361 35.4754 81.645 35.5767 81.583 35.6957C81.5209 35.8147 81.4899 35.9475 81.4929 36.0818C81.5021 36.3498 81.5445 36.6157 81.6189 36.8732C81.6558 37.0443 81.8226 37.6763 81.8226 37.6763L83.636 38.1819Z" fill="#F28F8F"/>
<path d="M91.7587 31.474C91.1206 29.965 90.3196 29.7375 88.1939 29.125C87.0418 31.0987 87.901 34.9334 87.901 34.9334L88.8708 39.4681C88.8708 39.4681 85.5523 39.365 84.9665 39.0947C84.3808 38.8244 82.7244 37.4691 82.1775 37.0705C81.4308 36.5299 81.1166 36.6601 80.7888 36.7554C79.7162 37.0724 79.4874 37.1988 79.276 37.3796C79.2141 37.4367 79.1675 37.5085 79.1408 37.5884C79.114 37.6683 79.1078 37.7537 79.1227 37.8366C78.8357 37.9124 78.3993 37.9649 78.409 38.4511C78.4028 38.5818 78.4152 38.7128 78.4458 38.84C78.3735 38.8623 78.3116 38.9099 78.2713 38.9742C78.0676 39.2892 78.6165 40.2051 78.9133 40.4054C79.1227 40.5473 79.3885 40.5318 79.7298 40.4365C80.0188 40.3548 79.8404 40.0728 79.8404 40.0728L80.2554 40.0398C81.2349 40.5512 81.454 41.7199 82.6701 41.8327C83.165 41.8564 83.658 41.911 84.1461 41.996C86.8013 42.4997 89.41 44.0475 91.6967 43.9289C93.9291 43.8122 93.7041 42.6416 93.5508 41.2824C93.4248 40.069 92.4899 33.1969 91.7587 31.474Z" fill="#FFA8A7"/>
<path d="M88.7837 39.0156L88.8807 39.4668C89.9203 39.5854 91.1053 40.161 91.4214 40.6782C91.115 39.8362 90.6165 39.249 88.7837 39.0156Z" fill="#F28F8F"/>
<path d="M88.148 28.9766C88.9238 29.208 90.295 29.4394 90.8924 30.0363C91.4898 30.6333 91.8893 30.9833 92.3587 32.9532C92.828 34.923 93.4021 39.6113 93.6523 40.4436C93.9025 41.2759 94.1062 41.832 93.6523 42.3395C93.0918 40.8364 91.5053 39.553 88.8831 39.4636C88.4505 39.4636 88.5514 38.9249 88.3982 38.4252C88.245 37.9254 87.6747 34.9775 87.4284 33.9974C87.1821 33.0173 86.8233 30.0169 88.148 28.9766Z" fill="#F0F0F0"/>
<path d="M88.5665 39.2454L88.5044 39.4399C89.401 39.6957 90.2275 40.1533 90.921 40.7777C91.947 41.7617 92.1798 42.5687 92.2322 43.084C92.2845 43.5993 92.2322 43.9065 91.8443 43.9221L91.4893 43.9357C91.4893 43.9357 91.563 44.1301 92.2341 44.0757C92.816 44.029 93.3784 43.8657 93.6538 43.2648C93.7797 43.0269 93.8514 42.764 93.8638 42.4951C93.8762 42.2261 93.829 41.9577 93.7256 41.7092C93.5316 41.1686 93.0177 40.2138 91.4234 39.5526C90.1142 39.0121 88.5665 39.2454 88.5665 39.2454Z" fill="#E0E0E0"/>
<path d="M79.1332 37.8437L80.3978 37.3984L79.1352 37.6493C79.1216 37.7133 79.121 37.7794 79.1332 37.8437Z" fill="#F28F8F"/>
<path d="M78.4554 38.84L79.9275 38.4297L78.4302 38.6572C78.4316 38.7189 78.4401 38.7802 78.4554 38.84Z" fill="#F28F8F"/>
<path d="M78.7446 39.4766C78.8041 39.5463 78.8821 39.5975 78.9696 39.6244C79.056 39.6537 79.1461 39.6708 79.2373 39.6749L79.2159 39.6632C79.2664 39.7371 79.3207 39.8091 79.373 39.8791L79.4002 39.8344C79.3575 39.8326 79.3149 39.8398 79.2751 39.8556C79.2354 39.8713 79.1994 39.8952 79.1694 39.9258C79.1137 39.9846 79.0778 40.0594 79.0666 40.1397C79.0948 40.0687 79.1393 40.0054 79.1965 39.9549C79.2517 39.9113 79.3203 39.8886 79.3905 39.8908H79.4487L79.4157 39.8421C79.3633 39.7682 79.311 39.6963 79.2567 39.6263V39.6146H79.2431C79.1562 39.6116 79.0697 39.5999 78.9851 39.5796C78.8981 39.5644 78.8157 39.5291 78.7446 39.4766Z" fill="#F28F8F"/>
<path d="M79.1675 39.6073C79.351 39.6055 79.5343 39.5931 79.7164 39.5703C79.7164 39.5703 79.7416 39.6753 79.9414 39.8328C80.0453 39.9041 80.1535 39.969 80.2653 40.0273L79.8502 40.0603C79.7838 39.9941 79.7042 39.9425 79.6167 39.909C79.5292 39.8755 79.4356 39.8608 79.342 39.8659L79.1675 39.6073Z" fill="#F28F8F"/>
</svg>
