<svg width="74" height="74" viewBox="0 0 74 74" fill="none" xmlns="http://www.w3.org/2000/svg">
<g filter="url(#filter0_d_1_129942)">
<rect x="1" width="72" height="72" rx="36" fill="white" shape-rendering="crispEdges"/>
<g clip-path="url(#clip0_1_129942)">
<path d="M33.5164 21.5557C33.7981 21.7711 34.0596 22.0004 34.3125 22.249C34.36 22.2958 34.4076 22.3425 34.4565 22.3907C35.3456 23.3197 36 24.6988 36 25.999C38.805 25.999 41.61 25.999 44.5 25.999C44.5413 25.7515 44.5825 25.504 44.625 25.249C44.6949 25.0675 44.761 24.9102 44.8516 24.7412C44.8737 24.6989 44.8958 24.6565 44.9186 24.6128C45.4341 23.6544 46.223 22.9835 47.25 22.624C48.124 22.362 49.2304 22.3728 50.0625 22.749C50.1294 22.7787 50.1964 22.8083 50.2654 22.8389C51.2972 23.3445 51.9753 24.1756 52.375 25.249C52.6916 26.2775 52.5735 27.4594 52.0898 28.4092C51.562 29.3816 50.7347 30.0361 49.6853 30.3723C49.238 30.499 49.238 30.499 49 30.499C49 31.819 49 33.139 49 34.499C49.9293 34.4892 49.9293 34.4892 50.8586 34.4765C50.9755 34.4758 51.0925 34.4752 51.2095 34.4746C51.2696 34.4734 51.3298 34.4721 51.3918 34.4708C51.7512 34.4706 51.9727 34.4968 52.25 34.749C52.5888 35.0972 52.5361 35.5112 52.5332 35.9678C52.5334 36.0496 52.5337 36.1314 52.5339 36.2157C52.5343 36.3885 52.5338 36.5612 52.5326 36.7339C52.5312 36.9546 52.532 37.1752 52.5335 37.3959C52.5346 37.6073 52.5338 37.8188 52.5332 38.0303C52.5337 38.1092 52.5342 38.1881 52.5347 38.2694C52.5273 38.9641 52.5273 38.9641 52.25 39.249C51.9237 39.5458 51.6279 39.5323 51.2095 39.5235C51.1462 39.5231 51.0829 39.5228 51.0177 39.5224C50.8165 39.521 50.6153 39.5179 50.4141 39.5147C50.2773 39.5134 50.1405 39.5123 50.0037 39.5113C49.6691 39.5085 49.3346 39.5042 49 39.499C49 39.829 49 40.159 49 40.499C49.0851 40.4977 49.1703 40.4964 49.258 40.4951C49.5745 40.4905 49.8911 40.4877 50.2077 40.4853C50.3446 40.4841 50.4815 40.4824 50.6184 40.4802C50.8154 40.4771 51.0124 40.4757 51.2095 40.4746C51.2704 40.4733 51.3314 40.4721 51.3942 40.4707C51.7526 40.4706 51.9735 40.4976 52.25 40.749C52.5888 41.0972 52.5361 41.5112 52.5332 41.9678C52.5334 42.0496 52.5337 42.1314 52.5339 42.2157C52.5343 42.3885 52.5338 42.5612 52.5326 42.7339C52.5312 42.9546 52.532 43.1752 52.5335 43.3959C52.5346 43.6073 52.5338 43.8188 52.5332 44.0303C52.5337 44.1092 52.5342 44.1881 52.5347 44.2694C52.5273 44.9641 52.5273 44.9641 52.25 45.249C51.9237 45.5458 51.6279 45.5323 51.2095 45.5235C51.1462 45.5231 51.0829 45.5228 51.0177 45.5224C50.8165 45.521 50.6153 45.5179 50.4141 45.5147C50.2773 45.5134 50.1405 45.5123 50.0037 45.5113C49.6691 45.5085 49.3346 45.5042 49 45.499C49 45.829 49 46.159 49 46.499C49.0851 46.4977 49.1703 46.4964 49.258 46.4951C49.5745 46.4905 49.8911 46.4877 50.2077 46.4853C50.3446 46.4841 50.4815 46.4824 50.6184 46.4802C50.8154 46.4771 51.0124 46.4757 51.2095 46.4746C51.2704 46.4733 51.3314 46.4721 51.3942 46.4707C51.7526 46.4706 51.9735 46.4976 52.25 46.749C52.5888 47.0972 52.5361 47.5112 52.5332 47.9678C52.5334 48.0496 52.5337 48.1314 52.5339 48.2157C52.5343 48.3885 52.5338 48.5612 52.5326 48.7339C52.5312 48.9546 52.532 49.1752 52.5335 49.3959C52.5346 49.6073 52.5338 49.8188 52.5332 50.0303C52.5337 50.1092 52.5342 50.1881 52.5347 50.2694C52.5273 50.9641 52.5273 50.9641 52.25 51.249C51.9142 51.5347 51.6395 51.5349 51.2188 51.5314C51.1208 51.5321 51.1208 51.5321 51.0209 51.5327C50.8056 51.5338 50.5903 51.5331 50.375 51.5323C50.2251 51.5324 50.0752 51.5327 49.9253 51.533C49.6113 51.5333 49.2974 51.5328 48.9834 51.5316C48.5811 51.5302 48.1789 51.531 47.7766 51.5325C47.4672 51.5334 47.1577 51.5331 46.8482 51.5325C46.6999 51.5323 46.5516 51.5325 46.4033 51.5331C46.1959 51.5338 45.9886 51.5328 45.7812 51.5314C45.7201 51.5319 45.6589 51.5324 45.5959 51.5329C45.2399 51.5285 45.0315 51.4885 44.75 51.249C44.4112 50.9009 44.4639 50.4869 44.4668 50.0303C44.4664 49.9076 44.4664 49.9076 44.4661 49.7824C44.4657 49.6096 44.4662 49.4369 44.4674 49.2642C44.4688 49.0435 44.468 48.8229 44.4665 48.6022C44.4654 48.3908 44.4662 48.1793 44.4668 47.9678C44.4663 47.8889 44.4658 47.81 44.4653 47.7287C44.4727 47.034 44.4727 47.034 44.75 46.749C45.0763 46.4523 45.3721 46.4658 45.7905 46.4746C45.8538 46.475 45.9171 46.4753 45.9823 46.4757C46.1835 46.4771 46.3847 46.4802 46.5859 46.4834C46.7227 46.4847 46.8595 46.4858 46.9963 46.4868C47.3309 46.4896 47.6654 46.4939 48 46.499C48 46.169 48 45.839 48 45.499C47.9149 45.5004 47.8297 45.5017 47.742 45.503C47.4255 45.5075 47.1089 45.5104 46.7923 45.5128C46.6554 45.514 46.5185 45.5157 46.3816 45.5179C46.1846 45.5209 45.9876 45.5224 45.7905 45.5235C45.7296 45.5248 45.6686 45.526 45.6058 45.5274C45.2474 45.5275 45.0265 45.5005 44.75 45.249C44.4112 44.9009 44.4639 44.4869 44.4668 44.0303C44.4664 43.9076 44.4664 43.9076 44.4661 43.7824C44.4657 43.6096 44.4662 43.4369 44.4674 43.2642C44.4688 43.0435 44.468 42.8229 44.4665 42.6022C44.4654 42.3908 44.4662 42.1793 44.4668 41.9678C44.4663 41.8889 44.4658 41.81 44.4653 41.7287C44.4727 41.034 44.4727 41.034 44.75 40.749C45.0763 40.4523 45.3721 40.4658 45.7905 40.4746C45.8538 40.475 45.9171 40.4753 45.9823 40.4757C46.1835 40.4771 46.3847 40.4802 46.5859 40.4834C46.7227 40.4847 46.8595 40.4858 46.9963 40.4868C47.3309 40.4896 47.6654 40.4939 48 40.499C48 40.169 48 39.839 48 39.499C47.9149 39.5004 47.8297 39.5017 47.742 39.503C47.4255 39.5075 47.1089 39.5104 46.7923 39.5128C46.6554 39.514 46.5185 39.5157 46.3816 39.5179C46.1846 39.5209 45.9876 39.5224 45.7905 39.5235C45.7296 39.5248 45.6686 39.526 45.6058 39.5274C45.2474 39.5275 45.0265 39.5005 44.75 39.249C44.4112 38.9009 44.4639 38.4869 44.4668 38.0303C44.4664 37.9076 44.4664 37.9076 44.4661 37.7824C44.4657 37.6096 44.4662 37.4369 44.4674 37.2642C44.4688 37.0435 44.468 36.8229 44.4665 36.6022C44.4654 36.3908 44.4662 36.1793 44.4668 35.9678C44.4663 35.8889 44.4658 35.81 44.4653 35.7287C44.4727 35.034 44.4727 35.034 44.75 34.749C45.0763 34.4523 45.3721 34.4657 45.7905 34.4746C45.8467 34.4749 45.9028 34.4751 45.9606 34.4754C46.1691 34.4767 46.3775 34.4802 46.5859 34.4834C47.2859 34.4912 47.2859 34.4912 48 34.499C48 33.179 48 31.859 48 30.499C47.6287 30.4372 47.6287 30.4372 47.25 30.374C47.0684 30.3041 46.9112 30.2381 46.7422 30.1475C46.6998 30.1254 46.6574 30.1032 46.6138 30.0804C45.6558 29.5652 44.9813 28.7764 44.625 27.749C44.5837 27.5015 44.5425 27.254 44.5 26.999C41.695 26.999 38.89 26.999 36 26.999C35.9794 27.2259 35.9587 27.4528 35.9375 27.6865C35.6316 29.1124 34.9042 30.2884 33.793 31.2178C33.3217 31.6313 33.1141 32.1332 33.0625 32.749C33.0509 33.0114 33.0466 33.2736 33.0427 33.5362C33.0408 33.6475 33.0408 33.6475 33.0388 33.761C33.0347 33.9966 33.031 34.2322 33.0273 34.4678C33.0246 34.6281 33.0219 34.7884 33.0192 34.9488C33.0125 35.3405 33.0061 35.7323 33 36.124C33.4355 36.2041 33.4355 36.2041 33.8411 36.0652C33.9086 36.026 33.9086 36.026 33.9774 35.986C34.0223 35.9581 34.0671 35.9302 34.1133 35.9014C34.2043 35.8457 34.2958 35.7909 34.3879 35.7371C34.4474 35.7002 34.4474 35.7002 34.508 35.6625C34.625 35.624 34.625 35.624 34.7412 35.6689C34.8951 35.7611 35.0064 35.8654 35.1329 35.9927C35.1829 36.0428 35.2329 36.0928 35.2845 36.1444C35.3379 36.1984 35.3913 36.2525 35.4463 36.3081C35.5014 36.3634 35.5566 36.4188 35.6134 36.4757C35.7595 36.6225 35.9053 36.7694 36.0511 36.9165C36.2 37.0667 36.3493 37.2166 36.4985 37.3665C36.791 37.6603 37.0831 37.9546 37.375 38.249C37.2606 38.6092 37.0919 38.9059 36.8977 39.2293C36.7942 39.481 36.8155 39.6113 36.875 39.874C36.889 39.9688 36.889 39.9688 36.9033 40.0655C36.9556 40.2933 36.9556 40.2933 37.1875 40.624C37.8372 40.8406 37.8372 40.8406 38.5 41.0615C38.5 42.3403 38.5 43.619 38.5 44.9365C37.8503 45.1531 37.8503 45.1531 37.1875 45.374C36.8756 45.9082 36.8756 45.9082 36.821 46.4983C36.904 46.7877 37.0569 47.0304 37.2113 47.2871C37.28 47.4077 37.28 47.4077 37.375 47.624C37.3025 47.8386 37.1649 47.9744 37.0063 48.1319C36.9563 48.182 36.9062 48.232 36.8547 48.2835C36.7736 48.3636 36.7736 48.3636 36.6909 48.4453C36.6356 48.5005 36.5803 48.5556 36.5233 48.6124C36.3766 48.7585 36.2296 48.9044 36.0825 49.0501C35.9323 49.199 35.7825 49.3483 35.6326 49.4976C35.3387 49.7901 35.0445 50.0822 34.75 50.374C34.3898 50.2596 34.0931 50.0909 33.7698 49.8968C33.5181 49.7933 33.3877 49.8145 33.125 49.874C33.0303 49.8881 33.0303 49.8881 32.9336 49.9024C32.7058 49.9547 32.7058 49.9547 32.375 50.1865C32.2306 50.6197 32.0863 51.0528 31.9375 51.499C30.6588 51.499 29.38 51.499 28.0625 51.499C27.9181 51.0659 27.7737 50.6328 27.625 50.1865C27.0908 49.8747 27.0908 49.8747 26.5007 49.8201C26.2114 49.903 25.9686 50.056 25.7119 50.2104C25.5913 50.2791 25.5913 50.2791 25.375 50.374C25.1604 50.3016 25.0247 50.1639 24.8671 50.0054C24.7921 49.9303 24.7921 49.9303 24.7155 49.8537C24.6621 49.7997 24.6087 49.7456 24.5537 49.69C24.471 49.607 24.471 49.607 24.3866 49.5224C24.2405 49.3756 24.0947 49.2287 23.9489 49.0816C23.8 48.9314 23.6507 48.7815 23.5015 48.6316C23.209 48.3378 22.9169 48.0435 22.625 47.749C22.7394 47.3888 22.9081 47.0922 23.1023 46.7688C23.2058 46.5171 23.1845 46.3868 23.125 46.124C23.1157 46.0609 23.1063 45.9977 23.0967 45.9326C23.0444 45.7048 23.0444 45.7048 22.8125 45.374C22.1628 45.1575 22.1628 45.1575 21.5 44.9365C21.5 43.6578 21.5 42.379 21.5 41.0615C21.9331 40.9172 22.3663 40.7728 22.8125 40.624C23.1244 40.0899 23.1244 40.0899 23.179 39.4998C23.096 39.2104 22.9431 38.9676 22.7887 38.711C22.72 38.5904 22.72 38.5904 22.625 38.374C22.6975 38.1595 22.8351 38.0237 22.9937 37.8662C23.0437 37.8161 23.0938 37.7661 23.1453 37.7146C23.1994 37.6612 23.2534 37.6078 23.3091 37.5528C23.3921 37.4701 23.3921 37.4701 23.4767 37.3857C23.6234 37.2396 23.7704 37.0937 23.9175 36.948C24.0677 36.7991 24.2175 36.6498 24.3674 36.5005C24.6613 36.208 24.9555 35.9159 25.25 35.624C25.6102 35.7385 25.9069 35.9072 26.2302 36.1013C26.4779 36.2032 26.6158 36.1701 26.875 36.124C26.8808 35.6378 26.8852 35.1515 26.888 34.6652C26.8893 34.4393 26.891 34.2134 26.8939 33.9876C26.8966 33.7691 26.8981 33.5507 26.8987 33.3323C26.8994 33.2094 26.9013 33.0865 26.9033 32.9636C26.9035 32.3325 26.7943 31.823 26.3562 31.3518C26.1278 31.1307 25.8842 30.9265 25.6428 30.7198C24.9864 30.1143 24.546 29.2685 24.25 28.4365C24.236 28.3972 24.2219 28.3578 24.2075 28.3172C23.7161 26.8532 23.9119 25.17 24.5684 23.7937C25.2758 22.3814 26.5547 21.254 28.0547 20.753C29.8975 20.1674 31.9335 20.4419 33.5164 21.5557ZM26.5 22.9365C25.5868 23.924 25.0216 25.0997 25.0352 26.4561C25.0357 26.5244 25.0363 26.5927 25.0369 26.6631C25.0615 27.8177 25.4912 28.8776 26.25 29.749C26.3003 29.8135 26.3505 29.878 26.4023 29.9444C26.532 30.0898 26.6573 30.2094 26.8047 30.335C27.4879 30.9257 27.8655 31.5982 28 32.499C28.3094 32.499 28.6188 32.499 28.9375 32.499C28.8795 31.4275 28.8214 30.3559 28.754 29.2849C28.7462 29.1612 28.7387 29.0376 28.7311 28.914C28.7263 28.839 28.7215 28.764 28.7166 28.6868C28.7124 28.6216 28.7083 28.5564 28.7041 28.4892C28.6885 28.322 28.6613 28.1629 28.625 27.999C28.5541 27.9974 28.4832 27.9958 28.4102 27.9942C27.3493 27.9591 27.3493 27.9591 26.9543 27.5838C26.5825 27.1783 26.5336 26.8201 26.5432 26.2771C26.5798 25.8683 26.7278 25.624 27.0273 25.3506C27.4609 24.9905 27.9652 25.0166 28.5 25.0615C28.8885 25.1611 29.1586 25.4176 29.375 25.749C29.5012 26.007 29.5374 26.2676 29.5703 26.5498C29.5757 26.5931 29.5811 26.6364 29.5867 26.6811C29.5998 26.787 29.6125 26.893 29.625 26.999C29.8725 26.999 30.12 26.999 30.375 26.999C30.3811 26.9372 30.3872 26.8753 30.3936 26.8115C30.4641 26.1633 30.5517 25.6937 31.0701 25.2632C31.4893 24.9895 31.9565 25.0211 32.4375 25.0615C32.826 25.1611 33.0961 25.4176 33.3125 25.749C33.513 26.1527 33.5102 26.66 33.3967 27.0916C33.2363 27.4475 32.9582 27.7037 32.6143 27.8819C32.3721 27.9568 32.1388 27.9654 31.8867 27.9756C31.7954 27.9798 31.7042 27.9839 31.6129 27.9882C31.5344 27.9917 31.4559 27.9953 31.375 27.999C31.2879 28.8624 31.2167 29.7257 31.1605 30.5916C31.1482 30.7796 31.1357 30.9675 31.123 31.1554C31.1151 31.2764 31.1071 31.3974 31.0991 31.5183C31.0954 31.5738 31.0917 31.6293 31.0879 31.6864C31.0845 31.7385 31.0812 31.7905 31.0777 31.8441C31.0748 31.8893 31.0718 31.9345 31.0688 31.981C31.0612 32.1535 31.0625 32.3264 31.0625 32.499C31.3719 32.499 31.6812 32.499 32 32.499C32.0245 32.3779 32.049 32.2567 32.0742 32.1319C32.2702 31.2983 32.6894 30.7474 33.3398 30.1983C34.173 29.4696 34.821 28.3585 34.9375 27.249C35.0312 25.7974 34.7847 24.4437 33.8125 23.3115C33.7815 23.2717 33.7505 23.2318 33.7185 23.1907C32.9487 22.2392 31.7834 21.7091 30.594 21.5283C29.0985 21.379 27.5913 21.9006 26.5 22.9365ZM46.2246 24.5655C45.6094 25.3133 45.4709 26.1194 45.5625 27.0615C45.7088 27.8365 46.1942 28.5207 46.832 28.9776C47.5872 29.459 48.4044 29.5608 49.2798 29.3955C50.0937 29.1516 50.758 28.5835 51.1694 27.8474C51.5211 27.1451 51.5656 26.2836 51.3398 25.5303C51.0035 24.6741 50.3708 24.0673 49.5481 23.6841C48.3513 23.2433 47.0749 23.6671 46.2246 24.5655ZM27.625 26.1865C27.5362 26.3641 27.5428 26.49 27.5625 26.6865C27.702 26.8645 27.7844 26.9272 28 26.999C28.0976 27.0033 28.1953 27.0044 28.293 27.003C28.3435 27.0024 28.394 27.0018 28.446 27.0012C28.4845 27.0005 28.5229 26.9998 28.5625 26.999C28.5803 26.6551 28.5831 26.4154 28.375 26.124C28.0703 25.9548 27.9106 26.0006 27.625 26.1865ZM31.5625 26.1865C31.4008 26.4438 31.4275 26.7049 31.4375 26.999C31.799 27.0207 32.0604 27.0161 32.375 26.8115C32.4638 26.634 32.4572 26.5081 32.4375 26.3115C32.3265 26.1649 32.2341 26.0849 32.0703 26.003C31.8597 25.9968 31.7365 26.0731 31.5625 26.1865ZM29.6875 27.999C29.7611 29.3332 29.8414 30.6664 29.9375 31.999C29.9788 31.999 30.02 31.999 30.0625 31.999C30.145 30.679 30.2275 29.359 30.3125 27.999C30.1062 27.999 29.9 27.999 29.6875 27.999ZM28 33.499C28 35.149 28 36.799 28 38.499C29.32 38.499 30.64 38.499 32 38.499C32 36.849 32 35.199 32 33.499C30.68 33.499 29.36 33.499 28 33.499ZM45.5 35.499C45.5 36.489 45.5 37.479 45.5 38.499C47.48 38.499 49.46 38.499 51.5 38.499C51.5 37.509 51.5 36.519 51.5 35.499C49.52 35.499 47.54 35.499 45.5 35.499ZM25.5 36.9365C24.9844 37.4522 24.4688 37.9678 23.9375 38.499C24.104 38.8173 24.104 38.8173 24.2722 39.1347C24.2927 39.1747 24.3131 39.2147 24.3342 39.2559C24.3555 39.2965 24.3768 39.3371 24.3987 39.3789C24.5002 39.6932 24.2439 40.0303 24.1059 40.3071C23.9735 40.5818 23.9098 40.8252 23.8594 41.128C23.8066 41.3262 23.8066 41.3262 23.6875 41.499C23.3186 41.7066 22.9094 41.7772 22.5 41.874C22.5 42.6165 22.5 43.359 22.5 44.124C22.6882 44.1627 22.8764 44.2014 23.0703 44.2412C23.3414 44.3137 23.6016 44.3834 23.7745 44.6161C23.9035 44.8944 23.9631 45.1896 24.0268 45.4882C24.0939 45.7434 24.2349 45.9555 24.3748 46.1763C24.4375 46.3115 24.4375 46.3115 24.375 46.5615C24.2306 46.8709 24.0863 47.1803 23.9375 47.499C24.4531 48.0147 24.9688 48.5303 25.5 49.0615C25.8183 48.895 25.8183 48.895 26.1357 48.7268C26.1757 48.7064 26.2156 48.6859 26.2568 48.6648C26.2974 48.6435 26.338 48.6223 26.3798 48.6004C26.6942 48.4989 27.0313 48.7551 27.3081 48.8932C27.5827 49.0256 27.8262 49.0892 28.1289 49.1397C28.3271 49.1924 28.3271 49.1924 28.5 49.3115C28.7076 49.6804 28.7782 50.0897 28.875 50.499C29.6175 50.499 30.36 50.499 31.125 50.499C31.1637 50.3108 31.2023 50.1226 31.2422 49.9287C31.3147 49.6577 31.3844 49.3975 31.6171 49.2245C31.8953 49.0956 32.1905 49.036 32.4892 48.9723C32.7444 48.9052 32.9564 48.7641 33.1772 48.6243C33.3125 48.5615 33.3125 48.5615 33.5625 48.624C33.8719 48.7684 34.1812 48.9128 34.5 49.0615C35.0156 48.5459 35.5312 48.0303 36.0625 47.499C35.896 47.1808 35.896 47.1808 35.7278 46.8634C35.7073 46.8234 35.6869 46.7834 35.6658 46.7422C35.6445 46.7016 35.6232 46.661 35.6013 46.6192C35.4998 46.3049 35.7561 45.9678 35.8941 45.691C36.0265 45.4163 36.0902 45.1728 36.1406 44.8701C36.1934 44.6719 36.1934 44.6719 36.3125 44.499C36.6814 44.2915 37.0906 44.2209 37.5 44.124C37.5 43.3815 37.5 42.639 37.5 41.874C37.3118 41.8354 37.1236 41.7967 36.9297 41.7569C36.6586 41.6844 36.3984 41.6147 36.2255 41.382C36.0965 41.1037 36.0369 40.8085 35.9732 40.5099C35.9061 40.2547 35.7651 40.0426 35.6252 39.8218C35.5625 39.6865 35.5625 39.6865 35.625 39.4365C35.8416 38.9725 35.8416 38.9725 36.0625 38.499C35.5469 37.9834 35.0312 37.4678 34.5 36.9365C34.1817 37.1031 34.1817 37.1031 33.8643 37.2713C33.8243 37.2917 33.7844 37.3122 33.7432 37.3333C33.7026 37.3546 33.662 37.3758 33.6202 37.3977C33.4718 37.4457 33.3959 37.4232 33.25 37.374C33.2036 37.3624 33.1572 37.3508 33.1094 37.3389C33.0733 37.3299 33.0372 37.3208 33 37.3115C32.9521 37.6643 32.9044 38.0259 33 38.374C33.2068 38.615 33.441 38.7622 33.7083 38.9288C34.6594 39.5701 35.161 40.8947 35.3997 41.9702C35.4608 42.3202 35.4681 42.664 35.4648 43.0186C35.4643 43.0923 35.4637 43.1661 35.4631 43.242C35.4333 44.752 34.7596 46.0722 33.6875 47.124C32.403 48.2398 30.8426 48.5327 29.1875 48.4365C27.8662 48.2746 26.6003 47.5379 25.7441 46.5308C24.7237 45.1884 24.3734 43.6959 24.5821 42.0302C24.632 41.7391 24.7135 41.4651 24.8125 41.1865C24.839 41.1119 24.8655 41.0372 24.8928 40.9602C25.1074 40.4146 25.3964 39.9629 25.75 39.499C25.7846 39.4529 25.8191 39.4067 25.8547 39.3592C26.0497 39.1177 26.2449 38.9624 26.5078 38.7959C26.8485 38.5825 26.8485 38.5825 27.0366 38.2424C27.0706 37.9285 27.0423 37.6234 27 37.3115C26.9536 37.3335 26.9072 37.3554 26.8594 37.378C26.402 37.5339 25.8631 37.106 25.5 36.9365ZM28.375 39.499C28.4835 39.8247 28.4835 39.8247 28.6202 40.1317C28.6434 40.1786 28.6665 40.2255 28.6904 40.2738C28.7151 40.3233 28.7399 40.3727 28.7654 40.4236C28.804 40.5012 28.804 40.5012 28.8434 40.5804C28.8976 40.6892 28.952 40.798 29.0065 40.9067C29.0898 41.0732 29.1724 41.2399 29.255 41.4066C29.3079 41.5126 29.3608 41.6185 29.4138 41.7244C29.4384 41.7742 29.463 41.824 29.4884 41.8753C29.5118 41.9216 29.5351 41.968 29.5592 42.0157C29.5795 42.0563 29.5998 42.097 29.6207 42.1389C29.6937 42.2593 29.7673 42.3459 29.875 42.4365C30.0307 42.4609 30.0307 42.4609 30.1875 42.374C30.4278 42.0594 30.6009 41.6907 30.7766 41.3374C30.8134 41.264 30.8134 41.264 30.8509 41.1891C30.9022 41.0868 30.9533 40.9844 31.0042 40.8819C31.0826 40.7245 31.1614 40.5675 31.2404 40.4104C31.2902 40.3106 31.3401 40.2107 31.3899 40.1109C31.4135 40.0639 31.4371 40.0169 31.4615 39.9684C31.5824 39.7446 31.5824 39.7446 31.625 39.499C30.5525 39.499 29.48 39.499 28.375 39.499ZM27.125 39.5615C26.2634 40.3607 25.5956 41.4044 25.5332 42.6092C25.5311 42.7326 25.5305 42.8561 25.5312 42.9795C25.5315 43.0447 25.5318 43.11 25.5321 43.1772C25.5445 43.7475 25.6539 44.2261 25.875 44.749C25.899 44.8077 25.923 44.8664 25.9478 44.9268C26.1319 45.3328 26.3943 45.6658 26.6875 45.999C26.749 46.0706 26.749 46.0706 26.8118 46.1436C27.5916 46.9895 28.7171 47.4563 29.8604 47.5032C31.1475 47.4768 32.2456 47.0533 33.1758 46.1748C34.1279 45.1666 34.4741 44.038 34.4543 42.6653C34.4144 41.4813 33.843 40.486 33 39.6865C32.9381 39.6453 32.8763 39.604 32.8125 39.5615C32.7314 39.7124 32.6507 39.8634 32.5703 40.0147C32.5302 40.09 32.5302 40.09 32.4893 40.1668C32.2888 40.5472 32.0972 40.9314 31.9087 41.3179C31.859 41.4193 31.8092 41.5207 31.7595 41.622C31.6845 41.7749 31.6098 41.9279 31.536 42.0814C31.4659 42.2274 31.3947 42.3728 31.3232 42.5181C31.3025 42.5619 31.2819 42.6058 31.2605 42.6509C31.083 43.008 30.8261 43.3008 30.4375 43.4365C30.0456 43.4824 29.63 43.5118 29.2773 43.3115C28.8453 42.967 28.6334 42.4061 28.3958 41.9212C28.329 41.7864 28.2622 41.6516 28.1954 41.5167C28.0912 41.3056 27.9871 41.0943 27.8831 40.883C27.7822 40.6781 27.6808 40.4735 27.5793 40.2688C27.5482 40.2051 27.517 40.1414 27.4848 40.0757C27.4558 40.0173 27.4268 39.9588 27.3969 39.8986C27.3715 39.847 27.3461 39.7953 27.3199 39.7421C27.2586 39.6142 27.2586 39.6142 27.125 39.5615ZM45.5 41.499C45.5 42.489 45.5 43.479 45.5 44.499C47.48 44.499 49.46 44.499 51.5 44.499C51.5 43.509 51.5 42.519 51.5 41.499C49.52 41.499 47.54 41.499 45.5 41.499ZM45.5 47.499C45.5 48.489 45.5 49.479 45.5 50.499C47.48 50.499 49.46 50.499 51.5 50.499C51.5 49.509 51.5 48.519 51.5 47.499C49.52 47.499 47.54 47.499 45.5 47.499Z" fill="#7B55D3"/>
<path d="M50.0625 25.125C50.2896 25.231 50.4341 25.3586 50.6094 25.5391C50.6593 25.5901 50.7093 25.6412 50.7607 25.6938C50.7984 25.733 50.8362 25.7722 50.875 25.8125C50.7815 26.0306 50.6568 26.1709 50.4891 26.3376C50.4353 26.3914 50.3815 26.4452 50.3261 26.5006C50.2679 26.5581 50.2098 26.6156 50.1499 26.6748C50.0898 26.7347 50.0297 26.7946 49.9697 26.8545C49.8119 27.0118 49.6538 27.1687 49.4956 27.3255C49.3341 27.4857 49.1729 27.6463 49.0117 27.8069C48.6957 28.1216 48.3792 28.4359 48.0625 28.75C47.8423 28.6463 47.7001 28.5271 47.5283 28.353C47.4755 28.2999 47.4228 28.2467 47.3684 28.1919C47.3139 28.1363 47.2593 28.0807 47.2031 28.0234C47.1199 27.9393 47.1199 27.9393 47.0349 27.8535C46.898 27.7151 46.7614 27.5764 46.625 27.4375C46.731 27.2104 46.8586 27.0659 47.0391 26.8906C47.0901 26.8407 47.1412 26.7907 47.1938 26.7393C47.233 26.7016 47.2722 26.6638 47.3125 26.625C47.5809 26.7452 47.7357 26.914 47.9375 27.125C48.1191 27.0429 48.2479 26.955 48.388 26.8137C48.4255 26.7762 48.463 26.7386 48.5017 26.7C48.5414 26.6596 48.5811 26.6192 48.6221 26.5776C48.6633 26.5362 48.7046 26.4948 48.7471 26.4521C48.8786 26.3199 49.0096 26.1873 49.1406 26.0547C49.2298 25.9649 49.319 25.8751 49.4082 25.7854C49.6266 25.5656 49.8447 25.3454 50.0625 25.125Z" fill="#7B55D3"/>
<path d="M46.5 48.5C47.82 48.5 49.14 48.5 50.5 48.5C50.5 48.83 50.5 49.16 50.5 49.5C49.18 49.5 47.86 49.5 46.5 49.5C46.5 49.17 46.5 48.84 46.5 48.5Z" fill="#7B55D3"/>
<path d="M46.5 42.5C47.82 42.5 49.14 42.5 50.5 42.5C50.5 42.83 50.5 43.16 50.5 43.5C49.18 43.5 47.86 43.5 46.5 43.5C46.5 43.17 46.5 42.84 46.5 42.5Z" fill="#65C7C3"/>
<path d="M46.5 36.5C47.82 36.5 49.14 36.5 50.5 36.5C50.5 36.83 50.5 37.16 50.5 37.5C49.18 37.5 47.86 37.5 46.5 37.5C46.5 37.17 46.5 36.84 46.5 36.5Z" fill="#65C7C3"/>
<path d="M31.5 44.5C31.83 44.5 32.16 44.5 32.5 44.5C32.5 44.83 32.5 45.16 32.5 45.5C32.17 45.5 31.84 45.5 31.5 45.5C31.5 45.17 31.5 44.84 31.5 44.5Z" fill="#65C7C3"/>
<path d="M29.5 44.5C29.83 44.5 30.16 44.5 30.5 44.5C30.5 44.83 30.5 45.16 30.5 45.5C30.17 45.5 29.84 45.5 29.5 45.5C29.5 45.17 29.5 44.84 29.5 44.5Z" fill="#65C7C3"/>
<path d="M27.5 44.5C27.83 44.5 28.16 44.5 28.5 44.5C28.5 44.83 28.5 45.16 28.5 45.5C28.17 45.5 27.84 45.5 27.5 45.5C27.5 45.17 27.5 44.84 27.5 44.5Z" fill="#65C7C3"/>
</g>
</g>
<defs>
<filter id="filter0_d_1_129942" x="0" y="0" width="74" height="74" filterUnits="userSpaceOnUse" color-interpolation-filters="sRGB">
<feFlood flood-opacity="0" result="BackgroundImageFix"/>
<feColorMatrix in="SourceAlpha" type="matrix" values="0 0 0 0 0 0 0 0 0 0 0 0 0 0 0 0 0 0 127 0" result="hardAlpha"/>
<feOffset dy="1"/>
<feGaussianBlur stdDeviation="0.5"/>
<feComposite in2="hardAlpha" operator="out"/>
<feColorMatrix type="matrix" values="0 0 0 0 0 0 0 0 0 0 0 0 0 0 0 0 0 0 0.04 0"/>
<feBlend mode="normal" in2="BackgroundImageFix" result="effect1_dropShadow_1_129942"/>
<feBlend mode="normal" in="SourceGraphic" in2="effect1_dropShadow_1_129942" result="shape"/>
</filter>
<clipPath id="clip0_1_129942">
<rect width="32" height="32" fill="white" transform="translate(21 20)"/>
</clipPath>
</defs>
</svg>
