<svg width="74" height="74" viewBox="0 0 74 74" fill="none" xmlns="http://www.w3.org/2000/svg">
<g filter="url(#filter0_d_1_130006)">
<rect x="1" width="72" height="72" rx="36" fill="white" shape-rendering="crispEdges"/>
<g clip-path="url(#clip0_1_130006)">
<path d="M52.0628 20.0625C52.2619 20.1498 52.3903 20.2528 52.5394 20.4102C52.6906 20.5713 52.6906 20.5713 52.8753 20.6875C52.8398 20.9168 52.7538 21.0153 52.5862 21.1719C52.4134 21.3379 52.2497 21.5053 52.094 21.6875C51.9054 21.907 51.7044 22.1096 51.4983 22.3125C51.3791 22.4337 51.2673 22.5586 51.1565 22.6875C51.0067 22.8618 50.8516 23.0262 50.6878 23.1875C50.3707 23.5003 50.0771 23.8288 49.8128 24.1875C49.84 24.2232 49.8673 24.2589 49.8953 24.2957C50.8393 25.5809 51.1063 27.0993 50.918 28.6643C50.8673 28.9521 50.7855 29.2244 50.6878 29.5C50.6652 29.5654 50.6425 29.6308 50.6192 29.6982C50.3271 30.4627 49.8795 31.1031 49.3128 31.6875C49.2634 31.7438 49.2634 31.7438 49.2129 31.8013C48.6319 32.4402 47.8146 32.8682 47.0003 33.125C46.9384 33.125 46.8765 33.125 46.8128 33.125C46.8334 33.5375 46.854 33.95 46.8753 34.375C47.0609 34.3544 47.2465 34.3337 47.4378 34.3125C47.6952 34.3579 47.887 34.4063 48.1097 34.543C48.2401 34.6367 48.2401 34.6367 48.3675 34.6172C48.4796 34.571 48.5898 34.5204 48.6995 34.4688C49.133 34.2807 49.5594 34.2721 50.0003 34.4375C50.3777 34.6067 50.6039 34.8287 50.8128 35.1875C50.8543 35.3281 50.8543 35.3281 50.8753 35.4375C50.9099 35.4276 50.9444 35.4177 50.98 35.4075C51.4184 35.3095 51.8446 35.3378 52.2459 35.542C52.6239 35.7845 52.8595 36.071 53.0003 36.5C53.0245 36.7286 53.0245 36.7286 53.0255 36.9756C53.0262 37.0437 53.0262 37.0437 53.0268 37.1131C53.028 37.2622 53.0277 37.4112 53.0274 37.5603C53.0277 37.6652 53.028 37.7701 53.0284 37.8749C53.0289 38.0947 53.0288 38.3144 53.0282 38.5342C53.0275 38.813 53.0287 39.0918 53.0305 39.3706C53.0317 39.5874 53.0317 39.8042 53.0313 40.021C53.0313 40.1237 53.0317 40.2263 53.0325 40.3289C53.0408 41.5984 52.7133 42.7474 52.0003 43.8125C51.9171 43.8947 51.8338 43.9767 51.7503 44.0586C51.5177 44.3527 51.5487 44.6028 51.576 44.9576C51.5814 45.044 51.5814 45.044 51.5869 45.1321C51.5987 45.3173 51.612 45.5024 51.6253 45.6875C51.6332 45.8071 51.6409 45.9266 51.6486 46.0462C51.6733 46.4252 51.7001 46.804 51.7271 47.1829C51.7357 47.3056 51.7444 47.4284 51.753 47.5512C51.7845 47.999 51.8162 48.4467 51.8479 48.8945C51.9188 49.8987 51.9897 50.9029 52.0628 51.9375C48.9484 51.9375 45.834 51.9375 42.6253 51.9375C42.6253 51.25 42.6253 51.25 42.6878 50.9375C42.6237 50.9376 42.6237 50.9376 42.5583 50.9377C40.0244 50.9419 37.4905 50.9451 34.9566 50.9471C34.6523 50.9473 34.348 50.9476 34.0437 50.9478C33.9831 50.9478 33.9225 50.9479 33.8601 50.9479C32.8794 50.9488 31.8988 50.9502 30.9181 50.952C29.9117 50.9537 28.9053 50.9548 27.8988 50.9551C27.2779 50.9554 26.657 50.9562 26.0361 50.9577C25.6102 50.9587 25.1843 50.959 24.7584 50.9588C24.5128 50.9587 24.2671 50.9588 24.0215 50.9599C23.7963 50.9608 23.5712 50.9608 23.346 50.9602C23.2265 50.9601 23.1071 50.9609 22.9876 50.9617C22.4587 50.959 21.8861 50.9269 21.4769 50.5508C21.439 50.5177 21.4011 50.4846 21.3621 50.4504C20.9796 49.9786 20.9644 49.5634 20.9685 48.9751C20.9683 48.8902 20.9679 48.8053 20.9674 48.7204C20.9663 48.4881 20.9668 48.2557 20.9676 48.0234C20.9682 47.7724 20.9673 47.5215 20.9666 47.2706C20.9655 46.7793 20.9657 46.2881 20.9665 45.7969C20.967 45.3976 20.9671 44.9983 20.9668 44.599C20.9668 44.5422 20.9668 44.4853 20.9667 44.4267C20.9666 44.3112 20.9666 44.1957 20.9665 44.0802C20.9658 42.9974 20.9666 41.9147 20.9679 40.8319C20.969 39.9031 20.9689 38.9743 20.9677 38.0455C20.9664 36.9666 20.9658 35.8876 20.9666 34.8087C20.9667 34.6936 20.9668 34.5785 20.9668 34.4635C20.9669 34.4068 20.9669 34.3502 20.967 34.2919C20.9672 33.8931 20.9668 33.4944 20.9662 33.0957C20.9655 32.6097 20.9657 32.1236 20.967 31.6376C20.9677 31.3897 20.968 31.1418 20.9671 30.8939C20.9664 30.6668 20.9668 30.4398 20.9681 30.2127C20.9685 30.0919 20.9677 29.9712 20.9669 29.8504C20.9714 29.3452 21.0373 29.0128 21.3621 28.6121C21.8777 28.1612 22.3931 28.0906 23.0628 28.125C23.0599 28.0631 23.057 28.0012 23.054 27.9375C23.0358 27.3923 23.0434 26.9873 23.4209 26.5671C23.7681 26.2325 24.1186 26.09 24.594 26.0391C25.0584 26.0888 25.4666 26.2434 25.8128 26.5625C26.2071 27.0633 26.2004 27.5096 26.1878 28.125C26.5178 28.125 26.8478 28.125 27.1878 28.125C27.1813 27.9935 27.1749 27.862 27.1683 27.7266C27.1693 27.2281 27.2769 26.8921 27.5965 26.51C27.9147 26.2016 28.2967 26.0785 28.7337 26.0522C29.1829 26.0687 29.5315 26.2103 29.8753 26.5C30.328 27.0319 30.3196 27.4428 30.3128 28.125C30.6428 28.125 30.9728 28.125 31.3128 28.125C31.3063 27.9935 31.2999 27.862 31.2933 27.7266C31.2943 27.2281 31.4019 26.8921 31.7215 26.51C32.0393 26.202 32.4233 26.0748 32.8609 26.0544C33.3315 26.0762 33.724 26.2104 34.0516 26.5583C34.4554 27.0743 34.4499 27.4772 34.4378 28.125C34.7678 28.125 35.0978 28.125 35.4378 28.125C35.4313 27.9935 35.4249 27.862 35.4183 27.7266C35.4193 27.2281 35.5269 26.8921 35.8465 26.51C36.164 26.2023 36.55 26.0713 36.9881 26.0566C37.4835 26.0841 37.8681 26.212 38.2073 26.582C38.6011 27.0928 38.581 27.4869 38.5628 28.125C38.8928 28.125 39.2228 28.125 39.5628 28.125C39.5599 28.0523 39.557 27.9797 39.554 27.9048C39.5096 26.2961 39.9873 24.9002 41.1045 23.7107C41.1526 23.6618 41.2007 23.6129 41.2503 23.5625C41.2977 23.5142 41.3452 23.466 41.3941 23.4163C42.4734 22.3829 43.9646 21.9098 45.439 21.9241C46.7263 21.9936 47.9354 22.4233 48.9378 23.25C49.1676 23.1558 49.2926 23.0228 49.4534 22.8359C49.6328 22.6313 49.8138 22.4327 50.0081 22.2422C50.2086 22.0448 50.3932 21.8383 50.5765 21.625C50.7317 21.4507 50.8982 21.2889 51.0645 21.1252C51.223 20.9642 51.3692 20.7941 51.5164 20.6228C51.6898 20.4273 51.8755 20.2446 52.0628 20.0625ZM41.6358 24.7607C40.8838 25.7418 40.5116 26.94 40.6521 28.1731C40.8237 29.4145 41.3948 30.5115 42.3899 31.2979C42.9944 31.7665 42.9944 31.7665 43.6878 32C43.6925 31.9479 43.6971 31.8957 43.702 31.842C43.7658 31.2957 43.8735 30.8794 44.3133 30.5234C44.7142 30.2706 45.139 30.2042 45.605 30.2756C46.0257 30.3822 46.3466 30.5679 46.5804 30.9399C46.7504 31.2837 46.7969 31.6197 46.8128 32C48.0415 31.5665 48.9274 30.6956 49.4847 29.5312C49.9961 28.3553 50.0111 27.1101 49.5433 25.918C49.3973 25.5864 49.2145 25.2915 49.0003 25C48.6803 25.2587 48.4095 25.5385 48.1375 25.8469C48.0198 25.9782 47.8996 26.1032 47.7737 26.2266C47.6242 26.3733 47.4846 26.5248 47.3479 26.6836C47.1968 26.8591 47.0404 27.025 46.8753 27.1875C46.7115 27.3488 46.5563 27.5132 46.4065 27.6875C46.218 27.9069 46.0171 28.1094 45.8111 28.3123C45.6526 28.4733 45.5064 28.6434 45.3592 28.8147C45.1858 29.0102 45.0001 29.1929 44.8128 29.375C44.6185 29.2884 44.484 29.1877 44.3326 29.039C44.2886 28.996 44.2447 28.953 44.1993 28.9087C44.1526 28.8623 44.1058 28.8159 44.0577 28.7681C44.0093 28.7203 43.961 28.6725 43.9112 28.6233C43.8092 28.5222 43.7075 28.4211 43.6059 28.3197C43.4498 28.1643 43.2925 28.0101 43.1352 27.856C43.0364 27.7577 42.9376 27.6594 42.8389 27.561C42.7915 27.5149 42.7441 27.4687 42.6953 27.4211C42.6523 27.3778 42.6093 27.3344 42.565 27.2897C42.5268 27.2518 42.4885 27.2138 42.4491 27.1748C42.3753 27.0625 42.3753 27.0625 42.388 26.9318C42.4559 26.7691 42.5527 26.6682 42.6761 26.543C42.719 26.4981 42.762 26.4532 42.8062 26.407C42.9378 26.3125 42.9378 26.3125 43.049 26.317C43.2537 26.4026 43.3883 26.5526 43.5403 26.7092C43.5733 26.7424 43.6062 26.7756 43.6402 26.8099C43.745 26.9158 43.8492 27.0223 43.9534 27.1289C44.0245 27.2009 44.0956 27.2729 44.1668 27.3448C44.341 27.5211 44.5145 27.6979 44.6878 27.875C45.1454 27.488 45.5607 27.0797 45.9515 26.625C46.1068 26.4506 46.2734 26.2888 46.4397 26.125C46.559 26.0038 46.6707 25.8789 46.7815 25.75C46.9313 25.5757 47.0865 25.4113 47.2503 25.25C47.6086 24.8966 47.9303 24.5129 48.2503 24.125C46.1192 22.5314 43.404 22.7203 41.6358 24.7607ZM24.1253 27.5C24.0805 27.6801 24.0814 27.8542 24.0838 28.0391C24.0835 28.0906 24.0832 28.1421 24.0829 28.1952C24.0827 28.3039 24.0832 28.4125 24.0846 28.5211C24.0862 28.687 24.0846 28.8527 24.0826 29.0186C24.0828 29.1243 24.0832 29.2301 24.0838 29.3359C24.0832 29.3853 24.0825 29.4347 24.0819 29.4855C24.0874 29.7485 24.1043 29.8482 24.2722 30.0627C24.4297 30.2008 24.4297 30.2008 24.6292 30.2227C24.8526 30.1799 24.9253 30.1157 25.0628 29.9375C25.1371 29.7145 25.1366 29.51 25.138 29.2778C25.1385 29.2086 25.1385 29.2086 25.1391 29.138C25.1397 29.0403 25.1401 28.9427 25.1403 28.8451C25.1409 28.6963 25.1429 28.5475 25.1448 28.3987C25.1452 28.3037 25.1456 28.2087 25.1458 28.1138C25.1466 28.0695 25.1473 28.0252 25.1481 27.9796C25.1466 27.6292 25.0578 27.4325 24.8128 27.1875C24.4657 27.1335 24.3364 27.2285 24.1253 27.5ZM28.3128 27.375C28.1904 27.7422 28.2311 28.1622 28.2284 28.5475C28.2274 28.6562 28.2257 28.765 28.2233 28.8737C28.2199 29.0309 28.2185 29.188 28.2176 29.3452C28.2162 29.3936 28.2147 29.442 28.2133 29.4918C28.2143 29.7446 28.2391 29.8606 28.3966 30.0622C28.5546 30.2008 28.5546 30.2008 28.7542 30.2227C28.9764 30.1801 29.0489 30.1125 29.1878 29.9375C29.2838 29.7455 29.2618 29.5435 29.263 29.3328C29.2635 29.2613 29.2635 29.2613 29.2641 29.1884C29.2647 29.0875 29.2651 28.9866 29.2653 28.8856C29.2659 28.7317 29.2679 28.5779 29.2698 28.424C29.2702 28.3258 29.2706 28.2277 29.2708 28.1296C29.2716 28.0838 29.2723 28.038 29.2731 27.9907C29.2716 27.6347 29.1868 27.4365 28.9378 27.1875C28.6636 27.1577 28.5104 27.1774 28.3128 27.375ZM32.4378 27.4375C32.3401 27.6329 32.3638 27.8414 32.3626 28.0559C32.3622 28.1049 32.3619 28.154 32.3615 28.2045C32.3609 28.3083 32.3605 28.4122 32.3603 28.5161C32.3597 28.6745 32.3577 28.8329 32.3558 28.9913C32.3554 29.0923 32.355 29.1932 32.3548 29.2942C32.354 29.3414 32.3532 29.3886 32.3524 29.4373C32.3536 29.7193 32.3872 29.9013 32.5628 30.125C32.7403 30.2138 32.8662 30.2072 33.0628 30.1875C33.2067 30.0708 33.2927 29.9777 33.3753 29.8125C33.3822 29.6467 33.3855 29.4827 33.3858 29.3169C33.386 29.2677 33.3862 29.2186 33.3864 29.1679C33.3867 29.0638 33.3869 28.9596 33.3869 28.8555C33.387 28.6964 33.3881 28.5373 33.3893 28.3782C33.3895 28.277 33.3896 28.1759 33.3897 28.0747C33.3901 28.0272 33.3906 27.9796 33.3911 27.9307C33.3907 27.6012 33.3907 27.6012 33.2503 27.3125C32.9203 27.0925 32.683 27.1287 32.4378 27.4375ZM36.6683 27.3047C36.4748 27.5484 36.4893 27.7557 36.4876 28.0559C36.4872 28.1049 36.4869 28.154 36.4865 28.2045C36.4859 28.3083 36.4855 28.4122 36.4853 28.5161C36.4847 28.6745 36.4827 28.8329 36.4808 28.9913C36.4804 29.0923 36.48 29.1932 36.4798 29.2942C36.479 29.3414 36.4782 29.3886 36.4774 29.4373C36.4786 29.7193 36.5122 29.9013 36.6878 30.125C36.8634 30.2128 36.9933 30.2031 37.1878 30.1875C37.3838 30.0763 37.4279 30.0298 37.5003 29.8125C37.5078 29.6455 37.5121 29.4801 37.513 29.313C37.5135 29.2396 37.5135 29.2396 37.5141 29.1647C37.5147 29.0612 37.5151 28.9577 37.5153 28.8542C37.5159 28.6963 37.5179 28.5385 37.5198 28.3806C37.5202 28.2799 37.5206 28.1793 37.5208 28.0786C37.5216 28.0316 37.5223 27.9846 37.5231 27.9361C37.522 27.6546 37.4879 27.4733 37.3128 27.25C37.0739 27.1306 36.8757 27.1365 36.6683 27.3047ZM22.0628 29.5625C22.0628 30.4494 22.0628 31.3363 22.0628 32.25C28.5803 32.25 35.0978 32.25 41.8128 32.25C41.5868 32.0236 41.5868 32.0236 41.355 31.8032C40.622 31.1126 40.0586 30.2332 39.8128 29.25C39.4003 29.25 38.9878 29.25 38.5628 29.25C38.5589 29.3815 38.5551 29.513 38.5511 29.6484C38.515 30.1314 38.4197 30.5166 38.0713 30.8672C37.715 31.155 37.3445 31.2806 36.8819 31.2654C36.4271 31.2122 36.0485 31.0391 35.7503 30.6875C35.4526 30.2477 35.4579 29.7669 35.4378 29.25C35.1078 29.25 34.7778 29.25 34.4378 29.25C34.4339 29.3815 34.4301 29.513 34.4261 29.6484C34.39 30.1314 34.2947 30.5166 33.9463 30.8672C33.5955 31.1505 33.2218 31.2844 32.7654 31.2693C32.3701 31.2149 31.9917 31.0942 31.719 30.793C31.3545 30.2929 31.342 29.8625 31.3128 29.25C30.9828 29.25 30.6528 29.25 30.3128 29.25C30.3031 29.4356 30.3031 29.4356 30.2933 29.625C30.251 30.1587 30.146 30.5505 29.7503 30.9375C29.3128 31.2103 28.8712 31.3252 28.3582 31.2212C27.9209 31.0943 27.5901 30.8655 27.3519 30.4727C27.1794 30.0961 27.2023 29.6553 27.1878 29.25C26.8578 29.25 26.5278 29.25 26.1878 29.25C26.1813 29.3737 26.1749 29.4975 26.1683 29.625C26.126 30.1587 26.021 30.5505 25.6253 30.9375C25.2075 31.198 24.8036 31.3029 24.3128 31.25C23.8364 31.136 23.5189 30.9098 23.2503 30.5C23.1184 30.2398 23.0994 29.9862 23.0862 29.6992C23.0838 29.6559 23.0814 29.6126 23.0789 29.568C23.0731 29.462 23.0679 29.356 23.0628 29.25C22.9549 29.2415 22.8467 29.2355 22.7386 29.2305C22.6784 29.2268 22.6182 29.2232 22.5562 29.2195C22.3243 29.2406 22.3243 29.2406 22.0628 29.5625ZM44.9183 31.4258C44.7641 31.6257 44.7425 31.7842 44.7428 32.0288C44.7427 32.0859 44.7426 32.1429 44.7425 32.2017C44.7427 32.2641 44.743 32.3266 44.7432 32.3909C44.7432 32.4568 44.7432 32.5226 44.7432 32.5905C44.7432 32.8086 44.7437 33.0267 44.7442 33.2449C44.7443 33.3959 44.7444 33.547 44.7445 33.6981C44.7447 34.096 44.7453 34.494 44.746 34.8919C44.7466 35.2979 44.7469 35.7038 44.7472 36.1097C44.7479 36.9065 44.749 37.7032 44.7503 38.5C44.3997 38.5 44.049 38.5 43.6878 38.5C43.69 38.4141 43.6921 38.3282 43.6944 38.2397C43.6961 38.126 43.6979 38.0122 43.6995 37.8984C43.7011 37.842 43.7027 37.7855 43.7043 37.7273C43.7079 37.3942 43.6891 37.162 43.5003 36.875C43.2436 36.6183 43.0347 36.5279 42.6878 36.4375C42.6849 36.9765 42.6827 37.5155 42.6813 38.0546C42.6807 38.3049 42.6798 38.5553 42.6784 38.8057C42.677 39.048 42.6763 39.2904 42.6759 39.5327C42.6757 39.6244 42.6753 39.7162 42.6746 39.8079C42.6655 41.0737 42.8561 42.2166 43.6253 43.25C43.6861 43.3459 43.6861 43.3459 43.7481 43.4438C43.8958 43.6184 44.0023 43.6545 44.2287 43.6735C44.3477 43.6761 44.4669 43.6766 44.586 43.6755C44.6837 43.6768 44.6837 43.6768 44.7835 43.6781C44.9988 43.6804 45.2141 43.6799 45.4295 43.6792C45.5793 43.6798 45.7292 43.6804 45.879 43.6812C46.1931 43.6823 46.5072 43.682 46.8212 43.6808C47.2235 43.6793 47.6256 43.6818 48.0278 43.6855C48.3373 43.6878 48.6467 43.6878 48.9562 43.687C49.1045 43.687 49.2528 43.6878 49.401 43.6893C49.6086 43.6912 49.8159 43.6899 50.0235 43.6877C50.0845 43.6889 50.1456 43.6901 50.2085 43.6914C50.4584 43.686 50.6225 43.6777 50.821 43.5174C51.049 43.2621 51.2309 42.9798 51.387 42.6758C51.4079 42.6358 51.4288 42.5958 51.4504 42.5546C51.7784 41.9066 51.9426 41.2404 51.9489 40.5141C51.9497 40.4326 51.9505 40.351 51.9513 40.267C51.9518 40.1792 51.9523 40.0913 51.9527 40.0034C51.9529 39.9587 51.9532 39.914 51.9535 39.8679C51.9548 39.6317 51.9557 39.3955 51.9562 39.1593C51.9569 38.9158 51.9591 38.6724 51.9616 38.429C51.9632 38.2411 51.9637 38.0532 51.9639 37.8654C51.9642 37.7756 51.965 37.6859 51.9661 37.5961C51.9677 37.4706 51.9674 37.3452 51.9672 37.2197C51.9675 37.1484 51.9679 37.0772 51.9683 37.0037C51.9311 36.7708 51.8502 36.6677 51.6878 36.5C51.5732 36.4271 51.5732 36.4271 51.4378 36.4375C51.225 36.5141 51.0963 36.5606 50.9898 36.7653C50.9322 36.956 50.9235 37.1108 50.9256 37.3098C50.926 37.3793 50.9264 37.4488 50.9268 37.5204C50.9284 37.6282 50.9284 37.6282 50.93 37.7383C50.9305 37.8114 50.9311 37.8845 50.9317 37.9598C50.9332 38.1399 50.9354 38.32 50.9378 38.5C50.5872 38.5 50.2365 38.5 49.8753 38.5C49.8763 38.4202 49.8773 38.3404 49.8783 38.2583C49.8817 37.9618 49.8838 37.6654 49.8856 37.3689C49.8865 37.2407 49.8878 37.1125 49.8894 36.9843C49.8917 36.7998 49.8928 36.6154 49.8936 36.4309C49.8946 36.3737 49.8955 36.3166 49.8965 36.2577C49.8966 35.9574 49.8943 35.7376 49.6878 35.5C49.4777 35.4216 49.4777 35.4216 49.2503 35.4375C49.0361 35.5679 48.955 35.6359 48.8753 35.875C48.8699 35.9623 48.8679 36.0498 48.8682 36.1373C48.8682 36.1898 48.8682 36.2423 48.8682 36.2965C48.8685 36.3529 48.8689 36.4094 48.8692 36.4675C48.8693 36.5255 48.8694 36.5835 48.8695 36.6433C48.8698 36.8286 48.8706 37.0139 48.8714 37.1992C48.8717 37.3248 48.872 37.4504 48.8722 37.576C48.8729 37.884 48.874 38.192 48.8753 38.5C48.5247 38.5 48.174 38.5 47.8128 38.5C47.8138 38.4202 47.8148 38.3404 47.8158 38.2583C47.8192 37.9618 47.8213 37.6654 47.8231 37.3689C47.824 37.2407 47.8253 37.1125 47.8269 36.9843C47.8292 36.7998 47.8303 36.6154 47.8311 36.4309C47.8321 36.3737 47.833 36.3166 47.834 36.2577C47.8341 35.9574 47.8318 35.7376 47.6253 35.5C47.4152 35.4216 47.4152 35.4216 47.1878 35.4375C46.9736 35.5679 46.8925 35.6359 46.8128 35.875C46.8074 35.9623 46.8054 36.0498 46.8057 36.1373C46.8057 36.1898 46.8057 36.2423 46.8057 36.2965C46.806 36.3529 46.8064 36.4094 46.8067 36.4675C46.8068 36.5255 46.8069 36.5835 46.807 36.6433C46.8073 36.8286 46.8081 37.0139 46.8089 37.1992C46.8092 37.3248 46.8095 37.4504 46.8097 37.576C46.8104 37.884 46.8115 38.192 46.8128 38.5C46.4622 38.5 46.1115 38.5 45.7503 38.5C45.7507 38.4153 45.7511 38.3307 45.7516 38.2435C45.7554 37.4461 45.7582 36.6488 45.76 35.8515C45.761 35.4415 45.7623 35.0316 45.7644 34.6217C45.7665 34.2262 45.7676 33.8307 45.7681 33.4351C45.7684 33.2842 45.7691 33.1332 45.7701 32.9822C45.7715 32.7709 45.7717 32.5596 45.7716 32.3483C45.7723 32.2858 45.7729 32.2232 45.7736 32.1587C45.7721 31.7359 45.7721 31.7359 45.5628 31.375C45.3256 31.2564 45.127 31.2622 44.9183 31.4258ZM22.0628 33.375C22.0563 36.0292 22.0499 38.6834 22.0433 41.418C22.0404 42.257 22.0376 43.096 22.0346 43.9604C22.0336 44.7105 22.0336 44.7105 22.033 45.4606C22.0327 45.7955 22.0315 46.1303 22.0298 46.4652C22.0276 46.892 22.027 47.3187 22.0275 47.7454C22.0274 47.9023 22.0267 48.0592 22.0255 48.216C22.024 48.4275 22.0244 48.6388 22.0252 48.8503C22.0243 48.9121 22.0234 48.9739 22.0225 49.0376C22.0253 49.3004 22.0417 49.462 22.1707 49.6945C22.4974 49.8829 22.8158 49.8544 23.1864 49.8501C23.2707 49.8502 23.355 49.8505 23.4393 49.8509C23.6709 49.8516 23.9025 49.8503 24.1341 49.8488C24.3839 49.8474 24.6337 49.8479 24.8835 49.8481C25.3162 49.8483 25.749 49.8473 26.1817 49.8455C26.8074 49.843 27.433 49.8422 28.0587 49.8418C29.0738 49.8411 30.0889 49.839 31.104 49.8361C32.0901 49.8332 33.0762 49.831 34.0623 49.8297C34.1535 49.8295 34.1535 49.8295 34.2465 49.8294C34.5514 49.829 34.8563 49.8286 35.1612 49.8282C37.6909 49.825 40.2206 49.8195 42.7503 49.8125C42.8018 49.566 42.8303 49.3272 42.8486 49.0758C42.8516 49.0344 42.8547 48.993 42.8578 48.9503C42.8679 48.8139 42.8776 48.6775 42.8873 48.541C42.8942 48.4453 42.9011 48.3496 42.908 48.2539C42.9225 48.0532 42.9368 47.8526 42.951 47.6519C42.9691 47.3968 42.9876 47.1418 43.0063 46.8868C43.0207 46.689 43.0349 46.4911 43.0489 46.2932C43.0556 46.1993 43.0624 46.1055 43.0693 46.0116C43.1019 45.5663 43.1307 45.1208 43.1433 44.6744C43.1453 44.612 43.1473 44.5495 43.1494 44.4851C43.1105 44.2066 42.9485 44.0465 42.7642 43.8438C42.393 43.4262 42.1689 42.9266 41.9808 42.4062C41.9656 42.3648 41.9504 42.3233 41.9348 42.2806C41.6767 41.5254 41.6675 40.7617 41.6668 39.9734C41.6664 39.8634 41.666 39.7534 41.6655 39.6434C41.6648 39.4144 41.6646 39.1853 41.6646 38.9562C41.6646 38.6634 41.6629 38.3706 41.6608 38.0778C41.6594 37.8513 41.6591 37.6248 41.6592 37.3982C41.6591 37.2902 41.6585 37.1823 41.6575 37.0743C41.6563 36.9234 41.6567 36.7726 41.6574 36.6217C41.6567 36.5777 41.656 36.5337 41.6553 36.4884C41.6596 36.1489 41.7505 35.9609 41.9378 35.6875C42.2438 35.4439 42.4806 35.4098 42.8667 35.4104C43.147 35.4491 43.4168 35.5437 43.6878 35.625C43.6878 34.8825 43.6878 34.14 43.6878 33.375C36.5515 33.375 29.4153 33.375 22.0628 33.375ZM44.1878 44.75C44.1569 45.2141 44.1569 45.2141 44.1253 45.6875C46.229 45.6875 48.3328 45.6875 50.5003 45.6875C50.4694 45.2234 50.4694 45.2234 50.4378 44.75C48.3753 44.75 46.3128 44.75 44.1878 44.75ZM44.0628 46.8125C43.8824 48.8439 43.8824 48.8439 43.8128 50.875C46.1434 50.875 48.474 50.875 50.8753 50.875C50.8071 48.9008 50.8071 48.9008 50.5628 46.8125C48.4178 46.8125 46.2728 46.8125 44.0628 46.8125Z" fill="#7B55D3"/>
<path d="M36.5935 36.8063C36.6889 36.8891 36.7828 36.9737 36.8748 37.0602C36.9181 37.1002 36.9615 37.1403 37.0061 37.1815C37.7368 37.9249 38.1248 39.0333 38.1248 40.0602C36.9079 40.0602 35.691 40.0602 34.4373 40.0602C34.4373 40.9058 34.4373 41.7514 34.4373 42.6227C34.7955 42.6191 35.1537 42.6154 35.5227 42.6117C35.7506 42.6101 35.9784 42.6086 36.2063 42.6074C36.5675 42.6056 36.9286 42.6034 37.2897 42.5991C37.5811 42.5957 37.8724 42.5938 38.1638 42.593C38.2746 42.5925 38.3854 42.5913 38.4961 42.5896C39.662 42.5725 39.662 42.5725 40.1248 42.9352C40.533 43.371 40.6559 43.7604 40.6438 44.3546C40.6032 44.793 40.4489 45.0743 40.1248 45.3688C39.8722 45.5774 39.7085 45.6852 39.3748 45.6852C39.4042 45.7184 39.4336 45.7516 39.4639 45.7858C39.5028 45.8299 39.5417 45.8741 39.5818 45.9196C39.6202 45.9631 39.6587 46.0066 39.6983 46.0514C39.8043 46.1759 39.9032 46.3032 39.9998 46.4352C39.8913 46.5521 39.7819 46.6677 39.6716 46.7828C39.641 46.8162 39.6103 46.8495 39.5786 46.8838C39.4871 46.9784 39.4871 46.9784 39.3123 47.1227C39.1327 47.1152 39.0716 47.0698 38.9462 46.9405C38.9061 46.8893 38.8659 46.8381 38.8245 46.7854C38.3645 46.2381 37.9561 45.7585 37.2154 45.6725C36.8438 45.6549 36.4759 45.6617 36.1043 45.6744C35.9435 45.6754 35.7827 45.6758 35.622 45.6756C35.2455 45.6766 34.8695 45.683 34.4932 45.6923C34.064 45.7026 33.6347 45.7056 33.2054 45.7081C32.3242 45.7134 31.4433 45.7275 30.5623 45.7477C30.5432 45.7966 30.5242 45.8456 30.5046 45.896C30.441 46.0511 30.3704 46.1726 30.2747 46.3095C30.2441 46.3536 30.2134 46.3977 30.1819 46.4431C30.1502 46.4882 30.1184 46.5333 30.0857 46.5797C30.0374 46.6491 30.0374 46.6491 29.9881 46.72C29.9089 46.8336 29.8295 46.947 29.7498 47.0602C29.5066 46.9734 29.3144 46.8592 29.1052 46.7086C29.0501 46.6691 28.9949 46.6297 28.938 46.589C28.8965 46.5589 28.855 46.5287 28.8123 46.4977C28.8908 46.2882 28.9802 46.1037 29.1013 45.9157C29.1431 45.8503 29.1431 45.8503 29.1858 45.7836C29.2069 45.7511 29.228 45.7186 29.2498 45.6852C29.2034 45.6799 29.157 45.6746 29.1091 45.6691C28.5661 45.5225 28.173 44.7147 27.8759 44.2718C27.6508 43.9367 27.417 43.6113 27.1716 43.2907C26.043 41.8072 26.043 41.8072 26.1248 40.7477C26.1991 40.3678 26.3982 40.065 26.6873 39.8102C27.0755 39.5633 27.4744 39.4407 27.9373 39.4977C28.3276 39.607 28.6099 39.7477 28.8748 40.0602C28.9633 40.1566 29.0518 40.2529 29.1404 40.3492C29.3852 40.6228 29.6189 40.9038 29.8499 41.1891C30.045 41.428 30.2442 41.6632 30.444 41.8983C30.578 42.056 30.7035 42.2094 30.8192 42.3814C30.954 42.5423 31.0446 42.5881 31.2533 42.6085C31.3521 42.611 31.451 42.6116 31.5498 42.6105C31.6194 42.6118 31.6194 42.6118 31.6903 42.6131C31.8625 42.6157 32.0347 42.6151 32.2068 42.6149C32.5922 42.6175 32.9777 42.62 33.3748 42.6227C33.3748 41.7771 33.3748 40.9314 33.3748 40.0602C32.1373 40.0602 30.8998 40.0602 29.6248 40.0602C29.8725 38.6566 30.2464 37.5049 31.4256 36.6344C33.063 35.5708 35.0457 35.6211 36.5935 36.8063ZM34.8123 37.1227C34.8756 37.2837 34.9408 37.4431 35.0112 37.6012C35.2138 38.0605 35.3358 38.5061 35.4373 38.9977C35.891 38.9977 36.3448 38.9977 36.8123 38.9977C36.3779 38.0771 35.9053 37.5217 34.927 37.162C34.8892 37.149 34.8513 37.1361 34.8123 37.1227ZM32.9373 37.1227C32.1554 37.484 31.5663 37.8506 31.1248 38.6227C31.0835 38.7464 31.0423 38.8702 30.9998 38.9977C31.4535 38.9977 31.9073 38.9977 32.3748 38.9977C32.4083 38.8366 32.4418 38.6754 32.4763 38.5094C32.5692 38.0884 32.7007 37.7408 32.9326 37.3729C32.9548 37.3316 32.9769 37.2903 32.9998 37.2477C32.9791 37.2064 32.9585 37.1652 32.9373 37.1227ZM33.8748 37.8102C33.813 37.9375 33.7519 38.0652 33.6912 38.193C33.6571 38.2641 33.623 38.3351 33.5879 38.4083C33.482 38.6432 33.482 38.6432 33.4373 38.9977C33.7466 38.9977 34.056 38.9977 34.3748 38.9977C34.3374 38.8714 34.3 38.745 34.2615 38.6149C34.2405 38.5438 34.2194 38.4728 34.1978 38.3995C34.1269 38.1915 34.0401 38.0041 33.9373 37.8102C33.9166 37.8102 33.896 37.8102 33.8748 37.8102ZM27.3513 40.7086C27.1939 40.9629 27.2053 41.206 27.2498 41.4977C27.3415 41.6974 27.4675 41.8586 27.6052 42.0289C27.6797 42.1262 27.754 42.2236 27.8284 42.3209C27.8669 42.3704 27.9054 42.4198 27.9451 42.4707C28.1374 42.7201 28.3201 42.9762 28.5037 43.2321C28.5371 43.2782 28.5706 43.3243 28.605 43.3718C28.7839 43.6187 28.9576 43.8677 29.1248 44.1227C29.3118 43.8957 29.4785 43.6612 29.6404 43.4157C29.7066 43.3155 29.7066 43.3155 29.7742 43.2133C29.8074 43.1627 29.8406 43.1122 29.8748 43.0602C29.7247 42.7876 29.5398 42.5659 29.3357 42.3336C29.2681 42.2558 29.2006 42.1779 29.1331 42.1C29.0998 42.0616 29.0666 42.0232 29.0323 41.9836C28.8988 41.8278 28.7695 41.6688 28.6404 41.5094C28.5958 41.4551 28.5513 41.4008 28.5054 41.3449C28.4168 41.2365 28.3291 41.1274 28.2422 41.0177C28.1996 40.966 28.157 40.9143 28.1131 40.861C28.0761 40.815 28.0391 40.769 28.001 40.7216C27.7875 40.5543 27.5792 40.5767 27.3513 40.7086ZM30.3188 44.1563C30.1804 44.409 30.1804 44.409 30.1248 44.6852C31.2928 44.6896 32.4609 44.6929 33.6289 44.6949C34.1713 44.6959 34.7136 44.6972 35.256 44.6993C35.7287 44.7012 36.2014 44.7024 36.6741 44.7028C36.9244 44.7031 37.1747 44.7036 37.425 44.705C37.6606 44.7063 37.8962 44.7067 38.1318 44.7064C38.2183 44.7064 38.3047 44.7068 38.3911 44.7075C38.5093 44.7085 38.6274 44.7081 38.7455 44.7077C38.8116 44.7079 38.8777 44.7081 38.9458 44.7083C39.1524 44.6816 39.2694 44.619 39.4373 44.4977C39.5456 44.35 39.5629 44.2747 39.5584 44.0914C39.4791 43.8801 39.3733 43.8103 39.1873 43.6852C39.0171 43.6463 39.0171 43.6463 38.8336 43.6488C38.7631 43.6471 38.6925 43.6454 38.6199 43.6437C38.5431 43.6431 38.4663 43.6425 38.3872 43.6419C38.3058 43.6404 38.2245 43.6388 38.1407 43.6373C37.9179 43.6332 37.6952 43.6308 37.4724 43.629C37.333 43.6278 37.1936 43.6264 37.0542 43.625C36.6173 43.6205 36.1805 43.6173 35.7437 43.6155C35.2406 43.6133 34.7377 43.6073 34.2347 43.5979C33.845 43.5909 33.4555 43.5875 33.0658 43.5868C32.8334 43.5863 32.6012 43.5843 32.3689 43.5784C31.1858 43.4917 31.1858 43.4917 30.3188 44.1563Z" fill="#65C7C3"/>
<path d="M24.3146 34.3051C24.3768 34.3049 24.439 34.3048 24.5032 34.3047C24.605 34.305 24.605 34.305 24.709 34.3052C24.7815 34.3052 24.854 34.3051 24.9286 34.3051C25.1296 34.305 25.3306 34.3052 25.5315 34.3055C25.7483 34.3058 25.9651 34.3057 26.1819 34.3056C26.5575 34.3056 26.933 34.3058 27.3086 34.3061C27.8516 34.3067 28.3945 34.3068 28.9375 34.3069C29.8185 34.307 30.6994 34.3074 31.5804 34.308C32.4361 34.3086 33.2919 34.3091 34.1476 34.3093C34.2004 34.3093 34.2531 34.3094 34.3075 34.3094C34.5721 34.3095 34.8368 34.3095 35.1014 34.3096C37.2967 34.3103 39.4921 34.3114 41.6874 34.3128C41.6874 34.684 41.6874 35.0553 41.6874 35.4378C35.8918 35.4378 30.0961 35.4378 24.1249 35.4378C24.1249 39.5009 24.1249 43.564 24.1249 47.7503C29.9205 47.7503 35.7161 47.7503 41.6874 47.7503C41.6874 48.1215 41.6874 48.4928 41.6874 48.8753C39.4347 48.8795 37.1819 48.8829 34.9292 48.8848C34.6632 48.8851 34.3972 48.8853 34.1312 48.8856C34.0518 48.8856 34.0518 48.8856 33.9708 48.8857C33.1135 48.8865 32.2562 48.888 31.3989 48.8897C30.5192 48.8915 29.6395 48.8925 28.7598 48.8929C28.217 48.8932 27.6742 48.894 27.1314 48.8955C26.7591 48.8965 26.3869 48.8968 26.0146 48.8965C25.7999 48.8964 25.5852 48.8966 25.3704 48.8976C25.1374 48.8985 24.9044 48.8983 24.6714 48.8978C24.6038 48.8983 24.5362 48.8989 24.4665 48.8995C24.038 48.8969 23.6522 48.8872 23.3252 48.5836C23.0666 48.2771 23.0083 48.0255 23.0156 47.6323C23.0151 47.5786 23.0146 47.5249 23.0141 47.4695C23.0129 47.2907 23.0144 47.1119 23.0159 46.9331C23.0156 46.8044 23.0151 46.6758 23.0145 46.5471C23.0133 46.1984 23.0145 45.8498 23.0161 45.5011C23.0176 45.136 23.017 44.7709 23.0168 44.4057C23.0167 43.7926 23.0181 43.1795 23.0204 42.5665C23.023 41.8579 23.0235 41.1494 23.0227 40.4408C23.022 39.7588 23.0227 39.0767 23.0241 38.3947C23.0247 38.1046 23.0248 37.8145 23.0245 37.5244C23.0243 37.1828 23.0253 36.8412 23.0273 36.4996C23.0278 36.3743 23.0279 36.249 23.0275 36.1237C23.0271 35.9526 23.0283 35.7814 23.0298 35.6103C23.0293 35.5608 23.0289 35.5114 23.0284 35.4604C23.0338 35.1137 23.1141 34.9112 23.3124 34.6253C23.6352 34.3643 23.9081 34.3049 24.3146 34.3051Z" fill="#7B55D3"/>
</g>
</g>
<defs>
<filter id="filter0_d_1_130006" x="0" y="0" width="74" height="74" filterUnits="userSpaceOnUse" color-interpolation-filters="sRGB">
<feFlood flood-opacity="0" result="BackgroundImageFix"/>
<feColorMatrix in="SourceAlpha" type="matrix" values="0 0 0 0 0 0 0 0 0 0 0 0 0 0 0 0 0 0 127 0" result="hardAlpha"/>
<feOffset dy="1"/>
<feGaussianBlur stdDeviation="0.5"/>
<feComposite in2="hardAlpha" operator="out"/>
<feColorMatrix type="matrix" values="0 0 0 0 0 0 0 0 0 0 0 0 0 0 0 0 0 0 0.04 0"/>
<feBlend mode="normal" in2="BackgroundImageFix" result="effect1_dropShadow_1_130006"/>
<feBlend mode="normal" in="SourceGraphic" in2="effect1_dropShadow_1_130006" result="shape"/>
</filter>
<clipPath id="clip0_1_130006">
<rect width="32" height="32" fill="white" transform="translate(21 20)"/>
</clipPath>
</defs>
</svg>
