<svg width="74" height="74" viewBox="0 0 74 74" fill="none" xmlns="http://www.w3.org/2000/svg">
<g filter="url(#filter0_d_1_129919)">
<rect x="1" width="72" height="72" rx="36" fill="white" shape-rendering="crispEdges"/>
<g clip-path="url(#clip0_1_129919)">
<path d="M22.4602 19.9778C22.5394 19.9773 22.6187 19.9768 22.7003 19.9762C22.7878 19.9766 22.8753 19.977 22.9627 19.9774C23.056 19.9771 23.1493 19.9768 23.2426 19.9764C23.4987 19.9754 23.7549 19.9757 24.011 19.9762C24.2874 19.9765 24.5637 19.9757 24.84 19.975C25.3813 19.974 25.9226 19.9739 26.4639 19.9743C26.9039 19.9745 27.3438 19.9744 27.7838 19.9741C27.8777 19.974 27.8777 19.974 27.9735 19.9739C28.1006 19.9738 28.2278 19.9737 28.355 19.9736C29.5478 19.9728 30.7405 19.9731 31.9333 19.9738C33.0246 19.9745 34.1159 19.9737 35.2071 19.9722C36.3276 19.9706 37.448 19.97 38.5684 19.9705C39.1975 19.9707 39.8265 19.9705 40.4556 19.9694C40.9911 19.9685 41.5267 19.9685 42.0622 19.9696C42.3354 19.9701 42.6087 19.9702 42.8819 19.9693C43.1321 19.9684 43.3823 19.9687 43.6325 19.9699C43.7229 19.9702 43.8134 19.97 43.9038 19.9693C44.4734 19.9655 44.8765 19.9899 45.325 20.3678C45.3581 20.4068 45.3912 20.4458 45.4253 20.486C45.4593 20.5243 45.4932 20.5627 45.5281 20.6022C45.8307 21.0711 45.8383 21.5054 45.8333 22.0485C45.8334 22.1272 45.8334 22.2059 45.8334 22.287C45.8335 22.5015 45.8324 22.7159 45.8311 22.9304C45.8299 23.155 45.8298 23.3796 45.8296 23.6042C45.829 24.029 45.8274 24.4538 45.8256 24.8785C45.8235 25.3623 45.8224 25.8462 45.8215 26.33C45.8195 27.3247 45.8162 28.3194 45.8121 29.3141C45.9349 29.3133 46.0578 29.3124 46.1806 29.3116C47.9984 29.3462 49.7313 30.4867 50.9678 31.7194C52.3397 33.1639 53.0257 35.0219 53.023 37.0016C53.0229 37.0651 53.0229 37.0651 53.0229 37.1298C53.0148 39.3316 52.1415 41.1678 50.5943 42.7199C49.8582 43.4189 48.783 44.2298 47.7496 44.3766C47.7698 44.4469 47.7899 44.5172 47.8108 44.5896C47.9151 45.0629 47.8951 45.5496 47.8956 46.0319C47.896 46.1384 47.8964 46.245 47.8968 46.3515C47.8976 46.5743 47.8978 46.797 47.8977 47.0197C47.8977 47.3031 47.8994 47.5863 47.9016 47.8697C47.903 48.0896 47.9032 48.3096 47.9031 48.5295C47.9033 48.6339 47.9038 48.7382 47.9048 48.8426C47.9129 49.7918 47.783 50.5822 47.1246 51.3141C46.5032 51.9024 45.7988 52.0324 44.9725 52.0189C44.2464 51.989 43.7288 51.6253 43.2378 51.1188C42.9724 50.8115 42.6871 50.3588 42.6871 49.9391C42.6438 49.9392 42.6005 49.9393 42.5559 49.9395C39.9907 49.9465 37.4256 49.9518 34.8604 49.9551C34.5523 49.9555 34.2442 49.9559 33.9361 49.9563C33.8748 49.9564 33.8135 49.9564 33.7503 49.9565C32.7575 49.9579 31.7647 49.9603 30.7719 49.9632C29.7531 49.9661 28.7342 49.9679 27.7154 49.9685C27.0868 49.9689 26.4582 49.9703 25.8296 49.9728C25.3984 49.9745 24.9673 49.975 24.5361 49.9746C24.2874 49.9744 24.0388 49.9747 23.7901 49.9764C23.5621 49.9779 23.3342 49.9779 23.1063 49.9769C22.9853 49.9767 22.8644 49.978 22.7434 49.9794C22.2678 49.9754 21.8923 49.9084 21.4996 49.6266C21.3534 49.4699 21.2332 49.3112 21.1246 49.1266C21.0919 49.0753 21.0919 49.0753 21.0586 49.0229C20.977 48.8206 20.9821 48.6278 20.9833 48.4131C20.9831 48.366 20.9828 48.3189 20.9826 48.2704C20.9819 48.1117 20.9822 47.9531 20.9824 47.7945C20.9821 47.6799 20.9818 47.5654 20.9814 47.4508C20.9805 47.1354 20.9804 46.8199 20.9805 46.5045C20.9804 46.1645 20.9796 45.8246 20.9788 45.4846C20.9774 44.741 20.9769 43.9973 20.9766 43.2536C20.9764 42.7894 20.976 42.3252 20.9755 41.861C20.9743 40.5761 20.9733 39.2912 20.9731 38.0063C20.9731 37.9241 20.9731 37.8418 20.9731 37.757C20.9731 37.632 20.973 37.507 20.973 37.382C20.973 37.2566 20.973 37.1312 20.973 37.0059C20.973 36.9644 20.973 36.923 20.9729 36.8803C20.9728 35.5787 20.9714 34.2772 20.9691 32.9756C20.9666 31.5135 20.9651 30.0514 20.9651 28.5893C20.965 27.8151 20.9645 27.0409 20.9627 26.2667C20.9612 25.6075 20.9607 24.9482 20.9617 24.289C20.9621 23.9526 20.962 23.6162 20.9606 23.2798C20.9593 22.9718 20.9595 22.6638 20.9608 22.3558C20.961 22.2444 20.9607 22.133 20.9598 22.0217C20.9552 21.4037 20.9541 20.8805 21.4022 20.4062C21.7198 20.1198 22.0348 19.9782 22.4602 19.9778ZM22.0621 21.3766C22.0155 21.5943 22.0155 21.5943 22.0229 21.839C22.0225 21.8851 22.022 21.9313 22.0216 21.9789C22.0205 22.1342 22.0217 22.2894 22.0228 22.4446C22.0225 22.5569 22.022 22.6691 22.0215 22.7813C22.0203 23.0901 22.021 23.3989 22.0221 23.7077C22.023 24.0406 22.022 24.3735 22.0213 24.7063C22.0201 25.3585 22.0206 26.0108 22.0218 26.663C22.0226 27.1929 22.0229 27.7228 22.0227 28.2527C22.0226 28.3281 22.0226 28.4034 22.0226 28.481C22.0225 28.6341 22.0225 28.7871 22.0224 28.9401C22.0219 30.2942 22.0229 31.6482 22.0248 33.0022C22.0266 34.317 22.027 35.6318 22.026 36.9467C22.025 38.3774 22.0247 39.8082 22.0258 41.239C22.0259 41.3914 22.0261 41.5439 22.0262 41.6964C22.0262 41.7714 22.0263 41.8464 22.0263 41.9237C22.0267 42.4532 22.0265 42.9827 22.0261 43.5122C22.0256 44.1572 22.026 44.8021 22.0276 45.4471C22.0284 45.7763 22.0288 46.1056 22.0281 46.4349C22.0274 46.736 22.0279 47.0371 22.0294 47.3382C22.0297 47.4474 22.0296 47.5567 22.0291 47.6659C22.0284 47.8138 22.0292 47.9617 22.0304 48.1096C22.0305 48.1919 22.0306 48.2743 22.0307 48.3591C22.0672 48.5977 22.1234 48.6692 22.3121 48.8141C22.473 48.8946 22.5874 48.8844 22.7677 48.8843C22.8383 48.8844 22.9089 48.8845 22.9816 48.8847C23.0598 48.8845 23.1379 48.8843 23.2185 48.8841C23.3019 48.8841 23.3852 48.8842 23.4686 48.8843C23.6985 48.8844 23.9284 48.8842 24.1583 48.8839C24.4059 48.8836 24.6535 48.8837 24.9011 48.8837C25.3304 48.8838 25.7597 48.8836 26.1889 48.8832C26.8096 48.8827 27.4302 48.8825 28.0509 48.8825C29.0578 48.8823 30.0646 48.8819 31.0715 48.8813C32.0498 48.8807 33.0281 48.8803 34.0064 48.88C34.0667 48.88 34.1269 48.88 34.189 48.88C34.4914 48.8799 34.7937 48.8798 35.096 48.8797C37.6055 48.8791 40.115 48.878 42.6246 48.8766C42.6253 48.8072 42.6253 48.8072 42.6261 48.7365C42.631 48.298 42.6365 47.8595 42.6425 47.421C42.6456 47.1956 42.6485 46.9702 42.6509 46.7448C42.6533 46.5268 42.6562 46.3088 42.6594 46.0908C42.6611 45.9683 42.6623 45.8458 42.6634 45.7233C42.6709 45.262 42.7117 44.8272 42.8121 44.3766C42.7524 44.3539 42.6927 44.3312 42.6312 44.3078C40.518 43.4918 39.0538 42.0656 38.1089 40.0172C37.8813 39.4691 37.7558 38.8914 37.6246 38.3141C37.6039 38.3141 37.5833 38.3141 37.5621 38.3141C37.5621 38.7472 37.5621 39.1804 37.5621 39.6266C34.8189 39.6266 32.0758 39.6266 29.2496 39.6266C29.2496 39.1729 29.2496 38.7191 29.2496 38.2516C28.9831 38.0144 28.8711 37.932 28.5621 37.8141C27.8643 37.3216 27.3946 36.4611 27.2496 35.6266C27.2315 35.3621 27.2318 35.0982 27.2324 34.8331C27.2321 34.7547 27.2318 34.6763 27.2314 34.5955C27.2307 34.3815 27.2306 34.1675 27.2307 33.9535C27.2308 33.774 27.2305 33.5945 27.2302 33.415C27.2295 32.9908 27.2295 32.5665 27.2298 32.1423C27.2302 31.707 27.2294 31.2717 27.2281 30.8363C27.227 30.4608 27.2266 30.0852 27.2268 29.7097C27.2269 29.4862 27.2268 29.2627 27.2259 29.0392C27.2192 27.1596 27.5014 25.4988 28.8121 24.0641C28.8556 24.0154 28.8992 23.9668 28.9441 23.9166C29.8836 22.9205 31.3064 22.1978 32.6849 22.1155C34.3711 22.0823 35.7466 22.2873 37.1246 23.3141C37.2133 23.3797 37.2133 23.3797 37.3038 23.4467C38.5595 24.4224 39.3187 25.931 39.5326 27.4925C39.5755 27.895 39.5766 28.2985 39.5818 28.703C39.5831 28.7877 39.5844 28.8724 39.5858 28.957C39.5892 29.178 39.5923 29.399 39.5953 29.6201C39.5985 29.8463 39.602 30.0726 39.6054 30.2988C39.6121 30.7414 39.6184 31.184 39.6246 31.6266C39.7035 31.5685 39.7822 31.5102 39.8609 31.4518C39.9048 31.4193 39.9486 31.3869 39.9938 31.3535C40.1171 31.2574 40.2302 31.1562 40.3433 31.0485C41.4314 30.0879 42.8497 29.5708 44.2689 29.3725C44.3866 29.356 44.3866 29.356 44.5066 29.3392C44.5661 29.3309 44.6257 29.3226 44.6871 29.3141C44.6944 28.2846 44.6999 27.2551 44.7033 26.2255C44.7049 25.7475 44.7071 25.2695 44.7106 24.7914C44.7138 24.3748 44.7158 23.9581 44.7165 23.5415C44.7169 23.3208 44.7178 23.1002 44.7201 22.8796C44.7226 22.6333 44.7227 22.387 44.7225 22.1407C44.7237 22.0676 44.7248 21.9945 44.7259 21.9192C44.7253 21.8184 44.7253 21.8184 44.7246 21.7155C44.7249 21.6573 44.7252 21.599 44.7255 21.539C44.6651 21.2837 44.596 21.2103 44.3746 21.0641C44.0852 21.0169 43.7962 21.0219 43.5039 21.0244C43.4131 21.0241 43.3223 21.0236 43.2315 21.0229C42.982 21.0216 42.7325 21.0223 42.4829 21.0233C42.2138 21.024 41.9447 21.0229 41.6757 21.022C41.1485 21.0206 40.6213 21.0209 40.0942 21.0218C39.6658 21.0225 39.2374 21.0226 38.8091 21.0223C38.7482 21.0222 38.6872 21.0222 38.6245 21.0221C38.5007 21.022 38.3769 21.0219 38.2532 21.0218C37.0922 21.0209 35.9312 21.022 34.7701 21.0236C33.7736 21.025 32.777 21.0248 31.7804 21.0234C30.6236 21.0217 29.4668 21.021 28.31 21.022C28.1867 21.0221 28.0634 21.0222 27.94 21.0223C27.849 21.0224 27.849 21.0224 27.7562 21.0224C27.3282 21.0227 26.9003 21.0222 26.4724 21.0215C25.951 21.0206 25.4296 21.0209 24.9082 21.0225C24.6421 21.0234 24.376 21.0237 24.1099 21.0226C23.8664 21.0217 23.6229 21.0222 23.3794 21.0239C23.2912 21.0242 23.203 21.0241 23.1148 21.0233C22.9951 21.0224 22.8754 21.0235 22.7557 21.0248C22.6559 21.0249 22.6559 21.0249 22.5541 21.0249C22.3038 21.0795 22.2132 21.1719 22.0621 21.3766ZM29.49 24.8998C28.6105 25.9549 28.2293 27.1537 28.2324 28.5139C28.2321 28.5868 28.2318 28.6597 28.2314 28.7347C28.2306 28.9735 28.2306 29.2123 28.2308 29.4511C28.2306 29.5759 28.2304 29.7006 28.2302 29.8254C28.2295 30.217 28.2295 30.6086 28.2298 31.0002C28.2302 31.4025 28.2294 31.8049 28.2281 32.2072C28.227 32.5544 28.2266 32.9015 28.2268 33.2487C28.2269 33.4553 28.2267 33.6619 28.2259 33.8685C28.2251 34.099 28.2256 34.3294 28.2263 34.5598C28.2258 34.6272 28.2253 34.6946 28.2248 34.7641C28.2298 35.4773 28.4183 36.1672 28.9336 36.6867C29.0357 36.7747 29.1422 36.8575 29.2496 36.9391C29.314 36.7465 29.3779 36.5537 29.4397 36.3602C29.7585 35.4061 30.2866 34.6324 31.1246 34.0641C30.9079 33.8891 30.9079 33.8891 30.6836 33.7243C29.9433 33.1914 29.4882 32.391 29.3121 31.5016C29.3 31.3333 29.2927 31.1712 29.2921 31.0031C29.2915 30.9561 29.2909 30.909 29.2902 30.8606C29.2883 30.7071 29.2872 30.5536 29.2862 30.4C29.285 30.2929 29.2838 30.1857 29.2825 30.0785C29.2793 29.7978 29.2768 29.5171 29.2745 29.2364C29.272 28.9494 29.2688 28.6624 29.2657 28.3754C29.2596 27.8133 29.2544 27.2512 29.2496 26.6891C29.3055 26.6896 29.3614 26.69 29.419 26.6905C29.4922 26.6908 29.5655 26.6912 29.641 26.6916C29.7136 26.692 29.7863 26.6925 29.8612 26.6929C30.4754 26.6812 31.0062 26.4309 31.4371 26.0016C31.7505 25.6529 32.0109 25.2793 32.2496 24.8766C32.6521 25.2179 32.6521 25.2179 32.8245 25.3842C33.7191 26.2374 34.8508 26.7004 36.0911 26.6952C36.1335 26.6951 36.1759 26.695 36.2196 26.6949C36.3533 26.6946 36.487 26.6938 36.6207 26.693C36.712 26.6927 36.8034 26.6924 36.8947 26.6922C37.1172 26.6915 37.3396 26.6904 37.5621 26.6891C37.5582 27.2607 37.5534 27.8323 37.5473 28.4039C37.5445 28.6695 37.5421 28.935 37.5404 29.2005C37.5388 29.4574 37.5362 29.7143 37.5331 29.9713C37.5321 30.0686 37.5314 30.1659 37.531 30.2632C37.5254 31.4998 37.2976 32.5563 36.4107 33.4799C36.2165 33.6567 36.0148 33.7994 35.7881 33.9315C35.7381 33.9662 35.7381 33.9662 35.6871 34.0016C35.6871 34.0429 35.6871 34.0841 35.6871 34.1266C35.7966 34.2204 35.7966 34.2204 35.9371 34.318C36.7848 34.9621 37.1576 35.755 37.4371 36.7516C37.4577 36.7516 37.4783 36.7516 37.4996 36.7516C37.5036 36.7155 37.5076 36.6794 37.5118 36.6422C37.7241 34.8025 37.7241 34.8025 38.1241 34.0779C38.5195 33.3597 38.5703 32.7481 38.5572 31.9389C38.5569 31.8153 38.5568 31.6917 38.5568 31.5681C38.5564 31.3108 38.5544 31.0536 38.551 30.7964C38.5468 30.4695 38.5458 30.1428 38.546 29.8159C38.5459 29.5612 38.5446 29.3066 38.5428 29.0519C38.542 28.9315 38.5415 28.8111 38.5413 28.6907C38.5382 27.7624 38.4628 26.8685 38.0074 26.0368C37.9745 25.9744 37.9745 25.9744 37.9409 25.9108C37.8786 25.7944 37.8145 25.6791 37.7496 25.5641C37.7053 25.4842 37.7053 25.4842 37.6602 25.4027C37.0166 24.3459 35.8493 23.5717 34.6672 23.2663C32.7333 22.8067 30.8266 23.4274 29.49 24.8998ZM32.4371 26.5016C32.4082 26.5333 32.3794 26.5651 32.3497 26.5978C31.7715 27.2079 31.0966 27.491 30.3121 27.7516C30.3073 28.2197 30.304 28.6877 30.3018 29.1558C30.3008 29.3148 30.2995 29.4738 30.2979 29.6328C30.2956 29.8623 30.2946 30.0917 30.2938 30.3212C30.2928 30.3915 30.2918 30.4617 30.2908 30.5341C30.2906 31.3861 30.5257 32.0794 31.1089 32.7086C31.7182 33.2853 32.4518 33.4 33.2601 33.3998C33.389 33.4 33.5179 33.4023 33.6468 33.4047C34.4674 33.4117 35.1354 33.2004 35.7457 32.6405C36.1834 32.1792 36.4456 31.5946 36.4442 30.9587C36.4442 30.8874 36.4441 30.8161 36.4441 30.7426C36.4438 30.666 36.4435 30.5893 36.4432 30.5104C36.4431 30.4317 36.443 30.353 36.4429 30.2718C36.4426 30.0631 36.442 29.8543 36.4414 29.6455C36.4407 29.4322 36.4404 29.219 36.4401 29.0058C36.4394 28.5877 36.4384 28.1697 36.4371 27.7516C36.3626 27.7483 36.2881 27.745 36.2113 27.7416C35.1805 27.6927 35.1805 27.6927 34.7339 27.5836C34.6879 27.5728 34.6418 27.5619 34.5944 27.5507C33.8316 27.3605 33.2016 27.0137 32.5621 26.5641C32.5208 26.5435 32.4796 26.5229 32.4371 26.5016ZM40.9371 31.9391C40.8859 31.9813 40.8347 32.0235 40.782 32.067C39.3598 33.2754 38.6944 35.0188 38.5445 36.8402C38.4941 38.4957 39.0989 40.1385 40.1871 41.3766C40.2503 41.4532 40.2503 41.4532 40.3147 41.5314C41.3437 42.7421 42.8737 43.4809 44.4371 43.6891C44.703 43.7069 44.9675 43.71 45.2339 43.7086C45.3413 43.7081 45.3413 43.7081 45.4508 43.7076C45.99 43.6999 46.48 43.6553 46.9996 43.5016C47.0626 43.483 47.0626 43.483 47.127 43.464C48.0111 43.1957 48.7939 42.7928 49.4996 42.1891C49.5494 42.1475 49.5993 42.106 49.6507 42.0631C50.9476 40.9452 51.7872 39.3395 51.9371 37.6266C52.0544 35.6076 51.3878 33.8622 50.0586 32.3561C49.2219 31.4742 48.1525 30.9045 46.9996 30.5641C46.9274 30.5428 46.8552 30.5214 46.7808 30.4994C44.7611 30.006 42.4925 30.5692 40.9371 31.9391ZM32.4371 34.6266C32.4687 34.9032 32.5558 35.0526 32.7496 35.2516C33.0496 35.454 33.3345 35.4961 33.6871 35.4391C33.9612 35.2995 34.1403 35.131 34.3121 34.8766C34.3353 34.7939 34.3566 34.7106 34.3746 34.6266C34.0393 34.5149 33.7229 34.4879 33.3707 34.486C33.3286 34.4854 33.2866 34.4848 33.2433 34.4843C32.9504 34.486 32.7124 34.5364 32.4371 34.6266ZM35.3121 35.1891C35.296 35.2239 35.28 35.2587 35.2635 35.2946C35.0267 35.7665 34.7301 36.1243 34.2376 36.3383C33.6134 36.5444 33.1136 36.5664 32.4996 36.3141C32.13 36.1231 31.875 35.8981 31.6426 35.5536C31.5624 35.4396 31.4757 35.3471 31.3746 35.2516C30.7703 35.8203 30.492 36.3794 30.3121 37.1891C30.3121 37.6429 30.3121 38.0966 30.3121 38.5641C32.3333 38.5641 34.3546 38.5641 36.4371 38.5641C36.4724 36.8349 36.4724 36.8349 35.6241 35.4381C35.5235 35.351 35.4183 35.2693 35.3121 35.1891ZM43.8746 44.6891C43.7031 45.0616 43.7031 45.0616 43.7496 45.7516C44.7396 45.7516 45.7296 45.7516 46.7496 45.7516C46.8101 45.0136 46.8101 45.0136 46.6246 44.6891C46.579 44.6936 46.5334 44.6981 46.4864 44.7028C45.6144 44.7803 44.7457 44.7753 43.8746 44.6891ZM43.7496 46.8766C43.7431 47.3381 43.7367 47.7996 43.73 48.275C43.7272 48.4194 43.7243 48.5639 43.7214 48.7126C43.7205 48.829 43.7197 48.9453 43.719 49.0617C43.7174 49.1205 43.7158 49.1794 43.7142 49.2401C43.7139 49.7232 43.8424 50.1307 44.169 50.4963C44.4817 50.7934 44.8444 50.9417 45.273 50.9704C45.6788 50.9536 46.0226 50.7771 46.3194 50.5055C46.5972 50.2011 46.766 49.9314 46.7638 49.509C46.7637 49.4494 46.7637 49.3898 46.7637 49.3284C46.7631 49.2665 46.7624 49.2047 46.7618 49.141C46.7616 49.0549 46.7616 49.0549 46.7614 48.967C46.7607 48.7533 46.759 48.5395 46.7574 48.3258C46.7548 47.8476 46.7522 47.3693 46.7496 46.8766C45.7596 46.8766 44.7696 46.8766 43.7496 46.8766Z" fill="#7B55D3"/>
<path d="M49.0271 32.7291C49.1226 32.8198 49.2177 32.9109 49.3122 33.0025C49.3695 33.0529 49.3695 33.0529 49.428 33.1043C50.2834 33.8836 50.8788 35.2304 50.9483 36.3716C50.9659 37.2412 50.9811 38.0506 50.6872 38.8775C50.6639 38.9437 50.6405 39.0098 50.6164 39.078C50.0865 40.445 49.0295 41.6167 47.6955 42.245C46.2972 42.8613 44.7076 42.9503 43.2654 42.4244C42.5905 42.1421 41.9837 41.8036 41.4372 41.315C41.3859 41.2696 41.3346 41.2242 41.2817 41.1773C40.2387 40.1976 39.6121 38.8416 39.5427 37.4139C39.4929 35.7562 39.9503 34.3166 41.104 33.0882C41.1521 33.0393 41.2002 32.9904 41.2497 32.94C41.2972 32.8918 41.3447 32.8435 41.3935 32.7938C43.4857 30.7907 46.9019 30.8475 49.0271 32.7291ZM41.7693 33.983C41.0205 34.8485 40.5717 35.999 40.6096 37.1517C40.7331 38.4837 41.2047 39.678 42.2497 40.565C43.3535 41.4372 44.5509 41.7481 45.9372 41.6275C46.8552 41.5047 47.6945 41.055 48.3747 40.44C48.419 40.4009 48.4632 40.3617 48.5088 40.3214C48.8451 40.0062 49.0828 39.6505 49.3122 39.2525C49.3367 39.2108 49.3611 39.1691 49.3862 39.1261C49.9572 38.073 50.0185 36.8256 49.6872 35.69C49.4169 34.9067 49.0169 34.2796 48.4372 33.69C48.3796 33.6312 48.3796 33.6312 48.3208 33.5711C47.3746 32.6776 46.1797 32.4055 44.9163 32.4229C43.6703 32.4648 42.6156 33.102 41.7693 33.983Z" fill="#65C7C3"/>
<path d="M25.125 46.8125C29.2294 46.8125 33.3337 46.8125 37.5625 46.8125C37.5625 47.1631 37.5625 47.5137 37.5625 47.875C33.4581 47.875 29.3538 47.875 25.125 47.875C25.125 47.5244 25.125 47.1738 25.125 46.8125Z" fill="#7B55D3"/>
<path d="M25.125 44.75C29.2294 44.75 33.3337 44.75 37.5625 44.75C37.5625 45.1006 37.5625 45.4512 37.5625 45.8125C33.4581 45.8125 29.3538 45.8125 25.125 45.8125C25.125 45.4619 25.125 45.1113 25.125 44.75Z" fill="#7B55D3"/>
<path d="M25.125 42.6875C29.2294 42.6875 33.3337 42.6875 37.5625 42.6875C37.5625 43.0381 37.5625 43.3887 37.5625 43.75C33.4581 43.75 29.3538 43.75 25.125 43.75C25.125 43.3994 25.125 43.0488 25.125 42.6875Z" fill="#7B55D3"/>
<path d="M25.125 40.625C29.2294 40.625 33.3337 40.625 37.5625 40.625C37.5625 40.9756 37.5625 41.3262 37.5625 41.6875C33.4581 41.6875 29.3538 41.6875 25.125 41.6875C25.125 41.3369 25.125 40.9863 25.125 40.625Z" fill="#7B55D3"/>
<path d="M32.25 30.5625C32.3861 30.6986 32.5214 30.8355 32.6523 30.9766C32.9255 31.2297 33.1761 31.2828 33.541 31.2737C33.8406 31.2252 34.0814 31.0651 34.2742 30.8333C34.3516 30.722 34.3516 30.722 34.4375 30.5625C34.7928 30.6654 35.1104 30.8306 35.4375 31C35.2983 31.4936 34.9936 31.8314 34.5747 32.1213C33.9999 32.4377 33.4371 32.506 32.7969 32.3711C32.2083 32.1995 31.734 31.8457 31.4275 31.311C31.375 31.1875 31.375 31.1875 31.375 31C31.6637 30.8556 31.9525 30.7113 32.25 30.5625Z" fill="#7B55D3"/>
<path d="M23.0625 46.8125C23.4131 46.8125 23.7637 46.8125 24.125 46.8125C24.125 47.1631 24.125 47.5137 24.125 47.875C23.7744 47.875 23.4238 47.875 23.0625 47.875C23.0625 47.5244 23.0625 47.1738 23.0625 46.8125Z" fill="#65C7C3"/>
<path d="M23.0625 44.75C23.4131 44.75 23.7637 44.75 24.125 44.75C24.125 45.1006 24.125 45.4512 24.125 45.8125C23.7744 45.8125 23.4238 45.8125 23.0625 45.8125C23.0625 45.4619 23.0625 45.1113 23.0625 44.75Z" fill="#65C7C3"/>
<path d="M23.0625 42.6875C23.4131 42.6875 23.7637 42.6875 24.125 42.6875C24.125 43.0381 24.125 43.3887 24.125 43.75C23.7744 43.75 23.4238 43.75 23.0625 43.75C23.0625 43.3994 23.0625 43.0488 23.0625 42.6875Z" fill="#65C7C3"/>
<path d="M23.0625 40.625C23.4131 40.625 23.7637 40.625 24.125 40.625C24.125 40.9756 24.125 41.3262 24.125 41.6875C23.7744 41.6875 23.4238 41.6875 23.0625 41.6875C23.0625 41.3369 23.0625 40.9863 23.0625 40.625Z" fill="#65C7C3"/>
<path d="M47.8125 36.5C48.1631 36.5 48.5137 36.5 48.875 36.5C48.875 36.8506 48.875 37.2012 48.875 37.5625C48.5244 37.5625 48.1738 37.5625 47.8125 37.5625C47.8125 37.2119 47.8125 36.8613 47.8125 36.5Z" fill="#65C7C3"/>
<path d="M45.75 36.5C46.1006 36.5 46.4512 36.5 46.8125 36.5C46.8125 36.8506 46.8125 37.2012 46.8125 37.5625C46.4619 37.5625 46.1113 37.5625 45.75 37.5625C45.75 37.2119 45.75 36.8613 45.75 36.5Z" fill="#65C7C3"/>
<path d="M43.6875 36.5C44.0381 36.5 44.3887 36.5 44.75 36.5C44.75 36.8506 44.75 37.2012 44.75 37.5625C44.3994 37.5625 44.0488 37.5625 43.6875 37.5625C43.6875 37.2119 43.6875 36.8613 43.6875 36.5Z" fill="#65C7C3"/>
<path d="M41.625 36.5C41.9756 36.5 42.3262 36.5 42.6875 36.5C42.6875 36.8506 42.6875 37.2012 42.6875 37.5625C42.3369 37.5625 41.9863 37.5625 41.625 37.5625C41.625 37.2119 41.625 36.8613 41.625 36.5Z" fill="#65C7C3"/>
<path d="M35.1875 28.2543C35.3933 28.3862 35.4305 28.482 35.5039 28.7152C35.5 28.9418 35.5 28.9418 35.3789 29.1566C35.1552 29.3438 35.1552 29.3438 34.9336 29.3559C34.6875 29.3168 34.6875 29.3168 34.5352 29.2191C34.4051 29.0162 34.3792 28.8698 34.375 28.6293C34.5511 28.2436 34.7795 28.1977 35.1875 28.2543Z" fill="#7B55D3"/>
<path d="M32.0621 28.251C32.2496 28.3799 32.2496 28.3799 32.3746 28.5635C32.4137 28.7822 32.4137 28.7822 32.3746 29.001C32.2126 29.2317 32.122 29.3028 31.8434 29.3525C31.6246 29.3135 31.6246 29.3135 31.441 29.1885C31.2627 28.9291 31.2677 28.8116 31.3121 28.501C31.486 28.2111 31.7472 28.1799 32.0621 28.251Z" fill="#7B55D3"/>
</g>
</g>
<defs>
<filter id="filter0_d_1_129919" x="0" y="0" width="74" height="74" filterUnits="userSpaceOnUse" color-interpolation-filters="sRGB">
<feFlood flood-opacity="0" result="BackgroundImageFix"/>
<feColorMatrix in="SourceAlpha" type="matrix" values="0 0 0 0 0 0 0 0 0 0 0 0 0 0 0 0 0 0 127 0" result="hardAlpha"/>
<feOffset dy="1"/>
<feGaussianBlur stdDeviation="0.5"/>
<feComposite in2="hardAlpha" operator="out"/>
<feColorMatrix type="matrix" values="0 0 0 0 0 0 0 0 0 0 0 0 0 0 0 0 0 0 0.04 0"/>
<feBlend mode="normal" in2="BackgroundImageFix" result="effect1_dropShadow_1_129919"/>
<feBlend mode="normal" in="SourceGraphic" in2="effect1_dropShadow_1_129919" result="shape"/>
</filter>
<clipPath id="clip0_1_129919">
<rect width="32" height="32" fill="white" transform="translate(21 20)"/>
</clipPath>
</defs>
</svg>
