<svg width="74" height="74" viewBox="0 0 74 74" fill="none" xmlns="http://www.w3.org/2000/svg">
<g filter="url(#filter0_d_1_130168)">
<rect x="1" width="72" height="72" rx="36" fill="white" shape-rendering="crispEdges"/>
<g clip-path="url(#clip0_1_130168)">
<path d="M43.4609 20.4845C43.5327 20.4844 43.5327 20.4844 43.6059 20.4844C44.2966 20.4853 44.9547 20.5053 45.625 20.6876C45.6669 20.699 45.7088 20.7104 45.752 20.7221C48.1897 21.3993 50.1564 22.9009 51.415 25.0971C52.54 27.1195 52.8679 29.6334 52.25 31.8751C52.239 31.9166 52.2279 31.9581 52.2166 32.0008C51.5797 34.3223 49.9219 36.2687 47.8516 37.4493C47.6442 37.5626 47.6442 37.5626 47.5 37.5626C47.5 42.162 47.5 46.7614 47.5 51.5001C38.92 51.5001 30.34 51.5001 21.5 51.5001C21.5 45.5601 21.5 39.6201 21.5 33.5001C26.0788 33.5001 30.6575 33.5001 35.375 33.5001C35.2513 33.2114 35.1275 32.9226 35 32.6251C34.8786 32.296 34.7782 31.9637 34.6875 31.6251C34.6674 31.5509 34.6472 31.4767 34.6265 31.4003C34.3504 30.1527 34.3619 28.6096 34.6875 27.3751C34.7068 27.2924 34.7261 27.2096 34.7454 27.1268C35.1404 25.5408 36.0383 24.1431 37.1875 23.0001C37.2426 22.945 37.2977 22.8899 37.3545 22.8331C38.9962 21.2691 41.2202 20.4863 43.4609 20.4845ZM37.6761 24.0435C36.7225 25.0358 36.1211 26.2467 35.75 27.5626C35.7287 27.6377 35.7073 27.7128 35.6853 27.7902C35.2272 29.7587 35.6261 31.9259 36.665 33.6442C37.8437 35.519 39.6664 36.813 41.8208 37.3126C43.8948 37.7547 46.0639 37.3469 47.8491 36.2062C49.5647 35.0701 50.6966 33.3997 51.25 31.4376C51.2714 31.3625 51.2927 31.2875 51.3147 31.2101C51.7728 29.2415 51.3739 27.0743 50.335 25.3561C49.1484 23.4687 47.3454 22.2241 45.1953 21.6876C42.4052 21.0728 39.6573 22.0508 37.6761 24.0435ZM23.3125 34.5001C23.3616 34.5492 23.4107 34.5983 23.4613 34.6489C23.5934 34.7811 23.7252 34.9136 23.8567 35.0465C23.9422 35.1326 24.0277 35.2187 24.1133 35.3048C24.1554 35.3474 24.1975 35.3901 24.2408 35.434C24.4877 35.682 24.7412 35.9168 25.0063 36.1452C25.1897 36.3074 25.3602 36.4813 25.5312 36.6564C25.7443 36.8721 25.956 37.0852 26.1875 37.2814C26.4578 37.5104 26.7026 37.7636 26.9514 38.0153C27.1292 38.1942 27.3074 38.3682 27.5 38.5314C27.7703 38.7604 28.0151 39.0136 28.2639 39.2653C28.4417 39.4442 28.6199 39.6182 28.8125 39.7814C29.0828 40.0104 29.3276 40.2636 29.5764 40.5153C29.7542 40.6942 29.9324 40.8682 30.125 41.0314C30.3565 41.2276 30.568 41.4409 30.7812 41.6564C31.8622 42.7427 32.9848 43.4666 34.5625 43.5001C36.432 43.4763 37.6348 42.2549 38.8682 41.005C38.9878 40.8871 39.1104 40.777 39.2383 40.6681C39.4732 40.4675 39.6892 40.2509 39.9062 40.0314C40.1549 39.7799 40.4058 39.5391 40.6758 39.3104C41.0061 39.0137 41.3133 38.6911 41.625 38.3751C41.4398 38.2718 41.2515 38.2096 41.0483 38.1503C39.1146 37.5858 37.4877 36.4609 36.25 34.8751C36.2162 34.8103 36.1825 34.7454 36.1477 34.6786C36.013 34.4778 36.013 34.4778 35.7711 34.454C35.6768 34.4524 35.5825 34.4529 35.4883 34.455C35.4102 34.4546 35.4102 34.4546 35.3306 34.4541C35.156 34.4534 34.9815 34.4555 34.8069 34.4576C34.6819 34.4577 34.5569 34.4576 34.4318 34.4574C34.0921 34.4573 33.7524 34.4595 33.4127 34.4621C33.0578 34.4644 32.7028 34.4647 32.3479 34.4651C31.6757 34.4663 31.0034 34.4694 30.3312 34.4731C29.5659 34.4773 28.8007 34.4794 28.0354 34.4813C26.4611 34.4852 24.8868 34.4918 23.3125 34.5001ZM22.5 35.2501C22.5 40.0764 22.5 44.9026 22.5 49.8751C22.6979 49.7564 22.8582 49.6586 23.031 49.5158C23.0706 49.4832 23.1102 49.4507 23.151 49.4172C23.2135 49.3655 23.2135 49.3655 23.2773 49.3126C23.3671 49.239 23.4568 49.1654 23.5466 49.0919C23.6138 49.0369 23.6138 49.0369 23.6823 48.9808C23.8697 48.8286 24.0596 48.6798 24.25 48.5314C24.5655 48.285 24.8774 48.0345 25.1875 47.7814C25.5327 47.4997 25.8807 47.2221 26.2319 46.9479C26.5115 46.729 26.7874 46.5059 27.0625 46.2814C27.4077 45.9997 27.7557 45.7221 28.1069 45.4479C28.3865 45.229 28.6624 45.0059 28.9375 44.7814C29.257 44.5208 29.578 44.2624 29.9023 44.0079C29.9381 43.9798 29.9739 43.9517 30.0108 43.9228C30.1702 43.7978 30.3303 43.6742 30.4919 43.5521C30.5436 43.5131 30.5952 43.474 30.6484 43.4337C30.6927 43.4008 30.7371 43.3678 30.7827 43.3339C30.8132 43.3062 30.8436 43.2786 30.875 43.2501C30.875 43.2089 30.875 43.1676 30.875 43.1251C30.7802 43.0292 30.7802 43.0292 30.6562 42.9298C30.4708 42.7725 30.2953 42.6113 30.125 42.4376C29.97 42.2803 29.8128 42.1313 29.6445 41.9884C29.4073 41.7849 29.1884 41.566 28.9688 41.3439C28.7556 41.1283 28.544 40.9151 28.3125 40.7189C28.0422 40.4898 27.7974 40.2367 27.5486 39.985C27.3708 39.806 27.1926 39.6321 27 39.4689C26.7297 39.2398 26.4849 38.9867 26.2361 38.735C26.0583 38.556 25.8801 38.3821 25.6875 38.2189C25.4172 37.9898 25.1724 37.7367 24.9236 37.485C24.7458 37.306 24.5676 37.1321 24.375 36.9689C24.1435 36.7727 23.9319 36.5595 23.7188 36.3439C23.3312 35.9524 22.9304 35.5945 22.5 35.2501ZM45.7753 38.1906C45.2509 38.34 44.7347 38.4563 44.187 38.424C43.3719 38.377 43.3719 38.377 42.6663 38.7389C42.4232 38.9722 42.2073 39.2249 41.995 39.4862C41.8422 39.6632 41.6728 39.8101 41.4943 39.9604C41.3086 40.1196 41.1396 40.2941 40.9688 40.4689C40.7197 40.7211 40.4678 40.9623 40.1973 41.1915C39.972 41.3939 39.7621 41.6118 39.5493 41.8271C39.3292 42.0487 39.1039 42.2589 38.8655 42.4608C38.686 42.6191 38.5205 42.7907 38.354 42.9625C38.25 43.0626 38.25 43.0626 38.125 43.1251C38.1962 43.3386 38.242 43.37 38.418 43.5001C38.469 43.5386 38.5201 43.5771 38.5728 43.6168C38.6605 43.6828 38.6605 43.6828 38.75 43.7501C38.887 43.8565 39.0238 43.9632 39.1602 44.0704C39.1971 44.0994 39.234 44.1284 39.272 44.1582C39.6018 44.4177 39.9272 44.6825 40.2523 44.9478C40.5202 45.166 40.7902 45.3812 41.0625 45.5939C41.4213 45.874 41.7748 46.1601 42.1274 46.4479C42.3953 46.6661 42.6652 46.8813 42.9375 47.0939C43.2963 47.374 43.6498 47.6601 44.0024 47.9479C44.3049 48.1943 44.6104 48.4364 44.9181 48.6761C45.12 48.834 45.3199 48.9941 45.5181 49.1566C45.5857 49.2121 45.5857 49.2121 45.6548 49.2687C45.7424 49.3407 45.8298 49.4128 45.917 49.4852C45.9568 49.5179 45.9966 49.5507 46.0376 49.5844C46.0726 49.6134 46.1076 49.6424 46.1437 49.6723C46.2679 49.7678 46.2679 49.7678 46.5 49.8751C46.5 45.9564 46.5 42.0376 46.5 38.0001C46.2704 38.0001 45.9975 38.1252 45.7753 38.1906ZM31.3633 44.1681C31.3058 44.2141 31.3058 44.2141 31.2472 44.2611C31.1227 44.3611 30.9988 44.4618 30.875 44.5626C30.7919 44.6301 30.7088 44.6976 30.6257 44.765C30.4997 44.8675 30.3736 44.97 30.2478 45.0727C29.9448 45.3196 29.6386 45.5619 29.3306 45.8024C29.051 46.0212 28.7751 46.2444 28.5 46.4689C28.1899 46.722 27.878 46.9725 27.5625 47.2189C27.1555 47.5368 26.7548 47.8621 26.3545 48.1884C26.1269 48.3738 25.8978 48.5572 25.6682 48.7401C25.4432 48.9207 25.2197 49.1031 24.9961 49.2853C24.6843 49.5392 24.3708 49.7901 24.0525 50.0358C23.8853 50.1657 23.7222 50.2984 23.5625 50.4376C23.5625 50.4583 23.5625 50.4789 23.5625 50.5001C30.8019 50.5001 38.0413 50.5001 45.5 50.5001C45.271 50.2711 45.0478 50.0705 44.793 49.8751C44.4627 49.6188 44.1362 49.3584 43.8125 49.0939C43.5024 48.8407 43.1905 48.5903 42.875 48.3439C42.5162 48.0638 42.1627 47.7777 41.8101 47.4899C41.5422 47.2717 41.2723 47.0565 41 46.8439C40.6412 46.5638 40.2877 46.2777 39.9351 45.9899C39.6325 45.7434 39.3267 45.5013 39.019 45.2612C38.6877 45.002 38.3617 44.7364 38.037 44.469C37.9213 44.3742 37.8046 44.2808 37.6875 44.1876C37.6493 44.1561 37.6111 44.1246 37.5717 44.0921C37.358 43.9214 37.358 43.9214 37.0964 43.8754C37.0178 43.9062 37.0178 43.9062 36.9375 43.9376C36.8625 43.9653 36.7875 43.9929 36.7102 44.0214C36.5841 44.0707 36.4583 44.1207 36.3326 44.1714C35.0312 44.6781 33.5294 44.5448 32.2617 44.0158C32.2033 43.989 32.1449 43.9623 32.0847 43.9347C31.7575 43.8023 31.6087 43.9676 31.3633 44.1681Z" fill="#7B55D3"/>
<path d="M43.3791 23.4766C43.4435 23.4767 43.4435 23.4767 43.5092 23.4768C45.2844 23.4843 46.701 24.1402 47.959 25.3961C49.2011 26.7083 49.5459 28.2881 49.5328 30.0327C49.5315 30.2474 49.5328 30.4619 49.5344 30.6765C49.5342 30.8149 49.5339 30.9532 49.5334 31.0916C49.5339 31.1548 49.5344 31.218 49.535 31.283C49.5261 31.9634 49.303 32.4365 48.8359 32.9251C48.2731 33.4471 47.7061 33.5369 46.9641 33.5189C46.3745 33.4887 45.9982 33.2428 45.5757 32.8409C45.3725 32.6151 45.1252 32.318 45.1252 32.0001C45.0799 32.0257 45.0347 32.0513 44.988 32.0777C44.9276 32.1114 44.8672 32.1451 44.8049 32.1798C44.7454 32.2131 44.686 32.2465 44.6247 32.2808C44.0391 32.5759 43.3694 32.5853 42.7312 32.4593C42.0512 32.2349 41.5037 31.7429 41.1772 31.108C40.98 30.6223 40.9618 30.1565 40.9676 29.6406C40.969 29.5003 40.9676 29.3601 40.966 29.2198C40.9644 28.417 41.1212 27.781 41.6877 27.1876C42.2644 26.637 42.8659 26.461 43.648 26.4707C44.3872 26.4999 44.9278 26.7843 45.436 27.3167C46.0774 28.0779 46.0375 28.9106 46.0393 29.8555C46.0403 30.0464 46.0417 30.2372 46.0438 30.4281C46.045 30.5461 46.0456 30.6642 46.0454 30.7823C46.0495 31.2829 46.1037 31.7278 46.4377 32.1251C46.76 32.3802 47.033 32.4182 47.4414 32.4029C47.7704 32.3531 48.0016 32.2176 48.209 31.9576C48.7833 31.0378 48.4897 29.2452 48.2663 28.2259C47.9088 26.9143 47.0803 25.8798 45.9184 25.1898C44.7086 24.5402 43.3386 24.411 42.0119 24.7481C40.8108 25.1124 39.7787 25.9235 39.1511 27.0142C38.5136 28.2646 38.4134 29.6448 38.7971 30.9884C39.0139 31.6291 39.3147 32.1719 39.7502 32.6876C39.7922 32.743 39.7922 32.743 39.8349 32.7996C40.5187 33.6758 41.6661 34.2231 42.7502 34.3751C43.3322 34.4351 43.916 34.4689 44.5002 34.5001C44.5002 34.8301 44.5002 35.1601 44.5002 35.5001C42.5553 35.5459 40.878 35.3433 39.3926 33.9491C38.2259 32.8279 37.5159 31.4128 37.473 29.7867C37.4584 28.9804 37.4666 28.2024 37.7502 27.4376C37.7736 27.3718 37.7969 27.3059 37.821 27.2381C38.3734 25.806 39.4239 24.6594 40.8127 24.0001C40.9829 23.925 41.1546 23.8555 41.3283 23.7891C41.3674 23.7742 41.4065 23.7593 41.4467 23.7439C42.0834 23.5144 42.7056 23.4745 43.3791 23.4766ZM42.2617 28.2069C41.8882 28.7406 41.9518 29.5553 42.0195 30.1771C42.1156 30.6762 42.3992 31.0272 42.8127 31.3126C43.1885 31.4955 43.6172 31.5064 44.0197 31.399C44.4124 31.2257 44.7016 30.8997 44.8987 30.5235C45.085 29.8153 45.119 28.8981 44.7697 28.2384C44.4704 27.8743 44.1671 27.5981 43.6845 27.5394C43.0247 27.5259 42.6712 27.6931 42.2617 28.2069Z" fill="#7B55D3"/>
<path d="M44.5 40.5C44.83 40.5 45.16 40.5 45.5 40.5C45.5 42.15 45.5 43.8 45.5 45.5C45.17 45.5 44.84 45.5 44.5 45.5C44.5 43.85 44.5 42.2 44.5 40.5Z" fill="#65C7C3"/>
<path d="M44.5 46.5C44.83 46.5 45.16 46.5 45.5 46.5C45.5 46.83 45.5 47.16 45.5 47.5C45.17 47.5 44.84 47.5 44.5 47.5C44.5 47.17 44.5 46.84 44.5 46.5Z" fill="#65C7C3"/>
<path d="M30.5 35.5C30.83 35.5 31.16 35.5 31.5 35.5C31.5 35.83 31.5 36.16 31.5 36.5C31.17 36.5 30.84 36.5 30.5 36.5C30.5 36.17 30.5 35.84 30.5 35.5Z" fill="#65C7C3"/>
<path d="M28.5 35.5C28.83 35.5 29.16 35.5 29.5 35.5C29.5 35.83 29.5 36.16 29.5 36.5C29.17 36.5 28.84 36.5 28.5 36.5C28.5 36.17 28.5 35.84 28.5 35.5Z" fill="#65C7C3"/>
<path d="M26.5 35.5C26.83 35.5 27.16 35.5 27.5 35.5C27.5 35.83 27.5 36.16 27.5 36.5C27.17 36.5 26.84 36.5 26.5 36.5C26.5 36.17 26.5 35.84 26.5 35.5Z" fill="#65C7C3"/>
</g>
</g>
<defs>
<filter id="filter0_d_1_130168" x="0" y="0" width="74" height="74" filterUnits="userSpaceOnUse" color-interpolation-filters="sRGB">
<feFlood flood-opacity="0" result="BackgroundImageFix"/>
<feColorMatrix in="SourceAlpha" type="matrix" values="0 0 0 0 0 0 0 0 0 0 0 0 0 0 0 0 0 0 127 0" result="hardAlpha"/>
<feOffset dy="1"/>
<feGaussianBlur stdDeviation="0.5"/>
<feComposite in2="hardAlpha" operator="out"/>
<feColorMatrix type="matrix" values="0 0 0 0 0 0 0 0 0 0 0 0 0 0 0 0 0 0 0.04 0"/>
<feBlend mode="normal" in2="BackgroundImageFix" result="effect1_dropShadow_1_130168"/>
<feBlend mode="normal" in="SourceGraphic" in2="effect1_dropShadow_1_130168" result="shape"/>
</filter>
<clipPath id="clip0_1_130168">
<rect width="32" height="32" fill="white" transform="translate(21 20)"/>
</clipPath>
</defs>
</svg>
