<svg width="284" height="281" viewBox="0 0 284 281" fill="none" xmlns="http://www.w3.org/2000/svg">
<path d="M182.028 33.8847L203.678 26.3497C205.255 30.8756 205.376 35.7821 204.021 40.3799C202.667 44.9777 199.906 49.0357 196.127 51.9839C192.348 54.932 187.741 56.6223 182.951 56.8172C178.162 57.012 173.433 55.7017 169.426 53.0703C165.42 50.4389 162.339 46.6185 160.616 42.146C158.893 37.6735 158.614 32.7734 159.818 28.1342C161.023 23.495 163.651 19.3498 167.332 16.2808C171.014 13.2118 175.565 11.3733 180.345 11.0234L182.028 33.8847Z" fill="#F5F5F5"/>
<path d="M185.096 10.2109L185.591 27.9828L201.959 21.6532C201.959 21.6532 197.668 12.4353 185.096 10.2109Z" fill="#EBEBEB"/>
<path d="M29.6852 223.272V205.844C33.1165 205.843 36.4716 206.856 39.3302 208.754C42.1888 210.652 44.4237 213.351 45.755 216.514C47.0863 219.676 47.4547 223.162 46.8142 226.533C46.1736 229.904 44.5525 233.011 42.154 235.464C39.7555 237.918 36.6862 239.61 33.3306 240.327C29.9751 241.044 26.4825 240.755 23.2904 239.496C20.0983 238.238 17.3487 236.065 15.386 233.25C13.4233 230.436 12.3348 227.104 12.2568 223.674L29.6852 223.272Z" fill="#F5F5F5"/>
<path d="M25.4342 218.579L8 218.975C7.9984 214.316 9.76293 209.83 12.9379 206.42C16.1914 203.17 20.569 201.294 25.1663 201.18L25.4342 218.579Z" fill="#F5F5F5"/>
<path d="M248.992 233.299C251.087 232.315 253.443 232.029 255.712 232.484C256.935 232.682 258.204 233.066 259.037 233.963C259.87 234.86 260.021 236.496 259.037 237.282C258.423 237.695 257.684 237.882 256.947 237.812C255.171 237.812 253.197 237.48 251.776 238.546C250.966 239.157 250.431 240.17 249.447 240.473C248.961 240.585 248.453 240.536 247.998 240.333C247.543 240.13 247.167 239.785 246.925 239.349C246.458 238.452 246.356 237.409 246.64 236.438C246.763 235.768 247.04 235.137 247.448 234.592C247.856 234.048 248.385 233.605 248.992 233.299Z" fill="#EBEBEB"/>
<path d="M244.298 224.263C245.544 226.05 247.978 225.427 249.102 224.368C250.226 223.308 250.704 221.701 251.14 220.192C252.13 216.751 253.126 213.141 252.392 209.635C252.214 208.572 251.747 207.579 251.041 206.764C250.684 206.362 250.226 206.06 249.715 205.89C249.204 205.721 248.657 205.689 248.13 205.798C246.901 206.124 246.144 207.323 245.591 208.465C243.969 211.835 243.119 215.526 243.104 219.267C243.104 221.013 243.302 222.83 244.269 224.263" fill="#EBEBEB"/>
<path d="M240.839 226.822C241.481 225.983 241.908 225.001 242.084 223.96C242.261 222.919 242.181 221.851 241.853 220.847C241.167 218.841 239.942 217.062 238.312 215.706C236.46 214.061 234.307 212.791 231.971 211.967C231.066 211.603 230.092 211.438 229.118 211.484C228.633 211.519 228.164 211.672 227.751 211.928C227.338 212.185 226.994 212.538 226.748 212.957C226.078 214.232 226.719 215.776 227.412 217.033C228.632 219.254 230.024 221.377 231.575 223.38C232.827 224.988 234.254 226.577 236.158 227.299C238.062 228.021 240.036 227.946 241.043 226.624" fill="#EBEBEB"/>
<path d="M244.212 251.195C244.28 250.928 244.319 250.655 244.328 250.38C244.381 249.797 244.456 249.052 244.544 248.167C244.652 247.076 244.818 245.991 245.039 244.918C245.324 243.611 245.713 242.33 246.203 241.086C246.689 239.844 247.347 238.678 248.16 237.621C248.822 236.759 249.667 236.055 250.635 235.56C251.29 235.234 251.994 235.016 252.719 234.914C252.992 234.904 253.264 234.865 253.529 234.797C253.254 234.766 252.977 234.766 252.702 234.797C251.948 234.857 251.212 235.055 250.53 235.379C249.512 235.86 248.619 236.569 247.921 237.452C247.073 238.525 246.39 239.718 245.895 240.993C245.394 242.255 245.005 243.559 244.73 244.888C244.522 245.974 244.378 247.07 244.299 248.173C244.229 249.116 244.2 249.879 244.189 250.403C244.169 250.667 244.176 250.932 244.212 251.195Z" fill="#E0E0E0"/>
<path d="M244.363 249.488C244.381 249.365 244.381 249.239 244.363 249.116V248.038C244.363 247.101 244.363 245.75 244.41 244.079C244.491 240.742 244.777 237.149 245.336 232.083C245.86 227.32 246.564 221.771 247.31 218.166C247.473 217.351 247.63 216.612 247.781 215.965C247.933 215.319 248.049 214.76 248.171 214.306C248.294 213.851 248.358 213.537 248.422 213.263C248.457 213.142 248.479 213.017 248.486 212.891C248.43 213.002 248.387 213.119 248.358 213.24L248.043 214.276C247.904 214.719 247.764 215.278 247.601 215.919C247.438 216.559 247.251 217.299 247.077 218.12C246.166 222.376 245.481 226.677 245.027 231.006C244.445 236.084 244.218 240.707 244.194 244.055C244.194 245.727 244.194 247.083 244.253 248.015C244.282 248.452 244.305 248.807 244.322 249.092C244.321 249.226 244.335 249.358 244.363 249.488Z" fill="#E0E0E0"/>
<path d="M244.386 240.575C244.418 240.201 244.418 239.825 244.386 239.451C244.346 238.729 244.247 237.704 244.043 236.406C243.797 234.907 243.466 233.424 243.053 231.963C242.564 230.172 241.943 228.421 241.195 226.722C239.906 223.588 238.06 220.713 235.745 218.238C235.337 217.806 234.899 217.404 234.435 217.032C234.243 216.863 234.068 216.7 233.887 216.567L233.393 216.223C233.091 216.006 232.773 215.812 232.443 215.641C233.534 216.499 234.571 217.425 235.547 218.412C237.788 220.908 239.585 223.767 240.863 226.867C241.6 228.56 242.224 230.299 242.733 232.073C243.216 233.704 243.542 235.206 243.787 236.47C244.031 237.733 244.153 238.799 244.235 239.486C244.257 239.852 244.308 240.216 244.386 240.575Z" fill="#E0E0E0"/>
<path d="M235.769 256.305L236.665 268.545H252.387L253.278 256.305H235.769Z" fill="#E0E0E0"/>
<path d="M255.153 251.477H234.248V256.298H255.153V251.477Z" fill="#E0E0E0"/>
<path d="M234.248 268.07V269.41H235.232H254.809V268.07H234.248Z" fill="#EBEBEB"/>
<path d="M236.193 271.767L235.232 269.414H254.064L252.94 271.767H236.193Z" fill="#E0E0E0"/>
<path d="M252.986 260.302C252.986 260.302 252.986 260.343 252.916 260.412L252.678 260.727L251.763 261.891L251.723 261.944L251.682 261.891L249.434 258.776H249.574L247.361 261.915L247.291 262.014L247.21 261.921L244.584 258.794H244.735L244.589 258.974L242.26 261.921L242.179 262.02L242.109 261.915L239.89 258.776H240.018L237.293 261.891L237.241 261.944L237.206 261.88L236.35 260.447L236.129 260.063C236.102 260.021 236.08 259.976 236.064 259.929C236.064 259.929 236.099 259.964 236.158 260.051L236.396 260.418L237.293 261.827H237.212C237.91 261.006 238.819 259.935 239.896 258.677L239.966 258.596L240.024 258.683L242.26 261.804H242.109L244.438 258.852C244.485 258.788 244.537 258.73 244.584 258.671L244.659 258.578L244.735 258.665L247.355 261.798H247.21L249.446 258.677L249.51 258.59L249.574 258.677C250.459 259.947 251.216 261.006 251.775 261.827H251.699L252.648 260.663L252.905 260.366L252.986 260.302Z" fill="#F5F5F5"/>
<path d="M253.499 256.224C253.499 256.276 249.556 256.323 244.7 256.323C239.844 256.323 235.901 256.276 235.901 256.224C235.901 256.172 239.838 256.125 244.7 256.125C249.562 256.125 253.499 256.172 253.499 256.224Z" fill="#F5F5F5"/>
<path d="M254.291 269.544C254.291 269.597 250.011 269.643 244.729 269.643C239.448 269.643 235.168 269.597 235.168 269.544C235.168 269.492 239.448 269.445 244.729 269.445C250.011 269.445 254.291 269.492 254.291 269.544Z" fill="#F5F5F5"/>
<path d="M229.905 119.886C229.855 115.553 231.089 111.302 233.453 107.67C235.817 104.039 239.204 101.188 243.186 99.4798C247.168 97.7712 251.568 97.2807 255.828 98.0702C260.089 98.8597 264.021 100.894 267.126 103.916C270.232 106.938 272.373 110.812 273.278 115.05C274.184 119.288 273.814 123.699 272.214 127.726C270.615 131.754 267.858 135.217 264.292 137.679C260.726 140.141 256.511 141.491 252.178 141.56C246.352 141.633 240.735 139.392 236.56 135.329C232.384 131.265 229.991 125.712 229.905 119.886ZM262.31 119.362C262.266 117.292 261.61 115.281 260.424 113.583C259.239 111.886 257.577 110.577 255.648 109.823C253.72 109.069 251.611 108.903 249.589 109.346C247.566 109.789 245.72 110.821 244.283 112.312C242.846 113.803 241.883 115.686 241.516 117.724C241.148 119.762 241.393 121.863 242.218 123.762C243.043 125.661 244.412 127.273 246.153 128.395C247.893 129.517 249.927 130.098 251.997 130.065C254.784 130.011 257.435 128.854 259.368 126.847C261.302 124.841 262.36 122.148 262.31 119.362Z" fill="#F5F5F5"/>
<path d="M229.905 119.886C229.803 114.064 232.014 108.439 236.053 104.244C240.091 100.05 245.628 97.6271 251.45 97.5078L251.636 109.002C248.875 109.094 246.261 110.267 244.356 112.268C242.452 114.268 241.409 116.937 241.454 119.699C241.498 122.461 242.626 125.096 244.593 127.034C246.561 128.973 249.212 130.061 251.974 130.064L252.155 141.559C246.333 141.626 240.722 139.382 236.551 135.32C232.381 131.257 229.991 125.707 229.905 119.886Z" fill="#E0E0E0"/>
<path d="M249.504 95.742C252.837 95.6598 256.153 96.244 259.257 97.4604C262.361 98.6767 265.191 100.501 267.58 102.825C269.97 105.15 271.872 107.929 273.173 110.998C274.475 114.067 275.15 117.366 275.16 120.7L261.767 120.915C261.657 114.119 256.486 109.851 249.725 109.956L249.504 95.742Z" fill="#EBEBEB"/>
<path d="M23.7217 180.374L130.831 271.702H162.723L252.98 180.374C252.98 180.374 159.486 157.367 23.7217 180.374Z" fill="#7B55D3"/>
<path opacity="0.8" d="M23.7217 180.374L130.831 271.702H162.723L252.98 180.374C252.98 180.374 159.486 157.367 23.7217 180.374Z" fill="white"/>
<path d="M23.7217 35.125V180.701C23.7217 180.701 152.568 157.7 252.986 180.701V35.125C174.69 48.3608 98.3089 49.1876 23.7217 35.125Z" fill="white"/>
<path d="M23.7219 35.1241L27.996 35.8578L33.2367 36.7662C35.3155 37.1214 37.7263 37.5756 40.4514 37.9308L49.5645 39.2934C50.3972 39.4157 51.2532 39.5555 52.1266 39.6661L54.811 40.0038L60.506 40.7142C62.48 40.953 64.5238 41.2383 66.6434 41.4654L73.2118 42.1292L80.1995 42.828L87.6064 43.4103C90.1452 43.5908 92.7423 43.8354 95.4092 43.9926L103.614 44.4352L107.853 44.6623C109.285 44.7321 110.73 44.7554 112.191 44.8078L121.141 45.0815C133.317 45.2737 146.46 45.3319 160.418 44.7147C188.368 43.6956 219.58 40.557 252.963 34.9844H253.126V35.1474C253.126 79.8974 253.126 129.09 253.126 180.723V180.91L252.94 180.875C242.295 178.47 231.639 176.624 221.064 175.168C210.49 173.712 199.985 172.711 189.62 172C184.432 171.61 179.278 171.418 174.16 171.15L166.514 170.9C163.975 170.807 161.448 170.801 158.944 170.743C148.87 170.603 138.965 170.644 129.247 170.935C119.528 171.226 110.031 171.657 100.714 172.239C91.3971 172.821 82.3598 173.584 73.5321 174.434C64.7044 175.285 56.1329 176.251 47.8234 177.346C39.5139 178.441 31.4665 179.553 23.7335 180.875H23.5938V180.729C23.6694 91.7357 23.716 36.1373 23.716 35.1532C23.716 36.1257 23.7626 91.724 23.8325 180.729L23.6927 180.613C31.4374 179.285 39.479 178.138 47.7885 177.061C56.0979 175.983 64.6752 175.023 73.5088 174.149C82.3423 173.276 91.403 172.554 100.697 171.948C109.99 171.342 119.511 170.911 129.229 170.632C138.948 170.352 148.853 170.294 158.927 170.434C161.448 170.486 163.975 170.498 166.497 170.585L174.142 170.842C179.261 171.086 184.42 171.296 189.608 171.686C199.985 172.396 210.501 173.375 221.082 174.848C231.662 176.321 242.33 178.155 252.986 180.566L252.8 180.712C252.8 129.09 252.8 79.8974 252.8 35.1358L252.963 35.2755C219.568 40.8423 188.327 43.9635 160.377 44.9651C146.402 45.5765 133.265 45.5066 121.089 45.3028L112.133 45.0233C110.671 44.9709 109.221 44.9418 107.795 44.8719L103.55 44.639L95.3452 44.1906C92.6782 44.0392 90.1044 43.7946 87.5423 43.6083L80.1354 43.026L73.1478 42.3156L66.5736 41.6401C64.454 41.4072 62.4101 41.1219 60.4419 40.8831L54.7412 40.1611L52.0567 39.8175C51.1833 39.701 50.3098 39.5613 49.4946 39.439L40.4398 38.0415C37.703 37.6571 35.3155 37.1971 33.2425 36.8361L28.0018 35.8986L23.7219 35.1241Z" fill="#7B55D3"/>
<path d="M239.675 56.5668C239.675 56.5319 196.613 64.1367 143.012 64.2299C89.3822 64.556 46.2219 57.2423 46.251 57.2423C46.2161 57.0326 89.3706 64.2765 143.018 63.9562C196.584 63.8805 239.675 56.3572 239.675 56.5668Z" fill="#E0E0E0"/>
<path d="M239.092 66.6292C239.092 66.6292 196.287 72.7783 142.977 72.8424C89.6552 73.1102 46.7511 67.1999 46.7744 67.2115C46.7395 67.0252 89.6494 72.854 142.977 72.5862C196.269 72.5105 239.092 66.4429 239.092 66.6292Z" fill="#E0E0E0"/>
<path d="M238.511 76.6917C238.511 76.6917 195.95 81.3967 142.955 81.455C89.9653 81.6646 47.2883 77.175 47.3174 77.1634C47.2767 77.0003 89.9362 81.4084 142.955 81.1988C195.933 81.1347 238.511 76.5287 238.511 76.6917Z" fill="#E0E0E0"/>
<path d="M237.893 86.7561C237.893 86.791 195.583 90.0228 142.902 90.0694C90.2033 90.2208 47.7941 87.1579 47.8233 87.1171C47.7883 86.9774 90.1916 89.9646 142.902 89.8132C195.594 89.7608 237.928 86.593 237.893 86.7561Z" fill="#E0E0E0"/>
<path d="M237.311 96.8184C237.311 96.8825 195.251 98.6469 142.879 98.6818C90.5065 98.7167 48.3361 97.1271 48.3594 97.0746C48.3827 97.0222 90.4832 98.5246 142.879 98.4314C195.275 98.3382 237.346 96.702 237.311 96.8184Z" fill="#E0E0E0"/>
<path d="M236.722 106.883C236.722 106.971 194.913 107.274 142.855 107.297C90.7971 107.32 48.8712 107.105 48.8945 107.023C48.9178 106.942 90.768 107.076 142.855 107.023C194.942 106.971 236.763 106.796 236.722 106.883Z" fill="#E0E0E0"/>
<path d="M236.14 116.947C236.14 117.052 194.581 115.893 142.832 115.905C91.0829 115.917 49.4074 117.07 49.4365 116.971C49.4657 116.872 91.0538 115.625 142.832 115.649C194.611 115.672 236.181 116.872 236.14 116.947Z" fill="#E0E0E0"/>
<path d="M235.552 127.008C235.552 127.142 194.243 124.51 142.808 124.516C91.3735 124.522 49.9484 127.043 49.9717 126.915C49.9368 126.874 91.3152 124.173 142.808 124.26C194.255 124.248 235.598 126.968 235.552 127.008Z" fill="#E0E0E0"/>
<path d="M234.97 137.077C234.97 137.234 193.906 133.141 142.78 133.135C91.6359 132.995 50.4845 137.025 50.5078 136.873C50.4729 136.873 91.6301 132.733 142.78 132.879C193.917 132.879 235.016 137.06 234.97 137.077Z" fill="#E0E0E0"/>
<path d="M234.381 147.152C234.381 147.332 193.573 141.771 142.756 141.754C91.9265 141.556 51.0197 146.995 51.043 146.826C51.0081 146.826 91.9149 141.294 142.756 141.498C173.385 141.503 203.984 143.391 234.381 147.152Z" fill="#E0E0E0"/>
<path d="M233.793 157.201C233.793 157.41 193.236 150.382 142.733 150.353C92.2123 150.097 51.5617 156.962 51.585 156.758C51.55 156.758 92.2006 149.829 142.733 150.085C173.224 150.126 203.667 152.504 233.793 157.201Z" fill="#E0E0E0"/>
<path d="M237.019 101.789L236.303 101.404C235.62 100.999 234.907 100.645 234.172 100.344C231.305 99.1327 228.244 98.4425 225.134 98.3064C222.836 98.2163 220.534 98.3548 218.263 98.7198C215.541 99.1654 212.885 99.9478 210.356 101.049C209.668 101.334 209.016 101.707 208.329 102.033C207.642 102.359 207.007 102.808 206.332 103.198C205.656 103.588 205.039 104.089 204.393 104.555C203.764 105.05 203.18 105.6 202.646 106.197C200.55 108.613 199.018 111.548 197.58 114.617C196.142 117.685 194.826 120.964 193.405 124.33C192.003 127.855 190.341 131.271 188.432 134.549C187.403 136.287 186.115 137.858 184.612 139.207C183.8 139.912 182.874 140.475 181.875 140.873C181.357 141.053 180.856 141.28 180.315 141.42C179.781 141.588 179.238 141.728 178.69 141.839C176.434 142.326 174.119 142.477 171.819 142.288C169.462 142.096 167.143 141.577 164.93 140.745C162.711 139.918 160.659 138.697 158.874 137.14C158.656 136.959 158.45 136.765 158.257 136.558L157.675 135.923C157.331 135.469 156.947 135.038 156.638 134.566C155.989 133.637 155.406 132.665 154.891 131.655C152.842 127.643 151.543 123.322 150.268 118.949C148.992 114.576 147.845 110.086 146.291 105.632C145.522 103.369 144.588 101.166 143.496 99.0401C142.369 96.8033 140.841 94.7921 138.989 93.1064C136.846 91.412 134.314 90.2809 131.622 89.8164L131.11 89.7116L130.592 89.6417L129.555 89.502C128.856 89.4612 128.158 89.3797 127.465 89.3972C126.08 89.3776 124.696 89.4848 123.33 89.7174C122.001 89.9478 120.695 90.2986 119.429 90.7656C119.12 90.8879 118.847 91.0218 118.521 91.1499L118.066 91.3421L117.641 91.5633L116.785 92.0175L115.982 92.53C113.976 93.8845 112.303 95.6763 111.09 97.7707C108.697 101.812 107.841 106.301 106.531 110.581C105.912 112.729 105.073 114.807 104.027 116.783C102.943 118.785 101.488 120.563 99.7413 122.024C97.9356 123.535 95.8178 124.629 93.5397 125.226C91.253 125.809 88.8465 125.718 86.6103 124.964C84.5133 124.233 82.6167 123.02 81.0726 121.424C79.6256 119.919 78.4723 118.158 77.672 116.23C76.0765 112.485 75.5873 108.602 75.1331 104.933C74.6789 101.265 74.4635 97.695 74.1258 94.3176C73.8352 91.0757 73.353 87.8538 72.6816 84.6689C72.05 81.7484 71.1071 78.9041 69.8691 76.1847C67.674 71.5258 64.5351 67.3736 60.6513 63.9913C58.0849 61.7192 55.1406 59.914 51.9517 58.6574C51.4043 58.4594 50.9268 58.2672 50.5075 58.1275L49.4477 57.8363L48.5859 57.5859L49.4477 57.8072L50.5134 58.0867C50.9326 58.2206 51.4159 58.407 51.9691 58.605C55.1698 59.8487 58.1265 61.6464 60.7037 63.9156C64.6234 67.3018 67.7962 71.466 70.0205 76.1439C71.2717 78.869 72.2244 81.7214 72.8622 84.6514C73.5455 87.8412 74.0374 91.0691 74.3354 94.3176C74.6789 97.7008 74.9177 101.247 75.3602 104.921C75.8028 108.596 76.3152 112.456 77.8991 116.154C78.691 118.053 79.8283 119.788 81.2532 121.272C82.7705 122.846 84.635 124.043 86.6977 124.766C88.8805 125.507 91.2315 125.596 93.4641 125.022C95.6987 124.435 97.7751 123.359 99.5433 121.872C101.269 120.428 102.702 118.667 103.765 116.684C104.804 114.722 105.635 112.657 106.246 110.523C107.55 106.278 108.4 101.789 110.817 97.6775C112.045 95.5399 113.743 93.7098 115.784 92.3262L116.599 91.8079L117.472 91.3421L117.909 91.115L118.369 90.917L119.295 90.5268C121.904 89.569 124.668 89.0992 127.447 89.141C128.158 89.141 128.868 89.205 129.573 89.2458C129.928 89.2865 130.277 89.3389 130.632 89.3855L131.157 89.4612L131.681 89.566C134.427 90.0364 137.011 91.192 139.192 92.9259C141.074 94.6295 142.624 96.667 143.763 98.9353C144.858 101.071 145.796 103.284 146.57 105.556C148.125 110.028 149.284 114.512 150.541 118.891C151.799 123.27 153.109 127.573 155.142 131.556C155.657 132.552 156.241 133.511 156.889 134.427C157.197 134.898 157.576 135.323 157.913 135.766L158.496 136.389C158.677 136.595 158.872 136.79 159.078 136.971C160.835 138.5 162.853 139.701 165.035 140.518C167.224 141.349 169.52 141.868 171.854 142.061C174.126 142.246 176.414 142.097 178.643 141.618C180.798 141.129 182.917 140.419 184.466 139.05C185.953 137.711 187.227 136.154 188.246 134.433C190.157 131.174 191.823 127.777 193.23 124.271C194.657 120.917 195.979 117.645 197.423 114.564C198.867 111.484 200.416 108.549 202.541 106.109C203.075 105.506 203.66 104.949 204.288 104.444C204.94 103.974 205.592 103.52 206.245 103.081C206.926 102.691 207.578 102.272 208.259 101.917C208.941 101.561 209.61 101.218 210.303 100.933C212.848 99.8295 215.52 99.0471 218.257 98.6034C220.541 98.2423 222.854 98.1116 225.164 98.2132C228.282 98.3613 231.347 99.0714 234.213 100.31C234.945 100.617 235.654 100.979 236.332 101.393C236.763 101.643 237.019 101.789 237.019 101.789Z" fill="#455A64"/>
<path d="M173.921 143.382C173.91 143.69 173.838 143.993 173.709 144.273C173.58 144.552 173.397 144.804 173.17 145.013C172.943 145.221 172.677 145.382 172.387 145.487C172.097 145.592 171.789 145.639 171.482 145.624C170.853 145.603 170.258 145.337 169.823 144.883C169.388 144.43 169.148 143.824 169.152 143.196C169.163 142.887 169.235 142.584 169.363 142.303C169.492 142.023 169.675 141.771 169.902 141.561C170.129 141.352 170.395 141.19 170.686 141.085C170.976 140.98 171.284 140.933 171.592 140.948C172.222 140.966 172.82 141.232 173.256 141.687C173.692 142.143 173.931 142.752 173.921 143.382Z" fill="#455A64"/>
<path d="M129.462 89.275C129.461 89.5785 129.4 89.8788 129.282 90.1585C129.164 90.4381 128.992 90.6916 128.775 90.904C128.558 91.1164 128.302 91.2836 128.02 91.3958C127.738 91.508 127.436 91.563 127.133 91.5576C126.512 91.5547 125.917 91.3097 125.474 90.8746C125.032 90.4396 124.776 89.8489 124.763 89.2284C124.763 88.9247 124.823 88.624 124.941 88.344C125.058 88.064 125.231 87.8102 125.448 87.5977C125.665 87.3851 125.922 87.2179 126.204 87.106C126.486 86.9941 126.788 86.9396 127.092 86.9458C127.713 86.9472 128.309 87.1918 128.752 87.6271C129.195 88.0625 129.45 88.654 129.462 89.275Z" fill="#FFA95C"/>
<path d="M226.561 96.829C226.502 97.5462 226.18 98.2162 225.656 98.7097C225.133 99.2033 224.445 99.4854 223.725 99.5017C223.388 99.5241 223.051 99.4753 222.734 99.3585C222.417 99.2418 222.129 99.0597 221.887 98.824C221.646 98.5884 221.456 98.3045 221.331 97.9909C221.207 97.6773 221.149 97.3409 221.163 97.0037C221.223 96.2885 221.545 95.6207 222.068 95.1285C222.59 94.6363 223.276 94.3543 223.993 94.3367C224.331 94.3079 224.671 94.3519 224.991 94.4659C225.311 94.5799 225.602 94.7611 225.845 94.9974C226.089 95.2337 226.279 95.5195 226.402 95.8354C226.526 96.1514 226.58 96.4902 226.561 96.829Z" fill="#FFA95C"/>
<path d="M94.0348 124.91C94.0647 125.403 93.9469 125.893 93.6965 126.318C93.4461 126.744 93.0745 127.085 92.6292 127.298C92.1839 127.511 91.6853 127.586 91.1969 127.514C90.7086 127.442 90.2529 127.226 89.888 126.894C89.5232 126.561 89.2658 126.128 89.1488 125.648C89.0318 125.168 89.0606 124.665 89.2313 124.202C89.4021 123.739 89.7072 123.337 90.1075 123.048C90.5078 122.76 90.9852 122.597 91.4785 122.581C92.1263 122.551 92.7596 122.779 93.239 123.216C93.7184 123.653 94.0046 124.262 94.0348 124.91Z" fill="#FFA95C"/>
<path d="M39.7938 56.3153C39.1095 56.3569 38.4229 56.298 37.7557 56.1406C37.0519 56.0766 36.3602 55.916 35.7002 55.6631C36.3845 55.618 37.0716 55.6769 37.7383 55.8378C38.4421 55.9018 39.1338 56.0625 39.7938 56.3153Z" fill="#7B55D3"/>
<path d="M40.3691 66.4339C39.6923 66.5049 39.0086 66.4695 38.3427 66.3291C37.6449 66.2875 36.9567 66.1463 36.2988 65.9098C36.9764 65.8502 37.659 65.8894 38.3252 66.0263C39.0216 66.0707 39.709 66.2078 40.3691 66.4339Z" fill="#7B55D3"/>
<path d="M40.9464 76.577C40.2763 76.662 39.5972 76.6463 38.9317 76.5304C38.2405 76.5122 37.5558 76.3925 36.8994 76.1752C37.5699 76.0938 38.2488 76.1115 38.9142 76.2276C39.6047 76.2473 40.289 76.3649 40.9464 76.577Z" fill="#7B55D3"/>
<path d="M41.5169 86.7153C40.8533 86.8199 40.1774 86.8199 39.5138 86.7153C38.8299 86.7188 38.1493 86.6226 37.4932 86.43C38.1568 86.3254 38.8327 86.3254 39.4963 86.43C40.1799 86.4299 40.8601 86.526 41.5169 86.7153Z" fill="#7B55D3"/>
<path d="M42.0932 96.8639C41.4369 96.9883 40.7656 97.0139 40.1017 96.9396C39.4248 96.9653 38.7479 96.8907 38.0928 96.7183C38.7482 96.5867 39.4203 96.5591 40.0842 96.6368C40.7615 96.6113 41.4387 96.6879 42.0932 96.8639Z" fill="#7B55D3"/>
<path d="M42.6705 106.975C42.0212 107.12 41.3542 107.169 40.6907 107.12C40.0205 107.168 39.347 107.113 38.6934 106.957C39.3415 106.804 40.0097 106.755 40.6732 106.812C41.3434 106.765 42.0168 106.82 42.6705 106.975Z" fill="#7B55D3"/>
<path d="M43.241 117.132C42.5989 117.299 41.9356 117.37 41.2728 117.342C40.6117 117.411 39.9439 117.377 39.293 117.243C39.9325 117.072 40.5943 117.002 41.2553 117.033C41.9185 116.967 42.5877 117 43.241 117.132Z" fill="#7B55D3"/>
<path d="M43.8173 127.272C43.1822 127.459 42.5226 127.549 41.8607 127.54C41.2068 127.644 40.5406 127.644 39.8867 127.54C40.5205 127.347 41.1808 127.255 41.8433 127.266C42.4979 127.17 43.1633 127.172 43.8173 127.272Z" fill="#7B55D3"/>
<path d="M44.3936 137.412C43.7654 137.619 43.1099 137.73 42.4487 137.744C41.8002 137.856 41.1384 137.868 40.4863 137.779C41.1128 137.564 41.7692 137.45 42.4312 137.441C43.0801 137.332 43.7417 137.323 44.3936 137.412Z" fill="#7B55D3"/>
<path d="M44.9641 147.551C44.3452 147.779 43.6954 147.912 43.0367 147.947C42.3954 148.08 41.7374 148.113 41.0859 148.046C41.705 147.81 42.3576 147.675 43.0192 147.644C43.6589 147.514 44.3148 147.482 44.9641 147.551Z" fill="#7B55D3"/>
<path d="M45.5404 157.69C44.9252 157.935 44.2781 158.09 43.6188 158.15C42.9861 158.301 42.3345 158.356 41.6855 158.313C42.2956 158.058 42.9422 157.901 43.6013 157.847C44.2354 157.693 44.8898 157.64 45.5404 157.69Z" fill="#7B55D3"/>
<path d="M161.367 62.5078H123.086V74.1946H125.898V78.9637L130.947 74.1946H161.367V62.5078Z" fill="white"/>
<path d="M161.366 62.5108C161.366 62.5108 161.366 62.5748 161.366 62.7029C161.366 62.831 161.366 63.0407 161.366 63.2852C161.366 63.8151 161.366 64.5838 161.366 65.5737C161.366 67.5943 161.395 70.5233 161.419 74.1918V74.2849H161.326L130.906 74.3374L131.005 74.2966L125.962 79.0657L125.706 79.3102V74.1918L125.857 74.3432H122.894V74.1918C122.894 70.1157 122.894 66.1968 122.894 62.505V62.3594H123.039L150.541 62.4293L158.49 62.47H160.598H161.139H161.32H161.122H160.539H158.397L150.419 62.5108L123.016 62.5748L123.161 62.4293C123.161 66.1211 123.161 70.0458 123.161 74.1161L123.01 73.9647H125.974V78.8851L125.718 78.7745L130.766 74.0054L130.807 73.9647H130.871L161.291 74.0171L161.192 74.1161C161.192 70.4709 161.232 67.5652 161.244 65.5504C161.244 64.5547 161.244 63.8035 161.244 63.2212C161.244 62.965 161.244 62.767 161.244 62.6389C161.281 62.5923 161.321 62.5494 161.366 62.5108Z" fill="#7B55D3"/>
<path d="M156.639 67.1358C156.639 67.2173 150.193 67.2872 142.244 67.2872C134.296 67.2872 127.85 67.2173 127.85 67.1358C127.85 67.0543 134.296 66.9844 142.244 66.9844C150.193 66.9844 156.639 67.0484 156.639 67.1358Z" fill="#7B55D3"/>
<path d="M156.638 70.292C156.638 70.3735 150.192 70.4434 142.243 70.4434C134.295 70.4434 127.872 70.3677 127.872 70.292C127.872 70.2163 134.318 70.1406 142.267 70.1406C150.215 70.1406 156.638 70.2047 156.638 70.292Z" fill="#7B55D3"/>
<path d="M204.114 78.6641V90.3509H206.927H211.975H242.395V78.6641H204.114Z" fill="white"/>
<path d="M204.114 78.6653H204.294H204.836H206.967L214.956 78.6246L242.394 78.5547H242.54V78.7061C242.54 82.4154 242.54 86.3401 242.54 90.3813C242.237 90.6899 242.447 90.4686 242.377 90.5385H231.15H220.826L204.114 90.5036H204.015V90.4104C204.015 86.7302 204.055 83.8012 204.067 81.7806C204.067 80.7966 204.067 80.0337 204.067 79.498V78.9157C204.062 78.8518 204.062 78.7875 204.067 78.7236C204.067 78.7236 204.067 78.7993 204.067 78.9332V79.5155C204.067 80.057 204.067 80.8257 204.067 81.8447C204.067 83.8536 204.096 86.7593 204.119 90.4162L204.026 90.3172L220.738 90.2765H242.284C242.22 90.3405 242.447 90.1251 242.144 90.422V78.6711L242.295 78.8167L214.962 78.7468L207.066 78.7061H204.906H204.323C204.252 78.7025 204.181 78.6888 204.114 78.6653Z" fill="#7B55D3"/>
<path d="M237.666 83.2842C237.666 83.3657 231.22 83.4356 223.271 83.4356C215.323 83.4356 208.877 83.3657 208.877 83.2842C208.877 83.2027 215.323 83.1328 223.271 83.1328C231.22 83.1328 237.666 83.2027 237.666 83.2842Z" fill="#7B55D3"/>
<path d="M237.666 86.4405C237.666 86.5278 231.22 86.5919 223.271 86.5919C215.323 86.5919 208.877 86.5278 208.877 86.4405C208.877 86.3531 215.323 86.2891 223.271 86.2891C231.22 86.2891 237.666 86.3589 237.666 86.4405Z" fill="#7B55D3"/>
<path d="M266.63 271.769C266.63 271.856 209.221 271.92 138.418 271.92C67.6162 271.92 10.1953 271.856 10.1953 271.769C10.1953 271.681 67.5929 271.617 138.418 271.617C209.244 271.617 266.63 271.681 266.63 271.769Z" fill="#263238"/>
<path d="M79.3962 240.354C79.8213 238.869 80.7355 237.442 82.1505 236.819C83.5655 236.196 85.3357 236.539 86.8439 237.081C88.352 237.623 89.8369 238.356 91.4441 238.449C93.0512 238.543 94.8506 237.78 95.328 236.248C95.8055 234.717 94.903 233.273 93.8141 232.23C92.6634 231.126 91.2529 230.329 89.713 229.914C88.173 229.498 86.5531 229.477 85.003 229.854C83.4529 230.23 82.0226 230.99 80.8442 232.065C79.6658 233.14 78.7773 234.495 78.2607 236.004" fill="#29CC99"/>
<g opacity="0.5">
<path d="M79.3953 240.354C79.8203 238.869 80.7345 237.442 82.1495 236.819C83.5645 236.196 85.3347 236.539 86.8429 237.081C88.3511 237.623 89.836 238.356 91.4431 238.449C93.0503 238.543 94.8496 237.78 95.3271 236.248C95.8046 234.717 94.902 233.273 93.8131 232.23C92.6624 231.126 91.252 230.329 89.712 229.914C88.172 229.498 86.5521 229.477 85.002 229.854C83.452 230.23 82.0216 230.99 80.8432 232.065C79.6648 233.14 78.7763 234.495 78.2598 236.004" fill="black"/>
</g>
<path d="M66.7317 246.83C64.4025 244.599 64.484 240.71 65.6486 237.687C66.8132 234.665 69.3695 232.33 72.2228 230.793C75.0111 229.32 78.0969 228.498 81.2485 228.388C84.4 228.278 87.5356 228.883 90.4198 230.158C89.007 230.22 87.631 230.627 86.4126 231.345C85.1942 232.063 84.1708 233.069 83.4321 234.275C82.1453 236.418 81.8658 239.021 80.806 241.263C79.6117 243.814 77.4857 245.811 74.8648 246.843C72.2439 247.875 69.3273 247.864 66.7142 246.812" fill="#29CC99"/>
<path d="M65.567 233.409C62.9583 230.341 62.5973 225.409 62.9758 221.397C63.3543 217.384 64.2685 213.349 63.6221 209.372C63.2436 207.014 62.3236 204.766 62.0091 202.384C61.6947 200.003 62.1256 197.342 63.954 195.81C66.062 194.063 69.3811 194.459 71.5764 196.101C73.7717 197.743 75.0702 200.329 75.9786 202.908C78.0341 208.574 78.7969 214.857 77.1432 220.651C75.4895 226.445 71.5647 231.628 65.7999 233.386" fill="#29CC99"/>
<path d="M64.3611 258.625C64.3523 258.508 64.3523 258.392 64.3611 258.275C64.3611 258.042 64.3611 257.693 64.3611 257.256C64.396 256.377 64.4775 255.102 64.6697 253.535C64.8967 251.7 65.2252 249.878 65.6538 248.079C66.1896 245.873 67.0221 243.75 68.1286 241.767C69.2443 239.782 70.6146 237.952 72.2047 236.322C73.4897 234.987 74.9149 233.794 76.4555 232.765C77.1077 232.316 77.7307 231.973 78.2723 231.652C78.8138 231.332 79.3146 231.122 79.7106 230.93L80.6481 230.534C80.7543 230.486 80.8631 230.443 80.9742 230.406C80.8758 230.474 80.7704 230.531 80.6597 230.575L79.7455 231.006C79.3554 231.21 78.8779 231.46 78.3305 231.757C77.7831 232.054 77.1659 232.438 76.5428 232.893C75.0236 233.932 73.6165 235.126 72.3444 236.456C70.7873 238.086 69.4414 239.906 68.3382 241.872C65.9566 246.064 65.3102 250.467 64.8444 253.553C64.6289 255.113 64.5241 256.383 64.4717 257.262C64.4717 257.687 64.4251 258.025 64.4135 258.275C64.4037 258.393 64.3862 258.509 64.3611 258.625Z" fill="#263238"/>
<path d="M41.814 221.336C37.0042 224.247 37.0275 226.903 37.8369 229.395C38.6463 231.887 41.6102 233.617 44.0559 232.679C45.4418 232.143 46.4433 230.932 47.2935 229.727C48.1437 228.522 48.9531 227.217 50.1526 226.344C51.3522 225.47 53.0641 225.138 54.2986 225.994" fill="#29CC99"/>
<g opacity="0.5">
<path d="M41.814 221.336C37.0042 224.247 37.0275 226.903 37.8369 229.395C38.6463 231.887 41.6102 233.617 44.0559 232.679C45.4418 232.143 46.4433 230.932 47.2935 229.727C48.1437 228.522 48.9531 227.217 50.1526 226.344C51.3522 225.47 53.0641 225.138 54.2986 225.994" fill="black"/>
</g>
<path d="M38.1982 224.537C39.456 222.79 42.5655 222.283 44.5337 223.145C46.5019 224.007 47.9402 225.731 49.2329 227.443C50.5256 229.155 51.7834 230.971 53.571 232.165C55.3587 233.359 57.851 233.784 59.627 232.573C60.1934 232.15 60.6674 231.615 61.0199 231.002C61.3724 230.39 61.5959 229.711 61.6767 229.009C61.8302 227.603 61.7316 226.182 61.3856 224.811C60.9547 222.79 60.2559 220.682 58.6371 219.401C56.8319 217.974 54.328 217.91 52.0279 217.992C49.3901 218.085 46.7173 218.289 44.2425 219.209C41.7678 220.129 39.2464 222.12 38.1982 224.537Z" fill="#29CC99"/>
<path d="M60.3252 254.776C60.3205 254.739 60.3205 254.702 60.3252 254.665C60.3252 254.584 60.3252 254.485 60.3252 254.356C60.3252 254.065 60.3252 253.669 60.2786 253.163C60.2786 252.103 60.2029 250.606 60.1447 248.766C60.0864 246.926 59.9991 244.69 59.8593 242.25C59.7196 239.81 59.5274 237.103 59.1489 234.302C58.9871 232.937 58.7164 231.588 58.3395 230.267C57.9557 229.047 57.4585 227.865 56.8546 226.738C56.3179 225.714 55.6924 224.74 54.9854 223.826C54.367 223.029 53.6854 222.284 52.9474 221.596C51.8707 220.608 50.6542 219.784 49.3371 219.15C49.0984 219.04 48.8946 218.935 48.714 218.859L48.2424 218.679L47.9512 218.562C47.8872 218.562 47.8522 218.521 47.8581 218.516L47.957 218.545L48.254 218.638L48.7373 218.801C48.9237 218.871 49.1333 218.97 49.372 219.075C50.716 219.683 51.9575 220.496 53.0522 221.485C53.8018 222.172 54.495 222.918 55.1252 223.716C55.843 224.629 56.4801 225.603 57.0293 226.627C57.644 227.763 58.1509 228.954 58.5433 230.185C58.9261 231.519 59.2007 232.883 59.3644 234.261C59.7429 237.074 59.9467 239.776 60.0573 242.227C60.1679 244.679 60.2495 246.885 60.296 248.749C60.3426 250.612 60.3543 252.109 60.3659 253.145V254.653C60.3584 254.696 60.3446 254.737 60.3252 254.776Z" fill="#263238"/>
<path d="M62.0732 256.949C61.8412 256.275 61.6621 255.584 61.5375 254.882C61.1965 252.961 61.1182 251.002 61.3046 249.059C61.5909 246.187 62.2003 243.357 63.1214 240.621C64.0997 237.518 65.4506 234.216 66.5744 230.635C67.6692 227.291 68.3535 223.826 68.6125 220.317C68.8236 217.451 68.8683 214.575 68.7464 211.704C68.6591 209.253 68.5193 207.267 68.4378 205.881C68.397 205.206 68.3621 204.676 68.3388 204.303C68.3388 204.128 68.3388 203.995 68.3388 203.89C68.3311 203.843 68.3311 203.796 68.3388 203.75C68.3413 203.797 68.3413 203.843 68.3388 203.89C68.3388 203.995 68.3388 204.128 68.3796 204.297C68.3796 204.67 68.4553 205.2 68.5135 205.875C68.6241 207.244 68.7814 209.224 68.892 211.698C69.0373 214.576 69.0082 217.46 68.8047 220.334C68.6759 222.032 68.4543 223.721 68.1408 225.394C67.7914 227.188 67.3345 228.96 66.7724 230.699C65.6078 234.28 64.2918 237.593 63.2786 240.68C62.3759 243.406 61.7764 246.224 61.4909 249.082C61.295 251.009 61.3498 252.952 61.654 254.865C61.7763 255.54 61.8869 256.064 61.9801 256.408L62.0791 256.809C62.0808 256.856 62.0789 256.903 62.0732 256.949Z" fill="#263238"/>
<path d="M74.0333 259.098L51.4166 259.15L50.8926 254.8L74.0275 254.742L74.0333 259.098Z" fill="#455A64"/>
<path d="M53.8447 258.656L56.7038 271.705L68.9904 271.676L71.605 258.609L53.8447 258.656Z" fill="#455A64"/>
<path d="M74.0333 259.101C74.0333 259.159 69.0604 259.206 62.9287 259.2C56.7971 259.194 51.8242 259.147 51.8242 259.089C51.8242 259.031 56.7971 258.984 62.9287 258.984C69.0604 258.984 74.0333 259.037 74.0333 259.101Z" fill="#455A64"/>
<path d="M70.1675 265.551C69.5525 265.093 68.8837 264.712 68.176 264.416C67.403 264.114 66.5831 263.951 65.7536 263.932C64.7351 263.941 63.7259 264.128 62.7722 264.486C61.7474 264.841 60.7808 265.248 59.8607 265.476C59.0284 265.657 58.1699 265.685 57.3277 265.557C56.7614 265.478 56.2122 265.305 55.7031 265.045C55.5636 264.974 55.4311 264.89 55.3071 264.794C55.2217 264.732 55.1809 264.697 55.1848 264.689C55.1848 264.689 55.377 264.8 55.7671 264.969C56.2801 265.194 56.8237 265.341 57.3801 265.406C58.2043 265.507 59.0398 265.463 59.8491 265.278C60.7516 265.05 61.7124 264.637 62.7606 264.282C63.7338 263.915 64.766 263.729 65.806 263.734C66.659 263.762 67.4998 263.946 68.2866 264.276C68.814 264.494 69.3095 264.782 69.7599 265.132C69.8852 265.225 70.0039 265.326 70.1151 265.435C70.1384 265.505 70.1733 265.545 70.1675 265.551Z" fill="#263238"/>
<path d="M69.9979 266.426C69.4031 265.982 68.7605 265.605 68.0821 265.303C67.3416 265.003 66.5518 264.843 65.7529 264.831C64.759 264.831 63.773 265.009 62.8414 265.355C61.8457 265.687 60.914 266.077 60.0231 266.322C59.2331 266.55 58.4103 266.645 57.589 266.601C57.0338 266.57 56.4908 266.425 55.9935 266.176C55.859 266.107 55.7305 266.027 55.6092 265.937C55.5277 265.873 55.4869 265.838 55.4927 265.833C55.4986 265.827 55.6791 265.943 56.0285 266.1C56.525 266.311 57.0558 266.43 57.5948 266.45C58.3987 266.469 59.2005 266.361 59.9706 266.13C60.8441 265.879 61.77 265.489 62.7773 265.151C63.7222 264.802 64.7224 264.627 65.7296 264.633C67.1129 264.67 68.4469 265.154 69.5321 266.013C69.6508 266.105 69.7636 266.204 69.8698 266.31C69.9688 266.38 70.0037 266.421 69.9979 266.426Z" fill="white"/>
<path d="M70.3942 264.683C69.7572 264.209 69.0698 263.807 68.3445 263.483C67.5553 263.148 66.7142 262.951 65.8581 262.901C64.8092 262.881 63.7665 263.067 62.7893 263.448C61.7989 263.841 60.7858 264.173 59.7555 264.444C58.8904 264.593 58.0062 264.593 57.141 264.444C56.5564 264.357 55.9888 264.18 55.4581 263.92C55.3153 263.846 55.179 263.76 55.0505 263.664C54.9574 263.6 54.9166 263.565 54.9224 263.559C54.9282 263.553 55.1204 263.675 55.5047 263.844C56.0389 264.069 56.6011 264.22 57.1759 264.293C58.0231 264.416 58.885 264.399 59.7264 264.24C60.7443 263.955 61.7471 263.619 62.7311 263.233C63.734 262.842 64.8055 262.658 65.8814 262.691C67.3632 262.798 68.7808 263.339 69.9575 264.246C70.0834 264.342 70.2039 264.445 70.3185 264.555C70.3484 264.595 70.3737 264.638 70.3942 264.683Z" fill="white"/>
<path d="M74.2371 259.115C74.2371 259.174 69.1477 259.232 62.8705 259.249C56.5933 259.267 51.5098 259.249 51.5098 259.168C51.5098 259.086 56.5933 259.045 62.8705 259.034C69.1477 259.022 74.2371 259.051 74.2371 259.115Z" fill="#263238"/>
<path d="M159.322 253.012L160.12 271.756L170.24 271.529L169.483 252.75L159.322 253.012Z" fill="#7B55D3"/>
<path d="M165.088 270.936C165.175 270.936 165.018 266.825 164.738 261.765C164.459 256.705 164.156 252.611 164.086 252.617C164.016 252.623 164.156 256.722 164.436 261.783C164.715 266.843 165.006 270.936 165.088 270.936Z" fill="#263238"/>
<path d="M160.068 270.459L170.189 270.203L170.241 271.525L160.121 271.752L160.068 270.459Z" fill="#263238"/>
<path d="M170.002 265.521C169.931 265.375 169.836 265.241 169.723 265.125C169.436 264.789 169.118 264.481 168.773 264.205C168.267 263.783 167.699 263.44 167.091 263.186C166.342 262.856 165.526 262.707 164.709 262.749C163.969 262.78 163.243 262.965 162.579 263.291C161.914 263.618 161.325 264.08 160.848 264.648C160.565 264.989 160.331 265.37 160.155 265.777C160.08 265.922 160.033 266.08 160.016 266.243C160.308 265.732 160.641 265.245 161.011 264.787C161.97 263.737 163.306 263.109 164.726 263.04C166.145 263.023 167.527 263.489 168.645 264.362C169.519 265.026 169.961 265.562 170.002 265.521Z" fill="#263238"/>
<g opacity="0.3">
<path d="M169.698 258.094L169.78 260.155L159.636 260.341L159.566 258.787L169.698 258.094Z" fill="black"/>
</g>
<path opacity="0.3" d="M159.567 260.586L159.719 262.251H169.868L169.798 260.586H159.567Z" fill="black"/>
<path d="M136.024 253.88L136.921 265.264C136.921 265.264 125.694 269.759 125.659 271.879L147.723 271.186L147.053 253.391L136.024 253.88Z" fill="#7B55D3"/>
<path d="M143.554 264.057C143.771 264.113 143.96 264.248 144.085 264.435C144.209 264.621 144.261 264.848 144.229 265.07C144.181 265.289 144.052 265.481 143.866 265.607C143.681 265.732 143.454 265.782 143.234 265.745C143.004 265.686 142.804 265.544 142.673 265.346C142.542 265.148 142.488 264.909 142.523 264.674C142.598 264.451 142.756 264.266 142.965 264.157C143.173 264.049 143.416 264.025 143.641 264.092" fill="#E0E0E0"/>
<path d="M147.724 271.186L147.671 269.766L126.243 270.884C126.057 271.014 125.9 271.18 125.78 271.372C125.66 271.564 125.58 271.778 125.544 272.002L147.724 271.186Z" fill="#263238"/>
<path d="M136.7 265.363C136.7 265.474 137.282 265.497 137.807 265.823C138.331 266.149 138.663 266.598 138.756 266.551C138.849 266.504 138.668 265.881 137.993 265.497C137.317 265.113 136.671 265.247 136.7 265.363Z" fill="#263238"/>
<path d="M134.4 266.406C134.4 266.516 134.86 266.679 135.251 267.122C135.641 267.564 135.769 268.048 135.874 268.042C135.978 268.036 136.025 267.413 135.53 266.877C135.035 266.342 134.4 266.301 134.4 266.406Z" fill="#263238"/>
<path d="M133.194 269.265C133.293 269.265 133.421 268.73 133.118 268.147C132.815 267.565 132.291 267.35 132.251 267.443C132.21 267.536 132.536 267.839 132.78 268.322C133.025 268.805 133.112 269.26 133.194 269.265Z" fill="#263238"/>
<path d="M136.781 262.703C136.834 262.802 137.329 262.633 137.946 262.644C138.563 262.656 139.046 262.837 139.11 262.738C139.175 262.639 138.685 262.278 137.946 262.266C137.206 262.254 136.729 262.621 136.781 262.703Z" fill="#263238"/>
<path d="M136.28 260.267C136.65 260.355 137.038 260.337 137.398 260.215C137.802 260.129 138.193 259.992 138.563 259.807C138.779 259.697 138.989 259.575 139.192 259.441C139.313 259.364 139.423 259.269 139.518 259.161C139.581 259.077 139.615 258.975 139.615 258.87C139.615 258.765 139.581 258.663 139.518 258.579C139.459 258.506 139.384 258.448 139.299 258.409C139.215 258.37 139.122 258.35 139.029 258.352C138.888 258.358 138.749 258.384 138.615 258.427C138.378 258.494 138.148 258.584 137.928 258.695C137.559 258.883 137.221 259.126 136.927 259.417C136.432 259.918 136.274 260.332 136.309 260.349C136.344 260.366 136.601 260.035 137.107 259.615C137.406 259.382 137.733 259.186 138.08 259.033C138.285 258.942 138.497 258.868 138.714 258.812C138.947 258.736 139.145 258.73 139.209 258.812C139.273 258.893 139.209 258.87 139.209 258.94C139.14 259.019 139.059 259.087 138.971 259.144C138.469 259.498 137.918 259.774 137.334 259.965C136.976 260.04 136.624 260.142 136.28 260.267Z" fill="#263238"/>
<path d="M136.432 260.42C136.628 260.092 136.713 259.71 136.677 259.331C136.681 258.916 136.612 258.504 136.473 258.114C136.393 257.881 136.288 257.659 136.158 257.45C136.093 257.304 135.991 257.178 135.863 257.084C135.734 256.99 135.583 256.932 135.425 256.914C135.325 256.92 135.23 256.955 135.149 257.014C135.069 257.073 135.007 257.153 134.97 257.246C134.921 257.379 134.887 257.518 134.871 257.659C134.845 257.91 134.856 258.163 134.906 258.411C134.989 258.825 135.173 259.213 135.442 259.54C135.902 260.123 136.362 260.21 136.374 260.169C136.385 260.128 136.019 259.919 135.658 259.383C135.452 259.07 135.317 258.717 135.262 258.347C135.232 258.132 135.232 257.915 135.262 257.7C135.262 257.461 135.366 257.269 135.454 257.287C135.541 257.304 135.762 257.45 135.861 257.636C135.978 257.822 136.079 258.017 136.164 258.218C136.304 258.573 136.392 258.945 136.426 259.325C136.467 259.994 136.368 260.408 136.432 260.42Z" fill="#263238"/>
<g opacity="0.3">
<path d="M147.339 260.211L147.408 262.738L136.729 263.117L136.647 260.822L147.339 260.211Z" fill="black"/>
</g>
<path d="M145.167 107.955L158.14 107.792L156.696 96.7287C156.696 96.7287 157.581 96.5365 157.64 91.7325C157.698 86.9285 157.919 78.7588 157.919 78.7588C155.187 77.5827 152.19 77.1579 149.238 77.5285C146.287 77.8991 143.488 79.0516 141.131 80.8667L140.421 81.4141L145.167 107.955Z" fill="#FFBE9D"/>
<path d="M141.924 87.3406C141.842 87.2998 138.622 86.3623 138.727 89.6698C138.832 92.9773 142.11 92.1737 142.116 92.0805C142.122 91.9874 141.924 87.3406 141.924 87.3406Z" fill="#FFBE9D"/>
<path d="M157.36 86.6551C157.442 86.6202 160.377 85.8283 160.272 89.1125C160.167 92.3967 156.889 91.6164 156.883 91.5232C156.877 91.43 157.36 86.6551 157.36 86.6551Z" fill="#FFBE9D"/>
<path d="M140.857 86.9804C141.352 89.7289 141.253 91.1788 141.708 93.0189C142.43 95.9304 143.874 98.1606 146.494 99.6164C149.114 101.072 152.667 101.043 154.92 99.0341C156.481 97.6598 157.587 96.1225 157.832 94.0437C158.076 91.9649 158.297 88.3139 158.309 86.2292C158.338 82.4792 158.589 78.8922 158.589 78.8922L147.868 76.9531L141.766 80.5809L140.857 86.9804Z" fill="#263238"/>
<path d="M151.916 101.271C151.318 101.498 150.669 101.555 150.041 101.434C149.399 101.409 148.776 101.208 148.241 100.852C148.276 100.77 149.068 101.021 150.075 101.126C151.083 101.23 151.904 101.184 151.916 101.271Z" fill="#263238"/>
<path d="M141.376 91.659C141.061 88.8348 140.858 85.6089 140.421 82.6333C140.252 81.5153 139.838 79.9023 139.955 78.7785C139.987 77.6442 140.226 76.5253 140.66 75.4768C140.975 74.8378 141.433 74.2796 141.997 73.8453C142.562 73.4109 143.219 73.1119 143.918 72.9713C144.616 72.8307 145.338 72.8522 146.027 73.0342C146.716 73.2162 147.354 73.5538 147.892 74.021C148.288 73.4386 148.851 72.9894 149.507 72.7326C150.163 72.4758 150.881 72.4233 151.568 72.582C152.254 72.7407 152.876 73.1031 153.353 73.6218C153.83 74.1405 154.139 74.7912 154.239 75.4884C154.623 75.1216 155.118 74.8918 155.646 74.8345C156.175 74.7772 156.707 74.8956 157.161 75.1715C157.616 75.4473 157.966 75.8652 158.159 76.3604C158.352 76.8556 158.376 77.4005 158.228 77.9108C158.614 77.9754 158.979 78.1351 159.288 78.3756C159.598 78.616 159.843 78.9297 160.001 79.2883C160.159 79.647 160.226 80.0394 160.195 80.4301C160.164 80.8209 160.036 81.1978 159.823 81.5269C159.322 82.2898 158.431 82.6915 157.884 83.4427C157.574 83.8681 157.393 84.3741 157.363 84.8998C157.333 85.4255 157.455 85.9487 157.715 86.4066" fill="#263238"/>
<path d="M156.266 81.4558C156.25 81.5661 156.21 81.6715 156.149 81.7644C155.994 82.041 155.782 82.2812 155.526 82.469C155.121 82.7649 154.63 82.9184 154.128 82.9057C153.802 82.8976 153.481 82.822 153.185 82.6837C152.89 82.5454 152.626 82.3474 152.411 82.1022L152.638 82.0381C152.559 82.4119 152.386 82.7594 152.135 83.0477C151.884 83.336 151.564 83.5557 151.205 83.686C150.809 83.84 150.381 83.893 149.959 83.8401C149.537 83.7873 149.135 83.6302 148.789 83.3832C148.159 82.9473 147.682 82.3238 147.426 81.6014H147.688C147.418 81.9997 147.057 82.328 146.635 82.5588C146.212 82.7897 145.741 82.9166 145.26 82.929C144.88 82.9373 144.503 82.8676 144.152 82.7244C143.8 82.5812 143.482 82.3674 143.216 82.0963C142.864 81.7488 142.609 81.3151 142.477 80.8386C142.418 80.6725 142.396 80.4957 142.413 80.3203C142.413 80.3203 142.459 80.5008 142.576 80.8095C142.736 81.253 142.999 81.6521 143.344 81.9741C143.598 82.2138 143.897 82.4006 144.224 82.5236C144.551 82.6465 144.899 82.7032 145.248 82.6903C145.685 82.6707 146.112 82.5487 146.493 82.3343C146.874 82.1199 147.2 81.819 147.444 81.4558L147.601 81.2054L147.7 81.4849C147.938 82.1453 148.375 82.7152 148.952 83.1154C149.26 83.3335 149.617 83.4735 149.991 83.5232C150.365 83.5729 150.746 83.5309 151.1 83.4007C151.416 83.29 151.698 83.1019 151.922 82.8536C152.146 82.6054 152.304 82.305 152.382 81.9799L152.428 81.7062L152.609 81.9158C152.8 82.1388 153.034 82.3211 153.297 82.4521C153.56 82.5831 153.847 82.6602 154.14 82.6786C154.6 82.7037 155.056 82.579 155.439 82.3234C155.77 82.0928 156.051 81.7977 156.266 81.4558Z" fill="#455A64"/>
<path d="M156.247 80.1533C156.184 79.7262 156.027 79.3185 155.787 78.9596C155.516 78.5799 155.117 78.3111 154.663 78.2026C154.384 78.1367 154.094 78.1301 153.813 78.1833C153.531 78.2364 153.263 78.3481 153.027 78.5112L152.765 78.7034L152.794 78.3773C152.817 78.0587 152.78 77.7386 152.684 77.4339C152.579 77.1023 152.407 76.7955 152.18 76.5322C151.953 76.2689 151.674 76.0547 151.362 75.9025C150.839 75.6608 150.248 75.6073 149.691 75.7511C149.173 75.9046 148.697 76.1733 148.299 76.5372C148.36 76.3983 148.452 76.2749 148.567 76.1762C148.866 75.881 149.234 75.6649 149.638 75.5473C150.244 75.3616 150.896 75.3967 151.478 75.6463C151.83 75.8113 152.143 76.047 152.4 76.3385C152.656 76.63 152.85 76.9712 152.969 77.3408C153.079 77.6846 153.118 78.047 153.085 78.4064L152.852 78.2725C153.122 78.0872 153.429 77.9626 153.752 77.9073C154.075 77.852 154.405 77.8673 154.722 77.9522C155.228 78.0865 155.664 78.4067 155.944 78.8489C156.133 79.1325 156.247 79.4589 156.276 79.7981C156.299 79.917 156.289 80.0396 156.247 80.1533Z" fill="#455A64"/>
<path d="M149.418 80.2553C149.377 80.2553 149.418 80.0689 149.418 79.8011C149.387 79.4567 149.273 79.1249 149.086 78.8345C148.894 78.532 148.686 78.2404 148.463 77.961C148.3 77.7921 148.142 77.9086 148.119 77.8911C148.096 77.8737 148.119 77.8213 148.195 77.763C148.254 77.7239 148.324 77.7031 148.396 77.7031C148.467 77.7031 148.537 77.7239 148.596 77.763C148.733 77.8745 148.856 78.0015 148.963 78.1415C149.104 78.2993 149.23 78.4688 149.342 78.6481C149.562 78.9839 149.665 79.3833 149.633 79.7836C149.575 80.1213 149.418 80.2727 149.418 80.2553Z" fill="#455A64"/>
<path d="M143.053 76.1129C143.018 76.1129 143.053 75.8567 143.251 75.5306C143.375 75.3267 143.542 75.152 143.74 75.0182C143.998 74.8493 144.309 74.7809 144.614 74.8261C145.135 74.9213 145.6 75.2131 145.912 75.6413C146.151 75.9441 146.261 76.1537 146.232 76.1828C146.203 76.2119 146.028 76.0431 145.755 75.7869C145.442 75.454 145.036 75.2228 144.59 75.123C144.366 75.0991 144.14 75.1356 143.935 75.2288C143.731 75.322 143.555 75.4685 143.426 75.6529C143.199 75.9266 143.094 76.1129 143.053 76.1129Z" fill="#455A64"/>
<path d="M144.718 90.0896C144.191 89.4833 143.805 88.7672 143.589 87.9933C143.281 87.2571 143.146 86.4605 143.193 85.6641C143.28 85.6641 143.449 86.7006 143.874 87.9176C144.299 89.1346 144.794 90.0139 144.718 90.0896Z" fill="#455A64"/>
<path d="M146.157 90.8417C145.79 90.4067 145.52 89.8985 145.365 89.351C145.116 88.8367 144.983 88.2743 144.975 87.7031C145.267 88.1846 145.492 88.7038 145.644 89.2462C145.889 89.7514 146.062 90.2885 146.157 90.8417Z" fill="#455A64"/>
<path d="M155.188 91.0703C155.294 92.0489 155.169 93.0388 154.821 93.9596C154.472 94.8804 153.912 95.706 153.185 96.3693C153.703 95.5663 154.157 94.7232 154.541 93.8479C154.829 92.9403 155.045 92.0116 155.188 91.0703Z" fill="#455A64"/>
<path d="M156.633 88.6719C156.977 89.4953 157.051 90.4069 156.843 91.2748C156.734 92.1607 156.341 92.9878 155.725 93.6331C156.07 92.8559 156.345 92.0491 156.546 91.2224C156.647 90.3762 156.677 89.523 156.633 88.6719Z" fill="#455A64"/>
<path d="M152.748 181.508L156.021 213.063L158.373 260.585H170.91L171.231 166.228L169.571 159.625L135.949 162.298L127.907 215.066L134.353 261.511H148.113L144.887 217.349L152.748 181.508Z" fill="#263238"/>
<path d="M152.749 181.508C152.009 182.383 151.192 183.189 150.309 183.919C149.494 184.722 148.607 185.449 147.659 186.091C149.214 184.413 150.918 182.879 152.749 181.508Z" fill="#455A64"/>
<path d="M152.713 180.875C152.657 179.516 152.678 178.155 152.777 176.799C152.781 175.449 152.859 174.1 153.01 172.758C153.172 174.111 153.199 175.476 153.092 176.834C153.095 178.19 152.969 179.543 152.713 180.875Z" fill="#455A64"/>
<path d="M156.859 169.091C156.927 169.086 156.995 169.086 157.063 169.091L157.68 169.05L160.062 168.933L168.564 168.578H168.703V168.695C168.703 171.35 168.703 174.349 168.703 177.522V177.802L168.604 177.837L163.078 180.055H163.026H162.974L158.082 178.355H158.006V178.273C157.651 175.519 157.354 173.225 157.139 171.583C157.046 170.814 156.97 170.197 156.912 169.743C156.88 169.532 156.86 169.321 156.854 169.108C156.871 169.167 156.884 169.228 156.894 169.289C156.894 169.428 156.941 169.591 156.976 169.789C157.052 170.249 157.15 170.872 157.273 171.653C157.517 173.271 157.855 175.531 158.263 178.239L158.175 178.134L163.078 179.799H162.979L168.5 177.575L168.406 177.714V177.546C168.406 174.372 168.406 171.373 168.406 168.718L168.552 168.858L160.144 169.067L157.727 169.114H157.075C157.002 169.113 156.93 169.105 156.859 169.091Z" fill="#455A64"/>
<path d="M138.756 169.281C138.816 169.273 138.876 169.273 138.936 169.281L139.519 169.252L141.673 169.188L149.424 169.008H149.569V169.153C149.488 171.774 149.389 174.796 149.284 178.01V178.016L149.214 178.057L148.317 178.639L143.769 181.603L143.694 181.655L143.612 181.609L138.488 178.488L138.424 178.447V178.371C138.523 175.623 138.604 173.329 138.663 171.686C138.692 170.918 138.721 170.306 138.738 169.846C138.756 169.386 138.779 169.212 138.785 169.223C138.793 169.283 138.793 169.344 138.785 169.404V169.899C138.785 170.365 138.785 170.988 138.785 171.768C138.785 173.393 138.727 175.658 138.686 178.377L138.622 178.266L143.764 181.347H143.595L148.137 178.371L149.033 177.789L148.964 177.911C149.08 174.697 149.191 171.675 149.284 169.06L149.424 169.2L141.755 169.241H138.983L138.756 169.281Z" fill="#455A64"/>
<path d="M167.376 183.545C166.808 183.581 166.239 183.561 165.675 183.487C164.633 183.411 163.189 183.272 161.599 183.062C160.009 182.852 158.583 182.625 157.552 182.433C156.988 182.359 156.433 182.233 155.893 182.055C156.459 182.058 157.024 182.113 157.581 182.218L161.657 182.753L165.733 183.272C166.288 183.313 166.838 183.405 167.376 183.545Z" fill="#455A64"/>
<path d="M167.085 218.719C167.085 218.719 167.038 218.905 166.788 219.121C166.425 219.412 165.972 219.567 165.507 219.558C164.819 219.533 164.158 219.279 163.632 218.836C163.011 218.307 162.439 217.722 161.926 217.089C160.972 215.976 160.123 214.78 159.387 213.513C159.057 213.004 158.791 212.457 158.595 211.883C158.948 212.369 159.275 212.875 159.573 213.397C160.357 214.618 161.223 215.786 162.164 216.891C162.664 217.503 163.216 218.072 163.812 218.591C164.285 219.012 164.882 219.267 165.512 219.319C165.937 219.344 166.359 219.234 166.718 219.004C166.968 218.853 167.067 218.707 167.085 218.719Z" fill="#455A64"/>
<path d="M142.319 219.828C142.298 219.975 142.24 220.113 142.15 220.23C141.93 220.569 141.633 220.851 141.282 221.051C140.761 221.356 140.168 221.513 139.564 221.505C138.826 221.48 138.109 221.253 137.491 220.847C136.41 220.096 135.548 219.071 134.993 217.877C134.73 217.41 134.523 216.914 134.376 216.398C134.682 216.835 134.954 217.295 135.191 217.773C135.774 218.895 136.619 219.86 137.654 220.585C138.228 220.957 138.888 221.176 139.57 221.22C140.128 221.24 140.682 221.116 141.177 220.859C141.629 220.603 142.018 220.251 142.319 219.828Z" fill="#455A64"/>
<path d="M143.117 215.064C142.813 215.322 142.463 215.52 142.086 215.647C140.288 216.398 138.28 216.481 136.426 215.88C136.036 215.783 135.67 215.609 135.349 215.367C137.882 216.27 140.666 216.155 143.117 215.047V215.064Z" fill="#455A64"/>
<path d="M142.861 105.657L143.653 102.926L157.914 102.344L159.294 104.784L172.25 109.262L169.391 138.854L168.488 151.024L169.397 153.936L168.087 156.545L168.89 161.349C168.89 161.349 160.342 163.765 155.893 164.132C151.444 164.499 143.543 163.59 143.543 163.59L135.973 162.274L136.473 155.176L135.891 153.848L136.526 152.509V143.775L132.211 126.771L132.426 109.157L142.861 105.657Z" fill="#7B55D3"/>
<path d="M132.426 109.148C132.426 109.148 110.024 133.465 110.019 138.421C110.019 142.124 118.753 156.35 123.912 159.588L128.204 163.11L133.171 157.48L129.037 154.353C129.037 154.353 129.223 150.771 128.175 149.77C127.127 148.768 121.566 140.604 121.566 140.604C122.024 140.452 122.436 140.183 122.759 139.824C123.103 139.329 132.659 128.586 132.659 128.586L132.938 119.513L132.426 109.148Z" fill="#7B55D3"/>
<path d="M121.589 141.159C121.263 141.306 120.918 141.41 120.564 141.467C119.731 141.622 118.915 141.854 118.125 142.16C117.379 142.562 116.664 143.019 115.987 143.529C115.715 143.766 115.409 143.962 115.079 144.111C115.303 143.832 115.566 143.587 115.859 143.383C116.506 142.814 117.215 142.32 117.973 141.91C118.785 141.593 119.634 141.383 120.5 141.287C120.854 141.188 121.222 141.145 121.589 141.159Z" fill="#263238"/>
<path d="M129.037 154.352C128.702 155.561 128.074 156.669 127.208 157.578C126.631 158.244 125.976 158.841 125.258 159.354C124.975 159.587 124.654 159.77 124.309 159.895C125.247 159.109 126.14 158.269 126.981 157.38C127.747 156.427 128.434 155.415 129.037 154.352Z" fill="#263238"/>
<path d="M129.468 156.432C129.427 156.432 129.695 156.1 130.266 156.164C130.434 156.181 130.596 156.238 130.738 156.33C130.88 156.422 130.998 156.547 131.081 156.694C131.169 156.876 131.215 157.075 131.215 157.277C131.212 157.39 131.183 157.502 131.13 157.603C131.078 157.703 131.003 157.791 130.912 157.859C130.75 157.987 130.556 158.07 130.352 158.098C130.147 158.127 129.939 158.101 129.747 158.022C129.597 157.945 129.468 157.832 129.372 157.693C129.277 157.553 129.218 157.392 129.2 157.224C129.148 156.642 129.474 156.392 129.485 156.426C129.399 156.671 129.373 156.933 129.41 157.189C129.437 157.315 129.492 157.433 129.572 157.534C129.652 157.635 129.753 157.716 129.87 157.772C130.015 157.825 130.171 157.839 130.323 157.813C130.475 157.788 130.618 157.723 130.737 157.626C130.795 157.583 130.843 157.528 130.877 157.465C130.912 157.401 130.931 157.331 130.935 157.259C130.938 157.107 130.908 156.956 130.848 156.817C130.79 156.704 130.708 156.605 130.607 156.527C130.506 156.45 130.39 156.395 130.266 156.368C129.999 156.323 129.724 156.345 129.468 156.432Z" fill="#263238"/>
<path d="M137.334 149.286C137.292 149.191 137.261 149.091 137.241 148.989L137.026 148.133L136.304 144.965C135.722 142.292 134.895 138.595 134.021 134.484C133.148 130.372 132.373 126.686 131.826 124.002C131.564 122.692 131.348 121.615 131.191 120.817C131.127 120.467 131.081 120.182 131.034 119.949C131.014 119.847 131.002 119.744 130.999 119.641C131.047 119.734 131.08 119.834 131.098 119.938C131.152 120.163 131.222 120.448 131.308 120.794C131.488 121.586 131.733 122.651 132.036 123.955C132.618 126.628 133.445 130.326 134.318 134.437C135.192 138.548 135.966 142.234 136.513 144.918C136.77 146.229 136.985 147.306 137.142 148.104C137.206 148.453 137.259 148.738 137.3 148.971C137.327 149.074 137.339 149.18 137.334 149.286Z" fill="#263238"/>
<path d="M165.879 152.07C165.568 152.19 165.249 152.287 164.924 152.361C164.307 152.536 163.398 152.752 162.275 152.985C156.401 154.205 150.381 154.562 144.404 154.044C143.239 153.939 142.337 153.835 141.702 153.736C141.37 153.701 141.041 153.641 140.718 153.555C141.051 153.55 141.384 153.569 141.714 153.613C142.354 153.677 143.274 153.753 144.421 153.829C147.397 154.019 150.382 154.031 153.36 153.864C156.335 153.681 159.297 153.317 162.228 152.775C163.358 152.565 164.266 152.385 164.889 152.245C165.213 152.157 165.545 152.099 165.879 152.07Z" fill="#263238"/>
<path d="M158.781 157.633C158.613 157.722 158.432 157.785 158.245 157.819C157.89 157.918 157.377 158.046 156.743 158.192C155.468 158.477 153.686 158.774 151.7 159.03C149.714 159.287 147.909 159.339 146.599 159.351C145.947 159.351 145.434 159.351 145.056 159.351C144.86 159.36 144.664 159.34 144.474 159.292C145.173 159.21 145.877 159.166 146.582 159.158C147.886 159.094 149.679 158.978 151.653 158.751C153.627 158.524 155.403 158.233 156.685 158.005C157.376 157.844 158.076 157.72 158.781 157.633Z" fill="#263238"/>
<path d="M163.486 121.359C163.5 121.468 163.5 121.577 163.486 121.685C163.486 121.93 163.451 122.239 163.433 122.617C163.433 122.821 163.404 123.048 163.387 123.287C163.369 123.526 163.317 123.799 163.276 124.085C163.193 124.731 163.076 125.372 162.927 126.006L162.659 127.113C162.566 127.497 162.426 127.887 162.298 128.277C162.024 129.143 161.706 129.995 161.343 130.828C160.492 132.729 159.448 134.537 158.227 136.226C156.973 137.889 155.552 139.42 153.988 140.797C153.299 141.388 152.58 141.944 151.834 142.462C151.479 142.701 151.153 142.951 150.809 143.155L149.831 143.737C149.219 144.122 148.608 144.378 148.084 144.64C147.822 144.762 147.589 144.884 147.362 144.978L146.727 145.222L145.854 145.542C145.757 145.591 145.652 145.622 145.545 145.636C145.636 145.576 145.734 145.527 145.836 145.49C146.057 145.385 146.343 145.263 146.686 145.112L147.298 144.849C147.525 144.745 147.758 144.617 148.008 144.483C148.591 144.202 149.158 143.891 149.708 143.551L150.675 142.969C151.007 142.759 151.327 142.503 151.677 142.264C152.381 141.792 153.057 141.198 153.79 140.593C156.91 137.862 159.396 134.484 161.075 130.694C161.441 129.872 161.766 129.033 162.047 128.178C162.175 127.776 162.327 127.398 162.426 127.014C162.525 126.629 162.612 126.274 162.705 125.925C162.903 125.232 162.985 124.585 163.096 124.02C163.142 123.741 163.2 123.479 163.235 123.234C163.27 122.99 163.282 122.774 163.305 122.571C163.348 122.182 163.383 121.874 163.41 121.645C163.425 121.547 163.45 121.451 163.486 121.359Z" fill="#263238"/>
<path d="M159.194 105.154C159.011 105.259 158.815 105.341 158.612 105.398C158.216 105.538 157.64 105.707 156.912 105.893C155.019 106.357 153.083 106.625 151.135 106.691C149.185 106.753 147.233 106.611 145.312 106.266C144.579 106.132 143.985 105.998 143.565 105.882C143.354 105.837 143.147 105.77 142.948 105.684C142.948 105.631 143.862 105.841 145.33 106.056C147.24 106.334 149.171 106.445 151.1 106.388C153.029 106.316 154.948 106.081 156.836 105.684C158.298 105.375 159.183 105.107 159.194 105.154Z" fill="#263238"/>
<g opacity="0.3">
<path d="M144.59 106.079C146.531 107.554 148.927 108.302 151.362 108.193C153.766 108.159 156.077 107.255 157.866 105.648C153.507 106.62 149.003 106.766 144.59 106.079Z" fill="black"/>
</g>
<g opacity="0.3">
<path d="M136.409 162.548C140.526 160.662 145.475 162.111 149.977 161.651C152.585 161.384 155.107 160.568 157.686 160.102C160.266 159.637 163.032 159.555 165.402 160.685C165.797 160.92 166.238 161.067 166.695 161.116C167.149 161.116 167.644 160.766 167.609 160.306C167.569 160.148 167.497 160 167.397 159.872C167.296 159.743 167.17 159.638 167.026 159.561C165.283 158.417 163.223 157.852 161.139 157.948C159.071 158.048 157.013 158.291 154.979 158.676C151.496 159.19 147.974 159.385 144.456 159.258C142.847 159.101 141.224 159.158 139.629 159.427C138.051 159.788 136.514 160.737 135.902 162.24" fill="black"/>
</g>
<path d="M172.25 109.266C172.25 109.266 192.875 132.5 192.864 137.449C192.864 141.147 184.647 155.407 179.849 158.662L175.843 162.203L171.243 156.595L175.121 153.457C175.121 153.457 174.958 149.875 175.942 148.874C176.926 147.872 182.126 139.679 182.126 139.679C181.693 139.527 181.311 139.259 181.02 138.905C180.705 138.416 170.096 127.713 170.096 127.713L170.626 120.015L172.25 109.266Z" fill="#7B55D3"/>
<path d="M182.125 139.68C182.479 139.693 182.828 139.76 183.162 139.878C183.98 140.105 184.778 140.397 185.549 140.751C186.341 141.091 187.06 141.58 187.669 142.189C188.129 142.69 188.17 143.15 188.135 143.144C187.958 142.852 187.749 142.58 187.512 142.335C186.884 141.796 186.18 141.355 185.421 141.025C183.645 140.21 182.096 139.779 182.125 139.68Z" fill="#263238"/>
<path d="M175.26 153.484C175.798 154.511 176.403 155.501 177.071 156.448C177.818 157.336 178.625 158.17 179.487 158.946C178.425 158.399 177.513 157.599 176.832 156.617C176.07 155.71 175.532 154.637 175.26 153.484Z" fill="#263238"/>
<path d="M174.382 155.888C174.382 155.952 174.09 155.672 173.671 155.777C173.552 155.823 173.444 155.892 173.352 155.98C173.26 156.068 173.187 156.173 173.135 156.29C173.057 156.412 173.023 156.557 173.039 156.701C173.055 156.845 173.12 156.979 173.223 157.081C173.326 157.185 173.458 157.254 173.602 157.28C173.745 157.306 173.894 157.288 174.026 157.227C174.133 157.165 174.224 157.081 174.296 156.98C174.367 156.88 174.416 156.766 174.44 156.645C174.465 156.395 174.445 156.142 174.382 155.899C174.382 155.87 174.69 156.121 174.649 156.68C174.638 156.843 174.588 157.001 174.503 157.141C174.418 157.281 174.3 157.398 174.16 157.483C173.974 157.584 173.76 157.623 173.55 157.592C173.34 157.562 173.146 157.464 172.996 157.314C172.831 157.164 172.733 156.955 172.722 156.732C172.717 156.528 172.77 156.326 172.873 156.15C172.948 156.008 173.051 155.883 173.177 155.783C173.302 155.682 173.446 155.609 173.601 155.568C173.709 155.548 173.82 155.551 173.926 155.577C174.033 155.603 174.132 155.651 174.218 155.719C174.347 155.806 174.393 155.888 174.382 155.888Z" fill="#263238"/>
<path d="M175.842 162.203C175.842 162.203 173.839 164.87 171.987 163.467C171.987 163.467 169.396 162.92 168.062 161.545C166.729 160.171 166.519 159.333 165.576 159.268C164.396 159.072 163.229 158.802 162.082 158.459C161.953 158.426 161.833 158.362 161.734 158.272C161.635 158.183 161.559 158.07 161.512 157.945C161.466 157.82 161.451 157.685 161.468 157.552C161.485 157.42 161.534 157.293 161.611 157.184C161.715 157.054 161.854 156.957 162.012 156.904C162.857 156.619 166.613 156.974 166.613 156.974L167.707 157.038L167.899 155.431L169.175 154.406C169.175 154.406 169.984 154.901 169.943 155.571C170.096 155.551 170.252 155.563 170.401 155.604C170.549 155.645 170.689 155.715 170.81 155.81C170.931 155.906 171.032 156.024 171.108 156.159C171.183 156.294 171.23 156.442 171.248 156.596L175.842 162.203Z" fill="#FFBE9D"/>
<path d="M128.204 163.105C128.204 163.105 130.341 165.76 132.338 164.351C132.338 164.351 135.128 163.769 136.566 162.412C138.004 161.055 138.237 160.188 139.245 160.124C140.252 160.06 143.158 159.646 143.21 159.669C143.262 159.693 144.002 158.027 143.094 157.742C142.185 157.457 138.156 157.835 138.156 157.835L136.991 157.905L136.793 156.292L136.467 155.203C136.467 155.203 134.557 155.785 134.592 156.443C134.271 156.405 133.948 156.491 133.687 156.682C133.426 156.873 133.248 157.156 133.189 157.474L128.204 163.105Z" fill="#FFBE9D"/>
<g opacity="0.3">
<path d="M146.699 144.924C146.728 142.909 148.236 141.209 149.895 140.062C151.555 138.915 153.453 138.111 154.956 136.766C157.92 134.117 158.822 129.906 160.825 126.471C161.14 125.929 161.78 125.335 162.298 125.696C162.66 125.947 162.625 126.488 162.537 126.919C161.662 131.104 159.72 134.992 156.9 138.205C154.08 141.419 150.478 143.85 146.442 145.262" fill="black"/>
</g>
<path d="M171.446 114.609C171.528 114.609 170.934 122.762 170.118 132.83C169.303 142.898 168.569 151.038 168.488 151.032C168.406 151.027 169 142.88 169.816 132.806C170.631 122.733 171.365 114.598 171.446 114.609Z" fill="#263238"/>
<g opacity="0.3">
<path d="M172.669 130.268C172.859 129.482 172.845 128.66 172.628 127.881C172.151 125.466 171.594 123.071 170.957 120.695C170.957 121.941 170.66 123.793 170.625 125.266C170.625 126.134 170.462 128.085 170.462 128.085L172.669 130.268Z" fill="black"/>
</g>
<g opacity="0.3">
<path d="M182.026 139.645C183.449 139.373 184.903 139.295 186.347 139.413C186.711 139.429 187.07 139.5 187.413 139.622C187.758 139.75 188.039 140.007 188.199 140.338C188.269 140.526 188.302 140.725 188.294 140.925C188.286 141.125 188.237 141.322 188.152 141.503C188.096 141.684 187.992 141.847 187.85 141.973C187.708 142.099 187.535 142.184 187.349 142.219C186.958 142.219 186.638 141.928 186.347 141.637C185.853 141.197 185.277 140.858 184.653 140.641C183.756 140.327 182.719 140.239 182.038 139.581" fill="black"/>
</g>
<path d="M188.892 139.475C187.713 139.313 186.525 139.23 185.334 139.225C184.148 139.325 182.969 139.504 181.806 139.76C184.039 138.741 186.584 138.638 188.892 139.475Z" fill="#263238"/>
<g opacity="0.3">
<path d="M121.607 140.629C120.422 140.305 119.194 140.172 117.967 140.233C117.445 140.19 116.921 140.279 116.442 140.49C116.215 140.561 116.022 140.713 115.899 140.917C115.776 141.12 115.731 141.362 115.773 141.596C115.815 141.83 115.941 142.041 116.128 142.189C116.314 142.337 116.548 142.412 116.785 142.4C117.182 142.404 117.576 142.339 117.95 142.207L120.861 141.363C121.065 141.321 121.255 141.229 121.415 141.095C121.497 141.024 121.549 140.924 121.56 140.816C121.571 140.707 121.54 140.599 121.473 140.513" fill="black"/>
</g>
<g opacity="0.3">
<path d="M132.531 126.928C132.313 124.815 131.702 122.761 130.732 120.872C130.627 120.668 130.481 120.447 130.26 120.423C129.911 120.394 129.742 120.842 129.713 121.192C129.487 123.708 130.119 126.226 131.506 128.337C131.669 128.581 131.949 128.849 132.211 128.709C132.473 128.57 132.426 128.313 132.409 128.075C132.351 127.271 132.286 126.468 132.228 125.664" fill="black"/>
</g>
<path d="M147.374 106.301C147.319 106.142 147.292 105.975 147.292 105.806C147.228 105.006 147.301 104.201 147.508 103.425C147.539 103.26 147.594 103.102 147.671 102.953C147.706 102.953 147.502 103.693 147.42 104.619C147.339 105.544 147.409 106.296 147.374 106.301Z" fill="#FAFAFA"/>
<path d="M156.538 105.467C156.498 105.467 156.387 104.775 156.137 103.942C155.886 103.109 155.613 102.463 155.648 102.445C155.741 102.57 155.815 102.707 155.869 102.853C156.17 103.542 156.383 104.265 156.504 105.007C156.535 105.159 156.546 105.313 156.538 105.467Z" fill="#FAFAFA"/>
<path d="M144.374 154.078C144.374 154.078 144.374 153.909 144.316 153.6C144.258 153.292 144.223 152.797 144.165 152.226C144.031 151.003 143.844 149.314 143.582 147.183C143.116 142.921 142.447 137.039 141.661 130.547C140.875 124.054 140.1 118.184 139.529 113.94C139.244 111.837 139.017 110.125 138.848 108.908C138.772 108.326 138.714 107.884 138.668 107.54C138.621 107.196 138.615 107.062 138.615 107.062C138.615 107.062 138.644 107.226 138.691 107.54C138.738 107.854 138.813 108.332 138.895 108.903L139.617 113.928C140.199 118.173 140.985 124.042 141.777 130.535C142.569 137.028 143.221 142.909 143.67 147.172C143.885 149.279 144.054 150.997 144.182 152.22C144.234 152.802 144.275 153.251 144.31 153.594C144.345 153.938 144.374 154.078 144.374 154.078Z" fill="#FAFAFA"/>
<path d="M146.74 158.949C146.74 158.949 146.699 158.891 146.646 158.78C146.579 158.619 146.52 158.454 146.472 158.285C146.308 157.718 146.233 157.129 146.251 156.538C146.263 155.957 146.368 155.381 146.559 154.832C146.617 154.665 146.685 154.502 146.763 154.343C146.821 154.232 146.856 154.174 146.862 154.18C146.868 154.186 146.769 154.436 146.641 154.856C146.305 155.955 146.275 157.124 146.553 158.239C146.658 158.687 146.757 158.943 146.74 158.949Z" fill="#FAFAFA"/>
<path d="M145.184 163.512C145.046 163.358 144.934 163.183 144.852 162.994C144.4 162.093 144.199 161.087 144.27 160.082C144.274 159.884 144.309 159.687 144.374 159.5C144.374 159.5 144.374 159.739 144.374 160.111C144.356 161.092 144.555 162.064 144.957 162.959C145.085 163.302 145.195 163.506 145.184 163.512Z" fill="#FAFAFA"/>
<path d="M158.845 163.392C158.76 163.135 158.692 162.872 158.641 162.606C158.53 162.117 158.367 161.442 158.175 160.708C157.983 159.974 157.791 159.31 157.645 158.827C157.557 158.573 157.489 158.312 157.441 158.047C157.477 158.11 157.507 158.176 157.529 158.245C157.581 158.373 157.651 158.565 157.733 158.827C157.89 159.299 158.094 159.963 158.315 160.702C158.536 161.442 158.658 162.117 158.752 162.612C158.798 162.857 158.833 163.061 158.851 163.194C158.858 163.26 158.856 163.327 158.845 163.392Z" fill="#FAFAFA"/>
<path d="M162.63 152.664C162.724 152.847 162.791 153.044 162.828 153.246C162.937 153.741 162.973 154.249 162.933 154.755C162.888 155.26 162.77 155.756 162.583 156.228C162.509 156.423 162.411 156.609 162.292 156.781C162.557 156.128 162.731 155.443 162.81 154.743C162.849 154.249 162.828 153.752 162.746 153.264C162.682 152.897 162.612 152.67 162.63 152.664Z" fill="#FAFAFA"/>
<path d="M159.491 134.859C159.491 134.859 159.491 134.923 159.491 135.046C159.491 135.168 159.491 135.383 159.462 135.581C159.433 136.111 159.398 136.746 159.357 137.55C159.276 139.215 159.212 141.515 159.247 144.054C159.282 146.593 159.41 148.893 159.532 150.552C159.596 151.339 159.648 151.997 159.689 152.521C159.689 152.724 159.718 152.899 159.736 153.056C159.741 153.118 159.741 153.181 159.736 153.243C159.717 153.182 159.705 153.12 159.701 153.056L159.637 152.526C159.584 152.061 159.515 151.362 159.439 150.564C159.293 148.905 159.154 146.604 159.119 144.06C159.084 141.515 159.165 139.209 159.264 137.55C159.317 136.717 159.369 136.041 159.41 135.581C159.41 135.378 159.445 135.203 159.462 135.046C159.463 134.983 159.473 134.92 159.491 134.859Z" fill="#FAFAFA"/>
<path d="M161.366 105.383C161.4 105.383 161.191 111.322 160.9 118.648C160.609 125.973 160.317 131.907 160.317 131.907C160.317 131.907 160.492 125.967 160.783 118.642C161.074 111.316 161.331 105.383 161.366 105.383Z" fill="#FAFAFA"/>
<path d="M171.289 117.22C171.289 117.255 162.461 117.727 151.572 118.274C140.683 118.822 131.85 119.235 131.85 119.2C131.85 119.165 140.672 118.699 151.566 118.152C162.461 117.605 171.283 117.191 171.289 117.22Z" fill="#FAFAFA"/>
<path d="M154.81 139C154.748 139.024 154.683 139.04 154.617 139.047L154.035 139.151C153.552 139.239 152.87 139.355 151.98 139.483C150.233 139.74 147.822 140.066 145.143 140.223C142.465 140.38 140.031 140.456 138.272 140.444C137.393 140.444 136.682 140.444 136.188 140.403H135.605H135.407C135.473 140.398 135.539 140.398 135.605 140.403H138.255C140.002 140.403 142.441 140.333 145.12 140.147C147.799 139.961 150.209 139.681 151.95 139.443L154.012 139.151L154.594 139.07L154.81 139Z" fill="#FAFAFA"/>
<path d="M169.215 134.45C169.215 134.479 166.997 134.689 164.248 134.91C161.5 135.131 159.275 135.289 159.27 135.26C159.264 135.23 161.494 135.015 164.242 134.794C166.991 134.572 169.215 134.415 169.215 134.45Z" fill="#FAFAFA"/>
<path d="M169.607 153.641C169.607 153.641 167.813 154.176 164.855 154.805C161 155.628 157.094 156.184 153.163 156.471C149.231 156.738 145.285 156.738 141.353 156.471C138.337 156.255 136.485 155.97 136.485 155.97H136.823L137.796 156.069C138.634 156.162 139.851 156.261 141.359 156.36C145.288 156.605 149.229 156.593 153.157 156.325C157.081 156.049 160.983 155.514 164.838 154.724C166.317 154.421 167.51 154.141 168.332 153.938L169.275 153.71L169.607 153.641Z" fill="#FAFAFA"/>
<path d="M185.485 125.836C185.485 125.836 185.456 125.871 185.392 125.917L185.101 126.133C184.851 126.313 184.484 126.581 184.047 126.925C182.898 127.822 181.811 128.794 180.792 129.836C179.775 130.868 178.825 131.965 177.95 133.121C177.613 133.569 177.368 133.936 177.176 134.192L176.972 134.489L176.891 134.588C176.891 134.588 176.891 134.547 176.949 134.477L177.135 134.169C177.304 133.901 177.554 133.528 177.881 133.074C178.728 131.889 179.666 130.771 180.687 129.732C181.712 128.693 182.811 127.732 183.977 126.855C184.426 126.523 184.792 126.273 185.06 126.092L185.363 125.9L185.485 125.836Z" fill="#FAFAFA"/>
<path d="M186.767 138.999C186.712 138.94 186.661 138.878 186.615 138.812L186.196 138.265L184.676 136.238C183.383 134.526 181.578 132.162 179.523 129.641C177.467 127.12 175.557 124.843 174.154 123.236L172.494 121.32L172.04 120.796L171.889 120.609C171.889 120.609 171.953 120.668 172.058 120.778L172.529 121.285L174.218 123.177C175.639 124.784 177.56 127.032 179.616 129.583C181.671 132.133 183.471 134.48 184.746 136.203L186.237 138.253L186.633 138.835C186.726 138.934 186.767 138.999 186.767 138.999Z" fill="#FAFAFA"/>
<path d="M188.77 139.578C188.846 140.075 188.749 140.582 188.496 141.016C188.243 141.449 187.848 141.783 187.378 141.96C187.787 141.704 188.133 141.36 188.391 140.952C188.616 140.527 188.745 140.058 188.77 139.578Z" fill="#FAFAFA"/>
<path d="M175.383 154.203C175.403 154.152 175.428 154.103 175.459 154.057C175.534 153.941 175.616 153.807 175.703 153.661C175.959 153.265 176.285 152.782 176.623 152.217C177.409 151.006 178.516 149.341 179.762 147.524C181.008 145.707 182.167 144.077 183.017 142.906L184.036 141.526L184.315 141.159C184.347 141.114 184.382 141.072 184.42 141.031C184.42 141.031 184.42 141.084 184.339 141.171L184.071 141.555L183.087 142.953C182.219 144.205 181.101 145.812 179.861 147.611C178.62 149.411 177.532 151.029 176.699 152.27L175.744 153.691L175.482 154.075C175.453 154.12 175.42 154.163 175.383 154.203Z" fill="#FAFAFA"/>
<path d="M177.613 157.219C177.083 157.726 176.523 158.201 175.936 158.64C175.379 159.114 174.795 159.557 174.189 159.968C174.723 159.464 175.282 158.99 175.866 158.547C176.787 157.79 177.596 157.196 177.613 157.219Z" fill="#FAFAFA"/>
<path d="M185.649 152.319C185.515 152.278 185.384 152.228 185.258 152.167C184.904 152.027 184.559 151.862 184.228 151.672C183.125 151.066 182.119 150.297 181.246 149.39C180.372 148.483 179.638 147.451 179.069 146.327C178.893 145.988 178.74 145.637 178.609 145.279C178.551 145.152 178.508 145.019 178.48 144.883C178.546 145.005 178.604 145.132 178.655 145.261C178.754 145.512 178.923 145.844 179.144 146.286C179.728 147.391 180.466 148.409 181.334 149.308C182.195 150.201 183.174 150.971 184.245 151.597C184.665 151.836 185.008 152.016 185.253 152.127C185.39 152.178 185.523 152.243 185.649 152.319Z" fill="#FAFAFA"/>
<path d="M130.539 120.086L130.335 120.313L129.753 120.954L127.54 123.283L120.203 130.992L118.107 133.182C117.431 133.892 116.767 134.562 116.197 135.255C115.032 136.606 114.263 138.132 114.304 139.5C114.293 140.033 114.391 140.563 114.591 141.058C114.791 141.552 115.09 142.001 115.469 142.377C115.759 142.634 116.097 142.832 116.465 142.959L116.179 142.866C115.905 142.753 115.653 142.593 115.434 142.394C115.04 142.019 114.729 141.567 114.518 141.066C114.308 140.565 114.203 140.026 114.211 139.482C114.153 138.085 114.933 136.53 116.098 135.162C116.68 134.469 117.338 133.793 118.014 133.083L120.104 130.888L127.464 123.207C128.384 122.252 129.141 121.46 129.706 120.878L130.288 120.249C130.457 120.156 130.539 120.086 130.539 120.086Z" fill="#FAFAFA"/>
<path d="M129.118 132.702L129.036 132.591C128.984 132.481 128.92 132.364 128.856 132.236C128.705 131.927 128.472 131.479 128.18 130.932C126.662 128.075 124.798 125.415 122.631 123.012C122.218 122.552 121.874 122.185 121.63 121.941L121.356 121.65C121.321 121.616 121.29 121.579 121.263 121.539L121.373 121.632L121.664 121.906C121.915 122.145 122.247 122.488 122.695 122.954C123.801 124.142 124.826 125.403 125.764 126.727C126.696 128.053 127.539 129.44 128.285 130.879C128.571 131.432 128.786 131.887 128.926 132.207L129.089 132.574C129.105 132.615 129.115 132.658 129.118 132.702Z" fill="#FAFAFA"/>
<path d="M121.921 139.819L121.799 139.853L121.449 139.923C121.141 139.987 120.698 140.063 120.145 140.133C118.703 140.313 117.247 140.368 115.795 140.296C114.343 140.229 112.899 140.034 111.48 139.714C110.939 139.586 110.502 139.469 110.205 139.376L109.862 139.265C109.82 139.257 109.781 139.241 109.745 139.219H109.867L110.217 139.306C110.52 139.388 110.956 139.492 111.498 139.609C112.915 139.915 114.354 140.109 115.801 140.191C117.246 140.263 118.695 140.22 120.133 140.063C120.687 140.005 121.135 139.947 121.438 139.894L121.793 139.848C121.834 139.831 121.877 139.822 121.921 139.819Z" fill="#FAFAFA"/>
<path d="M125.852 147.156C125.743 147.237 125.628 147.311 125.509 147.378C125.281 147.506 124.955 147.709 124.565 147.96C123.534 148.631 122.56 149.386 121.654 150.219C120.757 151.056 119.929 151.963 119.179 152.933C118.894 153.305 118.666 153.614 118.521 153.829C118.448 153.946 118.364 154.055 118.271 154.156C118.333 154.033 118.403 153.914 118.48 153.8C118.62 153.579 118.835 153.265 119.115 152.88C119.845 151.889 120.668 150.968 121.572 150.132C122.471 149.296 123.446 148.545 124.484 147.89C124.885 147.64 125.217 147.447 125.45 147.308C125.578 147.243 125.713 147.192 125.852 147.156Z" fill="#FAFAFA"/>
<path d="M128.181 155.436C128.181 155.436 126.061 152.39 123.523 148.588C120.984 144.785 118.922 141.682 118.951 141.664C118.981 141.647 121.071 144.715 123.61 148.518C126.149 152.32 128.21 155.418 128.181 155.436Z" fill="#FAFAFA"/>
<path d="M129.451 161.164C128.885 160.796 128.34 160.396 127.82 159.965C127.275 159.567 126.756 159.135 126.266 158.672C126.831 159.042 127.375 159.442 127.896 159.871C128.441 160.269 128.961 160.701 129.451 161.164Z" fill="#FAFAFA"/>
</svg>
